<svg width="902" height="980" xmlns="http://www.w3.org/2000/svg" xmlns:xlink="http://www.w3.org/1999/xlink" xml:space="preserve" overflow="hidden"><g transform="translate(-1626 -219)"><path d="M1796 1077 2501 1077" stroke="#262626" stroke-width="1.9564" stroke-linecap="square" stroke-linejoin="round" stroke-miterlimit="10" fill="none" fill-rule="evenodd"/><path d="M1796 232 2501 232" stroke="#262626" stroke-width="1.9564" stroke-linecap="square" stroke-linejoin="round" stroke-miterlimit="10" fill="none" fill-rule="evenodd"/><path d="M1796 1077 1796 1069" stroke="#262626" stroke-width="1.9564" stroke-linecap="square" stroke-linejoin="round" stroke-miterlimit="10" fill="none" fill-rule="evenodd"/><path d="M1937 1077 1937 1069" stroke="#262626" stroke-width="1.9564" stroke-linecap="square" stroke-linejoin="round" stroke-miterlimit="10" fill="none" fill-rule="evenodd"/><path d="M2078 1077 2078 1069" stroke="#262626" stroke-width="1.9564" stroke-linecap="square" stroke-linejoin="round" stroke-miterlimit="10" fill="none" fill-rule="evenodd"/><path d="M2219 1077 2219 1069" stroke="#262626" stroke-width="1.9564" stroke-linecap="square" stroke-linejoin="round" stroke-miterlimit="10" fill="none" fill-rule="evenodd"/><path d="M2360 1077 2360 1069" stroke="#262626" stroke-width="1.9564" stroke-linecap="square" stroke-linejoin="round" stroke-miterlimit="10" fill="none" fill-rule="evenodd"/><path d="M2501 1077 2501 1069" stroke="#262626" stroke-width="1.9564" stroke-linecap="square" stroke-linejoin="round" stroke-miterlimit="10" fill="none" fill-rule="evenodd"/><path d="M1796 232 1796 241" stroke="#262626" stroke-width="1.9564" stroke-linecap="square" stroke-linejoin="round" stroke-miterlimit="10" fill="none" fill-rule="evenodd"/><path d="M1937 232 1937 241" stroke="#262626" stroke-width="1.9564" stroke-linecap="square" stroke-linejoin="round" stroke-miterlimit="10" fill="none" fill-rule="evenodd"/><path d="M2078 232 2078 241" stroke="#262626" stroke-width="1.9564" stroke-linecap="square" stroke-linejoin="round" stroke-miterlimit="10" fill="none" fill-rule="evenodd"/><path d="M2219 232 2219 241" stroke="#262626" stroke-width="1.9564" stroke-linecap="square" stroke-linejoin="round" stroke-miterlimit="10" fill="none" fill-rule="evenodd"/><path d="M2360 232 2360 241" stroke="#262626" stroke-width="1.9564" stroke-linecap="square" stroke-linejoin="round" stroke-miterlimit="10" fill="none" fill-rule="evenodd"/><path d="M2501 232 2501 241" stroke="#262626" stroke-width="1.9564" stroke-linecap="square" stroke-linejoin="round" stroke-miterlimit="10" fill="none" fill-rule="evenodd"/><path d="M1805.07 1129.85 1805.07 1133.26 1786.07 1133.26C1786.05 1132.41 1786.19 1131.59 1786.49 1130.81 1786.97 1129.5 1787.74 1128.22 1788.81 1126.96 1789.88 1125.7 1791.42 1124.24 1793.43 1122.59 1796.54 1120.01 1798.65 1117.96 1799.75 1116.46 1800.85 1114.96 1801.4 1113.54 1801.4 1112.2 1801.4 1110.8 1800.9 1109.62 1799.9 1108.65 1798.9 1107.69 1797.6 1107.2 1795.99 1107.2 1794.3 1107.2 1792.94 1107.71 1791.92 1108.73 1790.9 1109.75 1790.38 1111.17 1790.37 1112.99L1786.74 1112.62C1786.99 1109.9 1787.92 1107.82 1789.54 1106.4 1791.16 1104.97 1793.34 1104.26 1796.08 1104.26 1798.84 1104.26 1801.02 1105.03 1802.62 1106.56 1804.22 1108.09 1805.02 1110 1805.02 1112.27 1805.02 1113.44 1804.79 1114.58 1804.31 1115.69 1803.84 1116.8 1803.06 1117.98 1801.98 1119.22 1800.9 1120.45 1799.08 1122.15 1796.54 1124.3 1794.42 1126.09 1793.06 1127.3 1792.47 1127.94 1791.87 1128.58 1791.37 1129.21 1790.97 1129.85L1805.07 1129.85Z" fill="#262626" fill-rule="evenodd"/><path d="M1928.9 1129.42 1928.9 1132.77 1910.1 1132.77C1910.09 1131.93 1910.23 1131.13 1910.52 1130.36 1910.99 1129.08 1911.76 1127.82 1912.81 1126.58 1913.87 1125.34 1915.4 1123.9 1917.39 1122.28 1920.47 1119.74 1922.55 1117.73 1923.64 1116.25 1924.73 1114.78 1925.27 1113.38 1925.27 1112.06 1925.27 1110.69 1924.78 1109.52 1923.79 1108.57 1922.8 1107.62 1921.51 1107.15 1919.92 1107.15 1918.25 1107.15 1916.91 1107.65 1915.89 1108.65 1914.88 1109.66 1914.37 1111.05 1914.35 1112.84L1910.77 1112.48C1911.01 1109.8 1911.94 1107.76 1913.54 1106.36 1915.14 1104.96 1917.3 1104.26 1920.01 1104.26 1922.73 1104.26 1924.89 1105.01 1926.48 1106.52 1928.06 1108.03 1928.86 1109.9 1928.86 1112.13 1928.86 1113.28 1928.62 1114.4 1928.15 1115.5 1927.69 1116.59 1926.92 1117.75 1925.84 1118.96 1924.77 1120.18 1922.98 1121.85 1920.47 1123.96 1918.37 1125.72 1917.02 1126.91 1916.43 1127.54 1915.84 1128.17 1915.35 1128.8 1914.95 1129.42L1928.9 1129.42ZM1934.32 1132.77 1934.32 1128.8 1938.3 1128.8 1938.3 1132.77 1934.32 1132.77ZM1943.26 1125.34 1946.91 1125.01C1947.19 1126.8 1947.82 1128.15 1948.81 1129.04 1949.8 1129.94 1950.99 1130.39 1952.38 1130.39 1954.07 1130.39 1955.49 1129.76 1956.66 1128.49 1957.82 1127.23 1958.4 1125.55 1958.4 1123.45 1958.4 1121.46 1957.84 1119.89 1956.72 1118.75 1955.61 1117.6 1954.14 1117.02 1952.34 1117.02 1951.2 1117.02 1950.18 1117.28 1949.28 1117.79 1948.38 1118.31 1947.66 1118.97 1947.14 1119.78L1943.88 1119.34 1946.64 1104.76 1960.77 1104.76 1960.77 1108.09 1949.42 1108.09 1947.88 1115.71C1949.59 1114.54 1951.39 1113.95 1953.26 1113.95 1955.74 1113.95 1957.83 1114.8 1959.54 1116.52 1961.25 1118.23 1962.1 1120.44 1962.1 1123.15 1962.1 1125.73 1961.35 1127.95 1959.85 1129.81 1958.03 1132.11 1955.54 1133.26 1952.38 1133.26 1949.79 1133.26 1947.68 1132.53 1946.05 1131.09 1944.42 1129.64 1943.49 1127.72 1943.26 1125.34Z" fill="#262626" fill-rule="evenodd"/><path d="M2069.13 1125.25 2072.49 1124.79C2072.89 1126.76 2073.55 1128.19 2074.48 1129.06 2075.4 1129.93 2076.54 1130.37 2077.89 1130.37 2079.47 1130.37 2080.81 1129.8 2081.9 1128.67 2082.99 1127.54 2083.53 1126.13 2083.53 1124.45 2083.53 1122.84 2083.03 1121.52 2082.02 1120.49 2081.01 1119.46 2079.72 1118.94 2078.15 1118.94 2077.52 1118.94 2076.72 1119.06 2075.78 1119.31L2076.15 1116.26C2076.38 1116.29 2076.55 1116.3 2076.69 1116.3 2078.12 1116.3 2079.42 1115.92 2080.58 1115.14 2081.73 1114.37 2082.31 1113.17 2082.31 1111.55 2082.31 1110.28 2081.89 1109.23 2081.05 1108.39 2080.22 1107.55 2079.13 1107.12 2077.8 1107.12 2076.5 1107.12 2075.41 1107.55 2074.53 1108.4 2073.66 1109.25 2073.1 1110.53 2072.84 1112.24L2069.47 1111.62C2069.88 1109.28 2070.82 1107.47 2072.28 1106.18 2073.74 1104.9 2075.55 1104.26 2077.73 1104.26 2079.23 1104.26 2080.61 1104.59 2081.88 1105.25 2083.14 1105.92 2084.11 1106.83 2084.78 1107.97 2085.44 1109.12 2085.78 1110.34 2085.78 1111.62 2085.78 1112.86 2085.46 1113.98 2084.82 1114.98 2084.18 1115.98 2083.24 1116.78 2081.98 1117.38 2083.61 1117.76 2084.87 1118.57 2085.78 1119.79 2086.68 1121.01 2087.13 1122.54 2087.13 1124.38 2087.13 1126.86 2086.25 1128.95 2084.5 1130.68 2082.74 1132.4 2080.53 1133.26 2077.87 1133.26 2075.45 1133.26 2073.45 1132.52 2071.85 1131.03 2070.26 1129.55 2069.35 1127.62 2069.13 1125.25Z" fill="#262626" fill-rule="evenodd"/><path d="M2193.17 1125.25 2196.61 1124.79C2197.01 1126.76 2197.69 1128.19 2198.64 1129.06 2199.59 1129.93 2200.75 1130.37 2202.13 1130.37 2203.76 1130.37 2205.13 1129.8 2206.24 1128.67 2207.35 1127.54 2207.91 1126.13 2207.91 1124.45 2207.91 1122.84 2207.4 1121.52 2206.37 1120.49 2205.33 1119.46 2204.01 1118.94 2202.41 1118.94 2201.75 1118.94 2200.94 1119.06 2199.97 1119.31L2200.36 1116.26C2200.59 1116.29 2200.77 1116.3 2200.91 1116.3 2202.38 1116.3 2203.7 1115.92 2204.89 1115.14 2206.07 1114.37 2206.66 1113.17 2206.66 1111.55 2206.66 1110.28 2206.23 1109.23 2205.38 1108.39 2204.52 1107.55 2203.41 1107.12 2202.04 1107.12 2200.71 1107.12 2199.59 1107.55 2198.7 1108.4 2197.8 1109.25 2197.23 1110.53 2196.97 1112.24L2193.51 1111.62C2193.94 1109.28 2194.9 1107.47 2196.39 1106.18 2197.88 1104.9 2199.74 1104.26 2201.97 1104.26 2203.51 1104.26 2204.92 1104.59 2206.22 1105.25 2207.51 1105.92 2208.5 1106.83 2209.19 1107.97 2209.87 1109.12 2210.21 1110.34 2210.21 1111.62 2210.21 1112.86 2209.88 1113.98 2209.23 1114.98 2208.58 1115.98 2207.61 1116.78 2206.32 1117.38 2207.99 1117.76 2209.28 1118.57 2210.21 1119.79 2211.13 1121.01 2211.6 1122.54 2211.6 1124.38 2211.6 1126.86 2210.7 1128.95 2208.9 1130.68 2207.1 1132.4 2204.84 1133.26 2202.11 1133.26 2199.64 1133.26 2197.59 1132.52 2195.96 1131.03 2194.33 1129.55 2193.4 1127.62 2193.17 1125.25ZM2216.67 1132.75 2216.67 1128.78 2220.6 1128.78 2220.6 1132.75 2216.67 1132.75ZM2225.52 1125.32 2229.13 1125C2229.41 1126.79 2230.03 1128.13 2231.01 1129.02 2231.99 1129.92 2233.17 1130.37 2234.55 1130.37 2236.22 1130.37 2237.63 1129.74 2238.78 1128.47 2239.93 1127.21 2240.51 1125.53 2240.51 1123.44 2240.51 1121.45 2239.95 1119.88 2238.85 1118.73 2237.74 1117.59 2236.29 1117.01 2234.5 1117.01 2233.38 1117.01 2232.37 1117.27 2231.48 1117.78 2230.58 1118.29 2229.88 1118.96 2229.36 1119.77L2226.13 1119.33 2228.86 1104.76 2242.85 1104.76 2242.85 1108.09 2231.61 1108.09 2230.09 1115.71C2231.79 1114.53 2233.56 1113.94 2235.41 1113.94 2237.87 1113.94 2239.94 1114.8 2241.63 1116.51 2243.32 1118.22 2244.17 1120.43 2244.17 1123.14 2244.17 1125.71 2243.43 1127.93 2241.94 1129.79 2240.14 1132.09 2237.67 1133.23 2234.55 1133.23 2231.98 1133.23 2229.89 1132.51 2228.28 1131.07 2226.66 1129.62 2225.74 1127.7 2225.52 1125.32Z" fill="#262626" fill-rule="evenodd"/><path d="M2362.12 1133.26 2362.12 1126.32 2350.2 1126.32 2350.2 1123.06 2362.72 1104.26 2365.47 1104.26 2365.47 1123.06 2369.2 1123.06 2369.2 1126.32 2365.47 1126.32 2365.47 1133.26 2362.12 1133.26ZM2362.12 1123.06 2362.12 1109.98 2353.51 1123.06 2362.12 1123.06Z" fill="#262626" fill-rule="evenodd"/><path d="M2486.66 1132.77 2486.66 1125.95 2474.24 1125.95 2474.24 1122.75 2487.28 1104.26 2490.15 1104.26 2490.15 1122.75 2494.03 1122.75 2494.03 1125.95 2490.15 1125.95 2490.15 1132.77 2486.66 1132.77ZM2486.66 1122.75 2486.66 1109.88 2477.69 1122.75 2486.66 1122.75ZM2499.3 1132.77 2499.3 1128.79 2503.29 1128.79 2503.29 1132.77 2499.3 1132.77ZM2508.29 1125.31 2511.96 1124.98C2512.24 1126.78 2512.88 1128.13 2513.87 1129.03 2514.86 1129.93 2516.06 1130.38 2517.46 1130.38 2519.16 1130.38 2520.59 1129.74 2521.76 1128.47 2522.94 1127.21 2523.52 1125.52 2523.52 1123.41 2523.52 1121.42 2522.96 1119.84 2521.83 1118.69 2520.71 1117.54 2519.24 1116.96 2517.42 1116.96 2516.28 1116.96 2515.25 1117.22 2514.34 1117.73 2513.43 1118.25 2512.72 1118.91 2512.19 1119.73L2508.91 1119.29 2511.69 1104.65 2525.9 1104.65 2525.9 1107.99 2514.48 1107.99 2512.93 1115.65C2514.66 1114.46 2516.46 1113.87 2518.34 1113.87 2520.84 1113.87 2522.95 1114.73 2524.67 1116.45 2526.38 1118.17 2527.24 1120.39 2527.24 1123.11 2527.24 1125.7 2526.49 1127.93 2524.98 1129.8 2523.14 1132.11 2520.64 1133.26 2517.46 1133.26 2514.86 1133.26 2512.74 1132.53 2511.1 1131.08 2509.45 1129.63 2508.52 1127.7 2508.29 1125.31Z" fill="#262626" fill-rule="evenodd"/><path d="M2063.18 1189.29 2063.18 1162.38 2053.15 1162.38 2053.15 1158.77 2077.32 1158.77 2077.32 1162.38 2067.22 1162.38 2067.22 1189.29 2063.18 1189.29ZM2081.27 1163.09 2081.27 1158.77 2085.01 1158.77 2085.01 1163.09 2081.27 1163.09ZM2081.27 1189.29 2081.27 1167.2 2085.01 1167.2 2085.01 1189.29 2081.27 1189.29ZM2090.81 1189.29 2090.81 1167.2 2094.16 1167.2 2094.16 1170.3C2094.86 1169.22 2095.79 1168.34 2096.94 1167.68 2098.08 1167.03 2099.39 1166.7 2100.86 1166.7 2102.5 1166.7 2103.84 1167.04 2104.89 1167.72 2105.94 1168.4 2106.67 1169.35 2107.1 1170.55 2108.85 1167.98 2111.12 1166.7 2113.92 1166.7 2116.11 1166.7 2117.79 1167.3 2118.97 1168.51 2120.15 1169.72 2120.74 1171.59 2120.74 1174.11L2120.74 1189.29 2117.02 1189.29 2117.02 1175.38C2117.02 1173.88 2116.9 1172.8 2116.66 1172.14 2116.42 1171.48 2115.98 1170.95 2115.34 1170.54 2114.7 1170.14 2113.95 1169.93 2113.09 1169.93 2111.53 1169.93 2110.24 1170.45 2109.21 1171.48 2108.19 1172.52 2107.68 1174.17 2107.68 1176.46L2107.68 1189.29 2103.94 1189.29 2103.94 1174.94C2103.94 1173.27 2103.63 1172.02 2103.02 1171.19 2102.41 1170.35 2101.41 1169.93 2100.03 1169.93 2098.98 1169.93 2098 1170.21 2097.11 1170.77 2096.21 1171.33 2095.56 1172.14 2095.16 1173.21 2094.75 1174.27 2094.55 1175.81 2094.55 1177.83L2094.55 1189.29 2090.81 1189.29ZM2141.8 1182.17 2145.68 1182.66C2145.06 1184.92 2143.93 1186.68 2142.28 1187.93 2140.63 1189.17 2138.52 1189.8 2135.97 1189.8 2132.72 1189.8 2130.16 1188.8 2128.27 1186.81 2126.38 1184.82 2125.43 1182.03 2125.43 1178.43 2125.43 1174.71 2126.39 1171.83 2128.3 1169.77 2130.21 1167.72 2132.69 1166.7 2135.74 1166.7 2138.71 1166.7 2141.12 1167.7 2142.99 1169.72 2144.86 1171.73 2145.79 1174.56 2145.79 1178.2 2145.79 1178.42 2145.78 1178.74 2145.77 1179.19L2129.31 1179.19C2129.45 1181.62 2130.13 1183.49 2131.37 1184.78 2132.6 1186.07 2134.13 1186.72 2135.97 1186.72 2137.34 1186.72 2138.52 1186.36 2139.49 1185.63 2140.46 1184.9 2141.23 1183.75 2141.8 1182.17ZM2129.52 1176.11 2141.84 1176.11C2141.67 1174.26 2141.2 1172.87 2140.42 1171.93 2139.23 1170.49 2137.68 1169.77 2135.78 1169.77 2134.07 1169.77 2132.63 1170.35 2131.46 1171.5 2130.29 1172.64 2129.64 1174.18 2129.52 1176.11ZM2169.74 1198.27C2167.67 1195.65 2165.93 1192.59 2164.5 1189.1 2163.07 1185.6 2162.35 1181.98 2162.35 1178.25 2162.35 1174.94 2162.89 1171.78 2163.96 1168.76 2165.21 1165.24 2167.14 1161.74 2169.74 1158.27L2172.42 1158.27C2170.74 1161.15 2169.63 1163.21 2169.1 1164.45 2168.26 1166.36 2167.59 1168.36 2167.1 1170.44 2166.5 1173.03 2166.21 1175.64 2166.21 1178.27 2166.21 1184.94 2168.28 1191.61 2172.42 1198.27L2169.74 1198.27ZM2176.92 1189.29 2176.92 1167.2 2180.27 1167.2 2180.27 1170.3C2180.97 1169.22 2181.9 1168.34 2183.04 1167.68 2184.19 1167.03 2185.5 1166.7 2186.97 1166.7 2188.61 1166.7 2189.95 1167.04 2191 1167.72 2192.04 1168.4 2192.78 1169.35 2193.21 1170.55 2194.96 1167.98 2197.23 1166.7 2200.03 1166.7 2202.22 1166.7 2203.9 1167.3 2205.08 1168.51 2206.25 1169.72 2206.84 1171.59 2206.84 1174.11L2206.84 1189.29 2203.13 1189.29 2203.13 1175.38C2203.13 1173.88 2203.01 1172.8 2202.77 1172.14 2202.53 1171.48 2202.09 1170.95 2201.45 1170.54 2200.81 1170.14 2200.06 1169.93 2199.2 1169.93 2197.64 1169.93 2196.35 1170.45 2195.32 1171.48 2194.3 1172.52 2193.79 1174.17 2193.79 1176.46L2193.79 1189.29 2190.04 1189.29 2190.04 1174.94C2190.04 1173.27 2189.74 1172.02 2189.13 1171.19 2188.51 1170.35 2187.52 1169.93 2186.14 1169.93 2185.09 1169.93 2184.11 1170.21 2183.22 1170.77 2182.32 1171.33 2181.67 1172.14 2181.27 1173.21 2180.86 1174.27 2180.66 1175.81 2180.66 1177.83L2180.66 1189.29 2176.92 1189.29ZM2211.29 1182.7 2214.98 1182.1C2215.2 1183.59 2215.78 1184.73 2216.73 1185.53 2217.68 1186.32 2219.01 1186.72 2220.72 1186.72 2222.44 1186.72 2223.71 1186.37 2224.54 1185.66 2225.38 1184.96 2225.79 1184.13 2225.79 1183.18 2225.79 1182.34 2225.43 1181.68 2224.69 1181.19 2224.17 1180.86 2222.89 1180.44 2220.86 1179.92 2218.12 1179.23 2216.22 1178.64 2215.16 1178.13 2214.09 1177.63 2213.29 1176.93 2212.74 1176.03 2212.18 1175.14 2211.91 1174.14 2211.91 1173.06 2211.91 1172.08 2212.13 1171.17 2212.59 1170.32 2213.04 1169.48 2213.65 1168.79 2214.43 1168.24 2215.02 1167.81 2215.81 1167.44 2216.81 1167.14 2217.81 1166.85 2218.89 1166.7 2220.06 1166.7 2221.79 1166.7 2223.3 1166.95 2224.61 1167.44 2225.92 1167.94 2226.89 1168.62 2227.52 1169.48 2228.14 1170.33 2228.57 1171.47 2228.8 1172.9L2225.15 1173.4C2224.98 1172.25 2224.5 1171.36 2223.71 1170.73 2222.91 1170.09 2221.78 1169.77 2220.31 1169.77 2218.6 1169.77 2217.37 1170.06 2216.64 1170.62 2215.9 1171.19 2215.54 1171.86 2215.54 1172.62 2215.54 1173.11 2215.69 1173.55 2215.99 1173.93 2216.3 1174.33 2216.77 1174.66 2217.42 1174.94 2217.8 1175.08 2218.91 1175.39 2220.75 1175.88 2223.39 1176.6 2225.24 1177.18 2226.28 1177.63 2227.32 1178.07 2228.13 1178.73 2228.73 1179.59 2229.33 1180.45 2229.63 1181.52 2229.63 1182.79 2229.63 1184.05 2229.26 1185.23 2228.54 1186.33 2227.81 1187.43 2226.76 1188.29 2225.39 1188.89 2224.02 1189.49 2222.47 1189.8 2220.75 1189.8 2217.87 1189.8 2215.68 1189.2 2214.17 1188.01 2212.66 1186.81 2211.7 1185.04 2211.29 1182.7ZM2236.76 1198.27 2234.08 1198.27C2238.23 1191.61 2240.3 1184.94 2240.3 1178.27 2240.3 1175.65 2240 1173.07 2239.4 1170.51 2238.94 1168.43 2238.29 1166.43 2237.43 1164.52 2236.89 1163.26 2235.78 1161.18 2234.08 1158.27L2236.76 1158.27C2239.38 1161.74 2241.31 1165.24 2242.55 1168.76 2243.62 1171.78 2244.15 1174.94 2244.15 1178.25 2244.15 1181.98 2243.44 1185.6 2242 1189.1 2240.56 1192.59 2238.81 1195.65 2236.76 1198.27Z" fill="#262626" fill-rule="evenodd"/><path d="M2415.22 1195.48C2415.22 1195.29 2415.28 1195.1 2415.4 1194.94L2423.6 1186.78 2415.4 1178.6C2415.28 1178.46 2415.22 1178.29 2415.22 1178.08 2415.22 1177.88 2415.29 1177.7 2415.44 1177.53 2415.6 1177.36 2415.79 1177.28 2416.01 1177.28 2416.18 1177.28 2416.38 1177.36 2416.61 1177.53L2424.74 1185.69 2432.87 1177.53C2433.09 1177.36 2433.27 1177.28 2433.44 1177.28 2433.65 1177.28 2433.84 1177.36 2433.99 1177.51 2434.14 1177.66 2434.22 1177.85 2434.22 1178.08 2434.22 1178.29 2434.16 1178.46 2434.03 1178.6L2425.86 1186.78 2434.03 1194.94C2434.16 1195.1 2434.22 1195.29 2434.22 1195.48 2434.22 1195.71 2434.14 1195.9 2433.99 1196.05 2433.84 1196.2 2433.65 1196.28 2433.44 1196.28 2433.24 1196.28 2433.05 1196.18 2432.87 1195.98L2424.74 1187.87 2416.61 1195.98C2416.41 1196.18 2416.21 1196.28 2416.01 1196.28 2415.79 1196.28 2415.6 1196.2 2415.44 1196.03 2415.29 1195.86 2415.22 1195.68 2415.22 1195.48Z" fill="#262626" fill-rule="evenodd"/><path d="M2454.8 1196.8 2451.28 1196.8 2451.28 1174.57C2450.43 1175.38 2449.31 1176.19 2447.94 1176.98 2446.56 1177.78 2445.33 1178.38 2444.23 1178.78L2444.23 1175.4C2446.21 1174.5 2447.93 1173.39 2449.4 1172.08 2450.87 1170.77 2451.91 1169.51 2452.53 1168.28L2454.8 1168.28 2454.8 1196.8ZM2463.54 1182.79C2463.54 1179.44 2463.89 1176.74 2464.58 1174.69 2465.28 1172.64 2466.31 1171.06 2467.69 1169.95 2469.06 1168.84 2470.8 1168.28 2472.88 1168.28 2474.43 1168.28 2475.78 1168.59 2476.94 1169.2 2478.1 1169.81 2479.06 1170.7 2479.82 1171.85 2480.57 1173.01 2481.17 1174.42 2481.59 1176.08 2482.02 1177.74 2482.23 1179.98 2482.23 1182.79 2482.23 1186.13 2481.88 1188.82 2481.2 1190.86 2480.51 1192.91 2479.48 1194.49 2478.1 1195.61 2476.72 1196.72 2474.99 1197.28 2472.88 1197.28 2470.12 1197.28 2467.94 1196.3 2466.37 1194.34 2464.48 1191.97 2463.54 1188.12 2463.54 1182.79ZM2467.16 1182.79C2467.16 1187.46 2467.7 1190.57 2468.8 1192.1 2469.9 1193.64 2471.26 1194.41 2472.88 1194.41 2474.51 1194.41 2475.87 1193.64 2476.96 1192.09 2478.06 1190.55 2478.61 1187.45 2478.61 1182.79 2478.61 1178.13 2478.06 1175.02 2476.96 1173.48 2475.87 1171.94 2474.49 1171.18 2472.84 1171.18 2471.23 1171.18 2469.94 1171.85 2468.96 1173.2 2467.76 1174.93 2467.16 1178.13 2467.16 1182.79Z" fill="#262626" fill-rule="evenodd"/><path d="M2493.62 1177.28 2493.62 1172.02 2484.23 1172.02 2484.23 1169.52 2494.12 1155.28 2496.3 1155.28 2496.3 1169.52 2499.23 1169.52 2499.23 1172.02 2496.3 1172.02 2496.3 1177.28 2493.62 1177.28ZM2493.62 1169.52 2493.62 1159.62 2486.84 1169.52 2493.62 1169.52Z" fill="#262626" fill-rule="evenodd"/><path d="M1796 1077 1796 232" stroke="#262626" stroke-width="1.9564" stroke-linecap="square" stroke-linejoin="round" stroke-miterlimit="10" fill="none" fill-rule="evenodd"/><path d="M2501 1077 2501 232" stroke="#262626" stroke-width="1.9564" stroke-linecap="square" stroke-linejoin="round" stroke-miterlimit="10" fill="none" fill-rule="evenodd"/><path d="M1796 1077 1804 1077" stroke="#262626" stroke-width="1.9564" stroke-linecap="square" stroke-linejoin="round" stroke-miterlimit="10" fill="none" fill-rule="evenodd"/><path d="M1796 936 1804 936" stroke="#262626" stroke-width="1.9564" stroke-linecap="square" stroke-linejoin="round" stroke-miterlimit="10" fill="none" fill-rule="evenodd"/><path d="M1796 796 1804 796" stroke="#262626" stroke-width="1.9564" stroke-linecap="square" stroke-linejoin="round" stroke-miterlimit="10" fill="none" fill-rule="evenodd"/><path d="M1796 655 1804 655" stroke="#262626" stroke-width="1.9564" stroke-linecap="square" stroke-linejoin="round" stroke-miterlimit="10" fill="none" fill-rule="evenodd"/><path d="M1796 514 1804 514" stroke="#262626" stroke-width="1.9564" stroke-linecap="square" stroke-linejoin="round" stroke-miterlimit="10" fill="none" fill-rule="evenodd"/><path d="M1796 373 1804 373" stroke="#262626" stroke-width="1.9564" stroke-linecap="square" stroke-linejoin="round" stroke-miterlimit="10" fill="none" fill-rule="evenodd"/><path d="M1796 232 1804 232" stroke="#262626" stroke-width="1.9564" stroke-linecap="square" stroke-linejoin="round" stroke-miterlimit="10" fill="none" fill-rule="evenodd"/><path d="M2501 1077 2493 1077" stroke="#262626" stroke-width="1.9564" stroke-linecap="square" stroke-linejoin="round" stroke-miterlimit="10" fill="none" fill-rule="evenodd"/><path d="M2501 936 2493 936" stroke="#262626" stroke-width="1.9564" stroke-linecap="square" stroke-linejoin="round" stroke-miterlimit="10" fill="none" fill-rule="evenodd"/><path d="M2501 796 2493 796" stroke="#262626" stroke-width="1.9564" stroke-linecap="square" stroke-linejoin="round" stroke-miterlimit="10" fill="none" fill-rule="evenodd"/><path d="M2501 655 2493 655" stroke="#262626" stroke-width="1.9564" stroke-linecap="square" stroke-linejoin="round" stroke-miterlimit="10" fill="none" fill-rule="evenodd"/><path d="M2501 514 2493 514" stroke="#262626" stroke-width="1.9564" stroke-linecap="square" stroke-linejoin="round" stroke-miterlimit="10" fill="none" fill-rule="evenodd"/><path d="M2501 373 2493 373" stroke="#262626" stroke-width="1.9564" stroke-linecap="square" stroke-linejoin="round" stroke-miterlimit="10" fill="none" fill-rule="evenodd"/><path d="M2501 232 2493 232" stroke="#262626" stroke-width="1.9564" stroke-linecap="square" stroke-linejoin="round" stroke-miterlimit="10" fill="none" fill-rule="evenodd"/><path d="M1680.06 1084.25 1680.06 1080.74 1690.73 1080.74 1690.73 1084.25 1680.06 1084.25ZM1706.55 1092.77 1703.07 1092.77 1703.07 1070.54C1702.23 1071.36 1701.13 1072.16 1699.77 1072.96 1698.42 1073.75 1697.2 1074.35 1696.11 1074.75L1696.11 1071.37C1698.07 1070.47 1699.77 1069.36 1701.22 1068.05 1702.67 1066.74 1703.7 1065.48 1704.31 1064.25L1706.55 1064.25 1706.55 1092.77ZM1728.27 1092.77 1724.79 1092.77 1724.79 1070.54C1723.95 1071.36 1722.85 1072.16 1721.49 1072.96 1720.14 1073.75 1718.91 1074.35 1717.83 1074.75L1717.83 1071.37C1719.78 1070.47 1721.49 1069.36 1722.94 1068.05 1724.39 1066.74 1725.42 1065.48 1726.03 1064.25L1728.27 1064.25 1728.27 1092.77ZM1755.16 1089.42 1755.16 1092.77 1736.44 1092.77C1736.42 1091.93 1736.56 1091.13 1736.85 1090.36 1737.32 1089.07 1738.08 1087.81 1739.14 1086.57 1740.19 1085.33 1741.71 1083.9 1743.69 1082.28 1746.76 1079.74 1748.84 1077.73 1749.92 1076.25 1751 1074.77 1751.54 1073.38 1751.54 1072.06 1751.54 1070.68 1751.05 1069.52 1750.07 1068.57 1749.08 1067.62 1747.8 1067.15 1746.21 1067.15 1744.55 1067.15 1743.21 1067.65 1742.21 1068.65 1741.2 1069.65 1740.69 1071.05 1740.67 1072.84L1737.1 1072.47C1737.34 1069.79 1738.26 1067.75 1739.86 1066.35 1741.45 1064.95 1743.6 1064.25 1746.3 1064.25 1749.02 1064.25 1751.17 1065.01 1752.75 1066.51 1754.33 1068.02 1755.12 1069.89 1755.12 1072.13 1755.12 1073.28 1754.88 1074.4 1754.42 1075.49 1753.95 1076.59 1753.19 1077.74 1752.12 1078.96 1751.05 1080.18 1749.26 1081.84 1746.76 1083.95 1744.67 1085.71 1743.33 1086.91 1742.74 1087.54 1742.16 1088.16 1741.66 1088.79 1741.27 1089.42L1755.16 1089.42ZM1758.61 1078.76C1758.61 1075.41 1758.96 1072.71 1759.64 1070.66 1760.33 1068.61 1761.35 1067.03 1762.71 1065.92 1764.07 1064.81 1765.78 1064.25 1767.84 1064.25 1769.36 1064.25 1770.7 1064.56 1771.84 1065.17 1772.99 1065.78 1773.93 1066.67 1774.68 1067.82 1775.43 1068.98 1776.01 1070.39 1776.43 1072.05 1776.85 1073.71 1777.06 1075.95 1777.06 1078.76 1777.06 1082.1 1776.72 1084.79 1776.04 1086.84 1775.37 1088.88 1774.35 1090.46 1772.99 1091.58 1771.63 1092.69 1769.91 1093.25 1767.84 1093.25 1765.11 1093.25 1762.96 1092.27 1761.41 1090.31 1759.54 1087.94 1758.61 1084.09 1758.61 1078.76ZM1762.18 1078.76C1762.18 1083.43 1762.73 1086.54 1763.81 1088.08 1764.89 1089.61 1766.24 1090.38 1767.84 1090.38 1769.44 1090.38 1770.78 1089.61 1771.87 1088.06 1772.95 1086.52 1773.49 1083.42 1773.49 1078.76 1773.49 1074.1 1772.95 1070.99 1771.87 1069.45 1770.78 1067.92 1769.43 1067.15 1767.79 1067.15 1766.21 1067.15 1764.93 1067.82 1763.97 1069.17 1762.78 1070.9 1762.18 1074.1 1762.18 1078.76Z" fill="#262626" fill-rule="evenodd"/><path d="M1680.06 943.218 1680.06 939.705 1690.73 939.705 1690.73 943.218 1680.06 943.218ZM1706.55 951.736 1703.07 951.736 1703.07 929.51C1702.23 930.321 1701.13 931.124 1699.77 931.92 1698.42 932.716 1697.2 933.314 1696.11 933.712L1696.11 930.336C1698.07 929.433 1699.77 928.327 1701.22 927.018 1702.67 925.71 1703.7 924.443 1704.31 923.218L1706.55 923.218 1706.55 951.736ZM1728.27 951.736 1724.79 951.736 1724.79 929.51C1723.95 930.321 1722.85 931.124 1721.49 931.92 1720.14 932.716 1718.91 933.314 1717.83 933.712L1717.83 930.336C1719.78 929.433 1721.49 928.327 1722.94 927.018 1724.39 925.71 1725.42 924.443 1726.03 923.218L1728.27 923.218 1728.27 951.736ZM1736.89 937.73C1736.89 934.377 1737.24 931.676 1737.92 929.624 1738.61 927.573 1739.63 925.993 1740.99 924.883 1742.35 923.773 1744.06 923.218 1746.12 923.218 1747.65 923.218 1748.98 923.525 1750.13 924.137 1751.27 924.749 1752.22 925.633 1752.96 926.789 1753.71 927.944 1754.3 929.353 1754.72 931.014 1755.13 932.675 1755.34 934.913 1755.34 937.73 1755.34 941.067 1755.01 943.757 1754.33 945.801 1753.65 947.844 1752.63 949.425 1751.27 950.542 1749.91 951.66 1748.2 952.219 1746.12 952.219 1743.39 952.219 1741.24 951.239 1739.69 949.279 1737.83 946.907 1736.89 943.057 1736.89 937.73ZM1740.47 937.73C1740.47 942.399 1741.01 945.502 1742.09 947.041 1743.17 948.579 1744.52 949.348 1746.12 949.348 1747.72 949.348 1749.07 948.575 1750.15 947.029 1751.23 945.483 1751.77 942.384 1751.77 937.73 1751.77 933.061 1751.23 929.957 1750.15 928.419 1749.07 926.88 1747.71 926.112 1746.07 926.112 1744.49 926.112 1743.21 926.785 1742.25 928.132 1741.06 929.862 1740.47 933.061 1740.47 937.73ZM1758.61 937.73C1758.61 934.377 1758.96 931.676 1759.64 929.624 1760.33 927.573 1761.35 925.993 1762.71 924.883 1764.07 923.773 1765.78 923.218 1767.84 923.218 1769.36 923.218 1770.7 923.525 1771.84 924.137 1772.99 924.749 1773.93 925.633 1774.68 926.789 1775.43 927.944 1776.01 929.353 1776.43 931.014 1776.85 932.675 1777.06 934.913 1777.06 937.73 1777.06 941.067 1776.72 943.757 1776.04 945.801 1775.37 947.844 1774.35 949.425 1772.99 950.542 1771.63 951.66 1769.91 952.219 1767.84 952.219 1765.11 952.219 1762.96 951.239 1761.41 949.279 1759.54 946.907 1758.61 943.057 1758.61 937.73ZM1762.18 937.73C1762.18 942.399 1762.73 945.502 1763.81 947.041 1764.89 948.579 1766.24 949.348 1767.84 949.348 1769.44 949.348 1770.78 948.575 1771.87 947.029 1772.95 945.483 1773.49 942.384 1773.49 937.73 1773.49 933.061 1772.95 929.957 1771.87 928.419 1770.78 926.88 1769.43 926.112 1767.79 926.112 1766.21 926.112 1764.93 926.785 1763.97 928.132 1762.78 929.862 1762.18 933.061 1762.18 937.73Z" fill="#262626" fill-rule="evenodd"/><path d="M1680.06 803.183 1680.06 799.67 1690.73 799.67 1690.73 803.183 1680.06 803.183ZM1706.55 811.702 1703.07 811.702 1703.07 789.475C1702.23 790.287 1701.13 791.09 1699.77 791.886 1698.42 792.682 1697.2 793.279 1696.11 793.677L1696.11 790.302C1698.07 789.399 1699.77 788.293 1701.22 786.984 1702.67 785.675 1703.7 784.408 1704.31 783.184L1706.55 783.184 1706.55 811.702ZM1715.18 797.696C1715.18 794.343 1715.52 791.641 1716.21 789.59 1716.89 787.539 1717.92 785.958 1719.27 784.849 1720.63 783.739 1722.34 783.184 1724.4 783.184 1725.93 783.184 1727.26 783.49 1728.41 784.102 1729.55 784.714 1730.5 785.599 1731.24 786.754 1731.99 787.91 1732.58 789.318 1733 790.979 1733.42 792.64 1733.63 794.879 1733.63 797.696 1733.63 801.032 1733.29 803.723 1732.61 805.766 1731.93 807.81 1730.91 809.391 1729.55 810.508 1728.19 811.625 1726.48 812.184 1724.4 812.184 1721.67 812.184 1719.53 811.204 1717.97 809.245 1716.11 806.872 1715.18 803.022 1715.18 797.696ZM1718.75 797.696C1718.75 802.364 1719.29 805.468 1720.37 807.006 1721.46 808.545 1722.8 809.314 1724.4 809.314 1726 809.314 1727.35 808.541 1728.43 806.995 1729.51 805.449 1730.05 802.349 1730.05 797.696 1730.05 793.027 1729.51 789.923 1728.43 788.385 1727.35 786.846 1725.99 786.077 1724.35 786.077 1722.77 786.077 1721.49 786.75 1720.53 788.097 1719.34 789.827 1718.75 793.027 1718.75 797.696ZM1742.23 796.295C1740.79 795.774 1739.73 795.021 1739.03 794.033 1738.34 793.046 1737.99 791.871 1737.99 790.509 1737.99 788.442 1738.73 786.705 1740.21 785.296 1741.69 783.888 1743.66 783.184 1746.12 783.184 1748.59 783.184 1750.58 783.903 1752.08 785.342 1753.59 786.781 1754.34 788.534 1754.34 790.6 1754.34 791.917 1753.99 793.065 1753.31 794.044 1752.62 795.024 1751.58 795.774 1750.17 796.295 1751.91 796.861 1753.23 797.78 1754.14 799.05 1755.05 800.321 1755.5 801.828 1755.5 803.574 1755.5 806.007 1754.65 808.051 1752.94 809.704 1751.23 811.357 1748.98 812.184 1746.19 812.184 1743.38 812.184 1741.12 811.354 1739.41 809.693 1737.7 808.032 1736.85 805.961 1736.85 803.482 1736.85 801.645 1737.31 800.102 1738.25 798.855 1739.18 797.608 1740.5 796.754 1742.23 796.295ZM1741.54 790.394C1741.54 791.741 1741.97 792.839 1742.83 793.689 1743.7 794.538 1744.81 794.963 1746.19 794.963 1747.53 794.963 1748.63 794.538 1749.48 793.689 1750.34 792.839 1750.77 791.802 1750.77 790.578 1750.77 789.307 1750.33 788.235 1749.45 787.363 1748.57 786.49 1747.48 786.054 1746.17 786.054 1744.84 786.054 1743.74 786.479 1742.86 787.328 1741.98 788.178 1741.54 789.2 1741.54 790.394ZM1740.42 803.505C1740.42 804.5 1740.66 805.464 1741.13 806.398 1741.6 807.332 1742.3 808.051 1743.22 808.556 1744.15 809.061 1745.14 809.314 1746.21 809.314 1747.87 809.314 1749.25 808.778 1750.33 807.707 1751.42 806.635 1751.96 805.273 1751.96 803.62 1751.96 801.936 1751.4 800.546 1750.29 799.452 1749.17 798.357 1747.78 797.81 1746.1 797.81 1744.46 797.81 1743.11 798.354 1742.03 799.44 1740.96 800.527 1740.42 801.882 1740.42 803.505ZM1758.61 797.696C1758.61 794.343 1758.96 791.641 1759.64 789.59 1760.33 787.539 1761.35 785.958 1762.71 784.849 1764.07 783.739 1765.78 783.184 1767.84 783.184 1769.36 783.184 1770.7 783.49 1771.84 784.102 1772.99 784.714 1773.93 785.599 1774.68 786.754 1775.43 787.91 1776.01 789.318 1776.43 790.979 1776.85 792.64 1777.06 794.879 1777.06 797.696 1777.06 801.032 1776.72 803.723 1776.04 805.766 1775.37 807.81 1774.35 809.391 1772.99 810.508 1771.63 811.625 1769.91 812.184 1767.84 812.184 1765.11 812.184 1762.96 811.204 1761.41 809.245 1759.54 806.872 1758.61 803.022 1758.61 797.696ZM1762.18 797.696C1762.18 802.364 1762.73 805.468 1763.81 807.006 1764.89 808.545 1766.24 809.314 1767.84 809.314 1769.44 809.314 1770.78 808.541 1771.87 806.995 1772.95 805.449 1773.49 802.349 1773.49 797.696 1773.49 793.027 1772.95 789.923 1771.87 788.385 1770.78 786.846 1769.43 786.077 1767.79 786.077 1766.21 786.077 1764.93 786.75 1763.97 788.097 1762.78 789.827 1762.18 793.027 1762.18 797.696Z" fill="#262626" fill-rule="evenodd"/><path d="M1680.06 662.149 1680.06 658.636 1690.73 658.636 1690.73 662.149 1680.06 662.149ZM1706.55 670.667 1703.07 670.667 1703.07 648.441C1702.23 649.252 1701.13 650.056 1699.77 650.852 1698.42 651.648 1697.2 652.245 1696.11 652.643L1696.11 649.267C1698.07 648.364 1699.77 647.258 1701.22 645.949 1702.67 644.641 1703.7 643.374 1704.31 642.15L1706.55 642.15 1706.55 670.667ZM1715.18 656.661C1715.18 653.309 1715.52 650.607 1716.21 648.556 1716.89 646.504 1717.92 644.924 1719.27 643.814 1720.63 642.704 1722.34 642.15 1724.4 642.15 1725.93 642.15 1727.26 642.456 1728.41 643.068 1729.55 643.68 1730.5 644.564 1731.24 645.72 1731.99 646.876 1732.58 648.284 1733 649.945 1733.42 651.606 1733.63 653.844 1733.63 656.661 1733.63 659.998 1733.29 662.688 1732.61 664.732 1731.93 666.776 1730.91 668.356 1729.55 669.473 1728.19 670.591 1726.48 671.149 1724.4 671.149 1721.67 671.149 1719.53 670.17 1717.97 668.21 1716.11 665.838 1715.18 661.988 1715.18 656.661ZM1718.75 656.661C1718.75 661.33 1719.29 664.433 1720.37 665.972 1721.46 667.51 1722.8 668.279 1724.4 668.279 1726 668.279 1727.35 667.506 1728.43 665.96 1729.51 664.414 1730.05 661.314 1730.05 656.661 1730.05 651.992 1729.51 648.888 1728.43 647.35 1727.35 645.812 1725.99 645.042 1724.35 645.042 1722.77 645.042 1721.49 645.716 1720.53 647.063 1719.34 648.793 1718.75 651.992 1718.75 656.661ZM1754.93 649.221 1751.48 649.497C1751.17 648.119 1750.73 647.124 1750.15 646.512 1749.22 645.517 1748.07 645.019 1746.69 645.019 1745.58 645.019 1744.6 645.326 1743.76 645.938 1742.66 646.749 1741.8 647.92 1741.18 649.451 1740.55 650.982 1740.22 653.171 1740.19 656.018 1741.03 654.747 1742.05 653.802 1743.26 653.182 1744.46 652.562 1745.73 652.253 1747.06 652.253 1749.38 652.253 1751.35 653.106 1752.99 654.812 1754.62 656.519 1755.44 658.728 1755.44 661.437 1755.44 663.228 1755.05 664.889 1754.28 666.419 1753.51 667.95 1752.46 669.121 1751.12 669.933 1749.79 670.744 1748.26 671.149 1746.55 671.149 1743.67 671.149 1741.31 670.082 1739.48 667.946 1737.65 665.811 1736.73 662.287 1736.73 657.373 1736.73 651.893 1737.74 647.905 1739.76 645.41 1741.53 643.236 1743.91 642.15 1746.9 642.15 1749.13 642.15 1750.95 642.777 1752.37 644.032 1753.79 645.287 1754.64 647.017 1754.93 649.221ZM1740.74 661.46C1740.74 662.669 1740.99 663.821 1741.5 664.915 1742 666.01 1742.71 666.844 1743.62 667.418 1744.54 667.992 1745.5 668.279 1746.51 668.279 1747.97 668.279 1749.23 667.686 1750.29 666.5 1751.34 665.313 1751.87 663.702 1751.87 661.666 1751.87 659.692 1751.35 658.142 1750.31 657.017 1749.27 655.892 1747.96 655.329 1746.37 655.329 1744.8 655.329 1743.47 655.892 1742.38 657.017 1741.29 658.142 1740.74 659.623 1740.74 661.46ZM1758.61 656.661C1758.61 653.309 1758.96 650.607 1759.64 648.556 1760.33 646.504 1761.35 644.924 1762.71 643.814 1764.07 642.704 1765.78 642.15 1767.84 642.15 1769.36 642.15 1770.7 642.456 1771.84 643.068 1772.99 643.68 1773.93 644.564 1774.68 645.72 1775.43 646.876 1776.01 648.284 1776.43 649.945 1776.85 651.606 1777.06 653.844 1777.06 656.661 1777.06 659.998 1776.72 662.688 1776.04 664.732 1775.37 666.776 1774.35 668.356 1772.99 669.473 1771.63 670.591 1769.91 671.149 1767.84 671.149 1765.11 671.149 1762.96 670.17 1761.41 668.21 1759.54 665.838 1758.61 661.988 1758.61 656.661ZM1762.18 656.661C1762.18 661.33 1762.73 664.433 1763.81 665.972 1764.89 667.51 1766.24 668.279 1767.84 668.279 1769.44 668.279 1770.78 667.506 1771.87 665.96 1772.95 664.414 1773.49 661.314 1773.49 656.661 1773.49 651.992 1772.95 648.888 1771.87 647.35 1770.78 645.812 1769.43 645.042 1767.79 645.042 1766.21 645.042 1764.93 645.716 1763.97 647.063 1762.78 648.793 1762.18 651.992 1762.18 656.661Z" fill="#262626" fill-rule="evenodd"/><path d="M1680.06 521.114 1680.06 517.601 1690.73 517.601 1690.73 521.114 1680.06 521.114ZM1706.55 529.633 1703.07 529.633 1703.07 507.406C1702.23 508.217 1701.13 509.021 1699.77 509.817 1698.42 510.613 1697.2 511.21 1696.11 511.608L1696.11 508.232C1698.07 507.329 1699.77 506.224 1701.22 504.915 1702.67 503.606 1703.7 502.339 1704.31 501.115L1706.55 501.115 1706.55 529.633ZM1715.18 515.626C1715.18 512.274 1715.52 509.572 1716.21 507.521 1716.89 505.469 1717.92 503.889 1719.27 502.779 1720.63 501.669 1722.34 501.115 1724.4 501.115 1725.93 501.115 1727.26 501.421 1728.41 502.033 1729.55 502.645 1730.5 503.529 1731.24 504.685 1731.99 505.841 1732.58 507.249 1733 508.91 1733.42 510.571 1733.63 512.81 1733.63 515.626 1733.63 518.963 1733.29 521.654 1732.61 523.697 1731.93 525.741 1730.91 527.321 1729.55 528.439 1728.19 529.556 1726.48 530.115 1724.4 530.115 1721.67 530.115 1719.53 529.135 1717.97 527.176 1716.11 524.803 1715.18 520.953 1715.18 515.626ZM1718.75 515.626C1718.75 520.295 1719.29 523.399 1720.37 524.937 1721.46 526.476 1722.8 527.245 1724.4 527.245 1726 527.245 1727.35 526.472 1728.43 524.926 1729.51 523.38 1730.05 520.28 1730.05 515.626 1730.05 510.957 1729.51 507.854 1728.43 506.315 1727.35 504.777 1725.99 504.008 1724.35 504.008 1722.77 504.008 1721.49 504.681 1720.53 506.028 1719.34 507.758 1718.75 510.957 1718.75 515.626ZM1748.04 529.633 1748.04 522.836 1735.75 522.836 1735.75 519.644 1748.66 501.229 1751.5 501.229 1751.5 519.644 1755.34 519.644 1755.34 522.836 1751.5 522.836 1751.5 529.633 1748.04 529.633ZM1748.04 519.644 1748.04 506.832 1739.16 519.644 1748.04 519.644ZM1758.61 515.626C1758.61 512.274 1758.96 509.572 1759.64 507.521 1760.33 505.469 1761.35 503.889 1762.71 502.779 1764.07 501.669 1765.78 501.115 1767.84 501.115 1769.36 501.115 1770.7 501.421 1771.84 502.033 1772.99 502.645 1773.93 503.529 1774.68 504.685 1775.43 505.841 1776.01 507.249 1776.43 508.91 1776.85 510.571 1777.06 512.81 1777.06 515.626 1777.06 518.963 1776.72 521.654 1776.04 523.697 1775.37 525.741 1774.35 527.321 1772.99 528.439 1771.63 529.556 1769.91 530.115 1767.84 530.115 1765.11 530.115 1762.96 529.135 1761.41 527.176 1759.54 524.803 1758.61 520.953 1758.61 515.626ZM1762.18 515.626C1762.18 520.295 1762.73 523.399 1763.81 524.937 1764.89 526.476 1766.24 527.245 1767.84 527.245 1769.44 527.245 1770.78 526.472 1771.87 524.926 1772.95 523.38 1773.49 520.28 1773.49 515.626 1773.49 510.957 1772.95 507.854 1771.87 506.315 1770.78 504.777 1769.43 504.008 1767.79 504.008 1766.21 504.008 1764.93 504.681 1763.97 506.028 1762.78 507.758 1762.18 510.957 1762.18 515.626Z" fill="#262626" fill-rule="evenodd"/><path d="M1680.06 380.08 1680.06 376.566 1690.73 376.566 1690.73 380.08 1680.06 380.08ZM1706.55 388.599 1703.07 388.599 1703.07 366.371C1702.23 367.183 1701.13 367.986 1699.77 368.782 1698.42 369.578 1697.2 370.175 1696.11 370.574L1696.11 367.198C1698.07 366.295 1699.77 365.189 1701.22 363.88 1702.67 362.571 1703.7 361.305 1704.31 360.08L1706.55 360.08 1706.55 388.599ZM1715.18 374.592C1715.18 371.239 1715.52 368.537 1716.21 366.486 1716.89 364.435 1717.92 362.855 1719.27 361.745 1720.63 360.635 1722.34 360.08 1724.4 360.08 1725.93 360.08 1727.26 360.386 1728.41 360.998 1729.55 361.611 1730.5 362.495 1731.24 363.65 1731.99 364.806 1732.58 366.215 1733 367.875 1733.42 369.536 1733.63 371.775 1733.63 374.592 1733.63 377.929 1733.29 380.619 1732.61 382.663 1731.93 384.706 1730.91 386.287 1729.55 387.404 1728.19 388.522 1726.48 389.081 1724.4 389.081 1721.67 389.081 1719.53 388.101 1717.97 386.141 1716.11 383.768 1715.18 379.919 1715.18 374.592ZM1718.75 374.592C1718.75 379.261 1719.29 382.364 1720.37 383.903 1721.46 385.441 1722.8 386.21 1724.4 386.21 1726 386.21 1727.35 385.437 1728.43 383.891 1729.51 382.345 1730.05 379.245 1730.05 374.592 1730.05 369.923 1729.51 366.819 1728.43 365.281 1727.35 363.742 1725.99 362.973 1724.35 362.973 1722.77 362.973 1721.49 363.647 1720.53 364.994 1719.34 366.723 1718.75 369.923 1718.75 374.592ZM1755.16 385.246 1755.16 388.599 1736.44 388.599C1736.42 387.756 1736.56 386.953 1736.85 386.187 1737.32 384.902 1738.08 383.639 1739.14 382.399 1740.19 381.159 1741.71 379.727 1743.69 378.105 1746.76 375.564 1748.84 373.555 1749.92 372.077 1751 370.6 1751.54 369.203 1751.54 367.887 1751.54 366.509 1751.05 365.346 1750.07 364.397 1749.08 363.447 1747.8 362.973 1746.21 362.973 1744.55 362.973 1743.21 363.474 1742.21 364.477 1741.2 365.48 1740.69 366.877 1740.67 368.668L1737.1 368.3C1737.34 365.621 1738.26 363.581 1739.86 362.181 1741.45 360.78 1743.6 360.08 1746.3 360.08 1749.02 360.08 1751.17 360.834 1752.75 362.341 1754.33 363.849 1755.12 365.721 1755.12 367.956 1755.12 369.104 1754.88 370.225 1754.42 371.32 1753.95 372.414 1753.19 373.57 1752.12 374.787 1751.05 376.004 1749.26 377.669 1746.76 379.781 1744.67 381.541 1743.33 382.735 1742.74 383.363 1742.16 383.991 1741.66 384.618 1741.27 385.246L1755.16 385.246ZM1758.61 374.592C1758.61 371.239 1758.96 368.537 1759.64 366.486 1760.33 364.435 1761.35 362.855 1762.71 361.745 1764.07 360.635 1765.78 360.08 1767.84 360.08 1769.36 360.08 1770.7 360.386 1771.84 360.998 1772.99 361.611 1773.93 362.495 1774.68 363.65 1775.43 364.806 1776.01 366.215 1776.43 367.875 1776.85 369.536 1777.06 371.775 1777.06 374.592 1777.06 377.929 1776.72 380.619 1776.04 382.663 1775.37 384.706 1774.35 386.287 1772.99 387.404 1771.63 388.522 1769.91 389.081 1767.84 389.081 1765.11 389.081 1762.96 388.101 1761.41 386.141 1759.54 383.768 1758.61 379.919 1758.61 374.592ZM1762.18 374.592C1762.18 379.261 1762.73 382.364 1763.81 383.903 1764.89 385.441 1766.24 386.21 1767.84 386.21 1769.44 386.21 1770.78 385.437 1771.87 383.891 1772.95 382.345 1773.49 379.245 1773.49 374.592 1773.49 369.923 1772.95 366.819 1771.87 365.281 1770.78 363.742 1769.43 362.973 1767.79 362.973 1766.21 362.973 1764.93 363.647 1763.97 364.994 1762.78 366.723 1762.18 369.923 1762.18 374.592Z" fill="#262626" fill-rule="evenodd"/><path d="M1680.06 239.045 1680.06 235.532 1690.73 235.532 1690.73 239.045 1680.06 239.045ZM1706.55 247.564 1703.07 247.564 1703.07 225.337C1702.23 226.148 1701.13 226.952 1699.77 227.748 1698.42 228.544 1697.2 229.141 1696.11 229.539L1696.11 226.164C1698.07 225.26 1699.77 224.154 1701.22 222.846 1702.67 221.537 1703.7 220.27 1704.31 219.045L1706.55 219.045 1706.55 247.564ZM1715.18 233.557C1715.18 230.205 1715.52 227.503 1716.21 225.452 1716.89 223.4 1717.92 221.82 1719.27 220.71 1720.63 219.6 1722.34 219.045 1724.4 219.045 1725.93 219.045 1727.26 219.351 1728.41 219.964 1729.55 220.576 1730.5 221.46 1731.24 222.616 1731.99 223.771 1732.58 225.18 1733 226.841 1733.42 228.502 1733.63 230.741 1733.63 233.557 1733.63 236.894 1733.29 239.585 1732.61 241.628 1731.93 243.671 1730.91 245.252 1729.55 246.37 1728.19 247.487 1726.48 248.046 1724.4 248.046 1721.67 248.046 1719.53 247.066 1717.97 245.107 1716.11 242.734 1715.18 238.884 1715.18 233.557ZM1718.75 233.557C1718.75 238.226 1719.29 241.33 1720.37 242.868 1721.46 244.406 1722.8 245.175 1724.4 245.175 1726 245.175 1727.35 244.403 1728.43 242.856 1729.51 241.31 1730.05 238.211 1730.05 233.557 1730.05 228.888 1729.51 225.785 1728.43 224.246 1727.35 222.708 1725.99 221.938 1724.35 221.938 1722.77 221.938 1721.49 222.612 1720.53 223.959 1719.34 225.689 1718.75 228.888 1718.75 233.557ZM1736.89 233.557C1736.89 230.205 1737.24 227.503 1737.92 225.452 1738.61 223.4 1739.63 221.82 1740.99 220.71 1742.35 219.6 1744.06 219.045 1746.12 219.045 1747.65 219.045 1748.98 219.351 1750.13 219.964 1751.27 220.576 1752.22 221.46 1752.96 222.616 1753.71 223.771 1754.3 225.18 1754.72 226.841 1755.13 228.502 1755.34 230.741 1755.34 233.557 1755.34 236.894 1755.01 239.585 1754.33 241.628 1753.65 243.671 1752.63 245.252 1751.27 246.37 1749.91 247.487 1748.2 248.046 1746.12 248.046 1743.39 248.046 1741.24 247.066 1739.69 245.107 1737.83 242.734 1736.89 238.884 1736.89 233.557ZM1740.47 233.557C1740.47 238.226 1741.01 241.33 1742.09 242.868 1743.17 244.406 1744.52 245.175 1746.12 245.175 1747.72 245.175 1749.07 244.403 1750.15 242.856 1751.23 241.31 1751.77 238.211 1751.77 233.557 1751.77 228.888 1751.23 225.785 1750.15 224.246 1749.07 222.708 1747.71 221.938 1746.07 221.938 1744.49 221.938 1743.21 222.612 1742.25 223.959 1741.06 225.689 1740.47 228.888 1740.47 233.557ZM1758.61 233.557C1758.61 230.205 1758.96 227.503 1759.64 225.452 1760.33 223.4 1761.35 221.82 1762.71 220.71 1764.07 219.6 1765.78 219.045 1767.84 219.045 1769.36 219.045 1770.7 219.351 1771.84 219.964 1772.99 220.576 1773.93 221.46 1774.68 222.616 1775.43 223.771 1776.01 225.18 1776.43 226.841 1776.85 228.502 1777.06 230.741 1777.06 233.557 1777.06 236.894 1776.72 239.585 1776.04 241.628 1775.37 243.671 1774.35 245.252 1772.99 246.37 1771.63 247.487 1769.91 248.046 1767.84 248.046 1765.11 248.046 1762.96 247.066 1761.41 245.107 1759.54 242.734 1758.61 238.884 1758.61 233.557ZM1762.18 233.557C1762.18 238.226 1762.73 241.33 1763.81 242.868 1764.89 244.406 1766.24 245.175 1767.84 245.175 1769.44 245.175 1770.78 244.403 1771.87 242.856 1772.95 241.31 1773.49 238.211 1773.49 233.557 1773.49 228.888 1772.95 225.785 1771.87 224.246 1770.78 222.708 1769.43 221.938 1767.79 221.938 1766.21 221.938 1764.93 222.612 1763.97 223.959 1762.78 225.689 1762.18 228.888 1762.18 233.557Z" fill="#262626" fill-rule="evenodd"/><path d="M1657.18 802.969 1645.7 794.903 1635.09 802.372 1635.09 797.684 1640.25 794.283C1641.25 793.655 1642.08 793.142 1642.73 792.743 1641.82 792.146 1641 791.587 1640.3 791.066L1635.09 787.343 1635.09 782.862 1645.49 790.514 1657.18 782.287 1657.18 786.884 1650.31 791.411 1648.45 792.628 1657.18 798.442 1657.18 802.969ZM1648.01 780.38 1644.25 780.38 1644.25 768.867 1648.01 768.867 1648.01 780.38ZM1665.65 764.576 1635.09 764.576 1635.09 761.152 1637.96 761.152C1636.82 760.34 1635.98 759.429 1635.42 758.418 1634.86 757.406 1634.58 756.181 1634.58 754.741 1634.58 752.856 1635.07 751.19 1636.04 749.743 1637.01 748.295 1638.38 747.203 1640.15 746.468 1641.92 745.732 1643.86 745.365 1645.97 745.365 1648.22 745.365 1650.25 745.771 1652.07 746.583 1653.88 747.395 1655.27 748.574 1656.24 750.122 1657.2 751.669 1657.68 753.301 1657.68 755.016 1657.68 756.257 1657.42 757.376 1656.89 758.372 1656.36 759.367 1655.69 760.187 1654.88 760.83L1665.65 760.83 1665.65 764.576ZM1646.25 761.175C1649.09 761.175 1651.2 760.597 1652.56 759.44 1653.92 758.284 1654.61 756.893 1654.61 755.269 1654.61 753.6 1653.9 752.171 1652.49 750.983 1651.08 749.796 1648.9 749.203 1645.95 749.203 1643.13 749.203 1641.02 749.781 1639.62 750.938 1638.22 752.094 1637.52 753.477 1637.52 755.085 1637.52 756.694 1638.26 758.111 1639.75 759.337 1641.23 760.562 1643.4 761.175 1646.25 761.175ZM1646.13 741.979C1642.03 741.979 1639 740.845 1637.04 738.578 1635.4 736.678 1634.58 734.357 1634.58 731.615 1634.58 728.582 1635.58 726.1 1637.57 724.169 1639.56 722.239 1642.3 721.274 1645.81 721.274 1648.66 721.274 1650.9 721.699 1652.53 722.549 1654.16 723.4 1655.42 724.641 1656.33 726.272 1657.23 727.904 1657.68 729.685 1657.68 731.615 1657.68 734.709 1656.69 737.211 1654.71 739.118 1652.73 741.025 1649.87 741.979 1646.13 741.979ZM1646.13 738.141C1648.96 738.141 1651.08 737.521 1652.49 736.28 1653.9 735.039 1654.61 733.484 1654.61 731.615 1654.61 729.761 1653.9 728.214 1652.48 726.973 1651.07 725.732 1648.9 725.111 1645.99 725.111 1643.27 725.111 1641.2 725.736 1639.79 726.985 1638.39 728.233 1637.68 729.777 1637.68 731.615 1637.68 733.484 1638.38 735.039 1639.78 736.28 1641.18 737.521 1643.3 738.141 1646.13 738.141ZM1650.59 718.118 1649.99 714.418C1651.47 714.204 1652.61 713.621 1653.41 712.672 1654.21 711.722 1654.61 710.389 1654.61 708.673 1654.61 706.957 1654.25 705.682 1653.55 704.847 1652.84 704.012 1652.02 703.594 1651.07 703.594 1650.23 703.594 1649.56 703.962 1649.07 704.697 1648.75 705.218 1648.33 706.498 1647.81 708.535 1647.12 711.278 1646.52 713.181 1646.02 714.246 1645.51 715.31 1644.81 716.119 1643.92 716.67 1643.02 717.222 1642.03 717.497 1640.94 717.497 1639.96 717.497 1639.05 717.271 1638.21 716.819 1637.37 716.368 1636.67 715.751 1636.12 714.97 1635.69 714.387 1635.33 713.595 1635.03 712.591 1634.73 711.588 1634.58 710.504 1634.58 709.339 1634.58 707.608 1634.83 706.088 1635.33 704.778 1635.83 703.468 1636.5 702.499 1637.36 701.871 1638.22 701.243 1639.36 700.814 1640.78 700.584L1641.29 704.238C1640.14 704.407 1639.25 704.889 1638.61 705.686 1637.98 706.482 1637.66 707.616 1637.66 709.087 1637.66 710.803 1637.94 712.028 1638.51 712.763 1639.07 713.499 1639.74 713.867 1640.51 713.867 1641 713.867 1641.43 713.713 1641.82 713.407 1642.21 713.101 1642.55 712.625 1642.83 711.982 1642.96 711.599 1643.28 710.489 1643.77 708.65 1644.49 706 1645.07 704.154 1645.51 703.112 1645.96 702.07 1646.61 701.251 1647.48 700.653 1648.34 700.056 1649.41 699.757 1650.68 699.757 1651.93 699.757 1653.11 700.121 1654.21 700.848 1655.32 701.576 1656.17 702.625 1656.78 703.997 1657.38 705.368 1657.68 706.919 1657.68 708.65 1657.68 711.53 1657.08 713.725 1655.89 715.234 1654.7 716.743 1652.93 717.704 1650.59 718.118ZM1630.98 695.046 1626.66 695.046 1626.66 691.3 1630.98 691.3 1630.98 695.046ZM1657.18 695.046 1635.09 695.046 1635.09 691.3 1657.18 691.3 1657.18 695.046ZM1653.82 677.287 1657.13 676.758C1657.36 677.816 1657.48 678.758 1657.48 679.585 1657.48 680.949 1657.26 682.006 1656.82 682.757 1656.38 683.507 1655.82 684.036 1655.12 684.342 1654.43 684.649 1652.95 684.802 1650.7 684.802L1637.98 684.802 1637.98 687.536 1635.09 687.536 1635.09 684.802 1629.6 684.802 1627.35 681.079 1635.09 681.079 1635.09 677.287 1637.98 677.287 1637.98 681.079 1650.91 681.079C1651.98 681.079 1652.67 681.01 1652.97 680.872 1653.28 680.734 1653.52 680.516 1653.7 680.217 1653.87 679.918 1653.96 679.493 1653.96 678.942 1653.96 678.528 1653.92 677.977 1653.82 677.287ZM1630.98 673.491 1626.66 673.491 1626.66 669.745 1630.98 669.745 1630.98 673.491ZM1657.18 673.491 1635.09 673.491 1635.09 669.745 1657.18 669.745 1657.18 673.491ZM1646.13 665.315C1642.03 665.315 1639 664.181 1637.04 661.914 1635.4 660.014 1634.58 657.693 1634.58 654.951 1634.58 651.918 1635.58 649.435 1637.57 647.505 1639.56 645.575 1642.3 644.61 1645.81 644.61 1648.66 644.61 1650.9 645.035 1652.53 645.885 1654.16 646.735 1655.42 647.976 1656.33 649.608 1657.23 651.239 1657.68 653.02 1657.68 654.951 1657.68 658.045 1656.69 660.546 1654.71 662.454 1652.73 664.361 1649.87 665.315 1646.13 665.315ZM1646.13 661.477C1648.96 661.477 1651.08 660.856 1652.49 659.616 1653.9 658.375 1654.61 656.82 1654.61 654.951 1654.61 653.097 1653.9 651.549 1652.48 650.309 1651.07 649.068 1648.9 648.447 1645.99 648.447 1643.27 648.447 1641.2 649.072 1639.79 650.32 1638.39 651.569 1637.68 653.112 1637.68 654.951 1637.68 656.82 1638.38 658.375 1639.78 659.616 1641.18 660.856 1643.3 661.477 1646.13 661.477ZM1657.18 639.96 1635.09 639.96 1635.09 636.582 1638.21 636.582C1635.79 634.958 1634.58 632.614 1634.58 629.55 1634.58 628.217 1634.82 626.992 1635.29 625.873 1635.77 624.755 1636.4 623.916 1637.18 623.357 1637.96 622.798 1638.88 622.411 1639.95 622.196 1640.64 622.059 1641.85 621.99 1643.58 621.99L1657.18 621.99 1657.18 625.735 1643.74 625.735C1642.21 625.735 1641.07 625.881 1640.31 626.172 1639.55 626.463 1638.95 626.98 1638.5 627.723 1638.05 628.466 1637.82 629.335 1637.82 630.331 1637.82 631.924 1638.32 633.303 1639.33 634.468 1640.35 635.632 1642.27 636.214 1645.1 636.214L1657.18 636.214 1657.18 639.96ZM1666.16 596.837C1663.54 598.905 1660.48 600.655 1656.98 602.088 1653.48 603.52 1649.87 604.236 1646.13 604.236 1642.83 604.236 1639.66 603.7 1636.65 602.627 1633.13 601.371 1629.63 599.441 1626.15 596.837L1626.15 594.148C1629.03 595.833 1631.09 596.944 1632.33 597.48 1634.25 598.323 1636.24 598.989 1638.32 599.479 1640.91 600.077 1643.52 600.375 1646.15 600.375 1652.83 600.375 1659.5 598.3 1666.16 594.148L1666.16 596.837ZM1657.18 589.65 1635.09 589.65 1635.09 586.295 1638.19 586.295C1637.1 585.59 1636.23 584.664 1635.57 583.515 1634.91 582.366 1634.58 581.056 1634.58 579.585 1634.58 577.946 1634.92 576.602 1635.6 575.552 1636.29 574.503 1637.23 573.763 1638.44 573.334 1635.87 571.588 1634.58 569.313 1634.58 566.509 1634.58 564.319 1635.19 562.633 1636.4 561.454 1637.61 560.274 1639.47 559.684 1642 559.684L1657.18 559.684 1657.18 563.407 1643.26 563.407C1641.76 563.407 1640.68 563.526 1640.02 563.763 1639.37 564.001 1638.83 564.441 1638.43 565.084 1638.02 565.728 1637.82 566.479 1637.82 567.337 1637.82 568.899 1638.34 570.194 1639.37 571.22 1640.4 572.247 1642.06 572.76 1644.34 572.76L1657.18 572.76 1657.18 576.505 1642.83 576.505C1641.16 576.505 1639.91 576.812 1639.07 577.425 1638.24 578.038 1637.82 579.033 1637.82 580.412 1637.82 581.469 1638.1 582.446 1638.66 583.342 1639.22 584.239 1640.03 584.889 1641.09 585.296 1642.16 585.702 1643.7 585.905 1645.72 585.905L1657.18 585.905 1657.18 589.65ZM1657.18 553.739 1635.09 553.739 1635.09 550.384 1638.19 550.384C1637.1 549.679 1636.23 548.752 1635.57 547.603 1634.91 546.454 1634.58 545.144 1634.58 543.674 1634.58 542.034 1634.92 540.69 1635.6 539.641 1636.29 538.591 1637.23 537.852 1638.44 537.423 1635.87 535.677 1634.58 533.402 1634.58 530.598 1634.58 528.407 1635.19 526.722 1636.4 525.542 1637.61 524.363 1639.47 523.773 1642 523.773L1657.18 523.773 1657.18 527.496 1643.26 527.496C1641.76 527.496 1640.68 527.614 1640.02 527.852 1639.37 528.089 1638.83 528.53 1638.43 529.173 1638.02 529.817 1637.82 530.568 1637.82 531.425 1637.82 532.988 1638.34 534.283 1639.37 535.309 1640.4 536.335 1642.06 536.848 1644.34 536.848L1657.18 536.848 1657.18 540.594 1642.83 540.594C1641.16 540.594 1639.91 540.901 1639.07 541.514 1638.24 542.126 1637.82 543.122 1637.82 544.501 1637.82 545.558 1638.1 546.535 1638.66 547.431 1639.22 548.327 1640.03 548.978 1641.09 549.384 1642.16 549.79 1643.7 549.993 1645.72 549.993L1657.18 549.993 1657.18 553.739ZM1666.16 515.369 1666.16 518.057C1659.5 513.906 1652.83 511.83 1646.15 511.83 1643.54 511.83 1640.95 512.128 1638.39 512.726 1636.31 513.185 1634.31 513.844 1632.4 514.702 1631.15 515.239 1629.06 516.357 1626.15 518.057L1626.15 515.369C1629.63 512.749 1633.13 510.819 1636.65 509.578 1639.66 508.505 1642.83 507.969 1646.13 507.969 1649.87 507.969 1653.48 508.689 1656.98 510.129 1660.48 511.569 1663.54 513.316 1666.16 515.369Z" fill="#262626" fill-rule="evenodd"/><path d="M1848 313.848 1849.97 315.449 1851.95 318.045 1853.9 320.172 1855.87 321.396 1857.79 323.465 1859.77 327.117 1861.74 330.138 1863.72 332.142 1865.63 334.826 1867.64 338.03 1869.58 341.787 1871.56 345.303 1873.53 348.369 1875.48 350.057 1877.43 355.98 1879.43 357.123 1881.38 360.071 1883.35 363.378 1885.33 370.644 1887.25 374.494 1889.25 378.473 1891.2 382.45 1893.17 387.259 1895.14 392.72 1897.18 396.54 1899.04 400.122 1901.01 403.491 1903.02 406.64 1904.96 408.692 1906.94 412.542 1908.88 414.845 1910.83 416.215 1912.78 418.028 1914.78 422.18 1916.73 426.438 1918.7 430.122 1920.65 431.71 1922.62 434.768 1924.6 437.617 1926.54 440.484 1928.55 443.305 1930.49 449.813 1932.44 456.067 1934.39 461.224 1936.36 465.891 1938.34 466.41 1940.31 465.718 1942.23 467.84 1944.26 470.954 1946.24 472.882 1948.16 477.868 1950.16 482.295 1952.11 485.772 1954.05 492.651 1956 497.221 1957.97 500.495 1959.95 503.752 1961.9 504.815 1963.84 508.553 1965.9 512.569 1967.76 513.523 1969.74 518.542 1971.74 520.993 1973.69 526.762 1975.66 527.268 1977.58 528.681 1979.59 531.656 1981.5 536.885 1983.51 539.536 1985.48 542.759 1987.43 547.007 1989.4 551.116 1991.35 554.98 1993.35 560.13 1995.27 566.219 1997.25 572.019 1999.19 579.686 2001.17 587.888 2003.14 598.08 2005.09 605.688 2007.09 615.229 2009.01 622.987 2010.96 631.141 2012.96 640.41 2014.94 651.203 2016.88 662.87 2018.86 674.997 2020.8 686.905 2022.81 698.388 2024.73 709.723 2026.7 722.961 2028.68 735.633 2030.65 747.799 2032.57 763.59 2034.54 775.163 2036.52 787.983 2038.49 800.395 2040.47 811.778 2042.42 823.137 2044.36 832.291 2046.37 842.405 2048.34 851.168 2050.29 859.27 2052.32 867.677 2054.18 874.835 2056.13 882.119 2058.16 891.485 2060.08 898.644 2062.11 905.562 2064.03 911.153 2065.97 918.923 2067.95 922.97 2069.89 927.105 2071.87 932.411 2073.87 935.453 2075.79 938.863 2077.77 940.457 2079.74 945.283 2081.69 944.633 2083.66 947.684 2085.64 946.396 2087.58 946.531 2089.53 945.395 2091.48 946.783 2093.59 946.943 2095.43 946.755 2097.4 947.95 2099.38 948.834 2101.32 949.121 2103.3 948.393 2105.25 948.174 2107.22 947.452 2109.2 948.448 2111.14 948.885 2113.12 950.553 2115.06 950.162 2117.04 951.02 2119.01 950.503 2120.96 952.384 2122.93 953.719 2124.91 953.659 2126.86 953.055 2128.83 952.797 2130.81 952.659 2132.78 952.315 2134.73 952.372 2136.73 951.259 2138.65 951.612 2140.71 951.216 2142.57 951.289 2144.52 951.678 2146.52 950.14 2148.47 949.865 2150.44 949.877 2152.42 949.287 2154.39 949.384 2156.34 948.361 2158.31 948.234 2160.26 948.089 2162.24 947.57 2164.18 946.918 2166.16 946.083 2168.1 946.051 2170.14 945.962 2172.03 947.346 2174.03 945.729 2175.98 949.575 2177.92 951.372 2179.92 953.331 2181.87 950.921 2183.87 954 2185.79 948.293 2187.74 941.045 2189.72 939.22 2191.66 939.494 2193.64 938.151 2195.64 935.091 2197.59 932.891 2199.53 928.264 2201.48 928.092 2203.48 926.077 2205.43 922.239 2207.46 921.752 2209.35 925.592 2211.35 928.464 2213.3 922.11 2215.22 919.071 2217.2 916.867 2219.2 912.595 2221.12 901.858 2223.12 883.786 2225.07 865.824 2227.01 852.402 2228.99 837.272 2230.93 823.848 2232.91 807.011 2234.88 796.529 2236.86 782.206 2238.83 769.213 2240.81 755.245 2242.76 739.642 2244.73 721.646 2246.68 706.803 2248.62 692.86 2250.57 678.526 2252.55 665.466 2254.52 657.035 2256.47 647.591 2258.44 639.99 2260.39 632.125 2262.36 626.678 2264.34 619.862 2266.29 613.848 2268.26 606.049 2270.21 597.185 2272.21 590.947 2274.19 583.668 2276.1 577.426 2278.14 571.487 2280.02 564.474 2282 560.105 2283.97 555.669 2285.95 550.604 2287.9 549.575 2289.87 546.115 2291.82 541.983 2293.82 540.496 2295.77 537.786 2297.71 538.998 2299.66 536.808 2301.64 538.145 2303.61 538.376 2305.59 537.962 2307.56 535.058 2309.51 537.357 2311.48 536.392 2313.4 538.92 2315.38 538.968 2317.38 535.416 2319.35 532.066 2321.3 527.969 2323.25 527.581 2325.19 524.797 2327.17 521.99 2329.14 517.613 2331.12 515.201 2333.09 511.095 2335.04 506.21 2337.01 499.883 2338.99 493.1 2340.99 488.849 2342.88 482.593 2344.86 474.104 2346.83 466.543 2348.78 456.904 2350.75 449.884 2352.73 442.236 2354.65 432.174 2356.62 422.04 2358.6 413.058 2360.54 404.218 2362.58 392.708 2364.52 386.585 2366.5 375.557 2368.42 368.816 2370.36 363.009 2372.34 356.342 2374.31 352.435 2376.29 347.884 2378.23 344.193 2380.21 339.49 2382.18 337.024 2384.16 330.951 2386.11 323.775 2388.05 321.215 2390.08 319.059 2392.03 315.74 2393.98 311.301 2395.95 309.22 2397.87 307.464 2399.84 306.544 2401.82 307.653 2403.79 304.323 2405.77 306.463 2407.72 304.285 2409.69 305.315 2411.61 302 2413.61 305.823 2415.56 307.713 2417.53 306.86 2419.48 308.5 2421.46 313.542 2423.43 312.148 2425.41 315.112 2427.35 316.825 2429.36 321.774 2431.27 331.808 2433.22 332.893 2435.22 335.667 2437.17 341.71 2439.15 343.997 2441.09 351.698 2443.04 356.329 2445.01 365.019 2446.99 369.167 2448.96 380.989 2450.91 386.722 2452.88 392.626 2454.83 404.316 2456.83 411.413 2458.78 422.956 2460.76 434.06 2462.73 442.525 2464.65 453.748 2466.63 466.793 2468.57 477.16 2470.58 490.588 2472.52 503.106 2474.47 513.138 2476.47 530.938 2478.42 539.698 2480.42 552.41 2482.34 562.953 2484.31 572.808 2486.29 582.97 2488.24 593.344 2490.18 600.565 2492.16 604.753 2494.13 616.078 2496.08 623.465 2498.05 630.165 2500 639.821" stroke="#0072BD" stroke-width="1.9564" stroke-linejoin="round" stroke-miterlimit="10" fill="none" fill-rule="evenodd"/><path d="M1848 314 1849.97 314 1851.95 314 1853.9 314 1855.87 314 1857.79 314 1859.77 314 1861.74 314 1863.72 314 1865.63 314 1867.64 314 1869.58 314 1871.56 314 1873.53 314 1875.48 314 1877.43 314 1879.43 314 1881.38 314 1883.35 314 1885.33 314 1887.25 314 1889.25 314 1891.2 314 1893.17 314 1895.14 333.443 1897.18 333.443 1899.04 333.443 1901.01 333.443 1903.02 333.443 1904.96 333.443 1906.94 333.443 1908.88 333.443 1910.83 333.443 1912.78 333.443 1914.78 333.443 1916.73 333.443 1918.7 333.443 1920.65 333.443 1922.62 333.443 1924.6 333.443 1926.54 333.443 1928.55 333.443 1930.49 333.443 1932.44 333.443 1934.39 333.443 1936.36 333.443 1938.34 333.443 1940.31 333.443 1942.23 410.702 1944.26 410.702 1946.24 410.702 1948.16 410.702 1950.16 410.702 1952.11 410.702 1954.05 410.702 1956 410.702 1957.97 410.702 1959.95 410.702 1961.9 410.702 1963.84 410.702 1965.9 410.702 1967.76 410.702 1969.74 410.702 1971.74 487.466 1973.69 487.466 1975.66 487.466 1977.58 487.466 1979.59 487.466 1981.5 487.466 1983.51 487.466 1985.48 487.466 1987.43 487.466 1989.4 487.466 1991.35 487.466 1993.35 551.958 1995.27 551.958 1997.25 551.958 1999.19 551.958 2001.17 551.958 2003.14 551.958 2005.09 551.958 2007.09 551.958 2009.01 551.958 2010.96 551.958 2012.96 551.958 2014.94 551.958 2016.88 551.958 2018.86 551.958 2020.8 607.862 2022.81 607.862 2024.73 607.862 2026.7 607.862 2028.68 607.862 2030.65 607.862 2032.57 607.862 2034.54 607.862 2036.52 607.862 2038.49 607.862 2040.47 607.862 2042.42 607.862 2044.36 607.862 2046.37 607.862 2048.34 701.979 2050.29 701.979 2052.32 701.979 2054.18 701.979 2056.13 701.979 2058.16 701.979 2060.08 701.979 2062.11 701.979 2064.03 701.979 2065.97 701.979 2067.95 701.979 2069.89 701.979 2071.87 701.979 2073.87 701.979 2075.79 701.979 2077.77 701.979 2079.74 701.979 2081.69 701.979 2083.66 701.979 2085.64 701.979 2087.58 869.01 2089.53 869.01 2091.48 869.01 2093.59 869.01 2095.43 869.01 2097.4 869.01 2099.38 869.01 2101.32 869.01 2103.3 869.01 2105.25 869.01 2107.22 869.01 2109.2 869.01 2111.14 869.01 2113.12 869.01 2115.06 869.01 2117.04 869.01 2119.01 869.01 2120.96 869.01 2122.93 869.01 2124.91 869.01 2126.86 869.01 2128.83 869.01 2130.81 869.01 2132.78 869.01 2134.73 869.01 2136.73 965.386 2138.65 965.386 2140.71 965.386 2142.57 965.386 2144.52 965.386 2146.52 965.386 2148.47 965.386 2150.44 965.386 2152.42 965.386 2154.39 971.224 2156.34 971.224 2158.31 971.224 2160.26 971.013 2162.24 971.013 2164.18 971.013 2166.16 971.013 2168.1 971.013 2170.14 969.463 2172.03 969.463 2174.03 969.463 2175.98 969.463 2177.92 969.463 2179.92 967.701 2181.87 967.701 2183.87 966.09 2185.79 966.09 2187.74 966.09 2189.72 966.09 2191.66 966.09 2193.64 966.09 2195.64 966.09 2197.59 966.09 2199.53 966.09 2201.48 966.09 2203.48 966.09 2205.43 966.09 2207.46 975 2209.35 975 2211.35 975 2213.3 975 2215.22 975 2217.2 975 2219.2 975 2221.12 975 2223.12 975 2225.07 975 2227.01 975 2228.99 975 2230.93 975 2232.91 975 2234.88 975 2236.86 941.055 2238.83 941.055 2240.81 941.055 2242.76 941.055 2244.73 941.055 2246.68 941.055 2248.62 941.055 2250.57 941.055 2252.55 941.055 2254.52 941.055 2256.47 941.055 2258.44 941.055 2260.39 941.055 2262.36 941.055 2264.34 941.055 2266.29 941.055 2268.26 941.055 2270.21 941.055 2272.21 941.055 2274.19 811.01 2276.1 811.01 2278.14 811.01 2280.02 811.01 2282 811.01 2283.97 811.01 2285.95 811.01 2287.9 811.01 2289.87 811.01 2291.82 811.01 2293.82 811.01 2295.77 811.01 2297.71 811.01 2299.66 811.01 2301.64 811.01 2303.61 811.01 2305.59 607.673 2307.56 607.673 2309.51 607.673 2311.48 607.673 2313.4 607.673 2315.38 607.673 2317.38 607.673 2319.35 607.673 2321.3 607.673 2323.25 607.673 2325.19 607.673 2327.17 607.673 2329.14 607.673 2331.12 607.673 2333.09 557.529 2335.04 557.529 2337.01 557.529 2338.99 557.529 2340.99 557.529 2342.88 557.529 2344.86 557.529 2346.83 557.529 2348.78 557.529 2350.75 557.529 2352.73 557.529 2354.65 557.529 2356.62 557.529 2358.6 557.529 2360.54 511.639 2362.58 511.639 2364.52 511.639 2366.5 511.639 2368.42 511.639 2370.36 511.639 2372.34 511.639 2374.31 511.639 2376.29 511.639 2378.23 511.639 2380.21 511.639 2382.18 511.639 2384.16 424.519 2386.11 424.519 2388.05 424.519 2390.08 424.519 2392.03 424.519 2393.98 424.519 2395.95 424.519 2397.87 424.519 2399.84 424.519 2401.82 424.519 2403.79 424.519 2405.77 353.762 2407.72 353.762 2409.69 353.762 2411.61 353.762 2413.61 353.762 2415.56 353.762 2417.53 353.762 2419.48 353.762 2421.46 353.762 2423.43 353.762 2425.41 325.998 2427.35 325.998 2429.36 325.998 2431.27 325.998 2433.22 325.998 2435.22 325.998 2437.17 325.998 2439.15 325.998 2441.09 325.998 2443.04 325.998 2445.01 325.998 2446.99 325.998 2448.96 325.998 2450.91 325.998 2452.88 339.587 2454.83 339.587 2456.83 339.587 2458.78 339.587 2460.76 339.587 2462.73 339.587 2464.65 339.587 2466.63 339.587 2468.57 339.587 2470.58 339.587 2472.52 339.587 2474.47 339.587 2476.47 416.58 2478.42 416.58 2480.42 416.58 2482.34 416.58 2484.31 416.58 2486.29 416.58 2488.24 416.58 2490.18 416.58 2492.16 416.58 2494.13 416.58 2496.08 416.58 2498.05 416.58 2500 416.58" stroke="#D95319" stroke-width="1.9564" stroke-linejoin="round" stroke-miterlimit="10" fill="none" fill-rule="evenodd"/><path d="M2196.16 291.059 2202.8 281.709 2196.67 273.059 2200.52 273.059 2203.3 277.282C2203.83 278.081 2204.25 278.75 2204.57 279.292 2205.07 278.555 2205.53 277.9 2205.94 277.327L2209.02 273.059 2212.69 273.059 2206.42 281.528 2213.16 291.059 2209.38 291.059 2205.67 285.458 2204.66 283.967 2199.9 291.059 2196.16 291.059Z" fill-rule="evenodd"/><path d="M2224.69 303.487 2227.18 303.806C2226.91 305.445 2226.21 306.731 2225.09 307.664 2223.97 308.597 2222.59 309.064 2220.95 309.064 2218.91 309.064 2217.27 308.423 2216.03 307.14 2214.79 305.858 2214.18 304.018 2214.18 301.621 2214.18 300.073 2214.44 298.719 2214.97 297.557 2215.5 296.397 2216.31 295.524 2217.41 294.94 2218.5 294.356 2219.69 294.064 2220.97 294.064 2222.6 294.064 2223.92 294.458 2224.95 295.247 2225.98 296.036 2226.64 297.159 2226.94 298.616L2224.48 298.98C2224.24 298.009 2223.82 297.281 2223.22 296.795 2222.62 296.309 2221.9 296.067 2221.07 296.067 2219.79 296.067 2218.75 296.507 2217.95 297.387 2217.16 298.267 2216.76 299.655 2216.76 301.552 2216.76 303.479 2217.14 304.88 2217.92 305.752 2218.69 306.624 2219.69 307.061 2220.92 307.061 2221.92 307.061 2222.75 306.769 2223.41 306.184 2224.07 305.6 2224.5 304.701 2224.69 303.487Z" fill-rule="evenodd"/><path d="M2069 285 2187 285" stroke="#0072BD" stroke-width="1.9564" stroke-linejoin="round" stroke-miterlimit="10" fill="none" fill-rule="evenodd"/><path d="M2196.16 354.075 2202.8 344.724 2196.67 336.074 2200.52 336.074 2203.3 340.297C2203.83 341.096 2204.25 341.765 2204.57 342.307 2205.07 341.57 2205.53 340.915 2205.94 340.342L2209.02 336.074 2212.69 336.074 2206.42 344.544 2213.16 354.075 2209.38 354.075 2205.67 348.473 2204.66 346.983 2199.9 354.075 2196.16 354.075Z" fill-rule="evenodd"/><path d="M2215.17 372.081 2215.17 357.407 2217.41 357.407 2217.41 359.639C2217.99 358.6 2218.52 357.914 2219 357.581 2219.48 357.248 2220.02 357.081 2220.61 357.081 2221.45 357.081 2222.3 357.352 2223.17 357.895L2222.31 360.197C2221.7 359.841 2221.09 359.662 2220.47 359.662 2219.92 359.662 2219.44 359.825 2219.01 360.151 2218.58 360.476 2218.27 360.926 2218.09 361.5 2217.81 362.383 2217.67 363.352 2217.67 364.406L2217.67 372.081 2215.17 372.081Z" fill-rule="evenodd"/><path d="M2069 348 2187 348" stroke="#D95319" stroke-width="1.9564" stroke-linejoin="round" stroke-miterlimit="10" fill="none" fill-rule="evenodd"/></g></svg>