<svg width="868" height="980" xmlns="http://www.w3.org/2000/svg" xmlns:xlink="http://www.w3.org/1999/xlink" xml:space="preserve" overflow="hidden"><g transform="translate(-3066 -168)"><path d="M3201 1026 3908 1026 3908 181 3201 181Z" fill="#FFFFFF" fill-rule="evenodd"/><path d="M3201 1026 3908 1026" stroke="#262626" stroke-width="1.9564" stroke-linecap="square" stroke-linejoin="round" stroke-miterlimit="10" fill="none" fill-rule="evenodd"/><path d="M3201 181 3908 181" stroke="#262626" stroke-width="1.9564" stroke-linecap="square" stroke-linejoin="round" stroke-miterlimit="10" fill="none" fill-rule="evenodd"/><path d="M3201 1026 3201 1018" stroke="#262626" stroke-width="1.9564" stroke-linecap="square" stroke-linejoin="round" stroke-miterlimit="10" fill="none" fill-rule="evenodd"/><path d="M3343 1026 3343 1018" stroke="#262626" stroke-width="1.9564" stroke-linecap="square" stroke-linejoin="round" stroke-miterlimit="10" fill="none" fill-rule="evenodd"/><path d="M3484 1026 3484 1018" stroke="#262626" stroke-width="1.9564" stroke-linecap="square" stroke-linejoin="round" stroke-miterlimit="10" fill="none" fill-rule="evenodd"/><path d="M3625 1026 3625 1018" stroke="#262626" stroke-width="1.9564" stroke-linecap="square" stroke-linejoin="round" stroke-miterlimit="10" fill="none" fill-rule="evenodd"/><path d="M3767 1026 3767 1018" stroke="#262626" stroke-width="1.9564" stroke-linecap="square" stroke-linejoin="round" stroke-miterlimit="10" fill="none" fill-rule="evenodd"/><path d="M3908 1026 3908 1018" stroke="#262626" stroke-width="1.9564" stroke-linecap="square" stroke-linejoin="round" stroke-miterlimit="10" fill="none" fill-rule="evenodd"/><path d="M3201 181 3201 189" stroke="#262626" stroke-width="1.9564" stroke-linecap="square" stroke-linejoin="round" stroke-miterlimit="10" fill="none" fill-rule="evenodd"/><path d="M3343 181 3343 189" stroke="#262626" stroke-width="1.9564" stroke-linecap="square" stroke-linejoin="round" stroke-miterlimit="10" fill="none" fill-rule="evenodd"/><path d="M3484 181 3484 189" stroke="#262626" stroke-width="1.9564" stroke-linecap="square" stroke-linejoin="round" stroke-miterlimit="10" fill="none" fill-rule="evenodd"/><path d="M3625 181 3625 189" stroke="#262626" stroke-width="1.9564" stroke-linecap="square" stroke-linejoin="round" stroke-miterlimit="10" fill="none" fill-rule="evenodd"/><path d="M3767 181 3767 189" stroke="#262626" stroke-width="1.9564" stroke-linecap="square" stroke-linejoin="round" stroke-miterlimit="10" fill="none" fill-rule="evenodd"/><path d="M3908 181 3908 189" stroke="#262626" stroke-width="1.9564" stroke-linecap="square" stroke-linejoin="round" stroke-miterlimit="10" fill="none" fill-rule="evenodd"/><path d="M3210.3 1077.96 3210.3 1081.25 3191.3 1081.25C3191.28 1080.43 3191.42 1079.64 3191.72 1078.89 3192.2 1077.62 3192.97 1076.38 3194.04 1075.17 3195.11 1073.95 3196.65 1072.54 3198.66 1070.95 3201.77 1068.45 3203.88 1066.48 3204.98 1065.03 3206.08 1063.58 3206.63 1062.21 3206.63 1060.92 3206.63 1059.56 3206.13 1058.42 3205.13 1057.49 3204.13 1056.56 3202.83 1056.09 3201.22 1056.09 3199.53 1056.09 3198.17 1056.58 3197.15 1057.57 3196.13 1058.55 3195.61 1059.93 3195.6 1061.68L3191.97 1061.32C3192.22 1058.69 3193.15 1056.69 3194.77 1055.31 3196.39 1053.94 3198.57 1053.25 3201.31 1053.25 3204.07 1053.25 3206.25 1053.99 3207.85 1055.47 3209.45 1056.95 3210.25 1058.79 3210.25 1060.98 3210.25 1062.11 3210.02 1063.21 3209.54 1064.29 3209.07 1065.36 3208.29 1066.5 3207.21 1067.69 3206.13 1068.89 3204.31 1070.52 3201.77 1072.6 3199.65 1074.32 3198.29 1075.5 3197.7 1076.11 3197.1 1076.73 3196.6 1077.34 3196.2 1077.96L3210.3 1077.96Z" fill="#262626" fill-rule="evenodd"/><path d="M3335.13 1078.42 3335.13 1081.77 3316.33 1081.77C3316.32 1080.93 3316.45 1080.13 3316.75 1079.36 3317.22 1078.08 3317.99 1076.82 3319.04 1075.58 3320.1 1074.34 3321.62 1072.9 3323.62 1071.28 3326.7 1068.74 3328.78 1066.73 3329.87 1065.25 3330.95 1063.78 3331.5 1062.38 3331.5 1061.06 3331.5 1059.69 3331 1058.52 3330.02 1057.57 3329.03 1056.62 3327.74 1056.15 3326.14 1056.15 3324.47 1056.15 3323.13 1056.65 3322.12 1057.65 3321.11 1058.66 3320.6 1060.05 3320.58 1061.84L3317 1061.48C3317.24 1058.8 3318.17 1056.76 3319.77 1055.36 3321.37 1053.96 3323.52 1053.26 3326.24 1053.26 3328.96 1053.26 3331.12 1054.01 3332.71 1055.52 3334.29 1057.03 3335.08 1058.9 3335.08 1061.13 3335.08 1062.28 3334.85 1063.4 3334.38 1064.5 3333.92 1065.59 3333.15 1066.75 3332.07 1067.96 3331 1069.18 3329.21 1070.85 3326.7 1072.96 3324.6 1074.72 3323.25 1075.91 3322.66 1076.54 3322.07 1077.17 3321.58 1077.8 3321.18 1078.42L3335.13 1078.42ZM3340.55 1081.77 3340.55 1077.8 3344.52 1077.8 3344.52 1081.77 3340.55 1081.77ZM3349.49 1074.34 3353.14 1074.01C3353.42 1075.81 3354.05 1077.15 3355.04 1078.04 3356.02 1078.94 3357.22 1079.39 3358.61 1079.39 3360.3 1079.39 3361.72 1078.76 3362.88 1077.49 3364.05 1076.23 3364.63 1074.55 3364.63 1072.45 3364.63 1070.46 3364.07 1068.89 3362.95 1067.75 3361.84 1066.6 3360.37 1066.02 3358.56 1066.02 3357.43 1066.02 3356.41 1066.28 3355.51 1066.79 3354.6 1067.31 3353.89 1067.97 3353.37 1068.78L3350.11 1068.34 3352.86 1053.76 3367 1053.76 3367 1057.09 3355.65 1057.09 3354.11 1064.71C3355.82 1063.54 3357.61 1062.95 3359.48 1062.95 3361.97 1062.95 3364.06 1063.8 3365.77 1065.52 3367.48 1067.23 3368.33 1069.44 3368.33 1072.15 3368.33 1074.73 3367.58 1076.95 3366.08 1078.81 3364.26 1081.11 3361.77 1082.26 3358.61 1082.26 3356.02 1082.26 3353.91 1081.53 3352.28 1080.09 3350.65 1078.64 3349.72 1076.72 3349.49 1074.34Z" fill="#262626" fill-rule="evenodd"/><path d="M3475.35 1074.25 3478.71 1073.79C3479.11 1075.76 3479.77 1077.19 3480.7 1078.06 3481.62 1078.93 3482.76 1079.37 3484.11 1079.37 3485.69 1079.37 3487.03 1078.8 3488.12 1077.67 3489.21 1076.54 3489.75 1075.13 3489.75 1073.45 3489.75 1071.84 3489.25 1070.52 3488.24 1069.49 3487.23 1068.46 3485.95 1067.94 3484.38 1067.94 3483.74 1067.94 3482.95 1068.06 3482 1068.31L3482.38 1065.26C3482.6 1065.29 3482.78 1065.3 3482.91 1065.3 3484.35 1065.3 3485.64 1064.92 3486.8 1064.14 3487.95 1063.37 3488.53 1062.17 3488.53 1060.55 3488.53 1059.28 3488.11 1058.23 3487.28 1057.39 3486.44 1056.54 3485.35 1056.12 3484.02 1056.12 3482.72 1056.12 3481.63 1056.55 3480.75 1057.4 3479.88 1058.25 3479.32 1059.53 3479.06 1061.24L3475.69 1060.62C3476.1 1058.28 3477.04 1056.47 3478.5 1055.18 3479.96 1053.9 3481.78 1053.26 3483.95 1053.26 3485.45 1053.26 3486.83 1053.59 3488.1 1054.25 3489.36 1054.92 3490.33 1055.83 3491 1056.97 3491.66 1058.12 3492 1059.34 3492 1060.62 3492 1061.86 3491.68 1062.98 3491.04 1063.98 3490.41 1064.98 3489.46 1065.78 3488.2 1066.38 3489.83 1066.76 3491.09 1067.57 3492 1068.79 3492.9 1070.01 3493.35 1071.54 3493.35 1073.38 3493.35 1075.86 3492.48 1077.95 3490.72 1079.68 3488.96 1081.4 3486.75 1082.26 3484.09 1082.26 3481.67 1082.26 3479.67 1081.52 3478.08 1080.03 3476.48 1078.55 3475.58 1076.62 3475.35 1074.25Z" fill="#262626" fill-rule="evenodd"/><path d="M3599.4 1074.25 3602.91 1073.79C3603.32 1075.76 3604.02 1077.19 3604.98 1078.06 3605.95 1078.93 3607.14 1079.37 3608.54 1079.37 3610.2 1079.37 3611.59 1078.8 3612.73 1077.67 3613.87 1076.54 3614.43 1075.13 3614.43 1073.45 3614.43 1071.84 3613.91 1070.52 3612.86 1069.49 3611.81 1068.46 3610.46 1067.94 3608.82 1067.94 3608.16 1067.94 3607.33 1068.06 3606.34 1068.31L3606.73 1065.26C3606.97 1065.29 3607.15 1065.3 3607.29 1065.3 3608.79 1065.3 3610.14 1064.92 3611.35 1064.14 3612.56 1063.37 3613.16 1062.17 3613.16 1060.55 3613.16 1059.28 3612.72 1058.23 3611.85 1057.39 3610.97 1056.54 3609.84 1056.12 3608.45 1056.12 3607.09 1056.12 3605.95 1056.55 3605.04 1057.4 3604.13 1058.25 3603.54 1059.53 3603.28 1061.24L3599.75 1060.62C3600.18 1058.28 3601.16 1056.47 3602.69 1055.18 3604.21 1053.9 3606.11 1053.26 3608.38 1053.26 3609.94 1053.26 3611.38 1053.59 3612.71 1054.25 3614.03 1054.92 3615.04 1055.83 3615.73 1056.97 3616.43 1058.12 3616.78 1059.34 3616.78 1060.62 3616.78 1061.86 3616.45 1062.98 3615.78 1063.98 3615.12 1064.98 3614.13 1065.78 3612.81 1066.38 3614.51 1066.76 3615.83 1067.57 3616.78 1068.79 3617.72 1070.01 3618.19 1071.54 3618.19 1073.38 3618.19 1075.86 3617.28 1077.95 3615.44 1079.68 3613.61 1081.4 3611.3 1082.26 3608.52 1082.26 3606 1082.26 3603.91 1081.52 3602.25 1080.03 3600.58 1078.55 3599.64 1076.62 3599.4 1074.25ZM3623.36 1081.75 3623.36 1077.78 3627.37 1077.78 3627.37 1081.75 3623.36 1081.75ZM3632.38 1074.32 3636.07 1074C3636.35 1075.79 3636.99 1077.13 3637.98 1078.02 3638.98 1078.92 3640.19 1079.37 3641.59 1079.37 3643.29 1079.37 3644.73 1078.74 3645.91 1077.47 3647.08 1076.21 3647.67 1074.53 3647.67 1072.44 3647.67 1070.45 3647.1 1068.88 3645.98 1067.73 3644.85 1066.59 3643.37 1066.01 3641.55 1066.01 3640.4 1066.01 3639.37 1066.27 3638.46 1066.78 3637.55 1067.29 3636.83 1067.96 3636.3 1068.77L3633.01 1068.33 3635.79 1053.76 3650.06 1053.76 3650.06 1057.09 3638.6 1057.09 3637.05 1064.71C3638.78 1063.53 3640.59 1062.94 3642.47 1062.94 3644.98 1062.94 3647.09 1063.8 3648.82 1065.51 3650.54 1067.22 3651.4 1069.43 3651.4 1072.14 3651.4 1074.71 3650.65 1076.93 3649.13 1078.79 3647.29 1081.09 3644.78 1082.23 3641.59 1082.23 3638.98 1082.23 3636.85 1081.51 3635.2 1080.07 3633.55 1078.62 3632.62 1076.7 3632.38 1074.32Z" fill="#262626" fill-rule="evenodd"/><path d="M3768.99 1081.25 3768.99 1074.55 3756.44 1074.55 3756.44 1071.41 3769.62 1053.25 3772.52 1053.25 3772.52 1071.41 3776.44 1071.41 3776.44 1074.55 3772.52 1074.55 3772.52 1081.25 3768.99 1081.25ZM3768.99 1071.41 3768.99 1058.78 3759.92 1071.41 3768.99 1071.41Z" fill="#262626" fill-rule="evenodd"/><path d="M3893.64 1081.77 3893.64 1074.95 3881.46 1074.95 3881.46 1071.75 3894.25 1053.26 3897.07 1053.26 3897.07 1071.75 3900.88 1071.75 3900.88 1074.95 3897.07 1074.95 3897.07 1081.77 3893.64 1081.77ZM3893.64 1071.75 3893.64 1058.88 3884.84 1071.75 3893.64 1071.75ZM3906.04 1081.77 3906.04 1077.79 3909.97 1077.79 3909.97 1081.77 3906.04 1081.77ZM3914.87 1074.31 3918.47 1073.98C3918.74 1075.78 3919.37 1077.13 3920.34 1078.03 3921.32 1078.93 3922.49 1079.38 3923.87 1079.38 3925.53 1079.38 3926.94 1078.74 3928.09 1077.47 3929.24 1076.21 3929.81 1074.52 3929.81 1072.41 3929.81 1070.42 3929.26 1068.84 3928.16 1067.69 3927.05 1066.54 3925.61 1065.96 3923.82 1065.96 3922.71 1065.96 3921.7 1066.22 3920.81 1066.73 3919.92 1067.25 3919.21 1067.91 3918.7 1068.73L3915.48 1068.29 3918.2 1053.65 3932.15 1053.65 3932.15 1056.99 3920.94 1056.99 3919.42 1064.65C3921.12 1063.46 3922.89 1062.87 3924.73 1062.87 3927.18 1062.87 3929.25 1063.73 3930.93 1065.45 3932.62 1067.17 3933.46 1069.39 3933.46 1072.11 3933.46 1074.7 3932.72 1076.93 3931.24 1078.8 3929.44 1081.11 3926.98 1082.26 3923.87 1082.26 3921.31 1082.26 3919.23 1081.53 3917.62 1080.08 3916.01 1078.63 3915.09 1076.7 3914.87 1074.31Z" fill="#262626" fill-rule="evenodd"/><path d="M3469.41 1138.29 3469.41 1111.38 3459.38 1111.38 3459.38 1107.77 3483.55 1107.77 3483.55 1111.38 3473.45 1111.38 3473.45 1138.29 3469.41 1138.29ZM3487.49 1112.09 3487.49 1107.77 3491.24 1107.77 3491.24 1112.09 3487.49 1112.09ZM3487.49 1138.29 3487.49 1116.2 3491.24 1116.2 3491.24 1138.29 3487.49 1138.29ZM3497.04 1138.29 3497.04 1116.2 3500.39 1116.2 3500.39 1119.3C3501.09 1118.22 3502.02 1117.34 3503.16 1116.68 3504.31 1116.03 3505.62 1115.7 3507.09 1115.7 3508.73 1115.7 3510.07 1116.04 3511.12 1116.72 3512.16 1117.4 3512.9 1118.34 3513.33 1119.55 3515.08 1116.98 3517.35 1115.7 3520.15 1115.7 3522.34 1115.7 3524.02 1116.3 3525.2 1117.51 3526.37 1118.72 3526.96 1120.59 3526.96 1123.11L3526.96 1138.29 3523.25 1138.29 3523.25 1124.38C3523.25 1122.88 3523.13 1121.8 3522.89 1121.14 3522.65 1120.48 3522.21 1119.95 3521.57 1119.54 3520.93 1119.14 3520.18 1118.93 3519.32 1118.93 3517.76 1118.93 3516.47 1119.45 3515.44 1120.48 3514.42 1121.52 3513.91 1123.17 3513.91 1125.46L3513.91 1138.29 3510.16 1138.29 3510.16 1123.94C3510.16 1122.27 3509.86 1121.02 3509.25 1120.19 3508.63 1119.35 3507.64 1118.93 3506.26 1118.93 3505.21 1118.93 3504.23 1119.21 3503.34 1119.77 3502.44 1120.33 3501.79 1121.14 3501.39 1122.21 3500.98 1123.27 3500.78 1124.81 3500.78 1126.83L3500.78 1138.29 3497.04 1138.29ZM3548.03 1131.17 3551.9 1131.66C3551.29 1133.92 3550.16 1135.68 3548.51 1136.93 3546.85 1138.17 3544.75 1138.8 3542.2 1138.8 3538.95 1138.8 3536.39 1137.8 3534.5 1135.81 3532.61 1133.82 3531.66 1131.03 3531.66 1127.43 3531.66 1123.71 3532.62 1120.83 3534.53 1118.77 3536.44 1116.72 3538.92 1115.7 3541.97 1115.7 3544.94 1115.7 3547.35 1116.7 3549.22 1118.72 3551.09 1120.73 3552.02 1123.56 3552.02 1127.2 3552.02 1127.42 3552.01 1127.74 3552 1128.19L3535.54 1128.19C3535.68 1130.62 3536.36 1132.49 3537.59 1133.78 3538.83 1135.07 3540.36 1135.72 3542.2 1135.72 3543.57 1135.72 3544.75 1135.36 3545.72 1134.63 3546.69 1133.9 3547.46 1132.75 3548.03 1131.17ZM3535.75 1125.11 3548.07 1125.11C3547.9 1123.26 3547.43 1121.87 3546.65 1120.93 3545.46 1119.49 3543.91 1118.77 3542.01 1118.77 3540.3 1118.77 3538.86 1119.35 3537.69 1120.5 3536.52 1121.64 3535.87 1123.18 3535.75 1125.11ZM3575.97 1147.27C3573.9 1144.65 3572.15 1141.59 3570.72 1138.1 3569.29 1134.6 3568.58 1130.98 3568.58 1127.25 3568.58 1123.94 3569.11 1120.78 3570.19 1117.76 3571.44 1114.24 3573.37 1110.74 3575.97 1107.27L3578.65 1107.27C3576.97 1110.15 3575.86 1112.21 3575.33 1113.45 3574.48 1115.36 3573.82 1117.36 3573.33 1119.44 3572.73 1122.03 3572.43 1124.64 3572.43 1127.27 3572.43 1133.94 3574.51 1140.61 3578.65 1147.27L3575.97 1147.27ZM3583.15 1138.29 3583.15 1116.2 3586.5 1116.2 3586.5 1119.3C3587.2 1118.22 3588.13 1117.34 3589.27 1116.68 3590.42 1116.03 3591.73 1115.7 3593.2 1115.7 3594.83 1115.7 3596.18 1116.04 3597.23 1116.72 3598.27 1117.4 3599.01 1118.34 3599.44 1119.55 3601.18 1116.98 3603.46 1115.7 3606.26 1115.7 3608.44 1115.7 3610.13 1116.3 3611.31 1117.51 3612.48 1118.72 3613.07 1120.59 3613.07 1123.11L3613.07 1138.29 3609.35 1138.29 3609.35 1124.38C3609.35 1122.88 3609.24 1121.8 3609 1121.14 3608.76 1120.48 3608.32 1119.95 3607.68 1119.54 3607.04 1119.14 3606.29 1118.93 3605.43 1118.93 3603.87 1118.93 3602.58 1119.45 3601.55 1120.48 3600.53 1121.52 3600.01 1123.17 3600.01 1125.46L3600.01 1138.29 3596.27 1138.29 3596.27 1123.94C3596.27 1122.27 3595.97 1121.02 3595.35 1120.19 3594.74 1119.35 3593.75 1118.93 3592.37 1118.93 3591.32 1118.93 3590.34 1119.21 3589.45 1119.77 3588.55 1120.33 3587.9 1121.14 3587.49 1122.21 3587.09 1123.27 3586.89 1124.81 3586.89 1126.83L3586.89 1138.29 3583.15 1138.29ZM3617.52 1131.7 3621.21 1131.1C3621.43 1132.59 3622.01 1133.73 3622.96 1134.53 3623.91 1135.32 3625.24 1135.72 3626.95 1135.72 3628.66 1135.72 3629.94 1135.37 3630.77 1134.66 3631.61 1133.96 3632.02 1133.13 3632.02 1132.18 3632.02 1131.34 3631.66 1130.68 3630.92 1130.19 3630.4 1129.86 3629.12 1129.44 3627.09 1128.92 3624.35 1128.23 3622.45 1127.64 3621.39 1127.13 3620.32 1126.63 3619.51 1125.93 3618.96 1125.03 3618.41 1124.14 3618.14 1123.14 3618.14 1122.06 3618.14 1121.08 3618.36 1120.17 3618.81 1119.32 3619.27 1118.48 3619.88 1117.79 3620.66 1117.24 3621.24 1116.81 3622.04 1116.44 3623.04 1116.14 3624.04 1115.85 3625.12 1115.7 3626.29 1115.7 3628.01 1115.7 3629.53 1115.95 3630.84 1116.44 3632.15 1116.94 3633.12 1117.62 3633.74 1118.48 3634.37 1119.33 3634.8 1120.47 3635.03 1121.9L3631.38 1122.4C3631.21 1121.25 3630.73 1120.36 3629.93 1119.73 3629.14 1119.09 3628.01 1118.77 3626.54 1118.77 3624.82 1118.77 3623.6 1119.06 3622.87 1119.62 3622.13 1120.19 3621.76 1120.86 3621.76 1121.62 3621.76 1122.11 3621.92 1122.55 3622.22 1122.93 3622.53 1123.33 3623 1123.66 3623.65 1123.94 3624.03 1124.08 3625.14 1124.39 3626.97 1124.88 3629.62 1125.6 3631.46 1126.18 3632.5 1126.63 3633.54 1127.07 3634.36 1127.73 3634.96 1128.59 3635.56 1129.45 3635.85 1130.52 3635.85 1131.79 3635.85 1133.05 3635.49 1134.23 3634.77 1135.33 3634.04 1136.43 3632.99 1137.29 3631.62 1137.89 3630.25 1138.49 3628.7 1138.8 3626.97 1138.8 3624.1 1138.8 3621.91 1138.2 3620.4 1137.01 3618.89 1135.81 3617.93 1134.04 3617.52 1131.7ZM3642.99 1147.27 3640.31 1147.27C3644.45 1140.61 3646.53 1133.94 3646.53 1127.27 3646.53 1124.65 3646.23 1122.07 3645.63 1119.51 3645.17 1117.43 3644.51 1115.43 3643.66 1113.52 3643.12 1112.26 3642.01 1110.18 3640.31 1107.27L3642.99 1107.27C3645.61 1110.74 3647.54 1114.24 3648.78 1117.76 3649.85 1120.78 3650.38 1123.94 3650.38 1127.25 3650.38 1130.98 3649.66 1134.6 3648.23 1138.1 3646.79 1141.59 3645.04 1144.65 3642.99 1147.27Z" fill="#262626" fill-rule="evenodd"/><path d="M3821.47 1144.48C3821.47 1144.29 3821.53 1144.1 3821.66 1143.94L3830.29 1135.78 3821.66 1127.6C3821.53 1127.46 3821.47 1127.29 3821.47 1127.08 3821.47 1126.88 3821.55 1126.7 3821.71 1126.53 3821.87 1126.36 3822.07 1126.28 3822.31 1126.28 3822.48 1126.28 3822.69 1126.36 3822.93 1126.53L3831.49 1134.69 3840.05 1126.53C3840.28 1126.36 3840.48 1126.28 3840.65 1126.28 3840.88 1126.28 3841.07 1126.36 3841.23 1126.51 3841.39 1126.66 3841.47 1126.85 3841.47 1127.08 3841.47 1127.29 3841.4 1127.46 3841.27 1127.6L3832.67 1135.78 3841.27 1143.94C3841.4 1144.1 3841.47 1144.29 3841.47 1144.48 3841.47 1144.71 3841.39 1144.9 3841.23 1145.05 3841.07 1145.2 3840.88 1145.28 3840.65 1145.28 3840.44 1145.28 3840.24 1145.18 3840.05 1144.98L3831.49 1136.87 3822.93 1144.98C3822.72 1145.18 3822.51 1145.28 3822.31 1145.28 3822.07 1145.28 3821.87 1145.2 3821.71 1145.03 3821.55 1144.86 3821.47 1144.68 3821.47 1144.48Z" fill="#262626" fill-rule="evenodd"/><path d="M3861.74 1145.8 3858.31 1145.8 3858.31 1123.57C3857.48 1124.38 3856.4 1125.19 3855.06 1125.98 3853.72 1126.78 3852.52 1127.38 3851.45 1127.78L3851.45 1124.4C3853.37 1123.5 3855.05 1122.39 3856.48 1121.08 3857.91 1119.77 3858.93 1118.51 3859.53 1117.28L3861.74 1117.28 3861.74 1145.8ZM3870.25 1131.79C3870.25 1128.44 3870.59 1125.74 3871.27 1123.69 3871.94 1121.64 3872.95 1120.06 3874.29 1118.95 3875.63 1117.84 3877.32 1117.28 3879.35 1117.28 3880.85 1117.28 3882.17 1117.59 3883.3 1118.2 3884.43 1118.81 3885.36 1119.7 3886.1 1120.85 3886.84 1122.01 3887.41 1123.42 3887.83 1125.08 3888.24 1126.74 3888.45 1128.98 3888.45 1131.79 3888.45 1135.13 3888.11 1137.82 3887.44 1139.86 3886.77 1141.91 3885.77 1143.49 3884.43 1144.61 3883.09 1145.72 3881.4 1146.28 3879.35 1146.28 3876.65 1146.28 3874.54 1145.3 3873 1143.34 3871.17 1140.97 3870.25 1137.12 3870.25 1131.79ZM3873.77 1131.79C3873.77 1136.46 3874.31 1139.57 3875.37 1141.1 3876.44 1142.64 3877.77 1143.41 3879.35 1143.41 3880.93 1143.41 3882.25 1142.64 3883.32 1141.09 3884.39 1139.55 3884.92 1136.45 3884.92 1131.79 3884.92 1127.12 3884.39 1124.02 3883.32 1122.48 3882.25 1120.94 3880.91 1120.18 3879.3 1120.18 3877.74 1120.18 3876.48 1120.85 3875.53 1122.2 3874.36 1123.93 3873.77 1127.12 3873.77 1131.79Z" fill="#262626" fill-rule="evenodd"/><path d="M3900.85 1126.28 3900.85 1121.02 3891.46 1121.02 3891.46 1118.52 3901.34 1104.28 3903.53 1104.28 3903.53 1118.52 3906.46 1118.52 3906.46 1121.02 3903.53 1121.02 3903.53 1126.28 3900.85 1126.28ZM3900.85 1118.52 3900.85 1108.62 3894.07 1118.52 3900.85 1118.52Z" fill="#262626" fill-rule="evenodd"/><path d="M3201 1026 3201 181" stroke="#262626" stroke-width="1.9564" stroke-linecap="square" stroke-linejoin="round" stroke-miterlimit="10" fill="none" fill-rule="evenodd"/><path d="M3908 1026 3908 181" stroke="#262626" stroke-width="1.9564" stroke-linecap="square" stroke-linejoin="round" stroke-miterlimit="10" fill="none" fill-rule="evenodd"/><path d="M3201 1026 3210 1026" stroke="#262626" stroke-width="1.9564" stroke-linecap="square" stroke-linejoin="round" stroke-miterlimit="10" fill="none" fill-rule="evenodd"/><path d="M3201 932 3210 932" stroke="#262626" stroke-width="1.9564" stroke-linecap="square" stroke-linejoin="round" stroke-miterlimit="10" fill="none" fill-rule="evenodd"/><path d="M3201 838 3210 838" stroke="#262626" stroke-width="1.9564" stroke-linecap="square" stroke-linejoin="round" stroke-miterlimit="10" fill="none" fill-rule="evenodd"/><path d="M3201 744 3210 744" stroke="#262626" stroke-width="1.9564" stroke-linecap="square" stroke-linejoin="round" stroke-miterlimit="10" fill="none" fill-rule="evenodd"/><path d="M3201 650 3210 650" stroke="#262626" stroke-width="1.9564" stroke-linecap="square" stroke-linejoin="round" stroke-miterlimit="10" fill="none" fill-rule="evenodd"/><path d="M3201 557 3210 557" stroke="#262626" stroke-width="1.9564" stroke-linecap="square" stroke-linejoin="round" stroke-miterlimit="10" fill="none" fill-rule="evenodd"/><path d="M3201 463 3210 463" stroke="#262626" stroke-width="1.9564" stroke-linecap="square" stroke-linejoin="round" stroke-miterlimit="10" fill="none" fill-rule="evenodd"/><path d="M3201 369 3210 369" stroke="#262626" stroke-width="1.9564" stroke-linecap="square" stroke-linejoin="round" stroke-miterlimit="10" fill="none" fill-rule="evenodd"/><path d="M3201 275 3210 275" stroke="#262626" stroke-width="1.9564" stroke-linecap="square" stroke-linejoin="round" stroke-miterlimit="10" fill="none" fill-rule="evenodd"/><path d="M3201 181 3210 181" stroke="#262626" stroke-width="1.9564" stroke-linecap="square" stroke-linejoin="round" stroke-miterlimit="10" fill="none" fill-rule="evenodd"/><path d="M3908 1026 3900 1026" stroke="#262626" stroke-width="1.9564" stroke-linecap="square" stroke-linejoin="round" stroke-miterlimit="10" fill="none" fill-rule="evenodd"/><path d="M3908 932 3900 932" stroke="#262626" stroke-width="1.9564" stroke-linecap="square" stroke-linejoin="round" stroke-miterlimit="10" fill="none" fill-rule="evenodd"/><path d="M3908 838 3900 838" stroke="#262626" stroke-width="1.9564" stroke-linecap="square" stroke-linejoin="round" stroke-miterlimit="10" fill="none" fill-rule="evenodd"/><path d="M3908 744 3900 744" stroke="#262626" stroke-width="1.9564" stroke-linecap="square" stroke-linejoin="round" stroke-miterlimit="10" fill="none" fill-rule="evenodd"/><path d="M3908 650 3900 650" stroke="#262626" stroke-width="1.9564" stroke-linecap="square" stroke-linejoin="round" stroke-miterlimit="10" fill="none" fill-rule="evenodd"/><path d="M3908 557 3900 557" stroke="#262626" stroke-width="1.9564" stroke-linecap="square" stroke-linejoin="round" stroke-miterlimit="10" fill="none" fill-rule="evenodd"/><path d="M3908 463 3900 463" stroke="#262626" stroke-width="1.9564" stroke-linecap="square" stroke-linejoin="round" stroke-miterlimit="10" fill="none" fill-rule="evenodd"/><path d="M3908 369 3900 369" stroke="#262626" stroke-width="1.9564" stroke-linecap="square" stroke-linejoin="round" stroke-miterlimit="10" fill="none" fill-rule="evenodd"/><path d="M3908 275 3900 275" stroke="#262626" stroke-width="1.9564" stroke-linecap="square" stroke-linejoin="round" stroke-miterlimit="10" fill="none" fill-rule="evenodd"/><path d="M3908 181 3900 181" stroke="#262626" stroke-width="1.9564" stroke-linecap="square" stroke-linejoin="round" stroke-miterlimit="10" fill="none" fill-rule="evenodd"/><path d="M3139.48 1020.32 3136.02 1020.6C3135.72 1019.22 3135.27 1018.23 3134.69 1017.62 3133.76 1016.62 3132.61 1016.12 3131.24 1016.12 3130.13 1016.12 3129.15 1016.43 3128.31 1017.04 3127.21 1017.85 3126.35 1019.02 3125.73 1020.55 3125.1 1022.09 3124.78 1024.27 3124.74 1027.12 3125.58 1025.85 3126.61 1024.91 3127.81 1024.29 3129.01 1023.67 3130.28 1023.36 3131.61 1023.36 3133.92 1023.36 3135.9 1024.21 3137.53 1025.92 3139.16 1027.62 3139.98 1029.83 3139.98 1032.54 3139.98 1034.33 3139.59 1035.99 3138.82 1037.52 3138.05 1039.05 3137 1040.22 3135.67 1041.04 3134.33 1041.85 3132.81 1042.25 3131.1 1042.25 3128.22 1042.25 3125.87 1041.19 3124.04 1039.05 3122.21 1036.91 3121.29 1033.39 3121.29 1028.48 3121.29 1023 3122.3 1019.01 3124.31 1016.51 3126.08 1014.34 3128.46 1013.25 3131.45 1013.25 3133.67 1013.25 3135.5 1013.88 3136.91 1015.14 3138.33 1016.39 3139.19 1018.12 3139.48 1020.32ZM3125.29 1032.56C3125.29 1033.77 3125.55 1034.92 3126.05 1036.02 3126.55 1037.11 3127.26 1037.95 3128.18 1038.52 3129.09 1039.1 3130.05 1039.38 3131.06 1039.38 3132.52 1039.38 3133.78 1038.79 3134.83 1037.6 3135.88 1036.42 3136.41 1034.81 3136.41 1032.77 3136.41 1030.8 3135.89 1029.25 3134.85 1028.12 3133.82 1027 3132.51 1026.43 3130.92 1026.43 3129.35 1026.43 3128.02 1027 3126.93 1028.12 3125.84 1029.25 3125.29 1030.73 3125.29 1032.56ZM3161.41 1038.42 3161.41 1041.77 3142.7 1041.77C3142.68 1040.93 3142.82 1040.13 3143.11 1039.36 3143.58 1038.07 3144.34 1036.81 3145.39 1035.57 3146.45 1034.33 3147.96 1032.9 3149.95 1031.28 3153.01 1028.74 3155.08 1026.73 3156.17 1025.25 3157.25 1023.77 3157.79 1022.38 3157.79 1021.06 3157.79 1019.68 3157.3 1018.52 3156.32 1017.57 3155.33 1016.62 3154.05 1016.15 3152.46 1016.15 3150.8 1016.15 3149.47 1016.65 3148.46 1017.65 3147.45 1018.65 3146.94 1020.05 3146.93 1021.84L3143.36 1021.47C3143.6 1018.79 3144.52 1016.75 3146.11 1015.35 3147.71 1013.95 3149.85 1013.25 3152.55 1013.25 3155.27 1013.25 3157.41 1014.01 3158.99 1015.51 3160.57 1017.02 3161.36 1018.89 3161.36 1021.13 3161.36 1022.28 3161.13 1023.4 3160.66 1024.49 3160.2 1025.59 3159.43 1026.74 3158.36 1027.96 3157.3 1029.18 3155.51 1030.84 3153.01 1032.95 3150.92 1034.71 3149.58 1035.91 3149 1036.54 3148.41 1037.16 3147.92 1037.79 3147.52 1038.42L3161.41 1038.42ZM3164.85 1027.76C3164.85 1024.41 3165.2 1021.71 3165.88 1019.66 3166.57 1017.61 3167.59 1016.03 3168.95 1014.92 3170.31 1013.81 3172.01 1013.25 3174.07 1013.25 3175.6 1013.25 3176.93 1013.56 3178.08 1014.17 3179.22 1014.78 3180.16 1015.67 3180.91 1016.82 3181.66 1017.98 3182.24 1019.39 3182.66 1021.05 3183.08 1022.71 3183.29 1024.95 3183.29 1027.76 3183.29 1031.1 3182.95 1033.79 3182.27 1035.84 3181.59 1037.88 3180.58 1039.46 3179.22 1040.58 3177.86 1041.69 3176.15 1042.25 3174.07 1042.25 3171.34 1042.25 3169.2 1041.27 3167.65 1039.31 3165.79 1036.94 3164.85 1033.09 3164.85 1027.76ZM3168.42 1027.76C3168.42 1032.43 3168.96 1035.54 3170.05 1037.08 3171.13 1038.61 3172.47 1039.38 3174.07 1039.38 3175.67 1039.38 3177.02 1038.61 3178.1 1037.06 3179.18 1035.52 3179.72 1032.42 3179.72 1027.76 3179.72 1023.1 3179.18 1019.99 3178.1 1018.45 3177.02 1016.92 3175.66 1016.15 3174.03 1016.15 3172.44 1016.15 3171.17 1016.82 3170.21 1018.17 3169.02 1019.9 3168.42 1023.1 3168.42 1027.76Z" fill="#262626" fill-rule="evenodd"/><path d="M3139.48 926.296 3136.02 926.571C3135.72 925.195 3135.27 924.201 3134.69 923.589 3133.76 922.595 3132.61 922.097 3131.24 922.097 3130.13 922.097 3129.15 922.403 3128.31 923.015 3127.21 923.826 3126.35 924.996 3125.73 926.526 3125.1 928.055 3124.78 930.242 3124.74 933.087 3125.58 931.818 3126.61 930.873 3127.81 930.254 3129.01 929.634 3130.28 929.325 3131.61 929.325 3133.92 929.325 3135.9 930.177 3137.53 931.883 3139.16 933.588 3139.98 935.795 3139.98 938.502 3139.98 940.292 3139.59 941.951 3138.82 943.481 3138.05 945.01 3137 946.18 3135.67 946.991 3134.33 947.802 3132.81 948.207 3131.1 948.207 3128.22 948.207 3125.87 947.14 3124.04 945.006 3122.21 942.873 3121.29 939.351 3121.29 934.441 3121.29 928.965 3122.3 924.981 3124.31 922.488 3126.08 920.315 3128.46 919.229 3131.45 919.229 3133.67 919.229 3135.5 919.857 3136.91 921.111 3138.33 922.365 3139.19 924.094 3139.48 926.296ZM3125.29 938.525C3125.29 939.733 3125.55 940.884 3126.05 941.978 3126.55 943.071 3127.26 943.905 3128.18 944.479 3129.09 945.052 3130.05 945.339 3131.06 945.339 3132.52 945.339 3133.78 944.746 3134.83 943.561 3135.88 942.376 3136.41 940.766 3136.41 938.731 3136.41 936.758 3135.89 935.21 3134.85 934.085 3133.82 932.961 3132.51 932.399 3130.92 932.399 3129.35 932.399 3128.02 932.961 3126.93 934.085 3125.84 935.21 3125.29 936.69 3125.29 938.525ZM3143.18 940.223 3146.63 939.764C3147.04 941.737 3147.72 943.159 3148.68 944.031 3149.63 944.903 3150.8 945.339 3152.19 945.339 3153.82 945.339 3155.2 944.773 3156.32 943.642 3157.44 942.509 3158 941.102 3158 939.42 3158 937.814 3157.48 936.494 3156.44 935.462 3155.41 934.429 3154.08 933.914 3152.46 933.914 3151.81 933.914 3150.99 934.036 3150.01 934.281L3150.4 931.229C3150.63 931.259 3150.82 931.275 3150.95 931.275 3152.43 931.275 3153.77 930.889 3154.96 930.116 3156.14 929.344 3156.74 928.147 3156.74 926.526 3156.74 925.256 3156.31 924.201 3155.45 923.359 3154.59 922.518 3153.47 922.097 3152.1 922.097 3150.75 922.097 3149.63 922.522 3148.73 923.371 3147.83 924.22 3147.25 925.5 3147 927.214L3143.52 926.594C3143.95 924.254 3144.91 922.441 3146.41 921.157 3147.91 919.872 3149.79 919.229 3152.03 919.229 3153.57 919.229 3154.99 919.562 3156.29 920.228 3157.6 920.893 3158.59 921.799 3159.28 922.946 3159.96 924.094 3160.31 925.309 3160.31 926.594 3160.31 927.833 3159.98 928.954 3159.32 929.956 3158.67 930.957 3157.69 931.757 3156.4 932.353 3158.07 932.736 3159.38 933.539 3160.31 934.762 3161.24 935.986 3161.7 937.516 3161.7 939.351 3161.7 941.829 3160.8 943.928 3158.99 945.649 3157.19 947.369 3154.91 948.23 3152.17 948.23 3149.68 948.23 3147.62 947.488 3145.98 946.004 3144.34 944.521 3143.4 942.593 3143.18 940.223ZM3164.85 933.73C3164.85 930.38 3165.2 927.68 3165.88 925.631 3166.57 923.581 3167.59 922.002 3168.95 920.893 3170.31 919.784 3172.01 919.229 3174.07 919.229 3175.6 919.229 3176.93 919.536 3178.08 920.147 3179.22 920.759 3180.16 921.642 3180.91 922.797 3181.66 923.952 3182.24 925.359 3182.66 927.019 3183.08 928.678 3183.29 930.915 3183.29 933.73 3183.29 937.064 3182.95 939.753 3182.27 941.794 3181.59 943.836 3180.58 945.416 3179.22 946.532 3177.86 947.649 3176.15 948.207 3174.07 948.207 3171.34 948.207 3169.2 947.228 3167.65 945.27 3165.79 942.899 3164.85 939.053 3164.85 933.73ZM3168.42 933.73C3168.42 938.395 3168.96 941.496 3170.05 943.033 3171.13 944.57 3172.47 945.339 3174.07 945.339 3175.67 945.339 3177.02 944.567 3178.1 943.022 3179.18 941.477 3179.72 938.38 3179.72 933.73 3179.72 929.065 3179.18 925.963 3178.1 924.426 3177.02 922.889 3175.66 922.12 3174.03 922.12 3172.44 922.12 3171.17 922.793 3170.21 924.139 3169.02 925.868 3168.42 929.065 3168.42 933.73Z" fill="#262626" fill-rule="evenodd"/><path d="M3139.48 832.279 3136.02 832.554C3135.72 831.177 3135.27 830.182 3134.69 829.569 3133.76 828.575 3132.61 828.077 3131.24 828.077 3130.13 828.077 3129.15 828.383 3128.31 828.995 3127.21 829.807 3126.35 830.978 3125.73 832.508 3125.1 834.039 3124.78 836.228 3124.74 839.076 3125.58 837.805 3126.61 836.86 3127.81 836.24 3129.01 835.62 3130.28 835.31 3131.61 835.31 3133.92 835.31 3135.9 836.163 3137.53 837.87 3139.16 839.577 3139.98 841.785 3139.98 844.494 3139.98 846.285 3139.59 847.946 3138.82 849.477 3138.05 851.008 3137 852.179 3135.67 852.99 3134.33 853.801 3132.81 854.207 3131.1 854.207 3128.22 854.207 3125.87 853.139 3124.04 851.004 3122.21 848.869 3121.29 845.344 3121.29 840.43 3121.29 834.95 3122.3 830.962 3124.31 828.467 3126.08 826.294 3128.46 825.207 3131.45 825.207 3133.67 825.207 3135.5 825.834 3136.91 827.09 3138.33 828.345 3139.19 830.075 3139.48 832.279ZM3125.29 844.518C3125.29 845.727 3125.55 846.879 3126.05 847.973 3126.55 849.067 3127.26 849.902 3128.18 850.476 3129.09 851.05 3130.05 851.337 3131.06 851.337 3132.52 851.337 3133.78 850.744 3134.83 849.557 3135.88 848.371 3136.41 846.76 3136.41 844.724 3136.41 842.749 3135.89 841.2 3134.85 840.074 3133.82 838.949 3132.51 838.387 3130.92 838.387 3129.35 838.387 3128.02 838.949 3126.93 840.074 3125.84 841.2 3125.29 842.68 3125.29 844.518ZM3154.29 853.725 3154.29 846.928 3142.01 846.928 3142.01 843.737 3154.91 825.322 3157.75 825.322 3157.75 843.737 3161.59 843.737 3161.59 846.928 3157.75 846.928 3157.75 853.725 3154.29 853.725ZM3154.29 843.737 3154.29 830.924 3145.42 843.737 3154.29 843.737ZM3164.85 839.719C3164.85 836.366 3165.2 833.664 3165.88 831.613 3166.57 829.562 3167.59 827.981 3168.95 826.871 3170.31 825.762 3172.01 825.207 3174.07 825.207 3175.6 825.207 3176.93 825.513 3178.08 826.125 3179.22 826.737 3180.16 827.622 3180.91 828.777 3181.66 829.933 3182.24 831.341 3182.66 833.002 3183.08 834.663 3183.29 836.902 3183.29 839.719 3183.29 843.055 3182.95 845.746 3182.27 847.789 3181.59 849.833 3180.58 851.413 3179.22 852.531 3177.86 853.648 3176.15 854.207 3174.07 854.207 3171.34 854.207 3169.2 853.227 3167.65 851.268 3165.79 848.895 3164.85 845.045 3164.85 839.719ZM3168.42 839.719C3168.42 844.387 3168.96 847.491 3170.05 849.029 3171.13 850.568 3172.47 851.337 3174.07 851.337 3175.67 851.337 3177.02 850.564 3178.1 849.018 3179.18 847.472 3179.72 844.372 3179.72 839.719 3179.72 835.05 3179.18 831.946 3178.1 830.408 3177.02 828.869 3175.66 828.1 3174.03 828.1 3172.44 828.1 3171.17 828.773 3170.21 830.12 3169.02 831.85 3168.42 835.05 3168.42 839.719Z" fill="#262626" fill-rule="evenodd"/><path d="M3139.48 738.256 3136.02 738.532C3135.72 737.154 3135.27 736.159 3134.69 735.547 3133.76 734.552 3132.61 734.054 3131.24 734.054 3130.13 734.054 3129.15 734.36 3128.31 734.973 3127.21 735.784 3126.35 736.955 3125.73 738.486 3125.1 740.016 3124.78 742.205 3124.74 745.053 3125.58 743.782 3126.61 742.837 3127.81 742.217 3129.01 741.597 3130.28 741.287 3131.61 741.287 3133.92 741.287 3135.9 742.14 3137.53 743.847 3139.16 745.554 3139.98 747.762 3139.98 750.471 3139.98 752.262 3139.59 753.923 3138.82 755.454 3138.05 756.985 3137 758.156 3135.67 758.967 3134.33 759.779 3132.81 760.184 3131.1 760.184 3128.22 760.184 3125.87 759.116 3124.04 756.981 3122.21 754.846 3121.29 751.321 3121.29 746.407 3121.29 740.927 3122.3 736.94 3124.31 734.444 3126.08 732.271 3128.46 731.184 3131.45 731.184 3133.67 731.184 3135.5 731.812 3136.91 733.067 3138.33 734.322 3139.19 736.052 3139.48 738.256ZM3125.29 750.495C3125.29 751.704 3125.55 752.856 3126.05 753.95 3126.55 755.045 3127.26 755.879 3128.18 756.453 3129.09 757.027 3130.05 757.314 3131.06 757.314 3132.52 757.314 3133.78 756.721 3134.83 755.535 3135.88 754.348 3136.41 752.737 3136.41 750.701 3136.41 748.726 3135.89 747.177 3134.85 746.052 3133.82 744.926 3132.51 744.364 3130.92 744.364 3129.35 744.364 3128.02 744.926 3126.93 746.052 3125.84 747.177 3125.29 748.658 3125.29 750.495ZM3143.15 752.262 3146.79 751.941C3147.06 753.732 3147.69 755.075 3148.68 755.971 3149.66 756.866 3150.85 757.314 3152.23 757.314 3153.91 757.314 3155.33 756.682 3156.49 755.42 3157.65 754.157 3158.23 752.477 3158.23 750.38 3158.23 748.39 3157.67 746.82 3156.56 745.673 3155.44 744.524 3153.99 743.95 3152.19 743.95 3151.06 743.95 3150.05 744.207 3149.15 744.72 3148.25 745.232 3147.54 745.895 3147.02 746.706L3143.77 746.269 3146.52 731.689 3160.58 731.689 3160.58 735.019 3149.28 735.019 3147.75 742.641C3149.46 741.463 3151.24 740.874 3153.1 740.874 3155.57 740.874 3157.66 741.731 3159.36 743.445 3161.06 745.16 3161.91 747.372 3161.91 750.081 3161.91 752.653 3161.16 754.872 3159.67 756.74 3157.85 759.036 3155.37 760.184 3152.23 760.184 3149.66 760.184 3147.56 759.461 3145.93 758.014 3144.31 756.568 3143.38 754.651 3143.15 752.262ZM3164.85 745.696C3164.85 742.343 3165.2 739.641 3165.88 737.59 3166.57 735.539 3167.59 733.958 3168.95 732.849 3170.31 731.739 3172.01 731.184 3174.07 731.184 3175.6 731.184 3176.93 731.49 3178.08 732.103 3179.22 732.715 3180.16 733.599 3180.91 734.754 3181.66 735.91 3182.24 737.318 3182.66 738.979 3183.08 740.64 3183.29 742.879 3183.29 745.696 3183.29 749.032 3182.95 751.723 3182.27 753.766 3181.59 755.81 3180.58 757.391 3179.22 758.508 3177.86 759.625 3176.15 760.184 3174.07 760.184 3171.34 760.184 3169.2 759.204 3167.65 757.245 3165.79 754.872 3164.85 751.023 3164.85 745.696ZM3168.42 745.696C3168.42 750.364 3168.96 753.468 3170.05 755.006 3171.13 756.545 3172.47 757.314 3174.07 757.314 3175.67 757.314 3177.02 756.541 3178.1 754.995 3179.18 753.449 3179.72 750.349 3179.72 745.696 3179.72 741.027 3179.18 737.923 3178.1 736.385 3177.02 734.846 3175.66 734.077 3174.03 734.077 3172.44 734.077 3171.17 734.75 3170.21 736.098 3169.02 737.827 3168.42 741.027 3168.42 745.696Z" fill="#262626" fill-rule="evenodd"/><path d="M3139.48 644.233 3136.02 644.508C3135.72 643.131 3135.27 642.135 3134.69 641.523 3133.76 640.528 3132.61 640.031 3131.24 640.031 3130.13 640.031 3129.15 640.337 3128.31 640.949 3127.21 641.761 3126.35 642.932 3125.73 644.462 3125.1 645.993 3124.78 648.182 3124.74 651.029 3125.58 649.759 3126.61 648.814 3127.81 648.194 3129.01 647.574 3130.28 647.264 3131.61 647.264 3133.92 647.264 3135.9 648.117 3137.53 649.824 3139.16 651.531 3139.98 653.739 3139.98 656.448 3139.98 658.239 3139.59 659.9 3138.82 661.431 3138.05 662.961 3137 664.133 3135.67 664.944 3134.33 665.755 3132.81 666.161 3131.1 666.161 3128.22 666.161 3125.87 665.093 3124.04 662.958 3122.21 660.822 3121.29 657.298 3121.29 652.384 3121.29 646.904 3122.3 642.916 3124.31 640.421 3126.08 638.247 3128.46 637.161 3131.45 637.161 3133.67 637.161 3135.5 637.788 3136.91 639.043 3138.33 640.298 3139.19 642.028 3139.48 644.233ZM3125.29 656.471C3125.29 657.68 3125.55 658.832 3126.05 659.927 3126.55 661.021 3127.26 661.855 3128.18 662.43 3129.09 663.004 3130.05 663.291 3131.06 663.291 3132.52 663.291 3133.78 662.698 3134.83 661.511 3135.88 660.325 3136.41 658.714 3136.41 656.678 3136.41 654.703 3135.89 653.153 3134.85 652.028 3133.82 650.903 3132.51 650.34 3130.92 650.34 3129.35 650.34 3128.02 650.903 3126.93 652.028 3125.84 653.153 3125.29 654.634 3125.29 656.471ZM3161.18 644.233 3157.72 644.508C3157.42 643.131 3156.98 642.135 3156.4 641.523 3155.47 640.528 3154.31 640.031 3152.94 640.031 3151.83 640.031 3150.85 640.337 3150.01 640.949 3148.92 641.761 3148.06 642.932 3147.43 644.462 3146.8 645.993 3146.48 648.182 3146.45 651.029 3147.29 649.759 3148.31 648.814 3149.51 648.194 3150.72 647.574 3151.98 647.264 3153.31 647.264 3155.63 647.264 3157.6 648.117 3159.23 649.824 3160.86 651.531 3161.68 653.739 3161.68 656.448 3161.68 658.239 3161.3 659.9 3160.53 661.431 3159.76 662.961 3158.7 664.133 3157.37 664.944 3156.03 665.755 3154.51 666.161 3152.81 666.161 3149.92 666.161 3147.57 665.093 3145.74 662.958 3143.91 660.822 3142.99 657.298 3142.99 652.384 3142.99 646.904 3144 642.916 3146.01 640.421 3147.78 638.247 3150.16 637.161 3153.15 637.161 3155.37 637.161 3157.2 637.788 3158.62 639.043 3160.03 640.298 3160.89 642.028 3161.18 644.233ZM3147 656.471C3147 657.68 3147.25 658.832 3147.75 659.927 3148.25 661.021 3148.96 661.855 3149.88 662.43 3150.79 663.004 3151.75 663.291 3152.76 663.291 3154.22 663.291 3155.48 662.698 3156.53 661.511 3157.59 660.325 3158.11 658.714 3158.11 656.678 3158.11 654.703 3157.59 653.153 3156.56 652.028 3155.52 650.903 3154.21 650.34 3152.62 650.34 3151.05 650.34 3149.72 650.903 3148.63 652.028 3147.54 653.153 3147 654.634 3147 656.471ZM3164.85 651.672C3164.85 648.32 3165.2 645.618 3165.88 643.567 3166.57 641.516 3167.59 639.935 3168.95 638.825 3170.31 637.716 3172.01 637.161 3174.07 637.161 3175.6 637.161 3176.93 637.467 3178.08 638.079 3179.22 638.692 3180.16 639.575 3180.91 640.731 3181.66 641.887 3182.24 643.295 3182.66 644.956 3183.08 646.617 3183.29 648.856 3183.29 651.672 3183.29 655.009 3182.95 657.7 3182.27 659.743 3181.59 661.787 3180.58 663.367 3179.22 664.485 3177.86 665.602 3176.15 666.161 3174.07 666.161 3171.34 666.161 3169.2 665.181 3167.65 663.222 3165.79 660.849 3164.85 656.999 3164.85 651.672ZM3168.42 651.672C3168.42 656.341 3168.96 659.445 3170.05 660.983 3171.13 662.522 3172.47 663.291 3174.07 663.291 3175.67 663.291 3177.02 662.518 3178.1 660.972 3179.18 659.426 3179.72 656.326 3179.72 651.672 3179.72 647.003 3179.18 643.9 3178.1 642.361 3177.02 640.823 3175.66 640.054 3174.03 640.054 3172.44 640.054 3171.17 640.727 3170.21 642.074 3169.02 643.804 3168.42 647.003 3168.42 651.672Z" fill="#262626" fill-rule="evenodd"/><path d="M3139.48 550.21 3136.02 550.486C3135.72 549.108 3135.27 548.113 3134.69 547.5 3133.76 546.505 3132.61 546.008 3131.24 546.008 3130.13 546.008 3129.15 546.314 3128.31 546.927 3127.21 547.738 3126.35 548.909 3125.73 550.439 3125.1 551.97 3124.78 554.159 3124.74 557.006 3125.58 555.736 3126.61 554.791 3127.81 554.171 3129.01 553.551 3130.28 553.241 3131.61 553.241 3133.92 553.241 3135.9 554.094 3137.53 555.801 3139.16 557.508 3139.98 559.716 3139.98 562.425 3139.98 564.216 3139.59 565.877 3138.82 567.408 3138.05 568.939 3137 570.11 3135.67 570.921 3134.33 571.732 3132.81 572.138 3131.1 572.138 3128.22 572.138 3125.87 571.07 3124.04 568.935 3122.21 566.799 3121.29 563.275 3121.29 558.361 3121.29 552.881 3122.3 548.893 3124.31 546.398 3126.08 544.224 3128.46 543.138 3131.45 543.138 3133.67 543.138 3135.5 543.766 3136.91 545.021 3138.33 546.276 3139.19 548.005 3139.48 550.21ZM3125.29 562.448C3125.29 563.658 3125.55 564.809 3126.05 565.904 3126.55 566.998 3127.26 567.833 3128.18 568.407 3129.09 568.981 3130.05 569.268 3131.06 569.268 3132.52 569.268 3133.78 568.675 3134.83 567.488 3135.88 566.302 3136.41 564.691 3136.41 562.655 3136.41 560.68 3135.89 559.13 3134.85 558.005 3133.82 556.88 3132.51 556.318 3130.92 556.318 3129.35 556.318 3128.02 556.88 3126.93 558.005 3125.84 559.13 3125.29 560.611 3125.29 562.448ZM3143.38 546.972 3143.38 543.62 3161.7 543.62 3161.7 546.329C3159.89 548.258 3158.1 550.818 3156.33 554.01 3154.56 557.202 3153.19 560.481 3152.23 563.849 3151.55 566.222 3151.1 568.824 3150.91 571.656L3147.34 571.656C3147.37 569.421 3147.8 566.723 3148.64 563.562 3149.48 560.401 3150.68 557.351 3152.24 554.412 3153.81 551.473 3155.47 548.993 3157.24 546.972L3143.38 546.972ZM3164.85 557.649C3164.85 554.297 3165.2 551.595 3165.88 549.544 3166.57 547.493 3167.59 545.912 3168.95 544.803 3170.31 543.693 3172.01 543.138 3174.07 543.138 3175.6 543.138 3176.93 543.444 3178.08 544.056 3179.22 544.669 3180.16 545.552 3180.91 546.708 3181.66 547.864 3182.24 549.272 3182.66 550.933 3183.08 552.594 3183.29 554.833 3183.29 557.649 3183.29 560.987 3182.95 563.677 3182.27 565.72 3181.59 567.764 3180.58 569.344 3179.22 570.462 3177.86 571.579 3176.15 572.138 3174.07 572.138 3171.34 572.138 3169.2 571.158 3167.65 569.199 3165.79 566.826 3164.85 562.976 3164.85 557.649ZM3168.42 557.649C3168.42 562.318 3168.96 565.422 3170.05 566.96 3171.13 568.499 3172.47 569.268 3174.07 569.268 3175.67 569.268 3177.02 568.495 3178.1 566.949 3179.18 565.403 3179.72 562.303 3179.72 557.649 3179.72 552.98 3179.18 549.877 3178.1 548.339 3177.02 546.8 3175.66 546.031 3174.03 546.031 3172.44 546.031 3171.17 546.705 3170.21 548.052 3169.02 549.781 3168.42 552.98 3168.42 557.649Z" fill="#262626" fill-rule="evenodd"/><path d="M3139.48 457.187 3136.02 457.462C3135.72 456.085 3135.27 455.089 3134.69 454.477 3133.76 453.482 3132.61 452.985 3131.24 452.985 3130.13 452.985 3129.15 453.291 3128.31 453.903 3127.21 454.714 3126.35 455.885 3125.73 457.416 3125.1 458.947 3124.78 461.136 3124.74 463.983 3125.58 462.713 3126.61 461.768 3127.81 461.148 3129.01 460.528 3130.28 460.218 3131.61 460.218 3133.92 460.218 3135.9 461.071 3137.53 462.778 3139.16 464.484 3139.98 466.693 3139.98 469.402 3139.98 471.193 3139.59 472.854 3138.82 474.385 3138.05 475.916 3137 477.087 3135.67 477.898 3134.33 478.709 3132.81 479.115 3131.1 479.115 3128.22 479.115 3125.87 478.047 3124.04 475.912 3122.21 473.776 3121.29 470.252 3121.29 465.338 3121.29 459.858 3122.3 455.87 3124.31 453.375 3126.08 451.202 3128.46 450.115 3131.45 450.115 3133.67 450.115 3135.5 450.742 3136.91 451.997 3138.33 453.253 3139.19 454.982 3139.48 457.187ZM3125.29 469.425C3125.29 470.634 3125.55 471.786 3126.05 472.881 3126.55 473.975 3127.26 474.81 3128.18 475.384 3129.09 475.958 3130.05 476.245 3131.06 476.245 3132.52 476.245 3133.78 475.652 3134.83 474.465 3135.88 473.279 3136.41 471.668 3136.41 469.632 3136.41 467.657 3135.89 466.107 3134.85 464.982 3133.82 463.857 3132.51 463.294 3130.92 463.294 3129.35 463.294 3128.02 463.857 3126.93 464.982 3125.84 466.107 3125.29 467.588 3125.29 469.425ZM3148.48 463.225C3147.05 462.705 3145.99 461.951 3145.29 460.964 3144.6 459.977 3144.25 458.802 3144.25 457.439 3144.25 455.373 3144.99 453.635 3146.47 452.227 3147.95 450.819 3149.92 450.115 3152.37 450.115 3154.84 450.115 3156.83 450.834 3158.33 452.273 3159.83 453.712 3160.58 455.465 3160.58 457.531 3160.58 458.848 3160.24 459.996 3159.55 460.975 3158.87 461.955 3157.82 462.705 3156.42 463.225 3158.16 463.792 3159.48 464.71 3160.39 465.981 3161.3 467.251 3161.75 468.759 3161.75 470.504 3161.75 472.938 3160.9 474.982 3159.19 476.635 3157.48 478.288 3155.23 479.115 3152.44 479.115 3149.63 479.115 3147.38 478.284 3145.67 476.624 3143.96 474.963 3143.11 472.892 3143.11 470.412 3143.11 468.575 3143.57 467.033 3144.5 465.786 3145.43 464.538 3146.76 463.685 3148.48 463.225ZM3147.8 457.324C3147.8 458.672 3148.23 459.77 3149.09 460.619 3149.95 461.469 3151.07 461.894 3152.44 461.894 3153.78 461.894 3154.88 461.469 3155.73 460.619 3156.59 459.77 3157.01 458.733 3157.01 457.508 3157.01 456.238 3156.58 455.166 3155.7 454.293 3154.82 453.421 3153.73 452.985 3152.42 452.985 3151.09 452.985 3149.99 453.41 3149.11 454.259 3148.23 455.108 3147.8 456.13 3147.8 457.324ZM3146.68 470.435C3146.68 471.43 3146.91 472.395 3147.38 473.328 3147.86 474.262 3148.55 474.982 3149.48 475.487 3150.4 475.992 3151.4 476.245 3152.46 476.245 3154.12 476.245 3155.5 475.709 3156.58 474.637 3157.66 473.566 3158.2 472.203 3158.2 470.55 3158.2 468.866 3157.65 467.477 3156.53 466.383 3155.42 465.288 3154.03 464.741 3152.35 464.741 3150.72 464.741 3149.36 465.284 3148.29 466.371 3147.21 467.458 3146.68 468.813 3146.68 470.435ZM3164.85 464.626C3164.85 461.274 3165.2 458.572 3165.88 456.521 3166.57 454.469 3167.59 452.889 3168.95 451.779 3170.31 450.669 3172.01 450.115 3174.07 450.115 3175.6 450.115 3176.93 450.421 3178.08 451.033 3179.22 451.645 3180.16 452.53 3180.91 453.685 3181.66 454.841 3182.24 456.249 3182.66 457.91 3183.08 459.571 3183.29 461.81 3183.29 464.626 3183.29 467.963 3182.95 470.653 3182.27 472.697 3181.59 474.741 3180.58 476.321 3179.22 477.439 3177.86 478.556 3176.15 479.115 3174.07 479.115 3171.34 479.115 3169.2 478.135 3167.65 476.176 3165.79 473.803 3164.85 469.953 3164.85 464.626ZM3168.42 464.626C3168.42 469.295 3168.96 472.398 3170.05 473.937 3171.13 475.475 3172.47 476.245 3174.07 476.245 3175.67 476.245 3177.02 475.471 3178.1 473.926 3179.18 472.379 3179.72 469.28 3179.72 464.626 3179.72 459.957 3179.18 456.854 3178.1 455.315 3177.02 453.777 3175.66 453.008 3174.03 453.008 3172.44 453.008 3171.17 453.681 3170.21 455.028 3169.02 456.758 3168.42 459.957 3168.42 464.626Z" fill="#262626" fill-rule="evenodd"/><path d="M3139.48 363.164 3136.02 363.439C3135.72 362.062 3135.27 361.067 3134.69 360.454 3133.76 359.459 3132.61 358.962 3131.24 358.962 3130.13 358.962 3129.15 359.268 3128.31 359.88 3127.21 360.691 3126.35 361.862 3125.73 363.394 3125.1 364.924 3124.78 367.113 3124.74 369.96 3125.58 368.69 3126.61 367.745 3127.81 367.125 3129.01 366.505 3130.28 366.195 3131.61 366.195 3133.92 366.195 3135.9 367.048 3137.53 368.755 3139.16 370.461 3139.98 372.67 3139.98 375.379 3139.98 377.17 3139.59 378.831 3138.82 380.362 3138.05 381.893 3137 383.064 3135.67 383.875 3134.33 384.686 3132.81 385.092 3131.1 385.092 3128.22 385.092 3125.87 384.024 3124.04 381.889 3122.21 379.753 3121.29 376.229 3121.29 371.315 3121.29 365.835 3122.3 361.847 3124.31 359.352 3126.08 357.179 3128.46 356.092 3131.45 356.092 3133.67 356.092 3135.5 356.719 3136.91 357.974 3138.33 359.23 3139.19 360.959 3139.48 363.164ZM3125.29 375.402C3125.29 376.612 3125.55 377.764 3126.05 378.858 3126.55 379.952 3127.26 380.787 3128.18 381.361 3129.09 381.935 3130.05 382.222 3131.06 382.222 3132.52 382.222 3133.78 381.629 3134.83 380.442 3135.88 379.256 3136.41 377.645 3136.41 375.609 3136.41 373.634 3135.89 372.084 3134.85 370.959 3133.82 369.834 3132.51 369.271 3130.92 369.271 3129.35 369.271 3128.02 369.834 3126.93 370.959 3125.84 372.084 3125.29 373.565 3125.29 375.402ZM3143.68 378.043 3147 377.721C3147.29 379.298 3147.83 380.442 3148.63 381.154 3149.43 381.866 3150.46 382.222 3151.71 382.222 3152.77 382.222 3153.71 381.977 3154.51 381.487 3155.31 380.997 3155.97 380.343 3156.49 379.524 3157.01 378.705 3157.44 377.599 3157.78 376.206 3158.12 374.813 3158.29 373.389 3158.29 371.935 3158.29 371.782 3158.29 371.552 3158.27 371.246 3157.59 372.348 3156.64 373.248 3155.44 373.944 3154.23 374.641 3152.93 374.989 3151.52 374.989 3149.18 374.989 3147.19 374.136 3145.58 372.429 3143.96 370.722 3143.15 368.476 3143.15 365.69 3143.15 362.796 3144 360.474 3145.69 358.721 3147.38 356.968 3149.5 356.092 3152.05 356.092 3153.88 356.092 3155.56 356.589 3157.08 357.584 3158.61 358.579 3159.77 359.995 3160.56 361.832 3161.35 363.669 3161.75 366.332 3161.75 369.823 3161.75 373.45 3161.36 376.34 3160.57 378.49 3159.79 380.641 3158.62 382.279 3157.07 383.404 3155.52 384.529 3153.71 385.092 3151.62 385.092 3149.4 385.092 3147.6 384.476 3146.2 383.243 3144.79 382.011 3143.95 380.278 3143.68 378.043ZM3157.88 365.506C3157.88 363.5 3157.35 361.912 3156.29 360.741 3155.23 359.57 3153.96 358.985 3152.46 358.985 3150.92 358.985 3149.58 359.616 3148.44 360.879 3147.29 362.142 3146.72 363.784 3146.72 365.804 3146.72 367.611 3147.26 369.077 3148.35 370.201 3149.43 371.327 3150.77 371.889 3152.37 371.889 3153.99 371.889 3155.31 371.327 3156.34 370.201 3157.37 369.077 3157.88 367.511 3157.88 365.506ZM3164.85 370.603C3164.85 367.251 3165.2 364.549 3165.88 362.498 3166.57 360.446 3167.59 358.866 3168.95 357.756 3170.31 356.647 3172.01 356.092 3174.07 356.092 3175.6 356.092 3176.93 356.398 3178.08 357.01 3179.22 357.622 3180.16 358.507 3180.91 359.662 3181.66 360.818 3182.24 362.226 3182.66 363.887 3183.08 365.548 3183.29 367.787 3183.29 370.603 3183.29 373.94 3182.95 376.63 3182.27 378.674 3181.59 380.718 3180.58 382.298 3179.22 383.416 3177.86 384.533 3176.15 385.092 3174.07 385.092 3171.34 385.092 3169.2 384.112 3167.65 382.153 3165.79 379.78 3164.85 375.93 3164.85 370.603ZM3168.42 370.603C3168.42 375.272 3168.96 378.376 3170.05 379.914 3171.13 381.453 3172.47 382.222 3174.07 382.222 3175.67 382.222 3177.02 381.449 3178.1 379.903 3179.18 378.357 3179.72 375.257 3179.72 370.603 3179.72 365.934 3179.18 362.831 3178.1 361.292 3177.02 359.754 3175.66 358.985 3174.03 358.985 3172.44 358.985 3171.17 359.658 3170.21 361.005 3169.02 362.735 3168.42 365.934 3168.42 370.603Z" fill="#262626" fill-rule="evenodd"/><path d="M3121.29 265.903 3121.29 262.551 3139.73 262.551 3139.73 265.26C3137.9 267.189 3136.1 269.749 3134.32 272.941 3132.54 276.132 3131.17 279.412 3130.2 282.78 3129.51 285.153 3129.06 287.755 3128.87 290.587L3125.27 290.587C3125.31 288.352 3125.74 285.654 3126.59 282.493 3127.43 279.332 3128.64 276.282 3130.21 273.343 3131.78 270.403 3133.46 267.924 3135.24 265.903L3121.29 265.903ZM3142.9 276.58C3142.9 273.228 3143.25 270.526 3143.94 268.475 3144.63 266.424 3145.66 264.843 3147.02 263.733 3148.39 262.624 3150.11 262.069 3152.18 262.069 3153.71 262.069 3155.05 262.375 3156.21 262.987 3157.36 263.599 3158.31 264.483 3159.06 265.639 3159.81 266.795 3160.4 268.203 3160.82 269.864 3161.24 271.525 3161.45 273.764 3161.45 276.58 3161.45 279.917 3161.11 282.607 3160.43 284.651 3159.75 286.695 3158.72 288.275 3157.36 289.393 3155.99 290.51 3154.26 291.069 3152.18 291.069 3149.43 291.069 3147.27 290.089 3145.71 288.13 3143.84 285.757 3142.9 281.907 3142.9 276.58ZM3146.49 276.58C3146.49 281.249 3147.04 284.353 3148.13 285.891 3149.22 287.43 3150.57 288.199 3152.18 288.199 3153.79 288.199 3155.14 287.426 3156.23 285.88 3157.32 284.334 3157.86 281.234 3157.86 276.58 3157.86 271.911 3157.32 268.808 3156.23 267.269 3155.14 265.731 3153.77 264.961 3152.13 264.961 3150.54 264.961 3149.25 265.635 3148.29 266.982 3147.09 268.712 3146.49 271.911 3146.49 276.58ZM3164.74 276.58C3164.74 273.228 3165.09 270.526 3165.78 268.475 3166.47 266.424 3167.49 264.843 3168.86 263.733 3170.23 262.624 3171.95 262.069 3174.02 262.069 3175.55 262.069 3176.89 262.375 3178.04 262.987 3179.2 263.599 3180.15 264.483 3180.9 265.639 3181.65 266.795 3182.24 268.203 3182.66 269.864 3183.08 271.525 3183.29 273.764 3183.29 276.58 3183.29 279.917 3182.95 282.607 3182.27 284.651 3181.59 286.695 3180.56 288.275 3179.2 289.393 3177.83 290.51 3176.1 291.069 3174.02 291.069 3171.27 291.069 3169.11 290.089 3167.55 288.13 3165.68 285.757 3164.74 281.907 3164.74 276.58ZM3168.33 276.58C3168.33 281.249 3168.88 284.353 3169.97 285.891 3171.06 287.43 3172.41 288.199 3174.02 288.199 3175.63 288.199 3176.98 287.426 3178.07 285.88 3179.16 284.334 3179.7 281.234 3179.7 276.58 3179.7 271.911 3179.16 268.808 3178.07 267.269 3176.98 265.731 3175.61 264.961 3173.97 264.961 3172.37 264.961 3171.09 265.635 3170.13 266.982 3168.93 268.712 3168.33 271.911 3168.33 276.58Z" fill="#262626" fill-rule="evenodd"/><path d="M3121.29 171.88 3121.29 168.528 3139.73 168.528 3139.73 171.237C3137.9 173.166 3136.1 175.726 3134.32 178.918 3132.54 182.109 3131.17 185.389 3130.2 188.757 3129.51 191.129 3129.06 193.732 3128.87 196.564L3125.27 196.564C3125.31 194.329 3125.74 191.631 3126.59 188.47 3127.43 185.309 3128.64 182.259 3130.21 179.32 3131.78 176.38 3133.46 173.901 3135.24 171.88L3121.29 171.88ZM3156.07 196.564 3152.57 196.564 3152.57 174.337C3151.72 175.148 3150.62 175.952 3149.25 176.748 3147.89 177.544 3146.66 178.141 3145.57 178.539L3145.57 175.164C3147.54 174.26 3149.25 173.154 3150.7 171.846 3152.16 170.537 3153.2 169.27 3153.81 168.046L3156.07 168.046 3156.07 196.564ZM3164.74 182.557C3164.74 179.205 3165.09 176.503 3165.78 174.452 3166.47 172.401 3167.49 170.82 3168.86 169.71 3170.23 168.601 3171.95 168.046 3174.02 168.046 3175.55 168.046 3176.89 168.352 3178.04 168.964 3179.2 169.576 3180.15 170.46 3180.9 171.616 3181.65 172.772 3182.24 174.18 3182.66 175.841 3183.08 177.502 3183.29 179.741 3183.29 182.557 3183.29 185.894 3182.95 188.585 3182.27 190.628 3181.59 192.672 3180.56 194.252 3179.2 195.37 3177.83 196.487 3176.1 197.046 3174.02 197.046 3171.27 197.046 3169.11 196.066 3167.55 194.107 3165.68 191.734 3164.74 187.884 3164.74 182.557ZM3168.33 182.557C3168.33 187.226 3168.88 190.33 3169.97 191.868 3171.06 193.406 3172.41 194.176 3174.02 194.176 3175.63 194.176 3176.98 193.403 3178.07 191.856 3179.16 190.311 3179.7 187.211 3179.7 182.557 3179.7 177.888 3179.16 174.785 3178.07 173.246 3176.98 171.708 3175.61 170.938 3173.97 170.938 3172.37 170.938 3171.09 171.612 3170.13 172.959 3168.93 174.689 3168.33 177.888 3168.33 182.557Z" fill="#262626" fill-rule="evenodd"/><path d="M3105.7 748.784 3102.18 749.197C3102.4 748.387 3102.5 747.676 3102.5 747.064 3102.5 746.223 3102.37 745.555 3102.09 745.058 3101.81 744.561 3101.42 744.152 3100.92 743.831 3100.55 743.602 3099.63 743.22 3098.14 742.685 3097.93 742.623 3097.62 742.516 3097.22 742.363L3075.09 750.733 3075.09 746.697 3087.88 742.111C3089.5 741.515 3091.21 740.98 3093 740.506 3091.27 740.078 3089.59 739.566 3087.97 738.97L3075.09 734.246 3075.09 730.508 3097.54 738.901C3099.98 739.803 3101.65 740.506 3102.57 741.011 3103.8 741.668 3104.7 742.428 3105.28 743.292 3105.86 744.156 3106.15 745.184 3106.15 746.376 3106.15 747.095 3106 747.898 3105.7 748.784ZM3088.01 728.559 3084.25 728.559 3084.25 717.071 3088.01 717.071 3088.01 728.559ZM3105.65 712.789 3075.09 712.789 3075.09 709.372 3077.96 709.372C3076.82 708.562 3075.98 707.653 3075.42 706.644 3074.86 705.635 3074.58 704.412 3074.58 702.975 3074.58 701.094 3075.07 699.432 3076.04 697.987 3077.01 696.543 3078.38 695.454 3080.15 694.72 3081.92 693.986 3083.86 693.619 3085.97 693.619 3088.22 693.619 3090.25 694.024 3092.07 694.835 3093.88 695.645 3095.27 696.822 3096.24 698.366 3097.2 699.91 3097.68 701.538 3097.68 703.25 3097.68 704.488 3097.42 705.604 3096.89 706.598 3096.36 707.592 3095.69 708.409 3094.88 709.051L3105.65 709.051 3105.65 712.789ZM3086.25 709.395C3089.09 709.395 3091.2 708.818 3092.56 707.664 3093.92 706.51 3094.6 705.123 3094.6 703.502 3094.6 701.836 3093.9 700.41 3092.49 699.226 3091.08 698.041 3088.9 697.449 3085.95 697.449 3083.13 697.449 3081.02 698.026 3079.62 699.18 3078.22 700.334 3077.52 701.714 3077.52 703.319 3077.52 704.924 3078.26 706.338 3079.75 707.561 3081.23 708.784 3083.4 709.395 3086.25 709.395ZM3086.13 690.241C3082.03 690.241 3079 689.109 3077.04 686.847 3075.4 684.951 3074.58 682.635 3074.58 679.898 3074.58 676.872 3075.58 674.395 3077.57 672.469 3079.56 670.543 3082.3 669.58 3085.81 669.58 3088.66 669.58 3090.9 670.004 3092.53 670.853 3094.16 671.701 3095.42 672.939 3096.33 674.567 3097.23 676.195 3097.68 677.972 3097.68 679.898 3097.68 682.987 3096.69 685.482 3094.71 687.385 3092.73 689.289 3089.87 690.241 3086.13 690.241ZM3086.13 686.411C3088.96 686.411 3091.08 685.792 3092.49 684.554 3093.9 683.315 3094.6 681.764 3094.6 679.898 3094.6 678.049 3093.9 676.505 3092.48 675.267 3091.06 674.029 3088.9 673.409 3085.99 673.409 3083.27 673.409 3081.2 674.032 3079.79 675.278 3078.39 676.524 3077.68 678.064 3077.68 679.898 3077.68 681.764 3078.38 683.315 3079.78 684.554 3081.18 685.792 3083.3 686.411 3086.13 686.411ZM3090.59 666.431 3089.99 662.739C3091.47 662.525 3092.61 661.944 3093.41 660.996 3094.21 660.048 3094.6 658.718 3094.6 657.006 3094.6 655.294 3094.25 654.021 3093.55 653.188 3092.84 652.355 3092.02 651.938 3091.07 651.938 3090.23 651.938 3089.56 652.305 3089.07 653.039 3088.75 653.559 3088.33 654.835 3087.81 656.868 3087.12 659.605 3086.52 661.504 3086.02 662.567 3085.51 663.629 3084.81 664.436 3083.92 664.986 3083.02 665.536 3082.03 665.811 3080.94 665.811 3079.96 665.811 3079.05 665.586 3078.21 665.135 3077.37 664.684 3076.67 664.069 3076.12 663.289 3075.69 662.708 3075.33 661.917 3075.03 660.916 3074.73 659.914 3074.58 658.833 3074.58 657.671 3074.58 655.944 3074.83 654.426 3075.33 653.119 3075.83 651.812 3076.5 650.845 3077.36 650.218 3078.22 649.592 3079.36 649.164 3080.78 648.934L3081.29 652.58C3080.14 652.749 3079.25 653.23 3078.61 654.025 3077.98 654.82 3077.66 655.951 3077.66 657.419 3077.66 659.131 3077.94 660.354 3078.51 661.088 3079.07 661.821 3079.74 662.188 3080.51 662.188 3081 662.188 3081.43 662.036 3081.81 661.73 3082.21 661.424 3082.55 660.95 3082.83 660.308 3082.96 659.926 3083.28 658.817 3083.77 656.983 3084.49 654.338 3085.07 652.496 3085.51 651.457 3085.96 650.417 3086.61 649.599 3087.48 649.003 3088.34 648.407 3089.41 648.109 3090.68 648.109 3091.93 648.109 3093.11 648.472 3094.21 649.198 3095.32 649.924 3096.17 650.971 3096.77 652.34 3097.38 653.708 3097.68 655.256 3097.68 656.983 3097.68 659.857 3097.08 662.047 3095.89 663.553 3094.7 665.058 3092.93 666.018 3090.59 666.431ZM3070.98 643.408 3066.66 643.408 3066.66 639.67 3070.98 639.67 3070.98 643.408ZM3097.18 643.408 3075.09 643.408 3075.09 639.67 3097.18 639.67 3097.18 643.408ZM3093.82 625.687 3097.13 625.16C3097.36 626.215 3097.47 627.155 3097.47 627.981 3097.47 629.341 3097.26 630.396 3096.82 631.145 3096.38 631.894 3095.82 632.421 3095.12 632.727 3094.42 633.033 3092.95 633.186 3090.7 633.186L3077.98 633.186 3077.98 635.914 3075.09 635.914 3075.09 633.186 3069.6 633.186 3067.35 629.471 3075.09 629.471 3075.09 625.687 3077.98 625.687 3077.98 629.471 3090.91 629.471C3091.98 629.471 3092.67 629.402 3092.97 629.265 3093.28 629.127 3093.52 628.909 3093.7 628.611 3093.87 628.313 3093.96 627.889 3093.96 627.339 3093.96 626.926 3093.92 626.375 3093.82 625.687ZM3070.98 621.899 3066.66 621.899 3066.66 618.161 3070.98 618.161 3070.98 621.899ZM3097.18 621.899 3075.09 621.899 3075.09 618.161 3097.18 618.161 3097.18 621.899ZM3086.13 613.74C3082.03 613.74 3079 612.609 3077.04 610.347 3075.4 608.451 3074.58 606.135 3074.58 603.399 3074.58 600.372 3075.58 597.896 3077.57 595.969 3079.56 594.043 3082.3 593.08 3085.81 593.08 3088.66 593.08 3090.9 593.504 3092.53 594.352 3094.16 595.201 3095.42 596.439 3096.33 598.068 3097.23 599.696 3097.68 601.473 3097.68 603.399 3097.68 606.487 3096.69 608.983 3094.71 610.886 3092.73 612.789 3089.87 613.74 3086.13 613.74ZM3086.13 609.911C3088.96 609.911 3091.08 609.292 3092.49 608.054 3093.9 606.815 3094.6 605.264 3094.6 603.399 3094.6 601.549 3093.9 600.005 3092.48 598.767 3091.06 597.528 3088.9 596.909 3085.99 596.909 3083.27 596.909 3081.2 597.532 3079.79 598.778 3078.39 600.024 3077.68 601.564 3077.68 603.399 3077.68 605.264 3078.38 606.815 3079.78 608.054 3081.18 609.292 3083.3 609.911 3086.13 609.911ZM3097.18 588.44 3075.09 588.44 3075.09 585.069 3078.21 585.069C3075.79 583.449 3074.58 581.11 3074.58 578.052 3074.58 576.722 3074.82 575.5 3075.29 574.384 3075.77 573.268 3076.4 572.431 3077.18 571.873 3077.96 571.315 3078.88 570.929 3079.95 570.715 3080.64 570.577 3081.85 570.508 3083.58 570.508L3097.18 570.508 3097.18 574.246 3083.74 574.246C3082.21 574.246 3081.07 574.391 3080.31 574.682 3079.55 574.972 3078.95 575.488 3078.5 576.229 3078.05 576.971 3077.82 577.838 3077.82 578.832 3077.82 580.422 3078.32 581.798 3079.33 582.96 3080.35 584.121 3082.27 584.702 3085.1 584.702L3097.18 584.702 3097.18 588.44ZM3106.15 545.409C3103.54 547.473 3100.48 549.22 3096.98 550.649 3093.48 552.078 3089.87 552.793 3086.13 552.793 3082.83 552.793 3079.66 552.258 3076.65 551.188 3073.13 549.934 3069.63 548.008 3066.15 545.409L3066.15 542.727C3069.03 544.408 3071.09 545.516 3072.33 546.051 3074.24 546.892 3076.24 547.557 3078.32 548.046 3080.91 548.642 3083.52 548.941 3086.15 548.941 3092.83 548.941 3099.5 546.869 3106.15 542.727L3106.15 545.409ZM3097.18 538.238 3075.09 538.238 3075.09 534.89 3078.19 534.89C3077.1 534.187 3076.23 533.262 3075.57 532.116 3074.91 530.969 3074.58 529.662 3074.58 528.195 3074.58 526.559 3074.92 525.218 3075.6 524.17 3076.28 523.123 3077.23 522.386 3078.44 521.958 3075.87 520.215 3074.58 517.945 3074.58 515.147 3074.58 512.961 3075.19 511.279 3076.4 510.102 3077.61 508.925 3079.47 508.337 3082 508.337L3097.18 508.337 3097.18 512.052 3083.26 512.052C3081.76 512.052 3080.68 512.17 3080.02 512.407 3079.37 512.644 3078.83 513.083 3078.43 513.725 3078.02 514.367 3077.82 515.116 3077.82 515.972 3077.82 517.532 3078.34 518.824 3079.37 519.848 3080.4 520.872 3082.06 521.384 3084.34 521.384L3097.18 521.384 3097.18 525.122 3082.83 525.122C3081.16 525.122 3079.91 525.428 3079.07 526.039 3078.24 526.651 3077.82 527.644 3077.82 529.02 3077.82 530.075 3078.1 531.05 3078.66 531.944 3079.22 532.838 3080.03 533.488 3081.09 533.893 3082.16 534.298 3083.7 534.5 3085.72 534.5L3097.18 534.5 3097.18 538.238ZM3097.18 502.404 3075.09 502.404 3075.09 499.056 3078.19 499.056C3077.1 498.353 3076.23 497.428 3075.57 496.281 3074.91 495.135 3074.58 493.828 3074.58 492.36 3074.58 490.724 3074.92 489.383 3075.6 488.336 3076.28 487.289 3077.23 486.551 3078.44 486.123 3075.87 484.38 3074.58 482.11 3074.58 479.313 3074.58 477.126 3075.19 475.445 3076.4 474.268 3077.61 473.091 3079.47 472.502 3082 472.502L3097.18 472.502 3097.18 476.217 3083.26 476.217C3081.76 476.217 3080.68 476.335 3080.02 476.573 3079.37 476.809 3078.83 477.249 3078.43 477.891 3078.02 478.533 3077.82 479.282 3077.82 480.138 3077.82 481.697 3078.34 482.989 3079.37 484.013 3080.4 485.038 3082.06 485.55 3084.34 485.55L3097.18 485.55 3097.18 489.288 3082.83 489.288C3081.16 489.288 3079.91 489.593 3079.07 490.205 3078.24 490.816 3077.82 491.81 3077.82 493.186 3077.82 494.241 3078.1 495.215 3078.66 496.109 3079.22 497.004 3080.03 497.654 3081.09 498.059 3082.16 498.464 3083.7 498.666 3085.72 498.666L3097.18 498.666 3097.18 502.404ZM3106.15 464.116 3106.15 466.799C3099.5 462.656 3092.83 460.585 3086.15 460.585 3083.54 460.585 3080.95 460.883 3078.39 461.479 3076.31 461.937 3074.31 462.595 3072.4 463.451 3071.15 463.986 3069.06 465.102 3066.15 466.799L3066.15 464.116C3069.63 461.502 3073.13 459.576 3076.65 458.337 3079.66 457.267 3082.83 456.732 3086.13 456.732 3089.87 456.732 3093.48 457.451 3096.98 458.888 3100.48 460.325 3103.54 462.067 3106.15 464.116Z" fill="#262626" fill-rule="evenodd"/><path d="M3254 596.373 3255.98 600.083 3257.95 603.613 3259.91 605.759 3261.88 610.401 3263.8 616.07 3265.78 618.254 3267.76 622.348 3269.74 628.29 3271.66 633.366 3273.66 638.66 3275.61 643.737 3277.59 647.211 3279.57 653.647 3281.52 656.812 3283.47 660.578 3285.48 663.286 3287.43 669.782 3289.4 672.237 3291.38 674.39 3293.3 679.24 3295.31 683.61 3297.26 691.291 3299.24 694.722 3301.21 700.135 3303.25 706.497 3305.11 709.98 3307.09 715.666 3309.1 719.099 3311.05 722.607 3313.03 724.73 3314.98 728.096 3316.93 730.516 3318.87 736.78 3320.88 737.726 3322.83 744.728 3324.81 746.651 3326.76 752.631 3328.74 753.14 3330.71 753.541 3332.67 759.406 3334.67 764.5 3336.62 764.667 3338.57 758.739 3340.52 763.658 3342.5 763.164 3344.48 767.525 3346.45 766.243 3348.37 764.91 3350.41 760.018 3352.39 762.701 3354.31 761.995 3356.31 760.865 3358.26 756.584 3360.21 748.599 3362.16 747.018 3364.14 746.302 3366.12 748.684 3368.07 747.552 3370.02 751.083 3372.08 749.969 3373.95 748.156 3375.92 746.086 3377.93 742.167 3379.88 743.186 3381.86 745.192 3383.78 746.344 3385.79 742.852 3387.71 738.961 3389.71 738.623 3391.69 740.394 3393.64 740.111 3395.62 740.653 3397.57 742.885 3399.57 742.457 3401.5 745.156 3403.47 744.916 3405.42 746.864 3407.4 745.758 3409.38 744.899 3411.33 744.527 3413.34 743.064 3415.26 743.721 3417.21 746.707 3419.21 746.567 3421.19 744.747 3423.14 741.173 3425.12 739.305 3427.07 737.75 3429.07 736.484 3431 734.804 3432.97 732.225 3434.95 730.524 3436.93 727.388 3438.85 726.307 3440.83 723.833 3442.81 719.304 3444.78 716.352 3446.76 710.359 3448.71 707.115 3450.66 706.895 3452.67 701.843 3454.65 699.387 3456.6 696.764 3458.63 693.989 3460.49 690.536 3462.44 687.73 3464.48 684.145 3466.4 682.136 3468.43 680.755 3470.35 680.003 3472.31 677.865 3474.29 677.315 3476.24 673.92 3478.21 671.791 3480.22 670.014 3482.14 668.839 3484.11 668.664 3486.1 668.074 3488.05 669.953 3490.02 667.407 3492 670.29 3493.95 670.261 3495.91 669.701 3497.84 668.101 3499.97 667.829 3501.81 668.075 3503.78 667.531 3505.76 666.337 3507.71 666.398 3509.7 664.872 3511.63 665.116 3513.62 666.324 3515.6 665.72 3517.54 666.265 3519.52 665.067 3521.47 664.56 3523.46 663.774 3525.42 665.007 3527.38 664.443 3529.36 662.837 3531.33 662.98 3533.28 662.221 3535.26 661.371 3537.23 661.652 3539.22 662.22 3541.17 662.145 3543.17 663.218 3545.09 661.971 3547.16 662.977 3549.03 662.811 3550.96 662.518 3552.98 664.016 3554.93 664.174 3556.91 664.507 3558.88 665.098 3560.86 664.906 3562.82 665.233 3564.78 664.85 3566.74 664.112 3568.72 663.269 3570.67 662.124 3572.64 663.15 3574.59 663.822 3576.62 664.332 3578.52 660.007 3580.53 666.08 3582.48 662.63 3584.42 660.435 3586.43 653.917 3588.38 656.509 3590.38 651.83 3592.31 658.215 3594.26 662.624 3596.24 661.507 3598.18 659.991 3600.16 656.038 3602.17 650.712 3604.13 646.151 3606.07 642.511 3608.02 632.441 3610.03 626.648 3611.97 625.219 3614.01 608.446 3615.91 598.619 3617.9 576.339 3619.86 568.767 3621.78 555.406 3623.76 536.504 3625.76 510.27 3627.68 506.182 3629.7 494.639 3631.65 498.266 3633.59 479.958 3635.57 479.507 3637.52 466.979 3639.49 468.652 3641.47 451.41 3643.46 448.097 3645.43 437.08 3647.41 432.586 3649.36 422.459 3651.34 422.266 3653.28 414.676 3655.24 407.921 3657.19 401.201 3659.16 397.143 3661.14 385.71 3663.09 375.576 3665.08 370.148 3667.01 361.283 3669 352.595 3670.98 341.045 3672.92 333.408 3674.9 323.75 3676.85 322.812 3678.87 310.43 3680.83 307.754 3682.76 293.316 3684.8 288.203 3686.68 285.733 3688.66 276.55 3690.64 260.399 3692.63 257.109 3694.57 250.526 3696.55 236.807 3698.5 240.44 3700.5 228.444 3702.45 232.78 3704.4 222.512 3706.36 224.383 3708.33 213.615 3710.31 217.787 3712.29 216.508 3714.26 222.124 3716.21 207.66 3718.2 207.866 3720.12 209.454 3722.09 204 3724.1 208.481 3726.08 210.674 3728.02 216.451 3729.97 218.825 3731.93 224.716 3733.89 225.884 3735.88 232.338 3737.86 231.87 3739.84 238.031 3741.78 244.67 3743.76 251.158 3745.75 257.346 3747.74 262.636 3749.64 270.055 3751.62 282.798 3753.59 292.385 3755.54 303.381 3757.52 315.847 3759.51 325.538 3761.42 338.665 3763.4 354.892 3765.38 367.276 3767.34 383.013 3769.36 400.368 3771.31 410.645 3773.3 426.434 3775.21 440.482 3777.16 451.185 3779.14 460.299 3781.11 469.812 3783.09 476.083 3785.05 483.322 3787.03 492.142 3789 497.224 3790.98 508.61 3792.93 519.453 3794.87 525.935 3796.91 531.515 3798.87 539.108 3800.8 548 3802.79 553.662 3804.71 557.635 3806.69 556.664 3808.66 557.213 3810.64 563.582 3812.63 560.724 3814.57 564.617 3816.55 565.69 3818.47 575.435 3820.48 570.303 3822.42 566.985 3824.41 576.255 3826.36 572.176 3828.33 569.367 3830.31 579.443 3832.29 583.585 3834.25 593.474 3836.24 595.789 3838.17 587.87 3840.12 595.957 3842.12 611.438 3844.07 610.711 3846.05 626.123 3848.01 625.825 3849.94 644.281 3851.93 645.107 3853.91 665.202 3855.88 660.939 3857.83 676.492 3859.81 693.303 3861.77 694.603 3863.76 719.92 3865.72 726.691 3867.7 734.281 3869.67 757.445 3871.59 774.648 3873.57 776.891 3875.53 800.01 3877.53 813.189 3879.48 823.025 3881.43 847.377 3883.43 844.718 3885.38 868.589 3887.39 875.511 3889.3 883.641 3891.29 897.161 3893.27 914.519 3895.22 919.478 3897.16 930.581 3899.14 951.696 3901.13 950.182 3903.06 963.143 3905.05 972 3907 971.643" stroke="#0072BD" stroke-width="1.9564" stroke-linejoin="round" stroke-miterlimit="10" fill="none" fill-rule="evenodd"/><path d="M3254 595.737 3255.98 595.737 3257.95 595.737 3259.91 595.737 3261.88 595.737 3263.8 595.737 3265.78 595.737 3267.76 595.737 3269.74 595.737 3271.66 595.737 3273.66 595.737 3275.61 595.737 3277.59 595.737 3279.57 595.737 3281.52 595.737 3283.47 595.737 3285.48 595.737 3287.43 595.737 3289.4 595.737 3291.38 595.737 3293.3 595.737 3295.31 595.737 3297.26 595.737 3299.24 595.737 3301.21 625.99 3303.25 625.99 3305.11 625.99 3307.09 625.99 3309.1 625.99 3311.05 625.99 3313.03 625.99 3314.98 625.99 3316.93 625.99 3318.87 625.99 3320.88 625.99 3322.83 625.99 3324.81 625.99 3326.76 625.99 3328.74 625.99 3330.71 625.99 3332.67 625.99 3334.67 625.99 3336.62 625.99 3338.57 625.99 3340.52 625.99 3342.5 625.99 3344.48 625.99 3346.45 625.99 3348.37 727.981 3350.41 727.981 3352.39 727.981 3354.31 727.981 3356.31 727.981 3358.26 727.981 3360.21 727.981 3362.16 727.981 3364.14 727.981 3366.12 727.981 3368.07 727.981 3370.02 727.981 3372.08 727.981 3373.95 727.981 3375.92 727.981 3377.93 785 3379.88 785 3381.86 785 3383.78 785 3385.79 785 3387.71 785 3389.71 785 3391.69 785 3393.64 785 3395.62 785 3397.57 785 3399.57 761.694 3401.5 761.694 3403.47 761.694 3405.42 761.694 3407.4 761.694 3409.38 761.694 3411.33 761.694 3413.34 761.694 3415.26 761.694 3417.21 761.694 3419.21 761.694 3421.19 761.694 3423.14 761.694 3425.12 761.694 3427.07 768.639 3429.07 768.639 3431 768.639 3432.97 768.639 3434.95 768.639 3436.93 768.639 3438.85 768.639 3440.83 768.639 3442.81 768.639 3444.78 768.639 3446.76 768.639 3448.71 768.639 3450.66 768.639 3452.67 768.639 3454.65 761.396 3456.6 761.396 3458.63 761.396 3460.49 761.396 3462.44 761.396 3464.48 761.396 3466.4 761.396 3468.43 761.396 3470.35 761.396 3472.31 761.396 3474.29 761.396 3476.24 761.396 3478.21 761.396 3480.22 761.396 3482.14 761.396 3484.11 761.396 3486.1 761.396 3488.05 761.396 3490.02 761.396 3492 761.396 3493.95 722.431 3495.91 722.431 3497.84 722.431 3499.97 722.431 3501.81 722.431 3503.78 722.431 3505.76 722.431 3507.71 722.431 3509.7 722.431 3511.63 722.431 3513.62 722.431 3515.6 722.431 3517.54 722.431 3519.52 722.431 3521.47 722.431 3523.46 722.431 3525.42 722.431 3527.38 722.431 3529.36 722.431 3531.33 722.431 3533.28 722.431 3535.26 722.431 3537.23 722.431 3539.22 722.431 3541.17 722.431 3543.17 694.402 3545.09 694.402 3547.16 694.402 3549.03 694.402 3550.96 694.402 3552.98 694.402 3554.93 694.402 3556.91 694.402 3558.88 694.402 3560.86 687.185 3562.82 687.185 3564.78 687.185 3566.74 687.371 3568.72 687.371 3570.67 687.371 3572.64 687.371 3574.59 687.371 3576.62 689.061 3578.52 689.061 3580.53 689.061 3582.48 689.061 3584.42 689.061 3586.43 685.964 3588.38 685.964 3590.38 688.5 3592.31 688.5 3594.26 688.5 3596.24 688.5 3598.18 688.5 3600.16 688.5 3602.17 688.5 3604.13 688.5 3606.07 688.5 3608.02 688.5 3610.03 688.5 3611.97 688.5 3614.01 676.29 3615.91 676.29 3617.9 676.29 3619.86 676.29 3621.78 676.29 3623.76 676.29 3625.76 676.29 3627.68 676.29 3629.7 676.29 3631.65 676.29 3633.59 676.29 3635.57 676.29 3637.52 676.29 3639.49 676.29 3641.47 676.29 3643.46 628.252 3645.43 628.252 3647.41 628.252 3649.36 628.252 3651.34 628.252 3653.28 628.252 3655.24 628.252 3657.19 628.252 3659.16 628.252 3661.14 628.252 3663.09 628.252 3665.08 628.252 3667.01 628.252 3669 628.252 3670.98 628.252 3672.92 628.252 3674.9 628.252 3676.85 628.252 3678.87 628.252 3680.83 479.958 3682.76 479.958 3684.8 479.958 3686.68 479.958 3688.66 479.958 3690.64 479.958 3692.63 479.958 3694.57 479.958 3696.55 479.958 3698.5 479.958 3700.5 479.958 3702.45 479.958 3704.4 479.958 3706.36 479.958 3708.33 479.958 3710.31 479.958 3712.29 323.461 3714.26 323.461 3716.21 323.461 3718.2 323.461 3720.12 323.461 3722.09 323.461 3724.1 323.461 3726.08 323.461 3728.02 323.461 3729.97 323.461 3731.93 323.461 3733.89 323.461 3735.88 323.461 3737.86 323.461 3739.84 240 3741.78 240 3743.76 240 3745.75 240 3747.74 240 3749.64 240 3751.62 240 3753.59 240 3755.54 240 3757.52 240 3759.51 240 3761.42 240 3763.4 240 3765.38 240 3767.34 279.148 3769.36 279.148 3771.31 279.148 3773.3 279.148 3775.21 279.148 3777.16 279.148 3779.14 279.148 3781.11 279.148 3783.09 279.148 3785.05 279.148 3787.03 279.148 3789 279.148 3790.98 409.95 3792.93 409.95 3794.87 409.95 3796.91 409.95 3798.87 409.95 3800.8 409.95 3802.79 409.95 3804.71 409.95 3806.69 409.95 3808.66 409.95 3810.64 409.95 3812.63 530.132 3814.57 530.132 3816.55 530.132 3818.47 530.132 3820.48 530.132 3822.42 530.132 3824.41 530.132 3826.36 530.132 3828.33 530.132 3830.31 530.132 3832.29 582.207 3834.25 582.207 3836.24 582.207 3838.17 582.207 3840.12 582.207 3842.12 582.207 3844.07 582.207 3846.05 582.207 3848.01 582.207 3849.94 582.207 3851.93 582.207 3853.91 582.207 3855.88 582.207 3857.83 582.207 3859.81 601.713 3861.77 601.713 3863.76 601.713 3865.72 601.713 3867.7 601.713 3869.67 601.713 3871.59 601.713 3873.57 601.713 3875.53 601.713 3877.53 601.713 3879.48 601.713 3881.43 601.713 3883.43 720.074 3885.38 720.074 3887.39 720.074 3889.3 720.074 3891.29 720.074 3893.27 720.074 3895.22 720.074 3897.16 720.074 3899.14 720.074 3901.13 720.074 3903.06 720.074 3905.05 720.074 3907 720.074" stroke="#D95319" stroke-width="1.9564" stroke-linejoin="round" stroke-miterlimit="10" fill="none" fill-rule="evenodd"/><path d="M3384.86 253.703 3384.53 250.868C3385.19 251.047 3385.76 251.136 3386.24 251.136 3386.9 251.136 3387.42 251.025 3387.82 250.801 3388.21 250.578 3388.53 250.265 3388.78 249.864 3388.97 249.566 3389.27 248.822 3389.68 247.632 3389.74 247.453 3389.83 247.208 3389.94 246.895L3383.32 229.06 3386.5 229.06 3390.14 239.373C3390.61 240.667 3391.03 242.036 3391.41 243.48 3391.75 242.096 3392.15 240.749 3392.62 239.44L3396.37 229.06 3399.32 229.06 3392.68 247.163C3391.97 249.112 3391.41 250.451 3391.02 251.181 3390.49 252.178 3389.89 252.907 3389.21 253.368 3388.53 253.83 3387.72 254.06 3386.77 254.06 3386.2 254.06 3385.56 253.941 3384.86 253.703Z" fill-rule="evenodd"/><path d="M3411.03 259.489 3413.33 259.807C3413.08 261.446 3412.44 262.732 3411.4 263.666 3410.37 264.599 3409.09 265.066 3407.58 265.066 3405.7 265.066 3404.19 264.424 3403.04 263.142 3401.9 261.86 3401.33 260.02 3401.33 257.622 3401.33 256.075 3401.57 254.72 3402.06 253.559 3402.55 252.398 3403.3 251.526 3404.31 250.942 3405.32 250.358 3406.42 250.065 3407.6 250.065 3409.1 250.065 3410.33 250.46 3411.27 251.249 3412.22 252.038 3412.83 253.161 3413.11 254.618L3410.84 254.982C3410.62 254.011 3410.23 253.282 3409.68 252.797 3409.12 252.311 3408.46 252.069 3407.69 252.069 3406.51 252.069 3405.55 252.509 3404.81 253.389 3404.08 254.269 3403.71 255.657 3403.71 257.554 3403.71 259.481 3404.07 260.881 3404.78 261.754 3405.5 262.626 3406.42 263.063 3407.56 263.063 3408.48 263.063 3409.24 262.77 3409.85 262.186 3410.46 261.602 3410.86 260.703 3411.03 259.489Z" fill-rule="evenodd"/><path d="M3256 241 3373 241" stroke="#0072BD" stroke-width="1.9564" stroke-linejoin="round" stroke-miterlimit="10" fill="none" fill-rule="evenodd"/><path d="M3384.86 317.707 3384.53 314.758C3385.19 314.944 3385.76 315.037 3386.24 315.037 3386.9 315.037 3387.42 314.921 3387.82 314.689 3388.21 314.457 3388.53 314.132 3388.78 313.714 3388.97 313.405 3389.27 312.63 3389.68 311.393 3389.74 311.207 3389.83 310.952 3389.94 310.626L3383.32 292.078 3386.5 292.078 3390.14 302.803C3390.61 304.15 3391.03 305.573 3391.41 307.074 3391.75 305.635 3392.15 304.235 3392.62 302.873L3396.37 292.078 3399.32 292.078 3392.68 310.905C3391.97 312.933 3391.41 314.325 3391.02 315.084 3390.49 316.12 3389.89 316.879 3389.21 317.359 3388.53 317.838 3387.72 318.078 3386.77 318.078 3386.2 318.078 3385.56 317.954 3384.86 317.707Z" fill-rule="evenodd"/><path d="M3401.35 328.083 3401.35 313.408 3403.59 313.408 3403.59 315.641C3404.16 314.602 3404.69 313.916 3405.18 313.583 3405.66 313.249 3406.19 313.083 3406.78 313.083 3407.62 313.083 3408.48 313.354 3409.35 313.897L3408.49 316.199C3407.88 315.842 3407.27 315.664 3406.64 315.664 3406.1 315.664 3405.61 315.827 3405.19 316.152 3404.76 316.478 3404.45 316.928 3404.27 317.501 3403.99 318.385 3403.85 319.354 3403.85 320.408L3403.85 328.083 3401.35 328.083Z" fill-rule="evenodd"/><path d="M3256 304 3373 304" stroke="#D95319" stroke-width="1.9564" stroke-linejoin="round" stroke-miterlimit="10" fill="none" fill-rule="evenodd"/></g></svg>