<svg width="889" height="980" xmlns="http://www.w3.org/2000/svg" xmlns:xlink="http://www.w3.org/1999/xlink" xml:space="preserve" overflow="hidden"><g transform="translate(-213 -203)"><path d="M370 1061 1076 1061 1076 216 370 216Z" fill="#FFFFFF" fill-rule="evenodd"/><path d="M370 1061 1076 1061" stroke="#262626" stroke-width="1.9564" stroke-linecap="square" stroke-linejoin="round" stroke-miterlimit="10" fill="none" fill-rule="evenodd"/><path d="M370 216 1076 216" stroke="#262626" stroke-width="1.9564" stroke-linecap="square" stroke-linejoin="round" stroke-miterlimit="10" fill="none" fill-rule="evenodd"/><path d="M370 1061 370 1052" stroke="#262626" stroke-width="1.9564" stroke-linecap="square" stroke-linejoin="round" stroke-miterlimit="10" fill="none" fill-rule="evenodd"/><path d="M511 1061 511 1052" stroke="#262626" stroke-width="1.9564" stroke-linecap="square" stroke-linejoin="round" stroke-miterlimit="10" fill="none" fill-rule="evenodd"/><path d="M653 1061 653 1052" stroke="#262626" stroke-width="1.9564" stroke-linecap="square" stroke-linejoin="round" stroke-miterlimit="10" fill="none" fill-rule="evenodd"/><path d="M794 1061 794 1052" stroke="#262626" stroke-width="1.9564" stroke-linecap="square" stroke-linejoin="round" stroke-miterlimit="10" fill="none" fill-rule="evenodd"/><path d="M935 1061 935 1052" stroke="#262626" stroke-width="1.9564" stroke-linecap="square" stroke-linejoin="round" stroke-miterlimit="10" fill="none" fill-rule="evenodd"/><path d="M1076 1061 1076 1052" stroke="#262626" stroke-width="1.9564" stroke-linecap="square" stroke-linejoin="round" stroke-miterlimit="10" fill="none" fill-rule="evenodd"/><path d="M370 216 370 224" stroke="#262626" stroke-width="1.9564" stroke-linecap="square" stroke-linejoin="round" stroke-miterlimit="10" fill="none" fill-rule="evenodd"/><path d="M511 216 511 224" stroke="#262626" stroke-width="1.9564" stroke-linecap="square" stroke-linejoin="round" stroke-miterlimit="10" fill="none" fill-rule="evenodd"/><path d="M653 216 653 224" stroke="#262626" stroke-width="1.9564" stroke-linecap="square" stroke-linejoin="round" stroke-miterlimit="10" fill="none" fill-rule="evenodd"/><path d="M794 216 794 224" stroke="#262626" stroke-width="1.9564" stroke-linecap="square" stroke-linejoin="round" stroke-miterlimit="10" fill="none" fill-rule="evenodd"/><path d="M935 216 935 224" stroke="#262626" stroke-width="1.9564" stroke-linecap="square" stroke-linejoin="round" stroke-miterlimit="10" fill="none" fill-rule="evenodd"/><path d="M1076 216 1076 224" stroke="#262626" stroke-width="1.9564" stroke-linecap="square" stroke-linejoin="round" stroke-miterlimit="10" fill="none" fill-rule="evenodd"/><path d="M379.065 1113.24 379.065 1116.54 361.066 1116.54C361.051 1115.71 361.183 1114.92 361.462 1114.17 361.917 1112.91 362.65 1111.67 363.662 1110.45 364.674 1109.23 366.134 1107.83 368.041 1106.23 370.989 1103.74 372.984 1101.77 374.026 1100.31 375.067 1098.86 375.588 1097.49 375.588 1096.2 375.588 1094.85 375.115 1093.71 374.169 1092.77 373.223 1091.84 371.987 1091.38 370.461 1091.38 368.862 1091.38 367.579 1091.87 366.611 1092.85 365.643 1093.84 365.151 1095.21 365.136 1096.97L361.704 1096.61C361.938 1093.98 362.822 1091.97 364.355 1090.6 365.888 1089.22 367.953 1088.54 370.55 1088.54 373.161 1088.54 375.225 1089.28 376.743 1090.76 378.262 1092.24 379.021 1094.07 379.021 1096.27 379.021 1097.4 378.797 1098.5 378.35 1099.57 377.902 1100.65 377.165 1101.78 376.138 1102.98 375.112 1104.17 373.395 1105.8 370.989 1107.88 368.98 1109.61 367.693 1110.78 367.128 1111.4 366.563 1112.01 366.09 1112.63 365.709 1113.24L379.065 1113.24Z" fill="#262626" fill-rule="evenodd"/><path d="M503.901 1113.71 503.901 1117.06 485.103 1117.06C485.088 1116.22 485.226 1115.42 485.517 1114.65 485.992 1113.37 486.758 1112.1 487.815 1110.86 488.872 1109.62 490.397 1108.19 492.388 1106.57 495.467 1104.03 497.551 1102.02 498.638 1100.54 499.726 1099.07 500.27 1097.67 500.27 1096.35 500.27 1094.97 499.776 1093.81 498.788 1092.86 497.8 1091.91 496.509 1091.44 494.916 1091.44 493.246 1091.44 491.905 1091.94 490.894 1092.94 489.883 1093.94 489.37 1095.34 489.355 1097.13L485.77 1096.77C486.015 1094.09 486.938 1092.05 488.539 1090.65 490.14 1089.25 492.296 1088.55 495.008 1088.55 497.735 1088.55 499.891 1089.3 501.477 1090.81 503.062 1092.31 503.855 1094.19 503.855 1096.42 503.855 1097.57 503.622 1098.69 503.154 1099.78 502.687 1100.88 501.917 1102.04 500.845 1103.25 499.772 1104.47 497.98 1106.13 495.467 1108.25 493.369 1110.01 492.024 1111.2 491.434 1111.83 490.844 1112.46 490.35 1113.08 489.952 1113.71L503.901 1113.71ZM509.32 1117.06 509.32 1113.09 513.295 1113.09 513.295 1117.06 509.32 1117.06ZM518.259 1109.62 521.913 1109.3C522.188 1111.09 522.82 1112.44 523.808 1113.33 524.796 1114.23 525.987 1114.68 527.382 1114.68 529.067 1114.68 530.491 1114.04 531.656 1112.78 532.82 1111.52 533.403 1109.84 533.403 1107.74 533.403 1105.75 532.843 1104.18 531.725 1103.03 530.606 1101.89 529.143 1101.31 527.336 1101.31 526.202 1101.31 525.183 1101.57 524.279 1102.08 523.376 1102.59 522.663 1103.26 522.142 1104.07L518.879 1103.63 521.637 1089.05 535.769 1089.05 535.769 1092.38 524.417 1092.38 522.878 1100C524.593 1098.82 526.386 1098.23 528.255 1098.23 530.737 1098.23 532.832 1099.09 534.54 1100.81 536.248 1102.52 537.102 1104.73 537.102 1107.44 537.102 1110.01 536.352 1112.23 534.85 1114.1 533.027 1116.4 530.538 1117.55 527.382 1117.55 524.793 1117.55 522.682 1116.82 521.051 1115.38 519.419 1113.93 518.488 1112.01 518.259 1109.62Z" fill="#262626" fill-rule="evenodd"/><path d="M643.14 1109.54 646.682 1109.08C647.104 1111.05 647.804 1112.47 648.781 1113.35 649.759 1114.22 650.959 1114.65 652.382 1114.65 654.055 1114.65 655.466 1114.09 656.616 1112.96 657.765 1111.82 658.34 1110.42 658.34 1108.73 658.34 1107.13 657.808 1105.81 656.745 1104.78 655.681 1103.74 654.321 1103.23 652.663 1103.23 651.991 1103.23 651.154 1103.35 650.153 1103.6L650.552 1100.54C650.787 1100.57 650.974 1100.59 651.115 1100.59 652.632 1100.59 654 1100.2 655.22 1099.43 656.44 1098.66 657.05 1097.46 657.05 1095.84 657.05 1094.57 656.608 1093.52 655.725 1092.67 654.841 1091.83 653.695 1091.41 652.288 1091.41 650.912 1091.41 649.763 1091.84 648.84 1092.69 647.917 1093.53 647.323 1094.82 647.057 1096.53L643.492 1095.91C643.93 1093.57 644.919 1091.76 646.459 1090.47 648 1089.19 649.919 1088.54 652.218 1088.54 653.797 1088.54 655.255 1088.88 656.592 1089.54 657.929 1090.21 658.95 1091.11 659.653 1092.26 660.357 1093.41 660.709 1094.62 660.709 1095.91 660.709 1097.15 660.373 1098.27 659.7 1099.27 659.028 1100.27 658.027 1101.07 656.698 1101.67 658.418 1102.05 659.755 1102.85 660.709 1104.08 661.663 1105.3 662.14 1106.83 662.14 1108.67 662.14 1111.14 661.213 1113.24 659.36 1114.96 657.507 1116.68 655.173 1117.54 652.358 1117.54 649.81 1117.54 647.694 1116.8 646.013 1115.32 644.332 1113.84 643.374 1111.91 643.14 1109.54Z" fill="#262626" fill-rule="evenodd"/><path d="M767.173 1109.54 770.676 1109.08C771.093 1111.05 771.785 1112.47 772.752 1113.35 773.718 1114.22 774.905 1114.65 776.312 1114.65 777.967 1114.65 779.363 1114.09 780.499 1112.96 781.636 1111.82 782.204 1110.42 782.204 1108.73 782.204 1107.13 781.678 1105.81 780.627 1104.78 779.575 1103.74 778.23 1103.23 776.591 1103.23 775.926 1103.23 775.098 1103.35 774.109 1103.6L774.503 1100.54C774.735 1100.57 774.921 1100.59 775.06 1100.59 776.56 1100.59 777.913 1100.2 779.119 1099.43 780.325 1098.66 780.928 1097.46 780.928 1095.84 780.928 1094.57 780.491 1093.52 779.618 1092.67 778.744 1091.83 777.612 1091.41 776.22 1091.41 774.859 1091.41 773.722 1091.84 772.81 1092.69 771.897 1093.53 771.31 1094.82 771.047 1096.53L767.521 1095.91C767.954 1093.57 768.932 1091.76 770.455 1090.47 771.979 1089.19 773.877 1088.54 776.15 1088.54 777.712 1088.54 779.154 1088.88 780.476 1089.54 781.798 1090.21 782.807 1091.11 783.503 1092.26 784.199 1093.41 784.547 1094.62 784.547 1095.91 784.547 1097.15 784.215 1098.27 783.549 1099.27 782.885 1100.27 781.895 1101.07 780.58 1101.67 782.282 1102.05 783.604 1102.85 784.547 1104.08 785.49 1105.3 785.962 1106.83 785.962 1108.67 785.962 1111.14 785.046 1113.24 783.213 1114.96 781.381 1116.68 779.073 1117.54 776.289 1117.54 773.769 1117.54 771.677 1116.8 770.015 1115.32 768.352 1113.84 767.405 1111.91 767.173 1109.54ZM791.13 1117.04 791.13 1113.07 795.143 1113.07 795.143 1117.04 791.13 1117.04ZM800.153 1109.61 803.841 1109.29C804.119 1111.07 804.757 1112.42 805.755 1113.31 806.752 1114.21 807.954 1114.65 809.361 1114.65 811.063 1114.65 812.501 1114.02 813.676 1112.76 814.851 1111.5 815.439 1109.82 815.439 1107.73 815.439 1105.74 814.875 1104.17 813.746 1103.02 812.617 1101.87 811.14 1101.3 809.315 1101.3 808.171 1101.3 807.143 1101.56 806.23 1102.07 805.318 1102.58 804.599 1103.24 804.073 1104.05L800.779 1103.62 803.563 1089.05 817.828 1089.05 817.828 1092.38 806.369 1092.38 804.815 1099.99C806.547 1098.82 808.356 1098.23 810.243 1098.23 812.748 1098.23 814.863 1099.08 816.587 1100.8 818.312 1102.51 819.174 1104.72 819.174 1107.43 819.174 1110 818.416 1112.21 816.9 1114.08 815.06 1116.37 812.547 1117.52 809.361 1117.52 806.748 1117.52 804.618 1116.8 802.971 1115.35 801.324 1113.91 800.385 1111.99 800.153 1109.61Z" fill="#262626" fill-rule="evenodd"/><path d="M936.756 1116.54 936.756 1109.84 924.21 1109.84 924.21 1106.69 937.387 1088.54 940.285 1088.54 940.285 1106.69 944.21 1106.69 944.21 1109.84 940.285 1109.84 940.285 1116.54 936.756 1116.54ZM936.756 1106.69 936.756 1094.06 927.691 1106.69 936.756 1106.69Z" fill="#262626" fill-rule="evenodd"/><path d="M1060.66 1117.06 1060.66 1110.24 1048.24 1110.24 1048.24 1107.04 1061.28 1088.55 1064.15 1088.55 1064.15 1107.04 1068.03 1107.04 1068.03 1110.24 1064.15 1110.24 1064.15 1117.06 1060.66 1117.06ZM1060.66 1107.04 1060.66 1094.17 1051.69 1107.04 1060.66 1107.04ZM1073.3 1117.06 1073.3 1113.08 1077.29 1113.08 1077.29 1117.06 1073.3 1117.06ZM1082.29 1109.59 1085.96 1109.27C1086.24 1111.07 1086.88 1112.42 1087.87 1113.32 1088.86 1114.22 1090.06 1114.67 1091.46 1114.67 1093.16 1114.67 1094.59 1114.03 1095.76 1112.76 1096.94 1111.5 1097.52 1109.81 1097.52 1107.7 1097.52 1105.71 1096.96 1104.13 1095.83 1102.98 1094.71 1101.83 1093.24 1101.25 1091.42 1101.25 1090.28 1101.25 1089.25 1101.51 1088.34 1102.02 1087.43 1102.54 1086.72 1103.2 1086.19 1104.02L1082.91 1103.58 1085.69 1088.94 1099.9 1088.94 1099.9 1092.28 1088.48 1092.28 1086.93 1099.94C1088.66 1098.75 1090.46 1098.16 1092.34 1098.16 1094.84 1098.16 1096.95 1099.02 1098.67 1100.74 1100.38 1102.46 1101.24 1104.68 1101.24 1107.4 1101.24 1109.99 1100.49 1112.21 1098.98 1114.09 1097.14 1116.39 1094.64 1117.55 1091.46 1117.55 1088.86 1117.55 1086.74 1116.82 1085.1 1115.37 1083.45 1113.92 1082.52 1111.99 1082.29 1109.59Z" fill="#262626" fill-rule="evenodd"/><path d="M637.183 1173.58 637.183 1146.67 627.154 1146.67 627.154 1143.06 651.32 1143.06 651.32 1146.67 641.222 1146.67 641.222 1173.58 637.183 1173.58ZM655.266 1147.38 655.266 1143.06 659.007 1143.06 659.007 1147.38 655.266 1147.38ZM655.266 1173.58 655.266 1151.49 659.007 1151.49 659.007 1173.58 655.266 1173.58ZM664.808 1173.58 664.808 1151.49 668.159 1151.49 668.159 1154.59C668.863 1153.5 669.789 1152.63 670.936 1151.97 672.084 1151.31 673.392 1150.98 674.861 1150.98 676.498 1150.98 677.841 1151.33 678.889 1152.01 679.936 1152.69 680.675 1153.63 681.103 1154.84 682.847 1152.27 685.12 1150.98 687.919 1150.98 690.107 1150.98 691.79 1151.59 692.968 1152.8 694.147 1154.01 694.736 1155.88 694.736 1158.4L694.736 1173.58 691.018 1173.58 691.018 1159.66C691.018 1158.16 690.899 1157.09 690.662 1156.43 690.425 1155.77 689.985 1155.24 689.342 1154.83 688.7 1154.43 687.95 1154.22 687.093 1154.22 685.532 1154.22 684.24 1154.74 683.214 1155.77 682.189 1156.81 681.677 1158.46 681.677 1160.74L681.677 1173.58 677.936 1173.58 677.936 1159.23C677.936 1157.56 677.63 1156.31 677.018 1155.47 676.406 1154.64 675.411 1154.22 674.034 1154.22 672.979 1154.22 672.003 1154.5 671.109 1155.06 670.213 1155.62 669.563 1156.43 669.158 1157.49 668.752 1158.56 668.55 1160.1 668.55 1162.12L668.55 1173.58 664.808 1173.58ZM715.797 1166.46 719.676 1166.94C719.064 1169.21 717.932 1170.97 716.279 1172.21 714.627 1173.46 712.523 1174.08 709.968 1174.08 706.724 1174.08 704.158 1173.09 702.268 1171.1 700.379 1169.11 699.434 1166.32 699.434 1162.72 699.434 1159 700.39 1156.11 702.302 1154.06 704.215 1152.01 706.694 1150.98 709.738 1150.98 712.707 1150.98 715.124 1151.99 716.991 1154 718.857 1156.02 719.791 1158.85 719.791 1162.49 719.791 1162.7 719.783 1163.03 719.767 1163.48L703.312 1163.48C703.45 1165.91 704.135 1167.77 705.366 1169.07 706.598 1170.36 708.132 1171.01 709.968 1171.01 711.345 1171.01 712.519 1170.64 713.491 1169.92 714.462 1169.19 715.231 1168.04 715.797 1166.46ZM703.519 1160.4 715.843 1160.4C715.675 1158.55 715.201 1157.15 714.42 1156.22 713.227 1154.78 711.682 1154.06 709.785 1154.06 708.071 1154.06 706.629 1154.64 705.458 1155.78 704.288 1156.93 703.641 1158.47 703.519 1160.4ZM743.74 1182.56C741.674 1179.94 739.927 1176.88 738.496 1173.38 737.065 1169.89 736.35 1166.27 736.35 1162.53 736.35 1159.23 736.886 1156.07 737.957 1153.05 739.211 1149.53 741.139 1146.03 743.74 1142.56L746.425 1142.56C744.742 1145.44 743.633 1147.49 743.098 1148.73 742.256 1150.65 741.59 1152.65 741.101 1154.73 740.504 1157.32 740.206 1159.92 740.206 1162.56 740.206 1169.23 742.279 1175.9 746.425 1182.56L743.74 1182.56ZM750.917 1173.58 750.917 1151.49 754.268 1151.49 754.268 1154.59C754.972 1153.5 755.897 1152.63 757.045 1151.97 758.192 1151.31 759.5 1150.98 760.969 1150.98 762.606 1150.98 763.949 1151.33 764.997 1152.01 766.045 1152.69 766.783 1153.63 767.212 1154.84 768.956 1152.27 771.228 1150.98 774.028 1150.98 776.216 1150.98 777.899 1151.59 779.077 1152.8 780.255 1154.01 780.844 1155.88 780.844 1158.4L780.844 1173.58 777.126 1173.58 777.126 1159.66C777.126 1158.16 777.008 1157.09 776.77 1156.43 776.533 1155.77 776.093 1155.24 775.451 1154.83 774.808 1154.43 774.058 1154.22 773.202 1154.22 771.641 1154.22 770.348 1154.74 769.323 1155.77 768.298 1156.81 767.785 1158.46 767.785 1160.74L767.785 1173.58 764.045 1173.58 764.045 1159.23C764.045 1157.56 763.739 1156.31 763.127 1155.47 762.515 1154.64 761.52 1154.22 760.143 1154.22 759.088 1154.22 758.112 1154.5 757.217 1155.06 756.322 1155.62 755.672 1156.43 755.266 1157.49 754.861 1158.56 754.658 1160.1 754.658 1162.12L754.658 1173.58 750.917 1173.58ZM785.29 1166.99 788.985 1166.39C789.199 1167.88 789.78 1169.02 790.729 1169.81 791.678 1170.61 793.009 1171.01 794.722 1171.01 796.436 1171.01 797.71 1170.66 798.544 1169.95 799.377 1169.25 799.794 1168.42 799.794 1167.47 799.794 1166.63 799.427 1165.96 798.693 1165.47 798.173 1165.15 796.895 1164.73 794.86 1164.21 792.121 1163.52 790.22 1162.93 789.157 1162.42 788.094 1161.92 787.287 1161.21 786.736 1160.32 786.185 1159.42 785.91 1158.43 785.91 1157.35 785.91 1156.37 786.135 1155.46 786.587 1154.61 787.038 1153.77 787.654 1153.07 788.434 1152.52 789.015 1152.09 789.807 1151.73 790.809 1151.43 791.812 1151.13 792.894 1150.98 794.057 1150.98 795.786 1150.98 797.304 1151.23 798.612 1151.73 799.921 1152.23 800.888 1152.91 801.516 1153.76 802.143 1154.62 802.571 1155.76 802.801 1157.18L799.152 1157.69C798.984 1156.54 798.501 1155.65 797.706 1155.02 796.91 1154.38 795.778 1154.06 794.309 1154.06 792.596 1154.06 791.372 1154.35 790.637 1154.91 789.903 1155.48 789.535 1156.14 789.535 1156.91 789.535 1157.4 789.689 1157.84 789.995 1158.22 790.3 1158.62 790.775 1158.95 791.417 1159.23 791.8 1159.37 792.909 1159.68 794.745 1160.17 797.392 1160.89 799.236 1161.47 800.276 1161.92 801.317 1162.36 802.135 1163.01 802.732 1163.88 803.329 1164.74 803.627 1165.81 803.627 1167.08 803.627 1168.34 803.264 1169.52 802.537 1170.62 801.81 1171.72 800.762 1172.57 799.393 1173.18 798.023 1173.78 796.474 1174.08 794.745 1174.08 791.869 1174.08 789.677 1173.49 788.17 1172.29 786.663 1171.1 785.703 1169.33 785.29 1166.99ZM810.764 1182.56 808.079 1182.56C812.225 1175.9 814.299 1169.23 814.299 1162.56 814.299 1159.94 814 1157.35 813.404 1154.8 812.945 1152.71 812.287 1150.72 811.43 1148.8 810.895 1147.55 809.778 1145.47 808.079 1142.56L810.764 1142.56C813.381 1146.03 815.308 1149.53 816.548 1153.05 817.619 1156.07 818.154 1159.23 818.154 1162.53 818.154 1166.27 817.435 1169.89 815.997 1173.38 814.559 1176.88 812.815 1179.94 810.764 1182.56Z" fill="#262626" fill-rule="evenodd"/><path d="M989.216 1179.76C989.216 1179.55 989.277 1179.36 989.398 1179.18L997.6 1170.6 989.398 1161.99C989.277 1161.84 989.216 1161.66 989.216 1161.44 989.216 1161.23 989.292 1161.04 989.444 1160.86 989.596 1160.68 989.785 1160.6 990.014 1160.6 990.181 1160.6 990.378 1160.68 990.606 1160.86L998.739 1169.44 1006.87 1160.86C1007.09 1160.68 1007.27 1160.6 1007.44 1160.6 1007.65 1160.6 1007.84 1160.68 1007.99 1160.84 1008.14 1161 1008.22 1161.2 1008.22 1161.44 1008.22 1161.66 1008.16 1161.84 1008.03 1161.99L999.855 1170.6 1008.03 1179.18C1008.16 1179.36 1008.22 1179.55 1008.22 1179.76 1008.22 1180 1008.14 1180.2 1007.99 1180.36 1007.84 1180.52 1007.65 1180.6 1007.44 1180.6 1007.24 1180.6 1007.05 1180.49 1006.87 1180.28L998.739 1171.75 990.606 1180.28C990.408 1180.49 990.211 1180.6 990.014 1180.6 989.785 1180.6 989.596 1180.51 989.444 1180.33 989.292 1180.16 989.216 1179.96 989.216 1179.76Z" fill="#262626" fill-rule="evenodd"/><path d="M1028.8 1180.09 1025.28 1180.09 1025.28 1157.86C1024.43 1158.67 1023.31 1159.48 1021.94 1160.27 1020.56 1161.07 1019.33 1161.67 1018.23 1162.06L1018.23 1158.69C1020.21 1157.79 1021.93 1156.68 1023.4 1155.37 1024.87 1154.06 1025.91 1152.8 1026.53 1151.57L1028.8 1151.57 1028.8 1180.09ZM1037.54 1166.08C1037.54 1162.73 1037.89 1160.03 1038.58 1157.98 1039.28 1155.93 1040.31 1154.34 1041.69 1153.23 1043.06 1152.13 1044.8 1151.57 1046.88 1151.57 1048.43 1151.57 1049.78 1151.88 1050.94 1152.49 1052.1 1153.1 1053.06 1153.99 1053.82 1155.14 1054.57 1156.3 1055.17 1157.7 1055.59 1159.37 1056.02 1161.03 1056.23 1163.27 1056.23 1166.08 1056.23 1169.42 1055.88 1172.11 1055.2 1174.15 1054.51 1176.2 1053.48 1177.78 1052.1 1178.89 1050.72 1180.01 1048.99 1180.57 1046.88 1180.57 1044.12 1180.57 1041.94 1179.59 1040.37 1177.63 1038.48 1175.26 1037.54 1171.41 1037.54 1166.08ZM1041.16 1166.08C1041.16 1170.75 1041.7 1173.85 1042.8 1175.39 1043.9 1176.93 1045.26 1177.7 1046.88 1177.7 1048.51 1177.7 1049.87 1176.93 1050.96 1175.38 1052.06 1173.84 1052.61 1170.74 1052.61 1166.08 1052.61 1161.41 1052.06 1158.31 1050.96 1156.77 1049.87 1155.23 1048.49 1154.46 1046.84 1154.46 1045.23 1154.46 1043.94 1155.14 1042.96 1156.48 1041.76 1158.21 1041.16 1161.41 1041.16 1166.08Z" fill="#262626" fill-rule="evenodd"/><path d="M1068.62 1161.56 1068.62 1156.3 1059.23 1156.3 1059.23 1153.81 1069.12 1139.56 1071.3 1139.56 1071.3 1153.81 1074.23 1153.81 1074.23 1156.3 1071.3 1156.3 1071.3 1161.56 1068.62 1161.56ZM1068.62 1153.81 1068.62 1143.91 1061.84 1153.81 1068.62 1153.81Z" fill="#262626" fill-rule="evenodd"/><path d="M370 1061 370 216" stroke="#262626" stroke-width="1.9564" stroke-linecap="square" stroke-linejoin="round" stroke-miterlimit="10" fill="none" fill-rule="evenodd"/><path d="M1076 1061 1076 216" stroke="#262626" stroke-width="1.9564" stroke-linecap="square" stroke-linejoin="round" stroke-miterlimit="10" fill="none" fill-rule="evenodd"/><path d="M370 1061 379.001 1061" stroke="#262626" stroke-width="1.9564" stroke-linecap="square" stroke-linejoin="round" stroke-miterlimit="10" fill="none" fill-rule="evenodd"/><path d="M370 940 379.001 940" stroke="#262626" stroke-width="1.9564" stroke-linecap="square" stroke-linejoin="round" stroke-miterlimit="10" fill="none" fill-rule="evenodd"/><path d="M370 819 379.001 819" stroke="#262626" stroke-width="1.9564" stroke-linecap="square" stroke-linejoin="round" stroke-miterlimit="10" fill="none" fill-rule="evenodd"/><path d="M370 699 379.001 699" stroke="#262626" stroke-width="1.9564" stroke-linecap="square" stroke-linejoin="round" stroke-miterlimit="10" fill="none" fill-rule="evenodd"/><path d="M370 578 379.001 578" stroke="#262626" stroke-width="1.9564" stroke-linecap="square" stroke-linejoin="round" stroke-miterlimit="10" fill="none" fill-rule="evenodd"/><path d="M370 457 379.001 457" stroke="#262626" stroke-width="1.9564" stroke-linecap="square" stroke-linejoin="round" stroke-miterlimit="10" fill="none" fill-rule="evenodd"/><path d="M370 337 379.001 337" stroke="#262626" stroke-width="1.9564" stroke-linecap="square" stroke-linejoin="round" stroke-miterlimit="10" fill="none" fill-rule="evenodd"/><path d="M370 216 379.001 216" stroke="#262626" stroke-width="1.9564" stroke-linecap="square" stroke-linejoin="round" stroke-miterlimit="10" fill="none" fill-rule="evenodd"/><path d="M1076 1061 1067 1061" stroke="#262626" stroke-width="1.9564" stroke-linecap="square" stroke-linejoin="round" stroke-miterlimit="10" fill="none" fill-rule="evenodd"/><path d="M1076 940 1067 940" stroke="#262626" stroke-width="1.9564" stroke-linecap="square" stroke-linejoin="round" stroke-miterlimit="10" fill="none" fill-rule="evenodd"/><path d="M1076 819 1067 819" stroke="#262626" stroke-width="1.9564" stroke-linecap="square" stroke-linejoin="round" stroke-miterlimit="10" fill="none" fill-rule="evenodd"/><path d="M1076 699 1067 699" stroke="#262626" stroke-width="1.9564" stroke-linecap="square" stroke-linejoin="round" stroke-miterlimit="10" fill="none" fill-rule="evenodd"/><path d="M1076 578 1067 578" stroke="#262626" stroke-width="1.9564" stroke-linecap="square" stroke-linejoin="round" stroke-miterlimit="10" fill="none" fill-rule="evenodd"/><path d="M1076 457 1067 457" stroke="#262626" stroke-width="1.9564" stroke-linecap="square" stroke-linejoin="round" stroke-miterlimit="10" fill="none" fill-rule="evenodd"/><path d="M1076 337 1067 337" stroke="#262626" stroke-width="1.9564" stroke-linecap="square" stroke-linejoin="round" stroke-miterlimit="10" fill="none" fill-rule="evenodd"/><path d="M1076 216 1067 216" stroke="#262626" stroke-width="1.9564" stroke-linecap="square" stroke-linejoin="round" stroke-miterlimit="10" fill="none" fill-rule="evenodd"/><path d="M286.775 1073.71 286.775 1077.06 268.065 1077.06C268.049 1076.22 268.187 1075.41 268.476 1074.65 268.949 1073.36 269.712 1072.1 270.764 1070.86 271.816 1069.62 273.333 1068.19 275.315 1066.57 278.38 1064.03 280.454 1062.02 281.537 1060.54 282.62 1059.06 283.161 1057.66 283.161 1056.35 283.161 1054.97 282.669 1053.81 281.685 1052.86 280.702 1051.91 279.417 1051.43 277.831 1051.43 276.169 1051.43 274.835 1051.94 273.829 1052.94 272.822 1053.94 272.311 1055.34 272.296 1057.13L268.728 1056.76C268.972 1054.08 269.891 1052.04 271.484 1050.64 273.077 1049.24 275.224 1048.54 277.923 1048.54 280.637 1048.54 282.784 1049.3 284.362 1050.8 285.94 1052.31 286.729 1054.18 286.729 1056.42 286.729 1057.57 286.496 1058.69 286.031 1059.78 285.566 1060.88 284.8 1062.03 283.733 1063.25 282.665 1064.47 280.881 1066.13 278.381 1068.24 276.291 1070 274.953 1071.2 274.366 1071.82 273.779 1072.45 273.287 1073.08 272.891 1073.71L286.775 1073.71ZM290.224 1063.05C290.224 1059.7 290.567 1057 291.253 1054.95 291.939 1052.9 292.961 1051.32 294.318 1050.21 295.676 1049.1 297.383 1048.54 299.442 1048.54 300.967 1048.54 302.301 1048.85 303.445 1049.46 304.588 1050.07 305.534 1050.96 306.281 1052.11 307.028 1053.27 307.611 1054.68 308.031 1056.34 308.45 1058 308.66 1060.24 308.66 1063.05 308.66 1066.39 308.32 1069.08 307.642 1071.12 306.963 1073.17 305.945 1074.75 304.588 1075.87 303.231 1076.98 301.516 1077.54 299.442 1077.54 296.712 1077.54 294.57 1076.56 293.015 1074.6 291.154 1072.23 290.224 1068.38 290.224 1063.05ZM293.792 1063.05C293.792 1067.72 294.333 1070.83 295.416 1072.36 296.499 1073.9 297.841 1074.67 299.442 1074.67 301.043 1074.67 302.385 1073.9 303.468 1072.35 304.55 1070.81 305.092 1067.71 305.092 1063.05 305.092 1058.38 304.55 1055.28 303.468 1053.74 302.385 1052.2 301.028 1051.43 299.396 1051.43 297.81 1051.43 296.537 1052.11 295.576 1053.46 294.387 1055.18 293.792 1058.38 293.792 1063.05ZM311.926 1063.05C311.926 1059.7 312.269 1057 312.955 1054.95 313.641 1052.9 314.663 1051.32 316.02 1050.21 317.377 1049.1 319.085 1048.54 321.144 1048.54 322.668 1048.54 324.003 1048.85 325.147 1049.46 326.29 1050.07 327.236 1050.96 327.983 1052.11 328.73 1053.27 329.313 1054.68 329.733 1056.34 330.152 1058 330.362 1060.24 330.362 1063.05 330.362 1066.39 330.022 1069.08 329.344 1071.12 328.665 1073.17 327.647 1074.75 326.29 1075.87 324.933 1076.98 323.218 1077.54 321.144 1077.54 318.414 1077.54 316.272 1076.56 314.717 1074.6 312.856 1072.23 311.926 1068.38 311.926 1063.05ZM315.494 1063.05C315.494 1067.72 316.035 1070.83 317.118 1072.36 318.201 1073.9 319.543 1074.67 321.144 1074.67 322.745 1074.67 324.087 1073.9 325.169 1072.35 326.252 1070.81 326.793 1067.71 326.793 1063.05 326.793 1058.38 326.252 1055.28 325.169 1053.74 324.087 1052.2 322.73 1051.43 321.098 1051.43 319.512 1051.43 318.239 1052.11 317.278 1053.46 316.089 1055.18 315.494 1058.38 315.494 1063.05ZM333.628 1063.05C333.628 1059.7 333.971 1057 334.657 1054.95 335.343 1052.9 336.365 1051.32 337.722 1050.21 339.079 1049.1 340.787 1048.54 342.846 1048.54 344.37 1048.54 345.705 1048.85 346.849 1049.46 347.992 1050.07 348.937 1050.96 349.685 1052.11 350.432 1053.27 351.015 1054.68 351.435 1056.34 351.854 1058 352.064 1060.24 352.064 1063.05 352.064 1066.39 351.724 1069.08 351.046 1071.12 350.367 1073.17 349.349 1074.75 347.992 1075.87 346.635 1076.98 344.919 1077.54 342.846 1077.54 340.116 1077.54 337.974 1076.56 336.419 1074.6 334.558 1072.23 333.628 1068.38 333.628 1063.05ZM337.196 1063.05C337.196 1067.72 337.737 1070.83 338.82 1072.36 339.903 1073.9 341.245 1074.67 342.846 1074.67 344.447 1074.67 345.789 1073.9 346.871 1072.35 347.954 1070.81 348.495 1067.71 348.495 1063.05 348.495 1058.38 347.954 1055.28 346.871 1053.74 345.789 1052.2 344.432 1051.43 342.8 1051.43 341.214 1051.43 339.941 1052.11 338.98 1053.46 337.791 1055.18 337.196 1058.38 337.196 1063.05Z" fill="#262626" fill-rule="evenodd"/><path d="M286.775 952.678 286.775 956.03 268.065 956.03C268.049 955.188 268.187 954.384 268.476 953.619 268.949 952.333 269.712 951.07 270.764 949.83 271.816 948.59 273.333 947.159 275.315 945.536 278.38 942.995 280.454 940.986 281.537 939.509 282.62 938.032 283.161 936.635 283.161 935.318 283.161 933.941 282.669 932.778 281.685 931.828 280.702 930.879 279.417 930.405 277.831 930.405 276.169 930.405 274.835 930.906 273.829 931.909 272.822 932.911 272.311 934.308 272.296 936.099L268.728 935.732C268.972 933.053 269.891 931.013 271.484 929.613 273.077 928.212 275.224 927.512 277.923 927.512 280.637 927.512 282.784 928.266 284.362 929.773 285.94 931.281 286.729 933.153 286.729 935.387 286.729 936.536 286.496 937.657 286.031 938.751 285.566 939.846 284.8 941.002 283.733 942.219 282.665 943.436 280.881 945.1 278.381 947.213 276.291 948.973 274.953 950.167 274.366 950.794 273.779 951.422 273.287 952.05 272.891 952.678L286.775 952.678ZM290.224 942.023C290.224 938.671 290.567 935.969 291.253 933.918 291.939 931.867 292.961 930.286 294.318 929.176 295.676 928.067 297.383 927.512 299.442 927.512 300.967 927.512 302.301 927.818 303.445 928.43 304.588 929.043 305.534 929.927 306.281 931.082 307.028 932.238 307.611 933.646 308.031 935.307 308.45 936.968 308.66 939.207 308.66 942.023 308.66 945.36 308.32 948.051 307.642 950.094 306.963 952.138 305.945 953.718 304.588 954.836 303.231 955.953 301.516 956.512 299.442 956.512 296.712 956.512 294.57 955.532 293.015 953.573 291.154 951.2 290.224 947.35 290.224 942.023ZM293.792 942.023C293.792 946.692 294.333 949.796 295.416 951.334 296.499 952.872 297.841 953.642 299.442 953.642 301.043 953.642 302.385 952.869 303.468 951.323 304.55 949.777 305.092 946.677 305.092 942.023 305.092 937.355 304.55 934.251 303.468 932.712 302.385 931.174 301.028 930.405 299.396 930.405 297.81 930.405 296.537 931.078 295.576 932.425 294.387 934.155 293.792 937.355 293.792 942.023ZM325.009 956.03 321.533 956.03 321.533 933.803C320.694 934.614 319.596 935.418 318.239 936.214 316.882 937.01 315.662 937.607 314.579 938.005L314.579 934.63C316.531 933.727 318.231 932.621 319.68 931.312 321.129 930.003 322.158 928.737 322.768 927.512L325.009 927.512 325.009 956.03ZM333.628 942.023C333.628 938.671 333.971 935.969 334.657 933.918 335.343 931.867 336.365 930.286 337.722 929.176 339.079 928.067 340.787 927.512 342.846 927.512 344.37 927.512 345.705 927.818 346.849 928.43 347.992 929.043 348.937 929.927 349.685 931.082 350.432 932.238 351.015 933.646 351.435 935.307 351.854 936.968 352.064 939.207 352.064 942.023 352.064 945.36 351.724 948.051 351.046 950.094 350.367 952.138 349.349 953.718 347.992 954.836 346.635 955.953 344.919 956.512 342.846 956.512 340.116 956.512 337.974 955.532 336.419 953.573 334.558 951.2 333.628 947.35 333.628 942.023ZM337.196 942.023C337.196 946.692 337.737 949.796 338.82 951.334 339.903 952.872 341.245 953.642 342.846 953.642 344.447 953.642 345.789 952.869 346.871 951.323 347.954 949.777 348.495 946.677 348.495 942.023 348.495 937.355 347.954 934.251 346.871 932.712 345.789 931.174 344.432 930.405 342.8 930.405 341.214 930.405 339.941 931.078 338.98 932.425 337.791 934.155 337.196 937.355 337.196 942.023Z" fill="#262626" fill-rule="evenodd"/><path d="M286.775 831.648 286.775 835 268.065 835C268.049 834.158 268.187 833.355 268.476 832.589 268.949 831.303 269.712 830.041 270.764 828.801 271.816 827.561 273.333 826.129 275.315 824.507 278.38 821.966 280.454 819.957 281.537 818.479 282.62 817.002 283.161 815.606 283.161 814.289 283.161 812.911 282.669 811.748 281.685 810.799 280.702 809.85 279.417 809.375 277.831 809.375 276.169 809.375 274.835 809.876 273.829 810.879 272.822 811.882 272.311 813.279 272.296 815.07L268.728 814.702C268.972 812.023 269.891 809.984 271.484 808.583 273.077 807.182 275.224 806.482 277.923 806.482 280.637 806.482 282.784 807.236 284.362 808.744 285.94 810.252 286.729 812.123 286.729 814.358 286.729 815.506 286.496 816.627 286.031 817.722 285.566 818.816 284.8 819.972 283.733 821.189 282.665 822.406 280.881 824.071 278.381 826.183 276.291 827.943 274.953 829.137 274.366 829.765 273.779 830.393 273.287 831.02 272.891 831.648L286.775 831.648ZM290.224 820.994C290.224 817.641 290.567 814.939 291.253 812.888 291.939 810.837 292.961 809.256 294.318 808.147 295.676 807.037 297.383 806.482 299.442 806.482 300.967 806.482 302.301 806.788 303.445 807.401 304.588 808.013 305.534 808.897 306.281 810.052 307.028 811.208 307.611 812.617 308.031 814.277 308.45 815.938 308.66 818.177 308.66 820.994 308.66 824.331 308.32 827.021 307.642 829.064 306.963 831.108 305.945 832.689 304.588 833.806 303.231 834.923 301.516 835.482 299.442 835.482 296.712 835.482 294.57 834.502 293.015 832.543 291.154 830.17 290.224 826.321 290.224 820.994ZM293.792 820.994C293.792 825.663 294.333 828.766 295.416 830.305 296.499 831.843 297.841 832.612 299.442 832.612 301.043 832.612 302.385 831.839 303.468 830.293 304.55 828.747 305.092 825.647 305.092 820.994 305.092 816.325 304.55 813.221 303.468 811.683 302.385 810.144 301.028 809.375 299.396 809.375 297.81 809.375 296.537 810.049 295.576 811.396 294.387 813.125 293.792 816.325 293.792 820.994ZM330.179 831.648 330.179 835 311.468 835C311.453 834.158 311.59 833.355 311.88 832.589 312.353 831.303 313.115 830.041 314.168 828.801 315.219 827.561 316.737 826.129 318.719 824.507 321.784 821.966 323.858 819.957 324.941 818.479 326.023 817.002 326.565 815.606 326.565 814.289 326.565 812.911 326.073 811.748 325.089 810.799 324.106 809.85 322.821 809.375 321.235 809.375 319.573 809.375 318.239 809.876 317.232 810.879 316.226 811.882 315.715 813.279 315.7 815.07L312.132 814.702C312.376 812.023 313.294 809.984 314.888 808.583 316.481 807.182 318.628 806.482 321.327 806.482 324.041 806.482 326.187 807.236 327.766 808.744 329.344 810.252 330.133 812.123 330.133 814.358 330.133 815.506 329.9 816.627 329.435 817.722 328.97 818.816 328.204 819.972 327.137 821.189 326.069 822.406 324.285 824.071 321.784 826.183 319.695 827.943 318.357 829.137 317.77 829.765 317.183 830.393 316.691 831.02 316.295 831.648L330.179 831.648ZM333.628 820.994C333.628 817.641 333.971 814.939 334.657 812.888 335.343 810.837 336.365 809.256 337.722 808.147 339.079 807.037 340.787 806.482 342.846 806.482 344.37 806.482 345.705 806.788 346.849 807.401 347.992 808.013 348.937 808.897 349.685 810.052 350.432 811.208 351.015 812.617 351.435 814.277 351.854 815.938 352.064 818.177 352.064 820.994 352.064 824.331 351.724 827.021 351.046 829.064 350.367 831.108 349.349 832.689 347.992 833.806 346.635 834.923 344.919 835.482 342.846 835.482 340.116 835.482 337.974 834.502 336.419 832.543 334.558 830.17 333.628 826.321 333.628 820.994ZM337.196 820.994C337.196 825.663 337.737 828.766 338.82 830.305 339.903 831.843 341.245 832.612 342.846 832.612 344.447 832.612 345.789 831.839 346.871 830.293 347.954 828.747 348.495 825.647 348.495 820.994 348.495 816.325 347.954 813.221 346.871 811.683 345.789 810.144 344.432 809.375 342.8 809.375 341.214 809.375 339.941 810.049 338.98 811.396 337.791 813.125 337.196 816.325 337.196 820.994Z" fill="#262626" fill-rule="evenodd"/><path d="M286.775 711.598 286.775 714.947 268.065 714.947C268.049 714.106 268.187 713.303 268.476 712.538 268.949 711.254 269.712 709.992 270.764 708.753 271.816 707.514 273.333 706.084 275.315 704.463 278.38 701.923 280.454 699.916 281.537 698.44 282.62 696.964 283.161 695.568 283.161 694.253 283.161 692.876 282.669 691.714 281.685 690.765 280.702 689.817 279.417 689.343 277.831 689.343 276.169 689.343 274.835 689.844 273.829 690.846 272.822 691.847 272.311 693.243 272.296 695.033L268.728 694.666C268.972 691.989 269.891 689.951 271.484 688.551 273.077 687.152 275.224 686.452 277.923 686.452 280.637 686.452 282.784 687.206 284.362 688.712 285.94 690.219 286.729 692.089 286.729 694.321 286.729 695.469 286.496 696.589 286.031 697.683 285.566 698.776 284.8 699.931 283.733 701.147 282.665 702.363 280.881 704.027 278.381 706.137 276.291 707.896 274.953 709.089 274.366 709.716 273.779 710.343 273.287 710.971 272.891 711.598L286.775 711.598ZM290.224 700.952C290.224 697.603 290.567 694.903 291.253 692.853 291.939 690.804 292.961 689.224 294.318 688.116 295.676 687.006 297.383 686.452 299.442 686.452 300.967 686.452 302.301 686.758 303.445 687.37 304.588 687.982 305.534 688.865 306.281 690.02 307.028 691.174 307.611 692.582 308.031 694.241 308.45 695.901 308.66 698.138 308.66 700.952 308.66 704.287 308.32 706.975 307.642 709.016 306.963 711.059 305.945 712.638 304.588 713.754 303.231 714.871 301.516 715.429 299.442 715.429 296.712 715.429 294.57 714.45 293.015 712.493 291.154 710.122 290.224 706.275 290.224 700.952ZM293.792 700.952C293.792 705.617 294.333 708.718 295.416 710.256 296.499 711.793 297.841 712.562 299.442 712.562 301.043 712.562 302.385 711.789 303.468 710.244 304.55 708.699 305.092 705.602 305.092 700.952 305.092 696.287 304.55 693.186 303.468 691.649 302.385 690.112 301.028 689.343 299.396 689.343 297.81 689.343 296.537 690.016 295.576 691.362 294.387 693.09 293.792 696.287 293.792 700.952ZM311.949 707.445 315.403 706.986C315.814 708.959 316.497 710.382 317.45 711.254 318.403 712.126 319.573 712.562 320.961 712.562 322.592 712.562 323.969 711.995 325.089 710.864 326.21 709.732 326.771 708.325 326.771 706.642 326.771 705.036 326.252 703.717 325.215 702.684 324.178 701.652 322.851 701.136 321.235 701.136 320.58 701.136 319.764 701.258 318.788 701.503L319.177 698.451C319.406 698.482 319.589 698.497 319.726 698.497 321.205 698.497 322.539 698.111 323.729 697.339 324.918 696.566 325.513 695.369 325.513 693.748 325.513 692.478 325.082 691.423 324.22 690.582 323.359 689.741 322.241 689.32 320.869 689.32 319.527 689.32 318.407 689.745 317.507 690.593 316.607 691.442 316.028 692.723 315.769 694.436L312.292 693.817C312.719 691.477 313.683 689.664 315.185 688.379 316.687 687.094 318.559 686.452 320.801 686.452 322.341 686.452 323.763 686.785 325.066 687.45 326.37 688.116 327.365 689.022 328.051 690.169 328.738 691.316 329.081 692.532 329.081 693.817 329.081 695.056 328.753 696.176 328.097 697.178 327.441 698.18 326.466 698.979 325.169 699.576 326.847 699.958 328.151 700.761 329.081 701.984 330.011 703.208 330.476 704.738 330.476 706.573 330.476 709.051 329.572 711.15 327.766 712.871 325.959 714.592 323.683 715.452 320.938 715.452 318.452 715.452 316.39 714.71 314.751 713.227 313.112 711.743 312.178 709.816 311.949 707.445ZM333.628 700.952C333.628 697.603 333.971 694.903 334.657 692.853 335.343 690.804 336.365 689.224 337.722 688.116 339.079 687.006 340.787 686.452 342.846 686.452 344.37 686.452 345.705 686.758 346.849 687.37 347.992 687.982 348.937 688.865 349.685 690.02 350.432 691.174 351.015 692.582 351.435 694.241 351.854 695.901 352.064 698.138 352.064 700.952 352.064 704.287 351.724 706.975 351.046 709.016 350.367 711.059 349.349 712.638 347.992 713.754 346.635 714.871 344.919 715.429 342.846 715.429 340.116 715.429 337.974 714.45 336.419 712.493 334.558 710.122 333.628 706.275 333.628 700.952ZM337.196 700.952C337.196 705.617 337.737 708.718 338.82 710.256 339.903 711.793 341.245 712.562 342.846 712.562 344.447 712.562 345.789 711.789 346.871 710.244 347.954 708.699 348.495 705.602 348.495 700.952 348.495 696.287 347.954 693.186 346.871 691.649 345.789 690.112 344.432 689.343 342.8 689.343 341.214 689.343 339.941 690.016 338.98 691.362 337.791 693.09 337.196 696.287 337.196 700.952Z" fill="#262626" fill-rule="evenodd"/><path d="M286.775 590.589 286.775 593.941 268.065 593.941C268.049 593.099 268.187 592.295 268.476 591.53 268.949 590.244 269.712 588.981 270.764 587.741 271.816 586.501 273.333 585.07 275.315 583.447 278.38 580.906 280.454 578.897 281.537 577.42 282.62 575.943 283.161 574.546 283.161 573.23 283.161 571.852 282.669 570.689 281.685 569.74 280.702 568.79 279.417 568.316 277.831 568.316 276.169 568.316 274.835 568.817 273.829 569.82 272.822 570.822 272.311 572.219 272.296 574.01L268.728 573.643C268.972 570.964 269.891 568.924 271.484 567.523 273.077 566.123 275.224 565.423 277.923 565.423 280.637 565.423 282.784 566.177 284.362 567.684 285.94 569.192 286.729 571.064 286.729 573.299 286.729 574.447 286.496 575.568 286.031 576.662 285.566 577.757 284.8 578.913 283.733 580.13 282.665 581.346 280.881 583.011 278.381 585.124 276.291 586.884 274.953 588.078 274.366 588.706 273.779 589.333 273.287 589.961 272.891 590.589L286.775 590.589ZM290.224 579.935C290.224 576.582 290.567 573.88 291.253 571.829 291.939 569.778 292.961 568.197 294.318 567.088 295.676 565.978 297.383 565.423 299.442 565.423 300.967 565.423 302.301 565.729 303.445 566.341 304.588 566.954 305.534 567.837 306.281 568.993 307.028 570.149 307.611 571.557 308.031 573.218 308.45 574.879 308.66 577.118 308.66 579.935 308.66 583.272 308.32 585.962 307.642 588.005 306.963 590.049 305.945 591.63 304.588 592.747 303.231 593.864 301.516 594.423 299.442 594.423 296.712 594.423 294.57 593.443 293.015 591.484 291.154 589.111 290.224 585.261 290.224 579.935ZM293.792 579.935C293.792 584.603 294.333 587.707 295.416 589.245 296.499 590.784 297.841 591.553 299.442 591.553 301.043 591.553 302.385 590.78 303.468 589.234 304.55 587.688 305.092 584.588 305.092 579.935 305.092 575.266 304.55 572.162 303.468 570.624 302.385 569.085 301.028 568.316 299.396 568.316 297.81 568.316 296.537 568.989 295.576 570.336 294.387 572.066 293.792 575.266 293.792 579.935ZM323.065 593.941 323.065 587.144 310.782 587.144 310.782 583.953 323.683 565.537 326.519 565.537 326.519 583.953 330.362 583.953 330.362 587.144 326.519 587.144 326.519 593.941 323.065 593.941ZM323.065 583.953 323.065 571.14 314.19 583.953 323.065 583.953ZM333.628 579.935C333.628 576.582 333.971 573.88 334.657 571.829 335.343 569.778 336.365 568.197 337.722 567.088 339.079 565.978 340.787 565.423 342.846 565.423 344.37 565.423 345.705 565.729 346.849 566.341 347.992 566.954 348.937 567.837 349.685 568.993 350.432 570.149 351.015 571.557 351.435 573.218 351.854 574.879 352.064 577.118 352.064 579.935 352.064 583.272 351.724 585.962 351.046 588.005 350.367 590.049 349.349 591.63 347.992 592.747 346.635 593.864 344.919 594.423 342.846 594.423 340.116 594.423 337.974 593.443 336.419 591.484 334.558 589.111 333.628 585.261 333.628 579.935ZM337.196 579.935C337.196 584.603 337.737 587.707 338.82 589.245 339.903 590.784 341.245 591.553 342.846 591.553 344.447 591.553 345.789 590.78 346.871 589.234 347.954 587.688 348.495 584.588 348.495 579.935 348.495 575.266 347.954 572.162 346.871 570.624 345.789 569.085 344.432 568.316 342.8 568.316 341.214 568.316 339.941 568.989 338.98 570.336 337.791 572.066 337.196 575.266 337.196 579.935Z" fill="#262626" fill-rule="evenodd"/><path d="M286.775 469.559 286.775 472.911 268.065 472.911C268.049 472.069 268.187 471.266 268.476 470.5 268.949 469.214 269.712 467.952 270.764 466.711 271.816 465.472 273.333 464.04 275.315 462.418 278.38 459.877 280.454 457.867 281.537 456.391 282.62 454.913 283.161 453.516 283.161 452.2 283.161 450.822 282.669 449.659 281.685 448.71 280.702 447.761 279.417 447.286 277.831 447.286 276.169 447.286 274.835 447.788 273.829 448.79 272.822 449.793 272.311 451.19 272.296 452.981L268.728 452.613C268.972 449.935 269.891 447.895 271.484 446.494 273.077 445.093 275.224 444.393 277.923 444.393 280.637 444.393 282.784 445.147 284.362 446.655 285.94 448.163 286.729 450.034 286.729 452.269 286.729 453.417 286.496 454.538 286.031 455.633 285.566 456.727 284.8 457.883 283.733 459.1 282.665 460.317 280.881 461.982 278.381 464.094 276.291 465.854 274.953 467.049 274.366 467.676 273.779 468.304 273.287 468.931 272.891 469.559L286.775 469.559ZM290.224 458.905C290.224 455.552 290.567 452.851 291.253 450.799 291.939 448.748 292.961 447.168 294.318 446.058 295.676 444.948 297.383 444.393 299.442 444.393 300.967 444.393 302.301 444.699 303.445 445.312 304.588 445.924 305.534 446.808 306.281 447.964 307.028 449.119 307.611 450.527 308.031 452.188 308.45 453.849 308.66 456.088 308.66 458.905 308.66 462.242 308.32 464.932 307.642 466.976 306.963 469.019 305.945 470.6 304.588 471.717 303.231 472.835 301.516 473.393 299.442 473.393 296.712 473.393 294.57 472.414 293.015 470.454 291.154 468.082 290.224 464.232 290.224 458.905ZM293.792 458.905C293.792 463.574 294.333 466.677 295.416 468.216 296.499 469.754 297.841 470.523 299.442 470.523 301.043 470.523 302.385 469.75 303.468 468.204 304.55 466.658 305.092 463.558 305.092 458.905 305.092 454.236 304.55 451.132 303.468 449.594 302.385 448.055 301.028 447.286 299.396 447.286 297.81 447.286 296.537 447.96 295.576 449.307 294.387 451.037 293.792 454.236 293.792 458.905ZM311.926 465.472 315.563 465.15C315.837 466.941 316.466 468.284 317.45 469.18 318.433 470.075 319.619 470.523 321.007 470.523 322.684 470.523 324.102 469.892 325.261 468.629 326.42 467.366 326.999 465.686 326.999 463.589 326.999 461.599 326.443 460.03 325.33 458.882 324.216 457.734 322.76 457.16 320.961 457.16 319.832 457.16 318.818 457.416 317.919 457.929 317.019 458.442 316.31 459.104 315.791 459.915L312.544 459.479 315.288 444.898 329.355 444.898 329.355 448.228 318.056 448.228 316.524 455.851C318.231 454.672 320.015 454.083 321.876 454.083 324.346 454.083 326.431 454.94 328.132 456.655 329.832 458.369 330.682 460.581 330.682 463.29 330.682 465.862 329.935 468.082 328.44 469.949 326.626 472.245 324.148 473.393 321.007 473.393 318.429 473.393 316.329 472.67 314.705 471.224 313.081 469.777 312.155 467.86 311.926 465.472ZM333.628 458.905C333.628 455.552 333.971 452.851 334.657 450.799 335.343 448.748 336.365 447.168 337.722 446.058 339.079 444.948 340.787 444.393 342.846 444.393 344.37 444.393 345.705 444.699 346.849 445.312 347.992 445.924 348.937 446.808 349.685 447.964 350.432 449.119 351.015 450.527 351.435 452.188 351.854 453.849 352.064 456.088 352.064 458.905 352.064 462.242 351.724 464.932 351.046 466.976 350.367 469.019 349.349 470.6 347.992 471.717 346.635 472.835 344.919 473.393 342.846 473.393 340.116 473.393 337.974 472.414 336.419 470.454 334.558 468.082 333.628 464.232 333.628 458.905ZM337.196 458.905C337.196 463.574 337.737 466.677 338.82 468.216 339.903 469.754 341.245 470.523 342.846 470.523 344.447 470.523 345.789 469.75 346.871 468.204 347.954 466.658 348.495 463.558 348.495 458.905 348.495 454.236 347.954 451.132 346.871 449.594 345.789 448.055 344.432 447.286 342.8 447.286 341.214 447.286 339.941 447.96 338.98 449.307 337.791 451.037 337.196 454.236 337.196 458.905Z" fill="#262626" fill-rule="evenodd"/><path d="M286.775 348.529 286.775 351.882 268.065 351.882C268.049 351.04 268.187 350.236 268.476 349.471 268.949 348.185 269.712 346.922 270.764 345.682 271.816 344.442 273.333 343.011 275.315 341.388 278.38 338.847 280.454 336.838 281.537 335.361 282.62 333.884 283.161 332.487 283.161 331.17 283.161 329.793 282.669 328.629 281.685 327.68 280.702 326.731 279.417 326.257 277.831 326.257 276.169 326.257 274.835 326.758 273.829 327.76 272.822 328.763 272.311 330.16 272.296 331.951L268.728 331.584C268.972 328.905 269.891 326.865 271.484 325.464 273.077 324.064 275.224 323.363 277.923 323.363 280.637 323.363 282.784 324.117 284.362 325.625 285.94 327.133 286.729 329.004 286.729 331.239 286.729 332.387 286.496 333.509 286.031 334.603 285.566 335.698 284.8 336.853 283.733 338.07 282.665 339.287 280.881 340.952 278.381 343.064 276.291 344.825 274.953 346.019 274.366 346.646 273.779 347.274 273.287 347.901 272.891 348.529L286.775 348.529ZM290.224 337.875C290.224 334.523 290.567 331.821 291.253 329.77 291.939 327.719 292.961 326.138 294.318 325.028 295.676 323.918 297.383 323.363 299.442 323.363 300.967 323.363 302.301 323.67 303.445 324.282 304.588 324.894 305.534 325.778 306.281 326.934 307.028 328.09 307.611 329.498 308.031 331.159 308.45 332.82 308.66 335.059 308.66 337.875 308.66 341.212 308.32 343.903 307.642 345.946 306.963 347.99 305.945 349.57 304.588 350.688 303.231 351.805 301.516 352.364 299.442 352.364 296.712 352.364 294.57 351.384 293.015 349.425 291.154 347.052 290.224 343.202 290.224 337.875ZM293.792 337.875C293.792 342.544 294.333 345.648 295.416 347.186 296.499 348.724 297.841 349.494 299.442 349.494 301.043 349.494 302.385 348.721 303.468 347.174 304.55 345.629 305.092 342.529 305.092 337.875 305.092 333.206 304.55 330.103 303.468 328.564 302.385 327.026 301.028 326.257 299.396 326.257 297.81 326.257 296.537 326.93 295.576 328.277 294.387 330.007 293.792 333.206 293.792 337.875ZM329.95 330.435 326.496 330.711C326.191 329.333 325.749 328.339 325.169 327.726 324.239 326.731 323.088 326.234 321.716 326.234 320.602 326.234 319.626 326.54 318.788 327.152 317.69 327.964 316.828 329.135 316.203 330.665 315.578 332.196 315.25 334.385 315.22 337.232 316.058 335.962 317.08 335.016 318.285 334.396 319.489 333.776 320.755 333.466 322.081 333.466 324.399 333.466 326.374 334.32 328.006 336.027 329.637 337.734 330.453 339.942 330.453 342.651 330.453 344.442 330.068 346.103 329.298 347.634 328.528 349.164 327.476 350.335 326.142 351.147 324.807 351.958 323.286 352.364 321.578 352.364 318.696 352.364 316.341 351.296 314.511 349.16 312.681 347.025 311.766 343.501 311.766 338.587 311.766 333.107 312.772 329.119 314.785 326.624 316.554 324.45 318.933 323.363 321.922 323.363 324.148 323.363 325.97 323.991 327.388 325.246 328.806 326.501 329.66 328.231 329.95 330.435ZM315.769 342.674C315.769 343.883 316.02 345.035 316.524 346.13 317.026 347.224 317.736 348.058 318.65 348.633 319.566 349.207 320.526 349.494 321.533 349.494 322.997 349.494 324.255 348.9 325.307 347.714 326.359 346.528 326.885 344.917 326.885 342.881 326.885 340.906 326.366 339.356 325.33 338.231 324.293 337.106 322.981 336.543 321.395 336.543 319.825 336.543 318.494 337.106 317.404 338.231 316.314 339.356 315.769 340.837 315.769 342.674ZM333.628 337.875C333.628 334.523 333.971 331.821 334.657 329.77 335.343 327.719 336.365 326.138 337.722 325.028 339.079 323.918 340.787 323.363 342.846 323.363 344.37 323.363 345.705 323.67 346.849 324.282 347.992 324.894 348.937 325.778 349.685 326.934 350.432 328.09 351.015 329.498 351.435 331.159 351.854 332.82 352.064 335.059 352.064 337.875 352.064 341.212 351.724 343.903 351.046 345.946 350.367 347.99 349.349 349.57 347.992 350.688 346.635 351.805 344.919 352.364 342.846 352.364 340.116 352.364 337.974 351.384 336.419 349.425 334.558 347.052 333.628 343.202 333.628 337.875ZM337.196 337.875C337.196 342.544 337.737 345.648 338.82 347.186 339.903 348.724 341.245 349.494 342.846 349.494 344.447 349.494 345.789 348.721 346.871 347.174 347.954 345.629 348.495 342.529 348.495 337.875 348.495 333.206 347.954 330.103 346.871 328.564 345.789 327.026 344.432 326.257 342.8 326.257 341.214 326.257 339.941 326.93 338.98 328.277 337.791 330.007 337.196 333.206 337.196 337.875Z" fill="#262626" fill-rule="evenodd"/><path d="M286.775 228.5 286.775 231.852 268.065 231.852C268.049 231.01 268.187 230.206 268.476 229.441 268.949 228.155 269.712 226.892 270.764 225.652 271.816 224.412 273.333 222.981 275.315 221.359 278.38 218.818 280.454 216.808 281.537 215.331 282.62 213.854 283.161 212.457 283.161 211.141 283.161 209.763 282.669 208.6 281.685 207.65 280.702 206.701 279.417 206.227 277.831 206.227 276.169 206.227 274.835 206.728 273.829 207.731 272.822 208.734 272.311 210.131 272.296 211.921L268.728 211.554C268.972 208.875 269.891 206.836 271.484 205.435 273.077 204.034 275.224 203.334 277.923 203.334 280.637 203.334 282.784 204.088 284.362 205.595 285.94 207.103 286.729 208.975 286.729 211.209 286.729 212.358 286.496 213.479 286.031 214.574 285.566 215.668 284.8 216.824 283.733 218.041 282.665 219.258 280.881 220.922 278.381 223.035 276.291 224.795 274.953 225.989 274.366 226.617 273.779 227.244 273.287 227.872 272.891 228.5L286.775 228.5ZM290.224 217.845C290.224 214.493 290.567 211.791 291.253 209.74 291.939 207.689 292.961 206.109 294.318 204.999 295.676 203.889 297.383 203.334 299.442 203.334 300.967 203.334 302.301 203.64 303.445 204.252 304.588 204.865 305.534 205.749 306.281 206.904 307.028 208.06 307.611 209.468 308.031 211.129 308.45 212.79 308.66 215.029 308.66 217.845 308.66 221.183 308.32 223.873 307.642 225.917 306.963 227.96 305.945 229.54 304.588 230.658 303.231 231.776 301.516 232.334 299.442 232.334 296.712 232.334 294.57 231.354 293.015 229.395 291.154 227.023 290.224 223.173 290.224 217.845ZM293.792 217.845C293.792 222.514 294.333 225.618 295.416 227.156 296.499 228.695 297.841 229.464 299.442 229.464 301.043 229.464 302.385 228.691 303.468 227.145 304.55 225.599 305.092 222.499 305.092 217.845 305.092 213.177 304.55 210.073 303.468 208.534 302.385 206.996 301.028 206.227 299.396 206.227 297.81 206.227 296.537 206.901 295.576 208.248 294.387 209.978 293.792 213.177 293.792 217.845ZM312.155 207.168 312.155 203.816 330.476 203.816 330.476 206.526C328.661 208.454 326.87 211.015 325.101 214.206 323.332 217.398 321.967 220.677 321.007 224.045 320.32 226.418 319.878 229.02 319.68 231.852L316.112 231.852C316.142 229.617 316.577 226.919 317.415 223.758 318.254 220.597 319.455 217.547 321.018 214.608 322.581 211.669 324.247 209.189 326.016 207.168L312.155 207.168ZM333.628 217.845C333.628 214.493 333.971 211.791 334.657 209.74 335.343 207.689 336.365 206.109 337.722 204.999 339.079 203.889 340.787 203.334 342.846 203.334 344.37 203.334 345.705 203.64 346.849 204.252 347.992 204.865 348.937 205.749 349.685 206.904 350.432 208.06 351.015 209.468 351.435 211.129 351.854 212.79 352.064 215.029 352.064 217.845 352.064 221.183 351.724 223.873 351.046 225.917 350.367 227.96 349.349 229.54 347.992 230.658 346.635 231.776 344.919 232.334 342.846 232.334 340.116 232.334 337.974 231.354 336.419 229.395 334.558 227.023 333.628 223.173 333.628 217.845ZM337.196 217.845C337.196 222.514 337.737 225.618 338.82 227.156 339.903 228.695 341.245 229.464 342.846 229.464 344.447 229.464 345.789 228.691 346.871 227.145 347.954 225.599 348.495 222.499 348.495 217.845 348.495 213.177 347.954 210.073 346.871 208.534 345.789 206.996 344.432 206.227 342.8 206.227 341.214 206.227 339.941 206.901 338.98 208.248 337.791 209.978 337.196 213.177 337.196 217.845Z" fill="#262626" fill-rule="evenodd"/><path d="M244.465 785.966 241.434 785.966 225.269 771.902C225.36 773.493 225.406 774.9 225.406 776.124L225.406 785.117 222.375 785.117 222.375 767.085 224.832 767.085 238.862 779.037 241.434 781.354C241.311 779.672 241.25 778.097 241.25 776.628L241.25 766.419 244.465 766.419 244.465 785.966ZM235.303 763.919 231.537 763.919 231.537 752.425 235.303 752.425 235.303 763.919ZM252.938 748.141 222.375 748.141 222.375 744.723 225.245 744.723C224.113 743.913 223.267 743.003 222.708 741.993 222.15 740.984 221.87 739.76 221.87 738.323 221.87 736.441 222.356 734.778 223.328 733.333 224.3 731.888 225.671 730.798 227.438 730.064 229.207 729.33 231.147 728.963 233.259 728.963 235.51 728.963 237.542 729.368 239.356 730.178 241.17 730.989 242.559 732.167 243.523 733.711 244.488 735.256 244.97 736.885 244.97 738.598 244.97 739.837 244.706 740.953 244.178 741.948 243.649 742.941 242.98 743.76 242.169 744.402L252.938 744.402 252.938 748.141ZM233.535 744.746C236.382 744.746 238.487 744.169 239.849 743.014 241.212 741.859 241.893 740.471 241.893 738.85 241.893 737.183 241.189 735.757 239.78 734.572 238.372 733.386 236.191 732.794 233.236 732.794 230.42 732.794 228.311 733.371 226.91 734.526 225.51 735.681 224.809 737.061 224.809 738.667 224.809 740.272 225.552 741.688 227.036 742.911 228.521 744.134 230.688 744.746 233.535 744.746ZM233.42 725.582C229.317 725.582 226.287 724.451 224.327 722.187 222.689 720.29 221.87 717.974 221.87 715.236 221.87 712.208 222.865 709.73 224.855 707.803 226.845 705.875 229.593 704.912 233.098 704.912 235.946 704.912 238.185 705.337 239.815 706.186 241.445 707.034 242.712 708.273 243.615 709.902 244.518 711.531 244.97 713.309 244.97 715.236 244.97 718.325 243.979 720.822 241.996 722.726 240.014 724.63 237.155 725.582 233.42 725.582ZM233.42 721.751C236.252 721.751 238.372 721.132 239.78 719.893 241.189 718.654 241.893 717.102 241.893 715.236 241.893 713.385 241.185 711.841 239.769 710.602 238.353 709.363 236.191 708.743 233.282 708.743 230.558 708.743 228.491 709.367 227.083 710.613 225.674 711.86 224.97 713.401 224.97 715.236 224.97 717.102 225.671 718.654 227.071 719.893 228.472 721.132 230.588 721.751 233.42 721.751ZM237.875 701.761 237.278 698.068C238.762 697.854 239.903 697.273 240.699 696.324 241.495 695.376 241.893 694.045 241.893 692.333 241.893 690.619 241.541 689.346 240.837 688.513 240.133 687.679 239.306 687.262 238.357 687.262 237.515 687.262 236.849 687.629 236.359 688.363 236.038 688.884 235.616 690.161 235.096 692.195 234.408 694.933 233.81 696.833 233.305 697.896 232.8 698.959 232.1 699.766 231.204 700.316 230.309 700.867 229.317 701.142 228.23 701.142 227.251 701.142 226.34 700.916 225.498 700.465 224.656 700.014 223.96 699.399 223.409 698.618 222.98 698.037 222.616 697.246 222.318 696.244 222.019 695.242 221.87 694.16 221.87 692.998 221.87 691.27 222.119 689.751 222.616 688.444 223.114 687.136 223.791 686.169 224.649 685.542 225.506 684.915 226.646 684.487 228.07 684.257L228.575 687.905C227.427 688.073 226.535 688.555 225.9 689.35 225.265 690.146 224.947 691.277 224.947 692.745 224.947 694.459 225.23 695.682 225.797 696.416 226.363 697.15 227.029 697.517 227.794 697.517 228.284 697.517 228.72 697.364 229.103 697.058 229.501 696.753 229.838 696.278 230.113 695.636 230.251 695.254 230.565 694.145 231.055 692.309 231.774 689.663 232.356 687.821 232.8 686.781 233.244 685.741 233.898 684.922 234.763 684.326 235.628 683.729 236.696 683.431 237.966 683.431 239.222 683.431 240.4 683.794 241.503 684.521 242.605 685.247 243.458 686.295 244.063 687.664 244.668 689.033 244.97 690.581 244.97 692.309 244.97 695.185 244.373 697.376 243.179 698.882 241.985 700.389 240.217 701.348 237.875 701.761ZM218.265 678.728 213.948 678.728 213.948 674.989 218.265 674.989 218.265 678.728ZM244.465 678.728 222.375 678.728 222.375 674.989 244.465 674.989 244.465 678.728ZM241.112 660.999 244.419 660.472C244.648 661.527 244.763 662.468 244.763 663.293 244.763 664.655 244.545 665.71 244.109 666.46 243.673 667.209 243.106 667.737 242.41 668.042 241.713 668.348 240.24 668.501 237.989 668.501L225.269 668.501 225.269 671.231 222.375 671.231 222.375 668.501 216.887 668.501 214.637 664.785 222.375 664.785 222.375 660.999 225.269 660.999 225.269 664.785 238.196 664.785C239.268 664.785 239.956 664.716 240.262 664.578 240.569 664.441 240.81 664.223 240.986 663.924 241.162 663.626 241.25 663.202 241.25 662.651 241.25 662.238 241.204 661.688 241.112 660.999ZM218.265 657.209 213.948 657.209 213.948 653.47 218.265 653.47 218.265 657.209ZM244.465 657.209 222.375 657.209 222.375 653.47 244.465 653.47 244.465 657.209ZM233.42 649.047C229.317 649.047 226.287 647.915 224.327 645.651 222.689 643.755 221.87 641.438 221.87 638.7 221.87 635.672 222.865 633.194 224.855 631.267 226.845 629.34 229.593 628.377 233.098 628.377 235.946 628.377 238.185 628.801 239.815 629.65 241.445 630.499 242.712 631.737 243.615 633.366 244.518 634.995 244.97 636.773 244.97 638.7 244.97 641.79 243.979 644.287 241.996 646.191 240.014 648.095 237.155 649.047 233.42 649.047ZM233.42 645.216C236.252 645.216 238.372 644.596 239.78 643.357 241.189 642.119 241.893 640.566 241.893 638.7 241.893 636.85 241.185 635.305 239.769 634.066 238.353 632.827 236.191 632.208 233.282 632.208 230.558 632.208 228.491 632.831 227.083 634.078 225.674 635.324 224.97 636.865 224.97 638.7 224.97 640.566 225.671 642.119 227.071 643.357 228.472 644.596 230.588 645.216 233.42 645.216ZM244.465 623.735 222.375 623.735 222.375 620.362 225.498 620.362C223.08 618.741 221.87 616.401 221.87 613.342 221.87 612.012 222.107 610.788 222.582 609.672 223.056 608.555 223.684 607.718 224.465 607.16 225.245 606.602 226.172 606.215 227.243 606.001 227.932 605.864 229.141 605.795 230.871 605.795L244.465 605.795 244.465 609.534 231.032 609.534C229.501 609.534 228.357 609.679 227.599 609.97 226.842 610.261 226.237 610.776 225.785 611.518 225.333 612.26 225.108 613.128 225.108 614.122 225.108 615.713 225.613 617.089 226.623 618.252 227.634 619.414 229.555 619.995 232.387 619.995L244.465 619.995 244.465 623.735ZM253.443 580.684C250.825 582.749 247.768 584.496 244.269 585.926 240.772 587.356 237.155 588.071 233.42 588.071 230.113 588.071 226.952 587.536 223.937 586.465 220.416 585.211 216.918 583.284 213.443 580.684L213.443 578C216.321 579.682 218.38 580.791 219.62 581.326 221.533 582.168 223.531 582.833 225.613 583.322 228.2 583.919 230.81 584.217 233.443 584.217 240.117 584.217 246.784 582.145 253.443 578L253.443 580.684ZM244.465 573.51 222.375 573.51 222.375 570.16 225.475 570.16C224.388 569.457 223.516 568.531 222.858 567.384 222.199 566.237 221.87 564.93 221.87 563.461 221.87 561.825 222.211 560.483 222.892 559.435 223.573 558.388 224.518 557.65 225.728 557.221 223.156 555.478 221.87 553.207 221.87 550.408 221.87 548.221 222.475 546.538 223.684 545.36 224.894 544.183 226.761 543.594 229.287 543.594L244.465 543.594 244.465 547.311 230.55 547.311C229.05 547.311 227.97 547.429 227.312 547.666 226.654 547.903 226.122 548.343 225.716 548.985 225.31 549.628 225.108 550.377 225.108 551.234 225.108 552.794 225.624 554.086 226.658 555.111 227.691 556.135 229.348 556.648 231.629 556.648L244.465 556.648 244.465 560.387 230.113 560.387C228.445 560.387 227.193 560.693 226.359 561.305 225.525 561.917 225.108 562.911 225.108 564.287 225.108 565.343 225.387 566.318 225.946 567.212 226.505 568.107 227.316 568.757 228.38 569.162 229.444 569.568 230.986 569.77 233.007 569.77L244.465 569.77 244.465 573.51ZM244.465 537.659 222.375 537.659 222.375 534.309 225.475 534.309C224.388 533.606 223.516 532.681 222.858 531.533 222.199 530.386 221.87 529.078 221.87 527.61 221.87 525.974 222.211 524.632 222.892 523.584 223.573 522.537 224.518 521.799 225.728 521.37 223.156 519.627 221.87 517.356 221.87 514.557 221.87 512.37 222.475 510.687 223.684 509.51 224.894 508.332 226.761 507.743 229.287 507.743L244.465 507.743 244.465 511.46 230.55 511.46C229.05 511.46 227.97 511.578 227.312 511.815 226.654 512.052 226.122 512.492 225.716 513.134 225.31 513.777 225.108 514.526 225.108 515.383 225.108 516.943 225.624 518.235 226.658 519.26 227.691 520.284 229.348 520.797 231.629 520.797L244.465 520.797 244.465 524.536 230.113 524.536C228.445 524.536 227.193 524.842 226.359 525.454 225.525 526.066 225.108 527.06 225.108 528.436 225.108 529.492 225.387 530.467 225.946 531.361 226.505 532.256 227.316 532.906 228.38 533.311 229.444 533.717 230.986 533.919 233.007 533.919L244.465 533.919 244.465 537.659ZM253.443 499.353 253.443 502.037C246.784 497.892 240.117 495.82 233.443 495.82 230.825 495.82 228.238 496.118 225.682 496.715 223.6 497.174 221.602 497.831 219.689 498.688 218.434 499.223 216.352 500.339 213.443 502.037L213.443 499.353C216.918 496.738 220.416 494.811 223.937 493.572 226.952 492.501 230.113 491.966 233.42 491.966 237.155 491.966 240.772 492.685 244.269 494.122 247.768 495.56 250.825 497.304 253.443 499.353Z" fill="#262626" fill-rule="evenodd"/><path d="M423 946.781 424.975 942.426 426.95 938.306 428.897 934.892 430.872 931.346 432.791 927.977 434.766 921.62 436.741 917.574 438.716 914.028 440.633 910.158 442.637 906.744 444.583 904.081 446.558 903.36 448.533 900.491 450.48 898.387 452.427 893.031 454.43 891.471 456.377 890.839 458.352 888.131 460.326 882.628 462.245 881.686 464.248 879.347 466.195 875.403 468.17 873.299 470.145 871.048 472.176 870.312 474.037 869.385 476.013 867.84 478.015 867.472 479.962 866.943 481.937 864.971 483.884 866.502 485.831 866.928 487.778 869.326 489.781 866.619 491.728 868.679 493.703 867.752 495.648 868.223 497.623 867.723 499.598 865.398 501.545 868.591 503.548 871.843 505.495 873.888 507.442 870.636 509.389 872.667 511.364 872.725 513.339 873.27 515.313 871.18 517.231 868.752 519.263 860.866 521.238 855.583 523.156 849.933 525.16 845.181 527.106 839.177 529.053 835.616 531 835.307 532.975 832.894 534.949 831.173 536.896 832.556 538.843 833.056 540.902 834.013 542.764 835.366 544.739 833.601 546.743 832.129 548.689 827.994 550.663 827.097 552.583 823.786 554.585 817.871 556.504 808.925 558.507 803.098 560.482 799.67 562.429 793.814 564.404 785.559 566.351 777.937 568.354 769.977 570.271 762.311 572.246 752.276 574.193 743.83 576.168 733.707 578.143 722.803 580.09 713.519 582.093 701.041 584.012 689.55 585.959 681.678 587.962 670.039 589.937 655.325 591.884 641.964 593.859 628.31 595.804 614.876 597.809 600.529 599.726 586.11 601.701 571.381 603.676 559.315 605.651 545.719 607.57 531.197 609.545 517.468 611.52 504.49 613.495 492.366 615.469 482.273 617.416 472.958 619.362 462.556 621.366 450.946 623.341 441.073 625.286 430.008 627.319 422.401 629.18 415.161 631.127 407.525 633.158 398.726 635.077 393.855 637.108 389.897 639.027 384.218 640.974 379.627 642.949 374.58 644.895 369.43 646.869 367.282 648.874 364.839 650.791 363.25 652.766 359.395 654.741 356.776 656.688 353.921 658.663 351.847 660.638 352.803 662.585 350.64 664.532 350.905 666.477 348.683 668.593 347.859 670.427 347.742 672.402 348.006 674.377 347.359 676.324 349.301 678.299 348.595 680.246 347.918 682.221 348.109 684.196 349.257 686.143 349.11 688.118 348.816 690.065 348.609 692.039 347.241 694.014 347.58 695.96 345.961 697.935 346.02 699.91 347.742 701.857 346.961 703.832 346.373 705.806 346.917 707.781 348.021 709.728 348.389 711.731 348.845 713.65 349.081 715.709 349.948 717.572 348.933 719.518 347.962 721.522 349.448 723.467 348.845 725.442 350.125 727.417 350.67 729.392 351.273 731.339 351.817 733.314 352.641 735.261 350.979 737.236 349.331 739.183 350.272 741.158 351.67 743.105 350.876 745.135 351.582 747.025 349.698 749.029 350.316 750.975 349.095 752.922 347.889 754.925 344.622 756.872 345.431 758.875 343.298 760.794 343.857 762.741 344.063 764.716 341.179 766.662 338.133 768.637 332.498 770.64 328.039 772.587 325.994 774.533 324.577 776.48 320.937 778.482 316.835 780.429 311.977 782.462 310.448 784.352 303.24 786.354 300 788.301 306.037 790.22 310.747 792.195 313.344 794.198 317.116 796.116 319.86 798.12 327.156 800.065 332.115 802.012 334.19 803.987 335.279 805.934 339.207 807.909 343.003 809.884 345.049 811.859 350.213 813.834 352.391 815.809 356.776 817.756 359.601 819.731 365.604 821.678 367.694 823.623 369.93 825.57 369.018 827.545 370.445 829.52 369.342 831.467 369.533 833.442 372.917 835.389 373.977 837.364 376.11 839.339 378.141 841.286 379.156 843.26 380.068 845.206 384.38 847.21 382.702 849.185 380.319 851.103 381.996 853.135 378.965 855.025 378.523 857 377.979 858.975 377.714 860.949 376.905 862.896 375.639 864.871 376.375 866.818 378.317 868.821 377.258 870.768 378.008 872.714 378.199 874.661 378.95 876.636 376.257 878.61 374.388 880.585 376.831 882.56 377.949 884.507 375.566 886.482 377.155 888.401 375.124 890.376 379.2 892.379 383.453 894.354 388.794 896.301 394.223 898.246 395.547 900.193 400.786 902.168 406.951 904.143 417.339 906.118 423.519 908.093 431.524 910.04 442.574 912.015 455.331 913.99 466.513 915.992 478.314 917.884 493.013 919.859 509.729 921.833 527.077 923.779 545.278 925.754 564.142 927.729 582.181 929.648 605.827 931.623 626.544 933.598 648.953 935.545 672.423 937.575 697.525 939.522 718.845 941.497 742.918 943.416 763.679 945.362 783.176 947.337 801.877 949.312 818.18 951.286 835.734 953.234 850.33 955.208 867.884 957.183 882.216 959.158 896.489 961.105 910.143 963.052 921.149 965.083 931.14 967.03 942.971 968.977 952.078 970.952 960.377 972.869 966.748 974.844 972.516 976.819 975.562 978.794 981.801 980.769 984.906 982.716 987.745 984.691 990.379 986.61 994.896 988.613 993.778 990.56 994.955 992.535 996 994.482 994.058 996.457 992.292 998.431 992.675 1000.41 991.762 1002.35 992.719 1004.36 990.497 1006.27 986.068 1008.22 989.379 1010.22 990.188 1012.17 989.776 1014.15 990.159 1016.09 989.423 1018.04 988.275 1020.01 989.202 1021.99 990.644 1023.96 987.76 1025.91 991.424 1027.88 992.159 1029.83 989.158 1031.83 989.776 1033.78 986.76 1035.76 987.451 1037.73 988.157 1039.65 988.246 1041.63 986.406 1043.57 987.024 1045.57 986.289 1047.52 985.538 1049.47 987.716 1051.47 984.7 1053.42 985.803 1055.42 985.641 1057.34 987.436 1059.31 985.288 1061.29 985.995 1063.24 986.451 1065.18 988.967 1067.16 990.688 1069.13 989.011 1071.08 988.452 1073.05 988.731 1075 986.362" stroke="#0072BD" stroke-width="1.9564" stroke-linejoin="round" stroke-miterlimit="10" fill="none" fill-rule="evenodd"/><path d="M423 946.356 424.975 946.356 426.95 946.356 428.897 946.356 430.872 946.356 432.791 946.356 434.766 946.356 436.741 946.356 438.716 946.356 440.633 946.356 442.637 946.356 444.583 946.356 446.558 946.356 448.533 946.356 450.48 946.356 452.427 946.356 454.43 946.356 456.377 946.356 458.352 946.356 460.326 946.356 462.245 946.356 464.248 946.356 466.195 946.356 468.17 946.356 470.145 913.291 472.176 913.291 474.037 913.291 476.013 913.291 478.015 913.291 479.962 913.291 481.937 913.291 483.884 913.291 485.831 913.291 487.778 913.291 489.781 913.291 491.728 913.291 493.703 913.291 495.648 913.291 497.623 913.291 499.598 913.291 501.545 913.291 503.548 913.291 505.495 913.291 507.442 913.291 509.389 913.291 511.364 913.291 513.339 913.291 515.313 913.291 517.231 840.767 519.263 840.767 521.238 840.767 523.156 840.767 525.16 840.767 527.106 840.767 529.053 840.767 531 840.767 532.975 840.767 534.949 840.767 536.896 840.767 538.843 840.767 540.902 840.767 542.764 840.767 544.739 840.767 546.743 832.74 548.689 832.74 550.663 832.74 552.583 832.74 554.585 832.74 556.504 832.74 558.507 832.74 560.482 832.74 562.429 832.74 564.404 832.74 566.351 832.74 568.354 781.725 570.271 781.725 572.246 781.725 574.193 781.725 576.168 781.725 578.143 781.725 580.09 781.725 582.093 781.725 584.012 781.725 585.959 781.725 587.962 781.725 589.937 781.725 591.884 781.725 593.859 781.725 595.804 696.939 597.809 696.939 599.726 696.939 601.701 696.939 603.676 696.939 605.651 696.939 607.57 696.939 609.545 696.939 611.52 696.939 613.495 696.939 615.469 696.939 617.416 696.939 619.362 696.939 621.366 696.939 623.341 585.543 625.286 585.543 627.319 585.543 629.18 585.543 631.127 585.543 633.158 585.543 635.077 585.543 637.108 585.543 639.027 585.543 640.974 585.543 642.949 585.543 644.895 585.543 646.869 585.543 648.874 585.543 650.791 585.543 652.766 585.543 654.741 585.543 656.688 585.543 658.663 585.543 660.638 585.543 662.585 409.239 664.532 409.239 666.477 409.239 668.593 409.239 670.427 409.239 672.402 409.239 674.377 409.239 676.324 409.239 678.299 409.239 680.246 409.239 682.221 409.239 684.196 409.239 686.143 409.239 688.118 409.239 690.065 409.239 692.039 409.239 694.014 409.239 695.96 409.239 697.935 409.239 699.91 409.239 701.857 409.239 703.832 409.239 705.806 409.239 707.781 409.239 709.728 409.239 711.731 318.165 713.65 318.165 715.709 318.165 717.572 318.165 719.518 318.165 721.522 318.165 723.467 318.165 725.442 318.165 727.417 318.165 729.392 314.743 731.339 314.743 733.314 314.743 735.261 314.138 737.236 314.138 739.183 314.138 741.158 314.138 743.105 314.138 745.135 317.158 747.025 317.158 749.029 317.158 750.975 317.158 752.922 317.158 754.925 315.948 756.872 315.948 758.875 317.326 760.794 317.326 762.741 317.326 764.716 317.326 766.662 317.326 768.637 317.326 770.64 317.326 772.587 317.326 774.533 317.326 776.48 317.326 778.482 317.326 780.429 317.326 782.462 309.907 784.352 309.907 786.354 309.907 788.301 309.907 790.22 309.907 792.195 309.907 794.198 309.907 796.116 309.907 798.12 309.907 800.065 309.907 802.012 309.907 803.987 309.907 805.934 309.907 807.909 309.907 809.884 309.907 811.859 277 813.834 277 815.809 277 817.756 277 819.731 277 821.678 277 823.623 277 825.57 277 827.545 277 829.52 277 831.467 277 833.442 277 835.389 277 837.364 277 839.339 277 841.286 277 843.26 277 845.206 277 847.21 277 849.185 312.107 851.103 312.107 853.135 312.107 855.025 312.107 857 312.107 858.975 312.107 860.949 312.107 862.896 312.107 864.871 312.107 866.818 312.107 868.821 312.107 870.768 312.107 872.714 312.107 874.661 312.107 876.636 312.107 878.61 312.107 880.585 349.829 882.56 349.829 884.507 349.829 886.482 349.829 888.401 349.829 890.376 349.829 892.379 349.829 894.354 349.829 896.301 349.829 898.246 349.829 900.193 349.829 902.168 349.829 904.143 349.829 906.118 349.829 908.093 342.037 910.04 342.037 912.015 342.037 913.99 342.037 915.992 342.037 917.884 342.037 919.859 342.037 921.833 342.037 923.779 342.037 925.754 342.037 927.729 342.037 929.648 342.037 931.623 342.037 933.598 342.037 935.545 437.79 937.575 437.79 939.522 437.79 941.497 437.79 943.416 437.79 945.362 437.79 947.337 437.79 949.312 437.79 951.286 437.79 953.234 437.79 955.208 437.79 957.183 437.79 959.158 637.029 961.105 637.029 963.052 637.029 965.083 637.029 967.03 637.029 968.977 637.029 970.952 637.029 972.869 637.029 974.844 637.029 976.819 637.029 978.794 637.029 980.769 852.94 982.716 852.94 984.691 852.94 986.61 852.94 988.613 852.94 990.56 852.94 992.535 852.94 994.482 852.94 996.457 852.94 998.431 852.94 1000.41 950.002 1002.35 950.002 1004.36 950.002 1006.27 950.002 1008.22 950.002 1010.22 950.002 1012.17 950.002 1014.15 950.002 1016.09 950.002 1018.04 950.002 1020.01 950.002 1021.99 950.002 1023.96 950.002 1025.91 950.002 1027.88 954.942 1029.83 954.942 1031.83 954.942 1033.78 954.942 1035.76 954.942 1037.73 954.942 1039.65 954.942 1041.63 954.942 1043.57 954.942 1045.57 954.942 1047.52 954.942 1049.47 954.942 1051.47 956 1053.42 956 1055.42 956 1057.34 956 1059.31 956 1061.29 956 1063.24 956 1065.18 956 1067.16 956 1069.13 956 1071.08 956 1073.05 956 1075 956" stroke="#D95319" stroke-width="1.9564" stroke-linejoin="round" stroke-miterlimit="10" fill="none" fill-rule="evenodd"/><path d="M544.116 294.367 544.116 291.744 556.341 277.869C554.959 277.949 553.737 277.989 552.676 277.989L544.839 277.989 544.839 275.366 560.537 275.366 560.537 277.512 550.144 289.551 548.143 291.744C549.589 291.649 550.956 291.601 552.242 291.601L561.116 291.601 561.116 294.367 544.116 294.367Z" fill-rule="evenodd"/><path d="M572.814 306.777 575.109 307.096C574.862 308.735 574.22 310.021 573.186 310.955 572.151 311.888 570.876 312.355 569.361 312.355 567.481 312.355 565.969 311.713 564.825 310.431 563.681 309.149 563.109 307.309 563.109 304.911 563.109 303.363 563.353 302.009 563.841 300.848 564.329 299.687 565.08 298.815 566.093 298.231 567.105 297.646 568.202 297.354 569.382 297.354 570.883 297.354 572.107 297.749 573.055 298.538 574.002 299.327 574.614 300.45 574.891 301.906L572.617 302.271C572.399 301.3 572.013 300.571 571.459 300.086 570.905 299.6 570.242 299.357 569.47 299.357 568.289 299.357 567.331 299.797 566.595 300.677 565.859 301.558 565.492 302.946 565.492 304.843 565.492 306.77 565.849 308.17 566.563 309.043 567.277 309.915 568.202 310.351 569.339 310.351 570.257 310.351 571.022 310.059 571.634 309.475 572.246 308.891 572.639 307.992 572.814 306.777Z" fill-rule="evenodd"/><path d="M417 288 535 288" stroke="#0072BD" stroke-width="1.9564" stroke-linejoin="round" stroke-miterlimit="10" fill="none" fill-rule="evenodd"/><path d="M544.116 357.363 544.116 354.878 556.341 341.734C554.959 341.809 553.737 341.847 552.676 341.847L544.839 341.847 544.839 339.362 560.537 339.362 560.537 341.395 550.144 352.801 548.143 354.878C549.589 354.788 550.956 354.743 552.242 354.743L561.116 354.743 561.116 357.363 544.116 357.363Z" fill-rule="evenodd"/><path d="M563.116 375.378 563.116 360.703 565.355 360.703 565.355 362.935C565.931 361.897 566.46 361.211 566.942 360.877 567.424 360.544 567.96 360.377 568.551 360.377 569.39 360.377 570.246 360.649 571.117 361.191L570.253 363.494C569.647 363.137 569.033 362.959 568.411 362.959 567.867 362.959 567.381 363.121 566.953 363.447 566.526 363.773 566.218 364.222 566.032 364.796 565.752 365.68 565.612 366.649 565.612 367.703L565.612 375.378 563.116 375.378Z" fill-rule="evenodd"/><path d="M417 351 535 351" stroke="#D95319" stroke-width="1.9564" stroke-linejoin="round" stroke-miterlimit="10" fill="none" fill-rule="evenodd"/></g></svg>