<svg width="3225" height="2290" xmlns="http://www.w3.org/2000/svg" xmlns:xlink="http://www.w3.org/1999/xlink" xml:space="preserve" overflow="hidden"><g transform="translate(-75 -105)"><rect x="1391.5" y="1188.5" width="593" height="843" stroke="#E4E4E4" stroke-width="4.58333" stroke-miterlimit="8" fill="#E4E4E4"/><text fill="#FFFFFF" font-family="Calibri,Calibri_MSFontService,sans-serif" font-weight="400" font-size="83" transform="matrix(1 0 0 1 1674.81 1637)">-</text><path d="M0-6.875 348.976-6.875 348.976 39.9511 335.226 39.9511 335.226 0 342.101 6.875 0 6.875ZM362.726 33.0761 342.101 74.3261 321.476 33.0761Z" transform="matrix(1 0 0 -1 2662 2250.33)"/><path d="M706.679 2254.18 404.125 2254.18 404.125 2205.38 417.875 2205.38 417.875 2247.3 411 2240.43 706.679 2240.43ZM390.375 2212.25 411 2171 431.625 2212.25Z"/><path d="M1186 869 2041.83 869 2213 1040.17 2213 2388 1186 2388Z" stroke="#000000" stroke-width="13.75" stroke-miterlimit="8" fill="none" fill-rule="evenodd"/><path d="M82.0002 1492 669.498 1492 787 1609.5 787 2388 82.0002 2388Z" stroke="#000000" stroke-width="13.75" stroke-miterlimit="8" fill="none" fill-rule="evenodd"/><path d="M709.5 1933.5C709.5 1892.08 743.974 1858.5 786.5 1858.5 829.026 1858.5 863.5 1892.08 863.5 1933.5 863.5 1974.92 829.026 2008.5 786.5 2008.5 743.974 2008.5 709.5 1974.92 709.5 1933.5Z" stroke="#000000" stroke-width="4.58333" stroke-miterlimit="8" fill="#AFABAB" fill-rule="evenodd"/><path d="M709.5 1923.01 814.2 1923.01 814.2 1901.5 857.5 1933.5 814.2 1965.5 814.2 1943.99 709.5 1943.99Z" stroke="#000000" stroke-width="4.58333" stroke-miterlimit="8" fill-rule="evenodd"/><path d="M707 1932.5C707 1890.25 741.922 1856 785 1856 828.078 1856 863 1890.25 863 1932.5 863 1974.75 828.078 2009 785 2009 741.922 2009 707 1974.75 707 1932.5Z" stroke="#000000" stroke-width="10.3125" stroke-miterlimit="8" fill="none" fill-rule="evenodd"/><path d="M709.5 2247.5C709.5 2206.08 743.974 2172.5 786.5 2172.5 829.026 2172.5 863.5 2206.08 863.5 2247.5 863.5 2288.92 829.026 2322.5 786.5 2322.5 743.974 2322.5 709.5 2288.92 709.5 2247.5Z" stroke="#000000" stroke-width="4.58333" stroke-miterlimit="8" fill="#AFABAB" fill-rule="evenodd"/><path d="M857.5 2258.32 757.154 2258.32 757.154 2280.5 712.5 2247.5 757.154 2214.5 757.154 2236.68 857.5 2236.68Z" stroke="#000000" stroke-width="4.58333" stroke-miterlimit="8" fill-rule="evenodd"/><path d="M706 2247C706 2205.03 741.146 2171 784.5 2171 827.854 2171 863 2205.03 863 2247 863 2288.97 827.854 2323 784.5 2323 741.146 2323 706 2288.97 706 2247Z" stroke="#000000" stroke-width="10.3125" stroke-miterlimit="8" fill="none" fill-rule="evenodd"/><path d="M157.5 1658.18C157.5 1629.64 180.639 1606.5 209.183 1606.5L660.817 1606.5C689.361 1606.5 712.5 1629.64 712.5 1658.18L712.5 1702.82C712.5 1731.36 689.361 1754.5 660.817 1754.5L209.183 1754.5C180.639 1754.5 157.5 1731.36 157.5 1702.82Z" stroke="#000000" stroke-width="4.58333" stroke-miterlimit="8" fill="#FFFFFF" fill-rule="evenodd"/><text font-family="Calibri,Calibri_MSFontService,sans-serif" font-weight="400" font-size="92" transform="matrix(1 0 0 1 262.82 1711)">local.fmu</text><path d="M813.5 1036.63C813.5 1006.73 837.734 982.5 867.627 982.5L1509.37 982.5C1539.27 982.5 1563.5 1006.73 1563.5 1036.63L1563.5 1083.37C1563.5 1113.27 1539.27 1137.5 1509.37 1137.5L867.627 1137.5C837.734 1137.5 813.5 1113.27 813.5 1083.37Z" stroke="#000000" stroke-width="4.58333" stroke-miterlimit="8" fill="#FFFFFF" fill-rule="evenodd"/><text font-family="Calibri,Calibri_MSFontService,sans-serif" font-weight="400" font-size="92" transform="matrix(1 0 0 1 925.777 1091)">controller.fmu</text><path d="M0.217661-6.87155 11.2762-6.52127 22.4496-5.48148 33.4364-3.80575 42.3059-1.93042 39.4615 11.5222 30.7838 9.68739 31.1694 9.7575 20.5755 8.14169 20.9751 8.19071 10.2114 7.18906 10.6308 7.21519-0.217661 6.87155ZM56.3247 1.87323 64.4895 4.59758 73.9446 8.38713 82.8231 12.6088 91.0486 17.2312 95.2248 20.0154 87.5975 31.456 83.6389 28.8168 84.0845 29.09 76.2912 24.7105 76.7069 24.9259 68.2346 20.8973 68.6292 21.07 59.5629 17.4363 59.9446 17.5763 51.9726 14.9163ZM107.013 29.3372 111.038 33.3026 115.853 39.3876 119.55 45.8642 121.942 52.7333 122.695 59.0852 123.36 64.693 123.025 63.2412 124.906 68.641 111.921 73.1633 109.794 67.0558 109.041 60.7039 108.376 55.0961 108.711 56.5479 106.773 50.9839 107.295 52.131 104.169 46.6548 104.748 47.5127 100.519 42.1681 101.086 42.7998 97.3633 39.1328ZM130.974 77.3087 135.897 82.1582 135.37 81.6897 141.551 86.6394 141.067 86.2855 148.097 90.9721 147.651 90.6989 155.445 95.0784 155.029 94.863 163.186 98.7419 157.282 111.16 148.913 107.18 140.687 102.558 133.19 97.5597 126.5 92.2016 121.325 87.1043ZM175.239 103.363 181.367 105.408 180.991 105.294 190.99 108.006 190.111 107.829 198.516 108.964 196.675 122.59 187.825 121.395 177.201 118.513 170.886 116.406ZM193.175 94.491 231.736 119.789 188.361 135.459Z" fill="#4472C4" transform="matrix(1 0 0 -1 863 1932.79)"/><path d="M0.0843209-6.87448 19.456-6.63687 38.2822-5.96312 41.5989-5.78583 40.865 7.94457 37.6088 7.77052 37.7298 7.77592 19.045 7.10722 19.2065 7.1111-0.0843209 6.87448ZM55.4075-4.94817 55.9448-4.91284 64.1325-4.2662 71.8026-3.54754 78.886-2.76317 85.3181-1.91817 91.0427-1.01483 96.022-0.0482947 97.516 0.323735 94.1933 13.6662 92.874 13.3377 93.2253 13.4155 88.5414 12.5063 88.7799 12.5482 83.2628 11.6776 83.4389 11.7031 77.1643 10.8788 77.3032 10.8956 70.3468 10.1253 70.4621 10.1371 62.8998 9.42852 62.9999 9.43716 54.9073 8.79804 54.9976 8.80457 54.5054 8.77221ZM109.872 6.65066 110.78 6.96411 110.198 6.79152 113.973 7.73156 113.621 7.65379 118.305 8.56296 118.067 8.52102 123.584 9.39162 123.408 9.36616 129.682 10.1905 129.543 10.1737 136.5 10.944 136.384 10.9322 143.947 11.6407 143.847 11.6321 148.951 12.0352 147.868 25.7425 142.714 25.3355 135.044 24.6168 127.961 23.8324 121.528 22.9874 115.804 22.0841 110.824 21.1176 106.58 20.0606 105.385 19.648ZM162.395 12.9011 172.748 13.2997 172.219 27.0395 161.865 26.6409ZM166.15-0.628252 206.847 21.0693 165.071 40.6076Z" fill="#4472C4" transform="matrix(-1 1.22465e-16 1.22465e-16 1 1069.85 2226)"/><path d="M1098.5 1814C1098.5 1762.91 1141.03 1721.5 1193.5 1721.5 1245.97 1721.5 1288.5 1762.91 1288.5 1814 1288.5 1865.09 1245.97 1906.5 1193.5 1906.5 1141.03 1906.5 1098.5 1865.09 1098.5 1814Z" stroke="#000000" stroke-width="4.58333" stroke-miterlimit="8" fill="#AFABAB" fill-rule="evenodd"/><path d="M1098.5 1800.72 1227.73 1800.72 1227.73 1774.5 1280.5 1813.5 1227.73 1852.5 1227.73 1826.28 1098.5 1826.28Z" stroke="#000000" stroke-width="4.58333" stroke-miterlimit="8" fill-rule="evenodd"/><path d="M1095 1813C1095 1761.09 1138.43 1719 1192 1719 1245.57 1719 1289 1761.09 1289 1813 1289 1864.91 1245.57 1907 1192 1907 1138.43 1907 1095 1864.91 1095 1813Z" stroke="#000000" stroke-width="10.3125" stroke-miterlimit="8" fill="none" fill-rule="evenodd"/><path d="M2300.5 1834C2300.5 1885.09 2257.74 1926.5 2205 1926.5 2152.26 1926.5 2109.5 1885.09 2109.5 1834 2109.5 1782.91 2152.26 1741.5 2205 1741.5 2257.74 1741.5 2300.5 1782.91 2300.5 1834Z" stroke="#000000" stroke-width="4.58333" stroke-miterlimit="8" fill="#AFABAB" fill-rule="evenodd"/><path d="M2300.5 1846.95 2170.95 1846.95 2170.95 1873.5 2117.5 1834 2170.95 1794.5 2170.95 1821.05 2300.5 1821.05Z" stroke="#000000" stroke-width="4.58333" stroke-miterlimit="8" fill-rule="evenodd"/><path d="M2303 1834C2303 1885.91 2259.57 1928 2206 1928 2152.43 1928 2109 1885.91 2109 1834 2109 1782.09 2152.43 1740 2206 1740 2259.57 1740 2303 1782.09 2303 1834Z" stroke="#000000" stroke-width="10.3125" stroke-miterlimit="8" fill="none" fill-rule="evenodd"/><path d="M1261.5 2226C1261.5 2277.09 1218.74 2318.5 1166 2318.5 1113.26 2318.5 1070.5 2277.09 1070.5 2226 1070.5 2174.91 1113.26 2133.5 1166 2133.5 1218.74 2133.5 1261.5 2174.91 1261.5 2226Z" stroke="#000000" stroke-width="4.58333" stroke-miterlimit="8" fill="#AFABAB" fill-rule="evenodd"/><path d="M1261.5 2238.95 1131.95 2238.95 1131.95 2265.5 1078.5 2226 1131.95 2186.5 1131.95 2213.05 1261.5 2213.05Z" stroke="#000000" stroke-width="4.58333" stroke-miterlimit="8" fill-rule="evenodd"/><path d="M1263 2226C1263 2277.91 1219.8 2320 1166.5 2320 1113.2 2320 1070 2277.91 1070 2226 1070 2174.09 1113.2 2132 1166.5 2132 1219.8 2132 1263 2174.09 1263 2226Z" stroke="#000000" stroke-width="10.3125" stroke-miterlimit="8" fill="none" fill-rule="evenodd"/><path d="M2109.5 2227C2109.5 2175.91 2152.03 2134.5 2204.5 2134.5 2256.97 2134.5 2299.5 2175.91 2299.5 2227 2299.5 2278.09 2256.97 2319.5 2204.5 2319.5 2152.03 2319.5 2109.5 2278.09 2109.5 2227Z" stroke="#000000" stroke-width="4.58333" stroke-miterlimit="8" fill="#AFABAB" fill-rule="evenodd"/><path d="M2109.5 2213.72 2239.73 2213.72 2239.73 2187.5 2292.5 2226.5 2239.73 2265.5 2239.73 2239.28 2109.5 2239.28Z" stroke="#000000" stroke-width="4.58333" stroke-miterlimit="8" fill-rule="evenodd"/><path d="M2106 2226C2106 2174.09 2149.43 2132 2203 2132 2256.57 2132 2300 2174.09 2300 2226 2300 2277.91 2256.57 2320 2203 2320 2149.43 2320 2106 2277.91 2106 2226Z" stroke="#000000" stroke-width="10.3125" stroke-miterlimit="8" fill="none" fill-rule="evenodd"/><path d="M2505.1 1941.63 2495.43 1941.34 2485.63 1940.46 2476.01 1939.04 2466.61 1937.13 2462.77 1936.13 2466.25 1922.82 2469.9 1923.78 2469.54 1923.69 2478.57 1925.53 2478.19 1925.47 2487.44 1926.83 2487.06 1926.78 2496.45 1927.62 2496.05 1927.6 2505.52 1927.89ZM2449.23 1932.09 2448.78 1931.94 2440.49 1928.74 2432.69 1925.17 2425.46 1921.25 2418.86 1917.01 2412.95 1912.45 2410.88 1910.49 2420.34 1900.51 2422.16 1902.24 2421.63 1901.78 2427.02 1905.95 2426.54 1905.61 2432.68 1909.55 2432.23 1909.29 2439.04 1912.97 2438.63 1912.77 2446.03 1916.15 2445.64 1915.99 2453.55 1919.05 2453.18 1918.92 2453.44 1919ZM2401.14 1898.34 2400.18 1896.72 2398.01 1890.7 2397.33 1885.22 2396.75 1880.5 2397.11 1882 2395.42 1877.32 2395.97 1878.49 2393.24 1873.88 2393.84 1874.74 2390.15 1870.24 2390.73 1870.87 2386.15 1866.52 2386.68 1866.98 2384.24 1865.1 2392.64 1854.21 2395.36 1856.3 2400.5 1861.19 2404.8 1866.42 2408.13 1872.04 2410.3 1878.05 2410.98 1883.54 2411.56 1888.26 2411.2 1886.76 2412.89 1891.44 2412.34 1890.27 2412.97 1891.33ZM2373.68 1858.18 2369.27 1855.79 2369.68 1855.99 2362.28 1852.61 2362.67 1852.77 2354.76 1849.71 2355.13 1849.84 2346.77 1847.16 2347.62 1847.37 2336.97 1845.4 2339.48 1831.88 2350.56 1833.93 2359.52 1836.81 2367.82 1840.02 2375.62 1843.59 2380.23 1846.09ZM2341.25 1859.77 2303 1834 2346.56 1818.86Z" fill="#4472C4"/><path d="M2300.1 2219.13 2319.93 2219.4 2339.22 2220.18 2341.64 2220.33 2340.81 2234.05 2338.46 2233.91 2338.59 2233.92 2319.47 2233.14 2319.65 2233.15 2299.9 2232.87ZM2355.46 2221.25 2357.32 2221.39 2365.71 2222.14 2373.57 2222.97 2380.83 2223.88 2387.43 2224.86 2393.31 2225.9 2397.28 2226.77 2394.34 2240.2 2390.5 2239.36 2390.77 2239.42 2385.12 2238.41 2385.32 2238.44 2378.89 2237.49 2379.05 2237.51 2371.93 2236.62 2372.06 2236.64 2364.32 2235.82 2364.43 2235.83 2356.15 2235.09 2356.25 2235.1 2354.44 2234.97ZM2411.02 2234.05 2411.94 2234.64 2410.74 2234.03 2413.59 2235.14 2412.96 2234.93 2416.82 2236.01 2416.43 2235.92 2421.23 2236.97 2420.96 2236.91 2426.61 2237.92 2426.41 2237.89 2432.83 2238.84 2432.68 2238.82 2439.8 2239.71 2439.67 2239.69 2447.41 2240.51 2447.3 2240.5 2448.28 2240.59 2447.06 2254.28 2446.02 2254.19 2438.16 2253.36 2430.9 2252.45 2424.3 2251.47 2418.42 2250.43 2413.3 2249.3 2408.92 2248.07 2405.12 2246.59 2403.63 2245.64ZM2461.88 2241.7 2464.23 2241.88 2464.03 2241.86 2477.67 2242.47 2477.06 2256.21 2463.31 2255.6 2460.86 2255.41ZM2471.09 2228.52 2511.73 2250.33 2469.9 2269.76Z" fill="#4472C4"/><path d="M0.399284-6.8634 6.97672-6.48075 13.8963-5.28771 20.7261-3.34824 27.4465-0.70395 34.0449 2.60539 40.5135 6.54336 46.847 11.0772 53.0412 16.1774 59.0918 21.8169 64.9937 27.9708 70.741 34.6152 76.327 41.7273 81.744 49.2846 86.9837 57.2652 92.037 65.6472 96.9221 74.4592 105.982 92.981 114.159 112.816 121.339 133.735 127.43 155.562 132.337 178.123 135.964 201.241 138.208 224.686 138.788 236.577 138.981 248.33 138.981 248.3 139.224 259.941 139.212 259.661 139.93 271.28 139.908 271.008 141.086 282.582 141.054 282.318 142.676 293.823 142.635 293.567 144.687 304.981 144.638 304.732 147.103 316.033 147.046 315.79 149.91 326.954 149.845 326.717 153.093 337.722 152.98 337.375 160.564 358.817 160.387 358.367 169.32 378.898 169.109 378.457 179.269 397.897 179.019 397.458 190.283 415.624 190.065 415.294 196.072 423.843 195.91 423.621 202.147 431.783 201.969 431.56 208.421 439.312 208.225 439.087 214.876 446.407 214.66 446.18 221.495 453.045 221.256 452.816 228.26 459.204 227.995 458.974 235.152 464.861 234.858 464.632 242.153 469.996 241.825 469.77 249.243 474.588 248.879 474.367 256.404 478.617 255.304 478.117 268.349 482.703 263.788 495.675 250.171 490.888 241.932 486.235 234.168 481.192 226.562 475.599 219.125 469.482 211.868 462.864 204.805 455.77 197.948 448.223 191.309 440.246 184.901 431.861 178.701 423.038 167.2 404.489 156.81 384.609 147.682 363.63 139.956 341.789 136.622 330.491 133.696 319.086 131.177 307.539 129.079 295.872 127.42 284.106 126.215 272.264 125.48 260.369 125.234 248.571 125.042 236.914 125.049 237.135 124.483 225.516 124.506 225.837 122.296 202.757 122.348 203.168 118.784 180.453 118.858 180.848 114.036 158.679 114.132 159.065 108.149 137.624 108.269 138.008 101.222 117.476 101.368 117.865 93.3535 98.425 93.5337 98.8253 84.648 80.6591 84.811 80.9717 80.0718 72.4232 80.1969 72.6394 75.2763 64.4775 75.4171 64.7011 70.3272 56.9487 70.4864 57.1807 65.2393 49.8604 65.4204 50.1017 60.0281 43.2363 60.2352 43.4874 54.7099 37.0997 54.9476 37.3608 49.3014 31.4734 49.5757 31.7439 43.8206 26.3797 44.1382 26.658 38.2863 21.8397 38.6545 22.1226 32.718 17.8729 33.1448 18.155 27.1357 14.4968 27.6285 14.7698 21.559 11.7257 22.1239 11.9778 16.0059 9.57059 16.6451 9.78653 10.4909 8.03891 11.2008 8.20043 5.0224 7.13518 5.79123 7.22353-0.399284 6.8634ZM263.986 467.549 299.571 496.886 254.75 507.751Z" fill="#0D0D0D" transform="matrix(1 0 0 -1 1289 1812.89)"/><path d="M2108.99 1840.42 2101.77 1840.03 2094.22 1838.8 2086.75 1836.81 2079.39 1834.09 2072.15 1830.68 2065.04 1826.61 2058.06 1821.91 2051.23 1816.63 2044.55 1810.77 2038.03 1804.38 2031.67 1797.48 2025.49 1790.08 2019.49 1782.22 2013.69 1773.92 2008.1 1765.2 2002.72 1756.08 1997.56 1746.58 1992.62 1736.68 1983.59 1716.08 1975.63 1694.29 1968.88 1671.55 1963.45 1648.1 1961.24 1636.07 1959.42 1623.96 1957.97 1611.76 1956.92 1599.48 1956.28 1587.14 1956.07 1574.9 1956.07 1574.92 1955.82 1562.79 1955.83 1563.07 1955.09 1550.97 1955.11 1551.24 1953.89 1539.18 1953.93 1539.45 1952.25 1527.46 1952.29 1527.72 1950.17 1515.83 1950.22 1516.07 1947.67 1504.3 1947.73 1504.54 1944.77 1492.92 1944.84 1493.15 1941.48 1481.69 1941.55 1481.92 1937.82 1470.65 1937.9 1470.87 1933.8 1459.81 1933.94 1460.15 1924.71 1438.76 1924.92 1439.2 1914.43 1418.95 1914.61 1419.28 1908.93 1409.64 1909.06 1409.86 1903.11 1400.58 1903.26 1400.8 1897.05 1391.89 1897.21 1392.12 1890.77 1383.61 1890.95 1383.84 1884.29 1375.76 1884.48 1375.99 1877.61 1368.36 1877.83 1368.59 1870.77 1361.44 1871.01 1361.67 1863.77 1355.02 1864.04 1355.25 1856.65 1349.12 1856.94 1349.35 1849.41 1343.76 1849.74 1343.99 1842.07 1338.97 1842.44 1339.19 1834.67 1334.77 1835.72 1335.25 1821.19 1329.97 1825.9 1317.05 1840.97 1322.53 1849.43 1327.35 1857.44 1332.6 1865.28 1338.42 1872.95 1344.78 1880.44 1351.66 1887.72 1359.04 1894.8 1366.9 1901.65 1375.2 1908.26 1383.92 1914.61 1393.05 1920.71 1402.55 1926.55 1412.46 1937.24 1433.09 1946.63 1454.87 1950.84 1466.21 1954.65 1477.71 1958.07 1489.41 1961.09 1501.27 1963.69 1513.29 1965.85 1525.43 1967.56 1537.67 1968.8 1549.99 1969.56 1562.37 1969.82 1574.65 1970.03 1586.78 1970.02 1586.55 1970.65 1598.65 1970.63 1598.42 1971.66 1610.48 1971.64 1610.25 1973.06 1622.24 1973.03 1622.02 1974.82 1633.91 1974.79 1633.7 1976.94 1645.47 1976.88 1645.16 1982.22 1668.25 1982.12 1667.84 1988.75 1690.17 1988.62 1689.77 1996.43 1711.16 1996.26 1710.76 2005.15 1731 2005 1730.7 2009.81 1740.33 2009.7 1740.13 2014.74 1749.41 2014.62 1749.19 2019.87 1758.1 2019.74 1757.88 2025.19 1766.38 2025.04 1766.16 2030.68 1774.23 2030.51 1774 2036.33 1781.62 2036.14 1781.38 2042.12 1788.54 2041.9 1788.29 2048.02 1794.94 2047.78 1794.69 2054.03 1800.82 2053.75 1800.56 2060.13 1806.15 2059.81 1805.88 2066.29 1810.9 2065.92 1810.63 2072.5 1815.06 2072.08 1814.8 2078.74 1818.61 2078.26 1818.35 2084.99 1821.52 2084.44 1821.3 2091.22 1823.8 2090.61 1823.61 2097.43 1825.43 2096.76 1825.28 2103.6 1826.39 2102.88 1826.32 2109.74 1826.69ZM1825.75 1345.13 1790 1316 1834.76 1304.88Z" fill="#0D0D0D"/><path d="M0.219903-6.87148 7.67928-6.63277 15.3304-5.9071 22.9352-4.71915 30.4785-3.08642 37.9459-1.02623 45.3233 1.44439 52.5971 4.30872 59.828 7.58381 73.6643 15.0951 86.9515 23.9679 99.5093 34.0406 111.232 45.196 122.012 57.3195 131.74 70.2987 140.303 84.0228 147.586 98.3817 153.439 113.184 155.843 120.867 157.826 128.56 159.397 136.328 160.54 144.157 161.238 152.031 161.468 159.726 161.692 167.221 161.668 166.819 162.331 174.299 162.286 173.913 163.373 181.363 163.309 180.993 164.807 188.4 164.726 188.047 166.62 195.395 166.524 195.058 168.8 202.332 168.632 201.858 174.275 216.129 174.013 215.547 181.014 229.349 180.716 228.82 188.963 242.037 188.631 241.553 198.01 254.068 197.647 253.622 208.045 265.317 207.647 264.905 218.951 275.662 218.513 275.279 230.61 284.982 230.126 284.628 242.902 293.159 242.364 292.834 255.706 300.077 255.263 299.857 262.111 302.959 261.793 302.824 268.741 305.56 267.675 305.237 276.787 307.208 273.88 320.647 264.222 318.558 256.595 315.555 249.364 312.28 235.528 304.769 222.241 295.896 209.683 285.823 197.96 274.668 187.18 262.544 177.452 249.565 168.889 235.841 161.606 221.482 155.753 206.679 153.349 198.997 151.366 191.303 149.795 183.535 148.652 175.706 147.954 167.833 147.724 160.137 147.5 152.643 147.524 153.044 146.861 145.565 146.906 145.951 145.819 138.5 145.883 138.87 144.385 131.464 144.466 131.817 142.572 124.469 142.668 124.806 140.392 117.531 140.56 118.006 134.917 103.735 135.179 104.317 128.178 90.5142 128.476 91.0435 120.229 77.8265 120.561 78.3103 111.182 65.7961 111.545 66.2412 101.147 54.547 101.545 54.959 90.2413 44.2019 90.679 44.5845 78.5823 34.8816 79.066 35.2361 66.29 26.7046 66.8279 27.0292 53.4857 19.7862 53.9292 20.0067 47.0812 16.905 47.3987 17.0393 40.4516 14.3037 40.7874 14.4259 33.7554 12.071 34.1101 12.1792 27.0073 10.2196 27.3814 10.3116 20.222 8.76199 20.6153 8.83521 13.4134 7.7102 13.8254 7.76186 6.59519 7.07612 7.02443 7.10332-0.219903 6.87148ZM272.123 292.425 309.192 319.864 265 333.056Z" fill="#0D0D0D" transform="matrix(-1 1.22465e-16 1.22465e-16 1 1572.19 1906)"/><path d="M1786.21 1905.13 1793.91 1905.36 1801.8 1906.07 1809.64 1907.23 1817.42 1908.83 1825.12 1910.84 1832.81 1913.29 1847.63 1919.23 1862.01 1926.63 1875.74 1935.33 1888.73 1945.21 1900.86 1956.15 1912.02 1968.06 1922.1 1980.8 1930.97 1994.29 1938.49 2008.33 1941.76 2015.67 1944.62 2023.05 1947.09 2030.53 1949.15 2038.11 1950.79 2045.76 1951.97 2053.47 1952.7 2061.23 1952.94 2068.8 1953.17 2076.15 1953.14 2075.73 1953.83 2083.07 1953.78 2082.67 1954.9 2089.98 1954.83 2089.59 1956.38 2096.87 1956.29 2096.5 1958.26 2103.71 1958.15 2103.36 1960.51 2110.5 1960.39 2110.17 1963.13 2117.22 1962.99 2116.91 1966.1 2123.86 1965.88 2123.42 1973.13 2136.97 1972.81 2136.44 1981.35 2149.41 1981 2148.93 1990.71 2161.22 1990.33 2160.78 2001.1 2172.26 2000.69 2171.86 2012.39 2182.42 2011.95 2182.05 2024.48 2191.57 2023.99 2191.24 2037.22 2199.61 2036.69 2199.31 2050.5 2206.42 2049.92 2206.15 2064.2 2211.88 2063.1 2211.55 2073.65 2213.84 2070.73 2227.27 2059.62 2224.86 2044.5 2218.79 2030.12 2211.39 2016.39 2202.7 2003.4 2192.82 1991.27 2181.87 1980.11 2169.97 1970.03 2157.22 1961.15 2143.74 1953.64 2129.69 1950.37 2122.36 1947.5 2114.98 1945.04 2107.49 1942.98 2099.92 1941.34 2092.27 1940.16 2084.56 1939.43 2076.8 1939.19 2069.23 1938.96 2061.87 1938.99 2062.3 1938.3 2054.95 1938.35 2055.36 1937.23 2048.04 1937.3 2048.43 1935.75 2041.16 1935.84 2041.53 1933.87 2034.32 1933.98 2034.67 1931.62 2027.53 1931.74 2027.86 1929 2020.8 1929.14 2021.12 1926.03 2014.16 1926.25 2014.6 1919 2001.05 1919.32 2001.59 1910.78 1988.61 1911.13 1989.1 1901.42 1976.81 1901.8 1977.25 1891.03 1965.77 1891.44 1966.17 1879.73 1955.61 1880.18 1955.98 1867.65 1946.45 1868.14 1946.79 1854.91 1938.41 1855.44 1938.72 1841.63 1931.61 1842.21 1931.87 1827.93 1926.14 1828.41 1926.31 1821.13 1924 1821.47 1924.1 1814.12 1922.18 1814.47 1922.26 1807.06 1920.74 1807.44 1920.81 1799.98 1919.7 1800.37 1919.75 1792.88 1919.07 1793.29 1919.1 1785.79 1918.87ZM2068.69 2199.1 2106.13 2226.03 2062.12 2239.82Z" fill="#0D0D0D"/><path d="M1625.88 1385 1625.88 1497.77 1612.13 1497.77 1612.13 1385ZM1639.63 1490.89 1619 1532.14 1598.38 1490.89Z" fill="#FF0000"/><path d="M1757.88 1385 1757.88 1497.77 1744.13 1497.77 1744.13 1385ZM1771.63 1490.89 1751 1532.14 1730.38 1490.89Z" fill="#FF0000"/><path d="M1625.88 1687 1625.88 1799.77 1612.13 1799.77 1612.13 1687ZM1639.63 1792.89 1619 1834.14 1598.38 1792.89Z" fill="#FF0000"/><path d="M1759.88 1687 1759.88 1799.77 1746.13 1799.77 1746.13 1687ZM1773.63 1792.89 1753 1834.14 1732.38 1792.89Z" fill="#FF0000"/><rect x="1449.5" y="1533.5" width="483" height="154" stroke="#000000" stroke-width="4.58333" stroke-miterlimit="8" fill="#FFFFFF"/><text font-family="Calibri,Calibri_MSFontService,sans-serif" font-weight="400" font-size="92" transform="matrix(1 0 0 1 1518.99 1641)">Compute</text><path d="M2588 1492 3175.5 1492 3293 1609.5 3293 2388 2588 2388Z" stroke="#000000" stroke-width="13.75" stroke-miterlimit="8" fill="none" fill-rule="evenodd"/><path d="M2514 2251C2514 2209.58 2548.47 2176 2591 2176 2633.53 2176 2668 2209.58 2668 2251 2668 2292.42 2633.53 2326 2591 2326 2548.47 2326 2514 2292.42 2514 2251Z" fill="#AFABAB" fill-rule="evenodd"/><path d="M2513.5 2240.01 2619.2 2240.01 2619.2 2218.5 2662.5 2250.5 2619.2 2282.5 2619.2 2260.99 2513.5 2260.99Z" stroke="#000000" stroke-width="4.58333" stroke-miterlimit="8" fill-rule="evenodd"/><path d="M2511 2250.5C2511 2208.25 2546.15 2174 2589.5 2174 2632.85 2174 2668 2208.25 2668 2250.5 2668 2292.75 2632.85 2327 2589.5 2327 2546.15 2327 2511 2292.75 2511 2250.5Z" stroke="#000000" stroke-width="10.3125" stroke-miterlimit="8" fill="none" fill-rule="evenodd"/><path d="M2507 1935C2507 1893.58 2541.47 1860 2584 1860 2626.53 1860 2661 1893.58 2661 1935 2661 1976.42 2626.53 2010 2584 2010 2541.47 2010 2507 1976.42 2507 1935Z" fill="#AFABAB" fill-rule="evenodd"/><path d="M2656.5 1945.65 2555.48 1945.65 2555.48 1967.5 2511.5 1935 2555.48 1902.5 2555.48 1924.35 2656.5 1924.35Z" stroke="#000000" stroke-width="4.58333" stroke-miterlimit="8" fill-rule="evenodd"/><path d="M2505 1934.5C2505 1892.25 2540.15 1858 2583.5 1858 2626.85 1858 2662 1892.25 2662 1934.5 2662 1976.75 2626.85 2011 2583.5 2011 2540.15 2011 2505 1976.75 2505 1934.5Z" stroke="#000000" stroke-width="10.3125" stroke-miterlimit="8" fill="none" fill-rule="evenodd"/><path d="M2622.5 1654.17C2622.5 1621.77 2648.77 1595.5 2681.17 1595.5L3200.83 1595.5C3233.23 1595.5 3259.5 1621.77 3259.5 1654.17L3259.5 1704.83C3259.5 1737.23 3233.23 1763.5 3200.83 1763.5L2681.17 1763.5C2648.77 1763.5 2622.5 1737.23 2622.5 1704.83Z" stroke="#000000" stroke-width="4.58333" stroke-miterlimit="8" fill="#FFFFFF" fill-rule="evenodd"/><text font-family="Calibri,Calibri_MSFontService,sans-serif" font-weight="400" font-size="92" transform="matrix(1 0 0 1 2718.03 1710)">remote.fmu</text><rect x="183.5" y="1965.5" width="456" height="206" stroke="#000000" stroke-width="4.58333" stroke-miterlimit="8" fill="#FFFFFF"/><text font-family="Calibri,Calibri_MSFontService,sans-serif" font-weight="400" font-size="92" transform="matrix(1 0 0 1 239.485 2044)">Compute </text><text font-family="Calibri,Calibri_MSFontService,sans-serif" font-weight="400" font-size="92" transform="matrix(1 0 0 1 230.96 2154)">Dynamics</text><path d="M404.125 1964.89 404.125 1926.12 672.608 1926.12 672.608 1939.88 411 1939.88 417.875 1933 417.875 1964.89ZM665.733 1912.38 706.983 1933 665.733 1953.62Z" fill="#0D0D0D"/><path d="M1688.5 948C1638.52 948 1598 906.362 1598 855 1598 803.637 1638.52 762 1688.5 762 1738.48 762 1779 803.637 1779 855 1779 906.362 1738.48 948 1688.5 948Z" fill="#AFABAB" fill-rule="evenodd"/><g><g><g><path d="M1763.92 799.083 1608.08 799.083 1676.83 867.833 1676.83 936.583 1676.83 954.917 1695.17 936.583 1695.17 867.833Z"/></g></g></g><path d="M1688 951C1637.19 951 1596 908.691 1596 856.5 1596 804.309 1637.19 762 1688 762 1738.81 762 1780 804.309 1780 856.5 1780 908.691 1738.81 951 1688 951Z" stroke="#000000" stroke-width="10.3125" stroke-miterlimit="8" fill="none" fill-rule="evenodd"/><path d="M762.466 329.597 773.173 329.744 803.875 330.993 803.316 344.732 772.706 343.487 772.891 343.492 762.277 343.346ZM817.614 331.552 818.253 331.578 858.952 334.306 858.033 348.025 817.424 345.304 817.604 345.313 817.055 345.291ZM872.828 335.485 907.785 338.731 914.057 339.473 912.441 353.128 906.255 352.396 906.428 352.414 871.557 349.176ZM927.712 341.089 952.063 343.971 968.791 346.374 966.836 359.984 950.192 357.594 950.362 357.616 926.096 354.744ZM982.401 348.329 995.899 350.268 1023.29 354.896 1021 368.454 993.692 363.84 993.859 363.866 980.446 361.94ZM1036.85 357.186 1039.21 357.583 1077.52 365.028 1074.9 378.525 1036.67 371.097 1036.83 371.127 1034.56 370.744ZM1091.14 367.91 1123.88 375.112 1131.55 376.998 1128.26 390.35 1120.68 388.484 1120.85 388.523 1088.18 381.339ZM1144.9 380.283 1165.08 385.248 1184.99 390.68 1181.37 403.946 1161.54 398.536 1161.71 398.58 1141.61 393.635ZM1198.26 394.299 1205.4 396.247 1237.98 406.037 1234.03 419.205 1201.53 409.441 1201.7 409.49 1194.64 407.564ZM1251.27 410.216 1283.06 420.68 1290.56 423.376 1285.91 436.316 1278.49 433.651 1278.67 433.712 1246.97 423.276ZM1303.5 428.026 1320.22 434.038 1342.26 442.665 1337.25 455.469 1315.3 446.877 1315.48 446.945 1298.85 440.966ZM1355.07 447.676 1356.16 448.105 1390.79 462.845 1393.38 464.043 1387.61 476.522 1385.12 475.369 1385.31 475.455 1350.87 460.796 1351.06 460.873 1350.06 460.481ZM1405.86 469.816 1424 478.207 1440.09 486.133 1443.3 487.785 1437.02 500.015 1433.85 498.39 1433.96 498.442 1418 490.579 1418.15 490.651 1400.09 482.295ZM1455.53 494.07 1455.77 494.192 1471.06 502.391 1485.94 510.726 1491.94 514.235 1485 526.103 1479.06 522.627 1479.17 522.692 1464.4 514.419 1464.51 514.479 1449.32 506.338 1449.43 506.394 1449.25 506.3ZM1503.89 521.315 1514.46 527.786 1528.07 536.502 1538.85 543.733 1531.19 555.151 1520.47 547.96 1520.6 548.042 1507.11 539.403 1507.23 539.478 1496.71 533.044ZM1550.26 551.686 1553.95 554.286 1566.19 563.345 1577.95 572.51 1583.44 577.027 1574.71 587.648 1569.28 583.188 1569.42 583.3 1557.8 574.243 1557.94 574.346 1545.83 565.386 1545.96 565.481 1542.34 562.928ZM1594.09 586.017 1599.99 591.144 1610.24 600.605 1619.98 610.157 1624.45 614.848 1614.51 624.341 1610.11 619.732 1610.27 619.892 1600.69 610.494 1600.84 610.64 1590.74 601.319 1590.89 601.453 1585.07 596.392ZM1633.93 625.136 1637.83 629.522 1645.93 639.328 1653.46 649.212 1659.78 658.275 1648.5 666.141 1642.26 657.196 1642.43 657.429 1635.07 647.767 1635.24 647.979 1627.31 638.375 1627.48 638.568 1623.66 634.277ZM1667.46 670.433 1672.5 679.303 1677.63 689.468 1682.12 699.694 1685.47 708.681 1672.59 713.491 1669.3 704.686 1669.45 705.044 1665.11 695.163 1665.27 695.494 1660.3 685.646 1660.47 685.951 1655.51 677.231ZM1689.02 722.846 1689.86 726.401 1676.48 729.559 1675.64 726.004ZM768.963 357.189 728 336 769.529 315.943ZM1702.62 718.273 1688 762.013 1661.78 724.074Z" fill="#4472C4"/><path d="M35.0586 6.13465 44.586 10.7031 51.1993 16.3615 57.2293 22.1835 63.1901 28.5906 68.1981 34.5196 57.6938 43.3922 52.7922 37.5891 53.0108 37.8357 47.2878 31.6842 47.5461 31.9473 41.7973 26.3969 42.103 26.6748 36.3314 21.7365 37.8286 22.7118 29.1136 18.533ZM76.8951 45.881 80.6968 51.2096 86.4148 59.8474 92.0758 69.0177 97.6796 78.711 99.2124 81.5318 87.1309 88.0969 85.6414 85.3558 85.7302 85.5142 80.2215 75.9855 80.3234 76.1559 74.7718 67.1628 74.8893 67.3464 69.2977 58.8997 69.4338 59.0977 65.7019 53.8669ZM105.739 93.8222 108.713 99.627 114.141 110.83 119.507 122.516 123.443 131.543 110.839 137.04 106.929 128.073 106.983 128.194 101.675 116.632 101.735 116.761 96.3724 105.691 96.4409 105.829 93.5017 100.092ZM128.816 144.333 130.046 147.299 135.216 160.374 140.316 173.892 143.658 183.165 130.723 187.827 127.398 178.602 127.433 178.698 122.37 165.278 122.409 165.379 117.281 152.408 117.324 152.515 116.116 149.603ZM148.236 196.232 150.297 202.214 155.174 216.997 159.971 232.18 161.041 235.716 147.881 239.7 146.823 236.204 146.847 236.283 142.076 221.18 142.103 221.263 137.254 206.565 137.283 206.651 135.236 200.713ZM165.035 248.956 169.321 263.725 176.154 288.795 162.888 292.411 156.07 267.395 156.1 267.503 151.83 252.789ZM179.695 302.225 186.936 331.1 189.545 342.415 176.147 345.505 173.552 334.254 173.583 334.381 166.358 305.57ZM192.635 355.814 195.167 366.796 201.403 396.246 187.951 399.095 181.728 369.705 181.755 369.825 179.236 358.903ZM204.171 409.834 210.362 441.756 211.904 450.467 198.365 452.863 196.833 444.208 196.853 444.318 190.673 412.452ZM214.301 464.006 217.281 480.847 221.13 504.796 207.555 506.978 203.714 483.082 203.732 483.19 200.761 466.403ZM223.312 518.372 223.718 520.896 229.284 559.294 215.676 561.266 210.118 522.921 210.134 523.026 209.737 520.553ZM231.102 573.028 235.054 603.525 236.26 614.056 222.599 615.62 221.399 605.14 221.412 605.241 217.466 574.794ZM237.823 627.717 239.908 645.931 242.188 668.836 228.505 670.198 226.231 647.343 226.242 647.444 224.162 629.281ZM243.549 682.519 244.189 688.949 247.131 723.714 233.43 724.874 230.492 690.159 230.502 690.26 229.867 683.88ZM248.225 737.523 250.941 776.472 251.067 778.777 237.337 779.528 237.214 777.274 237.22 777.377 234.508 738.479ZM251.818 792.507 253.366 820.803 253.879 833.809 240.14 834.351 239.628 821.398 239.633 821.502 238.088 793.258ZM254.421 847.548 255.126 865.399 255.689 888.884 241.943 889.214 241.381 865.782 241.385 865.888 240.682 848.091ZM256.018 902.63 256.199 910.172 256.284 920.605 242.534 920.717 242.45 910.338 242.452 910.447 242.272 902.96ZM31.103 34.0522 0 0 45.9036-4.45106ZM269.978 913.619 249.687 955.035 228.729 913.953Z" fill="#4472C4" transform="matrix(-1.83697e-16 -1 -1 1.83697e-16 1688.03 761.687)"/><path d="M34.5178-6.58167 75.7587-5.71746 75.4707 8.02952 34.2297 7.16531ZM89.618-5.24949 118.091-4.16575 130.93-3.48829 130.206 10.2426 117.417 9.5678 117.518 9.57238 89.095 8.49056ZM144.661-2.7638 155.991-2.16601 174.514-0.981724 185.957-0.163323 184.976 13.5516 173.559 12.7351 173.611 12.7386 155.152 11.5584 155.228 11.5629 143.937 10.9671ZM199.721 0.875886 210.453 1.72698 227.805 3.24233 240.923 4.49768 239.613 18.1852 226.523 16.9325 226.58 16.9377 209.285 15.4272 209.339 15.4318 198.634 14.5829ZM254.661 5.8999 261.08 6.5705 276.928 8.37362 292.198 10.263 295.828 10.7513 293.996 24.3786 290.401 23.8952 290.474 23.9045 275.273 22.0237 275.34 22.0317 259.557 20.2359 259.62 20.2428 253.233 19.5755ZM309.53 12.6255 320.857 14.282 334.17 16.4026 346.758 18.5915 350.531 19.3104 347.957 32.8174 344.239 32.1089 344.348 32.1288 331.863 29.9577 331.959 29.9738 318.737 27.8678 318.824 27.881 307.54 26.2307ZM364.143 22.0112 369.615 23.1596 379.816 25.533 389.158 27.9644 397.614 30.4557 404.756 32.8762 400.342 45.8987 393.331 43.5226 393.595 43.6061 385.377 41.1848 385.588 41.2434 376.439 38.8622 376.613 38.905 366.572 36.5688 366.718 36.6011 361.319 35.4681ZM418.69 39.1465 422.384 41.4239 426.415 44.8678 429.495 49.2018 430.489 53.3434 430.919 56.1954 430.397 54.4131 431.541 56.9695 430.799 55.6986 432.677 58.245 431.953 57.4119 434.539 59.9433 433.917 59.4036 437.188 61.915 436.676 61.5578 440.606 64.0441 440.188 63.7997 444.754 66.2561 444.409 66.083 445.876 66.7691 440.051 79.2241 438.409 78.4562 433.46 75.7937 429.061 73.0109 425.216 70.0581 421.939 66.8509 419.294 63.2633 417.464 59.176 416.937 55.6878 417.049 56.2643 416.435 53.7029 417.516 56.0822 415.7 53.5258 416.838 54.7703 413.857 52.224 414.715 52.8488 411.474 50.8507ZM458.025 71.8484 461.143 73 460.934 72.9266 467.797 75.2127 467.614 75.1548 474.99 77.3859 474.829 77.3393 482.694 79.5104 482.55 79.4723 490.879 81.5783 490.748 81.5466 496.824 82.9572 493.714 96.3509 487.573 94.9252 479.107 92.7845 471.09 90.5713 463.542 88.2882 456.483 85.9367 453.261 84.7467ZM510.035 85.8013 518.047 87.375 517.944 87.3556 527.886 89.1513 527.742 89.1269 548.627 92.4431 548.45 92.4173 550.27 92.6578 548.468 106.289 546.56 106.037 525.514 102.695 515.448 100.877 507.385 99.2935ZM563.901 94.4598 570.509 95.3332 570.342 95.3133 593.379 97.7888 593.218 97.7734 604.594 98.7263 603.446 112.428 591.99 111.469 568.79 108.976 562.099 108.091ZM618.139 99.8333 641.281 101.232 641.12 101.224 659.173 101.889 658.667 115.63 640.533 114.961 617.31 113.558ZM672.751 102.222 690.74 102.447 690.607 102.447 713.867 102.291 713.959 116.04 690.633 116.197 672.578 115.971ZM727.525 102.043 740.304 101.791 740.218 101.793 764.622 101.003 764.536 101.006 768.583 100.825 769.199 114.561 765.11 114.745 740.619 115.537 727.796 115.79ZM782.319 100.209 788.354 99.938 788.267 99.9425 811.303 98.6167 811.213 98.6225 823.317 97.7656 824.288 111.481 812.139 112.341 789.014 113.672 782.935 113.945ZM836.932 96.7489 854.06 95.2924 853.981 95.2996 863.922 94.3379 863.865 94.3437 873.44 93.3364 873.379 93.3432 877.793 92.8384 879.356 106.499 874.91 107.008 865.275 108.021 855.265 108.99 838.097 110.449ZM891.302 91.2051 899.519 90.0924 899.436 90.1042 907.301 88.9415 907.207 88.956 914.583 87.7611 913.7 87.9647 923.24 85.0916 927.205 98.2575 917.23 101.262 909.359 102.537 901.406 103.712 893.147 104.831ZM41.0734 20.9744 0 0 41.4236-20.2741ZM911.776 74.5905 957.571 80.0477 925.729 113.409Z" fill="#4472C4" transform="matrix(1 0 0 -1 729 847.048)"/><path d="M762.412 669.315 803.662 669.542 803.586 683.292 762.337 683.065ZM817.412 669.618 817.93 669.621 858.73 670.281 858.507 684.03 817.744 683.37 817.817 683.37 817.336 683.368ZM872.478 670.504 907.145 671.065 913.775 671.224 913.445 684.971 906.842 684.812 906.896 684.813 872.255 684.252ZM927.521 671.554 951.282 672.124 968.792 672.634 968.392 686.378 950.9 685.869 950.935 685.87 927.191 685.3ZM982.536 673.034 994.971 673.396 1023.8 674.383 1023.33 688.125 994.518 687.139 994.553 687.14 982.136 686.779ZM1037.54 674.854 1038.13 674.874 1078.79 676.476 1078.25 690.215 1037.61 688.614 1037.64 688.616 1037.07 688.596ZM1092.57 677.08 1122.52 678.415 1133.81 678.978 1133.12 692.711 1121.86 692.149 1121.89 692.151 1091.95 690.816ZM1147.54 679.663 1163.58 680.463 1188.77 681.856 1188.01 695.585 1162.84 694.193 1162.87 694.195 1146.86 693.396ZM1202.5 682.615 1203.75 682.684 1242.97 685.072 1243.75 685.125 1242.84 698.844 1242.07 698.793 1242.11 698.796 1202.94 696.41 1202.98 696.412 1201.74 696.344ZM1257.47 686.04 1281.12 687.619 1298.66 688.896 1297.67 702.61 1280.15 701.334 1280.19 701.337 1256.56 699.76ZM1312.38 689.895 1318.14 690.315 1353.55 693.124 1352.46 706.831 1317.08 704.024 1317.12 704.027 1311.38 703.609ZM1367.29 694.307 1388.41 696.13 1408.43 698.007 1407.14 711.696 1387.15 709.822 1387.2 709.826 1366.11 708.006ZM1422.16 699.298 1437.47 700.828 1453.07 702.453 1463.25 703.559 1461.76 717.228 1451.6 716.124 1451.63 716.127 1436.06 714.505 1436.09 714.508 1420.79 712.98ZM1476.95 705.089 1483.09 705.786 1497.47 707.492 1511.44 709.223 1518 710.076 1516.23 723.711 1509.69 722.862 1509.72 722.866 1495.8 721.14 1495.84 721.144 1481.48 719.442 1481.52 719.446 1475.39 718.751ZM1531.68 711.892 1538.04 712.758 1550.66 714.56 1562.81 716.383 1572.63 717.934 1570.48 731.515 1560.69 729.969 1560.75 729.977 1548.64 728.161 1548.69 728.168 1536.12 726.373 1536.16 726.38 1529.82 725.517ZM1586.31 720.205 1596.35 721.975 1606.53 723.877 1616.19 725.798 1625.32 727.737 1627.13 728.151 1624.08 741.557 1622.31 741.155 1622.41 741.177 1613.38 739.258 1613.46 739.275 1603.89 737.371 1603.96 737.386 1593.86 735.497 1593.93 735.51 1583.93 733.746ZM1640.63 731.343 1641.96 731.67 1649.94 733.795 1660.85 738.784 1655.13 751.288 1644.75 746.541 1645.85 746.933 1638.49 744.975 1638.62 745.008 1637.35 744.696ZM769.136 696.852 728 676 769.363 655.603ZM1662.42 723.752 1687.7 762.326 1641.68 759.405Z" fill="#4472C4"/><path d="M123 112 584.665 112 677 204.335 677 948 123 948Z" stroke="#000000" stroke-width="13.75" stroke-miterlimit="8" fill="none" fill-rule="evenodd"/><path d="M628.5 514C628.5 486.109 652.229 463.5 681.5 463.5 710.771 463.5 734.5 486.109 734.5 514 734.5 541.89 710.771 564.5 681.5 564.5 652.229 564.5 628.5 541.89 628.5 514Z" stroke="#000000" stroke-width="4.58333" stroke-miterlimit="8" fill="#AFABAB" fill-rule="evenodd"/><g><g><g><path d="M56 53.6667 38.5 54.95 38.5 33.8334C38.5 24.15 46.3167 16.3333 56 16.3333 65.6834 16.3333 73.5 24.15 73.5 33.8334L73.5 40.8334 80.5 40.8334 80.5 33.8334C80.5 20.3 69.5334 9.33334 56 9.33334 42.4667 9.33334 31.5 20.3 31.5 33.8334L31.5 55.4167 23.3333 56 23.3333 100.333 56 102.667 88.6667 100.333 88.6667 56 56 53.6667ZM58.3334 84.8167 58.3334 91.0001 53.6667 91.0001 53.6667 84.8167C50.9834 83.8834 49 81.3167 49 78.1667 49 74.3167 52.15 71.1667 56 71.1667 59.85 71.1667 63 74.3167 63 78.1667 63 81.2 61.0167 83.7667 58.3334 84.8167Z" stroke="#000000" stroke-width="1.16667" transform="matrix(1.04464 0 0 1 621 453)"/></g></g></g><path d="M626 512C626 483.833 649.953 461 679.5 461 709.047 461 733 483.833 733 512 733 540.167 709.047 563 679.5 563 649.953 563 626 540.167 626 512Z" stroke="#000000" stroke-width="10.3125" stroke-miterlimit="8" fill="none" fill-rule="evenodd"/><path d="M627.5 335.5C627.5 308.438 650.109 286.5 678 286.5 705.89 286.5 728.5 308.438 728.5 335.5 728.5 362.562 705.89 384.5 678 384.5 650.109 384.5 627.5 362.562 627.5 335.5Z" stroke="#000000" stroke-width="4.58333" stroke-miterlimit="8" fill="#AFABAB" fill-rule="evenodd"/><g><g><g><path d="M61.9791 85.7791 61.9791 92.3489 57.0208 92.3489 57.0208 85.7791C54.1698 84.7875 52.0625 82.0604 52.0625 78.7135 52.0625 74.6229 55.4093 71.276 59.5 71.276 63.5906 71.276 66.9375 74.6229 66.9375 78.7135 66.9375 81.9364 64.8302 84.6635 61.9791 85.7791ZM40.9062 40.2864C40.9062 29.9979 49.2114 21.6927 59.5 21.6927 69.7885 21.6927 78.0937 29.9979 78.0937 40.2864L78.0937 54.0458 59.5 52.6823 40.9062 54.0458 40.9062 40.2864ZM85.5312 54.5416 85.5312 40.2864C85.5312 25.9073 73.8791 14.2552 59.5 14.2552 45.1208 14.2552 33.4687 25.9073 33.4687 40.2864L33.4687 54.5416 24.7917 55.1614 24.7917 102.266 59.5 104.745 94.2083 102.266 94.2083 55.1614 85.5312 54.5416Z" stroke="#000000" stroke-width="1.23958" transform="matrix(1.01681 0 0 1 616 272)"/></g></g></g><path d="M625 336C625 308.386 648.057 286 676.5 286 704.943 286 728 308.386 728 336 728 363.614 704.943 386 676.5 386 648.057 386 625 363.614 625 336Z" stroke="#000000" stroke-width="10.3125" stroke-miterlimit="8" fill="none" fill-rule="evenodd"/><path d="M627.5 848.5C627.5 821.438 650.109 799.5 678 799.5 705.89 799.5 728.5 821.438 728.5 848.5 728.5 875.562 705.89 897.5 678 897.5 650.109 897.5 627.5 875.562 627.5 848.5Z" stroke="#000000" stroke-width="4.58333" stroke-miterlimit="8" fill="#AFABAB" fill-rule="evenodd"/><path d="M631.055 826.452 650.714 804.591 677 828.23 703.286 804.591 722.945 826.452 698.984 848 722.945 869.548 703.286 891.409 677 867.77 650.714 891.409 631.055 869.548 655.016 848Z" stroke="#000000" stroke-width="4.58333" stroke-miterlimit="8" fill-rule="evenodd"/><path d="M626 847C626 819.386 649.057 797 677.5 797 705.943 797 729 819.386 729 847 729 874.614 705.943 897 677.5 897 649.057 897 626 874.614 626 847Z" stroke="#000000" stroke-width="10.3125" stroke-miterlimit="8" fill="none" fill-rule="evenodd"/><path d="M627.5 676.5C627.5 649.438 650.109 627.5 678 627.5 705.89 627.5 728.5 649.438 728.5 676.5 728.5 703.562 705.89 725.5 678 725.5 650.109 725.5 627.5 703.562 627.5 676.5Z" stroke="#000000" stroke-width="4.58333" stroke-miterlimit="8" fill="#AFABAB" fill-rule="evenodd"/><path d="M628.5 662.168 663.168 662.168 663.168 627.5 690.832 627.5 690.832 662.168 725.5 662.168 725.5 689.832 690.832 689.832 690.832 724.5 663.168 724.5 663.168 689.832 628.5 689.832Z" stroke="#000000" stroke-width="4.58333" stroke-miterlimit="8" fill-rule="evenodd"/><path d="M625 676C625 648.386 648.057 626 676.5 626 704.943 626 728 648.386 728 676 728 703.614 704.943 726 676.5 726 648.057 726 625 703.614 625 676Z" stroke="#000000" stroke-width="10.3125" stroke-miterlimit="8" fill="none" fill-rule="evenodd"/><path d="M146.5 226.707C146.5 203.949 164.949 185.5 187.707 185.5L598.293 185.5C621.051 185.5 639.5 203.949 639.5 226.707L639.5 262.293C639.5 285.051 621.051 303.5 598.293 303.5L187.707 303.5C164.949 303.5 146.5 285.051 146.5 262.293Z" stroke="#000000" stroke-width="4.58333" stroke-miterlimit="8" fill="#FFFFFF" fill-rule="evenodd"/><text font-family="Calibri,Calibri_MSFontService,sans-serif" font-weight="400" font-size="92" transform="matrix(1 0 0 1 217.971 275)">C</text><text font-family="Calibri,Calibri_MSFontService,sans-serif" font-weight="400" font-size="92" transform="matrix(1 0 0 1 266.669 275)">i</text><text font-family="Calibri,Calibri_MSFontService,sans-serif" font-weight="400" font-size="92" transform="matrix(1 0 0 1 287.867 275)">pher</text><text font-family="Calibri,Calibri_MSFontService,sans-serif" font-weight="400" font-size="92" transform="matrix(1 0 0 1 452.821 275)">.dll</text><path d="M6.87485-0.0449847 7.14476 41.2041-6.60494 41.2941-6.87485 0.0449847ZM7.23473 54.9538 7.50464 96.2029-6.24507 96.2929-6.51498 55.0438ZM7.59461 109.953 7.86452 151.202-5.88519 151.292-6.1551 110.043ZM7.95449 164.951 8.18444 200.095-5.56526 200.185-5.79522 165.041ZM21.8892 193.13 1.53451 234.514-19.36 193.4Z" fill="#4472C4" transform="matrix(-1 0 0 1 1687.53 951)"/><rect x="2787.5" y="1983.5" width="433" height="193" stroke="#000000" stroke-width="4.58333" stroke-miterlimit="8" fill="#FFFFFF"/><text font-family="Calibri,Calibri_MSFontService,sans-serif" font-weight="400" font-size="92" transform="matrix(1 0 0 1 2832.69 2055)">Compute </text><text font-family="Calibri,Calibri_MSFontService,sans-serif" font-weight="400" font-size="92" transform="matrix(1 0 0 1 2824.17 2165)">Dynamics</text><path d="M0-6.875 55.4089-6.875 55.4089 307.726 41.6589 307.726 41.6589 0 48.5339 6.875 0 6.875ZM69.1589 300.851 48.5339 342.101 27.9089 300.851Z" fill="#0D0D0D" transform="matrix(-1.83697e-16 -1 -1 1.83697e-16 3004.1 1982.53)"/><path d="M1587 1915C1587 1861.98 1632 1819 1687.5 1819 1743 1819 1788 1861.98 1788 1915 1788 1968.02 1743 2011 1687.5 2011 1632 2011 1587 1968.02 1587 1915Z" fill="#AFABAB" fill-rule="evenodd"/><g><g><g><path d="M107 102.542 73.5626 104.994 73.5626 64.6459C73.5626 46.1438 88.498 31.2084 107 31.2084 125.502 31.2084 140.438 46.1438 140.438 64.6459L140.438 78.0209 153.813 78.0209 153.813 64.6459C153.813 38.7875 132.858 17.8333 107 17.8333 81.1417 17.8333 60.1875 38.7875 60.1875 64.6459L60.1875 105.885 44.5834 107 44.5834 191.708 107 196.167 169.417 191.708 169.417 107 107 102.542ZM111.458 162.061 111.458 173.875 102.542 173.875 102.542 162.061C97.4147 160.277 93.6251 155.373 93.6251 149.354 93.6251 141.998 99.6438 135.979 107 135.979 114.356 135.979 120.375 141.998 120.375 149.354 120.375 155.15 116.586 160.054 111.458 162.061Z" transform="matrix(1.04206 0 0 1 1573 1799)"/></g></g></g><path d="M1583 1912C1583 1858.43 1628.44 1815 1684.5 1815 1740.56 1815 1786 1858.43 1786 1912 1786 1965.57 1740.56 2009 1684.5 2009 1628.44 2009 1583 1965.57 1583 1912Z" stroke="#000000" stroke-width="10.3125" stroke-miterlimit="8" fill="none" fill-rule="evenodd"/><path d="M1591 1314.5C1591 1261.2 1635.55 1218 1690.5 1218 1745.45 1218 1790 1261.2 1790 1314.5 1790 1367.8 1745.45 1411 1690.5 1411 1635.55 1411 1591 1367.8 1591 1314.5Z" fill="#AFABAB" fill-rule="evenodd"/><g><g><g><path d="M120.312 166.512 120.312 179.266 110.688 179.266 110.688 166.512C105.153 164.588 101.062 159.294 101.062 152.797 101.062 144.856 107.559 138.359 115.5 138.359 123.441 138.359 129.938 144.856 129.938 152.797 129.938 159.053 125.847 164.347 120.312 166.512ZM79.4062 78.2031C79.4062 58.2313 95.5281 42.1094 115.5 42.1094 135.472 42.1094 151.594 58.2313 151.594 78.2031L151.594 104.912 115.5 102.266 79.4062 104.912 79.4062 78.2031ZM166.031 105.875 166.031 78.2031C166.031 50.2906 143.412 27.6719 115.5 27.6719 87.5875 27.6719 64.9688 50.2906 64.9688 78.2031L64.9688 105.875 48.125 107.078 48.125 198.516 115.5 203.328 182.875 198.516 182.875 107.078 166.031 105.875Z" transform="matrix(1.0303 0 0 1 1570 1192)"/></g></g></g><path d="M1588 1316C1588 1261.88 1633.22 1218 1689 1218 1744.78 1218 1790 1261.88 1790 1316 1790 1370.12 1744.78 1414 1689 1414 1633.22 1414 1588 1370.12 1588 1316Z" stroke="#000000" stroke-width="10.3125" stroke-miterlimit="8" fill="none" fill-rule="evenodd"/></g></svg>