<?xml version="1.0" encoding="UTF-8" standalone="no"?>
<!-- Created with Inkscape (http://www.inkscape.org/) -->

<svg
   version="1.1"
   id="svg2"
   width="560"
   height="420"
   viewBox="0 0 560 420"
   sodipodi:docname="Delta_Nu.eps"
   xmlns:inkscape="http://www.inkscape.org/namespaces/inkscape"
   xmlns:sodipodi="http://sodipodi.sourceforge.net/DTD/sodipodi-0.dtd"
   xmlns="http://www.w3.org/2000/svg"
   xmlns:svg="http://www.w3.org/2000/svg">
  <defs
     id="defs6" />
  <sodipodi:namedview
     id="namedview4"
     pagecolor="#ffffff"
     bordercolor="#000000"
     borderopacity="0.25"
     inkscape:showpageshadow="2"
     inkscape:pageopacity="0.0"
     inkscape:pagecheckerboard="0"
     inkscape:deskcolor="#d1d1d1" />
  <g
     id="g8"
     inkscape:groupmode="layer"
     inkscape:label="ink_ext_XXXXXX"
     transform="matrix(1.3333333,0,0,-1.3333333,0,420)">
    <g
       id="g10"
       transform="scale(0.1)">
      <path
         d="M 0,0 H 4200 V 3150 H 0 Z"
         style="fill:#ffffff;fill-opacity:1;fill-rule:nonzero;stroke:none"
         id="path12" />
      <path
         d="M 0,0 H 4200 V 3150 H 0 Z"
         style="fill:#ffffff;fill-opacity:1;fill-rule:nonzero;stroke:none"
         id="path14" />
      <path
         d="M 546,552 H 3804 V 2916 H 546 Z"
         style="fill:#ffffff;fill-opacity:1;fill-rule:nonzero;stroke:none"
         id="path16" />
      <path
         d="M 546,552 H 3804"
         style="fill:none;stroke:#262626;stroke-width:4.998;stroke-linecap:square;stroke-linejoin:round;stroke-miterlimit:10;stroke-dasharray:none;stroke-opacity:1"
         id="path18" />
      <path
         d="M 546,2916 H 3804"
         style="fill:none;stroke:#262626;stroke-width:4.998;stroke-linecap:square;stroke-linejoin:round;stroke-miterlimit:10;stroke-dasharray:none;stroke-opacity:1"
         id="path20" />
      <path
         d="M 546,552 V 519.422"
         style="fill:none;stroke:#262626;stroke-width:4.998;stroke-linecap:square;stroke-linejoin:round;stroke-miterlimit:10;stroke-dasharray:none;stroke-opacity:1"
         id="path22" />
      <path
         d="M 1668.25,552 V 519.422"
         style="fill:none;stroke:#262626;stroke-width:4.998;stroke-linecap:square;stroke-linejoin:round;stroke-miterlimit:10;stroke-dasharray:none;stroke-opacity:1"
         id="path24" />
      <path
         d="M 2790.5,552 V 519.422"
         style="fill:none;stroke:#262626;stroke-width:4.998;stroke-linecap:square;stroke-linejoin:round;stroke-miterlimit:10;stroke-dasharray:none;stroke-opacity:1"
         id="path26" />
      <path
         d="m 546,2916 v 32.58"
         style="fill:none;stroke:#262626;stroke-width:4.998;stroke-linecap:square;stroke-linejoin:round;stroke-miterlimit:10;stroke-dasharray:none;stroke-opacity:1"
         id="path28" />
      <path
         d="m 1668.25,2916 v 32.58"
         style="fill:none;stroke:#262626;stroke-width:4.998;stroke-linecap:square;stroke-linejoin:round;stroke-miterlimit:10;stroke-dasharray:none;stroke-opacity:1"
         id="path30" />
      <path
         d="m 2790.5,2916 v 32.58"
         style="fill:none;stroke:#262626;stroke-width:4.998;stroke-linecap:square;stroke-linejoin:round;stroke-miterlimit:10;stroke-dasharray:none;stroke-opacity:1"
         id="path32" />
      <path
         d="M 546,552 V 535.711"
         style="fill:none;stroke:#262626;stroke-width:4.998;stroke-linecap:square;stroke-linejoin:round;stroke-miterlimit:10;stroke-dasharray:none;stroke-opacity:1"
         id="path34" />
      <path
         d="M 883.828,552 V 535.711"
         style="fill:none;stroke:#262626;stroke-width:4.998;stroke-linecap:square;stroke-linejoin:round;stroke-miterlimit:10;stroke-dasharray:none;stroke-opacity:1"
         id="path36" />
      <path
         d="M 1081.45,552 V 535.711"
         style="fill:none;stroke:#262626;stroke-width:4.998;stroke-linecap:square;stroke-linejoin:round;stroke-miterlimit:10;stroke-dasharray:none;stroke-opacity:1"
         id="path38" />
      <path
         d="M 1221.67,552 V 535.711"
         style="fill:none;stroke:#262626;stroke-width:4.998;stroke-linecap:square;stroke-linejoin:round;stroke-miterlimit:10;stroke-dasharray:none;stroke-opacity:1"
         id="path40" />
      <path
         d="M 1330.42,552 V 535.711"
         style="fill:none;stroke:#262626;stroke-width:4.998;stroke-linecap:square;stroke-linejoin:round;stroke-miterlimit:10;stroke-dasharray:none;stroke-opacity:1"
         id="path42" />
      <path
         d="M 1419.28,552 V 535.711"
         style="fill:none;stroke:#262626;stroke-width:4.998;stroke-linecap:square;stroke-linejoin:round;stroke-miterlimit:10;stroke-dasharray:none;stroke-opacity:1"
         id="path44" />
      <path
         d="M 1494.41,552 V 535.711"
         style="fill:none;stroke:#262626;stroke-width:4.998;stroke-linecap:square;stroke-linejoin:round;stroke-miterlimit:10;stroke-dasharray:none;stroke-opacity:1"
         id="path46" />
      <path
         d="M 1559.5,552 V 535.711"
         style="fill:none;stroke:#262626;stroke-width:4.998;stroke-linecap:square;stroke-linejoin:round;stroke-miterlimit:10;stroke-dasharray:none;stroke-opacity:1"
         id="path48" />
      <path
         d="M 1616.9,552 V 535.711"
         style="fill:none;stroke:#262626;stroke-width:4.998;stroke-linecap:square;stroke-linejoin:round;stroke-miterlimit:10;stroke-dasharray:none;stroke-opacity:1"
         id="path50" />
      <path
         d="M 1668.25,552 V 535.711"
         style="fill:none;stroke:#262626;stroke-width:4.998;stroke-linecap:square;stroke-linejoin:round;stroke-miterlimit:10;stroke-dasharray:none;stroke-opacity:1"
         id="path52" />
      <path
         d="M 1668.25,552 V 535.711"
         style="fill:none;stroke:#262626;stroke-width:4.998;stroke-linecap:square;stroke-linejoin:round;stroke-miterlimit:10;stroke-dasharray:none;stroke-opacity:1"
         id="path54" />
      <path
         d="M 2006.08,552 V 535.711"
         style="fill:none;stroke:#262626;stroke-width:4.998;stroke-linecap:square;stroke-linejoin:round;stroke-miterlimit:10;stroke-dasharray:none;stroke-opacity:1"
         id="path56" />
      <path
         d="M 2203.7,552 V 535.711"
         style="fill:none;stroke:#262626;stroke-width:4.998;stroke-linecap:square;stroke-linejoin:round;stroke-miterlimit:10;stroke-dasharray:none;stroke-opacity:1"
         id="path58" />
      <path
         d="M 2343.92,552 V 535.711"
         style="fill:none;stroke:#262626;stroke-width:4.998;stroke-linecap:square;stroke-linejoin:round;stroke-miterlimit:10;stroke-dasharray:none;stroke-opacity:1"
         id="path60" />
      <path
         d="M 2452.68,552 V 535.711"
         style="fill:none;stroke:#262626;stroke-width:4.998;stroke-linecap:square;stroke-linejoin:round;stroke-miterlimit:10;stroke-dasharray:none;stroke-opacity:1"
         id="path62" />
      <path
         d="M 2541.54,552 V 535.711"
         style="fill:none;stroke:#262626;stroke-width:4.998;stroke-linecap:square;stroke-linejoin:round;stroke-miterlimit:10;stroke-dasharray:none;stroke-opacity:1"
         id="path64" />
      <path
         d="M 2616.67,552 V 535.711"
         style="fill:none;stroke:#262626;stroke-width:4.998;stroke-linecap:square;stroke-linejoin:round;stroke-miterlimit:10;stroke-dasharray:none;stroke-opacity:1"
         id="path66" />
      <path
         d="M 2681.75,552 V 535.711"
         style="fill:none;stroke:#262626;stroke-width:4.998;stroke-linecap:square;stroke-linejoin:round;stroke-miterlimit:10;stroke-dasharray:none;stroke-opacity:1"
         id="path68" />
      <path
         d="M 2739.16,552 V 535.711"
         style="fill:none;stroke:#262626;stroke-width:4.998;stroke-linecap:square;stroke-linejoin:round;stroke-miterlimit:10;stroke-dasharray:none;stroke-opacity:1"
         id="path70" />
      <path
         d="M 2790.5,552 V 535.711"
         style="fill:none;stroke:#262626;stroke-width:4.998;stroke-linecap:square;stroke-linejoin:round;stroke-miterlimit:10;stroke-dasharray:none;stroke-opacity:1"
         id="path72" />
      <path
         d="M 3128.34,552 V 535.711"
         style="fill:none;stroke:#262626;stroke-width:4.998;stroke-linecap:square;stroke-linejoin:round;stroke-miterlimit:10;stroke-dasharray:none;stroke-opacity:1"
         id="path74" />
      <path
         d="M 3325.96,552 V 535.711"
         style="fill:none;stroke:#262626;stroke-width:4.998;stroke-linecap:square;stroke-linejoin:round;stroke-miterlimit:10;stroke-dasharray:none;stroke-opacity:1"
         id="path76" />
      <path
         d="M 3466.17,552 V 535.711"
         style="fill:none;stroke:#262626;stroke-width:4.998;stroke-linecap:square;stroke-linejoin:round;stroke-miterlimit:10;stroke-dasharray:none;stroke-opacity:1"
         id="path78" />
      <path
         d="M 3574.93,552 V 535.711"
         style="fill:none;stroke:#262626;stroke-width:4.998;stroke-linecap:square;stroke-linejoin:round;stroke-miterlimit:10;stroke-dasharray:none;stroke-opacity:1"
         id="path80" />
      <path
         d="M 3663.79,552 V 535.711"
         style="fill:none;stroke:#262626;stroke-width:4.998;stroke-linecap:square;stroke-linejoin:round;stroke-miterlimit:10;stroke-dasharray:none;stroke-opacity:1"
         id="path82" />
      <path
         d="M 3738.92,552 V 535.711"
         style="fill:none;stroke:#262626;stroke-width:4.998;stroke-linecap:square;stroke-linejoin:round;stroke-miterlimit:10;stroke-dasharray:none;stroke-opacity:1"
         id="path84" />
      <path
         d="M 3804,552 V 535.711"
         style="fill:none;stroke:#262626;stroke-width:4.998;stroke-linecap:square;stroke-linejoin:round;stroke-miterlimit:10;stroke-dasharray:none;stroke-opacity:1"
         id="path86" />
      <path
         d="m 546,2916 v 16.29"
         style="fill:none;stroke:#262626;stroke-width:4.998;stroke-linecap:square;stroke-linejoin:round;stroke-miterlimit:10;stroke-dasharray:none;stroke-opacity:1"
         id="path88" />
      <path
         d="m 883.828,2916 v 16.29"
         style="fill:none;stroke:#262626;stroke-width:4.998;stroke-linecap:square;stroke-linejoin:round;stroke-miterlimit:10;stroke-dasharray:none;stroke-opacity:1"
         id="path90" />
      <path
         d="m 1081.45,2916 v 16.29"
         style="fill:none;stroke:#262626;stroke-width:4.998;stroke-linecap:square;stroke-linejoin:round;stroke-miterlimit:10;stroke-dasharray:none;stroke-opacity:1"
         id="path92" />
      <path
         d="m 1221.67,2916 v 16.29"
         style="fill:none;stroke:#262626;stroke-width:4.998;stroke-linecap:square;stroke-linejoin:round;stroke-miterlimit:10;stroke-dasharray:none;stroke-opacity:1"
         id="path94" />
      <path
         d="m 1330.42,2916 v 16.29"
         style="fill:none;stroke:#262626;stroke-width:4.998;stroke-linecap:square;stroke-linejoin:round;stroke-miterlimit:10;stroke-dasharray:none;stroke-opacity:1"
         id="path96" />
      <path
         d="m 1419.28,2916 v 16.29"
         style="fill:none;stroke:#262626;stroke-width:4.998;stroke-linecap:square;stroke-linejoin:round;stroke-miterlimit:10;stroke-dasharray:none;stroke-opacity:1"
         id="path98" />
      <path
         d="m 1494.41,2916 v 16.29"
         style="fill:none;stroke:#262626;stroke-width:4.998;stroke-linecap:square;stroke-linejoin:round;stroke-miterlimit:10;stroke-dasharray:none;stroke-opacity:1"
         id="path100" />
      <path
         d="m 1559.5,2916 v 16.29"
         style="fill:none;stroke:#262626;stroke-width:4.998;stroke-linecap:square;stroke-linejoin:round;stroke-miterlimit:10;stroke-dasharray:none;stroke-opacity:1"
         id="path102" />
      <path
         d="m 1616.9,2916 v 16.29"
         style="fill:none;stroke:#262626;stroke-width:4.998;stroke-linecap:square;stroke-linejoin:round;stroke-miterlimit:10;stroke-dasharray:none;stroke-opacity:1"
         id="path104" />
      <path
         d="m 1668.25,2916 v 16.29"
         style="fill:none;stroke:#262626;stroke-width:4.998;stroke-linecap:square;stroke-linejoin:round;stroke-miterlimit:10;stroke-dasharray:none;stroke-opacity:1"
         id="path106" />
      <path
         d="m 1668.25,2916 v 16.29"
         style="fill:none;stroke:#262626;stroke-width:4.998;stroke-linecap:square;stroke-linejoin:round;stroke-miterlimit:10;stroke-dasharray:none;stroke-opacity:1"
         id="path108" />
      <path
         d="m 2006.08,2916 v 16.29"
         style="fill:none;stroke:#262626;stroke-width:4.998;stroke-linecap:square;stroke-linejoin:round;stroke-miterlimit:10;stroke-dasharray:none;stroke-opacity:1"
         id="path110" />
      <path
         d="m 2203.7,2916 v 16.29"
         style="fill:none;stroke:#262626;stroke-width:4.998;stroke-linecap:square;stroke-linejoin:round;stroke-miterlimit:10;stroke-dasharray:none;stroke-opacity:1"
         id="path112" />
      <path
         d="m 2343.92,2916 v 16.29"
         style="fill:none;stroke:#262626;stroke-width:4.998;stroke-linecap:square;stroke-linejoin:round;stroke-miterlimit:10;stroke-dasharray:none;stroke-opacity:1"
         id="path114" />
      <path
         d="m 2452.68,2916 v 16.29"
         style="fill:none;stroke:#262626;stroke-width:4.998;stroke-linecap:square;stroke-linejoin:round;stroke-miterlimit:10;stroke-dasharray:none;stroke-opacity:1"
         id="path116" />
      <path
         d="m 2541.54,2916 v 16.29"
         style="fill:none;stroke:#262626;stroke-width:4.998;stroke-linecap:square;stroke-linejoin:round;stroke-miterlimit:10;stroke-dasharray:none;stroke-opacity:1"
         id="path118" />
      <path
         d="m 2616.67,2916 v 16.29"
         style="fill:none;stroke:#262626;stroke-width:4.998;stroke-linecap:square;stroke-linejoin:round;stroke-miterlimit:10;stroke-dasharray:none;stroke-opacity:1"
         id="path120" />
      <path
         d="m 2681.75,2916 v 16.29"
         style="fill:none;stroke:#262626;stroke-width:4.998;stroke-linecap:square;stroke-linejoin:round;stroke-miterlimit:10;stroke-dasharray:none;stroke-opacity:1"
         id="path122" />
      <path
         d="m 2739.16,2916 v 16.29"
         style="fill:none;stroke:#262626;stroke-width:4.998;stroke-linecap:square;stroke-linejoin:round;stroke-miterlimit:10;stroke-dasharray:none;stroke-opacity:1"
         id="path124" />
      <path
         d="m 2790.5,2916 v 16.29"
         style="fill:none;stroke:#262626;stroke-width:4.998;stroke-linecap:square;stroke-linejoin:round;stroke-miterlimit:10;stroke-dasharray:none;stroke-opacity:1"
         id="path126" />
      <path
         d="m 3128.34,2916 v 16.29"
         style="fill:none;stroke:#262626;stroke-width:4.998;stroke-linecap:square;stroke-linejoin:round;stroke-miterlimit:10;stroke-dasharray:none;stroke-opacity:1"
         id="path128" />
      <path
         d="m 3325.96,2916 v 16.29"
         style="fill:none;stroke:#262626;stroke-width:4.998;stroke-linecap:square;stroke-linejoin:round;stroke-miterlimit:10;stroke-dasharray:none;stroke-opacity:1"
         id="path130" />
      <path
         d="m 3466.17,2916 v 16.29"
         style="fill:none;stroke:#262626;stroke-width:4.998;stroke-linecap:square;stroke-linejoin:round;stroke-miterlimit:10;stroke-dasharray:none;stroke-opacity:1"
         id="path132" />
      <path
         d="m 3574.93,2916 v 16.29"
         style="fill:none;stroke:#262626;stroke-width:4.998;stroke-linecap:square;stroke-linejoin:round;stroke-miterlimit:10;stroke-dasharray:none;stroke-opacity:1"
         id="path134" />
      <path
         d="m 3663.79,2916 v 16.29"
         style="fill:none;stroke:#262626;stroke-width:4.998;stroke-linecap:square;stroke-linejoin:round;stroke-miterlimit:10;stroke-dasharray:none;stroke-opacity:1"
         id="path136" />
      <path
         d="m 3738.92,2916 v 16.29"
         style="fill:none;stroke:#262626;stroke-width:4.998;stroke-linecap:square;stroke-linejoin:round;stroke-miterlimit:10;stroke-dasharray:none;stroke-opacity:1"
         id="path138" />
      <path
         d="m 3804,2916 v 16.29"
         style="fill:none;stroke:#262626;stroke-width:4.998;stroke-linecap:square;stroke-linejoin:round;stroke-miterlimit:10;stroke-dasharray:none;stroke-opacity:1"
         id="path140" />
      <g
         id="g142"
         transform="scale(10)">
        <g
           aria-label="10"
           transform="matrix(1,0,0,-1,45,34.8)"
           id="text146"
           style="font-size:10.0002px;font-family:Helvetica;-inkscape-font-specification:Helvetica;fill:#262626">
          <path
             d="M 2.5900519,-5.1501031 V 0 H 3.4700695 V -7.2301448 H 2.8900579 C 2.5800517,-6.1201226 2.3800477,-5.9701196 1.0200204,-5.790116 v 0.6400129 z"
             id="path328" />
          <path
             d="m 8.3101661,-7.2301448 c -0.6600132,0 -1.2600252,0.300006 -1.6300326,0.7900158 -0.4600092,0.6400128 -0.6900138,1.6000321 -0.6900138,2.9400589 0,2.4400489 0.800016,3.73007471 2.3200464,3.73007471 1.5000301,0 2.3200469,-1.29002581 2.3200469,-3.67007351 0,-1.400028 -0.220005,-2.3400469 -0.6900142,-3.0000601 -0.3700074,-0.50001 -0.9600193,-0.7900158 -1.6300327,-0.7900158 z m 0,0.7800156 c 0.950019,0 1.4200285,0.9700195 1.4200285,2.9300587 0,2.0600413 -0.4600093,3.02006049 -1.4400289,3.02006049 -0.9300186,0 -1.400028,-1.00001999 -1.400028,-2.99005989 0,-1.9900398 0.4700094,-2.9600593 1.4200284,-2.9600593 z"
             id="path330" />
        </g>
        <g
           aria-label="-5"
           transform="matrix(1,0,0,-1,56.4,39.6)"
           id="text150"
           style="font-size:7.9998px;font-family:Helvetica;-inkscape-font-specification:Helvetica;fill:#262626">
          <path
             d="M 2.2719433,-2.4959377 H 0.36799081 V -1.919952 H 2.2719433 Z"
             id="path333" />
          <path
             d="M 6.4718384,-5.6718583 H 3.5439115 l -0.4239894,3.0879228 h 0.6479838 c 0.3279919,-0.3919902 0.5999851,-0.5279868 1.0479739,-0.5279868 0.759981,0 1.2319692,0.519987 1.2319692,1.3599661 0,0.81597958 -0.4719882,1.31196719 -1.239969,1.31196719 -0.6159846,0 -0.9919753,-0.31199221 -1.1599711,-0.95197619 H 2.9439265 c 0.095998,0.46398838 0.1759956,0.68798278 0.3439914,0.89597759 0.319992,0.43198921 0.8959777,0.67998301 1.5359617,0.67998301 1.1439714,0 1.9439514,-0.83197922 1.9439514,-2.0319492 0,-1.1199721 -0.7439814,-1.8879529 -1.8319542,-1.8879529 -0.39999,0 -0.719982,0.1039974 -1.0479739,0.3439914 l 0.2239945,-1.5839604 h 2.359941 z"
             id="path335" />
        </g>
        <g
           aria-label="10"
           transform="matrix(1,0,0,-1,157.2,34.8)"
           id="text154"
           style="font-size:10.0002px;font-family:Helvetica;-inkscape-font-specification:Helvetica;fill:#262626">
          <path
             d="M 2.5900519,-5.1501031 V 0 H 3.4700695 V -7.2301448 H 2.8900579 C 2.5800517,-6.1201226 2.3800477,-5.9701196 1.0200204,-5.790116 v 0.6400129 z"
             id="path338" />
          <path
             d="m 8.3101661,-7.2301448 c -0.6600132,0 -1.2600252,0.300006 -1.6300326,0.7900158 -0.4600092,0.6400128 -0.6900138,1.6000321 -0.6900138,2.9400589 0,2.4400489 0.800016,3.73007471 2.3200464,3.73007471 1.5000301,0 2.3200469,-1.29002581 2.3200469,-3.67007351 0,-1.400028 -0.220005,-2.3400469 -0.6900142,-3.0000601 -0.3700074,-0.50001 -0.9600193,-0.7900158 -1.6300327,-0.7900158 z m 0,0.7800156 c 0.950019,0 1.4200285,0.9700195 1.4200285,2.9300587 0,2.0600413 -0.4600093,3.02006049 -1.4400289,3.02006049 -0.9300186,0 -1.400028,-1.00001999 -1.400028,-2.99005989 0,-1.9900398 0.4700094,-2.9600593 1.4200284,-2.9600593 z"
             id="path340" />
        </g>
        <g
           aria-label="-4"
           transform="matrix(1,0,0,-1,168.6,39.6)"
           id="text158"
           style="font-size:7.9998px;font-family:Helvetica;-inkscape-font-specification:Helvetica;fill:#262626">
          <path
             d="M 2.2719433,-2.4959377 H 0.36799081 V -1.919952 H 2.2719433 Z"
             id="path343" />
          <path
             d="M 5.2798682,-1.399965 V 0 h 0.7039824 v -1.399965 h 0.839979 v -0.6319843 h -0.839979 v -3.7519062 h -0.519987 l -2.5759357,3.639909 v 0.7439815 z m 0,-0.6319843 H 3.5039125 l 1.7759557,-2.5519362 z"
             id="path345" />
        </g>
        <g
           aria-label="10"
           transform="matrix(1,0,0,-1,269.4,34.8)"
           id="text162"
           style="font-size:10.0002px;font-family:Helvetica;-inkscape-font-specification:Helvetica;fill:#262626">
          <path
             d="M 2.5900519,-5.1501031 V 0 H 3.4700695 V -7.2301448 H 2.8900579 C 2.5800517,-6.1201226 2.3800477,-5.9701196 1.0200204,-5.790116 v 0.6400129 z"
             id="path348" />
          <path
             d="m 8.3101661,-7.2301448 c -0.6600132,0 -1.2600252,0.300006 -1.6300326,0.7900158 -0.4600092,0.6400128 -0.6900138,1.6000321 -0.6900138,2.9400589 0,2.4400489 0.800016,3.73007471 2.3200464,3.73007471 1.5000301,0 2.3200469,-1.29002581 2.3200469,-3.67007351 0,-1.400028 -0.220005,-2.3400469 -0.6900142,-3.0000601 -0.3700074,-0.50001 -0.9600193,-0.7900158 -1.6300327,-0.7900158 z m 0,0.7800156 c 0.950019,0 1.4200285,0.9700195 1.4200285,2.9300587 0,2.0600413 -0.4600093,3.02006049 -1.4400289,3.02006049 -0.9300186,0 -1.400028,-1.00001999 -1.400028,-2.99005989 0,-1.9900398 0.4700094,-2.9600593 1.4200284,-2.9600593 z"
             id="path350" />
        </g>
        <g
           aria-label="-3"
           transform="matrix(1,0,0,-1,280.8,39.6)"
           id="text166"
           style="font-size:7.9998px;font-family:Helvetica;-inkscape-font-specification:Helvetica;fill:#262626">
          <path
             d="M 2.2719433,-2.4959377 H 0.36799081 V -1.919952 H 2.2719433 Z"
             id="path353" />
          <path
             d="m 4.4318894,-2.6639335 h 0.087998 0.2959926 c 0.7679808,0 1.1759706,0.359991 1.1759706,1.0559737 0,0.72798178 -0.439989,1.16797079 -1.1679708,1.16797079 -0.7759806,0 -1.1519713,-0.39199021 -1.1999701,-1.23996899 H 2.9199271 c 0.031999,0.4639884 0.1119972,0.76798078 0.2479938,1.02397438 0.2959926,0.55998602 0.8479789,0.83997902 1.6239595,0.83997902 1.1679708,0 1.919952,-0.70398241 1.919952,-1.799955 0,-0.7359817 -0.279993,-1.1359717 -0.959976,-1.3759657 0.5279868,-0.2159946 0.7919802,-0.6159846 0.7919802,-1.19997 0,-0.9919752 -0.6479838,-1.5919602 -1.7279568,-1.5919602 -1.1439715,0 -1.7519563,0.639984 -1.7759557,1.8639534 h 0.7039824 c 0.008,-0.3519912 0.039999,-0.5519862 0.1279968,-0.7279818 0.1599961,-0.3279918 0.5119873,-0.519987 0.9519763,-0.519987 0.6239844,0 0.999975,0.3759906 0.999975,0.999975 0,0.4079898 -0.1439964,0.6559836 -0.4559886,0.7919802 -0.1919952,0.079998 -0.4479888,0.1119972 -0.9359766,0.119997 z"
             id="path355" />
        </g>
      </g>
      <path
         d="m 2083.69,60 c -1.44,0 -2.16,0.6563 -2.16,1.9688 0.13,0.1875 0.2,0.3125 0.24,0.3789 0.03,0.0586 0.04,0.2148 0.04,0.4648 l 86.72,174.8395 c 0.75,1.817 2.28,2.727 4.6,2.727 h 3.47 c 2.24,0 3.74,-0.91 4.5,-2.727 l 86.8,-174.8395 c 0.07,-0.1211 0.12,-0.25 0.15,-0.375 0.03,-0.125 0.05,-0.2812 0.05,-0.4687 0,-1.3125 -0.69,-1.9688 -2.07,-1.9688 z m 16.59,20.1523 h 132.75 l -66.28,133.7857 z"
         style="fill:#262626;fill-opacity:1;fill-rule:nonzero;stroke:none"
         id="path168" />
      <path
         d="M 546,552 V 2916"
         style="fill:none;stroke:#262626;stroke-width:4.998;stroke-linecap:square;stroke-linejoin:round;stroke-miterlimit:10;stroke-dasharray:none;stroke-opacity:1"
         id="path170" />
      <path
         d="M 3804,552 V 2916"
         style="fill:none;stroke:#262626;stroke-width:4.998;stroke-linecap:square;stroke-linejoin:round;stroke-miterlimit:10;stroke-dasharray:none;stroke-opacity:1"
         id="path172" />
      <path
         d="M 546,552 H 513.422"
         style="fill:none;stroke:#262626;stroke-width:4.998;stroke-linecap:square;stroke-linejoin:round;stroke-miterlimit:10;stroke-dasharray:none;stroke-opacity:1"
         id="path174" />
      <path
         d="M 546,766.906 H 513.422"
         style="fill:none;stroke:#262626;stroke-width:4.998;stroke-linecap:square;stroke-linejoin:round;stroke-miterlimit:10;stroke-dasharray:none;stroke-opacity:1"
         id="path176" />
      <path
         d="M 546,981.816 H 513.422"
         style="fill:none;stroke:#262626;stroke-width:4.998;stroke-linecap:square;stroke-linejoin:round;stroke-miterlimit:10;stroke-dasharray:none;stroke-opacity:1"
         id="path178" />
      <path
         d="M 546,1196.73 H 513.422"
         style="fill:none;stroke:#262626;stroke-width:4.998;stroke-linecap:square;stroke-linejoin:round;stroke-miterlimit:10;stroke-dasharray:none;stroke-opacity:1"
         id="path180" />
      <path
         d="M 546,1411.64 H 513.422"
         style="fill:none;stroke:#262626;stroke-width:4.998;stroke-linecap:square;stroke-linejoin:round;stroke-miterlimit:10;stroke-dasharray:none;stroke-opacity:1"
         id="path182" />
      <path
         d="M 546,1626.55 H 513.422"
         style="fill:none;stroke:#262626;stroke-width:4.998;stroke-linecap:square;stroke-linejoin:round;stroke-miterlimit:10;stroke-dasharray:none;stroke-opacity:1"
         id="path184" />
      <path
         d="M 546,1841.45 H 513.422"
         style="fill:none;stroke:#262626;stroke-width:4.998;stroke-linecap:square;stroke-linejoin:round;stroke-miterlimit:10;stroke-dasharray:none;stroke-opacity:1"
         id="path186" />
      <path
         d="M 546,2056.36 H 513.422"
         style="fill:none;stroke:#262626;stroke-width:4.998;stroke-linecap:square;stroke-linejoin:round;stroke-miterlimit:10;stroke-dasharray:none;stroke-opacity:1"
         id="path188" />
      <path
         d="M 546,2271.27 H 513.422"
         style="fill:none;stroke:#262626;stroke-width:4.998;stroke-linecap:square;stroke-linejoin:round;stroke-miterlimit:10;stroke-dasharray:none;stroke-opacity:1"
         id="path190" />
      <path
         d="M 546,2486.18 H 513.422"
         style="fill:none;stroke:#262626;stroke-width:4.998;stroke-linecap:square;stroke-linejoin:round;stroke-miterlimit:10;stroke-dasharray:none;stroke-opacity:1"
         id="path192" />
      <path
         d="M 546,2701.09 H 513.422"
         style="fill:none;stroke:#262626;stroke-width:4.998;stroke-linecap:square;stroke-linejoin:round;stroke-miterlimit:10;stroke-dasharray:none;stroke-opacity:1"
         id="path194" />
      <path
         d="M 546,2916 H 513.422"
         style="fill:none;stroke:#262626;stroke-width:4.998;stroke-linecap:square;stroke-linejoin:round;stroke-miterlimit:10;stroke-dasharray:none;stroke-opacity:1"
         id="path196" />
      <path
         d="m 3804,552 h 32.58"
         style="fill:none;stroke:#262626;stroke-width:4.998;stroke-linecap:square;stroke-linejoin:round;stroke-miterlimit:10;stroke-dasharray:none;stroke-opacity:1"
         id="path198" />
      <path
         d="m 3804,766.906 h 32.58"
         style="fill:none;stroke:#262626;stroke-width:4.998;stroke-linecap:square;stroke-linejoin:round;stroke-miterlimit:10;stroke-dasharray:none;stroke-opacity:1"
         id="path200" />
      <path
         d="m 3804,981.816 h 32.58"
         style="fill:none;stroke:#262626;stroke-width:4.998;stroke-linecap:square;stroke-linejoin:round;stroke-miterlimit:10;stroke-dasharray:none;stroke-opacity:1"
         id="path202" />
      <path
         d="m 3804,1196.73 h 32.58"
         style="fill:none;stroke:#262626;stroke-width:4.998;stroke-linecap:square;stroke-linejoin:round;stroke-miterlimit:10;stroke-dasharray:none;stroke-opacity:1"
         id="path204" />
      <path
         d="m 3804,1411.64 h 32.58"
         style="fill:none;stroke:#262626;stroke-width:4.998;stroke-linecap:square;stroke-linejoin:round;stroke-miterlimit:10;stroke-dasharray:none;stroke-opacity:1"
         id="path206" />
      <path
         d="m 3804,1626.55 h 32.58"
         style="fill:none;stroke:#262626;stroke-width:4.998;stroke-linecap:square;stroke-linejoin:round;stroke-miterlimit:10;stroke-dasharray:none;stroke-opacity:1"
         id="path208" />
      <path
         d="m 3804,1841.45 h 32.58"
         style="fill:none;stroke:#262626;stroke-width:4.998;stroke-linecap:square;stroke-linejoin:round;stroke-miterlimit:10;stroke-dasharray:none;stroke-opacity:1"
         id="path210" />
      <path
         d="m 3804,2056.36 h 32.58"
         style="fill:none;stroke:#262626;stroke-width:4.998;stroke-linecap:square;stroke-linejoin:round;stroke-miterlimit:10;stroke-dasharray:none;stroke-opacity:1"
         id="path212" />
      <path
         d="m 3804,2271.27 h 32.58"
         style="fill:none;stroke:#262626;stroke-width:4.998;stroke-linecap:square;stroke-linejoin:round;stroke-miterlimit:10;stroke-dasharray:none;stroke-opacity:1"
         id="path214" />
      <path
         d="m 3804,2486.18 h 32.58"
         style="fill:none;stroke:#262626;stroke-width:4.998;stroke-linecap:square;stroke-linejoin:round;stroke-miterlimit:10;stroke-dasharray:none;stroke-opacity:1"
         id="path216" />
      <path
         d="m 3804,2701.09 h 32.58"
         style="fill:none;stroke:#262626;stroke-width:4.998;stroke-linecap:square;stroke-linejoin:round;stroke-miterlimit:10;stroke-dasharray:none;stroke-opacity:1"
         id="path218" />
      <path
         d="m 3804,2916 h 32.58"
         style="fill:none;stroke:#262626;stroke-width:4.998;stroke-linecap:square;stroke-linejoin:round;stroke-miterlimit:10;stroke-dasharray:none;stroke-opacity:1"
         id="path220" />
      <g
         id="g222"
         transform="scale(10)">
        <g
           aria-label="18
20
22
24
26
28
30
32
34
36
38
40"
           transform="matrix(1,0,0,-1,35.9422,51.3)"
           id="text248"
           style="font-size:10.0002px;font-family:Helvetica;-inkscape-font-specification:Helvetica;fill:#262626">
          <path
             d="M 2.5900519,-5.1501031 V 0 H 3.4700695 V -7.2301448 H 2.8900579 C 2.5800517,-6.1201226 2.3800477,-5.9701196 1.0200204,-5.790116 v 0.6400129 z"
             id="path358" />
          <path
             d="m 9.4701894,-3.8100763 c 0.7400146,-0.450009 0.9700196,-0.8100162 0.9700196,-1.4900298 0,-1.1400229 -0.8700176,-1.9300387 -2.1300429,-1.9300387 -1.250025,0 -2.1300426,0.7900158 -2.1300426,1.9200385 0,0.6900138 0.2300046,1.0400208 0.9600192,1.50003 -0.8100162,0.4100082 -1.2100242,1.00002 -1.2100242,1.800036 0,1.32002648 0.9700194,2.24004491 2.3800476,2.24004491 1.4000281,0 2.3800479,-0.92001843 2.3800479,-2.24004491 0,-0.800016 -0.400008,-1.3900278 -1.2200246,-1.800036 z M 8.3101661,-6.4501292 c 0.750015,0 1.2300247,0.450009 1.2300247,1.1700235 0,0.6800136 -0.4900099,1.1300226 -1.2300247,1.1300226 -0.750015,0 -1.2300246,-0.450009 -1.2300246,-1.150023 0,-0.7000141 0.4800096,-1.1500231 1.2300246,-1.1500231 z m 0,3.0400609 c 0.8800176,0 1.4800297,0.5800116 1.4800297,1.4200284 0,0.8700175 -0.5900119,1.44002889 -1.5000301,1.44002889 -0.8600172,0 -1.4600292,-0.59001179 -1.4600292,-1.43002869 0,-0.8600172 0.5900118,-1.4300286 1.4800296,-1.4300286 z"
             id="path360" />
          <path
             d="M 5.0601013,-22.361017 H 1.3300266 c 0.090002,-0.600012 0.4100082,-0.980019 1.2800257,-1.51003 l 1.00002,-0.560011 c 0.9900198,-0.550011 1.50003,-1.290026 1.50003,-2.180044 0,-0.600012 -0.2400048,-1.160023 -0.6600132,-1.550031 -0.4200084,-0.380007 -0.9400188,-0.560011 -1.6100322,-0.560011 -0.900018,0 -1.5700315,0.320006 -1.96003928,0.940019 -0.250005,0.380007 -0.36000721,0.830016 -0.38000761,1.560031 H 1.3800276 c 0.030001,-0.49001 0.090002,-0.780016 0.2100042,-1.02002 0.2300046,-0.440009 0.6900139,-0.710015 1.2200245,-0.710015 0.800016,0 1.400028,0.580012 1.400028,1.360028 0,0.580011 -0.3300066,1.080021 -0.9600192,1.440028 l -0.9200184,0.540011 c -1.48002968,0.850017 -1.91003829,1.530031 -1.99003989,3.110063 H 5.0601013 Z"
             id="path362" />
          <path
             d="m 8.3101661,-28.721144 c -0.6600132,0 -1.2600252,0.300006 -1.6300326,0.790016 -0.4600092,0.640013 -0.6900138,1.600032 -0.6900138,2.940059 0,2.440049 0.800016,3.730074 2.3200464,3.730074 1.5000301,0 2.3200469,-1.290025 2.3200469,-3.670073 0,-1.400028 -0.220005,-2.340047 -0.6900142,-3.00006 -0.3700074,-0.50001 -0.9600193,-0.790016 -1.6300327,-0.790016 z m 0,0.780016 c 0.950019,0 1.4200285,0.970019 1.4200285,2.930058 0,2.060042 -0.4600093,3.020061 -1.4400289,3.020061 -0.9300186,0 -1.400028,-1.00002 -1.400028,-2.99006 0,-1.99004 0.4700094,-2.960059 1.4200284,-2.960059 z"
             id="path364" />
          <path
             d="M 5.0601013,-43.851619 H 1.3300266 c 0.090002,-0.600012 0.4100082,-0.98002 1.2800257,-1.51003 l 1.00002,-0.560012 c 0.9900198,-0.550011 1.50003,-1.290025 1.50003,-2.180043 0,-0.600012 -0.2400048,-1.160023 -0.6600132,-1.550031 -0.4200084,-0.380008 -0.9400188,-0.560012 -1.6100322,-0.560012 -0.900018,0 -1.5700315,0.320007 -1.96003928,0.940019 -0.250005,0.380008 -0.36000721,0.830017 -0.38000761,1.560032 H 1.3800276 c 0.030001,-0.49001 0.090002,-0.780016 0.2100042,-1.020021 0.2300046,-0.440009 0.6900139,-0.710014 1.2200245,-0.710014 0.800016,0 1.400028,0.580012 1.400028,1.360027 0,0.580012 -0.3300066,1.080022 -0.9600192,1.440029 l -0.9200184,0.540011 c -1.48002968,0.850017 -1.91003829,1.53003 -1.99003989,3.110062 H 5.0601013 Z"
             id="path366" />
          <path
             d="M 10.620212,-43.851619 H 6.8901377 c 0.090002,-0.600012 0.4100082,-0.98002 1.2800256,-1.51003 l 1.00002,-0.560012 c 0.9900197,-0.550011 1.5000297,-1.290025 1.5000297,-2.180043 0,-0.600012 -0.240004,-1.160023 -0.660013,-1.550031 -0.4200082,-0.380008 -0.9400187,-0.560012 -1.6100321,-0.560012 -0.900018,0 -1.5700314,0.320007 -1.9600392,0.940019 -0.250005,0.380008 -0.3600072,0.830017 -0.3800076,1.560032 h 0.8800176 c 0.030001,-0.49001 0.090002,-0.780016 0.2100042,-1.020021 0.2300046,-0.440009 0.6900138,-0.710014 1.2200244,-0.710014 0.800016,0 1.4000281,0.580012 1.4000281,1.360027 0,0.580012 -0.3300066,1.080022 -0.9600193,1.440029 l -0.9200184,0.540011 c -1.4800296,0.850017 -1.9100382,1.53003 -1.9900398,3.110062 h 4.7200941 z"
             id="path368" />
          <path
             d="M 5.0601013,-65.34262 H 1.3300266 c 0.090002,-0.600012 0.4100082,-0.98002 1.2800257,-1.510031 l 1.00002,-0.560011 c 0.9900198,-0.550011 1.50003,-1.290026 1.50003,-2.180043 0,-0.600012 -0.2400048,-1.160024 -0.6600132,-1.550031 -0.4200084,-0.380008 -0.9400188,-0.560012 -1.6100322,-0.560012 -0.900018,0 -1.5700315,0.320007 -1.96003928,0.940019 -0.250005,0.380008 -0.36000721,0.830017 -0.38000761,1.560031 H 1.3800276 c 0.030001,-0.490009 0.090002,-0.780015 0.2100042,-1.02002 0.2300046,-0.440009 0.6900139,-0.710014 1.2200245,-0.710014 0.800016,0 1.400028,0.580011 1.400028,1.360027 0,0.580012 -0.3300066,1.080022 -0.9600192,1.440029 l -0.9200184,0.540011 c -1.48002968,0.850017 -1.91003829,1.53003 -1.99003989,3.110062 H 5.0601013 Z"
             id="path370" />
          <path
             d="m 8.8301765,-66.222638 v 1.750035 h 0.8800177 v -1.750035 h 1.0500208 v -0.790016 H 9.7101942 v -4.690094 H 9.0601811 l -3.2200644,4.550091 v 0.930019 z m 0,-0.790016 H 6.6101321 l 2.2200444,-3.190064 z"
             id="path372" />
          <path
             d="M 5.0601013,-86.833618 H 1.3300266 c 0.090002,-0.600012 0.4100082,-0.980019 1.2800257,-1.51003 l 1.00002,-0.560011 c 0.9900198,-0.550011 1.50003,-1.290026 1.50003,-2.180044 0,-0.600012 -0.2400048,-1.160023 -0.6600132,-1.550031 -0.4200084,-0.380007 -0.9400188,-0.560011 -1.6100322,-0.560011 -0.900018,0 -1.5700315,0.320006 -1.96003928,0.940019 -0.250005,0.380007 -0.36000721,0.830016 -0.38000761,1.560031 H 1.3800276 c 0.030001,-0.49001 0.090002,-0.780016 0.2100042,-1.02002 0.2300046,-0.440009 0.6900139,-0.710015 1.2200245,-0.710015 0.800016,0 1.400028,0.580012 1.400028,1.360028 0,0.580011 -0.3300066,1.080021 -0.9600192,1.440029 l -0.9200184,0.54001 c -1.48002968,0.850017 -1.91003829,1.530031 -1.99003989,3.110063 H 5.0601013 Z"
             id="path374" />
          <path
             d="m 10.540211,-91.313707 c -0.170004,-1.180024 -0.9300188,-1.880038 -2.0100405,-1.880038 -0.7800156,0 -1.4800296,0.380008 -1.900038,1.030021 -0.450009,0.710014 -0.6400128,1.590032 -0.6400128,2.900058 0,1.220024 0.1700034,1.99004 0.600012,2.630052 0.3800076,0.590012 1.00002,0.900018 1.7800356,0.900018 1.3500271,0 2.3200467,-1.01002 2.3200467,-2.420048 0,-1.330027 -0.9000182,-2.270045 -2.1700437,-2.270045 -0.700014,0 -1.250025,0.260005 -1.6300326,0.790015 0.01,-1.790036 0.5700114,-2.780055 1.5800316,-2.780055 0.6200124,0 1.0500211,0.400008 1.1900239,1.100022 z m -2.1300429,1.670033 c 0.850017,0 1.3800277,0.600012 1.3800277,1.560031 0,0.910019 -0.6000121,1.570032 -1.4100283,1.570032 -0.8200164,0 -1.4400288,-0.690014 -1.4400288,-1.610032 0,-0.900018 0.600012,-1.520031 1.4700294,-1.520031 z"
             id="path376" />
          <path
             d="M 5.0601013,-108.32461 H 1.3300266 c 0.090002,-0.60002 0.4100082,-0.98002 1.2800257,-1.51004 l 1.00002,-0.56001 c 0.9900198,-0.55001 1.50003,-1.29002 1.50003,-2.18004 0,-0.60001 -0.2400048,-1.16002 -0.6600132,-1.55003 -0.4200084,-0.38001 -0.9400188,-0.56001 -1.6100322,-0.56001 -0.900018,0 -1.5700315,0.32 -1.96003928,0.94002 -0.250005,0.38 -0.36000721,0.83001 -0.38000761,1.56003 H 1.3800276 c 0.030001,-0.49001 0.090002,-0.78002 0.2100042,-1.02002 0.2300046,-0.44001 0.6900139,-0.71002 1.2200245,-0.71002 0.800016,0 1.400028,0.58001 1.400028,1.36003 0,0.58001 -0.3300066,1.08002 -0.9600192,1.44003 l -0.9200184,0.54001 c -1.48002968,0.85002 -1.91003829,1.53003 -1.99003989,3.11006 H 5.0601013 Z"
             id="path378" />
          <path
             d="m 9.4701894,-111.26467 c 0.7400146,-0.45001 0.9700196,-0.81002 0.9700196,-1.49003 0,-1.14003 -0.8700176,-1.93004 -2.1300429,-1.93004 -1.250025,0 -2.1300426,0.79001 -2.1300426,1.92004 0,0.69001 0.2300046,1.04002 0.9600192,1.50003 -0.8100162,0.41 -1.2100242,1.00002 -1.2100242,1.80003 0,1.32003 0.9700194,2.24005 2.3800476,2.24005 1.4000281,0 2.3800479,-0.92002 2.3800479,-2.24005 0,-0.80001 -0.400008,-1.39003 -1.2200246,-1.80003 z m -1.1600233,-2.64006 c 0.750015,0 1.2300247,0.45001 1.2300247,1.17003 0,0.68001 -0.4900099,1.13002 -1.2300247,1.13002 -0.750015,0 -1.2300246,-0.45001 -1.2300246,-1.15002 0,-0.70002 0.4800096,-1.15003 1.2300246,-1.15003 z m 0,3.04006 c 0.8800176,0 1.4800297,0.58002 1.4800297,1.42003 0,0.87002 -0.5900119,1.44003 -1.5000301,1.44003 -0.8600172,0 -1.4600292,-0.59001 -1.4600292,-1.43003 0,-0.86001 0.5900118,-1.43003 1.4800296,-1.43003 z"
             id="path380" />
          <path
             d="m 2.2100443,-132.27527 h 0.1100022 0.3700074 c 0.9600192,0 1.4700294,0.45001 1.4700294,1.32002 0,0.91002 -0.550011,1.46003 -1.4600292,1.46003 -0.9700195,0 -1.4400289,-0.49001 -1.5000301,-1.55003 H 0.32000641 c 0.0400008,0.58001 0.1400028,0.96002 0.31000621,1.28003 0.37000738,0.70001 1.06002118,1.05002 2.03004068,1.05002 1.4600292,0 2.400048,-0.88002 2.400048,-2.25005 0,-0.92001 -0.350007,-1.42002 -1.200024,-1.72003 0.6600132,-0.27001 0.9900198,-0.77002 0.9900198,-1.50003 0,-1.24003 -0.8100162,-1.99004 -2.1600432,-1.99004 -1.4300287,0 -2.19004389,0.80002 -2.22004449,2.33005 H 1.350027 c 0.01,-0.44001 0.050001,-0.69002 0.1600032,-0.91002 0.200004,-0.41001 0.6400129,-0.65002 1.1900239,-0.65002 0.7800156,0 1.250025,0.47001 1.250025,1.25003 0,0.51001 -0.1800036,0.82002 -0.5700114,0.99002 -0.2400048,0.1 -0.5600112,0.14 -1.1700234,0.15 z"
             id="path382" />
          <path
             d="m 8.3101661,-136.17535 c -0.6600132,0 -1.2600252,0.30001 -1.6300326,0.79002 -0.4600092,0.64001 -0.6900138,1.60003 -0.6900138,2.94005 0,2.44005 0.800016,3.73008 2.3200464,3.73008 1.5000301,0 2.3200469,-1.29003 2.3200469,-3.67007 0,-1.40003 -0.220005,-2.34005 -0.6900142,-3.00006 -0.3700074,-0.50001 -0.9600193,-0.79002 -1.6300327,-0.79002 z m 0,0.78002 c 0.950019,0 1.4200285,0.97001 1.4200285,2.93005 0,2.06005 -0.4600093,3.02006 -1.4400289,3.02006 -0.9300186,0 -1.400028,-1.00002 -1.400028,-2.99006 0,-1.99004 0.4700094,-2.96005 1.4200284,-2.96005 z"
             id="path384" />
          <path
             d="m 2.2100443,-153.76627 h 0.1100022 0.3700074 c 0.9600192,0 1.4700294,0.45001 1.4700294,1.32003 0,0.91001 -0.550011,1.46003 -1.4600292,1.46003 -0.9700195,0 -1.4400289,-0.49001 -1.5000301,-1.55004 H 0.32000641 c 0.0400008,0.58002 0.1400028,0.96002 0.31000621,1.28003 0.37000738,0.70001 1.06002118,1.05002 2.03004068,1.05002 1.4600292,0 2.400048,-0.88002 2.400048,-2.25004 0,-0.92002 -0.350007,-1.42003 -1.200024,-1.72004 0.6600132,-0.27 0.9900198,-0.77001 0.9900198,-1.50003 0,-1.24002 -0.8100162,-1.99004 -2.1600432,-1.99004 -1.4300287,0 -2.19004389,0.80002 -2.22004449,2.33005 H 1.350027 c 0.01,-0.44001 0.050001,-0.69001 0.1600032,-0.91002 0.200004,-0.41001 0.6400129,-0.65001 1.1900239,-0.65001 0.7800156,0 1.250025,0.47001 1.250025,1.25002 0,0.51001 -0.1800036,0.82002 -0.5700114,0.99002 -0.2400048,0.1 -0.5600112,0.14001 -1.1700234,0.15001 z"
             id="path386" />
          <path
             d="M 10.620212,-151.30622 H 6.8901377 c 0.090002,-0.60001 0.4100082,-0.98002 1.2800256,-1.51003 l 1.00002,-0.56001 c 0.9900197,-0.55001 1.5000297,-1.29003 1.5000297,-2.18005 0,-0.60001 -0.240004,-1.16002 -0.660013,-1.55003 -0.4200082,-0.38 -0.9400187,-0.56001 -1.6100321,-0.56001 -0.900018,0 -1.5700314,0.32001 -1.9600392,0.94002 -0.250005,0.38001 -0.3600072,0.83002 -0.3800076,1.56003 h 0.8800176 c 0.030001,-0.49001 0.090002,-0.78001 0.2100042,-1.02002 0.2300046,-0.44001 0.6900138,-0.71001 1.2200244,-0.71001 0.800016,0 1.4000281,0.58001 1.4000281,1.36002 0,0.58002 -0.3300066,1.08003 -0.9600193,1.44003 l -0.9200184,0.54001 c -1.4800296,0.85002 -1.9100382,1.53004 -1.9900398,3.11007 h 4.7200941 z"
             id="path388" />
          <path
             d="m 2.2100443,-175.25727 h 0.1100022 0.3700074 c 0.9600192,0 1.4700294,0.45001 1.4700294,1.32003 0,0.91002 -0.550011,1.46003 -1.4600292,1.46003 -0.9700195,0 -1.4400289,-0.49001 -1.5000301,-1.55003 H 0.32000641 c 0.0400008,0.58001 0.1400028,0.96002 0.31000621,1.28002 0.37000738,0.70002 1.06002118,1.05002 2.03004068,1.05002 1.4600292,0 2.400048,-0.88001 2.400048,-2.25004 0,-0.92002 -0.350007,-1.42003 -1.200024,-1.72004 0.6600132,-0.27 0.9900198,-0.77001 0.9900198,-1.50003 0,-1.24002 -0.8100162,-1.99004 -2.1600432,-1.99004 -1.4300287,0 -2.19004389,0.80002 -2.22004449,2.33005 H 1.350027 c 0.01,-0.44001 0.050001,-0.69001 0.1600032,-0.91002 0.200004,-0.41 0.6400129,-0.65001 1.1900239,-0.65001 0.7800156,0 1.250025,0.47001 1.250025,1.25003 0,0.51001 -0.1800036,0.82001 -0.5700114,0.99002 -0.2400048,0.1 -0.5600112,0.14 -1.1700234,0.15 z"
             id="path390" />
          <path
             d="m 8.8301765,-173.67724 v 1.75004 h 0.8800177 v -1.75004 h 1.0500208 v -0.79001 H 9.7101942 v -4.6901 H 9.0601811 l -3.2200644,4.5501 v 0.93001 z m 0,-0.79001 H 6.6101321 l 2.2200444,-3.19007 z"
             id="path392" />
          <path
             d="m 2.2100443,-196.74826 h 0.1100022 0.3700074 c 0.9600192,0 1.4700294,0.45 1.4700294,1.32002 0,0.91002 -0.550011,1.46003 -1.4600292,1.46003 -0.9700195,0 -1.4400289,-0.49001 -1.5000301,-1.55003 H 0.32000641 c 0.0400008,0.58001 0.1400028,0.96002 0.31000621,1.28003 0.37000738,0.70001 1.06002118,1.05002 2.03004068,1.05002 1.4600292,0 2.400048,-0.88002 2.400048,-2.25005 0,-0.92002 -0.350007,-1.42003 -1.200024,-1.72003 0.6600132,-0.27001 0.9900198,-0.77002 0.9900198,-1.50003 0,-1.24003 -0.8100162,-1.99004 -2.1600432,-1.99004 -1.4300287,0 -2.19004389,0.80001 -2.22004449,2.33004 H 1.350027 c 0.01,-0.44 0.050001,-0.69001 0.1600032,-0.91001 0.200004,-0.41001 0.6400129,-0.65002 1.1900239,-0.65002 0.7800156,0 1.250025,0.47001 1.250025,1.25003 0,0.51001 -0.1800036,0.82001 -0.5700114,0.99002 -0.2400048,0.1 -0.5600112,0.14 -1.1700234,0.15 z"
             id="path394" />
          <path
             d="m 10.540211,-198.7683 c -0.170004,-1.18003 -0.9300188,-1.88004 -2.0100405,-1.88004 -0.7800156,0 -1.4800296,0.38001 -1.900038,1.03002 -0.450009,0.71001 -0.6400128,1.59003 -0.6400128,2.90006 0,1.22002 0.1700034,1.99004 0.600012,2.63005 0.3800076,0.59001 1.00002,0.90002 1.7800356,0.90002 1.3500271,0 2.3200467,-1.01002 2.3200467,-2.42005 0,-1.33003 -0.9000182,-2.27005 -2.1700437,-2.27005 -0.700014,0 -1.250025,0.26001 -1.6300326,0.79002 0.01,-1.79004 0.5700114,-2.78006 1.5800316,-2.78006 0.6200124,0 1.0500211,0.40001 1.1900239,1.10003 z m -2.1300429,1.67003 c 0.850017,0 1.3800277,0.60001 1.3800277,1.56003 0,0.91002 -0.6000121,1.57003 -1.4100283,1.57003 -0.8200164,0 -1.4400288,-0.69001 -1.4400288,-1.61003 0,-0.90002 0.600012,-1.52003 1.4700294,-1.52003 z"
             id="path396" />
          <path
             d="m 2.2100443,-218.23886 h 0.1100022 0.3700074 c 0.9600192,0 1.4700294,0.45 1.4700294,1.32002 0,0.91002 -0.550011,1.46003 -1.4600292,1.46003 -0.9700195,0 -1.4400289,-0.49001 -1.5000301,-1.55003 H 0.32000641 c 0.0400008,0.58001 0.1400028,0.96002 0.31000621,1.28003 0.37000738,0.70001 1.06002118,1.05002 2.03004068,1.05002 1.4600292,0 2.400048,-0.88002 2.400048,-2.25005 0,-0.92002 -0.350007,-1.42003 -1.200024,-1.72003 0.6600132,-0.27001 0.9900198,-0.77002 0.9900198,-1.50003 0,-1.24003 -0.8100162,-1.99004 -2.1600432,-1.99004 -1.4300287,0 -2.19004389,0.80001 -2.22004449,2.33004 H 1.350027 c 0.01,-0.44001 0.050001,-0.69001 0.1600032,-0.91001 0.200004,-0.41001 0.6400129,-0.65002 1.1900239,-0.65002 0.7800156,0 1.250025,0.47001 1.250025,1.25003 0,0.51001 -0.1800036,0.82001 -0.5700114,0.99002 -0.2400048,0.1 -0.5600112,0.14 -1.1700234,0.15 z"
             id="path398" />
          <path
             d="m 9.4701894,-218.71887 c 0.7400146,-0.45001 0.9700196,-0.81002 0.9700196,-1.49003 0,-1.14003 -0.8700176,-1.93004 -2.1300429,-1.93004 -1.250025,0 -2.1300426,0.79001 -2.1300426,1.92004 0,0.69001 0.2300046,1.04002 0.9600192,1.50003 -0.8100162,0.41 -1.2100242,1.00002 -1.2100242,1.80003 0,1.32003 0.9700194,2.24005 2.3800476,2.24005 1.4000281,0 2.3800479,-0.92002 2.3800479,-2.24005 0,-0.80001 -0.400008,-1.39003 -1.2200246,-1.80003 z m -1.1600233,-2.64006 c 0.750015,0 1.2300247,0.45001 1.2300247,1.17003 0,0.68001 -0.4900099,1.13002 -1.2300247,1.13002 -0.750015,0 -1.2300246,-0.45001 -1.2300246,-1.15002 0,-0.70002 0.4800096,-1.15003 1.2300246,-1.15003 z m 0,3.04006 c 0.8800176,0 1.4800297,0.58002 1.4800297,1.42003 0,0.87002 -0.5900119,1.44003 -1.5000301,1.44003 -0.8600172,0 -1.4600292,-0.59001 -1.4600292,-1.43003 0,-0.86002 0.5900118,-1.43003 1.4800296,-1.43003 z"
             id="path400" />
          <path
             d="m 3.2700655,-238.14983 v 1.75003 h 0.8800176 v -1.75003 h 1.050021 v -0.79002 h -1.050021 v -4.69009 h -0.650013 l -3.22006449,4.55009 v 0.93002 z m 0,-0.79002 H 1.050021 l 2.2200445,-3.19006 z"
             id="path402" />
          <path
             d="m 8.3101661,-243.62994 c -0.6600132,0 -1.2600252,0.30001 -1.6300326,0.79002 -0.4600092,0.64001 -0.6900138,1.60003 -0.6900138,2.94005 0,2.44005 0.800016,3.73008 2.3200464,3.73008 1.5000301,0 2.3200469,-1.29003 2.3200469,-3.67007 0,-1.40003 -0.220005,-2.34005 -0.6900142,-3.00006 -0.3700074,-0.50001 -0.9600193,-0.79002 -1.6300327,-0.79002 z m 0,0.78002 c 0.950019,0 1.4200285,0.97001 1.4200285,2.93005 0,2.06005 -0.4600093,3.02006 -1.4400289,3.02006 -0.9300186,0 -1.400028,-1.00002 -1.400028,-2.99006 0,-1.99004 0.4700094,-2.96005 1.4200284,-2.96005 z"
             id="path404" />
        </g>
      </g>
      <path
         d="m 270,1683.85 c 0,-2 -1.094,-3 -3.281,-3 l -85.688,21.46 c -2.875,0.69 -5.125,1.1 -6.75,1.22 -2.687,0 -4.031,-5.44 -4.031,-16.31 0,-1.75 -1.125,-2.62 -3.379,-2.62 -0.371,0.12 -1.105,0.32 -2.199,0.6 -1.094,0.28 -1.922,0.65 -2.484,1.08 -0.563,0.44 -0.84,1.06 -0.84,1.87 l -2.727,34.04 c 0,2 1.067,3 3.192,3 l 98.808,-24.66 c -4.433,13.25 -11.371,25.47 -20.808,36.66 -9.438,11.19 -20.547,20.67 -33.329,28.45 -12.781,7.78 -26.078,13.39 -39.886,16.83 -2.379,0.62 -4.301,1.92 -5.77,3.89 -1.469,1.97 -2.207,4.2 -2.207,6.7 0,2.19 0.66,3.99 1.977,5.39 1.308,1.41 3.09,2.11 5.34,2.11 2.687,0 6.796,-1.11 12.328,-3.33 5.531,-2.21 10.484,-4.39 14.855,-6.51 13.188,-6.69 25.281,-15.53 36.281,-26.53 6.879,-6.88 12.989,-14.26 18.332,-22.17 5.344,-7.91 9.875,-16.18 13.594,-24.8 3.719,-8.63 6.61,-17.72 8.672,-27.28 v -6.09"
         style="fill:#262626;fill-opacity:1;fill-rule:nonzero;stroke:none"
         id="path250" />
      <path
         d="M 546,552 H 3804"
         style="fill:none;stroke:#262626;stroke-width:4.998;stroke-linecap:butt;stroke-linejoin:round;stroke-miterlimit:10;stroke-dasharray:none;stroke-opacity:1"
         id="path252" />
      <path
         d="m 3804,552 -238.92,214.906 -207.67,214.91 -369.28,214.914 -415.14,214.91 -337.83,214.91 -337.84,214.9 -224.22,214.91 -439.4,214.91 -105.8,214.91 V 2701.09 2916"
         style="fill:none;stroke:#000000;stroke-width:4.998;stroke-linecap:butt;stroke-linejoin:bevel;stroke-miterlimit:10;stroke-dasharray:60, 36;stroke-dashoffset:0;stroke-opacity:1"
         id="path254" />
      <path
         d="M 1127.9,2486.18 V 552 H 3804 l -238.92,214.906 -207.67,214.91 -369.28,214.914 -415.14,214.91 -337.83,214.91 -337.84,214.9 -224.22,214.91 -439.4,214.91"
         style="fill:#ffe0e0;fill-opacity:1;fill-rule:nonzero;stroke:none"
         id="path256" />
      <path
         d="m 1127.9,2486.18 105.8,-214.91 439.4,-214.91 224.22,-214.91 337.84,-214.9 337.83,-214.91 415.14,-214.91 369.28,-214.914 207.67,-214.91 L 3804,552"
         style="fill:none;stroke:#000000;stroke-width:4.998;stroke-linecap:butt;stroke-linejoin:round;stroke-miterlimit:10;stroke-dasharray:none;stroke-opacity:1"
         id="path258" />
      <path
         d="m 1127.9,2916 v -429.82 l 105.8,-214.91 439.4,-214.91 224.22,-214.91 337.84,-214.9 337.83,-214.91 415.14,-214.91 369.28,-214.914 207.67,-214.91 L 3804,552 V 2916 H 3565.08 3357.41 2988.13 2572.99 2235.16 1897.32 1673.1 1233.7"
         style="fill:#dbdbff;fill-opacity:1;fill-rule:nonzero;stroke:none"
         id="path260" />
      <path
         d="M 1127.9,2916 H 3804"
         style="fill:none;stroke:#000000;stroke-width:4.998;stroke-linecap:butt;stroke-linejoin:round;stroke-miterlimit:10;stroke-dasharray:none;stroke-opacity:1"
         id="path262" />
      <path
         d="m 546,552 h 581.902 V 2916 H 546 Z"
         style="fill:#ffe0e0;fill-opacity:1;fill-rule:nonzero;stroke:none"
         id="path264" />
      <path
         d="m 546,2916 h 581.9"
         style="fill:none;stroke:#000000;stroke-width:4.998;stroke-linecap:butt;stroke-linejoin:round;stroke-miterlimit:10;stroke-dasharray:none;stroke-opacity:1"
         id="path266" />
      <path
         d="m 3804,552 -238.92,214.906 -207.67,214.91 -369.28,214.914 -415.14,214.91 -337.83,214.91 -337.84,214.9 -224.22,214.91 -439.4,214.91 -105.8,214.91 V 2701.09 2916"
         style="fill:none;stroke:#000000;stroke-width:0.102;stroke-linecap:butt;stroke-linejoin:round;stroke-miterlimit:10;stroke-dasharray:none;stroke-opacity:1"
         id="path268" />
      <path
         d="m 3824,552 c 0,-11.047 -8.95,-19.996 -20,-19.996 -11.05,0 -20,8.949 -20,19.996 0,11.047 8.95,20 20,20 11.05,0 20,-8.953 20,-20"
         style="fill:#000000;fill-opacity:1;fill-rule:nonzero;stroke:none"
         id="path270" />
      <path
         d="m 3585.08,766.91 c 0,-11.047 -8.95,-20 -20,-20 -11.04,0 -20,8.953 -20,20 0,11.047 8.96,19.996 20,19.996 11.05,0 20,-8.949 20,-19.996"
         style="fill:#000000;fill-opacity:1;fill-rule:nonzero;stroke:none"
         id="path272" />
      <path
         d="m 3377.41,981.816 c 0,-11.043 -8.95,-19.996 -20,-19.996 -11.05,0 -20,8.953 -20,19.996 0,11.047 8.95,20.004 20,20.004 11.05,0 20,-8.957 20,-20.004"
         style="fill:#000000;fill-opacity:1;fill-rule:nonzero;stroke:none"
         id="path274" />
      <path
         d="m 3008.12,1196.73 c 0,-11.05 -8.95,-20 -19.99,-20 -11.05,0 -20,8.95 -20,20 0,11.04 8.95,20 20,20 11.04,0 19.99,-8.96 19.99,-20"
         style="fill:#000000;fill-opacity:1;fill-rule:nonzero;stroke:none"
         id="path276" />
      <path
         d="m 2592.99,1411.64 c 0,-11.05 -8.95,-20 -20,-20 -11.04,0 -20,8.95 -20,20 0,11.04 8.96,19.99 20,19.99 11.05,0 20,-8.95 20,-19.99"
         style="fill:#000000;fill-opacity:1;fill-rule:nonzero;stroke:none"
         id="path278" />
      <path
         d="m 2255.16,1626.55 c 0,-11.05 -8.96,-20 -20,-20 -11.05,0 -20,8.95 -20,20 0,11.04 8.95,19.99 20,19.99 11.04,0 20,-8.95 20,-19.99"
         style="fill:#000000;fill-opacity:1;fill-rule:nonzero;stroke:none"
         id="path280" />
      <path
         d="m 1917.32,1841.45 c 0,-11.04 -8.95,-19.99 -19.99,-19.99 -11.05,0 -20,8.95 -20,19.99 0,11.05 8.95,20 20,20 11.04,0 19.99,-8.95 19.99,-20"
         style="fill:#000000;fill-opacity:1;fill-rule:nonzero;stroke:none"
         id="path282" />
      <path
         d="m 1693.1,2056.36 c 0,-11.04 -8.95,-19.99 -20,-19.99 -11.05,0 -19.99,8.95 -19.99,19.99 0,11.05 8.94,20 19.99,20 11.05,0 20,-8.95 20,-20"
         style="fill:#000000;fill-opacity:1;fill-rule:nonzero;stroke:none"
         id="path284" />
      <path
         d="m 1253.7,2271.27 c 0,-11.04 -8.95,-20 -20,-20 -11.05,0 -20,8.96 -20,20 0,11.05 8.95,20 20,20 11.05,0 20,-8.95 20,-20"
         style="fill:#000000;fill-opacity:1;fill-rule:nonzero;stroke:none"
         id="path286" />
      <path
         d="m 1147.9,2486.18 c 0,-11.04 -8.95,-20 -20,-20 -11.04,0 -19.99,8.96 -19.99,20 0,11.05 8.95,20 19.99,20 11.05,0 20,-8.95 20,-20"
         style="fill:#000000;fill-opacity:1;fill-rule:nonzero;stroke:none"
         id="path288" />
      <path
         d="m 1147.9,2701.09 c 0,-11.04 -8.95,-20 -20,-20 -11.04,0 -19.99,8.96 -19.99,20 0,11.05 8.95,20 19.99,20 11.05,0 20,-8.95 20,-20"
         style="fill:#000000;fill-opacity:1;fill-rule:nonzero;stroke:none"
         id="path290" />
      <path
         d="m 1147.9,2916 c 0,-11.05 -8.95,-20 -20,-20 -11.04,0 -19.99,8.95 -19.99,20 0,11.05 8.95,20 19.99,20 11.05,0 20,-8.95 20,-20"
         style="fill:#000000;fill-opacity:1;fill-rule:nonzero;stroke:none"
         id="path292" />
      <path
         d="M 3804,552 V 2916"
         style="fill:none;stroke:#000000;stroke-width:4.998;stroke-linecap:butt;stroke-linejoin:round;stroke-miterlimit:10;stroke-dasharray:none;stroke-opacity:1"
         id="path294" />
      <path
         d="M 546,552 V 2916"
         style="fill:none;stroke:#000000;stroke-width:4.998;stroke-linecap:butt;stroke-linejoin:round;stroke-miterlimit:10;stroke-dasharray:none;stroke-opacity:1"
         id="path296" />
      <path
         d="M 546,552 H 3804"
         style="fill:none;stroke:#000000;stroke-width:4.998;stroke-linecap:butt;stroke-linejoin:round;stroke-miterlimit:10;stroke-dasharray:none;stroke-opacity:1"
         id="path298" />
      <path
         d="m 3030,2442 h 696 v 396 h -696 z"
         style="fill:#ffffff;fill-opacity:1;fill-rule:nonzero;stroke:none"
         id="path300" />
      <g
         id="g302"
         transform="scale(10)">
        <g
           aria-label="Fail"
           transform="matrix(1,0,0,-1,338.326,267.84)"
           id="text306"
           style="font-size:13.9998px;font-family:Helvetica;-inkscape-font-specification:Helvetica">
          <path
             d="M 2.5619634,-4.6479335 H 7.4338937 V -5.7959171 H 2.5619634 V -9.0578704 H 8.105884 V -10.205854 H 1.259982 V 0 h 1.3019814 z"
             id="path407" />
          <path
             d="m 16.043771,-0.68599019 c -0.125999,0.0279996 -0.181998,0.0279996 -0.251997,0.0279996 -0.405994,0 -0.629991,-0.20999699 -0.629991,-0.57399181 v -4.3119383 c 0,-1.3019814 -0.951986,-2.0019714 -2.75796,-2.0019714 -1.077985,0 -1.931973,0.3079956 -2.4359654,0.8539878 -0.3359952,0.3779946 -0.4759932,0.7979886 -0.5039928,1.5259782 h 1.1759832 c 0.098,-0.8959872 0.629991,-1.3019814 1.721975,-1.3019814 1.063985,0 1.637977,0.3919944 1.637977,1.0919844 v 0.3079956 c -0.014,0.5039928 -0.265996,0.6859902 -1.217983,0.8119884 -1.651976,0.209997 -1.903972,0.2659962 -2.351966,0.4479936 -0.8539878,0.3639948 -1.2879816,1.0079856 -1.2879816,1.9599719 0,1.32998101 0.9239866,2.16996899 2.4079656,2.16996899 0.923987,0 1.665976,-0.32199539 2.491964,-1.07798458 0.084,0.75598919 0.447994,1.07798458 1.203983,1.07798458 0.251996,0 0.405994,-0.0279996 0.797989,-0.12599819 z M 13.9998,-2.309967 c 0,0.3919944 -0.111998,0.629991 -0.461993,0.9519864 -0.475994,0.43399382 -1.049985,0.65799061 -1.735976,0.65799061 -0.909987,0 -1.441979,-0.43399381 -1.441979,-1.17598321 0,-0.7699889 0.503993,-1.1619833 1.763975,-1.3439807 1.245982,-0.1679976 1.483979,-0.2239968 1.875973,-0.4059942 z"
             id="path409" />
          <path
             d="M 18.437737,-7.3358951 H 17.275753 V 0 h 1.161984 z m 0,-2.8699589 h -1.175984 v 1.469979 h 1.175984 z"
             id="path411" />
          <path
             d="M 21.573692,-10.205854 H 20.397709 V 0 h 1.175983 z"
             id="path413" />
        </g>
      </g>
      <path
         d="m 3060.07,2664.52 h 300.648 v 135.77 H 3060.07 Z"
         style="fill:#ffe0e0;fill-opacity:1;fill-rule:nonzero;stroke:none"
         id="path308" />
      <path
         d="m 3060.07,2664.52 h 300.648 v 135.77 H 3060.07 Z"
         style="fill:none;stroke:#000000;stroke-width:4.998;stroke-linecap:butt;stroke-linejoin:miter;stroke-miterlimit:10;stroke-dasharray:none;stroke-opacity:1"
         id="path310" />
      <g
         id="g312"
         transform="scale(10)">
        <g
           aria-label="Pass"
           transform="matrix(1,0,0,-1,338.326,249.36)"
           id="text316"
           style="font-size:13.9998px;font-family:Helvetica;-inkscape-font-specification:Helvetica">
          <path
             d="m 2.5759632,-4.3259381 h 3.2059541 c 0.7979886,0 1.4279796,-0.2379966 1.9739717,-0.7279896 0.6159912,-0.559992 0.8819874,-1.2179826 0.8819874,-2.1559692 0,-1.9179725 -1.1339837,-2.9959571 -3.1499549,-2.9959571 H 1.2739818 V 0 h 1.3019814 z m 0,-1.1479836 v -3.5839487 h 2.7159611 c 1.2459822,0 1.9879716,0.6719904 1.9879716,1.7919743 0,1.119984 -0.7419894,1.7919744 -1.9879716,1.7919744 z"
             id="path416" />
          <path
             d="m 16.82776,-0.68599019 c -0.125999,0.0279996 -0.181998,0.0279996 -0.251997,0.0279996 -0.405994,0 -0.629991,-0.20999699 -0.629991,-0.57399181 v -4.3119383 c 0,-1.3019814 -0.951986,-2.0019714 -2.75796,-2.0019714 -1.077985,0 -1.931973,0.3079956 -2.435965,0.8539878 -0.335996,0.3779946 -0.475994,0.7979886 -0.503993,1.5259782 h 1.175983 c 0.098,-0.8959872 0.629991,-1.3019814 1.721975,-1.3019814 1.063985,0 1.637977,0.3919944 1.637977,1.0919844 v 0.3079956 c -0.014,0.5039928 -0.265996,0.6859902 -1.217983,0.8119884 -1.651976,0.209997 -1.903972,0.2659962 -2.351966,0.4479936 -0.853988,0.3639948 -1.2879816,1.0079856 -1.2879816,1.9599719 0,1.32998101 0.9239866,2.16996899 2.4079656,2.16996899 0.923987,0 1.665976,-0.32199539 2.491964,-1.07798458 0.084,0.75598919 0.447994,1.07798458 1.203983,1.07798458 0.251996,0 0.405994,-0.0279996 0.797989,-0.12599819 z M 14.783789,-2.309967 c 0,0.3919944 -0.111999,0.629991 -0.461994,0.9519864 -0.475993,0.43399382 -1.049984,0.65799061 -1.735975,0.65799061 -0.909987,0 -1.441979,-0.43399381 -1.441979,-1.17598321 0,-0.7699889 0.503993,-1.1619833 1.763975,-1.3439807 1.245982,-0.1679976 1.483978,-0.2239968 1.875973,-0.4059942 z"
             id="path418" />
          <path
             d="m 23.253668,-5.2919243 c -0.014,-1.4419794 -0.965986,-2.2539678 -2.659962,-2.2539678 -1.707976,0 -2.81396,0.8819874 -2.81396,2.239968 0,1.1479836 0.587992,1.6939758 2.323967,2.1139698 l 1.091984,0.2659962 c 0.811989,0.1959972 1.133984,0.4899929 1.133984,1.0079855 0,0.69999 -0.68599,1.16198341 -1.707975,1.16198341 -0.629991,0 -1.161984,-0.18199739 -1.45598,-0.48999301 -0.181997,-0.209997 -0.265996,-0.419994 -0.335995,-0.9379866 h -1.231982 c 0.056,1.69397581 1.007985,2.50596419 2.925958,2.50596419 1.847973,0 3.023957,-0.90998698 3.023957,-2.32396679 0,-1.0919843 -0.615992,-1.6939757 -2.071971,-2.0439707 l -1.119984,-0.2659962 c -0.951986,-0.2239968 -1.35798,-0.5319924 -1.35798,-1.049985 0,-0.6859902 0.601991,-1.1059842 1.553978,-1.1059842 0.937986,0 1.441979,0.4059942 1.469979,1.1759832 z"
             id="path420" />
          <path
             d="m 30.253567,-5.2919243 c -0.014,-1.4419794 -0.965986,-2.2539678 -2.659962,-2.2539678 -1.707976,0 -2.81396,0.8819874 -2.81396,2.239968 0,1.1479836 0.587992,1.6939758 2.323967,2.1139698 l 1.091984,0.2659962 c 0.811989,0.1959972 1.133984,0.4899929 1.133984,1.0079855 0,0.69999 -0.68599,1.16198341 -1.707976,1.16198341 -0.629991,0 -1.161983,-0.18199739 -1.455979,-0.48999301 -0.181997,-0.209997 -0.265996,-0.419994 -0.335995,-0.9379866 h -1.231982 c 0.056,1.69397581 1.007985,2.50596419 2.925958,2.50596419 1.847973,0 3.023957,-0.90998698 3.023957,-2.32396679 0,-1.0919843 -0.615992,-1.6939757 -2.071971,-2.0439707 l -1.119984,-0.2659962 c -0.951986,-0.2239968 -1.35798,-0.5319924 -1.35798,-1.049985 0,-0.6859902 0.601991,-1.1059842 1.553977,-1.1059842 0.937987,0 1.44198,0.4059942 1.469979,1.1759832 z"
             id="path422" />
        </g>
      </g>
      <path
         d="m 3060.07,2479.71 h 300.648 v 135.77 H 3060.07 Z"
         style="fill:#dbdbff;fill-opacity:1;fill-rule:nonzero;stroke:none"
         id="path318" />
      <path
         d="m 3060.07,2479.71 h 300.648 v 135.77 H 3060.07 Z"
         style="fill:none;stroke:#000000;stroke-width:4.998;stroke-linecap:butt;stroke-linejoin:miter;stroke-miterlimit:10;stroke-dasharray:none;stroke-opacity:1"
         id="path320" />
      <path
         d="m 3030,2442 h 696 v 396 h -696 z"
         style="fill:none;stroke:#262626;stroke-width:4.998;stroke-linecap:butt;stroke-linejoin:miter;stroke-miterlimit:10;stroke-dasharray:none;stroke-opacity:1"
         id="path322" />
      <path
         d="m 19.9961,0 c 0,11.0469 -8.9492,19.9961 -19.9961,19.9961 -11.0469,0 -19.9961,-8.9492 -19.9961,-19.9961 0,-11.0469 8.9492,-19.9961 19.9961,-19.9961 11.0469,0 19.9961,8.9492 19.9961,19.9961"
         style="fill:#808080;fill-opacity:1;fill-rule:nonzero;stroke:none"
         id="path324" />
      <path
         d="M 0,19.9961 C 11.0469,19.9961 19.9961,11.0469 19.9961,0 v 0 c 0,-11.0469 -8.9492,-19.9961 -19.9961,-19.9961 -11.0469,0 -19.9961,8.9492 -19.9961,19.9961 0,11.0469 8.9492,19.9961 19.9961,19.9961 z M 0,30 c -16.5664,0 -30,-13.4336 -30,-30 0,-16.5664 13.4336,-30 30,-30 16.5664,0 30,13.4336 30,30 V 0 C 30,16.5664 16.5664,30 0,30"
         style="fill:#ffffdc;fill-opacity:1;fill-rule:nonzero;stroke:none"
         id="path326" />
    </g>
  </g>
</svg>
