<?xml version="1.0" encoding="UTF-8" standalone="no"?>
<!-- Created with Inkscape (http://www.inkscape.org/) -->

<svg
   version="1.1"
   id="svg2"
   width="560"
   height="420"
   viewBox="0 0 560 420"
   sodipodi:docname="Lambda_Nu.eps"
   xmlns:inkscape="http://www.inkscape.org/namespaces/inkscape"
   xmlns:sodipodi="http://sodipodi.sourceforge.net/DTD/sodipodi-0.dtd"
   xmlns="http://www.w3.org/2000/svg"
   xmlns:svg="http://www.w3.org/2000/svg">
  <defs
     id="defs6" />
  <sodipodi:namedview
     id="namedview4"
     pagecolor="#ffffff"
     bordercolor="#000000"
     borderopacity="0.25"
     inkscape:showpageshadow="2"
     inkscape:pageopacity="0.0"
     inkscape:pagecheckerboard="0"
     inkscape:deskcolor="#d1d1d1" />
  <g
     id="g8"
     inkscape:groupmode="layer"
     inkscape:label="ink_ext_XXXXXX"
     transform="matrix(1.3333333,0,0,-1.3333333,0,420)">
    <g
       id="g10"
       transform="scale(0.1)">
      <path
         d="M 0,0 H 4200 V 3150 H 0 Z"
         style="fill:#ffffff;fill-opacity:1;fill-rule:nonzero;stroke:none"
         id="path12" />
      <path
         d="M 0,0 H 4200 V 3150 H 0 Z"
         style="fill:#ffffff;fill-opacity:1;fill-rule:nonzero;stroke:none"
         id="path14" />
      <path
         d="M 546,522 H 3804 V 2916 H 546 Z"
         style="fill:#ffffff;fill-opacity:1;fill-rule:nonzero;stroke:none"
         id="path16" />
      <path
         d="M 546,522 H 3804"
         style="fill:none;stroke:#262626;stroke-width:4.998;stroke-linecap:butt;stroke-linejoin:round;stroke-miterlimit:10;stroke-dasharray:none;stroke-opacity:1"
         id="path18" />
      <path
         d="m 546,522 h 3258 v 2394 l -86.5,-85.5 -172.99,-85.5 -86.49,-85.5 -86.5,-85.5 -115.32,-85.5 -144.16,-85.5 -57.67,-85.5 -172.99,-85.5 -115.33,-85.5 -57.66,-85.5 -115.33,-85.5 -144.16,-85.5 -115.33,-85.5 -115.32,-85.5 -86.5,-85.5 -201.82,-85.5 -115.32,-85.5 -115.34,-85.5 -57.66,-85.5 -201.82,-85.5 -86.5,-85.5 L 1266.8,1035 1151.46,949.5 1007.31,864 863.148,778.5 805.488,693 690.16,607.5"
         style="fill:#dbdbff;fill-opacity:1;fill-rule:nonzero;stroke:none"
         id="path20" />
      <path
         d="m 546,522 144.16,85.5 115.328,85.5 57.66,85.5 144.162,85.5 144.15,85.5 115.34,85.5 86.49,85.5 86.5,85.5 201.82,85.5 57.66,85.5 115.34,85.5 115.32,85.5 201.82,85.5 86.5,85.5 115.32,85.5 115.33,85.5 144.16,85.5 115.33,85.5 57.66,85.5 115.33,85.5 172.99,85.5 57.67,85.5 144.16,85.5 115.32,85.5 86.5,85.5 86.49,85.5 172.99,85.5 86.5,85.5"
         style="fill:none;stroke:#000000;stroke-width:4.998;stroke-linecap:butt;stroke-linejoin:round;stroke-miterlimit:10;stroke-dasharray:none;stroke-opacity:1"
         id="path22" />
      <path
         d="M 551.129,2916.29 H 546 V 522 l 144.16,85.5 115.328,85.5 57.66,85.5 144.162,85.5 144.15,85.5 115.34,85.5 86.49,85.5 86.5,85.5 201.82,85.5 57.66,85.5 115.34,85.5 115.32,85.5 201.82,85.5 86.5,85.5 115.32,85.5 115.33,85.5 144.16,85.5 115.33,85.5 57.66,85.5 115.33,85.5 172.99,85.5 57.67,85.5 144.16,85.5 115.32,85.5 86.5,85.5 86.49,85.5 172.99,85.5 86.5,85.5 v 0.29 h -0.29 -86.21 -86.78 -86.21 -57.75 -28.74 -64.95 -21.55 -92.33 -22.99 -120.22 -23.94 -49.46 -8.21 -151.44 -21.55 -102.56 -12.77 -51.91 -5.75 -104.87 -10.46 -132.18 -11.98 -106.48 -8.85 -107.11 -8.21 -80.75 -5.75 -189.25 -12.57 -108.56 -6.76 -108.95 -6.39 -54.63 -3.03 -191.76 -10.06 -82.39 -4.11 -82.58 -3.91 -110.34 -5 -138.16 -5.99 -138.415 -5.747 -55.453 -2.207 -111.07 -4.258"
         style="fill:#ffe0e0;fill-opacity:1;fill-rule:nonzero;stroke:none"
         id="path24" />
      <path
         d="M 546,522 H 3804"
         style="fill:none;stroke:#262626;stroke-width:4.998;stroke-linecap:square;stroke-linejoin:round;stroke-miterlimit:10;stroke-dasharray:none;stroke-opacity:1"
         id="path26" />
      <path
         d="M 546,2916 H 3804"
         style="fill:none;stroke:#262626;stroke-width:4.998;stroke-linecap:square;stroke-linejoin:round;stroke-miterlimit:10;stroke-dasharray:none;stroke-opacity:1"
         id="path28" />
      <path
         d="M 690.16,522 V 489.422"
         style="fill:none;stroke:#262626;stroke-width:4.998;stroke-linecap:square;stroke-linejoin:round;stroke-miterlimit:10;stroke-dasharray:none;stroke-opacity:1"
         id="path30" />
      <path
         d="M 978.48,522 V 489.422"
         style="fill:none;stroke:#262626;stroke-width:4.998;stroke-linecap:square;stroke-linejoin:round;stroke-miterlimit:10;stroke-dasharray:none;stroke-opacity:1"
         id="path32" />
      <path
         d="M 1266.8,522 V 489.422"
         style="fill:none;stroke:#262626;stroke-width:4.998;stroke-linecap:square;stroke-linejoin:round;stroke-miterlimit:10;stroke-dasharray:none;stroke-opacity:1"
         id="path34" />
      <path
         d="M 1555.12,522 V 489.422"
         style="fill:none;stroke:#262626;stroke-width:4.998;stroke-linecap:square;stroke-linejoin:round;stroke-miterlimit:10;stroke-dasharray:none;stroke-opacity:1"
         id="path36" />
      <path
         d="M 1843.43,522 V 489.422"
         style="fill:none;stroke:#262626;stroke-width:4.998;stroke-linecap:square;stroke-linejoin:round;stroke-miterlimit:10;stroke-dasharray:none;stroke-opacity:1"
         id="path38" />
      <path
         d="M 2131.75,522 V 489.422"
         style="fill:none;stroke:#262626;stroke-width:4.998;stroke-linecap:square;stroke-linejoin:round;stroke-miterlimit:10;stroke-dasharray:none;stroke-opacity:1"
         id="path40" />
      <path
         d="M 2420.07,522 V 489.422"
         style="fill:none;stroke:#262626;stroke-width:4.998;stroke-linecap:square;stroke-linejoin:round;stroke-miterlimit:10;stroke-dasharray:none;stroke-opacity:1"
         id="path42" />
      <path
         d="M 2708.39,522 V 489.422"
         style="fill:none;stroke:#262626;stroke-width:4.998;stroke-linecap:square;stroke-linejoin:round;stroke-miterlimit:10;stroke-dasharray:none;stroke-opacity:1"
         id="path44" />
      <path
         d="M 2996.71,522 V 489.422"
         style="fill:none;stroke:#262626;stroke-width:4.998;stroke-linecap:square;stroke-linejoin:round;stroke-miterlimit:10;stroke-dasharray:none;stroke-opacity:1"
         id="path46" />
      <path
         d="M 3285.02,522 V 489.422"
         style="fill:none;stroke:#262626;stroke-width:4.998;stroke-linecap:square;stroke-linejoin:round;stroke-miterlimit:10;stroke-dasharray:none;stroke-opacity:1"
         id="path48" />
      <path
         d="M 3573.34,522 V 489.422"
         style="fill:none;stroke:#262626;stroke-width:4.998;stroke-linecap:square;stroke-linejoin:round;stroke-miterlimit:10;stroke-dasharray:none;stroke-opacity:1"
         id="path50" />
      <path
         d="m 690.16,2916 v 32.58"
         style="fill:none;stroke:#262626;stroke-width:4.998;stroke-linecap:square;stroke-linejoin:round;stroke-miterlimit:10;stroke-dasharray:none;stroke-opacity:1"
         id="path52" />
      <path
         d="m 978.48,2916 v 32.58"
         style="fill:none;stroke:#262626;stroke-width:4.998;stroke-linecap:square;stroke-linejoin:round;stroke-miterlimit:10;stroke-dasharray:none;stroke-opacity:1"
         id="path54" />
      <path
         d="m 1266.8,2916 v 32.58"
         style="fill:none;stroke:#262626;stroke-width:4.998;stroke-linecap:square;stroke-linejoin:round;stroke-miterlimit:10;stroke-dasharray:none;stroke-opacity:1"
         id="path56" />
      <path
         d="m 1555.12,2916 v 32.58"
         style="fill:none;stroke:#262626;stroke-width:4.998;stroke-linecap:square;stroke-linejoin:round;stroke-miterlimit:10;stroke-dasharray:none;stroke-opacity:1"
         id="path58" />
      <path
         d="m 1843.43,2916 v 32.58"
         style="fill:none;stroke:#262626;stroke-width:4.998;stroke-linecap:square;stroke-linejoin:round;stroke-miterlimit:10;stroke-dasharray:none;stroke-opacity:1"
         id="path60" />
      <path
         d="m 2131.75,2916 v 32.58"
         style="fill:none;stroke:#262626;stroke-width:4.998;stroke-linecap:square;stroke-linejoin:round;stroke-miterlimit:10;stroke-dasharray:none;stroke-opacity:1"
         id="path62" />
      <path
         d="m 2420.07,2916 v 32.58"
         style="fill:none;stroke:#262626;stroke-width:4.998;stroke-linecap:square;stroke-linejoin:round;stroke-miterlimit:10;stroke-dasharray:none;stroke-opacity:1"
         id="path64" />
      <path
         d="m 2708.39,2916 v 32.58"
         style="fill:none;stroke:#262626;stroke-width:4.998;stroke-linecap:square;stroke-linejoin:round;stroke-miterlimit:10;stroke-dasharray:none;stroke-opacity:1"
         id="path66" />
      <path
         d="m 2996.71,2916 v 32.58"
         style="fill:none;stroke:#262626;stroke-width:4.998;stroke-linecap:square;stroke-linejoin:round;stroke-miterlimit:10;stroke-dasharray:none;stroke-opacity:1"
         id="path68" />
      <path
         d="m 3285.02,2916 v 32.58"
         style="fill:none;stroke:#262626;stroke-width:4.998;stroke-linecap:square;stroke-linejoin:round;stroke-miterlimit:10;stroke-dasharray:none;stroke-opacity:1"
         id="path70" />
      <path
         d="m 3573.34,2916 v 32.58"
         style="fill:none;stroke:#262626;stroke-width:4.998;stroke-linecap:square;stroke-linejoin:round;stroke-miterlimit:10;stroke-dasharray:none;stroke-opacity:1"
         id="path72" />
      <g
         id="g74"
         transform="scale(10)">
        <g
           aria-label="130140150160170180190200210220230"
           transform="matrix(1,0,0,-1,60.616,34.7422)"
           id="text78"
           style="font-size:10.0002px;font-family:Helvetica;-inkscape-font-specification:Helvetica;fill:#262626">
          <path
             d="M 2.5900519,-5.1501031 V 0 H 3.4700695 V -7.2301448 H 2.8900579 C 2.5800517,-6.1201226 2.3800477,-5.9701196 1.0200204,-5.790116 v 0.6400129 z"
             id="path146" />
          <path
             d="m 7.7701553,-3.3300667 h 0.1100022 0.3700074 c 0.9600192,0 1.4700295,0.450009 1.4700295,1.3200264 0,0.9100183 -0.5500111,1.46002929 -1.4600293,1.46002929 -0.9700194,0 -1.4400288,-0.49000979 -1.50003,-1.55003109 H 5.8801175 c 0.040001,0.5800117 0.1400028,0.9600193 0.3100062,1.28002568 0.3700074,0.70001402 1.0600212,1.05002103 2.0300406,1.05002103 1.4600293,0 2.4000477,-0.88001763 2.4000477,-2.25004511 0,-0.9200184 -0.350007,-1.4200284 -1.2000236,-1.7200344 0.6600136,-0.2700054 0.9900196,-0.7700154 0.9900196,-1.50003 0,-1.2400249 -0.810016,-1.9900399 -2.1600431,-1.9900399 -1.4300286,0 -2.1900438,0.800016 -2.2200444,2.3300467 h 0.8800176 c 0.01,-0.4400088 0.050001,-0.6900139 0.1600032,-0.9100183 0.200004,-0.4100082 0.6400128,-0.650013 1.1900238,-0.650013 0.7800156,0 1.2500251,0.4700094 1.2500251,1.2500251 0,0.5100102 -0.1800037,0.8200164 -0.5700115,0.9900198 -0.2400048,0.100002 -0.5600112,0.1400028 -1.1700234,0.150003 z"
             id="path148" />
          <path
             d="m 13.870277,-7.2301448 c -0.660013,0 -1.260025,0.300006 -1.630032,0.7900158 -0.46001,0.6400128 -0.690014,1.6000321 -0.690014,2.9400589 0,2.4400489 0.800016,3.73007471 2.320046,3.73007471 1.50003,0 2.320047,-1.29002581 2.320047,-3.67007351 0,-1.400028 -0.220005,-2.3400469 -0.690014,-3.0000601 -0.370008,-0.50001 -0.960019,-0.7900158 -1.630033,-0.7900158 z m 0,0.7800156 c 0.950019,0 1.420029,0.9700195 1.420029,2.9300587 0,2.0600413 -0.46001,3.02006049 -1.440029,3.02006049 -0.930019,0 -1.400028,-1.00001999 -1.400028,-2.99005989 0,-1.9900398 0.470009,-2.9600593 1.420028,-2.9600593 z"
             id="path150" />
          <path
             d="M 31.421728,-5.1501031 V 0 h 0.880018 v -7.2301448 h -0.580012 c -0.310006,1.1100222 -0.51001,1.2600252 -1.870037,1.4400288 v 0.6400129 z"
             id="path152" />
          <path
             d="M 37.661854,-1.750035 V 0 h 0.880018 v -1.750035 h 1.050021 v -0.7900159 h -1.050021 v -4.6900939 h -0.650013 l -3.220065,4.5500911 v 0.9300187 z m 0,-0.7900159 H 35.44181 l 2.220044,-3.1900639 z"
             id="path154" />
          <path
             d="m 42.701956,-7.2301448 c -0.660014,0 -1.260026,0.300006 -1.630033,0.7900158 -0.460009,0.6400128 -0.690014,1.6000321 -0.690014,2.9400589 0,2.4400489 0.800016,3.73007471 2.320047,3.73007471 1.50003,0 2.320046,-1.29002581 2.320046,-3.67007351 0,-1.400028 -0.220004,-2.3400469 -0.690014,-3.0000601 -0.370007,-0.50001 -0.960019,-0.7900158 -1.630032,-0.7900158 z m 0,0.7800156 c 0.950019,0 1.420028,0.9700195 1.420028,2.9300587 0,2.0600413 -0.460009,3.02006049 -1.440029,3.02006049 -0.930018,0 -1.400028,-1.00001999 -1.400028,-2.99005989 0,-1.9900398 0.47001,-2.9600593 1.420029,-2.9600593 z"
             id="path156" />
          <path
             d="M 60.253805,-5.1501031 V 0 h 0.880018 v -7.2301448 h -0.580012 c -0.310006,1.1100222 -0.51001,1.2600252 -1.870037,1.4400288 v 0.6400129 z"
             id="path158" />
          <path
             d="m 67.983961,-7.090142 h -3.660073 l -0.530011,3.8600773 h 0.810016 c 0.410008,-0.4900098 0.750015,-0.6600132 1.310026,-0.6600132 0.950019,0 1.540031,0.650013 1.540031,1.700034 0,1.0200205 -0.590012,1.64003289 -1.550031,1.64003289 -0.770015,0 -1.240025,-0.39000782 -1.450029,-1.19002379 h -0.880017 c 0.120002,0.5800116 0.220004,0.86001718 0.430008,1.12002238 0.400008,0.54001082 1.120023,0.85001703 1.920039,0.85001703 1.430028,0 2.430048,-1.04002083 2.430048,-2.54005091 0,-1.400028 -0.930018,-2.3600472 -2.290046,-2.3600472 -0.50001,0 -0.900018,0.1300026 -1.310026,0.4300086 l 0.280006,-1.9800397 h 2.950059 z"
             id="path160" />
          <path
             d="m 71.534029,-7.2301448 c -0.660013,0 -1.260025,0.300006 -1.630033,0.7900158 -0.460009,0.6400128 -0.690014,1.6000321 -0.690014,2.9400589 0,2.4400489 0.800016,3.73007471 2.320047,3.73007471 1.50003,0 2.320046,-1.29002581 2.320046,-3.67007351 0,-1.400028 -0.220004,-2.3400469 -0.690014,-3.0000601 -0.370007,-0.50001 -0.960019,-0.7900158 -1.630032,-0.7900158 z m 0,0.7800156 c 0.950019,0 1.420028,0.9700195 1.420028,2.9300587 0,2.0600413 -0.460009,3.02006049 -1.440029,3.02006049 -0.930018,0 -1.400028,-1.00001999 -1.400028,-2.99005989 0,-1.9900398 0.47001,-2.9600593 1.420029,-2.9600593 z"
             id="path162" />
          <path
             d="M 89.085482,-5.1501031 V 0 h 0.880017 v -7.2301448 h -0.580011 c -0.310006,1.1100222 -0.51001,1.2600252 -1.870038,1.4400288 v 0.6400129 z"
             id="path164" />
          <path
             d="m 97.035642,-5.3501071 c -0.170004,-1.1800237 -0.930019,-1.8800377 -2.010041,-1.8800377 -0.780015,0 -1.480029,0.3800076 -1.900038,1.0300206 -0.450009,0.7100143 -0.640012,1.5900319 -0.640012,2.9000581 0,1.2200244 0.170003,1.9900399 0.600012,2.63005268 0.380007,0.59001182 1.00002,0.90001803 1.780035,0.90001803 1.350027,0 2.320047,-1.01002023 2.320047,-2.42004851 0,-1.3300266 -0.900018,-2.2700454 -2.170044,-2.2700454 -0.700014,0 -1.250025,0.2600052 -1.630032,0.7900158 0.01,-1.7900358 0.570011,-2.7800557 1.580031,-2.7800557 0.620013,0 1.050021,0.400008 1.190024,1.1000221 z m -2.130043,1.6700334 c 0.850017,0 1.380028,0.600012 1.380028,1.5600312 0,0.9100183 -0.600012,1.57003149 -1.410029,1.57003149 -0.820016,0 -1.440028,-0.69001379 -1.440028,-1.61003229 0,-0.900018 0.600012,-1.5200304 1.470029,-1.5200304 z"
             id="path166" />
          <path
             d="m 100.36571,-7.2301448 c -0.660014,0 -1.260026,0.300006 -1.630034,0.7900158 -0.460009,0.6400128 -0.690013,1.6000321 -0.690013,2.9400589 0,2.4400489 0.800016,3.73007471 2.320047,3.73007471 1.50003,0 2.32005,-1.29002581 2.32005,-3.67007351 0,-1.400028 -0.22001,-2.3400469 -0.69002,-3.0000601 -0.37001,-0.50001 -0.96002,-0.7900158 -1.63003,-0.7900158 z m 0,0.7800156 c 0.95002,0 1.42003,0.9700195 1.42003,2.9300587 0,2.0600413 -0.46001,3.02006049 -1.44003,3.02006049 -0.93002,0 -1.400029,-1.00001999 -1.400029,-2.99005989 0,-1.9900398 0.470009,-2.9600593 1.420029,-2.9600593 z"
             id="path168" />
          <path
             d="M 117.91756,-5.1501031 V 0 h 0.88002 v -7.2301448 h -0.58002 c -0.31,1.1100222 -0.51001,1.2600252 -1.87003,1.4400288 v 0.6400129 z"
             id="path170" />
          <path
             d="m 126.08772,-7.090142 h -4.74009 v 0.8700174 h 3.83007 C 123.48767,-3.8100763 122.79766,-2.3300467 122.26765,0 h 0.94002 c 0.39,-2.2700455 1.28002,-4.2200845 2.88005,-6.3501272 z"
             id="path172" />
          <path
             d="m 129.19779,-7.2301448 c -0.66002,0 -1.26003,0.300006 -1.63004,0.7900158 -0.46001,0.6400128 -0.69001,1.6000321 -0.69001,2.9400589 0,2.4400489 0.80002,3.73007471 2.32005,3.73007471 1.50003,0 2.32004,-1.29002581 2.32004,-3.67007351 0,-1.400028 -0.22,-2.3400469 -0.69001,-3.0000601 -0.37001,-0.50001 -0.96002,-0.7900158 -1.63003,-0.7900158 z m 0,0.7800156 c 0.95002,0 1.42002,0.9700195 1.42002,2.9300587 0,2.0600413 -0.46,3.02006049 -1.44002,3.02006049 -0.93002,0 -1.40003,-1.00001999 -1.40003,-2.99005989 0,-1.9900398 0.47001,-2.9600593 1.42003,-2.9600593 z"
             id="path174" />
          <path
             d="M 146.74963,-5.1501031 V 0 h 0.88002 v -7.2301448 h -0.58002 c -0.31,1.1100222 -0.51001,1.2600252 -1.87003,1.4400288 v 0.6400129 z"
             id="path176" />
          <path
             d="m 153.62977,-3.8100763 c 0.74002,-0.450009 0.97002,-0.8100162 0.97002,-1.4900298 0,-1.1400229 -0.87001,-1.9300387 -2.13004,-1.9300387 -1.25002,0 -2.13004,0.7900158 -2.13004,1.9200385 0,0.6900138 0.23,1.0400208 0.96002,1.50003 -0.81002,0.4100082 -1.21003,1.00002 -1.21003,1.800036 0,1.32002648 0.97002,2.24004491 2.38005,2.24004491 1.40003,0 2.38005,-0.92001843 2.38005,-2.24004491 0,-0.800016 -0.40001,-1.3900278 -1.22003,-1.800036 z m -1.16002,-2.6400529 c 0.75002,0 1.23003,0.450009 1.23003,1.1700235 0,0.6800136 -0.49001,1.1300226 -1.23003,1.1300226 -0.75001,0 -1.23002,-0.450009 -1.23002,-1.150023 0,-0.7000141 0.48001,-1.1500231 1.23002,-1.1500231 z m 0,3.0400609 c 0.88002,0 1.48003,0.5800116 1.48003,1.4200284 0,0.8700175 -0.59001,1.44002889 -1.50003,1.44002889 -0.86002,0 -1.46003,-0.59001179 -1.46003,-1.43002869 0,-0.8600172 0.59001,-1.4300286 1.48003,-1.4300286 z"
             id="path178" />
          <path
             d="m 158.02986,-7.2301448 c -0.66002,0 -1.26003,0.300006 -1.63004,0.7900158 -0.46001,0.6400128 -0.69001,1.6000321 -0.69001,2.9400589 0,2.4400489 0.80002,3.73007471 2.32005,3.73007471 1.50003,0 2.32004,-1.29002581 2.32004,-3.67007351 0,-1.400028 -0.22,-2.3400469 -0.69001,-3.0000601 -0.37001,-0.50001 -0.96002,-0.7900158 -1.63003,-0.7900158 z m 0,0.7800156 c 0.95001,0 1.42002,0.9700195 1.42002,2.9300587 0,2.0600413 -0.46001,3.02006049 -1.44002,3.02006049 -0.93002,0 -1.40003,-1.00001999 -1.40003,-2.99005989 0,-1.9900398 0.47001,-2.9600593 1.42003,-2.9600593 z"
             id="path180" />
          <path
             d="M 175.58131,-5.1501031 V 0 h 0.88002 v -7.2301448 h -0.58002 c -0.31,1.1100222 -0.51001,1.2600252 -1.87003,1.4400288 v 0.6400129 z"
             id="path182" />
          <path
             d="m 179.08139,-1.650033 c 0.17,1.18002359 0.93002,1.88003761 2.01004,1.88003761 0.79001,0 1.49003,-0.38000761 1.91004,-1.03002063 0.44,-0.71001418 0.64001,-1.59003188 0.64001,-2.90005808 0,-1.2200244 -0.18001,-1.9900399 -0.60001,-2.6300527 -0.39001,-0.5900118 -1.01002,-0.900018 -1.79004,-0.900018 -1.35003,0 -2.32005,1.0100202 -2.32005,2.4100483 0,1.3300266 0.90002,2.2700454 2.18005,2.2700454 0.67001,0 1.17002,-0.2400048 1.62003,-0.7900158 -0.01,1.8000361 -0.57001,2.79005589 -1.58003,2.79005589 -0.62001,0 -1.05002,-0.40000802 -1.19003,-1.10002199 z m 2.16004,-4.8100964 c 0.82002,0 1.44003,0.6900138 1.44003,1.6200325 0,0.8900178 -0.60001,1.5100302 -1.47003,1.5100302 -0.85002,0 -1.38003,-0.600012 -1.38003,-1.5600312 0,-0.9100183 0.59001,-1.5700315 1.41003,-1.5700315 z"
             id="path184" />
          <path
             d="m 186.86154,-7.2301448 c -0.66002,0 -1.26003,0.300006 -1.63004,0.7900158 -0.46001,0.6400128 -0.69001,1.6000321 -0.69001,2.9400589 0,2.4400489 0.80002,3.73007471 2.32005,3.73007471 1.50003,0 2.32004,-1.29002581 2.32004,-3.67007351 0,-1.400028 -0.22,-2.3400469 -0.69001,-3.0000601 -0.37001,-0.50001 -0.96002,-0.7900158 -1.63003,-0.7900158 z m 0,0.7800156 c 0.95001,0 1.42002,0.9700195 1.42002,2.9300587 0,2.0600413 -0.46,3.02006049 -1.44002,3.02006049 -0.93002,0 -1.40003,-1.00001999 -1.40003,-2.99005989 0,-1.9900398 0.47001,-2.9600593 1.42003,-2.9600593 z"
             id="path186" />
          <path
             d="m 206.88344,-0.87001742 h -3.73008 c 0.09,-0.60001198 0.41001,-0.98001968 1.28003,-1.51003028 l 1.00002,-0.5600112 c 0.99002,-0.550011 1.50003,-1.2900258 1.50003,-2.1800436 0,-0.6000121 -0.24001,-1.1600233 -0.66002,-1.5500311 -0.42001,-0.3800076 -0.94002,-0.5600112 -1.61003,-0.5600112 -0.90002,0 -1.57003,0.3200064 -1.96004,0.9400188 -0.25,0.3800076 -0.36001,0.8300167 -0.38001,1.5600313 h 0.88002 c 0.03,-0.4900098 0.09,-0.7800156 0.21001,-1.0200205 0.23,-0.4400088 0.69001,-0.7100142 1.22002,-0.7100142 0.80002,0 1.40003,0.5800116 1.40003,1.3600273 0,0.5800116 -0.33001,1.0800216 -0.96002,1.4400288 l -0.92002,0.5400108 c -1.48003,0.850017 -1.91004,1.5300307 -1.99004,3.1100623 h 4.7201 z"
             id="path188" />
          <path
             d="m 210.13351,-7.2301448 c -0.66001,0 -1.26003,0.300006 -1.63003,0.7900158 -0.46001,0.6400128 -0.69002,1.6000321 -0.69002,2.9400589 0,2.4400489 0.80002,3.73007471 2.32005,3.73007471 1.50003,0 2.32004,-1.29002581 2.32004,-3.67007351 0,-1.400028 -0.22,-2.3400469 -0.69001,-3.0000601 -0.37001,-0.50001 -0.96002,-0.7900158 -1.63003,-0.7900158 z m 0,0.7800156 c 0.95002,0 1.42003,0.9700195 1.42003,2.9300587 0,2.0600413 -0.46001,3.02006049 -1.44003,3.02006049 -0.93002,0 -1.40003,-1.00001999 -1.40003,-2.99005989 0,-1.9900398 0.47001,-2.9600593 1.42003,-2.9600593 z"
             id="path190" />
          <path
             d="m 215.69361,-7.2301448 c -0.66001,0 -1.26002,0.300006 -1.63003,0.7900158 -0.46001,0.6400128 -0.69001,1.6000321 -0.69001,2.9400589 0,2.4400489 0.80001,3.73007471 2.32004,3.73007471 1.50003,0 2.32005,-1.29002581 2.32005,-3.67007351 0,-1.400028 -0.22001,-2.3400469 -0.69001,-3.0000601 -0.37001,-0.50001 -0.96002,-0.7900158 -1.63004,-0.7900158 z m 0,0.7800156 c 0.95002,0 1.42003,0.9700195 1.42003,2.9300587 0,2.0600413 -0.46001,3.02006049 -1.44003,3.02006049 -0.93002,0 -1.40003,-1.00001999 -1.40003,-2.99005989 0,-1.9900398 0.47001,-2.9600593 1.42003,-2.9600593 z"
             id="path192" />
          <path
             d="m 235.71512,-0.87001742 h -3.73008 c 0.09,-0.60001198 0.41001,-0.98001968 1.28003,-1.51003028 l 1.00002,-0.5600112 c 0.99002,-0.550011 1.50003,-1.2900258 1.50003,-2.1800436 0,-0.6000121 -0.24001,-1.1600233 -0.66002,-1.5500311 -0.42001,-0.3800076 -0.94002,-0.5600112 -1.61003,-0.5600112 -0.90002,0 -1.57003,0.3200064 -1.96004,0.9400188 -0.25,0.3800076 -0.36001,0.8300167 -0.38001,1.5600313 h 0.88002 c 0.03,-0.4900098 0.09,-0.7800156 0.21001,-1.0200205 0.23,-0.4400088 0.69001,-0.7100142 1.22002,-0.7100142 0.80002,0 1.40003,0.5800116 1.40003,1.3600273 0,0.5800116 -0.33001,1.0800216 -0.96002,1.4400288 l -0.92002,0.5400108 c -1.48003,0.850017 -1.91004,1.5300307 -1.99004,3.1100623 h 4.7201 z"
             id="path194" />
          <path
             d="M 238.80517,-5.1501031 V 0 h 0.88002 v -7.2301448 h -0.58001 c -0.31001,1.1100222 -0.51001,1.2600252 -1.87004,1.4400288 v 0.6400129 z"
             id="path196" />
          <path
             d="m 244.52529,-7.2301448 c -0.66001,0 -1.26002,0.300006 -1.63003,0.7900158 -0.46001,0.6400128 -0.69001,1.6000321 -0.69001,2.9400589 0,2.4400489 0.80001,3.73007471 2.32004,3.73007471 1.50003,0 2.32005,-1.29002581 2.32005,-3.67007351 0,-1.400028 -0.22,-2.3400469 -0.69001,-3.0000601 -0.37001,-0.50001 -0.96002,-0.7900158 -1.63004,-0.7900158 z m 0,0.7800156 c 0.95002,0 1.42003,0.9700195 1.42003,2.9300587 0,2.0600413 -0.46001,3.02006049 -1.44003,3.02006049 -0.93002,0 -1.40003,-1.00001999 -1.40003,-2.99005989 0,-1.9900398 0.47001,-2.9600593 1.42003,-2.9600593 z"
             id="path198" />
          <path
             d="m 264.54719,-0.87001742 h -3.73007 c 0.09,-0.60001198 0.41001,-0.98001968 1.28002,-1.51003028 l 1.00002,-0.5600112 c 0.99002,-0.550011 1.50003,-1.2900258 1.50003,-2.1800436 0,-0.6000121 -0.24,-1.1600233 -0.66001,-1.5500311 -0.42001,-0.3800076 -0.94002,-0.5600112 -1.61003,-0.5600112 -0.90002,0 -1.57003,0.3200064 -1.96004,0.9400188 -0.25001,0.3800076 -0.36001,0.8300167 -0.38001,1.5600313 h 0.88002 c 0.03,-0.4900098 0.09,-0.7800156 0.21,-1.0200205 0.23001,-0.4400088 0.69002,-0.7100142 1.22003,-0.7100142 0.80001,0 1.40003,0.5800116 1.40003,1.3600273 0,0.5800116 -0.33001,1.0800216 -0.96002,1.4400288 l -0.92002,0.5400108 c -1.48003,0.850017 -1.91004,1.5300307 -1.99004,3.1100623 h 4.72009 z"
             id="path200" />
          <path
             d="m 270.10731,-0.87001742 h -3.73007 c 0.09,-0.60001198 0.41001,-0.98001968 1.28002,-1.51003028 l 1.00002,-0.5600112 c 0.99002,-0.550011 1.50003,-1.2900258 1.50003,-2.1800436 0,-0.6000121 -0.24,-1.1600233 -0.66001,-1.5500311 -0.42001,-0.3800076 -0.94002,-0.5600112 -1.61003,-0.5600112 -0.90002,0 -1.57003,0.3200064 -1.96004,0.9400188 -0.25001,0.3800076 -0.36001,0.8300167 -0.38001,1.5600313 h 0.88002 c 0.03,-0.4900098 0.09,-0.7800156 0.21,-1.0200205 0.23001,-0.4400088 0.69002,-0.7100142 1.22003,-0.7100142 0.80001,0 1.40003,0.5800116 1.40003,1.3600273 0,0.5800116 -0.33001,1.0800216 -0.96002,1.4400288 l -0.92002,0.5400108 c -1.48003,0.850017 -1.91004,1.5300307 -1.99004,3.1100623 h 4.72009 z"
             id="path202" />
          <path
             d="m 273.35735,-7.2301448 c -0.66001,0 -1.26002,0.300006 -1.63003,0.7900158 -0.46001,0.6400128 -0.69001,1.6000321 -0.69001,2.9400589 0,2.4400489 0.80001,3.73007471 2.32004,3.73007471 1.50003,0 2.32005,-1.29002581 2.32005,-3.67007351 0,-1.400028 -0.22,-2.3400469 -0.69001,-3.0000601 -0.37001,-0.50001 -0.96002,-0.7900158 -1.63004,-0.7900158 z m 0,0.7800156 c 0.95002,0 1.42003,0.9700195 1.42003,2.9300587 0,2.0600413 -0.46001,3.02006049 -1.44003,3.02006049 -0.93001,0 -1.40002,-1.00001999 -1.40002,-2.99005989 0,-1.9900398 0.47001,-2.9600593 1.42002,-2.9600593 z"
             id="path204" />
          <path
             d="m 293.37886,-0.87001742 h -3.73008 c 0.09,-0.60001198 0.41001,-0.98001968 1.28003,-1.51003028 l 1.00002,-0.5600112 c 0.99002,-0.550011 1.50003,-1.2900258 1.50003,-2.1800436 0,-0.6000121 -0.24001,-1.1600233 -0.66001,-1.5500311 -0.42001,-0.3800076 -0.94002,-0.5600112 -1.61004,-0.5600112 -0.90002,0 -1.57003,0.3200064 -1.96004,0.9400188 -0.25,0.3800076 -0.36,0.8300167 -0.38,1.5600313 h 0.88001 c 0.03,-0.4900098 0.09,-0.7800156 0.21001,-1.0200205 0.23,-0.4400088 0.69001,-0.7100142 1.22002,-0.7100142 0.80002,0 1.40003,0.5800116 1.40003,1.3600273 0,0.5800116 -0.33001,1.0800216 -0.96002,1.4400288 l -0.92002,0.5400108 c -1.48003,0.850017 -1.91004,1.5300307 -1.99004,3.1100623 h 4.7201 z"
             id="path206" />
          <path
             d="m 296.08892,-3.3300667 h 0.11 0.37001 c 0.96002,0 1.47003,0.450009 1.47003,1.3200264 0,0.9100183 -0.55001,1.46002929 -1.46003,1.46002929 -0.97002,0 -1.44003,-0.49000979 -1.50003,-1.55003109 h -0.88002 c 0.04,0.5800117 0.14,0.9600193 0.31001,1.28002568 0.37001,0.70001402 1.06002,1.05002103 2.03004,1.05002103 1.46003,0 2.40005,-0.88001763 2.40005,-2.25004511 0,-0.9200184 -0.35001,-1.4200284 -1.20003,-1.7200344 0.66002,-0.2700054 0.99002,-0.7700154 0.99002,-1.50003 0,-1.2400249 -0.81001,-1.9900399 -2.16004,-1.9900399 -1.43003,0 -2.19004,0.800016 -2.22004,2.3300467 h 0.88001 c 0.01,-0.4400088 0.05,-0.6900139 0.16001,-0.9100183 0.2,-0.4100082 0.64001,-0.650013 1.19002,-0.650013 0.78002,0 1.25002,0.4700094 1.25002,1.2500251 0,0.5100102 -0.18,0.8200164 -0.57001,0.9900198 -0.24,0.100002 -0.56001,0.1400028 -1.17002,0.150003 z"
             id="path208" />
          <path
             d="m 302.18905,-7.2301448 c -0.66001,0 -1.26002,0.300006 -1.63003,0.7900158 -0.46001,0.6400128 -0.69002,1.6000321 -0.69002,2.9400589 0,2.4400489 0.80002,3.73007471 2.32005,3.73007471 1.50003,0 2.32005,-1.29002581 2.32005,-3.67007351 0,-1.400028 -0.22001,-2.3400469 -0.69002,-3.0000601 -0.37,-0.50001 -0.96002,-0.7900158 -1.63003,-0.7900158 z m 0,0.7800156 c 0.95002,0 1.42003,0.9700195 1.42003,2.9300587 0,2.0600413 -0.46001,3.02006049 -1.44003,3.02006049 -0.93002,0 -1.40003,-1.00001999 -1.40003,-2.99005989 0,-1.9900398 0.47001,-2.9600593 1.42003,-2.9600593 z"
             id="path210" />
        </g>
      </g>
      <path
         d="m 2112.85,64.3125 c 0,2.4375 1.09,4.7813 3.28,7.0352 l 70.87,69.4653 -24.94,70.125 c -2,5.375 -4.09,9.625 -6.28,12.75 -2.19,3.125 -5.31,4.691 -9.38,4.691 -1.87,0 -2.8,1.09 -2.8,3.273 0.12,1 0.51,1.786 1.17,2.348 0.65,0.563 1.51,0.848 2.58,0.848 17.69,0 28.37,-5.223 32.05,-15.66 l 51.2,-142.7857 c 2.19,-7.1835 4.44,-11.996 6.75,-14.4335 0.81,-1.25 1.21,-2.0625 1.21,-2.4375 0,-1.5625 -0.65,-2.3438 -1.96,-2.3438 h -13.7 c -4.18,1.1875 -7.49,4.8438 -9.93,10.9648 l -23.07,64.4107 -60.84,-71.5317 c -3.06,-2.875 -5.78,-4.3125 -8.16,-4.3125 -2.12,0 -3.99,0.7343 -5.62,2.2031 -1.62,1.4687 -2.43,3.2695 -2.43,5.3906"
         style="fill:#262626;fill-opacity:1;fill-rule:nonzero;stroke:none"
         id="path80" />
      <path
         d="M 546,522 V 2916"
         style="fill:none;stroke:#262626;stroke-width:4.998;stroke-linecap:square;stroke-linejoin:round;stroke-miterlimit:10;stroke-dasharray:none;stroke-opacity:1"
         id="path82" />
      <path
         d="M 3804,522 V 2916"
         style="fill:none;stroke:#262626;stroke-width:4.998;stroke-linecap:square;stroke-linejoin:round;stroke-miterlimit:10;stroke-dasharray:none;stroke-opacity:1"
         id="path84" />
      <path
         d="M 546,864 H 513.422"
         style="fill:none;stroke:#262626;stroke-width:4.998;stroke-linecap:square;stroke-linejoin:round;stroke-miterlimit:10;stroke-dasharray:none;stroke-opacity:1"
         id="path86" />
      <path
         d="M 546,1291.5 H 513.422"
         style="fill:none;stroke:#262626;stroke-width:4.998;stroke-linecap:square;stroke-linejoin:round;stroke-miterlimit:10;stroke-dasharray:none;stroke-opacity:1"
         id="path88" />
      <path
         d="M 546,1719 H 513.422"
         style="fill:none;stroke:#262626;stroke-width:4.998;stroke-linecap:square;stroke-linejoin:round;stroke-miterlimit:10;stroke-dasharray:none;stroke-opacity:1"
         id="path90" />
      <path
         d="M 546,2146.5 H 513.422"
         style="fill:none;stroke:#262626;stroke-width:4.998;stroke-linecap:square;stroke-linejoin:round;stroke-miterlimit:10;stroke-dasharray:none;stroke-opacity:1"
         id="path92" />
      <path
         d="M 546,2574 H 513.422"
         style="fill:none;stroke:#262626;stroke-width:4.998;stroke-linecap:square;stroke-linejoin:round;stroke-miterlimit:10;stroke-dasharray:none;stroke-opacity:1"
         id="path94" />
      <path
         d="m 3804,864 h 32.58"
         style="fill:none;stroke:#262626;stroke-width:4.998;stroke-linecap:square;stroke-linejoin:round;stroke-miterlimit:10;stroke-dasharray:none;stroke-opacity:1"
         id="path96" />
      <path
         d="m 3804,1291.5 h 32.58"
         style="fill:none;stroke:#262626;stroke-width:4.998;stroke-linecap:square;stroke-linejoin:round;stroke-miterlimit:10;stroke-dasharray:none;stroke-opacity:1"
         id="path98" />
      <path
         d="m 3804,1719 h 32.58"
         style="fill:none;stroke:#262626;stroke-width:4.998;stroke-linecap:square;stroke-linejoin:round;stroke-miterlimit:10;stroke-dasharray:none;stroke-opacity:1"
         id="path100" />
      <path
         d="m 3804,2146.5 h 32.58"
         style="fill:none;stroke:#262626;stroke-width:4.998;stroke-linecap:square;stroke-linejoin:round;stroke-miterlimit:10;stroke-dasharray:none;stroke-opacity:1"
         id="path102" />
      <path
         d="m 3804,2574 h 32.58"
         style="fill:none;stroke:#262626;stroke-width:4.998;stroke-linecap:square;stroke-linejoin:round;stroke-miterlimit:10;stroke-dasharray:none;stroke-opacity:1"
         id="path104" />
      <g
         id="g106"
         transform="scale(10)">
        <g
           aria-label="35
40
45
50
55"
           transform="matrix(1,0,0,-1,35.9422,82.5)"
           id="text118"
           style="font-size:10.0002px;font-family:Helvetica;-inkscape-font-specification:Helvetica;fill:#262626">
          <path
             d="m 2.2100443,-3.3300667 h 0.1100022 0.3700074 c 0.9600192,0 1.4700294,0.450009 1.4700294,1.3200264 0,0.9100183 -0.550011,1.46002929 -1.4600292,1.46002929 -0.9700195,0 -1.4400289,-0.49000979 -1.5000301,-1.55003109 H 0.32000641 c 0.0400008,0.5800117 0.1400028,0.9600193 0.31000621,1.28002568 C 1.00002,-0.1200024 1.6900338,0.23000461 2.6600533,0.23000461 c 1.4600292,0 2.400048,-0.88001763 2.400048,-2.25004511 0,-0.9200184 -0.350007,-1.4200284 -1.200024,-1.7200344 0.6600132,-0.2700054 0.9900198,-0.7700154 0.9900198,-1.50003 0,-1.2400249 -0.8100162,-1.9900399 -2.1600432,-1.9900399 -1.4300287,0 -2.19004389,0.800016 -2.22004449,2.3300467 H 1.350027 c 0.01,-0.4400088 0.050001,-0.6900139 0.1600032,-0.9100183 0.200004,-0.4100082 0.6400129,-0.650013 1.1900239,-0.650013 0.7800156,0 1.250025,0.4700094 1.250025,1.2500251 0,0.5100102 -0.1800036,0.8200164 -0.5700114,0.9900198 -0.2400048,0.100002 -0.5600112,0.1400028 -1.1700234,0.150003 z"
             id="path213" />
          <path
             d="M 10.320206,-7.090142 H 6.6601331 l -0.5300106,3.8600773 h 0.8100162 c 0.4100082,-0.4900098 0.750015,-0.6600132 1.3100262,-0.6600132 0.950019,0 1.5400309,0.650013 1.5400309,1.700034 0,1.0200205 -0.5900119,1.64003289 -1.5500311,1.64003289 -0.7700154,0 -1.2400248,-0.39000782 -1.450029,-1.19002379 H 5.9101181 c 0.1200024,0.5800116 0.2200044,0.86001718 0.4300086,1.12002238 0.400008,0.54001082 1.1200224,0.85001703 1.9200384,0.85001703 1.4300287,0 2.4300489,-1.04002083 2.4300489,-2.54005091 0,-1.400028 -0.9300188,-2.3600472 -2.2900461,-2.3600472 -0.50001,0 -0.900018,0.1300026 -1.3100262,0.4300086 l 0.2800056,-1.9800397 h 2.9500587 z"
             id="path215" />
          <path
             d="M 3.2700655,-44.500035 V -42.75 h 0.8800176 v -1.750035 h 1.050021 v -0.790016 h -1.050021 v -4.690094 h -0.650013 l -3.22006449,4.550091 v 0.930019 z m 0,-0.790016 H 1.050021 l 2.2200445,-3.190064 z"
             id="path217" />
          <path
             d="m 8.3101661,-49.980145 c -0.6600132,0 -1.2600252,0.300006 -1.6300326,0.790016 -0.4600092,0.640013 -0.6900138,1.600032 -0.6900138,2.940059 0,2.440049 0.800016,3.730075 2.3200464,3.730075 1.5000301,0 2.3200469,-1.290026 2.3200469,-3.670074 0,-1.400028 -0.220005,-2.340047 -0.6900142,-3.00006 -0.3700074,-0.50001 -0.9600193,-0.790016 -1.6300327,-0.790016 z m 0,0.780016 c 0.950019,0 1.4200285,0.970019 1.4200285,2.930059 0,2.060041 -0.4600093,3.02006 -1.4400289,3.02006 -0.9300186,0 -1.400028,-1.00002 -1.400028,-2.99006 0,-1.99004 0.4700094,-2.960059 1.4200284,-2.960059 z"
             id="path219" />
          <path
             d="M 3.2700655,-87.250035 V -85.5 h 0.8800176 v -1.750035 h 1.050021 v -0.790016 h -1.050021 v -4.690094 h -0.650013 l -3.22006449,4.550091 v 0.930019 z m 0,-0.790016 H 1.050021 l 2.2200445,-3.190064 z"
             id="path221" />
          <path
             d="M 10.320206,-92.590142 H 6.6601331 l -0.5300106,3.860077 h 0.8100162 c 0.4100082,-0.49001 0.750015,-0.660013 1.3100262,-0.660013 0.950019,0 1.5400309,0.650013 1.5400309,1.700034 0,1.020021 -0.5900119,1.640033 -1.5500311,1.640033 -0.7700154,0 -1.2400248,-0.390008 -1.450029,-1.190024 H 5.9101181 c 0.1200024,0.580012 0.2200044,0.860017 0.4300086,1.120023 0.400008,0.54001 1.1200224,0.850017 1.9200384,0.850017 1.4300287,0 2.4300489,-1.040021 2.4300489,-2.540051 0,-1.400028 -0.9300188,-2.360048 -2.2900461,-2.360048 -0.50001,0 -0.900018,0.130003 -1.3100262,0.430009 l 0.2800056,-1.98004 h 2.9500587 z"
             id="path223" />
          <path
             d="M 4.7600953,-135.34014 H 1.100022 l -0.53001058,3.86008 H 1.3800276 c 0.4100082,-0.49001 0.7500151,-0.66002 1.3100263,-0.66002 0.950019,0 1.5400308,0.65002 1.5400308,1.70004 0,1.02002 -0.5900118,1.64003 -1.550031,1.64003 -0.7700154,0 -1.2400249,-0.39001 -1.4500291,-1.19002 H 0.35000701 c 0.1200024,0.58001 0.22000441,0.86001 0.43000861,1.12002 0.40000798,0.54001 1.12002248,0.85001 1.92003848,0.85001 1.4300286,0 2.4300486,-1.04002 2.4300486,-2.54005 0,-1.40002 -0.9300186,-2.36004 -2.2900458,-2.36004 -0.50001,0 -0.900018,0.13 -1.3100263,0.43001 l 0.2800056,-1.98004 h 2.9500591 z"
             id="path225" />
          <path
             d="m 8.3101661,-135.48014 c -0.6600132,0 -1.2600252,0.3 -1.6300326,0.79001 -0.4600092,0.64001 -0.6900138,1.60003 -0.6900138,2.94006 0,2.44005 0.800016,3.73007 2.3200464,3.73007 1.5000301,0 2.3200469,-1.29002 2.3200469,-3.67007 0,-1.40003 -0.220005,-2.34005 -0.6900142,-3.00006 -0.3700074,-0.50001 -0.9600193,-0.79001 -1.6300327,-0.79001 z m 0,0.78001 c 0.950019,0 1.4200285,0.97002 1.4200285,2.93006 0,2.06004 -0.4600093,3.02006 -1.4400289,3.02006 -0.9300186,0 -1.400028,-1.00002 -1.400028,-2.99006 0,-1.99004 0.4700094,-2.96006 1.4200284,-2.96006 z"
             id="path227" />
          <path
             d="M 4.7600953,-178.09014 H 1.100022 l -0.53001058,3.86008 H 1.3800276 c 0.4100082,-0.49001 0.7500151,-0.66002 1.3100263,-0.66002 0.950019,0 1.5400308,0.65002 1.5400308,1.70004 0,1.02002 -0.5900118,1.64003 -1.550031,1.64003 -0.7700154,0 -1.2400249,-0.39001 -1.4500291,-1.19002 H 0.35000701 c 0.1200024,0.58001 0.22000441,0.86001 0.43000861,1.12002 0.40000798,0.54001 1.12002248,0.85001 1.92003848,0.85001 1.4300286,0 2.4300486,-1.04002 2.4300486,-2.54005 0,-1.40002 -0.9300186,-2.36004 -2.2900458,-2.36004 -0.50001,0 -0.900018,0.13 -1.3100263,0.43001 l 0.2800056,-1.98004 h 2.9500591 z"
             id="path229" />
          <path
             d="M 10.320206,-178.09014 H 6.6601331 l -0.5300106,3.86008 h 0.8100162 c 0.4100082,-0.49001 0.750015,-0.66002 1.3100262,-0.66002 0.950019,0 1.5400309,0.65002 1.5400309,1.70004 0,1.02002 -0.5900119,1.64003 -1.5500311,1.64003 -0.7700154,0 -1.2400248,-0.39001 -1.450029,-1.19002 H 5.9101181 c 0.1200024,0.58001 0.2200044,0.86001 0.4300086,1.12002 0.400008,0.54001 1.1200224,0.85001 1.9200384,0.85001 1.4300287,0 2.4300489,-1.04002 2.4300489,-2.54005 0,-1.40002 -0.9300188,-2.36004 -2.2900461,-2.36004 -0.50001,0 -0.900018,0.13 -1.3100262,0.43001 l 0.2800056,-1.98004 h 2.9500587 z"
             id="path231" />
        </g>
      </g>
      <path
         d="m 270,1671.85 c 0,-2 -1.094,-3 -3.281,-3 l -85.688,21.46 c -2.875,0.69 -5.125,1.1 -6.75,1.22 -2.687,0 -4.031,-5.44 -4.031,-16.31 0,-1.75 -1.125,-2.62 -3.379,-2.62 -0.371,0.12 -1.105,0.32 -2.199,0.6 -1.094,0.28 -1.922,0.65 -2.484,1.08 -0.563,0.44 -0.84,1.06 -0.84,1.87 l -2.727,34.04 c 0,2 1.067,3 3.192,3 l 98.808,-24.66 c -4.433,13.25 -11.371,25.47 -20.808,36.66 -9.438,11.19 -20.547,20.67 -33.329,28.45 -12.781,7.78 -26.078,13.39 -39.886,16.83 -2.379,0.62 -4.301,1.92 -5.77,3.89 -1.469,1.97 -2.207,4.2 -2.207,6.7 0,2.19 0.66,3.99 1.977,5.39 1.308,1.41 3.09,2.11 5.34,2.11 2.687,0 6.796,-1.11 12.328,-3.33 5.531,-2.21 10.484,-4.39 14.855,-6.51 13.188,-6.69 25.281,-15.53 36.281,-26.53 6.879,-6.88 12.989,-14.26 18.332,-22.17 5.344,-7.91 9.875,-16.18 13.594,-24.8 3.719,-8.63 6.61,-17.72 8.672,-27.28 v -6.09"
         style="fill:#262626;fill-opacity:1;fill-rule:nonzero;stroke:none"
         id="path120" />
      <path
         d="m 3030,2442 h 696 v 396 h -696 z"
         style="fill:#ffffff;fill-opacity:1;fill-rule:nonzero;stroke:none"
         id="path122" />
      <g
         id="g124"
         transform="scale(10)">
        <g
           aria-label="Pass"
           transform="matrix(1,0,0,-1,338.326,267.84)"
           id="text128"
           style="font-size:13.9998px;font-family:Helvetica;-inkscape-font-specification:Helvetica">
          <path
             d="m 2.5759632,-4.3259381 h 3.2059541 c 0.7979886,0 1.4279796,-0.2379966 1.9739717,-0.7279896 0.6159912,-0.559992 0.8819874,-1.2179826 0.8819874,-2.1559692 0,-1.9179725 -1.1339837,-2.9959571 -3.1499549,-2.9959571 H 1.2739818 V 0 h 1.3019814 z m 0,-1.1479836 v -3.5839487 h 2.7159611 c 1.2459822,0 1.9879716,0.6719904 1.9879716,1.7919743 0,1.119984 -0.7419894,1.7919744 -1.9879716,1.7919744 z"
             id="path234" />
          <path
             d="m 16.82776,-0.68599019 c -0.125999,0.0279996 -0.181998,0.0279996 -0.251997,0.0279996 -0.405994,0 -0.629991,-0.20999699 -0.629991,-0.57399181 v -4.3119383 c 0,-1.3019814 -0.951986,-2.0019714 -2.75796,-2.0019714 -1.077985,0 -1.931973,0.3079956 -2.435965,0.8539878 -0.335996,0.3779946 -0.475994,0.7979886 -0.503993,1.5259782 h 1.175983 c 0.098,-0.8959872 0.629991,-1.3019814 1.721975,-1.3019814 1.063985,0 1.637977,0.3919944 1.637977,1.0919844 v 0.3079956 c -0.014,0.5039928 -0.265996,0.6859902 -1.217983,0.8119884 -1.651976,0.209997 -1.903972,0.2659962 -2.351966,0.4479936 -0.853988,0.3639948 -1.2879816,1.0079856 -1.2879816,1.9599719 0,1.32998101 0.9239866,2.16996899 2.4079656,2.16996899 0.923987,0 1.665976,-0.32199539 2.491964,-1.07798458 0.084,0.75598919 0.447994,1.07798458 1.203983,1.07798458 0.251996,0 0.405994,-0.0279996 0.797989,-0.12599819 z M 14.783789,-2.309967 c 0,0.3919944 -0.111999,0.629991 -0.461994,0.9519864 -0.475993,0.43399382 -1.049984,0.65799061 -1.735975,0.65799061 -0.909987,0 -1.441979,-0.43399381 -1.441979,-1.17598321 0,-0.7699889 0.503993,-1.1619833 1.763975,-1.3439807 1.245982,-0.1679976 1.483978,-0.2239968 1.875973,-0.4059942 z"
             id="path236" />
          <path
             d="m 23.253668,-5.2919243 c -0.014,-1.4419794 -0.965986,-2.2539678 -2.659962,-2.2539678 -1.707976,0 -2.81396,0.8819874 -2.81396,2.239968 0,1.1479836 0.587992,1.6939758 2.323967,2.1139698 l 1.091984,0.2659962 c 0.811989,0.1959972 1.133984,0.4899929 1.133984,1.0079855 0,0.69999 -0.68599,1.16198341 -1.707975,1.16198341 -0.629991,0 -1.161984,-0.18199739 -1.45598,-0.48999301 -0.181997,-0.209997 -0.265996,-0.419994 -0.335995,-0.9379866 h -1.231982 c 0.056,1.69397581 1.007985,2.50596419 2.925958,2.50596419 1.847973,0 3.023957,-0.90998698 3.023957,-2.32396679 0,-1.0919843 -0.615992,-1.6939757 -2.071971,-2.0439707 l -1.119984,-0.2659962 c -0.951986,-0.2239968 -1.35798,-0.5319924 -1.35798,-1.049985 0,-0.6859902 0.601991,-1.1059842 1.553978,-1.1059842 0.937986,0 1.441979,0.4059942 1.469979,1.1759832 z"
             id="path238" />
          <path
             d="m 30.253567,-5.2919243 c -0.014,-1.4419794 -0.965986,-2.2539678 -2.659962,-2.2539678 -1.707976,0 -2.81396,0.8819874 -2.81396,2.239968 0,1.1479836 0.587992,1.6939758 2.323967,2.1139698 l 1.091984,0.2659962 c 0.811989,0.1959972 1.133984,0.4899929 1.133984,1.0079855 0,0.69999 -0.68599,1.16198341 -1.707976,1.16198341 -0.629991,0 -1.161983,-0.18199739 -1.455979,-0.48999301 -0.181997,-0.209997 -0.265996,-0.419994 -0.335995,-0.9379866 h -1.231982 c 0.056,1.69397581 1.007985,2.50596419 2.925958,2.50596419 1.847973,0 3.023957,-0.90998698 3.023957,-2.32396679 0,-1.0919843 -0.615992,-1.6939757 -2.071971,-2.0439707 l -1.119984,-0.2659962 c -0.951986,-0.2239968 -1.35798,-0.5319924 -1.35798,-1.049985 0,-0.6859902 0.601991,-1.1059842 1.553977,-1.1059842 0.937987,0 1.44198,0.4059942 1.469979,1.1759832 z"
             id="path240" />
        </g>
      </g>
      <path
         d="m 3060.07,2664.52 h 300.648 v 135.77 H 3060.07 Z"
         style="fill:#dbdbff;fill-opacity:1;fill-rule:nonzero;stroke:none"
         id="path130" />
      <path
         d="m 3060.07,2664.52 h 300.648 v 135.77 H 3060.07 Z"
         style="fill:none;stroke:#000000;stroke-width:4.998;stroke-linecap:butt;stroke-linejoin:miter;stroke-miterlimit:10;stroke-dasharray:none;stroke-opacity:1"
         id="path132" />
      <g
         id="g134"
         transform="scale(10)">
        <g
           aria-label="Fail"
           transform="matrix(1,0,0,-1,338.326,249.36)"
           id="text138"
           style="font-size:13.9998px;font-family:Helvetica;-inkscape-font-specification:Helvetica">
          <path
             d="M 2.5619634,-4.6479335 H 7.4338937 V -5.7959171 H 2.5619634 V -9.0578704 H 8.105884 V -10.205854 H 1.259982 V 0 h 1.3019814 z"
             id="path243" />
          <path
             d="m 16.043771,-0.68599019 c -0.125999,0.0279996 -0.181998,0.0279996 -0.251997,0.0279996 -0.405994,0 -0.629991,-0.20999699 -0.629991,-0.57399181 v -4.3119383 c 0,-1.3019814 -0.951986,-2.0019714 -2.75796,-2.0019714 -1.077985,0 -1.931973,0.3079956 -2.4359654,0.8539878 -0.3359952,0.3779946 -0.4759932,0.7979886 -0.5039928,1.5259782 h 1.1759832 c 0.098,-0.8959872 0.629991,-1.3019814 1.721975,-1.3019814 1.063985,0 1.637977,0.3919944 1.637977,1.0919844 v 0.3079956 c -0.014,0.5039928 -0.265996,0.6859902 -1.217983,0.8119884 -1.651976,0.209997 -1.903972,0.2659962 -2.351966,0.4479936 -0.8539878,0.3639948 -1.2879816,1.0079856 -1.2879816,1.9599719 0,1.32998101 0.9239866,2.16996899 2.4079656,2.16996899 0.923987,0 1.665976,-0.32199539 2.491964,-1.07798458 0.084,0.75598919 0.447994,1.07798458 1.203983,1.07798458 0.251996,0 0.405994,-0.0279996 0.797989,-0.12599819 z M 13.9998,-2.309967 c 0,0.3919944 -0.111998,0.629991 -0.461993,0.9519864 -0.475994,0.43399382 -1.049985,0.65799061 -1.735976,0.65799061 -0.909987,0 -1.441979,-0.43399381 -1.441979,-1.17598321 0,-0.7699889 0.503993,-1.1619833 1.763975,-1.3439807 1.245982,-0.1679976 1.483979,-0.2239968 1.875973,-0.4059942 z"
             id="path245" />
          <path
             d="M 18.437737,-7.3358951 H 17.275753 V 0 h 1.161984 z m 0,-2.8699589 h -1.175984 v 1.469979 h 1.175984 z"
             id="path247" />
          <path
             d="M 21.573692,-10.205854 H 20.397709 V 0 h 1.175983 z"
             id="path249" />
        </g>
      </g>
      <path
         d="m 3060.07,2479.71 h 300.648 v 135.77 H 3060.07 Z"
         style="fill:#ffe0e0;fill-opacity:1;fill-rule:nonzero;stroke:none"
         id="path140" />
      <path
         d="m 3060.07,2479.71 h 300.648 v 135.77 H 3060.07 Z"
         style="fill:none;stroke:#000000;stroke-width:4.998;stroke-linecap:butt;stroke-linejoin:miter;stroke-miterlimit:10;stroke-dasharray:none;stroke-opacity:1"
         id="path142" />
      <path
         d="m 3030,2442 h 696 v 396 h -696 z"
         style="fill:none;stroke:#262626;stroke-width:4.998;stroke-linecap:butt;stroke-linejoin:miter;stroke-miterlimit:10;stroke-dasharray:none;stroke-opacity:1"
         id="path144" />
    </g>
  </g>
</svg>
