<svg width="3000" height="1164" xmlns="http://www.w3.org/2000/svg" xmlns:xlink="http://www.w3.org/1999/xlink" xml:space="preserve" overflow="hidden"><defs><clipPath id="clip0"><path d="M1831.06 357.237 2115.77 594.111 1878.89 878.817 1594.19 641.942Z" fill-rule="evenodd" clip-rule="evenodd"/></clipPath><clipPath id="clip1"><path d="M1831.06 357.237 2115.77 594.111 1878.89 878.817 1594.19 641.942Z" fill-rule="evenodd" clip-rule="evenodd"/></clipPath><clipPath id="clip2"><path d="M1831.06 357.237 2115.77 594.111 1878.89 878.817 1594.19 641.942Z" fill-rule="evenodd" clip-rule="evenodd"/></clipPath></defs><g transform="translate(-154 -59)"><rect x="1022.5" y="63.5001" width="1135" height="796" stroke="#000000" stroke-width="9.16667" stroke-miterlimit="8" fill="none"/><rect x="156.5" y="63.5001" width="703" height="946" stroke="#000000" stroke-width="4.58333" stroke-miterlimit="8" fill="#FFFFFF" fill-opacity="0.25098"/><path d="M345.5 307.5 601.477 307.5 748.5 454.523 748.5 859.5 345.5 859.5Z" stroke="#000000" stroke-width="9.16667" stroke-miterlimit="8" fill="#FFFFFF" fill-rule="evenodd"/><path d="M303.5 359.5 558.842 359.5 705.5 506.158 705.5 912.5 303.5 912.5Z" stroke="#000000" stroke-width="9.16667" stroke-miterlimit="8" fill="#FFFFFF" fill-rule="evenodd"/><path d="M261.5 416.5 516.843 416.5 663.5 563.157 663.5 968.5 261.5 968.5Z" stroke="#000000" stroke-width="9.16667" stroke-miterlimit="8" fill="#FFFFFF" fill-rule="evenodd"/><path d="M179.5 170.167C179.5 137.766 205.766 111.5 238.167 111.5L774.833 111.5C807.234 111.5 833.5 137.766 833.5 170.167L833.5 220.833C833.5 253.234 807.234 279.5 774.833 279.5L238.167 279.5C205.766 279.5 179.5 253.234 179.5 220.833Z" stroke="#000000" stroke-width="4.58333" stroke-miterlimit="8" fill="#FFFFFF" fill-rule="evenodd"/><text font-family="Calibri,Calibri_MSFontService,sans-serif" font-weight="400" font-size="92" transform="matrix(1 0 0 1 257.148 226)">C</text><text font-family="Calibri,Calibri_MSFontService,sans-serif" font-weight="400" font-size="92" transform="matrix(1 0 0 1 305.845 226)">i</text><text font-family="Calibri,Calibri_MSFontService,sans-serif" font-weight="400" font-size="92" transform="matrix(1 0 0 1 327.043 226)">pher  </text><text font-family="Calibri,Calibri_MSFontService,sans-serif" font-weight="400" font-size="92" transform="matrix(1 0 0 1 542.46 226)">Repo.</text><rect x="2379.5" y="63.5001" width="772" height="946" stroke="#000000" stroke-width="4.58333" stroke-miterlimit="8" fill="#FFFFFF" fill-opacity="0.25098"/><path d="M1523.5 961.355 1577.9 961.355 1577.9 888.5 1649.1 888.5 1649.1 961.355 1703.5 961.355 1613.5 1038.5Z" stroke="#000000" stroke-width="4.58333" stroke-miterlimit="8" fill="none" fill-rule="evenodd"/><path d="M2423.5 176.675C2423.5 146.203 2448.2 121.5 2478.68 121.5L3058.32 121.5C3088.8 121.5 3113.5 146.203 3113.5 176.675L3113.5 224.325C3113.5 254.797 3088.8 279.5 3058.32 279.5L2478.68 279.5C2448.2 279.5 2423.5 254.797 2423.5 224.325Z" stroke="#000000" stroke-width="4.58333" stroke-miterlimit="8" fill="#FFFFFF" fill-rule="evenodd"/><text font-family="Calibri,Calibri_MSFontService,sans-serif" font-weight="400" font-size="92" transform="matrix(1 0 0 1 2551.26 231)">FMU  Repo.</text><path d="M1084.5 314.5 1384.3 314.5 1556.5 486.695 1556.5 810.5 1084.5 810.5Z" stroke="#000000" stroke-width="9.16667" stroke-miterlimit="8" fill="#FFFFFF" fill-rule="evenodd"/><path d="M1121.5 552.771C1121.5 508.991 1156.99 473.5 1200.77 473.5L1441.23 473.5C1485.01 473.5 1520.5 508.991 1520.5 552.771L1520.5 621.229C1520.5 665.009 1485.01 700.5 1441.23 700.5L1200.77 700.5C1156.99 700.5 1121.5 665.009 1121.5 621.229Z" stroke="#000000" stroke-width="4.58333" stroke-miterlimit="8" fill="#FFFFFF" fill-rule="evenodd"/><text font-family="Calibri,Calibri_MSFontService,sans-serif" font-weight="400" font-size="92" transform="matrix(1 0 0 1 1146.29 618)">C</text><text font-family="Calibri,Calibri_MSFontService,sans-serif" font-weight="400" font-size="92" transform="matrix(1 0 0 1 1194.99 618)">i</text><text font-family="Calibri,Calibri_MSFontService,sans-serif" font-weight="400" font-size="92" transform="matrix(1 0 0 1 1216.18 618)">pher</text><text font-family="Calibri,Calibri_MSFontService,sans-serif" font-weight="400" font-size="92" transform="matrix(1 0 0 1 1381.14 618)">.dll</text><rect x="1616.5" y="316.5" width="496" height="497" stroke="#000000" stroke-width="11.4583" stroke-miterlimit="8" fill="none"/><g clip-path="url(#clip0)"><g clip-path="url(#clip1)"><g clip-path="url(#clip2)"><path d="M1914.89 614.176C1902.44 603.813 1901.04 585.587 1911.16 573.428 1921.27 561.268 1939.74 559.574 1951.9 569.691 1964.36 580.054 1965.76 598.28 1955.64 610.439 1945.52 622.599 1927.05 624.293 1914.89 614.176ZM1995.12 619.695C1997.38 614.556 1999.11 609.467 1999.99 604.18L2016.34 594.19 2014.54 574.63 1996.65 567.779C1994.82 562.742 1992.2 558.051 1989.04 553.41L1993.37 534.933 1978.54 522.596 1961.16 530.217C1956.02 527.948 1950.93 526.224 1945.65 525.339L1935.65 508.997 1916.1 510.79 1909.24 528.677C1904.21 530.508 1899.52 533.13 1894.88 536.295L1876.4 531.963 1864.06 546.791 1871.68 564.172C1869.41 569.311 1867.69 574.4 1866.8 579.687L1850.46 589.677 1852.21 608.693 1870.09 615.545C1871.92 620.582 1874.54 625.272 1877.71 629.913L1873.38 648.391 1888.21 660.728 1905.59 653.107C1910.73 655.375 1915.82 657.1 1921.1 657.985L1931.09 674.327 1950.4 672.83 1957.26 654.943C1962.29 653.112 1967.53 650.44 1971.92 647.572L1990.4 651.904 2002.74 637.076 1995.12 619.695Z"/><path d="M1758.05 666.363C1745.6 655.999 1744.2 637.774 1754.32 625.614 1764.68 613.158 1782.91 611.761 1795.06 621.877 1807.52 632.241 1808.92 650.467 1798.8 662.626 1788.69 674.785 1770.51 676.726 1758.05 666.363L1758.05 666.363ZM1843.15 656.367 1859.5 646.376 1857.7 626.817 1839.82 619.965C1837.98 614.928 1835.07 609.991 1832.2 605.597L1836.53 587.12 1821.7 574.782 1804.32 582.403C1799.18 580.135 1794.09 578.41 1788.81 577.525L1778.82 561.183 1759.8 562.927 1752.65 580.567C1747.61 582.398 1742.68 585.317 1738.28 588.185L1719.81 583.853 1707.47 598.681 1715.09 616.062C1712.82 621.201 1711.1 626.291 1710.21 631.577L1694.17 641.814 1695.91 660.83 1713.55 667.978C1715.38 673.015 1718 677.706 1721.17 682.347L1716.83 700.824 1731.66 713.161 1749.04 705.54C1754.18 707.809 1759.27 709.533 1764.56 710.418L1774.55 726.76 1793.81 724.72 1800.71 707.377C1805.75 705.545 1810.44 702.924 1815.08 699.759L1833.56 704.091 1845.9 689.262 1838.28 671.881C1840.54 666.742 1842.27 661.653 1843.15 656.367Z"/></g></g></g><path d="M1635.5 401.31C1635.5 379.324 1653.32 361.5 1675.31 361.5L1998.69 361.5C2020.68 361.5 2038.5 379.324 2038.5 401.31L2038.5 435.69C2038.5 457.676 2020.68 475.5 1998.69 475.5L1675.31 475.5C1653.32 475.5 1635.5 457.676 1635.5 435.69Z" stroke="#000000" stroke-width="4.58333" stroke-miterlimit="8" fill="#FFFFFF" fill-rule="evenodd"/><text font-family="Calibri,Calibri_MSFontService,sans-serif" font-weight="400" font-size="92" transform="matrix(1 0 0 1 1680.5 449)">FMU sys</text><path d="M1332.5 173.421C1332.5 141.984 1357.98 116.5 1389.42 116.5L1861.58 116.5C1893.02 116.5 1918.5 141.984 1918.5 173.421L1918.5 222.579C1918.5 254.016 1893.02 279.5 1861.58 279.5L1389.42 279.5C1357.98 279.5 1332.5 254.016 1332.5 222.579Z" stroke="#000000" stroke-width="4.58333" stroke-miterlimit="8" fill="#FFFFFF" fill-rule="evenodd"/><text font-family="Calibri,Calibri_MSFontService,sans-serif" font-weight="400" font-size="92" transform="matrix(1 0 0 1 1489.07 229)">Staging</text><rect x="1412.5" y="1052.5" width="425" height="121" stroke="#000000" stroke-width="4.58333" stroke-miterlimit="8" fill="#FFFFFF"/><text font-family="Calibri,Calibri_MSFontService,sans-serif" font-weight="400" font-size="92" transform="matrix(1 0 0 1 1468.45 1144)">Test Bed</text><path d="M2613.5 307.5 2869.48 307.5 3016.5 454.523 3016.5 859.5 2613.5 859.5Z" stroke="#000000" stroke-width="9.16667" stroke-miterlimit="8" fill="#FFFFFF" fill-rule="evenodd"/><path d="M2571.5 359.5 2826.84 359.5 2973.5 506.158 2973.5 912.5 2571.5 912.5Z" stroke="#000000" stroke-width="9.16667" stroke-miterlimit="8" fill="#FFFFFF" fill-rule="evenodd"/><path d="M2529.5 416.5 2784.84 416.5 2931.5 563.157 2931.5 968.5 2529.5 968.5Z" stroke="#000000" stroke-width="9.16667" stroke-miterlimit="8" fill="#FFFFFF" fill-rule="evenodd"/><path d="M859 529.125 987.572 529.125 987.572 542.875 859 542.875ZM980.697 515.375 1021.95 536 980.697 556.625Z"/><path d="M1.11839e-05-6.875 187.474-6.87469 187.474 6.87531-1.11839e-05 6.875ZM180.599-20.6247 221.849 0.000360892 180.599 20.6253Z" transform="matrix(-1 0 0 1 2378.85 536)"/></g></svg>