<svg width="4565" height="989" xmlns="http://www.w3.org/2000/svg" xmlns:xlink="http://www.w3.org/1999/xlink" xml:space="preserve" overflow="hidden"><g transform="translate(75 -601)"><text font-family="Calibri,Calibri_MSFontService,sans-serif" font-weight="400" font-size="110" transform="matrix(1 0 0 1 3624.44 802)">Export Successful </text><text font-family="Calibri,Calibri_MSFontService,sans-serif" font-weight="400" font-size="110" transform="matrix(1 0 0 1 3757.84 934)">Parameters</text><path d="M-32.5002 739.501C-32.5002 711.886-10.1141 689.5 17.5005 689.5L618.499 689.5C646.114 689.5 668.5 711.886 668.5 739.501L668.5 939.499C668.5 967.114 646.114 989.5 618.499 989.5L17.5005 989.5C-10.1141 989.5-32.5002 967.114-32.5002 939.499Z" stroke="#000000" stroke-width="4.58333" stroke-miterlimit="8" fill="none" fill-rule="evenodd"/><path d="M2015.5 839.5 2268 604.5 2520.5 839.5 2268 1074.5Z" stroke="#000000" stroke-width="4.58333" stroke-miterlimit="8" fill="none" fill-rule="evenodd"/><path d="M873.5 989.5 1058.11 689.5 1791.5 689.5 1606.89 989.5Z" stroke="#000000" stroke-width="4.58333" stroke-miterlimit="8" fill="none" fill-rule="evenodd"/><text font-family="Calibri,Calibri_MSFontService,sans-serif" font-weight="400" font-size="110" transform="matrix(1 0 0 1 -8.98315 808)">Select Security </text><text font-family="Calibri,Calibri_MSFontService,sans-serif" font-weight="400" font-size="110" transform="matrix(1 0 0 1 63.6168 940)">Parameters</text><text font-family="Calibri,Calibri_MSFontService,sans-serif" font-weight="400" font-size="110" transform="matrix(1 0 0 1 1114.21 795)">Execute </text><text font-family="Calibri,Calibri_MSFontService,sans-serif" font-weight="400" font-size="110" transform="matrix(1 0 0 1 1114.21 927)">Simulation</text><path d="M2163.99 816.015C2169.14 816.015 2174.55 816.875 2180.21 818.594L2178.17 828.369 2173.12 828.369C2172.47 822.962 2169.3 820.259 2163.61 820.259 2160.35 820.259 2157.68 821.181 2155.61 823.025 2153.53 824.869 2152.49 827.402 2152.49 830.625 2152.49 832.952 2153.41 834.814 2155.26 836.211 2157.1 837.607 2159.64 838.305 2162.86 838.305L2170.48 838.305 2169.25 843.838 2163.88 843.838C2161.16 843.838 2158.92 844.017 2157.16 844.375 2155.41 844.733 2153.76 845.315 2152.22 846.12 2150.68 846.926 2149.47 847.785 2148.6 848.699 2147.72 849.612 2147.07 850.641 2146.64 851.787 2146.21 852.933 2145.99 854.24 2145.99 855.708 2145.99 858.214 2146.85 860.13 2148.57 861.455 2150.29 862.78 2152.76 863.442 2155.98 863.442 2158.81 863.442 2161.54 863.039 2164.17 862.234 2166.81 861.428 2169.79 859.897 2173.12 857.641L2175.75 861.831C2172.02 864.409 2168.36 866.271 2164.76 867.417 2161.17 868.563 2157.4 869.136 2153.46 869.136 2149.88 869.136 2146.81 868.536 2144.25 867.336 2141.69 866.137 2139.77 864.543 2138.5 862.556 2137.23 860.569 2136.59 858.375 2136.59 855.976 2136.59 852.288 2138.03 849.137 2140.89 846.523 2143.75 843.909 2147.87 842.029 2153.24 840.884L2153.35 840.346C2147.12 838.27 2144.01 834.689 2144.01 829.604 2144.01 827.313 2144.72 825.137 2146.15 823.078 2147.59 821.02 2149.83 819.328 2152.89 818.003 2155.96 816.678 2159.65 816.015 2163.99 816.015Z" fill-rule="evenodd"/><text fill="#000000" fill-opacity="0" font-family="Arial,Arial_MSFontService,sans-serif" font-size="53.1201" x="2136.59" y="862.496">ğœ€</text><path d="M2223.85 867.041 2290.02 867.041 2290.02 874.184 2223.85 874.184ZM2290.02 799.526 2290.02 807.583 2232.5 829.121 2290.02 850.659 2290.02 858.716 2223.64 832.881 2223.64 825.361Z" fill-rule="evenodd"/><text fill="#000000" fill-opacity="0" font-family="Arial,Arial_MSFontService,sans-serif" font-size="74.6582" x="2223.64" y="864.852">â‰¤</text><path d="M2360.91 816.015C2366.06 816.015 2371.47 816.875 2377.13 818.594L2375.09 828.369 2370.04 828.369C2369.4 822.962 2366.23 820.259 2360.53 820.259 2357.27 820.259 2354.61 821.181 2352.53 823.025 2350.45 824.869 2349.41 827.402 2349.41 830.625 2349.41 832.952 2350.34 834.814 2352.18 836.211 2354.02 837.607 2356.56 838.305 2359.78 838.305L2367.41 838.305 2366.17 843.838 2360.8 843.838C2358.08 843.838 2355.84 844.017 2354.09 844.375 2352.33 844.733 2350.69 845.315 2349.15 846.12 2347.61 846.926 2346.4 847.785 2345.52 848.699 2344.64 849.612 2343.99 850.641 2343.56 851.787 2343.13 852.933 2342.92 854.24 2342.92 855.708 2342.92 858.214 2343.77 860.13 2345.49 861.455 2347.21 862.78 2349.68 863.442 2352.91 863.442 2355.73 863.442 2358.46 863.039 2361.1 862.234 2363.73 861.428 2366.71 859.897 2370.04 857.641L2372.67 861.831C2368.95 864.409 2365.29 866.271 2361.69 867.417 2358.09 868.563 2354.32 869.136 2350.38 869.136 2346.8 869.136 2343.73 868.536 2341.17 867.336 2338.61 866.137 2336.69 864.543 2335.42 862.556 2334.15 860.569 2333.52 858.375 2333.52 855.976 2333.52 852.288 2334.95 849.137 2337.81 846.523 2340.68 843.909 2344.8 842.029 2350.17 840.884L2350.27 840.346C2344.04 838.27 2340.93 834.689 2340.93 829.604 2340.93 827.313 2341.64 825.137 2343.08 823.078 2344.51 821.02 2346.76 819.328 2349.82 818.003 2352.88 816.678 2356.58 816.015 2360.91 816.015Z" fill-rule="evenodd"/><text fill="#000000" fill-opacity="0" font-family="Arial,Arial_MSFontService,sans-serif" font-size="53.1201" x="2333.52" y="862.496">ğœ€</text><path d="M2386.03 840.07 2428.64 840.07 2425.48 853.859 2421.38 853.859 2421.38 851.633C2421.38 851.216 2421.36 850.741 2421.32 850.207 2421.28 849.673 2421.22 849.139 2421.14 848.606 2421.07 848.072 2420.98 847.577 2420.87 847.121 2420.77 846.665 2420.65 846.294 2420.52 846.008 2420.34 845.643 2420.15 845.344 2419.95 845.109 2419.76 844.875 2419.51 844.693 2419.21 844.563 2418.91 844.432 2418.55 844.341 2418.14 844.289 2417.72 844.237 2417.19 844.211 2416.54 844.211L2410.25 844.211 2402.2 879.836C2401.91 881.034 2401.71 882.056 2401.59 882.902 2401.48 883.749 2401.42 884.511 2401.42 885.188 2401.44 885.708 2401.52 886.158 2401.65 886.535 2401.78 886.913 2402.02 887.232 2402.36 887.492 2402.69 887.753 2403.15 887.948 2403.72 888.078 2404.3 888.208 2405.04 888.3 2405.95 888.352L2405.4 890.734 2388.14 890.734 2388.64 888.352C2389.3 888.195 2389.86 888.059 2390.32 887.942 2390.79 887.824 2391.2 887.668 2391.54 887.473 2391.87 887.277 2392.17 887.011 2392.41 886.672 2392.66 886.333 2392.9 885.871 2393.14 885.285 2393.37 884.699 2393.61 883.938 2393.84 883 2394.07 882.063 2394.35 880.904 2394.66 879.524L2402.55 844.211 2397.16 844.211C2396.3 844.211 2395.57 844.237 2394.97 844.289 2394.37 844.341 2393.83 844.478 2393.33 844.699 2392.84 844.921 2392.38 845.227 2391.95 845.617 2391.52 846.008 2391.07 846.542 2390.62 847.219 2390.16 847.896 2389.67 848.729 2389.13 849.719 2388.6 850.708 2387.98 851.893 2387.28 853.274L2383.1 853.274Z" fill-rule="evenodd"/><text fill="#000000" fill-opacity="0" font-family="Arial,Arial_MSFontService,sans-serif" font-size="50.6641" x="2383.1" y="884.401">ğ‘‡</text><path d="M2805.5 839.5 3057.5 604.5 3309.5 839.5 3057.5 1074.5Z" stroke="#000000" stroke-width="4.58333" stroke-miterlimit="8" fill="none" fill-rule="evenodd"/><path d="M2941.9 816.929 2970.04 816.929 2968.43 824.018 2951.62 824.018 2945.55 850.928C2944.76 854.437 2944.37 857.086 2944.37 858.877 2944.37 860.309 2944.6 861.347 2945.06 861.992 2945.53 862.637 2946.26 862.959 2947.27 862.959 2948.48 862.959 2949.81 862.458 2951.24 861.455 2952.67 860.452 2954.3 858.859 2956.13 856.675L2959.24 859.575C2956.16 863.013 2953.42 865.465 2951 866.933 2948.58 868.401 2946.1 869.136 2943.56 869.136 2941.02 869.136 2939.01 868.294 2937.54 866.611 2936.08 864.928 2935.34 862.744 2935.34 860.058 2935.34 857.659 2935.84 854.186 2936.85 849.638L2937.6 846.255C2938.17 843.641 2939.02 840.203 2940.15 835.942 2941.28 831.681 2942.41 827.868 2943.56 824.502L2943.29 824.018 2938.67 824.018C2936.31 824.018 2934.49 824.206 2933.22 824.582 2931.95 824.958 2930.71 825.603 2929.49 826.516 2928.27 827.429 2927 828.745 2925.67 830.464L2922.29 827.617C2924.22 825.218 2925.92 823.338 2927.37 821.977 2928.82 820.617 2930.2 819.587 2931.53 818.889 2932.85 818.191 2934.29 817.689 2935.83 817.385 2937.37 817.081 2939.39 816.929 2941.9 816.929Z" fill-rule="evenodd"/><text fill="#000000" fill-opacity="0" font-family="Arial,Arial_MSFontService,sans-serif" font-size="52.207" x="2922.29" y="862.61">ğœ</text><path d="M3011.95 867.041 3078.13 867.041 3078.13 874.184 3011.95 874.184ZM3078.13 799.526 3078.13 807.583 3020.6 829.121 3078.13 850.659 3078.13 858.716 3011.74 832.881 3011.74 825.361Z" fill-rule="evenodd"/><text fill="#000000" fill-opacity="0" font-family="Arial,Arial_MSFontService,sans-serif" font-size="74.6582" x="3011.74" y="864.852">â‰¤</text><path d="M3138.27 816.929 3166.41 816.929 3164.8 824.018 3147.99 824.018 3141.92 850.928C3141.13 854.437 3140.74 857.086 3140.74 858.877 3140.74 860.309 3140.97 861.347 3141.44 861.992 3141.9 862.637 3142.64 862.959 3143.64 862.959 3144.86 862.959 3146.18 862.458 3147.61 861.455 3149.05 860.452 3150.68 858.859 3152.5 856.675L3155.62 859.575C3152.54 863.013 3149.79 865.465 3147.37 866.933 3144.96 868.401 3142.48 869.136 3139.93 869.136 3137.39 869.136 3135.39 868.294 3133.92 866.611 3132.45 864.928 3131.72 862.744 3131.72 860.058 3131.72 857.659 3132.22 854.186 3133.22 849.638L3133.97 846.255C3134.54 843.641 3135.39 840.203 3136.52 835.942 3137.65 831.681 3138.79 827.868 3139.93 824.502L3139.66 824.018 3135.05 824.018C3132.68 824.018 3130.87 824.206 3129.59 824.582 3128.32 824.958 3127.08 825.603 3125.86 826.516 3124.64 827.429 3123.37 828.745 3122.05 830.464L3118.66 827.617C3120.6 825.218 3122.29 823.338 3123.74 821.977 3125.19 820.617 3126.58 819.587 3127.9 818.889 3129.23 818.191 3130.66 817.689 3132.2 817.385 3133.74 817.081 3135.76 816.929 3138.27 816.929Z" fill-rule="evenodd"/><text fill="#000000" fill-opacity="0" font-family="Arial,Arial_MSFontService,sans-serif" font-size="52.207" x="3118.66" y="862.61">ğœ</text><path d="M3176.63 840.07 3219.24 840.07 3216.08 853.859 3211.98 853.859 3211.98 851.633C3211.98 851.216 3211.96 850.741 3211.92 850.207 3211.88 849.673 3211.82 849.139 3211.74 848.606 3211.67 848.072 3211.58 847.577 3211.47 847.121 3211.37 846.665 3211.25 846.294 3211.12 846.008 3210.94 845.643 3210.75 845.344 3210.55 845.109 3210.36 844.875 3210.11 844.693 3209.81 844.563 3209.51 844.432 3209.15 844.341 3208.74 844.289 3208.32 844.237 3207.79 844.211 3207.14 844.211L3200.85 844.211 3192.8 879.836C3192.51 881.034 3192.31 882.056 3192.19 882.902 3192.08 883.749 3192.02 884.511 3192.02 885.188 3192.04 885.708 3192.12 886.158 3192.25 886.535 3192.38 886.913 3192.62 887.232 3192.96 887.492 3193.29 887.753 3193.75 887.948 3194.32 888.078 3194.9 888.208 3195.64 888.3 3196.55 888.352L3196 890.734 3178.74 890.734 3179.24 888.352C3179.9 888.195 3180.46 888.059 3180.92 887.942 3181.39 887.824 3181.8 887.668 3182.14 887.473 3182.47 887.277 3182.77 887.011 3183.01 886.672 3183.26 886.333 3183.5 885.871 3183.74 885.285 3183.97 884.699 3184.21 883.938 3184.44 883 3184.67 882.063 3184.95 880.904 3185.26 879.524L3193.15 844.211 3187.76 844.211C3186.9 844.211 3186.17 844.237 3185.57 844.289 3184.97 844.341 3184.43 844.478 3183.93 844.699 3183.44 844.921 3182.97 845.227 3182.55 845.617 3182.12 846.008 3181.67 846.542 3181.22 847.219 3180.76 847.896 3180.27 848.729 3179.73 849.719 3179.2 850.708 3178.58 851.893 3177.88 853.274L3173.7 853.274Z" fill-rule="evenodd"/><text fill="#000000" fill-opacity="0" font-family="Arial,Arial_MSFontService,sans-serif" font-size="50.6641" x="3173.7" y="884.401">ğ‘‡</text><path d="M669 832.125 930.605 832.125 930.605 845.875 669 845.875ZM923.73 818.375 964.98 839 923.73 859.625Z"/><path d="M1698 832.125 1980.3 832.125 1980.3 845.875 1698 845.875ZM1973.43 818.375 2014.68 839 1973.43 859.625Z"/><path d="M2520 832.125 2770.53 832.125 2770.53 845.875 2520 845.875ZM2763.66 818.375 2804.91 839 2763.66 859.625Z"/><path d="M2013.5 1403.5 2120.34 1219.5 2411.66 1219.5 2518.5 1403.5 2411.66 1587.5 2120.34 1587.5Z" stroke="#000000" stroke-width="4.58333" stroke-miterlimit="8" fill="none" fill-rule="evenodd"/><text font-family="Calibri,Calibri_MSFontService,sans-serif" font-weight="400" font-size="110" transform="matrix(1 0 0 1 2182.58 1356)">Not </text><text font-family="Calibri,Calibri_MSFontService,sans-serif" font-weight="400" font-size="110" transform="matrix(1 0 0 1 2083.99 1488)">Feasible</text><path d="M2273.88 1074 2273.88 1184.78 2260.13 1184.78 2260.12 1074ZM2287.63 1177.91 2267 1219.16 2246.38 1177.91Z"/><text font-family="Calibri,Calibri_MSFontService,sans-serif" font-weight="400" font-size="83" transform="matrix(1 0 0 1 2289.77 1126)">no</text><text font-family="Calibri,Calibri_MSFontService,sans-serif" font-weight="400" font-size="83" transform="matrix(1 0 0 1 2527.08 812)">yes</text><path d="M7.99022e-06-6.875 276.147-6.87468 276.147 6.87532-7.99022e-06 6.875ZM269.272-20.6247 310.522 0.000360892 269.272 20.6253Z" transform="matrix(1 0 0 -1 3309 839)"/><path d="M3063.69 1074 3063.69 1394.01 2539.37 1394.01 2539.37 1380.26 3056.82 1380.26 3049.94 1387.14 3049.94 1074ZM2546.25 1407.76 2505 1387.14 2546.25 1366.51Z"/><text font-family="Calibri,Calibri_MSFontService,sans-serif" font-weight="400" font-size="83" transform="matrix(1 0 0 1 3074.92 1134)">no</text><text font-family="Calibri,Calibri_MSFontService,sans-serif" font-weight="400" font-size="83" transform="matrix(1 0 0 1 3307.15 810)">yes</text><path d="M3620.5 739.501C3620.5 711.886 3642.89 689.5 3670.5 689.5L4383.5 689.5C4411.11 689.5 4433.5 711.886 4433.5 739.501L4433.5 939.499C4433.5 967.114 4411.11 989.5 4383.5 989.5L3670.5 989.5C3642.89 989.5 3620.5 967.114 3620.5 939.499Z" stroke="#000000" stroke-width="4.58333" stroke-miterlimit="8" fill="none" fill-rule="evenodd"/><path d="M2013.43 1410.14 311.125 1410.14 311.125 1023.37 324.875 1023.37 324.875 1403.27 318 1396.39 2013.43 1396.39ZM297.375 1030.25 318 989 338.625 1030.25Z"/></g></svg>