<?xml version="1.0" encoding="UTF-8" standalone="no"?>
<!-- Created with Inkscape (http://www.inkscape.org/) -->

<svg
   version="1.1"
   id="svg2"
   width="320"
   height="226.66667"
   viewBox="0 0 320 226.66667"
   sodipodi:docname="Tele_unenc.eps"
   xmlns:inkscape="http://www.inkscape.org/namespaces/inkscape"
   xmlns:sodipodi="http://sodipodi.sourceforge.net/DTD/sodipodi-0.dtd"
   xmlns="http://www.w3.org/2000/svg"
   xmlns:svg="http://www.w3.org/2000/svg">
  <defs
     id="defs6" />
  <sodipodi:namedview
     id="namedview4"
     pagecolor="#ffffff"
     bordercolor="#000000"
     borderopacity="0.25"
     inkscape:showpageshadow="2"
     inkscape:pageopacity="0.0"
     inkscape:pagecheckerboard="0"
     inkscape:deskcolor="#d1d1d1" />
  <g
     id="g8"
     inkscape:groupmode="layer"
     inkscape:label="ink_ext_XXXXXX"
     transform="matrix(1.3333333,0,0,-1.3333333,0,226.66667)">
    <g
       id="g10"
       transform="scale(0.1)">
      <path
         d="M 0,0.015625 H 2403.79 V 1700.7856 H 0 Z"
         style="fill:#ffffff;fill-opacity:1;fill-rule:nonzero;stroke:none"
         id="path12" />
      <path
         d="M 0,0.015625 H 2403.79 V 1700.7856 H 0 Z"
         style="fill:#ffffff;fill-opacity:1;fill-rule:nonzero;stroke:none"
         id="path14" />
      <path
         d="M 371.66,288.484 H 2176 v 1286.1 H 371.66 Z"
         style="fill:#ffffff;fill-opacity:1;fill-rule:nonzero;stroke:none"
         id="path16" />
      <g
         id="g18"
         transform="scale(0.998725,-1.00127)">
        <path
           d="m 372.134,-288.117 h 0.599 0.606 0.602 0.599 0.606 0.602 0.599 0.606 0.599 0.602 0.606 0.599 0.602 0.606 0.598 0.603 0.606 0.598 0.603 0.606 0.598 0.603 0.606 0.598 0.599 0.606 0.602 0.599 0.606 0.602 0.599 0.606 0.602 0.599 0.606 0.602 0.599 0.606 0.602 0.599 0.606 0.598 0.603 0.606 0.598 0.603 0.606 0.598 0.603 0.606 0.598 0.603 0.606 0.598 0.603 0.606 0.598 0.603 0.602 0.602 0.599 0.606 0.602 0.599 0.606 0.602 0.599 0.606 0.602 0.599 0.606 0.602 0.599 0.606 0.602 0.599 0.606 0.598 0.603 0.606 0.598 0.603 0.606 0.598 0.603 0.606 0.598 0.603 0.606 0.598 0.603 0.606 0.598 0.599 0.606 0.602 0.599 0.606 0.602 0.599 0.606 0.602 0.599 0.606 0.602 0.599 0.606 0.602 0.599 0.606 0.598 0.603 0.606 0.598 0.603 0.606 0.598 0.603 0.606 0.598 0.603 0.606 0.598 0.603 0.606 0.598 0.599 0.606 0.602 0.599 0.606 0.602 0.599 0.606 0.602 0.599 0.606 0.602 0.599 0.606 0.602 0.599 0.606 0.598 0.603 0.606 0.598 0.603 0.606 0.598 0.603 0.606 0.598 0.603 0.606 0.598 0.603 0.606 0.598 0.603 0.606 0.598 0.599 0.606 0.602 0.599 0.606 0.602 0.599 0.606 0.602 0.599 0.606 0.602 0.599 0.606 0.602 0.599 0.606 0.598 0.603 0.606 0.598 0.603 0.606 0.598 0.603 0.606 0.598 0.603 0.606 0.598 0.603 0.606 0.598 0.599 0.606 0.602 0.599 0.606 0.602 0.599 0.606 0.602 0.599 0.606 0.602 0.599 0.606 0.602 0.599 0.606 0.598 0.603 0.606 0.598 0.603 0.606 0.598 0.603 0.606 0.598 0.603 0.606 0.598 0.603 0.606 0.598 0.599 0.606 0.602 0.599 0.606 0.602 0.599 0.606 0.602 0.599 0.606 0.602 0.599 0.606 0.602 0.599 0.606 0.602 0.599 0.606 0.598 0.603 0.606 0.598 0.603 0.606 0.598 0.603 0.606 0.598 0.603 0.606 0.598 0.603 0.606 0.598 0.599 0.606 0.602 0.599 0.606 0.602 0.599 0.606 0.602 0.599 0.606 0.602 0.599 0.606 0.602 0.599 0.606 0.598 0.603 0.606 0.598 0.603 0.606 0.598 0.603 0.606 0.598 0.603 0.606 0.598 0.603 0.606 0.598 0.599 0.606 0.602 0.599 0.606 0.602 0.599 0.606 0.602 0.599 0.606 0.602 0.599 0.606 0.602 0.599 0.606 0.602 0.599 0.606 0.598 0.603 0.606 0.598 0.603 0.606 0.598 0.603 0.606 0.598 0.603 0.606 0.598 0.603 0.606 0.598 0.599 0.606 0.602 0.599 0.606 0.602 0.599 0.606 0.602 0.599 0.606 0.602 0.599 0.606 0.602 0.599 0.606 0.598 0.603 0.606 0.598 0.603 0.606 0.598 0.603 0.606 0.598 0.603 0.606 0.598 0.603 0.606 0.598 0.599 0.606 0.602 0.599 0.606 0.602 0.599 0.606 0.602 0.599 0.606 0.602 0.599 0.606 0.602 0.599 0.606 0.598 0.603 0.606 0.598 0.603 0.606 0.598 0.603 0.606 0.598 0.603 0.606 0.598 0.603 0.606 0.598 0.603 0.602 0.602 0.599 0.606 0.602 0.599 0.606 0.602 0.599 0.606 0.602 0.599 0.606 0.602 0.599 0.606 0.602 0.599 0.606 0.598 0.603 0.606 0.598 0.603 0.606 0.598 0.603 0.606 0.598 0.603 0.606 0.598 0.603 0.606 0.598 0.599 0.606 0.602 0.599 0.606 0.602 0.599 0.606 0.602 0.599 0.606 0.602 0.599 0.606 0.602 0.599 0.606 0.598 0.603 0.606 0.598 0.603 0.606 0.598 0.603 0.606 0.598 0.603 0.606 0.598 0.603 0.606 0.598 0.599 0.606 0.602 0.599 0.606 0.602 0.599 0.606 0.602 0.599 0.606 0.602 0.599 0.606 0.602 0.599 0.606 0.598 0.603 0.606 0.598 0.603 0.606 0.598 0.603 0.606 0.598 0.603 0.606 0.598 0.603 0.606 0.598 0.603 0.606 0.598 0.599 0.606 0.602 0.599 0.606 0.602 0.599 0.606 0.602 0.599 0.606 0.602 0.599 0.606 0.602 0.599 0.606 0.598 0.603 0.606 0.598 0.603 0.606 0.598 0.603 0.606 0.598 0.603 0.606 0.598 0.603 0.606 0.598 0.599 0.606 0.602 0.599 0.606 0.602 0.599 0.606 0.602 0.599 0.606 0.602 0.599 0.606 0.602 0.599 0.606 0.598 0.603 0.606 0.598 0.603 0.606 0.598 0.603 0.606 0.598 0.603 0.606 0.598 0.603 0.606 0.598 0.599 0.606 0.602 0.599 0.606 0.602 0.599 0.606 0.602 0.599 0.606 0.602 0.599 0.606 0.602 0.599 0.606 0.602 0.599 0.606 0.598 0.603 0.606 0.598 0.603 0.606 0.598 0.603 0.606 0.598 0.602 0.607 0.598 0.602 0.607 0.598 0.599 0.606 0.602 0.599 0.606 0.602 0.599 0.606 0.602 0.599 0.606 0.602 0.599 0.606 0.602 0.599 0.606 0.598 0.603 0.606 0.598 0.602 0.607 0.598 0.602 0.607 0.598 0.602 0.607 0.598 0.602 0.607 0.598 0.599 0.606 0.602 0.599 0.606 0.602 0.599 0.606 0.602 0.599 0.606 0.602 0.599 0.606 0.602 0.598 0.607 0.598 0.602 0.607 0.598 0.602 0.607 0.598 0.602 0.607 0.598 0.602 0.607 0.598 0.602 0.607 0.598 0.602 0.607 0.598 0.599 0.606 0.602 0.599 0.606 0.602 0.599 0.606 0.602 0.598 0.607 0.602 0.598 0.607 0.602 0.598 0.607 0.598 0.602 0.607 0.598 0.602 0.607 0.598 0.602 0.607 0.598 0.602 0.607 0.598 0.602 0.607 0.598 0.599 0.606 0.602 0.598 0.607 0.602 0.598 0.607 0.602 0.598 0.607 0.602 0.598 0.607 0.602 0.598 0.607 0.598 0.602 0.607 0.598 0.602 0.607 0.598 0.602 0.607 0.598 0.602 0.607 0.598 0.602 0.607 0.598 0.598 0.607 0.602 0.598 0.607 0.602 0.598 0.607 0.602 0.598 0.607 0.602 0.598 0.607 0.602 0.598 0.607 0.602 0.598 0.607 0.598 0.602 0.607 0.598 0.602 0.607 0.598 0.602 0.607 0.598 0.602 0.607 0.598 0.602 0.607 0.598 0.598 0.607 0.602 0.598 0.607 0.602 0.598 0.607 0.602 0.598 0.607 0.602 0.598 0.607 0.602 0.598 0.607 0.598 0.602 0.607 0.598 0.602 0.607 0.598 0.602 0.607 0.598 0.602 0.607 0.598 0.602 0.607 0.598 0.598 0.607 0.602 0.598 0.607 0.602 0.598 0.607 0.602 0.598 0.607 0.602 0.598 0.607 0.602 0.598 0.607 0.598 0.602 0.607 0.598 0.602 0.607 0.598 0.602 0.607 0.598 0.602 0.607 0.598 0.602 0.607 0.598 0.602 0.603 0.602 0.598 0.607 0.602 0.598 0.607 0.602 0.598 0.607 0.602 0.598 0.607 0.602 0.598 0.607 0.602 0.598 0.607 0.598 0.602 0.607 0.598 0.602 0.607 0.598 0.602 0.607 0.598 0.602 0.607 0.598 0.602 0.607 0.598 0.598 0.607 0.602 0.598 0.607 0.602 0.598 0.607 0.602 0.598 0.607 0.602 0.598 0.607 0.602 0.598 0.607 0.598 0.602 0.607 0.598 0.602 0.607 0.598 0.602 0.607 0.598 0.602 0.607 0.598 0.602 0.607 0.598 0.598 0.607 0.602 0.598 0.607 0.602 0.598 0.607 0.602 0.598 0.607 0.602 0.598 0.607 0.602 0.598 0.607 0.598 0.602 0.607 0.598 0.602 0.607 0.598 0.602 0.607 0.598 0.602 0.607 0.598 0.602 0.607 0.598 0.602 0.607 0.598 0.598 0.607 0.602 0.598 0.607 0.602 0.598 0.607 0.602 0.598 0.607 0.602 0.598 0.607 0.602 0.598 0.607 0.598 0.602 0.607 0.598 0.602 0.607 0.598 0.602 0.607 0.598 0.602 0.607 0.598 0.602 0.607 0.598 0.598 0.607 0.602 0.598 0.607 0.602 0.598 0.607 0.602 0.598 0.607 0.602 0.598 0.607 0.602 0.598 0.607 0.598 0.602 l 0.607,-0.008 0.598,-0.012 0.602,-0.015 0.607,-0.031 0.598,-0.036 0.602,-0.042 0.607,-0.055 0.598,-0.059 0.602,-0.066 0.607,-0.074 0.598,-0.082 0.602,-0.09 0.607,-0.097 0.598,-0.109 0.598,-0.106 0.607,-0.121 0.602,-0.132 0.598,-0.133 0.607,-0.144 0.602,-0.156 0.598,-0.157 0.607,-0.167 0.602,-0.172 0.598,-0.187 0.607,-0.191 0.602,-0.207 0.598,-0.207 0.607,-0.218 0.602,-0.227 0.598,-0.234 0.607,-0.242 0.602,-0.249 0.598,-0.262 0.607,-0.269 0.598,-0.277 0.602,-0.281 0.607,-0.292 0.598,-0.301 0.602,-0.312 0.607,-0.32 0.598,-0.324 0.602,-0.327 0.609,-0.34 0.6,-0.339 0.6,-0.355 0.6,-0.355 0.6,-0.359 0.61,-0.375 0.6,-0.37 0.6,-0.382 0.6,-0.387 0.6,-0.394 0.61,-0.398 0.6,-0.409 0.6,-0.414 0.6,-0.413 0.6,-0.426 0.61,-0.433 0.6,-0.437 0.6,-0.437 0.61,-0.452 0.6,-0.449 0.6,-0.456 0.6,-0.457 0.6,-0.464 0.6,-0.46 0.61,-0.468 0.6,-0.476 0.6,-0.472 0.61,-0.48 0.59,-0.48 0.61,-0.48 0.6,-0.495 0.6,-0.492 0.6,-0.492 0.61,-0.499 0.6,-0.495 0.6,-0.504 0.61,-0.511 0.6,-0.511 0.6,-0.515 0.6,-0.519 0.6,-0.518 0.6,-0.523 0.61,-0.531 0.6,-0.527 0.6,-0.534 0.6,-0.538 0.61,-0.535 0.6,-0.546 0.6,-0.546 0.6,-0.546 0.6,-0.554 0.61,-0.558 0.6,-0.558 0.6,-0.566 0.61,-0.562 0.6,-0.565 0.6,-0.578 0.6,-0.569 0.6,-0.582 0.6,-0.581 0.61,-0.597 0.6,-0.593 0.6,-0.601 0.61,-0.612 0.59,-0.613 0.61,-0.616 0.6,-0.632 0.6,-0.628 0.6,-0.636 0.61,-0.648 0.6,-0.651 0.6,-0.652 0.61,-0.667 0.6,-0.667 0.6,-0.671 0.6,-0.679 0.6,-0.682 0.6,-0.699 0.61,-0.694 0.6,-0.71 0.6,-0.722 0.6,-0.726 0.61,-0.737 0.6,-0.745 0.6,-0.757 0.6,-0.765 0.6,-0.776 0.61,-0.784 0.6,-0.8 0.6,-0.803 0.61,-0.812 0.6,-0.827 0.6,-0.835 0.6,-0.843 0.6,-0.85 0.6,-0.866 0.61,-0.87 0.6,-0.882 0.6,-0.885 0.61,-0.909 0.59,-0.913 0.61,-0.929 0.6,-0.936 0.6,-0.948 0.6,-0.96 0.61,-0.975 0.6,-0.983 0.6,-0.995 0.61,-1.003 0.6,-1.022 0.59,-1.026 0.61,-1.045 0.6,-1.05 0.6,-1.061 0.61,-1.077 0.6,-1.084 0.6,-1.1 0.6,-1.108 0.61,-1.124 0.6,-1.127 0.6,-1.14 0.6,-1.154 0.6,-1.159 0.61,-1.17 0.6,-1.183 0.6,-1.193 0.61,-1.202 0.59,-1.209 0.61,-1.225 0.6,-1.233 0.6,-1.241 0.6,-1.256 0.61,-1.264 0.6,-1.276 0.6,-1.283 0.61,-1.295 0.59,-1.303 0.61,-1.315 0.6,-1.327 0.6,-1.33 0.6,-1.342 0.61,-1.342 0.6,-1.35 0.6,-1.365 0.6,-1.366 0.61,-1.377 0.59,-1.381 0.61,-1.389 0.6,-1.4 0.6,-1.405 0.61,-1.408 0.6,-1.42 0.6,-1.428 0.6,-1.432 0.61,-1.443 0.6,-1.444 0.6,-1.455 0.6,-1.463 0.6,-1.471 0.61,-1.478 0.6,-1.475 0.6,-1.483 0.61,-1.49 0.59,-1.494 0.61,-1.498 0.6,-1.51 0.6,-1.506 0.6,-1.517 0.61,-1.518 0.6,-1.525 0.6,-1.53 0.61,-1.533 0.59,-1.541 0.61,-1.541 0.6,-1.549 0.6,-1.556 0.6,-1.561 0.61,-1.564 0.6,-1.572 0.6,-1.577 0.6,-1.584 0.61,-1.583 0.59,-1.592 0.61,-1.596 0.6,-1.603 0.6,-1.6 0.61,-1.615 0.6,-1.615 0.6,-1.619 0.6,-1.635 0.61,-1.63 0.6,-1.635 0.6,-1.642 0.6,-1.655 0.6,-1.65 0.61,-1.662 0.6,-1.662 0.6,-1.669 0.61,-1.674 0.59,-1.682 0.61,-1.693 0.6,-1.697 0.6,-1.705 0.6,-1.716 0.61,-1.717 0.6,-1.728 0.6,-1.736 0.61,-1.744 0.59,-1.748 0.61,-1.759 0.6,-1.764 0.6,-1.771 0.6,-1.783 0.61,-1.786 0.6,-1.795 0.6,-1.802 0.6,-1.815 0.61,-1.818 0.59,-1.821 0.61,-1.838 0.6,-1.849 0.6,-1.857 0.61,-1.865 0.6,-1.873 0.6,-1.884 0.6,-1.896 0.61,-1.912 0.6,-1.911 0.6,-1.927 0.6,-1.935 0.6,-1.951 0.61,-1.951 0.6,-1.966 0.6,-1.974 0.61,-1.99 0.59,-1.989 0.61,-2.006 0.6,-2.016 0.6,-2.025 0.6,-2.041 0.61,-2.044 0.6,-2.056 0.6,-2.068 0.61,-2.079 0.59,-2.087 0.61,-2.103 0.6,-2.11 0.6,-2.119 0.6,-2.13 0.61,-2.146 0.6,-2.153 0.6,-2.161 0.6,-2.177 0.61,-2.185 0.59,-2.197 0.61,-2.204 0.6,-2.216 0.6,-2.231 0.61,-2.232 0.6,-2.251 0.6,-2.251 0.6,-2.27 0.61,-2.275 0.6,-2.282 0.6,-2.29 0.6,-2.306 0.6,-2.309 0.61,-2.318 0.6,-2.329 0.6,-2.341 0.61,-2.348 0.59,-2.353 0.61,-2.372 0.6,-2.368 0.6,-2.383 0.6,-2.396 0.61,-2.399 0.6,-2.415 0.6,-2.419 0.61,-2.43 0.59,-2.431 0.6,-2.442 0.61,-2.442 0.6,-2.458 0.6,-2.458 0.61,-2.469 0.6,-2.474 0.6,-2.485 0.6,-2.485 0.61,-2.497 0.59,-2.5 0.61,-2.509 0.6,-2.516 0.6,-2.52 0.61,-2.528 0.6,-2.54 0.6,-2.536 0.6,-2.551 0.6,-2.56 0.61,-2.563 0.6,-2.559 0.6,-2.579 0.6,-2.575 0.61,-2.578 0.6,-2.595 0.6,-2.59 0.61,-2.602 0.59,-2.602 0.61,-2.61 0.6,-2.618 0.6,-2.626 0.6,-2.621 0.61,-2.634 0.6,-2.637 0.6,-2.645 0.61,-2.649 0.59,-2.653 0.6,-2.664 0.61,-2.665 0.6,-2.672 0.6,-2.677 0.61,-2.68 0.6,-2.692 0.6,-2.699 0.6,-2.7 0.61,-2.708 0.59,-2.715 0.61,-2.723 0.6,-2.727 0.6,-2.731 0.61,-2.742 0.6,-2.743 0.6,-2.747 0.6,-2.762 0.6,-2.762 0.61,-2.774 0.6,-2.77 0.6,-2.781 0.6,-2.79 0.61,-2.797 0.6,-2.805 0.6,-2.813 0.61,-2.82 0.59,-2.829 0.61,-2.84 0.6,-2.844 0.6,-2.852 0.6,-2.863 0.61,-2.868 0.6,-2.875 0.6,-2.887 0.6,-2.891 0.6,-2.902 0.6,-2.911 0.61,-2.914 0.6,-2.926 0.6,-2.934 0.61,-2.941 0.6,-2.946 0.6,-2.961 0.6,-2.968 0.61,-2.981 0.59,-2.988 0.61,-2.993 0.6,-3.015 0.6,-3.012 0.61,-3.024 0.6,-3.039 0.6,-3.051 0.6,-3.054 0.6,-3.067 0.61,-3.074 0.6,-3.082 0.6,-3.094 0.6,-3.101 0.61,-3.117 0.6,-3.121 0.6,-3.133 0.61,-3.144 0.59,-3.153 0.61,-3.156 0.6,-3.175 0.6,-3.18 0.6,-3.187 0.61,-3.199 0.6,-3.211 0.6,-3.223 0.6,-3.23 0.6,-3.234 0.6,-3.25 0.61,-3.257 0.6,-3.273 0.6,-3.278 0.61,-3.281 0.6,-3.3 0.6,-3.301 0.6,-3.319 0.61,-3.328 0.59,-3.336 0.61,-3.343 0.6,-3.348 0.6,-3.36 0.61,-3.37 0.6,-3.37 0.6,-3.39 0.6,-3.39 0.6,-3.4 0.61,-3.41 0.6,-3.42 0.6,-3.42 0.6,-3.44 0.61,-3.44 0.6,-3.45 0.6,-3.45 0.61,-3.47 0.59,-3.47 0.61,-3.49 0.6,-3.49 0.6,-3.5 0.6,-3.5 0.61,-3.51 0.6,-3.52 0.6,-3.53 0.6,-3.53 0.6,-3.53 0.6,-3.55 0.61,-3.55 0.6,-3.56 0.6,-3.57 0.61,-3.56 0.6,-3.58 0.6,-3.58 0.6,-3.59 0.61,-3.6 0.59,-3.6 0.61,-3.61 0.6,-3.61 0.6,-3.63 0.61,-3.63 0.6,-3.63 0.6,-3.64 0.6,-3.65 0.6,-3.65 0.61,-3.66 0.6,-3.66 0.6,-3.67 0.6,-3.67 0.61,-3.68 0.6,-3.7 0.6,-3.69 0.61,-3.69 0.59,-3.71 0.6,-3.71 0.61,-3.72 0.6,-3.72 0.6,-3.73 0.61,-3.73 0.6,-3.74 0.6,-3.74 0.6,-3.76 0.6,-3.75 0.6,-3.76 0.61,-3.77 0.6,-3.77 0.6,-3.77 0.61,-3.78 0.6,-3.78 0.6,-3.79 0.6,-3.8 0.6,-3.8 0.6,-3.8 0.61,-3.81 0.6,-3.81 0.6,-3.82 0.61,-3.82 0.6,-3.83 0.6,-3.84 0.6,-3.83 0.6,-3.84 0.6,-3.81 0.61,-3.81 0.6,-3.79 0.6,-3.78 0.61,-3.77 0.6,-3.75 0.6,-3.74 0.6,-3.72 0.6,-3.71 0.6,-3.7 0.61,-3.69 0.6,-3.67 0.6,-3.65 0.61,-3.64 0.6,-3.63 0.6,-3.62 0.6,-3.61 0.6,-3.58 0.6,-3.58 0.61,-3.55 0.6,-3.52 0.6,-3.48 0.61,-3.44 0.6,-3.42 0.6,-3.37 0.6,-3.34 0.6,-3.31 0.6,-3.27 0.61,-3.23 0.6,-3.21 0.6,-3.16 0.61,-3.13 0.6,-3.09 0.6,-3.07 0.6,-3.02 0.6,-2.99 0.6,-2.96 0.61,-2.91 0.6,-2.89 0.6,-2.85 0.61,-2.8 0.6,-2.74 0.6,-2.71 0.6,-2.66 0.6,-2.62 0.6,-2.57 0.61,-2.52 0.6,-2.47 0.6,-2.43 0.61,-2.38 0.6,-2.34 0.6,-2.29 0.6,-2.25 0.6,-2.2 0.6,-2.15 0.61,-2.11 0.6,-2.07 0.6,-2 0.61,-1.98 0.59,-1.93 0.61,-1.88 0.6,-1.85 0.6,-1.81 0.6,-1.77 0.61,-1.73 0.6,-1.68 0.6,-1.65 0.61,-1.61 0.6,-1.57 0.6,-1.53 0.6,-1.49 0.6,-1.46 0.6,-1.41 0.61,-1.37 0.6,-1.34 0.6,-1.29 0.6,-1.25 0.61,-1.22 0.6,-1.17 0.6,-1.14 0.6,-1.13 0.6,-1.09 0.61,-1.07 0.6,-1.05 0.6,-1.03 0.61,-1 0.6,-0.98 0.6,-0.96 0.6,-0.93 0.6,-0.91 0.6,-0.89 0.61,-0.86 0.6,-0.84 0.6,-0.82 0.61,-0.79 0.59,-0.77 0.61,-0.74 0.6,-0.73 0.6,-0.69 0.6,-0.69 0.61,-0.67 0.6,-0.66 0.6,-0.65 0.61,-0.64 0.6,-0.64 0.6,-0.62 0.6,-0.61 0.6,-0.6 0.6,-0.59 0.61,-0.58 0.6,-0.56 0.6,-0.57 0.6,-0.54 0.61,-0.54 0.59,-0.53 0.61,-0.52 0.6,-0.51 0.6,-0.49 0.61,-0.49 0.6,-0.48 0.6,-0.47 0.61,-0.46 0.6,-0.45 0.6,-0.45 0.6,-0.44 0.6,-0.43 0.6,-0.42 0.61,-0.42 0.6,-0.41 0.6,-0.39 0.61,-0.39 0.59,-0.39 0.61,-0.37 0.6,-0.37 0.6,-0.36 0.6,-0.35 0.61,-0.34 0.6,-0.34 0.6,-0.33 0.61,-0.31 0.6,-0.3 0.6,-0.3 0.6,-0.27 0.6,-0.26 0.6,-0.26 0.61,-0.23 0.6,-0.22 0.6,-0.21 0.6,-0.2 0.61,-0.18 0.59,-0.17 0.61,-0.15 0.6,-0.15 0.6,-0.12 0.61,-0.12 0.6,-0.1 0.6,-0.09 0.61,-0.07 0.6,-0.06 0.6,-0.05 0.6,-0.03 0.6,-0.01 0.6,0.01 0.61,0.02 0.6,0.05 0.6,0.05 0.61,0.07 0.59,0.08 0.61,0.11 0.6,0.12 0.6,0.14 0.6,0.15 0.61,0.16 0.6,0.19 0.6,0.2 0.61,0.21 0.6,0.24 0.59,0.25 0.61,0.26 0.6,0.28 0.6,0.3 0.61,0.31 0.6,0.32 0.6,0.34 0.6,0.35 0.61,0.37 0.59,0.38 0.61,0.4 0.6,0.41 0.6,0.43 0.61,0.44 0.6,0.46 0.6,0.47 0.61,0.48 0.59,0.5 0.61,0.52 0.6,0.53 0.6,0.54 0.6,0.56 0.61,0.57 0.6,0.58 0.6,0.58 0.61,0.59 0.59,0.6 0.61,0.6 0.6,0.61 0.6,0.61 0.6,0.62 0.61,0.63 0.6,0.64 0.6,0.63 0.61,0.65 0.6,0.65 0.59,0.66 0.61,0.67 0.6,0.67 0.6,0.68 0.61,0.69 0.6,0.69 0.6,0.69 0.6,0.69 0.61,0.69 0.59,0.69 0.61,0.69 0.6,0.68 0.6,0.69 0.61,0.67 0.6,0.69 0.6,0.68 0.61,0.67 0.59,0.68 0.61,0.67 0.6,0.67 0.6,0.67 0.6,0.67 0.61,0.67 0.6,0.66 0.6,0.66 0.61,0.66 0.59,0.66 0.61,0.66 0.6,0.65 0.6,0.64 0.6,0.63 0.61,0.64 0.6,0.62 0.6,0.63 0.6,0.62 0.61,0.62 0.59,0.6 0.61,0.61 0.6,0.6 0.6,0.59 0.61,0.59 0.6,0.58 0.6,0.58 0.6,0.57 0.61,0.57 0.59,0.57 0.61,0.56 0.6,0.56 0.6,0.55 0.61,0.56 0.6,0.55 0.6,0.54 0.61,0.55 0.59,0.54 0.61,0.54 0.6,0.53 0.6,0.54 0.6,0.53 0.61,0.53 0.6,0.53 0.6,0.52 0.61,0.53 0.59,0.51 0.61,0.52 0.6,0.51 0.6,0.51 0.6,0.51 0.61,0.51 0.6,0.52 0.6,0.5 0.6,0.52 0.61,0.52 0.59,0.51 0.61,0.52 0.6,0.52 0.6,0.52 0.61,0.52 0.6,0.53 0.6,0.52 0.6,0.53 0.61,0.53 0.59,0.52 0.61,0.53 0.6,0.53 0.6,0.54 0.61,0.52 0.6,0.54 0.6,0.54 0.61,0.54 0.59,0.54 0.61,0.54 0.6,0.55 0.6,0.55 0.6,0.55 0.61,0.56 0.6,0.56 0.6,0.56 0.61,0.56 0.59,0.57 0.61,0.56 0.6,0.57 0.6,0.58 0.6,0.57 0.61,0.58 0.6,0.58 0.6,0.58 0.6,0.59 0.61,0.58 0.59,0.59 0.61,0.58 0.6,0.59 0.6,0.58 0.61,0.58 0.6,0.59 0.6,0.58 0.6,0.59 0.61,0.58 0.59,0.59 0.61,0.58 0.6,0.59 0.6,0.58 0.61,0.59 0.6,0.59 0.6,0.58 0.61,0.59 0.59,0.58 0.61,0.59 0.6,0.58 0.6,0.58 0.6,0.57 0.61,0.57 0.6,0.56 0.6,0.56 0.61,0.56 0.59,0.56 0.6,0.55 0.61,0.54 0.6,0.55 0.6,0.54 0.61,0.53 0.6,0.53 0.6,0.53 0.6,0.52 0.61,0.52 0.59,0.52 0.61,0.51 0.6,0.51 0.6,0.5 0.61,0.5 0.6,0.49 0.6,0.48 0.6,0.48 0.6,0.47 0.6,0.46 0.61,0.47 0.6,0.45 0.6,0.45 0.61,0.45 0.6,0.43 0.6,0.43 0.61,0.43 0.59,0.42 0.61,0.41 0.6,0.41 0.6,0.4 0.6,0.4 0.61,0.39 0.6,0.38 0.6,0.39 0.61,0.38 0.59,0.37 0.6,0.36 0.61,0.36 0.6,0.36 0.6,0.35 0.61,0.35 0.6,0.34 0.6,0.34 0.6,0.33 0.61,0.34 0.59,0.32 0.61,0.32 0.6,0.31 0.6,0.31 0.61,0.3 0.6,0.3 0.6,0.29 0.6,0.3 0.6,0.29 0.6,0.29 0.61,0.29 0.6,0.29 0.6,0.28 0.61,0.28 0.6,0.28 0.6,0.28 0.61,0.27 0.59,0.27 0.61,0.28 0.6,0.27 0.6,0.27 0.6,0.26 0.61,0.26 0.6,0.26 0.6,0.26 0.6,0.26 0.6,0.26 0.6,0.25 0.61,0.26 0.6,0.25 0.6,0.26 0.61,0.26 0.6,0.25 0.6,0.26 0.6,0.25 0.61,0.26 0.59,0.26 0.61,0.25 0.6,0.25 0.6,0.26 0.61,0.26 0.6,0.25 0.6,0.26 0.6,0.26 0.6,0.25 0.6,0.26 0.61,0.25 0.6,0.26 0.6,0.26 0.61,0.25 0.6,0.26 0.6,0.25 0.6,0.26 0.6,0.25 0.61,0.26 0.6,0.25 0.6,0.26 0.6,0.25 0.61,0.26 0.6,0.25 0.6,0.26 0.6,0.25 0.6,0.25 0.6,0.26 0.61,0.25 0.6,0.26 0.6,0.25 0.61,0.25 0.6,0.25 0.6,0.24 0.6,0.25 0.61,0.25 0.59,0.24 0.61,0.24 0.6,0.24 0.6,0.24 0.61,0.23 0.6,0.24 0.6,0.23 0.6,0.23 0.6,0.23 0.6,0.23 0.61,0.23 0.6,0.22 0.6,0.22 0.61,0.22 0.6,0.22 0.6,0.21 0.6,0.21 0.6,0.21 0.61,0.21 0.6,0.2 0.6,0.2 0.6,0.2 0.61,0.19 0.6,0.18 0.6,0.19 0.6,0.19 0.6,0.18 0.6,0.18 0.61,0.17 0.6,0.17 0.6,0.17 0.61,0.16 0.6,0.17 0.6,0.16 0.6,0.16 0.61,0.15 0.59,0.14 0.61,0.16 0.6,0.14 0.6,0.14 0.61,0.14 0.6,0.13 0.6,0.14 0.6,0.12 0.6,0.13 0.6,0.12 0.61,0.13 0.6,0.11 0.6,0.12 0.61,0.11 0.6,0.11 0.6,0.1 0.6,0.11 0.6,0.1 0.6,0.09 0.61,0.1 0.6,0.1 0.6,0.09 0.61,0.09 0.6,0.09 0.6,0.09 0.6,0.08 0.6,0.09 0.6,0.09 0.61,0.08 0.6,0.08 0.6,0.08 0.61,0.08 0.6,0.07 0.6,0.08 0.6,0.08 0.6,0.07 0.6,0.07 0.61,0.07 0.6,0.06 0.6,0.07 0.61,0.07 0.6,0.07 0.6,0.07 0.6,0.06 0.6,0.08 0.6,0.06 0.61,0.07 0.6,0.07 0.6,0.07 0.61,0.07 0.6,0.06 0.6,0.07 0.6,0.07 0.6,0.07 0.6,0.07 0.61,0.06 0.6,0.07 0.6,0.07 0.6,0.07 0.61,0.07 0.6,0.07 0.6,0.07 0.6,0.07 0.6,0.07 0.61,0.07 0.6,0.07 0.6,0.07 0.61,0.07 0.6,0.08 0.6,0.08 0.6,0.07 0.6,0.07 0.6,0.08 0.61,0.08 0.6,0.07 0.6,0.07 0.61,0.08 0.6,0.08 0.6,0.08 0.6,0.08 0.6,0.07 0.6,0.08 0.61,0.08 0.6,0.07 0.6,0.08 0.61,0.08 0.6,0.08 0.59,0.08 0.61,0.07 0.6,0.08 0.6,0.07 0.61,0.08 0.6,0.08 0.6,0.07 0.6,0.07 0.61,0.08 0.6,0.08 0.6,0.07 0.6,0.07 0.6,0.08 0.61,0.07 0.6,0.07 0.6,0.06 0.61,0.08 0.59,0.07 0.61,0.06 0.6,0.07 0.6,0.06 0.6,0.07 0.61,0.06 0.6,0.06 0.6,0.06 0.61,0.06 0.6,0.06 0.6,0.05 0.6,0.06 0.6,0.05 0.6,0.06 0.61,0.05 0.6,0.05 0.6,0.06 0.6,0.05 0.61,0.04 0.59,0.05 0.61,0.04 0.6,0.05 0.6,0.04 0.61,0.04 0.6,0.04 0.6,0.03 0.6,0.04 0.61,0.03 0.6,0.04 0.6,0.03 0.6,0.03 0.6,0.03 0.61,0.03 0.6,0.03 0.6,0.02 0.61,0.03 0.59,0.02 0.61,0.03 0.6,0.02 0.6,0.02 0.6,0.02 0.61,0.02 0.6,0.02 0.6,0.02 0.61,0.02 0.6,0.01 0.6,0.02 0.6,0.02 0.6,0.01 0.6,0.01 0.61,0.01 0.6,0.01 0.6,0.02 0.6,0.01 0.61,0.01 0.59,0.01 0.61,0.01 0.6,0.01 0.6,0.01 0.61,0.01 h 0.6 l 0.6,0.02 0.6,0.01 0.61,0.01 0.6,0.01 0.6,0.01 0.6,0.01 0.6,0.01 0.61,0.01 0.6,0.01 0.6,0.01 0.61,0.01 0.59,0.01 0.61,0.01 0.6,0.02 h 0.6 l 0.6,0.01 0.61,0.01 0.6,0.02 0.6,0.02 0.61,0.01 0.6,0.01 0.6,0.02 0.6,0.01 0.6,0.02 0.6,0.01 0.61,0.02 0.6,0.02 0.6,0.02 0.6,0.02 0.61,0.01 0.59,0.02 0.61,0.02 0.6,0.03 0.6,0.01 0.61,0.03 0.6,0.02 0.6,0.02 0.6,0.02 0.61,0.02 0.6,0.03 0.6,0.02 0.6,0.02 0.6,0.03 0.61,0.02 0.6,0.03 0.6,0.02 0.61,0.02 0.59,0.03 0.61,0.03 0.6,0.02 0.6,0.03 0.6,0.03 0.61,0.03 0.6,0.02 0.6,0.03 0.61,0.02 0.6,0.03 0.59,0.03 0.61,0.02 0.6,0.03 0.6,0.03 0.61,0.02 0.6,0.02 0.6,0.04 0.6,0.02 0.61,0.02 0.59,0.03 0.61,0.02 0.6,0.02 0.6,0.03 0.61,0.02 0.6,0.03 0.6,0.02 0.6,0.02 0.61,0.02 0.6,0.03 0.6,0.01 0.6,0.03 0.6,0.02 0.61,0.01 0.6,0.02 0.6,0.02 0.61,0.02 0.59,0.01 0.61,0.02 0.6,0.02 0.6,0.02 0.6,0.01 0.61,0.01 0.6,0.01 0.6,0.02 0.61,0.01 0.6,0.01 0.59,0.02 0.61,0.01 0.6,0.01 0.6,0.01 h 0.61 l 0.6,0.02 h 0.6 l 0.6,0.01 0.61,0.01 0.59,0.01 h 0.61 l 0.6,0.01 0.6,0.01 h 0.61 l 0.6,0.01 h 0.6 0.6 0.6 l 0.61,0.01 h 0.6 l 0.6,0.01 h 0.6 0.61 0.6 0.6 0.61 l 0.59,0.01 h 0.61 0.6 0.6 0.6 0.61 0.6 0.6 0.6 l 0.61,0.01 h 0.59 0.61 0.6 0.6 0.61 l 0.6,0.01 h 0.6 0.6 0.61 0.59 l 0.61,0.01 h 0.6 0.6 0.61 l 0.6,0.01 0.6,0.01 h 0.6 0.6 l 0.61,0.01 0.6,0.01 h 0.6 l 0.6,0.01 h 0.61 l 0.6,0.01 h 0.6 l 0.61,0.01 0.59,0.01 0.61,0.01 h 0.6 l 0.6,0.02 h 0.6 l 0.61,0.02 h 0.6 l 0.6,0.01 0.6,0.01 0.61,0.01 0.59,0.01 0.61,0.01 0.6,0.01 0.6,0.01 0.61,0.02 0.6,0.01 0.6,0.01 0.6,0.01 0.61,0.02 0.59,0.01 0.61,0.01 0.6,0.02 0.6,0.01 0.61,0.01 0.6,0.02 0.6,0.01 0.6,0.01 0.6,0.01 0.61,0.02 0.6,0.01 0.6,0.02 0.6,0.01 0.61,0.01 0.6,0.02 0.6,0.01 0.61,0.01 0.59,0.01 0.61,0.02 0.6,0.01 0.6,0.01 0.6,0.01 0.61,0.02 0.6,0.02 0.6,0.01 0.6,0.01 0.61,0.01 0.59,0.01 0.61,0.01 0.6,0.02 h 0.6 l 0.61,0.02 0.6,0.01 0.6,0.01 0.6,0.01 0.61,0.01 0.59,0.01 0.61,0.01 0.6,0.01 h 0.6 l 0.61,0.02 h 0.6 l 0.6,0.01 0.6,0.01 0.6,0.01 h 0.61 l 0.6,0.01 0.6,0.01 h 0.6 l 0.61,0.01 h 0.6 l 0.6,0.01 h 0.61 l 0.59,0.01 h 0.61 l 0.6,0.01 h 0.6 0.6 l 0.61,0.01 h 0.6 0.6 0.6 l 0.61,0.01 h 0.59 l 0.61,0.01 h 0.6 0.6 0.61 0.6 l 0.6,0.01 h 0.6 0.61 0.59 l 0.61,0.01 h 0.6 0.6 0.61 0.6 0.6 0.6 0.6 0.61 0.6 0.6 l 0.6,0.01 h 0.61 0.6 0.6 0.61 0.59 0.6 l 0.61,0.01 h 0.6 0.6 0.61 0.6 l 0.6,0.01 h 0.6 0.61 0.59 l 0.61,0.01 h 0.6 l 0.6,0.01 h 0.61 0.6 l 0.6,0.01 h 0.6 l 0.6,0.01 h 0.6 l 0.61,0.01 h 0.6 l 0.6,0.01 h 0.61 l 0.6,0.01 h 0.6 l 0.6,0.01 h 0.6 l 0.61,0.01 h 0.6 l 0.6,0.01 0.6,0.01 h 0.61 l 0.6,0.02 h 0.6 l 0.6,0.01 0.6,0.01 h 0.6 l 0.61,0.01 0.6,0.01 h 0.6 l 0.61,0.01 0.6,0.01 0.6,0.01 h 0.6 l 0.61,0.01 0.59,0.01 0.61,0.01 0.6,0.01 0.6,0.01 h 0.61 l 0.6,0.02 h 0.6 l 0.6,0.01 0.6,0.01 h 0.6 l 0.61,0.01 0.6,0.01 0.6,0.01 h 0.61 l 0.6,0.01 0.6,0.01 0.6,0.01 0.6,0.01 h 0.61 l 0.6,0.01 h 0.6 l 0.6,0.01 0.6,0.01 0.61,0.01 h 0.6 l 0.6,0.01 h 0.6 l 0.6,0.01 0.61,0.01 h 0.6 l 0.6,0.01 0.61,0.01 h 0.6 0.6 l 0.6,0.01 h 0.61 l 0.59,0.01 h 0.61 0.6 l 0.6,0.01 h 0.61 0.6 l 0.6,0.01 h 0.6 l 0.6,0.01 h 0.6 0.61 0.6 l 0.6,0.01 h 0.61 0.6 l 0.6,0.01 h 0.6 0.6 0.61 0.6 l 0.6,0.01 h 0.6 0.6 0.61 l 0.6,0.01 h 0.6 0.6 0.6 0.61 0.6 0.6 0.61 0.6 0.6 0.6 0.61 l 0.59,0.01 h 0.61 0.6 0.6 0.61 0.6 0.6 0.6 0.6 0.6 0.61 0.6 l 0.6,0.01 h 0.61 0.6 0.6 0.6 0.6 0.61 0.6 l 0.6,0.01 h 0.6 0.6 l 0.61,0.01 h 0.6 0.6 0.6 0.6 l 0.61,0.01 h 0.6 0.6 0.61 l 0.6,0.01 h 0.6 l 0.6,0.01 h 0.61 0.59 0.61 l 0.6,0.01 h 0.6 l 0.61,0.01 h 0.6 0.6 l 0.6,0.01 h 0.6 0.6 l 0.61,0.01 h 0.6 l 0.6,0.01 h 0.61 l 0.6,0.01 h 0.6 0.6 l 0.6,0.01 h 0.6 0.61 l 0.6,0.01 0.6,0.01 h 0.6 0.61 l 0.6,0.01 h 0.6 0.6 l 0.6,0.01 0.61,0.01 h 0.6 0.6 l 0.61,0.01 h 0.6 l 0.6,0.01 h 0.6 0.6 l 0.6,0.01 h 0.61 0.6 l 0.6,0.01 h 0.61 0.6 l 0.6,0.01 0.6,0.01 h 0.6 0.6 0.61 l 0.6,0.01 h 0.6 0.61 0.6 l 0.59,0.01 h 0.61 l 0.6,0.01 h 0.6 0.61 0.6 0.6 l 0.6,0.01 h 0.61 0.6 l 0.6,0.01 h 0.6 0.6 0.61 0.6 0.6 0.61 l 0.6,0.01 h 0.6 0.6 0.6 0.6 0.61 0.6 0.6 0.61 0.6 0.6 0.6 0.6 0.6 l 0.61,0.01 h 0.6 0.6 0.61 0.6 0.59 0.61 0.6 0.6 0.61 0.6 0.6 0.6 0.61 0.6 0.6 0.6 0.6 0.61 0.6 0.6 0.61 0.59 0.61 0.6 l 0.6,0.01 h 0.6 0.61 0.6 0.6 0.61 0.59 0.61 0.6 0.6 0.6 0.61 l 0.6,0.01 h 0.6 0.6 0.61 0.59 l 0.61,0.01 h 0.6 0.6 0.61 0.6 0.6 0.6 l 0.61,0.01 h 0.6 0.6 l 0.6,0.01 h 0.6 0.61 0.6 0.6 0.61 l 0.59,0.01 h 0.61 0.6 l 0.6,0.01 h 0.6 0.61 0.6 0.6 0.61 l 0.59,0.01 h 0.61 0.6 0.6 0.6 l 0.61,0.01 h 0.6 0.6 0.6 0.61 0.59 l 0.61,0.01 h 0.6 l 0.6,0.01 h 0.61 0.6 0.6 0.6 0.61 0.6 l 0.6,0.01 h 0.6 0.6 0.61 0.6 0.6 0.61 l 0.59,0.01 h 0.61 0.6 0.6 l 0.6,0.01 h 0.61 0.6 0.6 0.61 0.59 0.61 0.6 0.6 0.6 l 0.61,0.01 h 0.6 0.6 0.6 0.61 0.59 0.61 0.6 0.6 l 0.61,0.01 h 0.6 0.6 0.6 0.61 0.6 0.6 0.6 0.6 0.61 0.6 0.6 0.61 0.59 0.61 0.6 0.6 0.6 0.61 0.6 0.6 0.61 0.59 0.6 0.61 0.6 0.6 0.61 0.6 0.6 0.6 0.61 0.59 0.61 0.6 0.6 0.61 0.6 0.6 0.6 0.6 0.61 0.6 0.6 0.6 0.61 0.6 l 0.6,0.01 h 0.61 0.59 0.61 0.6 0.6 0.6 0.61 0.6 0.6 0.6 0.6 0.6 0.61 0.6 0.6 l 0.61,0.01 h 0.6 0.6 0.6 0.61 0.59 l 0.61,0.01 h 0.6 0.6 0.61 0.6 0.6 0.6 0.6 0.61 0.6 0.6 l 0.6,0.01 h 0.61 0.6 0.6 0.61 0.59 0.61 0.6 0.6 0.6 0.61 l 0.6,0.01 h 0.6 0.6 0.6 0.6 0.61 0.6 0.6 0.61 0.6 0.6 0.6 l 0.61,0.01 h 0.59 0.61 0.6 0.6 0.61 0.6 0.6 0.6 l 0.6,0.01 h 0.61 0.6 0.6 0.6 0.61 0.6 0.6 0.61 0.59 0.61 0.6 0.6 0.6 0.61 0.6 0.6 0.6 0.6 0.6 0.61 0.6 0.6 0.61 0.6 0.6 0.6 0.61 0.59 0.61 0.6 0.6 0.61 0.6 0.6 0.6 0.6 0.61 0.6 0.6 0.6 0.61 0.6 0.6 0.61 0.59 0.61 0.6 0.6 0.6 0.61 0.6 0.6 0.6 0.6 0.6 0.61 0.6 0.6 0.61 0.6 0.6 0.6 0.61 0.59 0.61 l 0.6,0.01 h 0.6 0.61 0.6 0.6 0.6 0.6 0.61 0.6 0.6 0.6 0.61 0.6 0.6 0.61 l 0.59,0.01 h 0.61 0.6 0.6"
           style="fill:none;stroke:#0072bd;stroke-width:20.0052;stroke-linecap:butt;stroke-linejoin:bevel;stroke-miterlimit:10;stroke-dasharray:18.0065, 18.0065;stroke-dashoffset:0;stroke-opacity:1"
           id="path20" />
      </g>
      <g
         id="g22"
         transform="scale(0.998725,-1.00127)">
        <path
           d="m 372.134,-288.117 h 0.599 0.606 0.602 0.599 0.606 0.602 0.599 0.606 0.599 0.602 0.606 0.599 0.602 0.606 0.598 0.603 0.606 0.598 0.603 0.606 0.598 0.603 0.606 0.598 0.599 0.606 0.602 0.599 0.606 0.602 0.599 0.606 0.602 0.599 0.606 0.602 0.599 0.606 0.602 0.599 0.606 0.598 0.603 0.606 0.598 0.603 0.606 0.598 0.603 0.606 0.598 0.603 0.606 0.598 0.603 0.606 0.598 0.603 0.602 0.602 0.599 0.606 0.602 0.599 0.606 0.602 0.599 0.606 0.602 0.599 0.606 0.602 0.599 0.606 0.602 0.599 0.606 0.598 0.603 0.606 0.598 0.603 0.606 0.598 0.603 0.606 0.598 0.603 0.606 0.598 0.603 0.606 0.598 0.599 0.606 0.602 0.599 0.606 0.602 0.599 0.606 0.602 0.599 0.606 0.602 0.599 0.606 0.602 0.599 0.606 0.598 0.603 0.606 0.598 0.603 0.606 0.598 0.603 0.606 0.598 0.603 0.606 0.598 0.603 0.606 0.598 0.599 0.606 0.602 0.599 0.606 0.602 0.599 0.606 0.602 0.599 0.606 0.602 0.599 0.606 0.602 0.599 0.606 0.598 0.603 0.606 0.598 0.603 0.606 0.598 0.603 0.606 0.598 0.603 0.606 0.598 0.603 0.606 0.598 0.603 0.606 0.598 0.599 0.606 0.602 0.599 0.606 0.602 0.599 0.606 0.602 0.599 0.606 0.602 0.599 0.606 0.602 0.599 0.606 0.598 0.603 0.606 0.598 0.603 0.606 0.598 0.603 0.606 0.598 0.603 0.606 0.598 0.603 0.606 0.598 0.599 0.606 0.602 0.599 0.606 0.602 0.599 0.606 0.602 0.599 0.606 0.602 0.599 0.606 0.602 0.599 0.606 0.598 0.603 0.606 0.598 0.603 0.606 0.598 0.603 0.606 0.598 0.603 0.606 0.598 0.603 0.606 0.598 0.599 0.606 0.602 0.599 0.606 0.602 0.599 0.606 0.602 0.599 0.606 0.602 0.599 0.606 0.602 0.599 0.606 0.602 0.599 0.606 0.598 0.603 0.606 0.598 0.603 0.606 0.598 0.603 0.606 0.598 0.603 0.606 0.598 0.603 0.606 0.598 0.599 0.606 0.602 0.599 0.606 0.602 0.599 0.606 0.602 0.599 0.606 0.602 0.599 0.606 0.602 0.599 0.606 0.598 0.603 0.606 0.598 0.603 0.606 0.598 0.603 0.606 0.598 0.603 0.606 0.598 0.603 0.606 0.598 0.599 0.606 0.602 0.599 0.606 0.602 0.599 0.606 0.602 0.599 0.606 0.602 0.599 0.606 0.602 0.599 0.606 0.602 0.599 0.606 0.598 0.603 0.606 0.598 0.603 0.606 0.598 0.603 0.606 0.598 0.603 0.606 0.598 0.603 0.606 0.598 0.599 0.606 0.602 0.599 0.606 0.602 0.599 0.606 0.602 0.599 0.606 0.602 0.599 0.606 0.602 0.599 0.606 0.598 0.603 0.606 0.598 0.603 0.606 0.598 0.603 0.606 0.598 0.603 0.606 0.598 0.603 0.606 0.598 0.599 0.606 0.602 0.599 0.606 0.602 0.599 0.606 0.602 0.599 0.606 0.602 0.599 0.606 0.602 0.599 0.606 0.598 0.603 0.606 0.598 0.603 0.606 0.598 0.603 0.606 0.598 0.603 0.606 0.598 0.603 0.606 0.598 0.603 0.602 0.602 0.599 0.606 0.602 0.599 0.606 0.602 0.599 0.606 0.602 0.599 0.606 0.602 0.599 0.606 0.602 0.599 0.606 0.598 0.603 0.606 0.598 0.603 0.606 0.598 0.603 0.606 0.598 0.603 0.606 0.598 0.603 0.606 0.598 0.599 0.606 0.602 0.599 0.606 0.602 0.599 0.606 0.602 0.599 0.606 0.602 0.599 0.606 0.602 0.599 0.606 0.598 0.603 0.606 0.598 0.603 0.606 0.598 0.603 0.606 0.598 0.603 0.606 0.598 0.603 0.606 0.598 0.599 0.606 0.602 0.599 0.606 0.602 0.599 0.606 0.602 0.599 0.606 0.602 0.599 0.606 0.602 0.599 0.606 0.598 0.603 0.606 0.598 0.603 0.606 0.598 0.603 0.606 0.598 0.603 0.606 0.598 0.603 0.606 0.598 0.603 0.606 0.598 0.599 0.606 0.602 0.599 0.606 0.602 0.599 0.606 0.602 0.599 0.606 0.602 0.599 0.606 0.602 0.599 0.606 0.598 0.603 0.606 0.598 0.603 0.606 0.598 0.603 0.606 0.598 0.603 0.606 0.598 0.603 0.606 0.598 0.599 0.606 0.602 0.599 0.606 0.602 0.599 0.606 0.602 0.599 0.606 0.602 0.599 0.606 0.602 0.599 0.606 0.598 0.603 0.606 0.598 0.603 0.606 0.598 0.603 0.606 0.598 0.603 0.606 0.598 0.603 0.606 0.598 0.599 0.606 0.602 0.599 0.606 0.602 0.599 0.606 0.602 0.599 0.606 0.602 0.599 0.606 0.602 0.599 0.606 0.602 0.599 0.606 0.598 0.603 0.606 0.598 0.603 0.606 0.598 0.603 0.606 0.598 0.602 0.607 0.598 0.602 0.607 0.598 0.599 0.606 0.602 0.599 0.606 0.602 0.599 0.606 0.602 0.599 0.606 0.602 0.599 0.606 0.602 0.599 0.606 0.598 0.603 0.606 0.598 0.602 0.607 0.598 0.602 0.607 0.598 0.602 0.607 0.598 0.602 0.607 0.598 0.599 0.606 0.602 0.599 0.606 0.602 0.599 0.606 0.602 0.599 0.606 0.602 0.599 0.606 0.602 0.598 0.607 0.598 0.602 0.607 0.598 0.602 0.607 0.598 0.602 0.607 0.598 0.602 0.607 0.598 0.602 0.607 0.598 0.602 0.607 0.598 0.599 0.606 0.602 0.599 0.606 0.602 0.599 0.606 0.602 0.598 0.607 0.602 0.598 0.607 0.602 0.598 0.607 0.598 0.602 0.607 0.598 0.602 0.607 0.598 0.602 0.607 0.598 0.602 0.607 0.598 0.602 0.607 0.598 0.599 0.606 0.602 0.598 0.607 0.602 0.598 0.607 0.602 0.598 0.607 0.602 0.598 0.607 0.602 0.598 0.607 0.598 0.602 0.607 0.598 0.602 0.607 0.598 0.602 0.607 0.598 0.602 0.607 0.598 0.602 0.607 0.598 0.598 0.607 0.602 0.598 0.607 0.602 0.598 0.607 0.602 0.598 0.607 0.602 0.598 0.607 0.602 0.598 0.607 0.602 0.598 0.607 0.598 0.602 0.607 0.598 0.602 0.607 0.598 0.602 0.607 0.598 0.602 0.607 0.598 0.602 0.607 0.598 0.598 0.607 0.602 0.598 0.607 0.602 0.598 0.607 0.602 0.598 0.607 0.602 0.598 0.607 0.602 0.598 0.607 0.598 0.602 0.607 0.598 0.602 0.607 0.598 0.602 0.607 0.598 0.602 0.607 0.598 0.602 0.607 0.598 0.598 0.607 0.602 0.598 0.607 0.602 0.598 0.607 0.602 0.598 0.607 0.602 0.598 0.607 0.602 0.598 0.607 0.598 0.602 0.607 0.598 0.602 0.607 0.598 0.602 0.607 0.598 0.602 0.607 0.598 0.602 0.607 0.598 0.602 0.603 0.602 0.598 0.607 0.602 0.598 0.607 0.602 0.598 0.607 0.602 0.598 0.607 0.602 0.598 0.607 0.602 0.598 0.607 0.598 0.602 0.607 0.598 0.602 0.607 0.598 0.602 0.607 0.598 0.602 0.607 0.598 0.602 0.607 0.598 0.598 0.607 0.602 0.598 0.607 0.602 0.598 0.607 0.602 0.598 0.607 0.602 0.598 0.607 0.602 0.598 0.607 0.598 0.602 0.607 0.598 0.602 0.607 0.598 0.602 0.607 0.598 0.602 0.607 0.598 0.602 0.607 0.598 0.598 0.607 0.602 0.598 0.607 0.602 0.598 0.607 0.602 0.598 0.607 0.602 0.598 0.607 0.602 0.598 0.607 0.598 0.602 0.607 0.598 0.602 0.607 0.598 0.602 0.607 0.598 0.602 0.607 0.598 0.602 0.607 0.598 0.602 0.607 0.598 0.598 0.607 0.602 0.598 0.607 0.602 0.598 0.607 0.602 0.598 0.607 0.602 0.598 0.607 0.602 0.598 0.607 0.598 0.602 0.607 0.598 0.602 0.607 0.598 0.602 0.607 0.598 0.602 0.607 0.598 0.602 0.607 0.598 0.598 0.607 0.602 0.598 0.607 0.602 0.598 0.607 0.602 0.598 0.607 0.602 0.598 0.607 0.602 0.598 0.607 0.598 0.602 0.607 0.598 0.602 0.607 0.598 0.602 0.607 0.598 0.602 0.607 0.598 0.602 0.607 0.598 0.598 0.607 0.602 0.598 0.607 0.602 0.598 0.607 l 0.602,-0.008 0.598,-0.004 0.607,-0.008 0.602,-0.004 0.598,-0.007 0.607,-0.012 0.602,-0.004 0.598,-0.012 0.607,-0.011 0.602,-0.02 0.598,-0.012 0.607,-0.019 0.598,-0.016 0.602,-0.019 0.607,-0.02 0.598,-0.023 0.602,-0.024 0.607,-0.023 0.598,-0.023 0.602,-0.039 0.609,-0.039 0.6,-0.051 0.6,-0.051 0.6,-0.054 0.6,-0.075 0.61,-0.07 0.6,-0.078 0.6,-0.086 0.6,-0.089 0.6,-0.102 0.61,-0.101 0.6,-0.113 0.6,-0.121 0.6,-0.121 0.6,-0.133 0.61,-0.136 0.6,-0.145 0.6,-0.152 0.61,-0.156 0.6,-0.168 0.6,-0.179 0.6,-0.191 0.6,-0.199 0.6,-0.215 0.61,-0.222 0.6,-0.23 0.6,-0.246 0.61,-0.25 0.59,-0.265 0.61,-0.277 0.6,-0.281 0.6,-0.293 0.6,-0.308 0.61,-0.316 0.6,-0.331 0.6,-0.336 0.61,-0.347 0.6,-0.363 0.6,-0.367 0.6,-0.382 0.6,-0.398 0.6,-0.402 0.61,-0.417 0.6,-0.429 0.6,-0.437 0.6,-0.457 0.61,-0.46 0.6,-0.476 0.6,-0.492 0.6,-0.499 0.6,-0.507 0.61,-0.523 0.6,-0.534 0.6,-0.547 0.61,-0.557 0.6,-0.57 0.6,-0.585 0.6,-0.593 0.6,-0.605 0.6,-0.612 0.61,-0.625 0.6,-0.632 0.6,-0.643 0.61,-0.652 0.59,-0.659 0.61,-0.675 0.6,-0.679 0.6,-0.69 0.6,-0.703 0.61,-0.706 0.6,-0.722 0.6,-0.725 0.61,-0.738 0.6,-0.745 0.6,-0.76 0.6,-0.765 0.6,-0.773 0.6,-0.788 0.61,-0.795 0.6,-0.8 0.6,-0.804 0.6,-0.811 0.61,-0.824 0.6,-0.819 0.6,-0.831 0.6,-0.839 0.6,-0.838 0.61,-0.855 0.6,-0.85 0.6,-0.866 0.61,-0.87 0.6,-0.87 0.6,-0.882 0.6,-0.889 0.6,-0.89 0.6,-0.897 0.61,-0.909 0.6,-0.913 0.6,-0.917 0.61,-0.917 0.59,-0.932 0.61,-0.929 0.6,-0.932 0.6,-0.94 0.6,-0.944 0.61,-0.948 0.6,-0.956 0.6,-0.96 0.61,-0.96 0.6,-0.971 0.59,-0.971 0.61,-0.976 0.6,-0.983 0.6,-0.983 0.61,-0.991 0.6,-0.995 0.6,-0.998 0.6,-1.003 0.61,-1.014 0.6,-1.015 0.6,-1.018 0.6,-1.026 0.6,-1.034 0.61,-1.038 0.6,-1.045 0.6,-1.05 0.61,-1.057 0.59,-1.061 0.61,-1.069 0.6,-1.077 0.6,-1.076 0.6,-1.081 0.61,-1.092 0.6,-1.101 0.6,-1.104 0.61,-1.104 0.59,-1.115 0.61,-1.124 0.6,-1.128 0.6,-1.135 0.6,-1.147 0.61,-1.151 0.6,-1.166 0.6,-1.171 0.6,-1.182 0.61,-1.186 0.59,-1.201 0.61,-1.206 0.6,-1.221 0.6,-1.225 0.61,-1.233 0.6,-1.244 0.6,-1.248 0.6,-1.268 0.61,-1.264 0.6,-1.28 0.6,-1.284 0.6,-1.295 0.6,-1.311 0.61,-1.314 0.6,-1.331 0.6,-1.338 0.61,-1.354 0.59,-1.361 0.61,-1.373 0.6,-1.381 0.6,-1.397 0.6,-1.408 0.61,-1.417 0.6,-1.427 0.6,-1.44 0.61,-1.447 0.59,-1.463 0.61,-1.471 0.6,-1.49 0.6,-1.495 0.6,-1.506 0.61,-1.517 0.6,-1.526 0.6,-1.541 0.6,-1.548 0.61,-1.561 0.59,-1.572 0.61,-1.588 0.6,-1.588 0.6,-1.611 0.61,-1.611 0.6,-1.627 0.6,-1.639 0.6,-1.65 0.61,-1.658 0.6,-1.67 0.6,-1.685 0.6,-1.693 0.6,-1.697 0.61,-1.717 0.6,-1.728 0.6,-1.736 0.61,-1.748 0.59,-1.751 0.61,-1.764 0.6,-1.771 0.6,-1.783 0.6,-1.791 0.61,-1.794 0.6,-1.806 0.6,-1.818 0.61,-1.826 0.59,-1.83 0.61,-1.841 0.6,-1.85 0.6,-1.853 0.6,-1.868 0.61,-1.877 0.6,-1.888 0.6,-1.888 0.6,-1.904 0.61,-1.908 0.59,-1.919 0.61,-1.924 0.6,-1.931 0.6,-1.935 0.61,-1.943 0.6,-1.946 0.6,-1.955 0.6,-1.962 0.61,-1.963 0.6,-1.974 0.6,-1.982 0.6,-1.981 0.6,-1.994 0.61,-1.997 0.6,-1.998 0.6,-2.013 0.61,-2.017 0.59,-2.021 0.61,-2.028 0.6,-2.037 0.6,-2.032 0.6,-2.049 0.61,-2.052 0.6,-2.052 0.6,-2.063 0.61,-2.068 0.59,-2.072 0.61,-2.075 0.6,-2.084 0.6,-2.087 0.6,-2.095 0.61,-2.102 0.6,-2.099 0.6,-2.115 0.6,-2.11 0.61,-2.127 0.59,-2.122 0.61,-2.134 0.6,-2.134 0.6,-2.142 0.61,-2.149 0.6,-2.158 0.6,-2.157 0.6,-2.169 0.61,-2.173 0.6,-2.185 0.6,-2.189 0.6,-2.192 0.6,-2.204 0.61,-2.208 0.6,-2.22 0.6,-2.22 0.61,-2.228 0.59,-2.239 0.61,-2.243 0.6,-2.251 0.6,-2.251 0.6,-2.271 0.61,-2.267 0.6,-2.274 0.6,-2.29 0.61,-2.29 0.59,-2.306 0.6,-2.309 0.61,-2.325 0.6,-2.33 0.6,-2.34 0.61,-2.345 0.6,-2.36 0.6,-2.364 0.6,-2.376 0.61,-2.384 0.59,-2.395 0.61,-2.4 0.6,-2.415 0.6,-2.422 0.61,-2.427 0.6,-2.442 0.6,-2.45 0.6,-2.454 0.6,-2.466 0.61,-2.481 0.6,-2.485 0.6,-2.501 0.6,-2.504 0.61,-2.52 0.6,-2.528 0.6,-2.544 0.61,-2.544 0.59,-2.563 0.61,-2.571 0.6,-2.579 0.6,-2.594 0.6,-2.598 0.61,-2.61 0.6,-2.626 0.6,-2.633 0.61,-2.641 0.59,-2.653 0.6,-2.665 0.61,-2.672 0.6,-2.684 0.6,-2.692 0.61,-2.704 0.6,-2.711 0.6,-2.727 0.6,-2.731 0.61,-2.742 0.59,-2.747 0.61,-2.762 0.6,-2.766 0.6,-2.786 0.61,-2.785 0.6,-2.805 0.6,-2.809 0.6,-2.813 0.6,-2.832 0.61,-2.836 0.6,-2.848 0.6,-2.86 0.6,-2.864 0.61,-2.871 0.6,-2.883 0.6,-2.895 0.61,-2.89 0.59,-2.907 0.61,-2.91 0.6,-2.922 0.6,-2.93 0.6,-2.934 0.61,-2.942 0.6,-2.953 0.6,-2.961 0.6,-2.965 0.6,-2.969 0.6,-2.984 0.61,-2.989 0.6,-3 0.6,-3 0.61,-3.015 0.6,-3.02 0.6,-3.023 0.6,-3.032 0.61,-3.039 0.59,-3.043 0.61,-3.047 0.6,-3.054 0.6,-3.067 0.61,-3.07 0.6,-3.07 0.6,-3.082 0.6,-3.083 0.6,-3.093 0.61,-3.098 0.6,-3.101 0.6,-3.114 0.6,-3.117 0.61,-3.121 0.6,-3.129 0.6,-3.132 0.61,-3.137 0.59,-3.144 0.61,-3.16 0.6,-3.156 0.6,-3.164 0.6,-3.168 0.61,-3.176 0.6,-3.179 0.6,-3.188 0.6,-3.195 0.6,-3.199 0.6,-3.203 0.61,-3.211 0.6,-3.218 0.6,-3.223 0.61,-3.23 0.6,-3.234 0.6,-3.242 0.6,-3.246 0.61,-3.254 0.59,-3.261 0.61,-3.265 0.6,-3.278 0.6,-3.277 0.61,-3.288 0.6,-3.293 0.6,-3.308 0.6,-3.309 0.6,-3.32 0.61,-3.323 0.6,-3.332 0.6,-3.332 0.6,-3.35 0.61,-3.36 0.6,-3.36 0.6,-3.37 0.61,-3.38 0.59,-3.38 0.61,-3.39 0.6,-3.39 0.6,-3.41 0.6,-3.42 0.61,-3.42 0.6,-3.43 0.6,-3.45 0.6,-3.44 0.6,-3.47 0.6,-3.47 0.61,-3.47 0.6,-3.49 0.6,-3.49 0.61,-3.51 0.6,-3.51 0.6,-3.53 0.6,-3.53 0.61,-3.54 0.59,-3.54 0.61,-3.57 0.6,-3.56 0.6,-3.58 0.61,-3.58 0.6,-3.59 0.6,-3.61 0.6,-3.62 0.6,-3.62 0.61,-3.63 0.6,-3.65 0.6,-3.65 0.6,-3.66 0.61,-3.67 0.6,-3.68 0.6,-3.69 0.61,-3.7 0.59,-3.66 0.6,-3.62 0.61,-3.58 0.6,-3.54 0.6,-3.51 0.61,-3.46 0.6,-3.43 0.6,-3.38 0.6,-3.36 0.6,-3.31 0.6,-3.27 0.61,-3.24 0.6,-3.2 0.6,-3.17 0.61,-3.12 0.6,-3.1 0.6,-3.05 0.6,-3.02 0.6,-2.99 0.6,-2.95 0.61,-2.92 0.6,-2.88 0.6,-2.85 0.61,-2.81 0.6,-2.79 0.6,-2.75 0.6,-2.72 0.6,-2.69 0.6,-2.66 0.61,-2.62 0.6,-2.59 0.6,-2.57 0.61,-2.53 0.6,-2.51 0.6,-2.48 0.6,-2.45 0.6,-2.42 0.6,-2.39 0.61,-2.36 0.6,-2.34 0.6,-2.31 0.61,-2.28 0.6,-2.26 0.6,-2.22 0.6,-2.21 0.6,-2.17 0.6,-2.15 0.61,-2.13 0.6,-2.12 0.6,-2.11 0.61,-2.1 0.6,-2.08 0.6,-2.08 0.6,-2.07 0.6,-2.06 0.6,-2.04 0.61,-2.04 0.6,-2.03 0.6,-2.01 0.61,-2.01 0.6,-1.99 0.6,-1.99 0.6,-1.97 0.6,-1.96 0.6,-1.96 0.61,-1.94 0.6,-1.94 0.6,-1.92 0.61,-1.93 0.6,-1.92 0.6,-1.92 0.6,-1.92 0.6,-1.92 0.6,-1.91 0.61,-1.9 0.6,-1.91 0.6,-1.9 0.61,-1.91 0.6,-1.89 0.6,-1.9 0.6,-1.89 0.6,-1.88 0.6,-1.89 0.61,-1.88 0.6,-1.87 0.6,-1.88 0.61,-1.87 0.59,-1.86 0.61,-1.85 0.6,-1.84 0.6,-1.83 0.6,-1.82 0.61,-1.79 0.6,-1.8 0.6,-1.78 0.61,-1.77 0.6,-1.76 0.6,-1.75 0.6,-1.73 0.6,-1.73 0.6,-1.71 0.61,-1.71 0.6,-1.69 0.6,-1.68 0.6,-1.67 0.61,-1.66 0.6,-1.65 0.6,-1.63 0.6,-1.6 0.6,-1.57 0.61,-1.55 0.6,-1.52 0.6,-1.49 0.61,-1.47 0.6,-1.44 0.6,-1.42 0.6,-1.38 0.6,-1.37 0.6,-1.33 0.61,-1.32 0.6,-1.29 0.6,-1.26 0.61,-1.24 0.59,-1.21 0.61,-1.2 0.6,-1.17 0.6,-1.15 0.6,-1.11 0.61,-1.08 0.6,-1.05 0.6,-1.01 0.61,-0.98 0.6,-0.95 0.6,-0.9 0.6,-0.89 0.6,-0.83 0.6,-0.82 0.61,-0.78 0.6,-0.75 0.6,-0.72 0.6,-0.7 0.61,-0.65 0.59,-0.63 0.61,-0.6 0.6,-0.57 0.6,-0.54 0.61,-0.52 0.6,-0.48 0.6,-0.45 0.61,-0.43 0.6,-0.4 0.6,-0.38 0.6,-0.35 0.6,-0.33 0.6,-0.3 0.61,-0.27 0.6,-0.24 0.6,-0.23 0.61,-0.2 0.59,-0.17 0.61,-0.15 0.6,-0.13 0.6,-0.11 0.6,-0.07 0.61,-0.07 0.6,-0.04 0.6,-0.01 h 0.61 l 0.6,0.01 0.6,0.02 0.6,0.04 0.6,0.03 0.6,0.06 0.61,0.05 0.6,0.07 0.6,0.07 0.6,0.09 0.61,0.09 0.59,0.11 0.61,0.11 0.6,0.12 0.6,0.13 0.61,0.13 0.6,0.15 0.6,0.15 0.61,0.16 0.6,0.17 0.6,0.17 0.6,0.17 0.6,0.17 0.6,0.18 0.61,0.16 0.6,0.17 0.6,0.17 0.61,0.17 0.59,0.16 0.61,0.17 0.6,0.17 0.6,0.17 0.6,0.17 0.61,0.17 0.6,0.16 0.6,0.16 0.61,0.17 0.6,0.17 0.59,0.16 0.61,0.16 0.6,0.17 0.6,0.16 0.61,0.16 0.6,0.16 0.6,0.15 0.6,0.16 0.61,0.16 0.59,0.14 0.61,0.16 0.6,0.14 0.6,0.16 0.61,0.14 0.6,0.15 0.6,0.14 0.61,0.14 0.59,0.14 0.61,0.14 0.6,0.14 0.6,0.13 0.6,0.14 0.61,0.13 0.6,0.15 0.6,0.14 0.61,0.15 0.59,0.16 0.61,0.16 0.6,0.16 0.6,0.16 0.6,0.18 0.61,0.17 0.6,0.18 0.6,0.19 0.61,0.19 0.6,0.19 0.59,0.19 0.61,0.2 0.6,0.2 0.6,0.21 0.61,0.21 0.6,0.21 0.6,0.22 0.6,0.23 0.61,0.24 0.59,0.26 0.61,0.25 0.6,0.27 0.6,0.28 0.61,0.29 0.6,0.3 0.6,0.3 0.61,0.31 0.59,0.33 0.61,0.33 0.6,0.34 0.6,0.35 0.6,0.36 0.61,0.37 0.6,0.37 0.6,0.38 0.61,0.39 0.59,0.39 0.61,0.41 0.6,0.41 0.6,0.43 0.6,0.43 0.61,0.44 0.6,0.45 0.6,0.46 0.6,0.46 0.61,0.48 0.59,0.48 0.61,0.49 0.6,0.5 0.6,0.5 0.61,0.52 0.6,0.51 0.6,0.53 0.6,0.53 0.61,0.54 0.59,0.55 0.61,0.55 0.6,0.56 0.6,0.55 0.61,0.56 0.6,0.57 0.6,0.56 0.61,0.56 0.59,0.57 0.61,0.57 0.6,0.57 0.6,0.57 0.6,0.58 0.61,0.57 0.6,0.58 0.6,0.58 0.61,0.58 0.59,0.58 0.61,0.59 0.6,0.58 0.6,0.59 0.6,0.58 0.61,0.59 0.6,0.57 0.6,0.57 0.6,0.57 0.61,0.56 0.59,0.56 0.61,0.56 0.6,0.54 0.6,0.55 0.61,0.54 0.6,0.54 0.6,0.53 0.6,0.53 0.61,0.52 0.59,0.52 0.61,0.52 0.6,0.51 0.6,0.51 0.61,0.5 0.6,0.5 0.6,0.49 0.61,0.49 0.59,0.48 0.61,0.47 0.6,0.46 0.6,0.46 0.6,0.46 0.61,0.44 0.6,0.44 0.6,0.44 0.61,0.42 0.59,0.43 0.61,0.41 0.6,0.41 0.6,0.4 0.6,0.41 0.61,0.39 0.6,0.38 0.6,0.38 0.6,0.38 0.61,0.37 0.59,0.37 0.61,0.37 0.6,0.36 0.6,0.36 0.61,0.35 0.6,0.35 0.6,0.35 0.6,0.35 0.61,0.33 0.59,0.34 0.61,0.34 0.6,0.32 0.6,0.33 0.61,0.32 0.6,0.32 0.6,0.32 0.61,0.31 0.59,0.31 0.61,0.31 0.6,0.31 0.6,0.31 0.6,0.32 0.61,0.31 0.6,0.31 0.6,0.31 0.61,0.31 0.59,0.32 0.6,0.31 0.61,0.31 0.6,0.32 0.6,0.32 0.61,0.31 0.6,0.31 0.6,0.32 0.6,0.32 0.61,0.32 0.59,0.31 0.61,0.32 0.6,0.32 0.6,0.32 0.61,0.32 0.6,0.33 0.6,0.33 0.6,0.33 0.6,0.33 0.6,0.33 0.61,0.34 0.6,0.34 0.6,0.34 0.61,0.34 0.6,0.35 0.6,0.34 0.61,0.35 0.59,0.35 0.61,0.35 0.6,0.35 0.6,0.36 0.6,0.35 0.61,0.36 0.6,0.36 0.6,0.35 0.61,0.37 0.59,0.35 0.6,0.36 0.61,0.36 0.6,0.36 0.6,0.36 0.61,0.36 0.6,0.36 0.6,0.35 0.6,0.37 0.61,0.36 0.59,0.35 0.61,0.36 0.6,0.37 0.6,0.36 0.61,0.35 0.6,0.37 0.6,0.36 0.6,0.35 0.6,0.36 0.6,0.34 0.61,0.35 0.6,0.34 0.6,0.34 0.61,0.34 0.6,0.33 0.6,0.33 0.61,0.33 0.59,0.32 0.61,0.33 0.6,0.32 0.6,0.32 0.6,0.31 0.61,0.31 0.6,0.31 0.6,0.3 0.6,0.3 0.6,0.3 0.6,0.3 0.61,0.29 0.6,0.28 0.6,0.28 0.61,0.27 0.6,0.27 0.6,0.27 0.6,0.26 0.61,0.25 0.59,0.25 0.61,0.25 0.6,0.25 0.6,0.23 0.61,0.23 0.6,0.23 0.6,0.23 0.6,0.22 0.6,0.22 0.6,0.21 0.61,0.2 0.6,0.21 0.6,0.2 0.61,0.2 0.6,0.19 0.6,0.19 0.6,0.18 0.6,0.19 0.61,0.18 0.6,0.17 0.6,0.17 0.6,0.17 0.61,0.17 0.6,0.16 0.6,0.15 0.6,0.16 0.6,0.15 0.6,0.15 0.61,0.14 0.6,0.14 0.6,0.14 0.61,0.14 0.6,0.14 0.6,0.13 0.6,0.14 0.61,0.13 0.59,0.14 0.61,0.13 0.6,0.12 0.6,0.14 0.61,0.12 0.6,0.13 0.6,0.13 0.6,0.12 0.6,0.13 0.6,0.12 0.61,0.12 0.6,0.12 0.6,0.12 0.61,0.12 0.6,0.12 0.6,0.12 0.6,0.12 0.6,0.12 0.61,0.13 0.6,0.12 0.6,0.12 0.6,0.13 0.61,0.13 0.6,0.12 0.6,0.13 0.6,0.12 0.6,0.14 0.6,0.12 0.61,0.14 0.6,0.12 0.6,0.13 0.61,0.14 0.6,0.13 0.6,0.13 0.6,0.13 0.61,0.13 0.59,0.14 0.61,0.13 0.6,0.14 0.6,0.14 0.61,0.14 0.6,0.13 0.6,0.14 0.6,0.14 0.6,0.14 0.6,0.14 0.61,0.14 0.6,0.14 0.6,0.14 0.61,0.14 0.6,0.15 0.6,0.14 0.6,0.14 0.6,0.15 0.6,0.13 0.61,0.15 0.6,0.14 0.6,0.14 0.61,0.15 0.6,0.13 0.6,0.14 0.6,0.14 0.6,0.13 0.6,0.14 0.61,0.13 0.6,0.14 0.6,0.13 0.61,0.13 0.6,0.13 0.6,0.13 0.6,0.13 0.6,0.13 0.6,0.13 0.61,0.12 0.6,0.13 0.6,0.12 0.61,0.12 0.6,0.12 0.6,0.11 0.6,0.12 0.6,0.11 0.6,0.11 0.61,0.11 0.6,0.1 0.6,0.1 0.61,0.1 0.6,0.1 0.6,0.09 0.6,0.1 0.6,0.1 0.6,0.09 0.61,0.08 0.6,0.09 0.6,0.09 0.6,0.08 0.61,0.08 0.6,0.08 0.6,0.07 0.6,0.08 0.6,0.07 0.61,0.06 0.6,0.07 0.6,0.07 0.61,0.06 0.6,0.06 0.6,0.06 0.6,0.05 0.6,0.06 0.6,0.05 0.61,0.06 0.6,0.05 0.6,0.05 0.61,0.03 0.6,0.06 0.6,0.03 0.6,0.05 0.6,0.03 0.6,0.05 0.61,0.03 0.6,0.04 0.6,0.04 0.61,0.04 0.6,0.03 0.59,0.03 0.61,0.04 0.6,0.03 0.6,0.03 0.61,0.03 0.6,0.03 0.6,0.03 0.6,0.03 0.61,0.03 0.6,0.02 0.6,0.03 0.6,0.03 0.6,0.02 0.61,0.03 0.6,0.03 0.6,0.02 0.61,0.03 0.59,0.03 0.61,0.03 0.6,0.03 0.6,0.03 0.6,0.03 0.61,0.03 0.6,0.03 0.6,0.03 0.61,0.03 0.6,0.03 0.6,0.04 0.6,0.03 0.6,0.03 0.6,0.04 0.61,0.03 0.6,0.03 0.6,0.04 0.6,0.03 0.61,0.04 0.59,0.04 0.61,0.04 0.6,0.04 0.6,0.04 0.61,0.04 0.6,0.04 0.6,0.04 0.6,0.05 0.61,0.04 0.6,0.05 0.6,0.04 0.6,0.05 0.6,0.04 0.61,0.05 0.6,0.04 0.6,0.05 0.61,0.05 0.59,0.05 0.61,0.04 0.6,0.05 0.6,0.05 0.6,0.05 0.61,0.05 0.6,0.05 0.6,0.05 0.61,0.05 0.6,0.04 0.6,0.05 0.6,0.06 0.6,0.05 0.6,0.04 0.61,0.05 0.6,0.05 0.6,0.06 0.6,0.04 0.61,0.06 0.59,0.04 0.61,0.05 0.6,0.05 0.6,0.04 0.61,0.05 0.6,0.04 0.6,0.05 0.6,0.04 0.61,0.04 0.6,0.05 0.6,0.04 0.6,0.04 0.6,0.04 0.61,0.04 0.6,0.03 0.6,0.05 0.61,0.03 0.59,0.04 0.61,0.03 0.6,0.04 0.6,0.03 0.6,0.03 0.61,0.04 0.6,0.03 0.6,0.03 0.61,0.02 0.6,0.03 0.6,0.03 0.6,0.02 0.6,0.03 0.6,0.02 0.61,0.02 0.6,0.02 0.6,0.02 0.6,0.02 0.61,0.02 0.59,0.02 0.61,0.01 0.6,0.02 0.6,0.01 0.61,0.02 0.6,0.01 0.6,0.02 0.6,0.01 0.61,0.01 0.6,0.01 0.6,0.01 0.6,0.01 0.6,0.01 0.61,0.01 0.6,0.01 0.6,0.01 h 0.61 l 0.59,0.01 0.61,0.01 h 0.6 l 0.6,0.01 h 0.6 0.61 l 0.6,0.01 h 0.6 0.61 l 0.6,0.01 h 0.59 0.61 l 0.6,0.01 0.6,0.01 h 0.61 0.6 l 0.6,0.01 0.6,0.01 h 0.61 l 0.59,0.01 0.61,0.01 h 0.6 l 0.6,0.01 h 0.61 l 0.6,0.01 h 0.6 l 0.6,0.01 h 0.61 l 0.6,0.01 0.6,0.01 0.6,0.01 0.6,0.01 0.61,0.01 0.6,0.01 0.6,0.01 0.61,0.01 0.59,0.02 0.61,0.01 0.6,0.01 0.6,0.01 0.6,0.02 0.61,0.01 0.6,0.02 0.6,0.01 0.61,0.02 0.6,0.02 0.59,0.01 0.61,0.02 0.6,0.02 0.6,0.01 0.61,0.02 0.6,0.02 0.6,0.02 0.6,0.02 0.61,0.02 0.59,0.02 0.61,0.02 0.6,0.02 0.6,0.02 0.61,0.02 0.6,0.03 0.6,0.02 0.6,0.02 0.6,0.02 0.61,0.02 0.6,0.02 0.6,0.03 0.6,0.02 0.61,0.03 0.6,0.01 0.6,0.03 0.61,0.02 0.59,0.02 0.61,0.02 0.6,0.03 0.6,0.02 0.6,0.02 0.61,0.02 0.6,0.02 0.6,0.02 0.6,0.03 0.61,0.01 0.59,0.03 0.61,0.01 0.6,0.02 0.6,0.03 0.61,0.01 0.6,0.02 0.6,0.02 0.6,0.02 0.61,0.02 0.59,0.01 0.61,0.02 0.6,0.02 0.6,0.01 0.61,0.02 0.6,0.01 0.6,0.02 0.6,0.01 0.6,0.01 0.61,0.02 0.6,0.01 0.6,0.01 0.6,0.01 0.61,0.02 0.6,0.01 h 0.6 l 0.61,0.01 0.59,0.02 h 0.61 l 0.6,0.02 h 0.6 l 0.6,0.01 h 0.61 l 0.6,0.01 0.6,0.01 0.6,0.01 h 0.61 0.59 l 0.61,0.01 h 0.6 l 0.6,0.01 h 0.61 l 0.6,0.01 h 0.6 0.6 0.61 0.59 l 0.61,0.01 h 0.6 0.6 0.61 0.6 l 0.6,0.01 h 0.6 0.6 l 0.61,0.01 h 0.6 0.6 0.6 0.61 0.6 l 0.6,0.01 h 0.61 0.59 0.61 l 0.6,0.01 h 0.6 0.6 0.61 0.6 l 0.6,0.01 h 0.6 0.61 l 0.59,0.01 h 0.61 0.6 l 0.6,0.01 0.61,0.01 h 0.6 l 0.6,0.01 h 0.6 l 0.61,0.01 0.59,0.01 h 0.61 l 0.6,0.01 0.6,0.01 h 0.61 l 0.6,0.01 0.6,0.01 h 0.6 l 0.6,0.01 0.61,0.01 0.6,0.01 0.6,0.01 0.6,0.01 0.61,0.01 0.6,0.01 0.6,0.01 0.61,0.01 0.59,0.01 0.61,0.01 0.6,0.01 0.6,0.01 0.6,0.01 0.61,0.02 0.6,0.01 0.6,0.01 0.6,0.01 0.61,0.01 0.59,0.01 0.61,0.02 0.6,0.01 0.6,0.01 0.61,0.01 0.6,0.02 0.6,0.01 0.6,0.01 0.61,0.02 0.59,0.01 0.61,0.01 0.6,0.01 0.6,0.02 0.61,0.01 0.6,0.01 0.6,0.01 0.6,0.01 0.6,0.01 0.61,0.02 0.6,0.01 0.6,0.01 0.6,0.01 0.61,0.02 0.6,0.01 h 0.6 l 0.61,0.01 0.59,0.02 0.6,0.01 0.61,0.01 0.6,0.01 h 0.6 l 0.61,0.02 h 0.6 l 0.6,0.01 0.6,0.01 0.61,0.01 0.59,0.01 h 0.61 l 0.6,0.02 h 0.6 l 0.61,0.01 h 0.6 l 0.6,0.01 0.6,0.01 h 0.6 l 0.6,0.01 h 0.61 l 0.6,0.01 h 0.6 l 0.61,0.01 h 0.6 l 0.6,0.01 h 0.6 0.6 l 0.61,0.01 h 0.6 0.6 l 0.6,0.01 h 0.61 l 0.6,0.01 h 0.6 0.6 0.6 0.6 l 0.61,0.01 h 0.6 0.6 l 0.61,0.01 h 0.6 0.6 0.6 0.61 0.59 0.61 0.6 l 0.6,0.01 h 0.61 0.6 0.6 0.6 0.6 0.6 0.61 0.6 l 0.6,0.01 h 0.61 0.6 0.6 0.6 l 0.6,0.01 h 0.61 0.6 l 0.6,0.01 h 0.6 0.6 0.61 l 0.6,0.01 h 0.6 0.6 0.6 l 0.61,0.01 h 0.6 l 0.6,0.01 h 0.61 0.6 l 0.6,0.01 0.6,0.01 h 0.61 l 0.59,0.01 h 0.61 0.6 l 0.6,0.01 0.61,0.01 h 0.6 l 0.6,0.01 h 0.6 l 0.6,0.01 h 0.6 l 0.61,0.01 0.6,0.01 h 0.6 l 0.61,0.01 0.6,0.01 h 0.6 l 0.6,0.01 h 0.6 l 0.61,0.02 h 0.6 l 0.6,0.01 h 0.6 l 0.6,0.01 h 0.61 l 0.6,0.01 0.6,0.01 0.6,0.01 0.6,0.01 h 0.61 l 0.6,0.01 0.6,0.01 0.61,0.01 h 0.6 l 0.6,0.01 h 0.6 l 0.61,0.01 0.59,0.01 0.61,0.01 h 0.6 l 0.6,0.01 h 0.61 l 0.6,0.01 0.6,0.01 h 0.6 l 0.6,0.01 0.6,0.01 h 0.61 l 0.6,0.01 h 0.6 l 0.61,0.01 h 0.6 l 0.6,0.01 h 0.6 l 0.6,0.01 h 0.61 l 0.6,0.01 h 0.6 0.6 l 0.6,0.01 0.61,0.01 h 0.6 0.6 0.6 l 0.6,0.01 0.61,0.01 h 0.6 0.6 0.61 l 0.6,0.01 h 0.6 0.6 0.61 0.59 l 0.61,0.01 h 0.6 0.6 l 0.61,0.01 h 0.6 0.6 0.6 0.6 0.6 0.61 0.6 l 0.6,0.01 h 0.61 0.6 0.6 0.6 0.6 0.6 0.61 0.6 0.6 0.6 0.61 0.6 l 0.6,0.01 h 0.6 0.6 0.61 0.6 0.6 0.61 0.6 0.6 0.6 0.6 0.6 l 0.61,0.01 h 0.6 0.6 0.61 0.6 l 0.6,0.01 h 0.6 0.6 0.6 0.61 0.6 l 0.6,0.01 h 0.61 0.6 l 0.59,0.01 h 0.61 0.6 0.6 0.61 l 0.6,0.01 h 0.6 l 0.6,0.01 h 0.61 0.6 0.6 l 0.6,0.01 h 0.6 0.61 0.6 l 0.6,0.01 h 0.61 0.6 0.6 l 0.6,0.01 h 0.6 0.6 l 0.61,0.01 h 0.6 l 0.6,0.01 h 0.61 0.6 l 0.6,0.01 0.6,0.01 h 0.6 0.6 0.61 l 0.6,0.01 h 0.6 0.61 l 0.6,0.01 h 0.59 l 0.61,0.01 h 0.6 0.6 l 0.61,0.01 h 0.6 0.6 l 0.6,0.01 h 0.61 0.6 0.6 l 0.6,0.01 0.6,0.01 h 0.61 0.6 0.6 l 0.61,0.01 h 0.59 l 0.61,0.01 h 0.6 0.6 0.6 0.61 l 0.6,0.01 h 0.6 0.61 0.59 0.61 l 0.6,0.01 h 0.6 0.6 l 0.61,0.01 h 0.6 0.6 0.6 0.61 0.59 0.61 0.6 l 0.6,0.01 h 0.61 0.6 0.6 0.6 0.61 0.6 0.6 0.6 0.6 0.61 0.6 0.6 l 0.61,0.01 h 0.59 0.61 0.6 0.6 0.6 0.61 0.6 0.6 0.61 0.59 0.61 0.6 0.6 0.6 0.61 0.6 0.6 0.6 0.61 0.59 0.61 0.6 0.6 0.61 0.6 0.6 l 0.6,0.01 h 0.61 0.6 0.6 0.6 0.6 0.61 0.6 l 0.6,0.01 h 0.61 0.59 0.61 0.6 0.6 0.6 0.61 0.6 0.6 0.61 l 0.59,0.01 h 0.61 0.6 0.6 0.6 0.61 0.6 0.6 l 0.6,0.01 h 0.61 0.59 l 0.61,0.01 h 0.6 0.6 0.61 0.6 0.6 0.6 l 0.61,0.01 h 0.6 0.6 l 0.6,0.01 h 0.6 0.61 0.6 0.6 0.61 l 0.59,0.01 h 0.61 0.6 0.6 0.6 0.61 l 0.6,0.01 h 0.6 0.61 l 0.59,0.01 h 0.6 0.61 0.6 0.6 0.61 0.6 l 0.6,0.01 h 0.6 0.61 0.59 0.61 0.6 0.6 0.61 l 0.6,0.01 h 0.6 0.6 0.6 0.61 0.6 0.6 0.6 0.61 0.6 0.6 l 0.61,0.01 h 0.59 0.61 0.6 0.6 0.6 0.61 0.6 l 0.6,0.01 h 0.6 0.6 0.6 0.61 0.6 0.6 0.61 0.6 0.6 0.6 0.61 0.59 0.61 0.6 0.6 0.61 0.6 0.6 0.6 0.6 0.61 0.6 0.6 0.6 0.61 0.6 0.6 0.61 0.59 0.61 0.6 0.6 0.6 0.61 0.6 0.6 0.6 0.6 0.6 0.61 0.6 0.6 0.61 0.6 0.6 l 0.6,0.01 h 0.61 0.59 0.61 0.6 0.6 0.61 0.6 0.6 0.6 0.6 l 0.61,0.01 h 0.6 0.6 0.6 0.61 0.6 0.6 0.61 0.59 0.61 0.6 0.6 0.6 0.61 0.6 l 0.6,0.01 h 0.6 0.6 0.6 0.61 0.6 l 0.6,0.01 h 0.61 0.6 0.6 0.6 0.61 0.59 0.61 0.6 0.6 0.61 0.6 l 0.6,0.01 h 0.6 0.6 0.61 0.6 0.6 0.6 0.61 0.6 0.6 0.61 0.59 0.61 l 0.6,0.01 h 0.6 0.6 0.61 0.6 0.6 0.6 0.6 0.6 0.61 0.6 0.6 0.61 0.6 0.6 0.6 0.61 0.59 0.61 l 0.6,0.01 h 0.6 0.61 0.6 0.6 0.6 0.6 0.61 0.6 0.6 0.6 0.61 0.6 0.6 0.61 0.59 0.61 0.6 0.6"
           style="fill:none;stroke:#d95319;stroke-width:20.0052;stroke-linecap:butt;stroke-linejoin:round;stroke-miterlimit:10;stroke-dasharray:none;stroke-opacity:1"
           id="path24" />
      </g>
      <g
         id="g26"
         transform="scale(0.998725,-1.00127)">
        <path
           d="M 372.134,-288.117 H 2178.78"
           style="fill:none;stroke:#000000;stroke-width:10.0056;stroke-linecap:square;stroke-linejoin:round;stroke-miterlimit:10;stroke-dasharray:none;stroke-opacity:1"
           id="path28" />
      </g>
      <g
         id="g30"
         transform="scale(0.998725,-1.00127)">
        <path
           d="M 372.134,-1572.58 H 2178.78"
           style="fill:none;stroke:#000000;stroke-width:10.0056;stroke-linecap:square;stroke-linejoin:round;stroke-miterlimit:10;stroke-dasharray:none;stroke-opacity:1"
           id="path32" />
      </g>
      <g
         id="g34"
         transform="scale(0.998725,-1.00127)">
        <path
           d="m 372.134,-288.117 v -18.067"
           style="fill:none;stroke:#000000;stroke-width:10.0056;stroke-linecap:square;stroke-linejoin:round;stroke-miterlimit:10;stroke-dasharray:none;stroke-opacity:1"
           id="path36" />
      </g>
      <g
         id="g38"
         transform="scale(0.998725,-1.00127)">
        <path
           d="m 974.347,-288.117 v -18.067"
           style="fill:none;stroke:#000000;stroke-width:10.0056;stroke-linecap:square;stroke-linejoin:round;stroke-miterlimit:10;stroke-dasharray:none;stroke-opacity:1"
           id="path40" />
      </g>
      <g
         id="g42"
         transform="scale(0.998725,-1.00127)">
        <path
           d="m 1576.57,-288.117 v -18.067"
           style="fill:none;stroke:#000000;stroke-width:10.0056;stroke-linecap:square;stroke-linejoin:round;stroke-miterlimit:10;stroke-dasharray:none;stroke-opacity:1"
           id="path44" />
      </g>
      <g
         id="g46"
         transform="scale(0.998725,-1.00127)">
        <path
           d="m 2178.78,-288.117 v -18.067"
           style="fill:none;stroke:#000000;stroke-width:10.0056;stroke-linecap:square;stroke-linejoin:round;stroke-miterlimit:10;stroke-dasharray:none;stroke-opacity:1"
           id="path48" />
      </g>
      <g
         id="g50"
         transform="scale(0.998725,-1.00127)">
        <path
           d="m 372.134,-1572.58 v 18.07"
           style="fill:none;stroke:#000000;stroke-width:10.0056;stroke-linecap:square;stroke-linejoin:round;stroke-miterlimit:10;stroke-dasharray:none;stroke-opacity:1"
           id="path52" />
      </g>
      <g
         id="g54"
         transform="scale(0.998725,-1.00127)">
        <path
           d="m 974.347,-1572.58 v 18.07"
           style="fill:none;stroke:#000000;stroke-width:10.0056;stroke-linecap:square;stroke-linejoin:round;stroke-miterlimit:10;stroke-dasharray:none;stroke-opacity:1"
           id="path56" />
      </g>
      <g
         id="g58"
         transform="scale(0.998725,-1.00127)">
        <path
           d="m 1576.57,-1572.58 v 18.07"
           style="fill:none;stroke:#000000;stroke-width:10.0056;stroke-linecap:square;stroke-linejoin:round;stroke-miterlimit:10;stroke-dasharray:none;stroke-opacity:1"
           id="path60" />
      </g>
      <g
         id="g62"
         transform="scale(0.998725,-1.00127)">
        <path
           d="m 2178.78,-1572.58 v 18.07"
           style="fill:none;stroke:#000000;stroke-width:10.0056;stroke-linecap:square;stroke-linejoin:round;stroke-miterlimit:10;stroke-dasharray:none;stroke-opacity:1"
           id="path64" />
      </g>
      <g
         id="g66"
         transform="scale(10)">
        <text
           xml:space="preserve"
           transform="matrix(0.997454,0,0,-1,34.468,15.225)"
           style="font-variant:normal;font-weight:normal;font-size:10.0165px;font-family:'Times New Roman';-inkscape-font-specification:Times-Roman;writing-mode:lr-tb;fill:#000000;fill-opacity:1;fill-rule:nonzero;stroke:none"
           id="text72"><tspan
             x="0 60.297829 120.59566 180.89348"
             y="0"
             sodipodi:role="line"
             id="tspan68">0123</tspan><tspan
             x="76.023598 82.143684 84.928268 92.721107 97.168434 99.672554 103.00805 106.90447"
             y="13.4219"
             sodipodi:role="line"
             id="tspan70">Time [s]</tspan></text>
      </g>
      <g
         id="g74"
         transform="scale(0.998725,-1.00127)">
        <path
           d="M 372.134,-288.117 V -1572.58"
           style="fill:none;stroke:#000000;stroke-width:10.0056;stroke-linecap:square;stroke-linejoin:round;stroke-miterlimit:10;stroke-dasharray:none;stroke-opacity:1"
           id="path76" />
      </g>
      <g
         id="g78"
         transform="scale(0.998725,-1.00127)">
        <path
           d="M 2178.78,-288.117 V -1572.58"
           style="fill:none;stroke:#000000;stroke-width:10.0056;stroke-linecap:square;stroke-linejoin:round;stroke-miterlimit:10;stroke-dasharray:none;stroke-opacity:1"
           id="path80" />
      </g>
      <g
         id="g82"
         transform="scale(0.998725,-1.00127)">
        <path
           d="M 372.134,-288.117 H 390.2"
           style="fill:none;stroke:#000000;stroke-width:10.0056;stroke-linecap:square;stroke-linejoin:round;stroke-miterlimit:10;stroke-dasharray:none;stroke-opacity:1"
           id="path84" />
      </g>
      <g
         id="g86"
         transform="scale(0.998725,-1.00127)">
        <path
           d="M 372.134,-716.267 H 390.2"
           style="fill:none;stroke:#000000;stroke-width:10.0056;stroke-linecap:square;stroke-linejoin:round;stroke-miterlimit:10;stroke-dasharray:none;stroke-opacity:1"
           id="path88" />
      </g>
      <g
         id="g90"
         transform="scale(0.998725,-1.00127)">
        <path
           d="M 372.134,-1144.42 H 390.2"
           style="fill:none;stroke:#000000;stroke-width:10.0056;stroke-linecap:square;stroke-linejoin:round;stroke-miterlimit:10;stroke-dasharray:none;stroke-opacity:1"
           id="path92" />
      </g>
      <g
         id="g94"
         transform="scale(0.998725,-1.00127)">
        <path
           d="M 372.134,-1572.58 H 390.2"
           style="fill:none;stroke:#000000;stroke-width:10.0056;stroke-linecap:square;stroke-linejoin:round;stroke-miterlimit:10;stroke-dasharray:none;stroke-opacity:1"
           id="path96" />
      </g>
      <g
         id="g98"
         transform="scale(0.998725,-1.00127)">
        <path
           d="m 2178.78,-288.117 h -18.07"
           style="fill:none;stroke:#000000;stroke-width:10.0056;stroke-linecap:square;stroke-linejoin:round;stroke-miterlimit:10;stroke-dasharray:none;stroke-opacity:1"
           id="path100" />
      </g>
      <g
         id="g102"
         transform="scale(0.998725,-1.00127)">
        <path
           d="m 2178.78,-716.267 h -18.07"
           style="fill:none;stroke:#000000;stroke-width:10.0056;stroke-linecap:square;stroke-linejoin:round;stroke-miterlimit:10;stroke-dasharray:none;stroke-opacity:1"
           id="path104" />
      </g>
      <g
         id="g106"
         transform="scale(0.998725,-1.00127)">
        <path
           d="m 2178.78,-1144.42 h -18.07"
           style="fill:none;stroke:#000000;stroke-width:10.0056;stroke-linecap:square;stroke-linejoin:round;stroke-miterlimit:10;stroke-dasharray:none;stroke-opacity:1"
           id="path108" />
      </g>
      <g
         id="g110"
         transform="scale(0.998725,-1.00127)">
        <path
           d="m 2178.78,-1572.58 h -18.07"
           style="fill:none;stroke:#000000;stroke-width:10.0056;stroke-linecap:square;stroke-linejoin:round;stroke-miterlimit:10;stroke-dasharray:none;stroke-opacity:1"
           id="path112" />
      </g>
      <g
         id="g114"
         transform="scale(10)">
        <text
           xml:space="preserve"
           transform="matrix(0.997454,0,0,-1,27.7742,25.2414)"
           style="font-variant:normal;font-weight:normal;font-size:10.0165px;font-family:'Times New Roman';-inkscape-font-specification:Times-Roman;writing-mode:lr-tb;fill:#000000;fill-opacity:1;fill-rule:nonzero;stroke:none"
           id="text124"><tspan
             x="0"
             y="0"
             id="tspan116">0</tspan><tspan
             x="-12.6204 -7.6121502 -5.1080251 -0.099775001"
             y="-42.8703"
             sodipodi:role="line"
             id="tspan118">0.05</tspan><tspan
             x="-7.21171 -2.20346 0.30066499"
             y="-85.740601"
             sodipodi:role="line"
             id="tspan120">0.1</tspan><tspan
             x="-12.6204 -7.6121502 -5.1080251 -0.099775001"
             y="-128.6109"
             sodipodi:role="line"
             id="tspan122">0.15</tspan></text>
        <text
           xml:space="preserve"
           transform="matrix(0,1,0.99745649,0,9.59102,68.2121)"
           style="font-variant:normal;font-weight:normal;font-size:10.0165px;font-family:'Times New Roman';-inkscape-font-specification:Times-Roman;writing-mode:lr-tb;fill:#000000;fill-opacity:1;fill-rule:nonzero;stroke:none"
           id="text128"><tspan
             x="0 5.5691781 10.577432 14.473853 17.258442 20.043032 22.82762 27.835873 32.844128 35.348255 38.68375 46.476593"
             y="0"
             sodipodi:role="line"
             id="tspan126">Position [m]</tspan></text>
        <text
           xml:space="preserve"
           transform="matrix(0.997454,0,0,-1,147.464,42.0691)"
           style="font-variant:normal;font-weight:normal;font-size:9.0147px;font-family:'Times New Roman';-inkscape-font-specification:Times-Roman;writing-mode:lr-tb;fill:#000000;fill-opacity:1;fill-rule:nonzero;stroke:none"
           id="text132"><tspan
             x="0"
             y="0"
             id="tspan130">X</tspan></text>
        <text
           xml:space="preserve"
           transform="matrix(0.997454,0,0,-1,154.058,37.8621)"
           style="font-variant:normal;font-weight:normal;font-size:7.21176px;font-family:'Times New Roman';-inkscape-font-specification:Times-Roman;writing-mode:lr-tb;fill:#000000;fill-opacity:1;fill-rule:nonzero;stroke:none"
           id="text136"><tspan
             x="0"
             y="0"
             id="tspan134">m</tspan></text>
      </g>
      <g
         id="g138"
         transform="scale(0.998725,-1.00127)">
        <path
           d="m 1152.32,-435.172 h 299.2"
           style="fill:none;stroke:#0072bd;stroke-width:20.0052;stroke-linecap:butt;stroke-linejoin:bevel;stroke-miterlimit:10;stroke-dasharray:18.0065, 18.0065;stroke-dashoffset:0;stroke-opacity:1"
           id="path140" />
      </g>
      <g
         id="g142"
         transform="scale(10)">
        <text
           xml:space="preserve"
           transform="matrix(0.997454,0,0,-1,197.817,42.0691)"
           style="font-variant:normal;font-weight:normal;font-size:9.0147px;font-family:'Times New Roman';-inkscape-font-specification:Times-Roman;writing-mode:lr-tb;fill:#000000;fill-opacity:1;fill-rule:nonzero;stroke:none"
           id="text146"><tspan
             x="0"
             y="0"
             id="tspan144">X</tspan></text>
        <text
           xml:space="preserve"
           transform="matrix(0.997454,0,0,-1,204.411,37.8621)"
           style="font-variant:normal;font-weight:normal;font-size:7.21176px;font-family:'Times New Roman';-inkscape-font-specification:Times-Roman;writing-mode:lr-tb;fill:#000000;fill-opacity:1;fill-rule:nonzero;stroke:none"
           id="text150"><tspan
             x="0"
             y="0"
             id="tspan148">s</tspan></text>
      </g>
      <g
         id="g152"
         transform="scale(0.998725,-1.00127)">
        <path
           d="m 1659.45,-435.172 h 299.2"
           style="fill:none;stroke:#d95319;stroke-width:20.0052;stroke-linecap:butt;stroke-linejoin:round;stroke-miterlimit:10;stroke-dasharray:none;stroke-opacity:1"
           id="path154" />
      </g>
    </g>
  </g>
</svg>
