<?xml version="1.0" encoding="UTF-8" standalone="no"?>
<!-- Created with Inkscape (http://www.inkscape.org/) -->

<svg
   version="1.1"
   id="svg2"
   width="320"
   height="226.66667"
   viewBox="0 0 320 226.66667"
   sodipodi:docname="duff_ng.eps"
   xmlns:inkscape="http://www.inkscape.org/namespaces/inkscape"
   xmlns:sodipodi="http://sodipodi.sourceforge.net/DTD/sodipodi-0.dtd"
   xmlns="http://www.w3.org/2000/svg"
   xmlns:svg="http://www.w3.org/2000/svg">
  <defs
     id="defs6" />
  <sodipodi:namedview
     id="namedview4"
     pagecolor="#ffffff"
     bordercolor="#000000"
     borderopacity="0.25"
     inkscape:showpageshadow="2"
     inkscape:pageopacity="0.0"
     inkscape:pagecheckerboard="0"
     inkscape:deskcolor="#d1d1d1" />
  <g
     id="g8"
     inkscape:groupmode="layer"
     inkscape:label="ink_ext_XXXXXX"
     transform="matrix(1.3333333,0,0,-1.3333333,0,226.66667)">
    <g
       id="g10"
       transform="scale(0.1)">
      <path
         d="M 0,0.015625 H 2403.79 V 1700.7856 H 0 Z"
         style="fill:#ffffff;fill-opacity:1;fill-rule:nonzero;stroke:none"
         id="path12" />
      <path
         d="M 0,0.015625 H 2403.79 V 1700.7856 H 0 Z"
         style="fill:#ffffff;fill-opacity:1;fill-rule:nonzero;stroke:none"
         id="path14" />
      <path
         d="m 497.543,402.672 h 1678.46 v 1171.91 H 497.543 Z"
         style="fill:#ffffff;fill-opacity:1;fill-rule:nonzero;stroke:none"
         id="path16" />
      <g
         id="g18"
         transform="scale(0.998725,-1.00127)">
        <path
           d="m 1559.68,-517.914 -10.08,0.183 -10.08,0.098 -10.09,-0.047 -10.08,-0.144 -10.09,-0.277 -10.08,-0.379 -10.08,-0.468 -10.09,-0.558 -10.08,-0.702 -10.08,-0.847 -10.09,-0.838 -9.98,-0.976 -9.99,-1.104 -9.98,-1.205 -9.98,-1.295 -9.88,-1.335 -9.88,-1.463 -9.88,-1.568 -9.89,-1.654 -9.78,-1.783 -9.78,-1.834 -9.68,-1.864 -9.68,-2.006 -9.68,-2.095 -9.58,-2.177 -9.58,-2.27 -9.48,-2.353 -9.48,-2.395 -9.38,-2.431 -9.37,-2.52 -9.28,-2.606 -9.28,-2.696 -9.18,-2.777 -9.07,-2.852 -9.08,-2.953 -8.97,-3.024 -8.87,-3.066 -8.88,-3.153 -8.77,-3.187 -8.67,-3.222 -8.67,-3.312 -8.57,-3.399 -8.47,-3.429 -8.47,-3.515 -8.37,-3.554 -8.27,-3.636 -8.17,-3.663 -8.17,-3.765 -8.06,-3.792 -7.97,-3.823 -7.86,-3.901 -7.77,-3.988 -7.66,-4.014 -7.67,-4.112 -7.56,-4.147 -7.46,-4.17 -7.36,-4.257 -7.26,-4.291 -7.16,-4.323 -7.06,-4.35 -6.96,-4.435 -6.85,-4.514 -6.762,-4.545 -6.657,-4.576 -6.555,-4.565 -6.45,-4.646 -6.352,-4.674 -6.254,-4.713 -6.152,-4.787 -6.051,-4.868 -5.945,-4.904 -5.847,-4.935 -5.75,-4.92 -5.647,-5.001 -5.546,-5.029 -5.445,-5.068 -5.343,-5.099 -5.245,-5.177 -5.143,-5.255 -5.041,-5.247 -4.94,-5.275 -4.737,-5.294 -4.639,-5.333 -4.541,-5.407 -4.435,-5.388 -4.337,-5.473 -4.232,-5.505 -4.033,-5.579 -3.939,-5.551 -3.829,-5.641 -3.735,-5.618 -3.622,-5.704 -3.434,-5.676 -3.324,-5.708 -3.231,-5.739 -3.121,-5.773 -3.023,-5.806 -2.828,-5.867 -2.719,-5.903 -2.624,-5.934 -2.523,-5.972 -2.319,-5.989 -2.218,-6.023 -2.116,-6.047 -1.916,-6.075 -1.819,-6.105 -1.709,-6.141 -1.616,-6.172 -1.412,-6.136 -1.314,-6.227 -1.204,-6.254 -1.009,-6.273 -0.908,-6.308 -0.81,-6.336 -0.606,-6.359 -0.504,-6.39 -0.301,-6.363 -0.204,-6.394 -0.094,-6.426 0.094,-6.449 0.204,-6.481 0.301,-6.51 0.504,-6.53 0.606,-6.61 0.81,-6.63 0.908,-6.66 1.009,-6.7 1.204,-6.71 1.314,-6.75 1.514,-6.76 1.615,-6.75 1.811,-6.82 1.917,-6.85 2.12,-6.82 2.217,-6.85 2.32,-6.89 2.519,-6.9 2.624,-6.94 2.82,-6.96 2.922,-6.99 3.129,-6.97 3.23,-7.03 3.427,-7.01 3.528,-7.05 3.735,-7.06 3.829,-7.06 4.032,-7.12 4.135,-7.1 4.333,-7.17 4.436,-7.1 4.642,-7.17 4.741,-7.16 4.939,-7.18 5.144,-7.14 5.241,-7.19 5.448,-7.24 5.546,-7.2 5.746,-7.2 5.851,-7.28 6.051,-7.21 6.144,-7.25 6.356,-7.21 6.454,-7.2 6.657,-7.27 6.852,-7.23 6.958,-7.27 7.162,-7.25 7.263,-7.27 7.458,-7.2 7.565,-7.24 7.764,-7.2 7.861,-7.24 8.07,-7.16 8.17,-7.2 8.37,-7.16 8.46,-7.21 8.68,-7.12 8.88,-7.14 8.97,-7.13 9.18,-7.06 9.27,-7.09 9.48,-7.01 9.57,-7.05 9.79,-7.02 9.88,-6.95 10.08,-6.98 10.19,-6.92 10.39,-6.83 10.48,-6.88 10.59,-6.81 10.79,-6.78 10.89,-6.72 11.09,-6.7 11.2,-6.63 11.39,-6.56 11.49,1064.347 -11.39,-9.683 -11.19,-9.753 -10.99,-9.722 -10.79,-9.741 -10.59,-9.769 -10.39,-9.777 -10.18,-9.753 -9.98,-9.773 -9.78,-9.788 -9.59,-9.808 -9.27,-9.765 -9.07,-9.733 -8.88,-9.761 -8.67,-9.73 -8.47,-9.745 -8.27,-9.719 -8.07,-9.686 -7.86,-9.715 -7.67,-9.679 -7.46,-9.702 -7.26,-9.675 -7.05,-9.644 -6.87,-9.664 -6.55,-9.616 -6.35,-9.598 -6.15,-9.608 -5.95,-9.488 -5.749,-9.469 -5.546,-9.429 -5.343,-9.453 -5.143,-9.421 -4.94,-9.352 -4.745,-9.32 -4.537,-9.293 -4.333,-9.269 -4.134,-9.188 -3.931,-9.207 -3.735,-9.137 -3.528,-9.105 -3.325,-9.075 -3.129,-9.051 -3.023,-8.992 -2.82,-8.91 -2.625,-8.934 -2.417,-8.856 -2.221,-8.782 -2.019,-8.758 -1.811,-8.728 -1.615,-8.696 -1.412,-8.625 -1.314,-8.606 -1.111,-8.536 -0.903,-8.505 -0.704,-8.435 -0.505,-8.403 -0.407,-8.341 -0.199,-8.314 v -8.239 l 0.199,-8.173 0.407,-8.13 0.505,-8.08 0.704,-8.05 0.903,-7.97 1.009,-7.91 1.213,-7.89 1.412,-7.81 1.509,-7.79 1.718,-7.72 1.916,-7.64 2.014,-7.64 2.222,-7.56 2.421,-7.47 2.519,-7.42 2.718,-7.4 2.828,-7.32 3.027,-7.26 3.223,-7.14 3.329,-7.16 3.531,-7.1 3.63,-6.99 3.829,-6.95 3.931,-6.9 4.138,-6.87 4.236,-6.75 4.333,-6.71 4.538,-6.62 4.642,-6.56 4.834,-6.49 4.94,-6.48 5.046,-6.41 5.24,-6.3 5.34,-6.27 5.55,-6.15 5.65,-6.1 5.75,-6.03 5.84,-5.94 6.06,-5.85 6.15,-5.83 6.25,-5.78 6.35,-5.67 6.56,-5.6 6.65,-5.53 6.76,-5.47 6.86,-5.37 6.95,-5.3 7.06,-5.25 7.26,-5.16 7.36,-5.06 7.46,-5.01 7.56,-4.94 7.67,-4.82 7.77,-4.73 7.86,-4.67 7.97,-4.55 8.06,-4.49 8.17,-4.39 8.27,-4.32 8.37,-4.23 8.47,-4.15 8.47,-4.02 8.57,-3.95 8.67,-3.85 8.78,-3.74 8.87,-3.63 8.97,-3.58 8.98,-3.47 9.07,-3.38 9.18,-3.26 9.27,-3.2 9.29,-3.11 9.37,-3 9.48,-2.85 9.47,-2.75 9.58,-2.64 9.59,-2.51 9.68,-2.4 9.68,-2.35 9.78,-2.24 9.78,-2.1 9.88,-2 9.88,-1.89 9.99,-1.71 9.98,-1.65 9.98,-1.51 10.09,-1.41 10.08,-1.26 10.09,-1.12 10.08,-1.08 10.18,-0.93 10.18,-0.78 10.19,-0.59 10.18,-0.5 10.19,-0.4 10.18,-0.28 10.18,-0.12 10.19,0.02 10.19,0.15 10.18,0.25 10.18,0.38 10.19,0.53 10.18,0.72 10.19,0.81 10.18,0.95 10.18,1.14 10.09,1.26 10.08,1.4 10.08,1.51 9.99,1.66 9.98,1.82 9.99,1.95 9.88,2.13 9.88,2.21 9.78,2.35 9.78,2.53 9.68,2.66 9.68,2.89 9.58,3.02 9.59,3.17 9.47,3.28 9.38,3.42 9.28,3.58 9.27,3.73 9.18,3.9 9.07,4.02 8.97,4.2 8.88,4.33 8.77,4.5 8.67,4.62 8.58,4.71 8.46,4.88 8.38,5 8.26,5.18 8.17,5.3 8.07,5.43 7.96,5.61 7.87,5.73 7.67,5.84 7.56,6.02 7.46,6.14 7.36,6.27 7.16,6.33 7.06,6.47 6.95,6.58 6.76,6.75 6.66,6.87 6.45,6.98 6.35,7.12 6.15,7.22 6.05,7.35 5.85,7.46 5.75,7.55 5.55,7.7 5.34,7.71 5.24,7.85 5.05,7.96 4.83,8.07 4.64,8.14 4.54,8.22 4.34,8.32 4.13,8.35 3.94,8.46 3.83,8.54 3.63,8.61 3.42,8.66 3.23,8.74 3.03,8.76 2.82,8.82 2.62,8.93 2.53,8.92 2.31,8.98 2.12,9.01 1.91,9.07 1.72,9.04 1.51,9.1 1.31,9.17 1.11,9.14 0.91,9.21 0.71,9.18 0.5,9.2 0.3,9.176 0.1,9.14 -0.1,9.168 -0.3,9.133 -0.5,9.149 -0.71,9.129 -0.81,9.152 -1,9.129 -1.21,9.106 -1.42,9.07 -1.61,8.997 -1.81,8.973 -2.02,8.945 -2.22,8.911 -2.42,8.84 -2.62,8.766 -2.82,8.731 -3.03,8.661 -3.13,8.556 -3.32,8.571 -3.53,8.45 -3.73,8.329 -3.94,8.302 -4.03,8.193 -4.24,8.161 -4.43,8.045 -4.64,7.97 -4.74,7.857 -4.94,7.744 -5.14,7.662 -5.25,7.557 -5.44,7.432 -5.65,7.319 -5.75,7.201 -5.95,7.132 -6.05,7.022 -6.24,6.855 -6.36,6.745 -6.55,6.624 -6.66,6.562 -6.76,6.41 -6.95,6.285 -7.06,6.184 -7.16,6.074 -7.37,5.899 -7.46,5.797 -7.56,5.641 -7.66,5.536 -7.87,5.407 -7.96,5.216 -8.07,5.103 -8.17,4.994 -8.27,4.841 -8.36,4.733 -8.47,4.576 -8.58,4.424 -8.67,4.319 -8.77,4.205 -8.87,4.011 -8.98,3.901 -8.97,3.757 -9.08,3.609 -9.17,3.448 -9.28,3.344 -9.38,3.234 -9.38,3.094 -9.48,2.988 -9.47,2.797 -9.59,2.696 -9.68,2.489 -9.68,2.395 -9.77,2.286 -9.79,2.158 -9.88,2.04 -9.88,1.896 -9.88,1.764 -9.98,1.603 -9.99,1.561 -10.08,1.357 -10.08,1.217 -10.09,1.124 -10.08,0.983 -10.19,0.917 -10.18,0.741 -10.19,0.64 -10.18,0.499 -10.18,0.359 -10.19,0.32"
           style="fill:none;stroke:#0072bd;stroke-width:20.0052;stroke-linecap:butt;stroke-linejoin:round;stroke-miterlimit:10;stroke-dasharray:none;stroke-opacity:1"
           id="path20" />
      </g>
      <g
         id="g22"
         transform="scale(0.998725,-1.00127)">
        <path
           d="M 498.178,-402.159 H 2178.78"
           style="fill:none;stroke:#000000;stroke-width:10.0056;stroke-linecap:square;stroke-linejoin:round;stroke-miterlimit:10;stroke-dasharray:none;stroke-opacity:1"
           id="path24" />
      </g>
      <g
         id="g26"
         transform="scale(0.998725,-1.00127)">
        <path
           d="M 498.178,-1572.58 H 2178.78"
           style="fill:none;stroke:#000000;stroke-width:10.0056;stroke-linecap:square;stroke-linejoin:round;stroke-miterlimit:10;stroke-dasharray:none;stroke-opacity:1"
           id="path28" />
      </g>
      <g
         id="g30"
         transform="scale(0.998725,-1.00127)">
        <path
           d="m 498.178,-402.159 v -16.787"
           style="fill:none;stroke:#000000;stroke-width:10.0056;stroke-linecap:square;stroke-linejoin:round;stroke-miterlimit:10;stroke-dasharray:none;stroke-opacity:1"
           id="path32" />
      </g>
      <g
         id="g34"
         transform="scale(0.998725,-1.00127)">
        <path
           d="m 918.331,-402.159 v -16.787"
           style="fill:none;stroke:#000000;stroke-width:10.0056;stroke-linecap:square;stroke-linejoin:round;stroke-miterlimit:10;stroke-dasharray:none;stroke-opacity:1"
           id="path36" />
      </g>
      <g
         id="g38"
         transform="scale(0.998725,-1.00127)">
        <path
           d="m 1338.48,-402.159 v -16.787"
           style="fill:none;stroke:#000000;stroke-width:10.0056;stroke-linecap:square;stroke-linejoin:round;stroke-miterlimit:10;stroke-dasharray:none;stroke-opacity:1"
           id="path40" />
      </g>
      <g
         id="g42"
         transform="scale(0.998725,-1.00127)">
        <path
           d="m 1758.63,-402.159 v -16.787"
           style="fill:none;stroke:#000000;stroke-width:10.0056;stroke-linecap:square;stroke-linejoin:round;stroke-miterlimit:10;stroke-dasharray:none;stroke-opacity:1"
           id="path44" />
      </g>
      <g
         id="g46"
         transform="scale(0.998725,-1.00127)">
        <path
           d="m 2178.78,-402.159 v -16.787"
           style="fill:none;stroke:#000000;stroke-width:10.0056;stroke-linecap:square;stroke-linejoin:round;stroke-miterlimit:10;stroke-dasharray:none;stroke-opacity:1"
           id="path48" />
      </g>
      <g
         id="g50"
         transform="scale(0.998725,-1.00127)">
        <path
           d="m 498.178,-1572.58 v 16.79"
           style="fill:none;stroke:#000000;stroke-width:10.0056;stroke-linecap:square;stroke-linejoin:round;stroke-miterlimit:10;stroke-dasharray:none;stroke-opacity:1"
           id="path52" />
      </g>
      <g
         id="g54"
         transform="scale(0.998725,-1.00127)">
        <path
           d="m 918.331,-1572.58 v 16.79"
           style="fill:none;stroke:#000000;stroke-width:10.0056;stroke-linecap:square;stroke-linejoin:round;stroke-miterlimit:10;stroke-dasharray:none;stroke-opacity:1"
           id="path56" />
      </g>
      <g
         id="g58"
         transform="scale(0.998725,-1.00127)">
        <path
           d="m 1338.48,-1572.58 v 16.79"
           style="fill:none;stroke:#000000;stroke-width:10.0056;stroke-linecap:square;stroke-linejoin:round;stroke-miterlimit:10;stroke-dasharray:none;stroke-opacity:1"
           id="path60" />
      </g>
      <g
         id="g62"
         transform="scale(0.998725,-1.00127)">
        <path
           d="m 1758.63,-1572.58 v 16.79"
           style="fill:none;stroke:#000000;stroke-width:10.0056;stroke-linecap:square;stroke-linejoin:round;stroke-miterlimit:10;stroke-dasharray:none;stroke-opacity:1"
           id="path64" />
      </g>
      <g
         id="g66"
         transform="scale(0.998725,-1.00127)">
        <path
           d="m 2178.78,-1572.58 v 16.79"
           style="fill:none;stroke:#000000;stroke-width:10.0056;stroke-linecap:square;stroke-linejoin:round;stroke-miterlimit:10;stroke-dasharray:none;stroke-opacity:1"
           id="path68" />
      </g>
      <g
         id="g70"
         transform="scale(10)">
        <text
           xml:space="preserve"
           transform="matrix(0.997454,0,0,-1,40.1629,21.4352)"
           style="font-variant:normal;font-weight:normal;font-size:15.0245px;font-family:'Times New Roman';-inkscape-font-specification:Times-Roman;writing-mode:lr-tb;fill:#000000;fill-opacity:1;fill-rule:nonzero;stroke:none"
           id="text74"><tspan
             x="0 7.5122499 11.268375 42.068451 49.5807 53.336826 84.136452 91.648697 95.404823 131.91435 168.27335 175.7856 179.54172"
             y="0"
             sodipodi:role="line"
             id="tspan72">0.40.60.811.2</tspan></text>
      </g>
      <path
         d="m 1305.65,52.4023 c 1.75,-1.3789 4.25,-2.0703 7.49,-2.0703 3.12,0 5.87,1.5039 8.24,4.5078 2.38,3.0079 4,6.293 4.88,9.8633 l 6.83,26.6641 c 1.07,4.8203 1.6,8.1094 1.6,9.8628 0,2.504 -0.69,4.696 -2.06,6.575 -1.38,1.875 -3.32,2.812 -5.81,2.812 -3.19,0 -6.17,-1 -8.95,-3.004 -2.78,-2.004 -5.12,-4.523 -7.02,-7.554 -1.9,-3.0356 -3.23,-6.1215 -3.98,-9.2543 -0.25,-0.625 -0.66,-0.9375 -1.22,-0.9375 h -1.87 c -0.75,0 -1.13,0.4375 -1.13,1.3164 v 0.4687 c 1,3.6915 2.67,7.3243 5.01,10.8947 2.34,3.566 5.2,6.445 8.57,8.637 3.38,2.191 6.99,3.285 10.87,3.285 3.68,0 6.99,-0.969 9.92,-2.906 2.94,-1.946 5.03,-4.606 6.28,-7.989 1.69,3.071 3.86,5.653 6.51,7.754 2.65,2.094 5.57,3.141 8.76,3.141 2.12,0 4.31,-0.375 6.56,-1.129 2.24,-0.75 4.07,-1.906 5.48,-3.473 1.4,-1.562 2.1,-3.535 2.1,-5.914 0,-2.504 -0.81,-4.6796 -2.43,-6.5272 -1.63,-1.8477 -3.72,-2.7695 -6.28,-2.7695 -1.56,0 -2.89,0.5156 -3.98,1.5507 -1.09,1.0313 -1.64,2.3321 -1.64,3.895 0,2.128 0.72,3.976 2.16,5.539 1.43,1.566 3.15,2.507 5.15,2.82 -1.75,1.437 -4.22,2.156 -7.4,2.156 -3.25,0 -6.06,-1.5 -8.43,-4.508 -2.38,-3.004 -4.03,-6.3199 -4.97,-9.9527 l -6.64,-26.5743 c -1.07,-4.0039 -1.6,-7.3242 -1.6,-9.9531 0,-2.5039 0.72,-4.6797 2.15,-6.5234 1.44,-1.8477 3.38,-2.7735 5.81,-2.7735 4.69,0 8.87,2.0664 12.55,6.1993 3.69,4.1328 6.09,8.6718 7.22,13.6171 0.19,0.625 0.59,0.9375 1.21,0.9375 h 1.79 c 0.43,0 0.76,-0.1406 0.98,-0.4218 0.22,-0.2813 0.33,-0.6094 0.33,-0.9844 0,-0.0664 -0.03,-0.1914 -0.1,-0.3789 -1.43,-6.0117 -4.41,-11.332 -8.94,-15.961 -4.53,-4.6328 -9.63,-6.9492 -15.32,-6.9492 -3.68,0 -7.01,0.9844 -9.97,2.9571 -2.97,1.9726 -5.04,4.6484 -6.23,8.0312 -1.56,-2.9414 -3.72,-5.5078 -6.46,-7.6992 -2.75,-2.1914 -5.69,-3.2891 -8.81,-3.2891 -2.18,0 -4.4,0.375 -6.65,1.125 -2.25,0.7539 -4.09,1.9102 -5.53,3.4727 -1.43,1.5664 -2.14,3.5703 -2.14,6.0117 0,2.3164 0.82,4.4492 2.48,6.3867 1.65,1.9375 3.69,2.9102 6.13,2.9102 1.62,0 2.99,-0.5039 4.12,-1.5039 1.12,-1 1.69,-2.3164 1.69,-3.9414 0,-2.1289 -0.69,-3.9766 -2.07,-5.543 -1.37,-1.5625 -3.12,-2.5313 -5.24,-2.9063"
         style="fill:#000000;fill-opacity:1;fill-rule:nonzero;stroke:none"
         id="path76" />
      <g
         id="g78"
         transform="scale(0.998725,-1.00127)">
        <path
           d="M 498.178,-402.159 V -1572.58"
           style="fill:none;stroke:#000000;stroke-width:10.0056;stroke-linecap:square;stroke-linejoin:round;stroke-miterlimit:10;stroke-dasharray:none;stroke-opacity:1"
           id="path80" />
      </g>
      <g
         id="g82"
         transform="scale(0.998725,-1.00127)">
        <path
           d="M 2178.78,-402.159 V -1572.58"
           style="fill:none;stroke:#000000;stroke-width:10.0056;stroke-linecap:square;stroke-linejoin:round;stroke-miterlimit:10;stroke-dasharray:none;stroke-opacity:1"
           id="path84" />
      </g>
      <g
         id="g86"
         transform="scale(0.998725,-1.00127)">
        <path
           d="m 498.178,-402.159 h 16.787"
           style="fill:none;stroke:#000000;stroke-width:10.0056;stroke-linecap:square;stroke-linejoin:round;stroke-miterlimit:10;stroke-dasharray:none;stroke-opacity:1"
           id="path88" />
      </g>
      <g
         id="g90"
         transform="scale(0.998725,-1.00127)">
        <path
           d="m 498.178,-987.367 h 16.787"
           style="fill:none;stroke:#000000;stroke-width:10.0056;stroke-linecap:square;stroke-linejoin:round;stroke-miterlimit:10;stroke-dasharray:none;stroke-opacity:1"
           id="path92" />
      </g>
      <g
         id="g94"
         transform="scale(0.998725,-1.00127)">
        <path
           d="m 498.178,-1572.58 h 16.787"
           style="fill:none;stroke:#000000;stroke-width:10.0056;stroke-linecap:square;stroke-linejoin:round;stroke-miterlimit:10;stroke-dasharray:none;stroke-opacity:1"
           id="path96" />
      </g>
      <g
         id="g98"
         transform="scale(0.998725,-1.00127)">
        <path
           d="m 2178.78,-402.159 h -16.79"
           style="fill:none;stroke:#000000;stroke-width:10.0056;stroke-linecap:square;stroke-linejoin:round;stroke-miterlimit:10;stroke-dasharray:none;stroke-opacity:1"
           id="path100" />
      </g>
      <g
         id="g102"
         transform="scale(0.998725,-1.00127)">
        <path
           d="m 2178.78,-987.367 h -16.79"
           style="fill:none;stroke:#000000;stroke-width:10.0056;stroke-linecap:square;stroke-linejoin:round;stroke-miterlimit:10;stroke-dasharray:none;stroke-opacity:1"
           id="path104" />
      </g>
      <g
         id="g106"
         transform="scale(0.998725,-1.00127)">
        <path
           d="m 2178.78,-1572.58 h -16.79"
           style="fill:none;stroke:#000000;stroke-width:10.0056;stroke-linecap:square;stroke-linejoin:round;stroke-miterlimit:10;stroke-dasharray:none;stroke-opacity:1"
           id="path108" />
      </g>
      <g
         id="g110"
         transform="scale(10)">
        <text
           xml:space="preserve"
           transform="matrix(0.997454,0,0,-1,20.7805,34.857)"
           style="font-variant:normal;font-weight:normal;font-size:15.0245px;font-family:'Times New Roman';-inkscape-font-specification:Times-Roman;writing-mode:lr-tb;fill:#000000;fill-opacity:1;fill-rule:nonzero;stroke:none"
           id="text118"><tspan
             x="0 5.0031586 12.515409 16.271534"
             y="0"
             sodipodi:role="line"
             id="tspan112">-0.5</tspan><tspan
             x="16.2265"
             y="-58.5961"
             id="tspan114">0</tspan><tspan
             x="4.8080001 12.32025 16.076374"
             y="-117.1922"
             sodipodi:role="line"
             id="tspan116">0.5</tspan></text>
      </g>
      <path
         d="m 33.9023,984.512 c -2.1835,0 -4.1054,0.843 -5.7578,2.535 -1.6562,1.691 -2.4843,3.633 -2.4843,5.824 0,1.371 0.3593,2.719 1.082,4.039 0.7187,1.313 1.7344,2.328 3.043,3.047 1.3125,0.723 2.6836,1.083 4.1171,1.083 2.125,0 4.0118,-0.8 5.668,-2.395 1.6563,-1.598 2.4844,-3.524 2.4844,-5.774 0,-2.191 -0.8281,-4.133 -2.4844,-5.824 -1.6562,-1.692 -3.543,-2.535 -5.668,-2.535"
         style="fill:#000000;fill-opacity:1;fill-rule:nonzero;stroke:none"
         id="path120" />
      <path
         d="m 121.574,957.426 c 1.375,1.754 2.063,4.258 2.063,7.512 0,3.128 -1.5,5.882 -4.496,8.261 -3,2.379 -6.278,4.008 -9.84,4.887 l -26.5979,6.852 c -4.8047,1.066 -8.0859,1.597 -9.8359,1.597 -2.4961,0 -4.6836,-0.687 -6.5586,-2.066 -1.8672,-1.379 -2.8047,-3.321 -2.8047,-5.824 0,-3.192 1,-6.184 2.9961,-8.965 2,-2.785 4.5117,-5.133 7.5352,-7.047 3.0312,-1.906 6.1093,-3.235 9.2343,-3.988 0.6211,-0.25 0.9336,-0.657 0.9336,-1.219 v -1.875 c 0,-0.754 -0.4375,-1.133 -1.3125,-1.133 h -0.4687 c -3.6836,1.004 -7.3047,2.676 -10.8672,5.023 -3.5547,2.352 -6.4258,5.215 -8.6133,8.598 -2.1875,3.375 -3.2773,7.004 -3.2773,10.887 0,3.695 0.9648,7.012 2.8984,9.953 1.9375,2.945 4.5938,5.043 7.9688,6.293 -3.0625,1.691 -5.6407,3.867 -7.7344,6.528 -2.0899,2.66 -3.1328,5.59 -3.1328,8.78 0,2.13 0.375,4.32 1.125,6.57 0.7461,2.25 1.9023,4.09 3.4648,5.5 1.5586,1.41 3.5234,2.11 5.8984,2.11 2.4961,0 4.668,-0.81 6.5118,-2.45 1.8398,-1.62 2.7617,-3.72 2.7617,-6.29 0,-1.56 -0.5156,-2.89 -1.5469,-3.99 -1.0312,-1.09 -2.3242,-1.64 -3.8828,-1.64 -2.1289,0 -3.9688,0.72 -5.5273,2.16 -1.5625,1.44 -2.5,3.16 -2.8125,5.17 -1.4336,-1.76 -2.1524,-4.23 -2.1524,-7.42 0,-3.26 1.5,-6.07 4.4961,-8.45 2.9961,-2.383 6.3086,-4.043 9.9258,-4.98 l 26.5082,-6.665 c 3.996,-1.066 7.308,-1.597 9.929,-1.597 2.496,0 4.668,0.719 6.508,2.156 1.844,1.441 2.766,3.383 2.766,5.824 0,4.692 -2.063,8.892 -6.18,12.582 -4.125,3.7 -8.652,6.11 -13.586,7.23 -0.621,0.19 -0.933,0.6 -0.933,1.22 v 1.79 c 0,0.43 0.14,0.76 0.417,0.98 0.282,0.22 0.61,0.33 0.985,0.33 0.062,0 0.187,-0.03 0.379,-0.09 5.992,-1.44 11.301,-4.43 15.918,-8.97 4.621,-4.54 6.929,-9.66 6.929,-15.353 0,-3.695 -0.98,-7.027 -2.949,-10.004 -1.965,-2.973 -4.633,-5.051 -8.008,-6.242 2.934,-1.566 5.493,-3.727 7.68,-6.481 2.188,-2.753 3.277,-5.699 3.277,-8.828 0,-2.191 -0.371,-4.41 -1.121,-6.664 -0.75,-2.254 -1.906,-4.101 -3.465,-5.539 -1.562,-1.441 -3.558,-2.16 -5.992,-2.16 -2.316,0 -4.437,0.832 -6.371,2.488 -1.937,1.661 -2.902,3.711 -2.902,6.149 0,1.629 0.5,3.004 1.496,4.137 1,1.125 2.312,1.687 3.934,1.687 2.121,0 3.964,-0.687 5.527,-2.066 1.558,-1.379 2.527,-3.133 2.902,-5.258"
         style="fill:#000000;fill-opacity:1;fill-rule:nonzero;stroke:none"
         id="path122" />
    </g>
  </g>
</svg>
