<?xml version="1.0" encoding="UTF-8" standalone="no"?>
<!-- Created with Inkscape (http://www.inkscape.org/) -->

<svg
   version="1.1"
   id="svg2"
   width="320"
   height="226.66667"
   viewBox="0 0 320 226.66667"
   sodipodi:docname="duff_unenc.eps"
   xmlns:inkscape="http://www.inkscape.org/namespaces/inkscape"
   xmlns:sodipodi="http://sodipodi.sourceforge.net/DTD/sodipodi-0.dtd"
   xmlns="http://www.w3.org/2000/svg"
   xmlns:svg="http://www.w3.org/2000/svg">
  <defs
     id="defs6" />
  <sodipodi:namedview
     id="namedview4"
     pagecolor="#ffffff"
     bordercolor="#000000"
     borderopacity="0.25"
     inkscape:showpageshadow="2"
     inkscape:pageopacity="0.0"
     inkscape:pagecheckerboard="0"
     inkscape:deskcolor="#d1d1d1" />
  <g
     id="g8"
     inkscape:groupmode="layer"
     inkscape:label="ink_ext_XXXXXX"
     transform="matrix(1.3333333,0,0,-1.3333333,0,226.66667)">
    <g
       id="g10"
       transform="scale(0.1)">
      <path
         d="M 0,0.015625 H 2403.79 V 1700.7856 H 0 Z"
         style="fill:#ffffff;fill-opacity:1;fill-rule:nonzero;stroke:none"
         id="path12" />
      <path
         d="M 0,0.015625 H 2403.79 V 1700.7856 H 0 Z"
         style="fill:#ffffff;fill-opacity:1;fill-rule:nonzero;stroke:none"
         id="path14" />
      <path
         d="m 497.543,402.672 h 1678.46 v 1171.91 H 497.543 Z"
         style="fill:#ffffff;fill-opacity:1;fill-rule:nonzero;stroke:none"
         id="path16" />
      <g
         id="g18"
         transform="scale(0.998725,-1.00127)">
        <path
           d="m 1513.33,-981.694 -0.04,-2.649 -0.02,-2.672 v -2.681 l 0.01,-2.703 0.04,-2.712 0.06,-2.738 0.07,-2.751 0.09,-2.76 0.12,-2.78 0.14,-2.8 0.15,-2.82 0.18,-2.83 0.19,-2.85 0.22,-2.87 0.23,-2.88 0.26,-2.89 0.28,-2.92 0.3,-2.93 0.32,-2.95 0.34,-2.95 0.36,-2.98 0.38,-3 0.4,-3 0.44,-3.03 0.44,-3.04 0.48,-3.05 0.49,-3.07 0.51,-3.09 0.54,-3.1 0.56,-3.12 0.58,-3.13 0.6,-3.14 0.63,-3.16 0.65,-3.17 0.66,-3.19 0.7,-3.2 0.72,-3.22 0.74,-3.23 0.76,-3.25 0.79,-3.26 0.81,-3.26 0.83,-3.29 0.86,-3.29 0.88,-3.31 0.91,-3.33 0.93,-3.33 0.95,-3.34 0.98,-3.36 1,-3.37 1.02,-3.38 1.05,-3.4 1.07,-3.4 1.1,-3.41 1.12,-3.42 1.15,-3.43 1.18,-3.45 1.19,-3.45 1.22,-3.46 1.25,-3.47 1.27,-3.48 1.3,-3.48 1.32,-3.49 1.34,-3.5 1.38,-3.51 1.39,-3.51 1.42,-3.52 1.45,-3.53 1.48,-3.53 1.49,-3.52 1.53,-3.55 1.54,-3.54 1.57,-3.54 1.6,-3.55 1.63,-3.54 1.65,-3.56 1.67,-3.54 1.7,-3.56 1.73,-3.54 1.75,-3.56 1.78,-3.54 1.81,-3.55 1.82,-3.54 1.86,-3.54 1.87,-3.54 1.91,-3.53 1.93,-3.52 1.96,-3.52 1.98,-3.51 2,-3.51 2.03,-3.49 2.06,-3.49 2.08,-3.46 2.11,-3.47 2.13,-3.45 2.15,-3.44 2.18,-3.42 2.2,-3.4 2.24,-3.4 2.25,-3.37 2.28,-3.35 2.3,-3.34 2.33,-3.32 2.35,-3.29 2.37,-3.27 2.4,-3.25 2.41,-3.22 2.45,-3.2 2.47,-3.17 2.49,-3.14 2.5,-3.11 2.54,-3.08 2.55,-3.04 2.58,-3.01 2.61,-2.98 2.62,-2.93 2.64,-2.91 2.66,-2.86 2.69,-2.82 2.7,-2.78 2.72,-2.73 2.74,-2.68 2.77,-2.64 2.78,-2.59 2.8,-2.54 2.81,-2.48 2.84,-2.43 2.85,-2.38 2.88,-2.32 2.88,-2.25 2.9,-2.2 2.93,-2.13 2.93,-2.07 2.95,-2 2.97,-1.93 2.97,-1.86 2.99,-1.79 3,-1.71 3.02,-1.64 3.03,-1.56 3.04,-1.48 3.05,-1.4 3.06,-1.3 3.07,-1.23 3.07,-1.14 3.09,-1.04 3.09,-0.96 3.11,-0.86 3.1,-0.76 3.11,-0.67 3.12,-0.56 3.12,-0.46 3.12,-0.36 3.13,-0.25 3.13,-0.14 3.13,-0.03 3.13,0.08 3.13,0.2 3.12,0.31 3.13,0.43 3.12,0.55 3.12,0.68 3.11,0.8 3.11,0.92 3.11,1.05 3.09,1.18 3.08,1.31 3.08,1.44 3.06,1.57 3.06,1.71 3.04,1.85 3.03,1.98 3.02,2.13 2.99,2.26 2.98,2.41 2.97,2.54 2.95,2.7 2.93,2.84 2.91,2.98 2.87,3.14 2.88,3.27 2.83,3.43 2.82,3.57 2.79,3.72 2.76,3.87 2.74,4.02 2.71,4.17 2.67,4.31 2.64,4.48 2.62,4.61 2.58,4.77 2.55,4.91 2.51,5.06 2.47,5.21 2.44,5.35 2.4,5.5 2.35,5.64 2.33,5.78 2.27,5.93 2.23,6.07 2.19,6.2 2.16,6.34 2.1,6.47 2.05,6.61 2.01,6.73 1.95,6.87 1.91,6.99 1.87,7.11 1.8,7.24 1.76,7.35 1.7,7.47 1.65,7.58 1.6,7.68 1.54,7.8 1.49,7.89 1.42,7.99 1.37,8.09 1.31,8.18 1.26,8.27 1.19,8.35 1.14,8.43 1.07,8.51 1.02,8.58 0.94,8.64 0.89,8.71 0.83,8.76 0.76,8.82 0.7,8.87 0.64,8.92 0.57,8.95 0.51,8.99 0.44,9.03 0.38,9.05 0.31,9.06 0.26,9.09 0.18,9.1 0.12,9.108 0.05,9.109 -0.01,9.106 -0.08,9.102 -0.15,9.086 -0.2,9.07 -0.27,9.051 -0.35,9.028 -0.4,8.988 -0.46,8.961 -0.54,8.923 -0.6,8.875 -0.66,8.825 -0.72,8.774 -0.78,8.719 -0.85,8.657 -0.92,8.595 -0.97,8.524 -1.03,8.442 -1.09,8.376 -1.16,8.294 -1.21,8.213 -1.28,8.118 -1.33,8.033 -1.39,7.935 -1.45,7.838 -1.5,7.744 -1.56,7.635 -1.61,7.529 -1.66,7.42 -1.73,7.311 -1.77,7.202 -1.82,7.077 -1.88,6.968 -1.92,6.842 -1.98,6.722 -2.02,6.605 -2.07,6.476 -2.12,6.348 -2.16,6.218 -2.2,6.094 -2.26,5.961 -2.29,5.833 -2.34,5.703 -2.37,5.564 -2.42,5.438 -2.45,5.298 -2.5,5.169 -2.53,5.029 -2.57,4.904 -2.59,4.767 -2.64,4.627 -2.67,4.502 -2.7,4.362 -2.73,4.233 -2.77,4.1 -2.79,3.967 -2.82,3.835 -2.84,3.703 -2.88,3.577 -2.91,3.453 -2.92,3.316 -2.95,3.195 -2.97,3.074 -3,2.946 -3.01,2.82 -3.04,2.708 -3.05,2.582 -3.08,2.466 -3.09,2.345 -3.11,2.235 -3.12,2.122 -3.14,2.014 -3.16,1.896 -3.16,1.794 -3.18,1.685 -3.2,1.581 -3.2,1.482 -3.21,1.381 -3.23,1.276 -3.23,1.19 -3.24,1.088 -3.26,0.995 -3.25,0.905 -3.26,0.823 -3.28,0.726 -3.27,0.647 -3.28,0.566 -3.28,0.488 -3.29,0.402 -3.29,0.327 -3.29,0.258 -3.3,0.183 -3.29,0.106 -3.3,0.05 -3.29,-0.027 -3.3,-0.09 -3.3,-0.148 -3.29,-0.211 -3.29,-0.269 -3.3,-0.332 -3.29,-0.378 -3.28,-0.437 -3.28,-0.488 -3.28,-0.534 -3.28,-0.581 -3.27,-0.628 -3.27,-0.679 -3.26,-0.714 -3.26,-0.757 -3.24,-0.8 -3.25,-0.835 -3.24,-0.862 -3.24,-0.905 -3.22,-0.936 -3.22,-0.968 -3.21,-0.998 -3.21,-1.027 -3.2,-1.053 -3.19,-1.077 -3.19,-1.104 -3.18,-1.123 -3.16,-1.143 -3.16,-1.167 -3.15,-1.19 -3.14,-1.197 -3.14,-1.221 -3.12,-1.237 -3.12,-1.249 -3.11,-1.26 -3.09,-1.272 -3.1,-1.283 -3.07,-1.291 -3.08,-1.303 -3.06,-1.315 -3.05,-1.315 -3.04,-1.326 -3.03,-1.327 -3.03,-1.33 -3.01,-1.334 -3.01,-1.338 -2.99,-1.342 -2.99,-1.339 -2.97,-1.342 -2.97,-1.342 -2.95,-1.338 -2.95,-1.338 -2.93,-1.334 -2.93,-1.331 -2.92,-1.326 -2.91,-1.326 -2.9,-1.323 -2.89,-1.315 -2.88,-1.307 -2.87,-1.299 -2.86,-1.295 -2.85,-1.291 -2.84,-1.276 -2.83,-1.276 -2.83,-1.26 -2.81,-1.252 -2.82,-1.245 -2.79,-1.236 -2.79,-1.221 -2.77,-1.214 -2.78,-1.205 -2.76,-1.198 -2.75,-1.182 -2.75,-1.17 -2.73,-1.159 -2.73,-1.143 -2.72,-1.135 -2.72,-1.124 -2.7,-1.112 -2.69,-1.096 -2.69,-1.081 -2.69,-1.073 -2.67,-1.057 -2.66,-1.045 -2.66,-1.034 -2.64,-1.018 -2.65,-1.003 -2.64,-0.991 -2.63,-0.979 -2.62,-0.964 -2.61,-0.948 -2.61,-0.936 -2.6,-0.921 -2.59,-0.913 -2.59,-0.885 -2.58,-0.886 -2.58,-0.862 -2.57,-0.855 -2.56,-0.838 -2.56,-0.823 -2.55,-0.808 -2.54,-0.796 -2.54,-0.78 -2.54,-0.765 -2.53,-0.757 -2.51,-0.741 -2.53,-0.726 -2.5,-0.713 -2.52,-0.695 -2.5,-0.687 -2.49,-0.671 -2.5,-0.659 -2.49,-0.644 -2.48,-0.628 -2.47,-0.62 -2.48,-0.605 -2.47,-0.597 -2.47,-0.573 -2.46,-0.57 -2.45,-0.554 -2.46,-0.538 -2.45,-0.531 -2.44,-0.515 -2.44,-0.503 -2.45,-0.491 -2.42,-0.484 -2.44,-0.468 -2.43,-0.453 -2.42,-0.445 -2.42,-0.433 -2.42,-0.421 -2.42,-0.413 -2.41,-0.398 -2.41,-0.391 -2.4,-0.374 -2.41,-0.367 -2.4,-0.355 -2.4,-0.347 -2.4,-0.336 -2.39,-0.327 -2.39,-0.316 -2.39,-0.308 -2.39,-0.293 -2.38,-0.289 -2.39,-0.281 -2.38,-0.265 -2.38,-0.261 -2.37,-0.254 -2.38,-0.242 -2.38,-0.234 -2.37,-0.226 -2.37,-0.215 -2.36,-0.21 -2.37,-0.207 -2.37,-0.191 -2.36,-0.188 -2.36,-0.179 -2.37,-0.172 -2.36,-0.167 -2.35,-0.164 -2.36,-0.149 -2.36,-0.152 -2.36,-0.136 -2.35,-0.133 -2.36,-0.132 -2.35,-0.121 -2.35,-0.121 -2.35,-0.114 -2.35,-0.105 -2.36,-0.105 -2.34,-0.094 -2.35,-0.097 -2.35,-0.09 -2.35,-0.082 -2.35,-0.086 -2.34,-0.078 -2.34,-0.07 -2.35,-0.074 -2.34,-0.067 -2.35,-0.066 -2.34,-0.066 -2.35,-0.059 -2.34,-0.054 -2.34,-0.059 -2.34,-0.054 -2.34,-0.047 -2.34,-0.055 -2.34,-0.051 -2.34,-0.046 -2.34,-0.047 -2.35,-0.051 -2.33,-0.047 -2.34,-0.047 -2.34,-0.046 -2.33,-0.051 -2.35,-0.047 -2.33,-0.047 -2.34,-0.054 -2.33,-0.055 -2.34,-0.047 -2.33,-0.062 -2.34,-0.055 -2.33,-0.058 -2.34,-0.059 -2.33,-0.066 -2.34,-0.066 -2.33,-0.075 -2.33,-0.078 -2.34,-0.078 -2.33,-0.078 -2.33,-0.089 -2.33,-0.09 -2.33,-0.094 -2.33,-0.097 -2.33,-0.11 -2.33,-0.113 -2.32,-0.113 -2.33,-0.129 -2.33,-0.124 -2.32,-0.137 -2.32,-0.144 -2.32,-0.152 -2.33,-0.157 -2.31,-0.167 -2.32,-0.172 -2.32,-0.179 -2.32,-0.195 -2.31,-0.196 -2.31,-0.21 -2.32,-0.219 -2.31,-0.226 -2.3,-0.242 -2.32,-0.246 -2.3,-0.257 -2.3,-0.269 -2.3,-0.281 -2.3,-0.289 -2.3,-0.308 -2.3,-0.312 -2.29,-0.328 -2.29,-0.343 -2.29,-0.355 -2.29,-0.367 -2.28,-0.382 -2.28,-0.39 -2.27,-0.41 -2.27,-0.425 -2.28,-0.437 -2.27,-0.453 -2.26,-0.468 -2.26,-0.484 -2.26,-0.499 -2.26,-0.515 -2.25,-0.534 -2.24,-0.554 -2.25,-0.562 -2.24,-0.589 -2.23,-0.601 -2.24,-0.62 -2.22,-0.64 -2.22,-0.656 -2.22,-0.678 -2.21,-0.695 -2.2,-0.714 -2.21,-0.741 -2.19,-0.749 -2.19,-0.78 -2.19,-0.792 -2.18,-0.816 -2.17,-0.842 -2.17,-0.859 -2.17,-0.881 -2.15,-0.898 -2.15,-0.932 -2.14,-0.948 -2.14,-0.968 -2.12,-0.994 -2.13,-1.015 -2.11,-1.037 -2.1,-1.069 -2.1,-1.089 -2.09,-1.108 -2.09,-1.135 -2.07,-1.159 -2.07,-1.19 -2.06,-1.205 -2.05,-1.237 -2.03,-1.252 -2.04,-1.291 -2.02,-1.307 -2.015,-1.335 -2.002,-1.361 -1.995,-1.389 -1.979,-1.416 -1.975,-1.432 -1.964,-1.471 -1.955,-1.49 -1.94,-1.518 -1.933,-1.545 -1.92,-1.572 -1.909,-1.595 -1.897,-1.619 -1.885,-1.651 -1.873,-1.681 -1.858,-1.701 -1.85,-1.732 -1.838,-1.752 -1.823,-1.783 -1.815,-1.814 -1.799,-1.837 -1.784,-1.861 -1.775,-1.885 -1.76,-1.915 -1.741,-1.939 -1.733,-1.966 -1.717,-1.994 -1.697,-2.017 -1.694,-2.04 -1.67,-2.072 -1.662,-2.087 -1.639,-2.118 -1.631,-2.146 -1.607,-2.165 -1.604,-2.189 -1.58,-2.216 -1.565,-2.239 -1.548,-2.263 -1.53,-2.282 -1.521,-2.31 -1.498,-2.329 -1.483,-2.348 -1.47,-2.376 -1.447,-2.388 -1.436,-2.419 -1.416,-2.43 -1.4,-2.458 -1.38,-2.477 -1.362,-2.489 -1.345,-2.517 -1.318,-2.528 -1.31,-2.551 -1.291,-2.563 -1.271,-2.579 -1.256,-2.598 -1.236,-2.614 -1.212,-2.626 -1.201,-2.641 -1.177,-2.653 -1.158,-2.672 -1.138,-2.684 -1.119,-2.688 -1.103,-2.707 -1.083,-2.712 -1.06,-2.727 -1.044,-2.735 -1.021,-2.742 -1.001,-2.751 -0.986,-2.762 -0.962,-2.758 -0.947,-2.774 -0.923,-2.774 -0.903,-2.785 -0.888,-2.778 -0.857,-2.793 -0.845,-2.782 -0.825,-2.793 -0.802,-2.789 -0.786,-2.794 -0.762,-2.789 -0.748,-2.786 -0.723,-2.785 -0.704,-2.786 -0.685,-2.774 -0.661,-2.769 -0.645,-2.77 -0.626,-2.759 -0.598,-2.754 -0.591,-2.75 -0.563,-2.739 -0.548,-2.723 -0.52,-2.719 -0.512,-2.708 -0.485,-2.688 -0.469,-2.684 -0.442,-2.664 -0.435,-2.661 -0.406,-2.633 -0.391,-2.622 -0.372,-2.606 -0.352,-2.587 -0.336,-2.571 -0.321,-2.547 -0.293,-2.536 -0.282,-2.508 -0.258,-2.489 -0.247,-2.47 -0.226,-2.446 -0.212,-2.419 -0.184,-2.403 -0.176,-2.368 -0.16,-2.357 -0.141,-2.313 -0.125,-2.302 -0.102,-2.266 -0.09,-2.24 -0.078,-2.216 -0.058,-2.177 -0.043,-2.157 -0.024,-2.122 -0.019,-2.091 0.007,-2.064 0.016,-2.029 0.031,-1.993 0.047,-1.963 0.063,-1.931 0.07,-1.892 0.09,-1.869 0.102,-1.82 0.113,-1.79 0.129,-1.76 0.137,-1.71 0.157,-1.69 0.16,-1.65 0.176,-1.6 0.192,-1.57 0.195,-1.54 0.212,-1.49 0.215,-1.45 0.234,-1.42 0.243,-1.38 0.25,-1.34 0.258,-1.3 0.27,-1.26 0.282,-1.22 0.289,-1.18 0.294,-1.14 0.305,-1.1 0.312,-1.06 0.317,-1.01 0.333,-0.98 0.328,-0.94 0.344,-0.89 0.349,-0.86 0.352,-0.81 0.359,-0.77 0.368,-0.73 0.368,-0.69 0.375,-0.65 0.38,-0.61 0.383,-0.57 0.391,-0.53 0.391,-0.48 0.395,-0.45 0.403,-0.4 0.395,-0.37 0.407,-0.33 0.411,-0.28 0.406,-0.24 0.407,-0.2 0.415,-0.17 0.41,-0.13 0.415,-0.09 0.418,-0.05 0.415,-0.01 0.415,0.03 0.414,0.06 0.415,0.11 0.41,0.14 0.415,0.18 0.411,0.21 0.407,0.25 0.406,0.29 0.411,0.33 0.403,0.35 0.399,0.4 0.399,0.42 0.395,0.46 0.395,0.5 0.383,0.53 0.387,0.56 0.384,0.59 0.371,0.63 0.372,0.66 0.367,0.69 0.364,0.72 0.356,0.75 0.352,0.78 0.344,0.8 0.341,0.84 0.336,0.87 0.325,0.89 0.324,0.92 0.313,0.95 0.313,0.97 0.297,1.01 0.297,1.01 0.286,1.05 0.278,1.08 0.27,1.1 0.262,1.11 0.258,1.14 0.246,1.17 0.243,1.18 0.227,1.21 0.222,1.22 0.208,1.25 0.207,1.26 0.196,1.29 0.187,1.29 0.172,1.32 0.169,1.33 0.156,1.35 0.153,1.36 0.137,1.38 0.125,1.4 0.121,1.4 0.106,1.42 0.097,1.431 0.082,1.444 0.079,1.455 0.066,1.463 0.063,1.471 0.039,1.482 0.039,1.495 0.023,1.494 0.012,1.506 0.004,1.513 -0.012,1.518 -0.015,1.525 -0.032,1.53 -0.043,1.533 -0.047,1.537 -0.066,1.533 -0.07,1.545 -0.087,1.537 -0.093,1.541 -0.11,1.545 -0.121,1.541 -0.129,1.541 -0.141,1.537 -0.149,1.537 -0.164,1.537 -0.172,1.526 -0.188,1.521 -0.195,1.526 -0.204,1.513 -0.219,1.506 -0.227,1.502 -0.238,1.494 -0.254,1.483 -0.259,1.475 -0.269,1.47 -0.282,1.459 -0.293,1.448 -0.302,1.436 -0.312,1.42 -0.325,1.412 -0.329,1.393 -0.348,1.385 -0.348,1.369 -0.367,1.35 -0.372,1.338 -0.383,1.322 -0.391,1.307 -0.403,1.284 -0.407,1.272 -0.419,1.248 -0.426,1.233 -0.438,1.213 -0.446,1.194 -0.454,1.17 -0.465,1.147 -0.473,1.128 -0.473,1.104 -0.485,1.081 -0.501,1.057 -0.505,1.03 -0.508,1.01 -0.516,0.975 -0.525,0.964 -0.528,0.929 -0.539,0.901 -0.544,0.878 -0.548,0.842 -0.559,0.823 -0.563,0.792 -0.563,0.757 -0.579,0.734 -0.575,0.702 -0.587,0.671 -0.59,0.636 -0.595,0.608 -0.594,0.574 -0.599,0.546 -0.606,0.507 -0.614,0.48 -0.61,0.445 -0.614,0.406 -0.618,0.374 -0.622,0.34 -0.626,0.3 -0.622,0.269 -0.633,0.234 -0.63,0.199 -0.63,0.156 -0.63,0.125 -0.637,0.086 -0.63,0.047 -0.633,0.011 -0.638,-0.023 -0.63,-0.066 -0.637,-0.102 -0.63,-0.136 -0.63,-0.18 -0.637,-0.222 -0.622,-0.258 -0.634,-0.296 -0.622,-0.336 -0.625,-0.378 -0.618,-0.414 -0.618,-0.448 -0.61,-0.5 -0.607,-0.534 -0.606,-0.57 -0.606,-0.612 -0.595,-0.656 -0.594,-0.694 -0.591,-0.733 -0.579,-0.777 -0.579,-0.807 -0.575,-0.855 -0.563,-0.885 -0.559,-0.937 -0.552,-0.967 -0.547,-1.011 -0.532,-1.049 -0.536,-1.085 -0.524,-1.131 -0.508,-1.163 -0.509,-1.201 -0.501,-1.241 -0.485,-1.279 -0.481,-1.319 -0.469,-1.35 -0.461,-1.393 -0.45,-1.431 -0.438,-1.463 -0.431,-1.502 -0.422,-1.53 -0.407,-1.572 -0.395,-1.607 -0.387,-1.639 -0.372,-1.677 -0.359,-1.705 -0.348,-1.74 -0.337,-1.775 -0.324,-1.806 -0.309,-1.838 -0.298,-1.865 -0.285,-1.9 -0.27,-1.931 -0.258,-1.958 -0.243,-1.986 -0.227,-2.017 -0.215,-2.04 -0.199,-2.072 -0.188,-2.099 -0.164,-2.118 -0.153,-2.15 -0.137,-2.173 -0.125,-2.196 -0.109,-2.22 -0.09,-2.239 -0.078,-2.263 -0.055,-2.286 -0.043,-2.306 -0.028,-2.325 -0.007,-2.345 0.007,-2.36 0.024,-2.376 0.043,-2.399 0.059,-2.407 0.078,-2.434 0.09,-2.44 0.113,-2.45 0.125,-2.47 0.145,-2.48 0.168,-2.49 0.18,-2.5 0.2,-2.51 0.223,-2.52 0.23,-2.53 0.254,-2.53 0.278,-2.54 0.286,-2.55 0.313,-2.55 0.324,-2.55 0.348,-2.56 0.364,-2.56 0.379,-2.56 0.403,-2.57 0.419,-2.56 0.438,-2.56 0.458,-2.56 0.473,-2.56 0.493,-2.55 0.512,-2.55 0.528,-2.56 0.544,-2.54 0.571,-2.53 0.582,-2.53 0.599,-2.52 0.626,-2.51 0.637,-2.5 0.657,-2.5 0.673,-2.48 0.692,-2.47 0.708,-2.46 0.732,-2.45 0.743,-2.44 0.762,-2.42 0.783,-2.4 0.798,-2.4 0.809,-2.37 0.833,-2.36 0.849,-2.35 0.864,-2.32 0.88,-2.31 0.9,-2.3 0.915,-2.27 0.935,-2.25 0.951,-2.23 0.958,-2.22 0.978,-2.18 0.997,-2.17 1.009,-2.15 1.025,-2.13 1.044,-2.09 1.056,-2.09 1.068,-2.05 1.087,-2.04 1.107,-2 1.111,-1.99 1.134,-1.96 1.138,-1.93 1.158,-1.91 1.173,-1.88 1.182,-1.85 1.2,-1.83 1.213,-1.8 1.224,-1.78 1.236,-1.74 1.248,-1.73 1.259,-1.69 1.275,-1.67 1.283,-1.64 1.302,-1.61 1.311,-1.58 1.318,-1.55 1.334,-1.52 1.337,-1.5 1.357,-1.47 1.362,-1.44 1.376,-1.41 1.381,-1.38 1.396,-1.35 1.404,-1.32 1.412,-1.3 1.424,-1.26 1.432,-1.24 1.443,-1.21 1.447,-1.17 1.459,-1.16 1.463,-1.11 1.474,-1.09 1.486,-1.06 1.487,-1.04 1.494,-1 1.506,-0.98 1.509,-0.95 1.518,-0.91 1.525,-0.89 1.53,-0.86 1.537,-0.84 1.549,-0.8 1.548,-0.78 1.553,-0.75 1.557,-0.72 1.564,-0.69 1.573,-0.67 1.572,-0.64 1.58,-0.61 1.584,-0.58 1.592,-0.56 1.588,-0.53 1.596,-0.51 1.599,-0.48 1.6,-0.44 1.612,-0.43 1.607,-0.41 1.608,-0.37 1.615,-0.34 1.619,-0.33 1.623,-0.3 1.62,-0.27 1.619,-0.25 1.627,-0.23 1.627,-0.2 1.627,-0.17 1.631,-0.16 1.635,-0.12 1.627,-0.11 1.631,-0.09 1.635,-0.05 1.635,-0.04 1.635,-0.01 1.631,0.01 1.635,0.03 1.631,0.05 1.634,0.08 1.631,0.1 1.631,0.11 1.635,0.14 1.631,0.16 1.625,0.19 1.63,0.2 1.63,0.22 1.62,0.25 1.62,0.26 1.62,0.28 1.63,0.3 1.61,0.33 1.61,0.33 1.62,0.37 1.6,0.38 1.62,0.4 1.6,0.42 1.6,0.43 1.6,0.45 1.59,0.48 1.59,0.49 1.59,0.51 1.58,0.52 1.58,0.55 1.57,0.56 1.58,0.58 1.57,0.6 1.56,0.61 1.56,0.63 1.56,0.65 1.54,0.67 1.55,0.68 1.54,0.69 1.53,0.71 1.54,0.74 1.52,0.74 1.52,0.76 1.51,0.78 1.51,0.8 1.51,0.81 1.49,0.82 1.49,0.84 1.49,0.86 1.48,0.87 1.47,0.89 1.46,0.9 1.47,0.92 1.45,0.92 1.45,0.96 1.44,0.96 1.43,0.97 1.43,0.99 1.41,1.01 1.41,1.02 1.41,1.04 1.39,1.05 1.4,1.06 1.38,1.08 1.37,1.1 1.36,1.11 1.36,1.12 1.35,1.14 1.35,1.15 1.33,1.17 1.33,1.18 1.31,1.19 1.31,1.22 1.3,1.21 1.29,1.24 1.28,1.25 1.27,1.27 1.27,1.28 1.25,1.3 1.25,1.31 1.23,1.32 1.23,1.34 1.21,1.35 1.21,1.37 1.19,1.38 1.19,1.4 1.18,1.4 1.17,1.43 1.16,1.44 1.14,1.45 1.14,1.47 1.12,1.48 1.12,1.5 1.1,1.5 1.09,1.53 1.09,1.54 1.07,1.55 1.06,1.57 1.05,1.59 1.04,1.59 1.02,1.62 1.02,1.62 1,1.65 0.99,1.65 0.98,1.67 0.97,1.69 0.95,1.7 0.94,1.72 0.94,1.73 0.91,1.75 0.91,1.76 0.89,1.78 0.88,1.79 0.87,1.8 0.85,1.83 0.85,1.83 0.82,1.86 0.82,1.86 0.8,1.89 0.78,1.9 0.78,1.92 0.76,1.93 0.75,1.95 0.73,1.96 0.72,1.97 0.7,2 0.69,2 0.68,2.03 0.66,2.04 0.64,2.06 0.64,2.07 0.61,2.09 0.61,2.1 0.58,2.13 0.57,2.13 0.56,2.16 0.54,2.17 0.52,2.18 0.51,2.2 0.5,2.23 0.47,2.23 0.46,2.25 0.45,2.27 0.43,2.28 0.41,2.3 0.39,2.32 0.39,2.33 0.36,2.35 0.35,2.37 0.32,2.38 0.31,2.4 0.3,2.42 0.28,2.43 0.26,2.45 0.24,2.46 0.22,2.49 0.21,2.5 0.18,2.52 0.18,2.53 0.15,2.55 0.13,2.56 0.12,2.59 0.1,2.602 0.08,2.613 0.05,2.638 0.05,2.645 0.02,2.672 v 2.684 l -0.02,2.7 -0.03,2.711 -0.06,2.739 -0.07,2.75 -0.1,2.766 -0.11,2.778 -0.14,2.805 -0.15,2.813 -0.18,2.832 -0.2,2.848 -0.21,2.868 -0.24,2.883 -0.25,2.898 -0.29,2.911 -0.29,2.93 -0.32,2.945 -0.35,2.961 -0.36,2.977 -0.38,2.992 -0.4,3.008 -0.43,3.027 -0.45,3.043 -0.47,3.055 -0.5,3.066 -0.5,3.086 -0.54,3.102 -0.56,3.117 -0.59,3.125 -0.59,3.152 -0.64,3.156 -0.64,3.176 -0.68,3.187 -0.69,3.203 -0.72,3.219 -0.74,3.23 -0.76,3.242 -0.79,3.258 -0.81,3.273 -0.84,3.281 -0.85,3.296 -0.88,3.312 -0.91,3.32 -0.93,3.332 -0.95,3.347 -0.98,3.356 -0.99,3.374 -1.03,3.379 -1.05,3.39 -1.08,3.406 -1.09,3.405 -1.13,3.43 -1.14,3.433 -1.17,3.441 -1.2,3.448 -1.22,3.465 -1.25,3.468 -1.27,3.476 -1.3,3.488 -1.32,3.491 -1.34,3.5 -1.37,3.507 -1.4,3.511 -1.42,3.515 -1.45,3.523 -1.47,3.531 -1.5,3.534 -1.52,3.535 -1.55,3.542 -1.58,3.547 -1.6,3.55 -1.62,3.546 -1.65,3.546 -1.68,3.554 -1.69,3.547 -1.73,3.554 -1.76,3.546 -1.77,3.554 -1.81,3.542 -1.83,3.547 -1.85,3.534 -1.88,3.535 -1.91,3.538 -1.92,3.523 -1.96,3.515 -1.98,3.511 -2,3.5 -2.04,3.499 -2.05,3.484 -2.09,3.472 -2.1,3.464 -2.13,3.445 -2.16,3.441 -2.18,3.422 -2.21,3.409 -2.22,3.391 -2.26,3.37 -2.27,3.355 -2.31,3.34 -2.32,3.312 -2.35,3.297 -2.38,3.269 -2.39,3.25 -2.42,3.222 -2.45,3.191 -2.46,3.172 -2.49,3.137 -2.52,3.109 -2.53,3.078 -2.55,3.043 -2.59,3.016 -2.59,2.977 -2.62,2.933 -2.65,2.907 -2.66,2.855 -2.68,2.821 -2.71,2.774 -2.71,2.739 -2.75,2.68 -2.77,2.637 -2.773,2.59 -2.804,2.536 -2.816,2.489 -2.84,2.427 -2.851,2.376 -2.867,2.317 -2.887,2.255 -2.906,2.197 -2.917,2.134 -2.934,2.067 -2.953,2.002 -2.965,1.931 -2.976,1.861 -2.992,1.786 -3,1.713 -3.019,1.639 -3.024,1.56 -3.043,1.475 -3.051,1.393 -3.054,1.314 -3.074,1.225 -3.079,1.136 -3.086,1.045 -3.089,0.952 -3.102,0.858 -3.106,0.765 -3.113,0.663 -3.117,0.566 -3.121,0.456 -3.122,0.359 -3.125,0.246 -3.132,0.144 -3.129,0.032 -3.126,-0.086 -3.132,-0.195 -3.129,-0.312 -3.122,-0.434 -3.125,-0.553 -3.117,-0.672 -3.113,-0.799 -3.11,-0.925 -3.097,-1.049 -3.098,-1.175 -3.086,-1.31 -3.07,-1.448 -3.071,-1.572 -3.054,-1.709 -3.043,-1.849 -3.024,-1.986 -3.015,-2.126 -3,-2.263 -2.984,-2.407 -2.965,-2.551 -2.945,-2.692 -2.93,-2.84 -2.906,-2.985 -2.886,-3.132 -2.863,-3.277 -2.84,-3.426 -29.373,-47.486 -2.472,-5.208 -2.437,-5.353 -2.401,-5.501 -2.359,-5.641 -2.319,-5.778 -2.281,-5.93 -2.233,-6.062 -2.19,-6.203 -2.147,-6.344 -2.101,-6.468 -2.053,-6.609 -2.007,-6.733 -1.959,-6.867 -1.909,-6.995 -1.862,-7.112 -1.807,-7.233 -1.76,-7.354 -1.697,-7.463 -1.651,-7.584 -1.595,-7.685 -1.545,-7.791 -1.483,-7.9 -1.427,-7.99 -1.369,-8.091 -1.314,-8.181 -1.256,-8.263 -1.185,-8.357 -1.138,-8.427 -1.072,-8.504 -1.017,-8.583 -0.946,-8.641 -0.896,-8.712 -0.821,-8.762 -0.763,-8.825 -0.7,-8.864 -0.638,-8.918 -0.571,-8.957 -0.508,-8.989 -0.446,-9.024 -0.376,-9.043 -0.312,-9.07 -0.255,-9.086 -0.18,-9.102 -0.117,-9.106 -0.055,-9.109 0.012,-9.106 0.078,-9.098 0.145,-9.09 0.207,-9.07 0.27,-9.05 0.344,-9.02 0.403,-9 0.466,-8.96 0.535,-8.92 0.595,-8.88 0.661,-8.82 0.724,-8.77 0.786,-8.72 0.848,-8.66 0.912,-8.59 0.974,-8.52 1.032,-8.45 1.095,-8.37 1.154,-8.3 1.221,-8.21 1.271,-8.11 1.333,-8.04 1.385,-7.94 1.447,-7.84 1.502,-7.73 1.561,-7.64 1.611,-7.53 1.662,-7.42 1.725,-7.31 1.772,-7.2 1.823,-7.09 1.877,-6.96 1.928,-6.84 1.968,-6.72 2.026,-6.61 2.069,-6.47 2.12,-6.35 2.159,-6.22 2.209,-6.09 2.249,-5.96 2.296,-5.84 2.331,-5.69 2.378,-5.57 2.414,-5.43 2.456,-5.3 2.495,-5.17 2.527,-5.04 2.57,-4.9 2.597,-4.76 2.644,-4.63 2.663,-4.5 2.703,-4.36 2.734,-4.24 2.761,-4.09 2.793,-3.97 2.82,-3.84 2.851,-3.7 2.875,-3.58 2.898,-3.45 2.93,-3.32 2.949,-3.19 2.968,-3.07 2.996,-2.95 3.012,-2.82 3.039,-2.7 3.055,-2.59 3.074,-2.46 3.09,-2.35 3.109,-2.24 3.129,-2.11 3.137,-2.02 3.152,-1.9 3.168,-1.79 3.18,-1.68 3.196,-1.59 3.203,-1.48 3.211,-1.38 3.231,-1.28 3.227,-1.18 3.25,-1.09 3.246,-1 3.258,-0.91 3.258,-0.81 3.274,-0.74 3.278,-0.64 3.277,-0.57 3.282,-0.48 3.289,-0.41 3.29,-0.32 3.293,-0.26 3.289,-0.18 3.297,-0.11 3.301,-0.05 3.294,0.03 3.297,0.09 3.293,0.15 3.297,0.21 3.293,0.27 3.29,0.33 3.289,0.38 3.286,0.43 3.281,0.49 3.286,0.53 3.269,0.59 3.278,0.63 3.266,0.68 3.258,0.71 3.258,0.76 3.254,0.8 3.243,0.83 3.238,0.86 3.238,0.91 3.23,0.93 3.22,0.97 3.21,1 3.21,1.03 3.2,1.05 3.18,1.08 3.19,1.1 3.18,1.12 3.16,1.15 3.16,1.16 3.15,1.19 3.14,1.2 3.14,1.22 3.12,1.24 3.12,1.24 3.11,1.27 3.1,1.27 3.09,1.28 3.07,1.29 3.08,1.31 3.06,1.31 3.05,1.31 3.04,1.33 3.03,1.33 3.03,1.33 3.01,1.33 3.01,1.34 2.99,1.34 2.98,1.34 2.98,1.34 2.97,1.35 2.95,1.33 2.95,1.34 2.93,1.34 2.93,1.33 2.92,1.32 2.91,1.33 2.9,1.32 2.89,1.32 2.88,1.3 2.87,1.3 2.86,1.3 2.85,1.28 2.84,1.29 2.83,1.26 2.83,1.27 2.81,1.25 2.81,1.25 2.79,1.23 2.8,1.23 2.77,1.21 2.78,1.21 2.76,1.19 2.75,1.18 2.75,1.18 2.73,1.15 2.73,1.15 2.72,1.13 2.72,1.13 2.7,1.1 2.69,1.1 2.69,1.08 2.68,1.08 2.68,1.05 2.66,1.05 2.66,1.03 2.65,1.02 2.64,1 2.64,1 2.63,0.98 2.61,0.95 2.62,0.96 2.6,0.93 2.61,0.92 2.59,0.91 2.59,0.89 2.58,0.88 2.58,0.87 2.57,0.85 2.56,0.84 2.55,0.82 2.56,0.81 2.54,0.8 2.54,0.78 2.53,0.76 2.53,0.76 2.52,0.74 2.52,0.73 2.51,0.7 2.51,0.71 2.51,0.68 2.49,0.67 2.49,0.66 2.49,0.65 2.49,0.63 2.48,0.62 2.47,0.6 2.47,0.59 2.46,0.58 2.47,0.57 2.45,0.55 2.46,0.54 2.44,0.53 2.45,0.51 2.44,0.51 2.44,0.49 2.44,0.48 2.43,0.47 2.43,0.45 2.42,0.45 2.42,0.43 2.42,0.43 2.41,0.4 2.41,0.4 2.42,0.39 2.41,0.38 2.39,0.37 2.41,0.35 2.4,0.35 2.39,0.33 2.4,0.33 2.39,0.31 2.39,0.31 2.38,0.3 2.39,0.28 2.39,0.28 2.37,0.28 2.39,0.25 2.37,0.25 2.38,0.25 2.37,0.23 2.37,0.23 2.37,0.21 2.37,0.22 2.37,0.2 2.36,0.19 2.37,0.19 2.36,0.18 2.37,0.17 2.35,0.17 2.36,0.16 2.36,0.15 2.36,0.15 2.35,0.14 2.36,0.14 2.36,0.12 2.35,0.13 2.35,0.11 2.35,0.12 2.35,0.11 2.35,0.1 2.35,0.09 2.35,0.1 2.35,0.09 2.34,0.08 2.35,0.09 2.35,0.07 2.34,0.08 2.34,0.07 2.35,0.06 2.35,0.07 2.34,0.07 2.34,0.06 2.35,0.05 2.34,0.05 2.34,0.06 2.34,0.05 2.34,0.06 2.34,0.05 2.34,0.04 2.34,0.05 2.34,0.05 2.34,0.05 2.34,0.04 2.33,0.05 2.34,0.05 2.34,0.05 2.34,0.05 2.33,0.05 2.34,0.05 2.34,0.05 2.33,0.06 2.34,0.06 2.33,0.06 2.34,0.06 2.33,0.07 2.34,0.06 2.33,0.07 2.33,0.08 2.34,0.07 2.33,0.09 2.32,0.08 2.34,0.1 2.33,0.08 2.33,0.11 2.32,0.11 2.34,0.1 2.32,0.13 2.33,0.12 2.32,0.13 2.32,0.14 2.33,0.14 2.32,0.15 2.32,0.15 2.33,0.17 2.31,0.18 2.32,0.18 2.32,0.19 2.31,0.2 2.31,0.2 2.31,0.22 2.31,0.23 2.31,0.24 2.31,0.25 2.3,0.25 2.31,0.27 2.3,0.28 2.3,0.3 2.29,0.3 2.3,0.31 2.3,0.33 2.28,0.34 2.3,0.36 2.28,0.37 2.28,0.37 2.28,0.4 2.28,0.41 2.27,0.42 2.27,0.44 2.27,0.45 2.27,0.47 2.26,0.49 2.26,0.49 2.25,0.52 2.25,0.54 2.25,0.54 2.24,0.57 2.24,0.58 2.24,0.61 2.23,0.62 2.22,0.64 2.22,0.65 2.22,0.68 2.21,0.69 2.21,0.73 2.21,0.73 2.19,0.75 2.19,0.78 2.19,0.79 2.18,0.82 2.17,0.83 2.17,0.87 2.16,0.88 2.16,0.9 2.15,0.93 2.14,0.95 2.13,0.97 2.13,0.99 2.12,1.01 2.12,1.05 2.1,1.06 2.1,1.08 2.1,1.12 2.08,1.13 2.07,1.16 2.07,1.19 2.06,1.21 2.05,1.23 2.03,1.26 2.04,1.29 2.02,1.3 2.01,1.34 2.01,1.36 1.99,1.39 1.98,1.41 1.98,1.44 1.96,1.47 1.95,1.49 1.94,1.51 1.94,1.55 1.92,1.57 1.91,1.6 1.89,1.62 1.89,1.65 1.87,1.68 1.86,1.7 1.85,1.73 1.84,1.76 1.82,1.78 1.81,1.81 1.8,1.84 1.79,1.86 1.77,1.89 1.76,1.9 1.74,1.95 1.74,1.96 1.71,2 1.7,2.01 1.69,2.05 1.67,2.06 1.67,2.1 1.64,2.12 1.63,2.13 1.6,2.17 1.61,2.19 1.58,2.22 1.56,2.24 1.55,2.26 1.54,2.28 1.51,2.31 1.5,2.33 1.49,2.35 1.46,2.37 1.45,2.39 1.44,2.42 1.41,2.44 1.4,2.45 1.38,2.48 1.36,2.49 1.35,2.51 1.32,2.53 1.31,2.55 1.29,2.56 1.27,2.58 1.25,2.6 1.24,2.61 1.21,2.63 1.2,2.64 1.18,2.66 1.16,2.67 1.14,2.68 1.12,2.69 1.1,2.71 1.08,2.71 1.06,2.73 1.05,2.74 1.02,2.74 1,2.75 0.98,2.75 0.97,2.77 0.94,2.77 0.93,2.77 0.9,2.79 0.89,2.78 0.86,2.78 0.84,2.8 0.83,2.79 0.8,2.79 0.78,2.79 0.76,2.78 0.75,2.79 0.72,2.79 0.71,2.78 0.68,2.78 0.67,2.77 0.64,2.77 0.63,2.76 0.6,2.75 0.58,2.75 0.57,2.74 0.55,2.72 0.52,2.72 0.51,2.71 0.48,2.69 0.47,2.68 0.44,2.67 0.44,2.66 0.41,2.63 0.39,2.63 0.37,2.6 0.35,2.58 0.34,2.58 0.32,2.55 0.29,2.53 0.28,2.51 0.27,2.49 0.24,2.47 0.22,2.45 0.21,2.42 0.2,2.39 0.17,2.38 0.16,2.35 0.14,2.32 0.12,2.29 0.1,2.27 0.1,2.247 0.07,2.208 0.06,2.184 0.04,2.158 0.03,2.118 0.02,2.095 -0.01,2.056 -0.02,2.029 -0.03,2.001 -0.05,1.963 -0.06,1.927 -0.07,1.896 -0.09,1.861 -0.1,1.829 -0.11,1.787 -0.13,1.756 -0.14,1.72 -0.16,1.682 -0.16,1.642 -0.17,1.611 -0.19,1.573 -0.2,1.529 -0.21,1.502 -0.22,1.451 -0.23,1.416 -0.24,1.381 -0.25,1.338 -0.26,1.304 -0.27,1.256 -0.28,1.221 -0.29,1.178 -0.3,1.139 -0.3,1.1 -0.31,1.058 -0.32,1.018 -0.33,0.979 -0.34,0.936 -0.34,0.894 -0.34,0.854 -0.36,0.815 -0.36,0.769 -0.36,0.733 -0.38,0.687 -0.37,0.652 -0.38,0.612 -0.38,0.562 -0.39,0.53 -0.39,0.484 -0.4,0.445 -0.4,0.41 -0.4,0.366 -0.4,0.324 -0.41,0.281 -0.41,0.246 -0.41,0.203 -0.41,0.167 -0.42,0.129 -0.41,0.09 -0.41,0.047 -0.42,0.008 -0.41,-0.028 -0.42,-0.062 -0.41,-0.106 -0.41,-0.144 -0.42,-0.179 -0.41,-0.211 -0.41,-0.25 -0.41,-0.288 -0.4,-0.324 -0.41,-0.355 -0.4,-0.394 -0.4,-0.429 -0.39,-0.461 -0.39,-0.491 -0.4,-0.535 -0.38,-0.558 -0.38,-0.597 -0.37,-0.624 -0.38,-0.659 -0.36,-0.691 -0.36,-0.717 -0.36,-0.753 -0.35,-0.781 -0.35,-0.803 -0.33,-0.839 -0.34,-0.866 -0.33,-0.894 -0.32,-0.916 -0.32,-0.952 -0.31,-0.972 -0.29,-1.002 -0.3,-1.026 -0.29,-1.042 -0.27,-1.077 -0.28,-1.096 -0.26,-1.12 -0.25,-1.139 -0.25,-1.162 -0.24,-1.183 -0.23,-1.209 -0.22,-1.225 -0.22,-1.248 -0.2,-1.26 -0.19,-1.284 -0.19,-1.295 -0.18,-1.323 -0.16,-1.33 -0.17,-1.346 -0.14,-1.369 -0.14,-1.374 -0.13,-1.396 -0.11,-1.405 -0.11,-1.42 -0.1,-1.432 -0.09,-1.439 -0.07,-1.455 -0.07,-1.463 -0.06,-1.479 -0.04,-1.482 -0.04,-1.487 -0.02,-1.502 -0.01,-1.506 v -1.513 -1.518 l 0.02,-1.525 0.03,-1.526 0.04,-1.529 0.06,-1.537 0.05,-1.541 0.08,-1.537 0.09,-1.546 0.09,-1.54 0.11,-1.54 0.12,-1.55 0.13,-1.53 0.13,-1.54 0.16,-1.54 0.17,-1.53 0.17,-1.53 0.18,-1.53 0.2,-1.51 0.2,-1.52 0.22,-1.51 0.23,-1.5 0.23,-1.49 0.26,-1.48 0.25,-1.48 0.28,-1.47 0.28,-1.46 0.29,-1.44 0.3,-1.44 0.32,-1.43 0.32,-1.4 0.33,-1.4 0.35,-1.39 0.35,-1.36 0.36,-1.36 0.37,-1.33 0.38,-1.33 0.4,-1.3 0.4,-1.29 0.4,-1.27 0.43,-1.25 0.42,-1.23 0.44,-1.21 0.45,-1.19 0.45,-1.17 0.46,-1.15 0.48,-1.13 0.48,-1.11 0.48,-1.07 0.5,-1.06 0.5,-1.03 0.51,-1.01 0.52,-0.99 0.52,-0.95 0.53,-0.93 0.54,-0.91 0.54,-0.87 0.56,-0.85 0.55,-0.82 0.56,-0.79 0.57,-0.76 0.57,-0.73 0.58,-0.7 0.59,-0.67 0.58,-0.64 0.6,-0.61 0.59,-0.58 0.61,-0.54 0.61,-0.51 0.6,-0.48 0.62,-0.44 0.61,-0.41 0.62,-0.37 0.62,-0.34 0.62,-0.3 0.64,-0.27 0.62,-0.24 0.63,-0.19 0.63,-0.16 0.63,-0.13 0.63,-0.08 0.64,-0.06 h 0.63 l 0.64,0.02 0.63,0.07 0.63,0.1 0.64,0.14 0.63,0.18 0.63,0.22 0.63,0.25 0.62,0.3 0.63,0.34 0.62,0.37 0.62,0.41 0.62,0.46 0.61,0.49 0.61,0.54 0.61,0.57 0.6,0.62 0.6,0.65 0.59,0.69 0.59,0.73 0.59,0.78 0.57,0.81 0.57,0.85 0.57,0.89 0.56,0.94 0.55,0.97 0.54,1 0.54,1.05 0.53,1.09 0.53,1.13 0.51,1.16 0.51,1.21 0.5,1.24 0.48,1.28 0.48,1.31 0.47,1.36 0.47,1.38 0.44,1.43 0.44,1.47 0.43,1.5 0.43,1.53 0.4,1.57 0.4,1.61 0.38,1.64 0.38,1.67 0.36,1.71 0.34,1.75 0.34,1.76 0.33,1.81 0.31,1.84 0.3,1.87 0.28,1.89 0.27,1.93 0.25,1.96 0.25,1.99 0.22,2.01 0.22,2.04 0.2,2.08 0.19,2.09 0.16,2.13 0.16,2.14 0.14,2.18 0.12,2.19 0.11,2.23 0.08,2.231 0.08,2.262 0.06,2.291 0.04,2.301 0.03,2.325 0.01,2.345 -0.01,2.36 -0.03,2.384 -0.04,2.395 -0.05,2.411 -0.08,2.427 -0.09,2.442 -0.11,2.454 -0.13,2.466 -0.15,2.481 -0.16,2.489 -0.19,2.497 -0.2,2.516 -0.21,2.516 -0.24,2.525 -0.25,2.535 -0.27,2.544 -0.3,2.544 -0.3,2.551 -0.33,2.559 -0.34,2.556 -0.37,2.555 -0.39,2.563 -0.39,2.563 -0.42,2.563 -0.44,2.564 -0.45,2.563 -0.48,2.555 -0.49,2.559 -0.51,2.552 -0.54,2.543 -0.54,2.544 -0.57,2.536 -0.58,2.524 -0.61,2.524 -0.61,2.512 -0.64,2.505 -0.66,2.497 -0.67,2.477 -0.69,2.474 -0.72,2.461 -0.72,2.446 -0.75,2.439 -0.76,2.419 -0.78,2.407 -0.8,2.395 -0.81,2.376 -0.83,2.36 -0.85,2.345 -0.87,2.325 -0.88,2.31 -0.9,2.294 -0.92,2.266 -0.93,2.251 -0.94,2.236 -0.97,2.212 -0.97,2.192 -1,2.165 -1.01,2.15 -1.03,2.126 -1.04,2.099 -1.06,2.083 -1.06,2.052 -1.09,2.037 -1.1,2.009 -1.12,1.982 -1.13,1.954 -1.14,1.935 -1.16,1.908 -1.17,1.885 -1.18,1.857 -1.2,1.829 -1.21,1.799 -1.23,1.779 -1.23,1.747 -1.25,1.721 -1.26,1.693 -1.27,1.67 -1.29,1.638 -1.3,1.608 -1.31,1.58 -1.32,1.552 -1.33,1.526 -1.34,1.498 -1.36,1.467 -1.36,1.439 -1.37,1.413 -1.39,1.381 -1.4,1.35 -1.4,1.326 -1.41,1.287 -1.42,1.268 -1.44,1.237 -1.44,1.205 -1.44,1.179 -1.46,1.151 -1.47,1.115 -1.47,1.093 -1.49,1.065 -1.49,1.03 -1.49,1.002 -1.51,0.98 -1.51,0.948 -1.51,0.92 -1.52,0.886 -1.53,0.866 -1.55,0.827 -1.54,0.804 -1.55,0.78 -1.55,0.753 -1.56,0.718 -1.57,0.698 -1.57,0.663 -1.57,0.64 -1.58,0.609 -1.58,0.585 -1.59,0.558 -1.6,0.534 -1.59,0.503 -1.6,0.472 -1.6,0.457 -1.61,0.429 -1.61,0.394 -1.61,0.379 -1.61,0.347 -1.62,0.324 -1.62,0.3 -1.62,0.273 -1.62,0.25 -1.63,0.222 -1.63,0.203 -1.63,0.176 -1.63,0.156 -1.63,0.124 -1.63,0.11 -1.63,0.078 -1.63,0.058 -1.64,0.039 -1.63,0.012 -1.63,-0.008 -1.64,-0.031 -1.63,-0.051 -1.63,-0.078 -1.64,-0.097 -1.63,-0.114 -1.63,-0.144 -1.63,-0.156 -1.63,-0.187 -1.62,-0.199 -1.63,-0.223 -1.63,-0.245 -1.62,-0.262 -1.62,-0.284 -1.62,-0.301 -1.62,-0.324 -1.61,-0.339 -1.61,-0.363 -1.61,-0.382 -1.61,-0.398 -1.6,-0.418 -1.6,-0.44 -1.6,-0.449 -1.6,-0.476 -1.59,-0.492 -1.58,-0.507 -1.59,-0.53 -1.57,-0.539 -1.58,-0.565 -1.58,-0.578 -1.57,-0.601 -1.56,-0.608 -1.56,-0.632 -1.55,-0.648 -1.55,-0.667 -1.55,-0.679 -1.54,-0.694 -1.53,-0.714 -1.53,-0.734 -1.53,-0.745 -1.52,-0.76 -1.51,-0.781 -1.51,-0.792 -1.51,-0.811 -1.49,-0.823 -1.49,-0.839 -1.49,-0.858 -1.47,-0.87 -1.48,-0.89 -1.46,-0.901 -1.46,-0.917 -1.46,-0.932 -1.44,-0.948 -1.44,-0.96 -1.44,-0.979 -1.43,-0.987 -1.41,-1.011 -1.41,-1.018 -1.41,-1.042 -1.39,-1.049 -1.39,-1.061 -1.38,-1.081 -1.38,-1.092 -1.37,-1.112 -1.35,-1.12 -1.35,-1.143 -1.35,-1.151 -1.33,-1.166 -1.32,-1.182 -1.32,-1.194 -1.31,-1.205 -1.3,-1.225 -1.29,-1.241 -1.28,-1.248 -1.27,-1.268 -1.26,-1.284 -1.26,-1.291 -1.25,-1.315 -1.23,-1.322 -1.23,-1.339 -1.21,-1.349 -1.21,-1.37 -1.2,-1.377 -1.18,-1.393 -1.18,-1.412 -1.17,-1.424 -1.16,-1.44 -1.14,-1.451 -1.14,-1.463 -1.12,-1.482 -1.12,-1.498 -1.1,-1.51 -1.09,-1.526 -1.09,-1.541 -1.07,-1.556 -1.06,-1.565 -1.05,-1.587 -1.03,-1.596 -1.03,-1.615 -1.02,-1.627 -1,-1.639 -0.99,-1.654 -0.98,-1.677 -0.97,-1.686 -0.95,-1.697 -0.95,-1.716 -0.93,-1.736 -0.92,-1.748 -0.9,-1.756 -0.89,-1.779 -0.88,-1.794 -0.87,-1.806 -0.86,-1.826 -0.84,-1.834 -0.82,-1.857 -0.82,-1.865 -0.8,-1.884 -0.78,-1.9 -0.78,-1.912 -0.76,-1.935 -0.74,-1.942 -0.74,-1.963 -0.72,-1.982 -0.7,-1.993 -0.69,-2.009 -0.68,-2.025 -0.66,-2.04 -0.65,-2.056 -0.63,-2.072 -0.62,-2.091 -0.59,-2.107 -0.59,-2.118 -0.58,-2.134 -0.55,-2.158 -0.54,-2.165 -0.53,-2.192 -0.5,-2.197 -0.5,-2.22 -0.48,-2.231 -0.46,-2.251 -0.44,-2.271 -0.43,-2.286 -0.42,-2.298 -0.39,-2.317 -0.38,-2.337 -0.36,-2.345 -0.35,-2.372 -0.33,-2.383 -0.31,-2.396 -0.29,-2.418 -0.28,-2.431 -0.26,-2.454 -0.25,-2.461 -0.21,-2.486 -0.22,-2.5 -0.18,-2.517 -0.17,-2.532 -0.15,-2.551 -0.14,-2.563 -0.11,-2.587 -0.1,-2.598 -0.08,-2.618"
           style="fill:none;stroke:#0072bd;stroke-width:20.0052;stroke-linecap:butt;stroke-linejoin:round;stroke-miterlimit:10;stroke-dasharray:none;stroke-opacity:1"
           id="path20" />
      </g>
      <g
         id="g22"
         transform="scale(0.998725,-1.00127)">
        <path
           d="M 498.178,-402.159 H 2178.78"
           style="fill:none;stroke:#000000;stroke-width:10.0056;stroke-linecap:square;stroke-linejoin:round;stroke-miterlimit:10;stroke-dasharray:none;stroke-opacity:1"
           id="path24" />
      </g>
      <g
         id="g26"
         transform="scale(0.998725,-1.00127)">
        <path
           d="M 498.178,-1572.58 H 2178.78"
           style="fill:none;stroke:#000000;stroke-width:10.0056;stroke-linecap:square;stroke-linejoin:round;stroke-miterlimit:10;stroke-dasharray:none;stroke-opacity:1"
           id="path28" />
      </g>
      <g
         id="g30"
         transform="scale(0.998725,-1.00127)">
        <path
           d="m 498.178,-402.159 v -16.787"
           style="fill:none;stroke:#000000;stroke-width:10.0056;stroke-linecap:square;stroke-linejoin:round;stroke-miterlimit:10;stroke-dasharray:none;stroke-opacity:1"
           id="path32" />
      </g>
      <g
         id="g34"
         transform="scale(0.998725,-1.00127)">
        <path
           d="m 1338.48,-402.159 v -16.787"
           style="fill:none;stroke:#000000;stroke-width:10.0056;stroke-linecap:square;stroke-linejoin:round;stroke-miterlimit:10;stroke-dasharray:none;stroke-opacity:1"
           id="path36" />
      </g>
      <g
         id="g38"
         transform="scale(0.998725,-1.00127)">
        <path
           d="m 2178.78,-402.159 v -16.787"
           style="fill:none;stroke:#000000;stroke-width:10.0056;stroke-linecap:square;stroke-linejoin:round;stroke-miterlimit:10;stroke-dasharray:none;stroke-opacity:1"
           id="path40" />
      </g>
      <g
         id="g42"
         transform="scale(0.998725,-1.00127)">
        <path
           d="m 498.178,-1572.58 v 16.79"
           style="fill:none;stroke:#000000;stroke-width:10.0056;stroke-linecap:square;stroke-linejoin:round;stroke-miterlimit:10;stroke-dasharray:none;stroke-opacity:1"
           id="path44" />
      </g>
      <g
         id="g46"
         transform="scale(0.998725,-1.00127)">
        <path
           d="m 1338.48,-1572.58 v 16.79"
           style="fill:none;stroke:#000000;stroke-width:10.0056;stroke-linecap:square;stroke-linejoin:round;stroke-miterlimit:10;stroke-dasharray:none;stroke-opacity:1"
           id="path48" />
      </g>
      <g
         id="g50"
         transform="scale(0.998725,-1.00127)">
        <path
           d="m 2178.78,-1572.58 v 16.79"
           style="fill:none;stroke:#000000;stroke-width:10.0056;stroke-linecap:square;stroke-linejoin:round;stroke-miterlimit:10;stroke-dasharray:none;stroke-opacity:1"
           id="path52" />
      </g>
      <g
         id="g54"
         transform="scale(10)">
        <text
           xml:space="preserve"
           transform="matrix(0.997454,0,0,-1,43.4598,21.4352)"
           style="font-variant:normal;font-weight:normal;font-size:15.0245px;font-family:'Times New Roman';-inkscape-font-specification:Times-Roman;writing-mode:lr-tb;fill:#000000;fill-opacity:1;fill-rule:nonzero;stroke:none"
           id="text58"><tspan
             x="0 5.0031586 86.540672 170.67757"
             y="0"
             sodipodi:role="line"
             id="tspan56">-202</tspan></text>
      </g>
      <path
         d="m 1305.65,52.4023 c 1.75,-1.3789 4.25,-2.0703 7.49,-2.0703 3.12,0 5.87,1.5039 8.24,4.5078 2.38,3.0079 4,6.293 4.88,9.8633 l 6.83,26.6641 c 1.07,4.8203 1.6,8.1094 1.6,9.8628 0,2.504 -0.69,4.696 -2.06,6.575 -1.38,1.875 -3.32,2.812 -5.81,2.812 -3.19,0 -6.17,-1 -8.95,-3.004 -2.78,-2.004 -5.12,-4.523 -7.02,-7.554 -1.9,-3.0356 -3.23,-6.1215 -3.98,-9.2543 -0.25,-0.625 -0.66,-0.9375 -1.22,-0.9375 h -1.87 c -0.75,0 -1.13,0.4375 -1.13,1.3164 v 0.4687 c 1,3.6915 2.67,7.3243 5.01,10.8947 2.34,3.566 5.2,6.445 8.57,8.637 3.38,2.191 6.99,3.285 10.87,3.285 3.68,0 6.99,-0.969 9.92,-2.906 2.94,-1.946 5.03,-4.606 6.28,-7.989 1.69,3.071 3.86,5.653 6.51,7.754 2.65,2.094 5.57,3.141 8.76,3.141 2.12,0 4.31,-0.375 6.56,-1.129 2.24,-0.75 4.07,-1.906 5.48,-3.473 1.4,-1.562 2.1,-3.535 2.1,-5.914 0,-2.504 -0.81,-4.6796 -2.43,-6.5272 -1.63,-1.8477 -3.72,-2.7695 -6.28,-2.7695 -1.56,0 -2.89,0.5156 -3.98,1.5507 -1.09,1.0313 -1.64,2.3321 -1.64,3.895 0,2.128 0.72,3.976 2.16,5.539 1.43,1.566 3.15,2.507 5.15,2.82 -1.75,1.437 -4.22,2.156 -7.4,2.156 -3.25,0 -6.06,-1.5 -8.43,-4.508 -2.38,-3.004 -4.03,-6.3199 -4.97,-9.9527 l -6.64,-26.5743 c -1.07,-4.0039 -1.6,-7.3242 -1.6,-9.9531 0,-2.5039 0.72,-4.6797 2.15,-6.5234 1.44,-1.8477 3.38,-2.7735 5.81,-2.7735 4.69,0 8.87,2.0664 12.55,6.1993 3.69,4.1328 6.09,8.6718 7.22,13.6171 0.19,0.625 0.59,0.9375 1.21,0.9375 h 1.79 c 0.43,0 0.76,-0.1406 0.98,-0.4218 0.22,-0.2813 0.33,-0.6094 0.33,-0.9844 0,-0.0664 -0.03,-0.1914 -0.1,-0.3789 -1.43,-6.0117 -4.41,-11.332 -8.94,-15.961 -4.53,-4.6328 -9.63,-6.9492 -15.32,-6.9492 -3.68,0 -7.01,0.9844 -9.97,2.9571 -2.97,1.9726 -5.04,4.6484 -6.23,8.0312 -1.56,-2.9414 -3.72,-5.5078 -6.46,-7.6992 -2.75,-2.1914 -5.69,-3.2891 -8.81,-3.2891 -2.18,0 -4.4,0.375 -6.65,1.125 -2.25,0.7539 -4.09,1.9102 -5.53,3.4727 -1.43,1.5664 -2.14,3.5703 -2.14,6.0117 0,2.3164 0.82,4.4492 2.48,6.3867 1.65,1.9375 3.69,2.9102 6.13,2.9102 1.62,0 2.99,-0.5039 4.12,-1.5039 1.12,-1 1.69,-2.3164 1.69,-3.9414 0,-2.1289 -0.69,-3.9766 -2.07,-5.543 -1.37,-1.5625 -3.12,-2.5313 -5.24,-2.9063"
         style="fill:#000000;fill-opacity:1;fill-rule:nonzero;stroke:none"
         id="path60" />
      <g
         id="g62"
         transform="scale(0.998725,-1.00127)">
        <path
           d="M 498.178,-402.159 V -1572.58"
           style="fill:none;stroke:#000000;stroke-width:10.0056;stroke-linecap:square;stroke-linejoin:round;stroke-miterlimit:10;stroke-dasharray:none;stroke-opacity:1"
           id="path64" />
      </g>
      <g
         id="g66"
         transform="scale(0.998725,-1.00127)">
        <path
           d="M 2178.78,-402.159 V -1572.58"
           style="fill:none;stroke:#000000;stroke-width:10.0056;stroke-linecap:square;stroke-linejoin:round;stroke-miterlimit:10;stroke-dasharray:none;stroke-opacity:1"
           id="path68" />
      </g>
      <g
         id="g70"
         transform="scale(0.998725,-1.00127)">
        <path
           d="m 498.178,-402.159 h 16.787"
           style="fill:none;stroke:#000000;stroke-width:10.0056;stroke-linecap:square;stroke-linejoin:round;stroke-miterlimit:10;stroke-dasharray:none;stroke-opacity:1"
           id="path72" />
      </g>
      <g
         id="g74"
         transform="scale(0.998725,-1.00127)">
        <path
           d="m 498.178,-987.367 h 16.787"
           style="fill:none;stroke:#000000;stroke-width:10.0056;stroke-linecap:square;stroke-linejoin:round;stroke-miterlimit:10;stroke-dasharray:none;stroke-opacity:1"
           id="path76" />
      </g>
      <g
         id="g78"
         transform="scale(0.998725,-1.00127)">
        <path
           d="m 498.178,-1572.58 h 16.787"
           style="fill:none;stroke:#000000;stroke-width:10.0056;stroke-linecap:square;stroke-linejoin:round;stroke-miterlimit:10;stroke-dasharray:none;stroke-opacity:1"
           id="path80" />
      </g>
      <g
         id="g82"
         transform="scale(0.998725,-1.00127)">
        <path
           d="m 2178.78,-402.159 h -16.79"
           style="fill:none;stroke:#000000;stroke-width:10.0056;stroke-linecap:square;stroke-linejoin:round;stroke-miterlimit:10;stroke-dasharray:none;stroke-opacity:1"
           id="path84" />
      </g>
      <g
         id="g86"
         transform="scale(0.998725,-1.00127)">
        <path
           d="m 2178.78,-987.367 h -16.79"
           style="fill:none;stroke:#000000;stroke-width:10.0056;stroke-linecap:square;stroke-linejoin:round;stroke-miterlimit:10;stroke-dasharray:none;stroke-opacity:1"
           id="path88" />
      </g>
      <g
         id="g90"
         transform="scale(0.998725,-1.00127)">
        <path
           d="m 2178.78,-1572.58 h -16.79"
           style="fill:none;stroke:#000000;stroke-width:10.0056;stroke-linecap:square;stroke-linejoin:round;stroke-miterlimit:10;stroke-dasharray:none;stroke-opacity:1"
           id="path92" />
      </g>
      <g
         id="g94"
         transform="scale(10)">
        <text
           xml:space="preserve"
           transform="matrix(0.997454,0,0,-1,32.1703,34.857)"
           style="font-variant:normal;font-weight:normal;font-size:15.0245px;font-family:'Times New Roman';-inkscape-font-specification:Times-Roman;writing-mode:lr-tb;fill:#000000;fill-opacity:1;fill-rule:nonzero;stroke:none"
           id="text102"><tspan
             x="0 5.0031586"
             y="0"
             sodipodi:role="line"
             id="tspan96">-1</tspan><tspan
             x="4.80755"
             y="-58.5961"
             id="tspan98">0</tspan><tspan
             x="4.80755"
             y="-117.1922"
             id="tspan100">1</tspan></text>
      </g>
      <path
         d="m 147.797,984.512 c -2.184,0 -4.106,0.843 -5.758,2.535 -1.656,1.691 -2.484,3.633 -2.484,5.824 0,1.371 0.359,2.719 1.082,4.039 0.718,1.313 1.734,2.328 3.043,3.047 1.312,0.723 2.683,1.083 4.117,1.083 2.125,0 4.012,-0.8 5.668,-2.395 1.656,-1.598 2.484,-3.524 2.484,-5.774 0,-2.191 -0.828,-4.133 -2.484,-5.824 -1.656,-1.692 -3.543,-2.535 -5.668,-2.535"
         style="fill:#000000;fill-opacity:1;fill-rule:nonzero;stroke:none"
         id="path104" />
      <path
         d="m 235.469,957.426 c 1.375,1.754 2.062,4.258 2.062,7.512 0,3.128 -1.5,5.882 -4.496,8.261 -2.996,2.379 -6.277,4.008 -9.836,4.887 l -26.597,6.852 c -4.809,1.066 -8.09,1.597 -9.84,1.597 -2.496,0 -4.684,-0.687 -6.559,-2.066 -1.867,-1.379 -2.805,-3.321 -2.805,-5.824 0,-3.192 1,-6.184 3,-8.965 1.997,-2.785 4.508,-5.133 7.536,-7.047 3.027,-1.906 6.105,-3.235 9.23,-3.988 0.621,-0.25 0.934,-0.657 0.934,-1.219 v -1.875 c 0,-0.754 -0.438,-1.133 -1.313,-1.133 h -0.469 c -3.683,1.004 -7.304,2.676 -10.867,5.023 -3.554,2.352 -6.426,5.215 -8.613,8.598 -2.188,3.375 -3.277,7.004 -3.277,10.887 0,3.695 0.964,7.012 2.898,9.953 1.941,2.945 4.594,5.043 7.969,6.293 -3.063,1.691 -5.641,3.867 -7.735,6.528 -2.089,2.66 -3.132,5.59 -3.132,8.78 0,2.13 0.375,4.32 1.125,6.57 0.746,2.25 1.902,4.09 3.464,5.5 1.559,1.41 3.524,2.11 5.899,2.11 2.5,0 4.668,-0.81 6.512,-2.45 1.839,-1.62 2.761,-3.72 2.761,-6.29 0,-1.56 -0.515,-2.89 -1.547,-3.99 -1.031,-1.09 -2.324,-1.64 -3.882,-1.64 -2.125,0 -3.969,0.72 -5.528,2.16 -1.562,1.44 -2.5,3.16 -2.812,5.17 -1.434,-1.76 -2.153,-4.23 -2.153,-7.42 0,-3.26 1.5,-6.07 4.497,-8.45 2.996,-2.383 6.308,-4.043 9.925,-4.98 l 26.508,-6.665 c 4,-1.066 7.309,-1.597 9.93,-1.597 2.496,0 4.668,0.719 6.508,2.156 1.843,1.441 2.765,3.383 2.765,5.824 0,4.692 -2.062,8.892 -6.179,12.582 -4.125,3.7 -8.653,6.11 -13.586,7.23 -0.621,0.19 -0.934,0.6 -0.934,1.22 v 1.79 c 0,0.43 0.141,0.76 0.418,0.98 0.281,0.22 0.609,0.33 0.984,0.33 0.063,0 0.188,-0.03 0.379,-0.09 5.992,-1.44 11.301,-4.43 15.918,-8.97 4.621,-4.54 6.93,-9.66 6.93,-15.353 0,-3.695 -0.981,-7.027 -2.949,-10.004 -1.965,-2.973 -4.633,-5.051 -8.008,-6.242 2.934,-1.566 5.492,-3.727 7.68,-6.481 2.187,-2.753 3.277,-5.699 3.277,-8.828 0,-2.191 -0.371,-4.41 -1.121,-6.664 -0.75,-2.254 -1.906,-4.101 -3.465,-5.539 -1.562,-1.441 -3.559,-2.16 -5.992,-2.16 -2.313,0 -4.438,0.832 -6.371,2.488 -1.938,1.661 -2.903,3.711 -2.903,6.149 0,1.629 0.5,3.004 1.5,4.137 0.996,1.125 2.309,1.687 3.93,1.687 2.121,0 3.965,-0.687 5.527,-2.066 1.559,-1.379 2.528,-3.133 2.903,-5.258"
         style="fill:#000000;fill-opacity:1;fill-rule:nonzero;stroke:none"
         id="path106" />
    </g>
  </g>
</svg>
