<?xml version="1.0" encoding="UTF-8" standalone="no"?>
<!-- Created with Inkscape (http://www.inkscape.org/) -->

<svg
   version="1.1"
   id="svg2"
   width="320"
   height="226.66667"
   viewBox="0 0 320 226.66667"
   sodipodi:docname="Step2.eps"
   xmlns:inkscape="http://www.inkscape.org/namespaces/inkscape"
   xmlns:sodipodi="http://sodipodi.sourceforge.net/DTD/sodipodi-0.dtd"
   xmlns="http://www.w3.org/2000/svg"
   xmlns:svg="http://www.w3.org/2000/svg">
  <defs
     id="defs6" />
  <sodipodi:namedview
     id="namedview4"
     pagecolor="#ffffff"
     bordercolor="#000000"
     borderopacity="0.25"
     inkscape:showpageshadow="2"
     inkscape:pageopacity="0.0"
     inkscape:pagecheckerboard="0"
     inkscape:deskcolor="#d1d1d1" />
  <g
     id="g8"
     inkscape:groupmode="layer"
     inkscape:label="ink_ext_XXXXXX"
     transform="matrix(1.3333333,0,0,-1.3333333,0,226.66667)">
    <g
       id="g10"
       transform="scale(0.1)">
      <path
         d="M 0,0.015625 H 2403.79 V 1700.7856 H 0 Z"
         style="fill:#ffffff;fill-opacity:1;fill-rule:nonzero;stroke:none"
         id="path12" />
      <path
         d="M 0,0.015625 H 2403.79 V 1700.7856 H 0 Z"
         style="fill:#ffffff;fill-opacity:1;fill-rule:nonzero;stroke:none"
         id="path14" />
      <path
         d="m 425.609,288.484 h 1750.39 v 1286.1 H 425.609 Z"
         style="fill:#ffffff;fill-opacity:1;fill-rule:nonzero;stroke:none"
         id="path16" />
      <g
         id="g18"
         transform="scale(0.998725,-1.00127)">
        <path
           d="m 426.153,-930.345 h 11.686 11.679 11.687 11.687 11.679 11.686 11.687 11.679 11.687 11.687 11.679 11.686 11.687 11.679 11.687 11.687 11.679 11.686 11.687 11.679 11.687 11.687 11.679 11.686 11.687 11.679 11.687 11.687 11.679 11.686 11.687 11.679 11.687 11.687 11.679 11.686 11.687 11.679 11.687 11.687 11.679 11.686 11.687 11.679 11.687 11.687 11.679 11.686 11.687 11.681 11.68 11.69 11.68 11.69 11.68 11.69 11.68 11.69 11.68 11.68 11.69 11.68 11.68 l 11.69,-0.008 h 11.68 11.69 11.68 l 11.69,-0.008 h 11.68 11.69 11.68 11.68 l 11.69,0.008 h 11.68 l 11.68,0.008 11.69,-0.008 11.68,-0.008 11.69,-0.012 11.68,-0.011 11.69,-0.012 11.68,-0.004 11.69,0.004 11.68,0.019 11.69,0.035 11.68,0.043 11.68,0.035 11.69,0.024 11.68,-0.012 11.68,-0.054 11.69,-0.082 11.68,-0.102 11.69,-0.086 11.68,-0.023 11.69,0.078 11.68,0.211 11.69,0.316 11.68,0.386 11.68,0.328 11.69,0.144 11.68,-0.16 11.68,-0.519 11.69,-0.804 11.68,-0.905 11.69,-0.682 11.68,-0.067 11.69,0.917 11.68,2.083 11.69,3.098 11.68,3.503 11.68,2.876 11.69,0.955 11.69,-1.997 11.67,-5.236 11.69,-7.736 11.69,-8.313 11.68,-9.839 11.68,-11.626 11.69,-10.175 11.68,-10.28 11.69,-11.727 11.68,-10.84 11.68,-8.82 11.69,-9.34 11.69,-11.88 11.67,-13.61 11.69,-15.2 11.69,-15.1 11.68,-15.66 11.68,-16.53 11.69,-14.34 11.68,-13.69 11.69,-14.58 11.68,-13.42 11.68,-11.45 11.69,-12.29 11.69,-15.34 11.67,-17.54 11.69,-19.24 11.69,-18.61 11.68,-17.74 11.68,-16.4 11.69,-15.42 11.68,-16.25 11.69,-15.75 11.68,-14.32 11.68,-11.51 11.69,-10.62 11.69,-12.16 11.67,-13.45 11.69,-15.19"
           style="fill:none;stroke:#0072bd;stroke-width:20.0052;stroke-linecap:butt;stroke-linejoin:bevel;stroke-miterlimit:10;stroke-dasharray:18.0065, 18.0065;stroke-dashoffset:0;stroke-opacity:1"
           id="path20" />
      </g>
      <g
         id="g22"
         transform="scale(0.998725,-1.00127)">
        <path
           d="m 426.153,-930.345 h 11.686 11.679 11.687 11.687 11.679 11.686 11.687 11.679 11.687 11.687 11.679 11.686 11.687 11.679 11.687 11.687 11.679 11.686 11.687 11.679 11.687 11.687 11.679 11.686 11.687 11.679 11.687 11.687 11.679 11.686 11.687 11.679 11.687 11.687 11.679 11.686 11.687 11.679 11.687 11.687 11.679 11.686 11.687 11.679 11.687 11.687 11.679 11.686 11.687 11.681 11.68 11.69 11.68 11.69 11.68 11.69 11.68 11.69 11.68 11.68 11.69 l 11.68,-0.008 h 11.68 11.69 11.68 11.69 11.68 11.69 11.68 11.69 11.68 l 11.68,-0.008 11.69,-0.004 11.68,-0.008 h 11.68 11.69 l 11.68,0.008 11.69,0.012 11.68,0.011 11.69,0.012 11.68,0.008 11.69,-0.008 11.68,-0.015 11.69,-0.039 11.68,-0.036 11.68,-0.019 11.69,0.008 11.68,0.035 11.68,0.066 11.69,0.109 11.68,0.125 11.69,0.102 11.68,0.05 11.69,-0.062 11.68,-0.183 11.69,-0.297 11.68,-0.281 11.68,-0.156 11.69,0.07 11.68,0.375 11.68,0.714 11.69,1.03 11.68,1.135 11.69,0.913 11.68,0.3 11.69,-0.678 11.68,-1.85 11.69,-2.777 11.68,-2.521 11.68,-1.209 11.69,1.034 11.69,3.811 11.67,6.855 11.69,9.605 11.69,10.21 11.68,11.637 11.68,13.452 11.69,12.051 11.68,12.14 11.69,13.565 11.68,12.691 11.68,10.678 11.69,11.189 11.69,13.713 11.67,15.457 11.69,17.033 11.69,16.927 11.68,17.47 11.68,18.348 11.69,16.147 11.68,15.504 11.69,16.374 11.68,15.215 11.68,13.221 11.69,14.072 11.69,17.107 11.67,19.3 11.69,20.996 11.69,20.353 11.68,19.483 11.68,18.126 11.69,17.161 11.68,17.958 11.69,17.466 11.68,16.026 11.68,13.206 11.69,12.316 11.69,13.842 11.67,15.125 11.69,16.858"
           style="fill:none;stroke:#d95319;stroke-width:20.0052;stroke-linecap:butt;stroke-linejoin:round;stroke-miterlimit:10;stroke-dasharray:none;stroke-opacity:1"
           id="path24" />
      </g>
      <g
         id="g26"
         transform="scale(0.998725,-1.00127)">
        <path
           d="M 426.153,-288.117 H 2178.78"
           style="fill:none;stroke:#000000;stroke-width:10.0056;stroke-linecap:square;stroke-linejoin:round;stroke-miterlimit:10;stroke-dasharray:none;stroke-opacity:1"
           id="path28" />
      </g>
      <g
         id="g30"
         transform="scale(0.998725,-1.00127)">
        <path
           d="M 426.153,-1572.58 H 2178.78"
           style="fill:none;stroke:#000000;stroke-width:10.0056;stroke-linecap:square;stroke-linejoin:round;stroke-miterlimit:10;stroke-dasharray:none;stroke-opacity:1"
           id="path32" />
      </g>
      <g
         id="g34"
         transform="scale(0.998725,-1.00127)">
        <path
           d="m 426.153,-288.117 v -17.525"
           style="fill:none;stroke:#000000;stroke-width:10.0056;stroke-linecap:square;stroke-linejoin:round;stroke-miterlimit:10;stroke-dasharray:none;stroke-opacity:1"
           id="path36" />
      </g>
      <g
         id="g38"
         transform="scale(0.998725,-1.00127)">
        <path
           d="m 1010.36,-288.117 v -17.525"
           style="fill:none;stroke:#000000;stroke-width:10.0056;stroke-linecap:square;stroke-linejoin:round;stroke-miterlimit:10;stroke-dasharray:none;stroke-opacity:1"
           id="path40" />
      </g>
      <g
         id="g42"
         transform="scale(0.998725,-1.00127)">
        <path
           d="m 1594.57,-288.117 v -17.525"
           style="fill:none;stroke:#000000;stroke-width:10.0056;stroke-linecap:square;stroke-linejoin:round;stroke-miterlimit:10;stroke-dasharray:none;stroke-opacity:1"
           id="path44" />
      </g>
      <g
         id="g46"
         transform="scale(0.998725,-1.00127)">
        <path
           d="m 2178.78,-288.117 v -17.525"
           style="fill:none;stroke:#000000;stroke-width:10.0056;stroke-linecap:square;stroke-linejoin:round;stroke-miterlimit:10;stroke-dasharray:none;stroke-opacity:1"
           id="path48" />
      </g>
      <g
         id="g50"
         transform="scale(0.998725,-1.00127)">
        <path
           d="m 426.153,-1572.58 v 17.53"
           style="fill:none;stroke:#000000;stroke-width:10.0056;stroke-linecap:square;stroke-linejoin:round;stroke-miterlimit:10;stroke-dasharray:none;stroke-opacity:1"
           id="path52" />
      </g>
      <g
         id="g54"
         transform="scale(0.998725,-1.00127)">
        <path
           d="m 1010.36,-1572.58 v 17.53"
           style="fill:none;stroke:#000000;stroke-width:10.0056;stroke-linecap:square;stroke-linejoin:round;stroke-miterlimit:10;stroke-dasharray:none;stroke-opacity:1"
           id="path56" />
      </g>
      <g
         id="g58"
         transform="scale(0.998725,-1.00127)">
        <path
           d="m 1594.57,-1572.58 v 17.53"
           style="fill:none;stroke:#000000;stroke-width:10.0056;stroke-linecap:square;stroke-linejoin:round;stroke-miterlimit:10;stroke-dasharray:none;stroke-opacity:1"
           id="path60" />
      </g>
      <g
         id="g62"
         transform="scale(0.998725,-1.00127)">
        <path
           d="m 2178.78,-1572.58 v 17.53"
           style="fill:none;stroke:#000000;stroke-width:10.0056;stroke-linecap:square;stroke-linejoin:round;stroke-miterlimit:10;stroke-dasharray:none;stroke-opacity:1"
           id="path64" />
      </g>
      <g
         id="g66"
         transform="scale(10)">
        <text
           xml:space="preserve"
           transform="matrix(0.997454,0,0,-1,39.8633,15.225)"
           style="font-variant:normal;font-weight:normal;font-size:10.0165px;font-family:'Times New Roman';-inkscape-font-specification:Times-Roman;writing-mode:lr-tb;fill:#000000;fill-opacity:1;fill-rule:nonzero;stroke:none"
           id="text72"><tspan
             x="0 58.494858 116.98972 175.48457"
             y="0"
             sodipodi:role="line"
             id="tspan68">0123</tspan><tspan
             x="73.319099 79.439178 82.22377 90.016609 94.463928 96.968056 100.30355 104.19997"
             y="13.4219"
             sodipodi:role="line"
             id="tspan70">Time [s]</tspan></text>
      </g>
      <g
         id="g74"
         transform="scale(0.998725,-1.00127)">
        <path
           d="M 426.153,-288.117 V -1572.58"
           style="fill:none;stroke:#000000;stroke-width:10.0056;stroke-linecap:square;stroke-linejoin:round;stroke-miterlimit:10;stroke-dasharray:none;stroke-opacity:1"
           id="path76" />
      </g>
      <g
         id="g78"
         transform="scale(0.998725,-1.00127)">
        <path
           d="M 2178.78,-288.117 V -1572.58"
           style="fill:none;stroke:#000000;stroke-width:10.0056;stroke-linecap:square;stroke-linejoin:round;stroke-miterlimit:10;stroke-dasharray:none;stroke-opacity:1"
           id="path80" />
      </g>
      <g
         id="g82"
         transform="scale(0.998725,-1.00127)">
        <path
           d="m 426.153,-288.117 h 17.526"
           style="fill:none;stroke:#000000;stroke-width:10.0056;stroke-linecap:square;stroke-linejoin:round;stroke-miterlimit:10;stroke-dasharray:none;stroke-opacity:1"
           id="path84" />
      </g>
      <g
         id="g86"
         transform="scale(0.998725,-1.00127)">
        <path
           d="m 426.153,-609.231 h 17.526"
           style="fill:none;stroke:#000000;stroke-width:10.0056;stroke-linecap:square;stroke-linejoin:round;stroke-miterlimit:10;stroke-dasharray:none;stroke-opacity:1"
           id="path88" />
      </g>
      <g
         id="g90"
         transform="scale(0.998725,-1.00127)">
        <path
           d="m 426.153,-930.345 h 17.526"
           style="fill:none;stroke:#000000;stroke-width:10.0056;stroke-linecap:square;stroke-linejoin:round;stroke-miterlimit:10;stroke-dasharray:none;stroke-opacity:1"
           id="path92" />
      </g>
      <g
         id="g94"
         transform="scale(0.998725,-1.00127)">
        <path
           d="m 426.153,-1251.46 h 17.526"
           style="fill:none;stroke:#000000;stroke-width:10.0056;stroke-linecap:square;stroke-linejoin:round;stroke-miterlimit:10;stroke-dasharray:none;stroke-opacity:1"
           id="path96" />
      </g>
      <g
         id="g98"
         transform="scale(0.998725,-1.00127)">
        <path
           d="m 426.153,-1572.58 h 17.526"
           style="fill:none;stroke:#000000;stroke-width:10.0056;stroke-linecap:square;stroke-linejoin:round;stroke-miterlimit:10;stroke-dasharray:none;stroke-opacity:1"
           id="path100" />
      </g>
      <g
         id="g102"
         transform="scale(0.998725,-1.00127)">
        <path
           d="m 2178.78,-288.117 h -17.53"
           style="fill:none;stroke:#000000;stroke-width:10.0056;stroke-linecap:square;stroke-linejoin:round;stroke-miterlimit:10;stroke-dasharray:none;stroke-opacity:1"
           id="path104" />
      </g>
      <g
         id="g106"
         transform="scale(0.998725,-1.00127)">
        <path
           d="m 2178.78,-609.231 h -17.53"
           style="fill:none;stroke:#000000;stroke-width:10.0056;stroke-linecap:square;stroke-linejoin:round;stroke-miterlimit:10;stroke-dasharray:none;stroke-opacity:1"
           id="path108" />
      </g>
      <g
         id="g110"
         transform="scale(0.998725,-1.00127)">
        <path
           d="m 2178.78,-930.345 h -17.53"
           style="fill:none;stroke:#000000;stroke-width:10.0056;stroke-linecap:square;stroke-linejoin:round;stroke-miterlimit:10;stroke-dasharray:none;stroke-opacity:1"
           id="path112" />
      </g>
      <g
         id="g114"
         transform="scale(0.998725,-1.00127)">
        <path
           d="m 2178.78,-1251.46 h -17.53"
           style="fill:none;stroke:#000000;stroke-width:10.0056;stroke-linecap:square;stroke-linejoin:round;stroke-miterlimit:10;stroke-dasharray:none;stroke-opacity:1"
           id="path116" />
      </g>
      <g
         id="g118"
         transform="scale(0.998725,-1.00127)">
        <path
           d="m 2178.78,-1572.58 h -17.53"
           style="fill:none;stroke:#000000;stroke-width:10.0056;stroke-linecap:square;stroke-linejoin:round;stroke-miterlimit:10;stroke-dasharray:none;stroke-opacity:1"
           id="path120" />
      </g>
      <g
         id="g122"
         transform="scale(10)">
        <text
           xml:space="preserve"
           transform="matrix(0.997454,0,0,-1,15.1859,25.2414)"
           style="font-variant:normal;font-weight:normal;font-size:10.0165px;font-family:'Times New Roman';-inkscape-font-specification:Times-Roman;writing-mode:lr-tb;fill:#000000;fill-opacity:1;fill-rule:nonzero;stroke:none"
           id="text134"><tspan
             x="0 3.3354945 8.3437443 13.351995 18.360245"
             y="0"
             sodipodi:role="line"
             id="tspan124">-4000</tspan><tspan
             x="0 3.3354945 8.3437443 13.351995 18.360245"
             y="-32.152699"
             sodipodi:role="line"
             id="tspan126">-2000</tspan><tspan
             x="18.0291"
             y="-64.305397"
             id="tspan128">0</tspan><tspan
             x="3.0049 8.0131502 13.0214 18.02965"
             y="-96.458099"
             sodipodi:role="line"
             id="tspan130">2000</tspan><tspan
             x="3.0049 8.0131502 13.0214 18.02965"
             y="-128.61079"
             sodipodi:role="line"
             id="tspan132">4000</tspan></text>
        <text
           xml:space="preserve"
           transform="matrix(0,1,0.99745649,0,9.59102,68.2121)"
           style="font-variant:normal;font-weight:normal;font-size:10.0165px;font-family:'Times New Roman';-inkscape-font-specification:Times-Roman;writing-mode:lr-tb;fill:#000000;fill-opacity:1;fill-rule:nonzero;stroke:none"
           id="text138"><tspan
             x="0 5.5691781 10.577432 14.473853 17.258442 20.043032 22.82762 27.835873 32.844128 35.348255 38.68375 46.476593"
             y="0"
             sodipodi:role="line"
             id="tspan136">Position [m]</tspan></text>
        <text
           xml:space="preserve"
           transform="matrix(0.997454,0,0,-1,147.464,42.0691)"
           style="font-variant:normal;font-weight:normal;font-size:9.0147px;font-family:'Times New Roman';-inkscape-font-specification:Times-Roman;writing-mode:lr-tb;fill:#000000;fill-opacity:1;fill-rule:nonzero;stroke:none"
           id="text142"><tspan
             x="0"
             y="0"
             id="tspan140">X</tspan></text>
        <text
           xml:space="preserve"
           transform="matrix(0.997454,0,0,-1,154.058,37.8621)"
           style="font-variant:normal;font-weight:normal;font-size:7.21176px;font-family:'Times New Roman';-inkscape-font-specification:Times-Roman;writing-mode:lr-tb;fill:#000000;fill-opacity:1;fill-rule:nonzero;stroke:none"
           id="text146"><tspan
             x="0"
             y="0"
             id="tspan144">m</tspan></text>
      </g>
      <g
         id="g148"
         transform="scale(0.998725,-1.00127)">
        <path
           d="m 1152.32,-435.172 h 299.2"
           style="fill:none;stroke:#0072bd;stroke-width:20.0052;stroke-linecap:butt;stroke-linejoin:bevel;stroke-miterlimit:10;stroke-dasharray:18.0065, 18.0065;stroke-dashoffset:0;stroke-opacity:1"
           id="path150" />
      </g>
      <g
         id="g152"
         transform="scale(10)">
        <text
           xml:space="preserve"
           transform="matrix(0.997454,0,0,-1,197.817,42.0691)"
           style="font-variant:normal;font-weight:normal;font-size:9.0147px;font-family:'Times New Roman';-inkscape-font-specification:Times-Roman;writing-mode:lr-tb;fill:#000000;fill-opacity:1;fill-rule:nonzero;stroke:none"
           id="text156"><tspan
             x="0"
             y="0"
             id="tspan154">X</tspan></text>
        <text
           xml:space="preserve"
           transform="matrix(0.997454,0,0,-1,204.411,37.8621)"
           style="font-variant:normal;font-weight:normal;font-size:7.21176px;font-family:'Times New Roman';-inkscape-font-specification:Times-Roman;writing-mode:lr-tb;fill:#000000;fill-opacity:1;fill-rule:nonzero;stroke:none"
           id="text160"><tspan
             x="0"
             y="0"
             id="tspan158">s</tspan></text>
      </g>
      <g
         id="g162"
         transform="scale(0.998725,-1.00127)">
        <path
           d="m 1659.45,-435.172 h 299.2"
           style="fill:none;stroke:#d95319;stroke-width:20.0052;stroke-linecap:butt;stroke-linejoin:round;stroke-miterlimit:10;stroke-dasharray:none;stroke-opacity:1"
           id="path164" />
      </g>
    </g>
  </g>
</svg>
