<?xml version="1.0" encoding="UTF-8" standalone="no"?>
<!-- Created with Inkscape (http://www.inkscape.org/) -->

<svg
   version="1.1"
   id="svg2"
   width="320"
   height="226.66667"
   viewBox="0 0 320 226.66667"
   sodipodi:docname="duff_enc.eps"
   xmlns:inkscape="http://www.inkscape.org/namespaces/inkscape"
   xmlns:sodipodi="http://sodipodi.sourceforge.net/DTD/sodipodi-0.dtd"
   xmlns="http://www.w3.org/2000/svg"
   xmlns:svg="http://www.w3.org/2000/svg">
  <defs
     id="defs6" />
  <sodipodi:namedview
     id="namedview4"
     pagecolor="#ffffff"
     bordercolor="#000000"
     borderopacity="0.25"
     inkscape:showpageshadow="2"
     inkscape:pageopacity="0.0"
     inkscape:pagecheckerboard="0"
     inkscape:deskcolor="#d1d1d1" />
  <g
     id="g8"
     inkscape:groupmode="layer"
     inkscape:label="ink_ext_XXXXXX"
     transform="matrix(1.3333333,0,0,-1.3333333,0,226.66667)">
    <g
       id="g10"
       transform="scale(0.1)">
      <path
         d="M 0,0.015625 H 2403.79 V 1700.7856 H 0 Z"
         style="fill:#ffffff;fill-opacity:1;fill-rule:nonzero;stroke:none"
         id="path12" />
      <path
         d="M 0,0.015625 H 2403.79 V 1700.7856 H 0 Z"
         style="fill:#ffffff;fill-opacity:1;fill-rule:nonzero;stroke:none"
         id="path14" />
      <path
         d="m 497.543,402.672 h 1678.46 v 1171.91 H 497.543 Z"
         style="fill:#ffffff;fill-opacity:1;fill-rule:nonzero;stroke:none"
         id="path16" />
      <g
         id="g18"
         transform="scale(0.998725,-1.00127)">
        <path
           d="m 1478.64,-984.48 -0.02,-2.703 v -2.723 l 0.02,-2.739 0.05,-2.766 0.06,-2.75 0.08,-2.779 0.11,-2.79 0.12,-2.82 0.15,-2.8 0.17,-2.8 0.17,-2.83 0.18,-2.84 0.21,-2.84 0.23,-2.86 0.26,-2.88 0.27,-2.93 0.29,-2.92 0.32,-2.94 0.33,-2.96 0.36,-2.95 0.38,-2.98 0.4,-3.02 0.42,-3.01 0.44,-3.04 0.46,-3.05 0.51,-3.04 0.53,-3.08 0.54,-3.08 0.57,-3.07 0.59,-3.09 0.6,-3.14 0.64,-3.13 0.65,-3.15 0.67,-3.18 0.69,-3.18 0.71,-3.22 0.74,-3.2 0.76,-3.23 0.78,-3.21 0.81,-3.26 0.84,-3.25 0.86,-3.27 0.89,-3.29 0.9,-3.28 0.92,-3.3 0.95,-3.32 0.97,-3.34 1.01,-3.35 1.02,-3.32 1.05,-3.36 1.07,-3.36 1.1,-3.4 1.11,-3.37 1.13,-3.39 1.18,-3.43 1.2,-3.42 1.22,-3.45 1.24,-3.42 1.26,-3.46 1.28,-3.44 1.32,-3.46 1.35,-3.47 1.36,-3.47 1.39,-3.49 1.41,-3.51 1.44,-3.49 1.47,-3.51 1.5,-3.53 1.51,-3.53 1.54,-3.54 1.57,-3.52 1.6,-3.55 1.61,-3.54 1.65,-3.55 1.65,-3.56 1.7,-3.56 1.73,-3.55 1.74,-3.57 1.76,-3.57 1.81,-3.54 1.83,-3.57 1.84,-3.56 1.88,-3.57 1.89,-3.58 1.93,-3.55 1.96,-3.54 1.97,-3.56 1.99,-3.56 2.02,-3.54 2.06,-3.54 2.08,-3.51 2.1,-3.54 2.12,-3.54 2.17,-3.51 2.18,-3.51 2.21,-3.5 2.23,-3.48 2.24,-3.48 2.27,-3.47 2.31,-3.45 2.34,-3.45 2.35,-3.43 2.37,-3.43 2.39,-3.41 2.44,-3.35 2.46,-3.33 2.48,-3.32 2.5,-3.32 2.52,-3.3 2.54,-3.28 2.56,-3.25 2.58,-3.2 2.63,-3.2 2.65,-3.17 2.67,-3.12 2.68,-3.13 2.72,-3.07 2.73,-3.05 2.75,-3.01 2.77,-2.99 2.8,-2.93 2.81,-2.89 2.84,-2.88 2.86,-2.82 2.87,-2.77 2.9,-2.74 2.92,-2.67 2.95,-2.63 2.96,-2.6 2.98,-2.53 2.98,-2.5 3.01,-2.43 3.03,-2.36 3.04,-2.33 3.07,-2.23 3.06,-2.2 3.09,-2.13 3.11,-2.07 3.13,-2 3.12,-1.94 3.16,-1.87 3.17,-1.78 3.17,-1.71 3.2,-1.63 3.19,-1.56 3.21,-1.47 3.22,-1.37 3.24,-1.32 3.23,-1.21 3.26,-1.13 3.25,-1.04 3.26,-0.95 3.28,-0.86 3.27,-0.74 3.28,-0.64 3.3,-0.56 3.3,-0.43 3.3,-0.32 3.29,-0.23 3.3,-0.11 3.3,-0.03 3.3,0.08 3.3,0.25 3.3,0.32 3.29,0.47 3.3,0.59 3.3,0.7 3.28,0.85 3.27,0.96 3.28,1.1 3.25,1.22 3.26,1.39 3.24,1.49 3.23,1.65 3.21,1.78 3.22,1.96 3.19,2.03 3.17,2.18 3.18,2.35 3.15,2.49 3.13,2.62 3.11,2.79 3.09,2.96 3.06,3.12 3.05,3.27 3.03,3.4 3,3.57 2.98,3.73 2.94,3.86 2.93,4.06 2.9,4.19 2.85,4.33 2.84,4.52 2.79,4.65 2.78,4.81 2.72,5.01 2.69,5.1 2.65,5.26 2.62,5.46 2.59,5.61 2.54,5.75 2.5,5.9 2.46,6.03 2.41,6.22 2.38,6.37 2.33,6.54 2.27,6.65 2.23,6.79 2.18,6.94 2.12,7.06 2.09,7.19 2.01,7.34 1.97,7.47 1.91,7.58 1.87,7.77 1.81,7.9 1.74,8.01 1.7,8.12 1.65,8.2 1.57,8.32 1.51,8.45 1.45,8.53 1.39,8.66 1.35,8.76 1.27,8.84 1.2,8.93 1.14,8.99 1.07,9.08 1.01,9.17 0.94,9.23 0.88,9.29 0.82,9.36 0.76,9.41 0.67,9.5 0.62,9.53 0.54,9.56 0.48,9.6 0.4,9.62 0.34,9.65 0.27,9.68 0.19,9.7 0.13,9.713 0.06,9.742 -0.03,9.706 -0.08,9.707 -0.14,9.683 -0.22,9.687 -0.29,9.651 -0.36,9.621 -0.41,9.597 -0.51,9.562 -0.57,9.539 -0.63,9.476 -0.7,9.429 -0.77,9.387 -0.84,9.332 -0.9,9.222 -0.97,9.196 -1.03,9.109 -1.09,9.051 -1.18,8.961 -1.24,8.872 -1.3,8.762 -1.36,8.673 -1.43,8.598 -1.49,8.474 -1.54,8.372 -1.6,8.282 -1.65,8.177 -1.73,8.025 -1.78,7.947 -1.82,7.806 -1.9,7.698 -1.95,7.58 -2,7.447 -2.06,7.304 -2.1,7.197 -2.16,7.054 -2.21,6.897 -2.26,6.777 -2.32,6.636 -2.35,6.507 -2.39,6.344 -2.44,6.211 -2.5,6.062 -2.54,5.938 -2.59,5.762 -2.63,5.637 -2.66,5.466 -2.69,5.372 -2.73,5.181 -2.78,5.041 -2.81,4.88 -2.83,4.76 -2.88,4.615 -2.92,4.49 -2.95,4.327 -2.98,4.166 -3,4.046 -3.05,3.878 -3.06,3.749 -3.09,3.628 -3.11,3.468 -3.16,3.336 -3.16,3.207 -3.2,3.055 -3.21,2.929 -3.24,2.801 -3.25,2.677 -3.28,2.551 -3.3,2.403 -3.3,2.279 -3.32,2.149 -3.34,2.06 -3.36,1.931 -3.36,1.846 -3.39,1.685 -3.38,1.572 -3.4,1.475 -3.42,1.346 -3.43,1.268 -3.42,1.139 -3.44,1.049 -3.45,0.987 -3.44,0.874 -3.47,0.745 -3.47,0.66 -3.47,0.569 -3.46,0.511 -3.49,0.387 -3.48,0.327 -3.5,0.242 -3.48,0.148 -3.48,0.067 -3.49,0.035 -3.5,-0.082 -3.48,-0.14 -3.49,-0.196 -3.48,-0.288 -3.49,-0.32 -3.49,-0.371 -3.49,-0.464 -3.46,-0.507 -3.47,-0.574 -3.46,-0.659 -3.47,-0.691 -3.47,-0.713 -3.44,-0.769 -3.45,-0.819 -3.44,-0.859 -3.42,-0.901 -3.43,-0.936 -3.42,-0.991 -3.43,-1.022 -3.4,-1.042 -3.41,-1.1 -3.38,-1.123 -3.38,-1.144 -3.39,-1.213 -3.36,-1.201 -3.36,-1.253 -3.34,-1.252 -3.34,-1.276 -3.34,-1.311 -3.31,-1.33 -3.32,-1.389 -3.3,-1.373 -3.3,-1.381 -3.28,-1.397 -3.27,-1.4 -3.26,-1.416 -3.26,-1.421 -3.23,-1.443 -3.24,-1.471 -3.21,-1.486 -3.22,-1.49 -3.19,-1.475 -3.19,-1.514 -3.18,-1.498 -3.17,-1.502 -3.15,-1.463 -3.15,-1.521 -3.13,-1.487 -3.13,-1.514 -3.11,-1.47 -3.11,-1.506 -3.09,-1.526 -3.08,-1.494 -3.07,-1.517 -3.07,-1.483 -3.05,-1.478 -3.04,-1.483 -3.02,-1.463 -3.03,-1.439 -3,-1.46 -3.01,-1.435 -2.98,-1.452 -2.98,-1.447 -2.97,-1.447 -2.96,-1.44 -2.94,-1.373 -2.94,-1.405 -2.92,-1.4 -2.92,-1.393 -2.9,-1.354 -2.9,-1.365 -2.88,-1.342 -2.87,-1.35 -2.86,-1.315 -2.86,-1.31 -2.85,-1.307 -2.84,-1.272 -2.84,-1.303 -2.81,-1.268 -2.82,-1.264 -2.79,-1.225 -2.8,-1.256 -2.77,-1.19 -2.77,-1.186 -2.78,-1.217 -2.74,-1.147 -2.76,-1.155 -2.73,-1.171 -2.73,-1.108 -2.73,-1.111 -2.71,-1.104 -2.71,-1.073 -2.71,-1.077 -2.69,-1.03 -2.69,-1.042 -2.67,-1.026 -2.66,-1.026 -2.67,-0.995 -2.65,-0.959 -2.65,-0.96 -2.65,-0.964 -2.62,-0.952 -2.63,-0.92 -2.62,-0.925 -2.61,-0.882 -2.6,-0.881 -2.6,-0.858 -2.62,-0.851 -2.58,-0.819 -2.57,-0.816 -2.59,-0.846 -2.57,-0.804 -2.56,-0.811 -2.56,-0.781 -2.57,-0.772 -2.53,-0.745 -2.55,-0.738 -2.54,-0.737 -2.54,-0.714 -2.52,-0.702 -2.53,-0.675 -2.51,-0.671 -2.53,-0.671 -2.49,-0.667 -2.51,-0.636 -2.5,-0.601 -2.49,-0.608 -2.5,-0.605 -2.49,-0.601 -2.48,-0.593 -2.47,-0.542 -2.48,-0.539 -2.48,-0.534 -2.46,-0.534 -2.46,-0.527 -2.46,-0.531 -2.46,-0.495 -2.45,-0.507 -2.46,-0.469 -2.44,-0.46 -2.43,-0.46 -2.44,-0.464 -2.43,-0.434 -2.44,-0.436 -2.44,-0.433 -2.42,-0.422 -2.41,-0.394 -2.42,-0.398 -2.42,-0.363 -2.41,-0.366 -2.41,-0.367 -2.42,-0.367 -2.42,-0.366 -2.39,-0.356 -2.39,-0.358 -2.4,-0.293 -2.39,-0.332 -2.4,-0.331 -2.4,-0.324 -2.39,-0.328 -2.39,-0.324 -2.4,-0.331 -2.37,-0.289 -2.37,-0.292 -2.38,-0.258 -2.37,-0.257 -2.38,-0.266 -2.37,-0.288 -2.38,-0.289 -2.37,-0.289 -2.38,-0.261 -2.37,-0.23 -2.35,-0.223 -2.35,-0.249 -2.36,-0.254 -2.35,-0.254 -2.35,-0.249 -2.36,-0.254 -2.35,-0.222 -2.35,-0.223 -2.35,-0.222 -2.35,-0.222 -2.36,-0.25 -2.35,-0.254 -2.33,-0.214 -2.33,-0.242 -2.34,-0.246 -2.33,-0.21 -2.33,-0.215 -2.34,-0.211 -2.33,-0.214 -2.32,-0.242 -2.34,-0.246 -2.33,-0.238 -2.33,-0.25 -2.33,-0.238 -2.34,-0.245 -2.31,-0.234 -2.31,-0.203 -2.31,-0.234 -2.31,-0.234 -2.31,-0.266 -2.31,-0.234 -2.31,-0.265 -2.31,-0.265 -2.31,-0.258 -2.31,-0.261 -2.32,-0.266 -2.31,-0.292 -2.28,-0.254 -2.29,-0.288 -2.29,-0.313 -2.29,-0.28 -2.29,-0.313 -2.29,-0.343 -2.29,-0.312 -2.29,-0.32 -2.29,-0.339 -2.27,-0.332 -2.27,-0.335 -2.27,-0.332 -2.27,-0.363 -2.26,-0.39 -2.28,-0.39 -2.27,-0.398 -2.26,-0.39 -2.25,-0.414 -2.25,-0.413 -2.25,-0.441 -2.24,-0.441 -2.25,-0.441 -2.25,-0.472 -2.25,-0.468 -2.22,-0.492 -2.23,-0.495 -2.23,-0.519 -2.22,-0.523 -2.23,-0.518 -2.23,-0.551 -2.2,-0.542 -2.21,-0.569 -2.2,-0.601 -2.21,-0.628 -2.21,-0.632 -2.18,-0.617 -2.19,-0.655 -2.18,-0.648 -2.19,-0.679 -2.16,-0.667 -2.16,-0.671 -2.17,-0.725 -2.17,-0.734 -2.16,-0.725 -2.14,-0.781 -2.14,-0.78 -2.15,-0.804 -2.12,-0.799 -2.12,-0.827 -2.12,-0.859 -2.12,-0.858 -2.1,-0.878 -2.1,-0.905 -2.1,-0.936 -2.08,-0.933 -2.09,-0.952 -2.08,-0.99 -2.06,-1.003 -2.05,-1.038 -2.06,-1.034 -2.04,-1.057 -2.03,-1.084 -2.05,-1.085 -2.01,-1.108 -2.02,-1.163 -2,-1.158 -1.99,-1.182 -1.99,-1.218 -1.98,-1.26 -1.98,-1.268 -1.95,-1.283 -1.954,-1.315 -1.951,-1.346 -1.932,-1.361 -1.933,-1.362 -1.908,-1.381 -1.917,-1.416 -1.889,-1.436 -1.889,-1.463 -1.874,-1.482 -1.865,-1.545 -1.85,-1.529 -1.85,-1.561 -1.831,-1.556 -1.822,-1.584 -1.807,-1.604 -1.792,-1.627 -1.779,-1.65 -1.764,-1.705 -1.768,-1.732 -1.741,-1.724 -1.744,-1.752 -1.725,-1.771 -1.701,-1.795 -1.702,-1.849 -1.678,-1.849 -1.666,-1.861 -1.654,-1.896 -1.639,-1.908 -1.639,-1.943 -1.615,-1.962 -1.604,-1.99 -1.588,-2.009 -1.58,-2.036 -1.553,-2.052 -1.537,-2.076 -1.529,-2.071 -1.514,-2.127 -1.49,-2.118 -1.494,-2.111 -1.471,-2.137 -1.447,-2.154 -1.431,-2.181 -1.424,-2.208 -1.412,-2.228 -1.384,-2.243 -1.369,-2.239 -1.362,-2.298 -1.345,-2.286 -1.326,-2.314 -1.298,-2.356 -1.283,-2.317 -1.287,-2.376 -1.252,-2.372 -1.243,-2.396 -1.221,-2.407 -1.197,-2.407 -1.196,-2.43 -1.178,-2.419 -1.15,-2.473 -1.142,-2.439 -1.111,-2.454 -1.091,-2.473 -1.091,-2.509 -1.072,-2.489 -1.056,-2.492 -1.024,-2.509 -1.01,-2.497 -0.989,-2.551 -0.966,-2.509 -0.962,-2.54 -0.947,-2.531 -0.923,-2.552 -0.907,-2.54 -0.876,-2.559 -0.865,-2.559 -0.841,-2.513 -0.821,-2.57 -0.818,-2.564 -0.797,-2.532 -0.783,-2.574 -0.747,-2.54 -0.739,-2.532 -0.716,-2.551 -0.688,-2.544 -0.673,-2.536 -0.68,-2.532 -0.646,-2.497 -0.629,-2.516 -0.614,-2.509 -0.587,-2.465 -0.567,-2.462 -0.564,-2.489 -0.551,-2.485 -0.524,-2.442 -0.501,-2.431 -0.481,-2.457 -0.469,-2.447 -0.438,-2.379 -0.438,-2.376 -0.419,-2.372 -0.403,-2.364 -0.379,-2.353 -0.36,-2.309 -0.352,-2.318 -0.336,-2.274 -0.321,-2.271 -0.285,-2.227 -0.298,-2.263 -0.274,-2.22 -0.254,-2.185 -0.227,-2.141 -0.234,-2.142 -0.211,-2.107 -0.192,-2.134 -0.161,-2.087 -0.176,-2.06 -0.14,-2.052 -0.129,-2.009 -0.126,-1.986 -0.101,-1.947 -0.09,-1.876 -0.078,-1.912 -0.067,-1.865 -0.043,-1.829 -0.039,-1.811 -0.024,-1.755 v -1.728 -1.701 l 0.024,-1.654 0.016,-1.635 0.043,-1.619 0.047,-1.592 0.062,-1.553 0.082,-1.513 0.086,-1.489 0.106,-1.42 0.102,-1.42 0.129,-1.38 0.125,-1.35 0.125,-1.36 0.145,-1.28 0.148,-1.26 0.169,-1.21 0.168,-1.19 0.187,-1.12 0.192,-1.09 0.192,-1.06 0.203,-1.03 0.215,-0.99 0.208,-0.97 0.23,-0.93 0.235,-0.89 0.231,-0.84 0.25,-0.81 0.254,-0.74 0.251,-0.75 0.25,-0.7 0.278,-0.65 0.27,-0.65 0.277,-0.59 0.27,-0.56 0.293,-0.52 0.294,-0.49 0.293,-0.43 0.293,-0.4 0.298,-0.38 0.293,-0.34 0.293,-0.32 0.317,-0.28 0.313,-0.22 0.313,-0.19 0.317,-0.13 0.313,-0.16 0.317,-0.11 0.32,-0.07 0.313,-0.01 0.317,0.05 0.313,0.03 0.313,0.11 0.317,0.1 0.312,0.16 0.317,0.17 0.317,0.21 0.313,0.25 0.317,0.31 0.289,0.27 0.294,0.32 0.301,0.36 0.289,0.39 0.293,0.41 0.294,0.48 0.301,0.5 0.27,0.52 0.274,0.53 0.273,0.58 0.27,0.58 0.274,0.64 0.27,0.64 0.258,0.66 0.247,0.73 0.258,0.69 0.246,0.74 0.235,0.77 0.227,0.8 0.234,0.83 0.235,0.83 0.211,0.88 0.204,0.88 0.207,0.9 0.195,0.96 0.192,0.93 0.184,0.95 0.168,0.98 0.168,1.01 0.168,1.01 0.153,1.02 0.141,1.06 0.144,1.09 0.126,1.07 0.133,1.1 0.125,1.14 0.105,1.13 0.106,1.15 0.078,1.151 0.09,1.147 0.078,1.147 0.067,1.163 0.059,1.201 0.043,1.19 0.047,1.218 0.043,1.213 0.019,1.213 0.024,1.237 v 1.229 1.225 l -0.024,1.252 -0.019,1.248 -0.024,1.249 -0.043,1.244 -0.043,1.264 -0.063,1.264 -0.062,1.26 -0.082,1.253 -0.086,1.256 -0.082,1.248 -0.11,1.249 -0.102,1.272 -0.125,1.26 -0.125,1.295 -0.153,1.256 -0.144,1.253 -0.141,1.256 -0.168,1.248 -0.168,1.217 -0.192,1.21 -0.196,1.233 -0.203,1.201 -0.215,1.202 -0.203,1.201 -0.235,1.186 -0.235,1.194 -0.246,1.182 -0.258,1.155 -0.247,1.151 -0.274,1.112 -0.277,1.115 -0.29,1.105 -0.293,1.111 -0.293,1.104 -0.317,1.069 -0.321,1.069 -0.309,1.038 -0.336,1.03 -0.337,0.999 -0.336,0.971 -0.36,0.96 -0.356,0.936 -0.36,0.936 -0.379,0.894 -0.372,0.866 -0.375,0.893 -0.403,0.827 -0.399,0.831 -0.399,0.796 -0.422,0.765 -0.419,0.761 -0.422,0.733 -0.419,0.702 -0.445,0.66 -0.439,0.667 -0.438,0.636 -0.442,0.604 -0.438,0.578 -0.461,0.565 -0.47,0.508 -0.461,0.511 -0.458,0.48 -0.461,0.421 -0.462,0.421 -0.485,0.383 -0.489,0.355 -0.481,0.323 -0.477,0.27 -0.489,0.234 -0.485,0.265 -0.481,0.211 -0.485,0.179 -0.481,0.121 -0.481,0.117 -0.485,0.062 -0.481,0.032 -0.485,0.004 h -0.485 l -0.481,-0.055 -0.481,-0.082 -0.485,-0.144 -0.485,-0.176 -0.481,-0.199 -0.481,-0.203 -0.485,-0.257 -0.485,-0.293 -0.481,-0.32 -0.482,-0.347 -0.485,-0.41 -0.488,-0.433 -0.462,-0.456 -0.454,-0.484 -0.465,-0.515 -0.466,-0.577 -0.461,-0.632 -0.458,-0.628 -0.446,-0.687 -0.442,-0.706 -0.438,-0.745 -0.445,-0.8 -0.415,-0.784 -0.426,-0.854 -0.415,-0.906 -0.399,-0.893 -0.403,-0.96 -0.395,-0.987 -0.379,-1.037 -0.38,-1.03 -0.375,-1.101 -0.364,-1.139 -0.352,-1.115 -0.356,-1.171 -0.336,-1.225 -0.333,-1.256 -0.32,-1.272 -0.313,-1.334 -0.317,-1.33 -0.293,-1.382 -0.294,-1.381 -0.277,-1.427 -0.27,-1.491 -0.251,-1.51 -0.254,-1.568 -0.234,-1.56 -0.227,-1.561 -0.212,-1.607 -0.191,-1.627 -0.184,-1.693 -0.168,-1.705 -0.168,-1.709 -0.153,-1.759 -0.145,-1.791 -0.125,-1.806 -0.105,-1.861 -0.106,-1.884 -0.082,-1.877 -0.059,-1.904 -0.066,-1.927 -0.043,-1.919 -0.02,-1.939 -0.023,-1.971 v -2.016 l 0.023,-2.01 0.02,-2.013 0.043,-2.032 0.066,-2.048 0.059,-2.111 0.082,-2.131 0.106,-2.15 0.125,-2.17 0.133,-2.14 0.141,-2.16 0.168,-2.19 0.191,-2.2 0.188,-2.21 0.211,-2.22 0.227,-2.24 0.254,-2.24 0.251,-2.23 0.277,-2.26 0.294,-2.28 0.317,-2.27 0.312,-2.26 0.337,-2.29 0.36,-2.28 0.379,-2.27 0.395,-2.32 0.395,-2.29 0.426,-2.28 0.439,-2.28 0.461,-2.29 0.462,-2.32 0.488,-2.32 0.505,-2.3 0.52,-2.3 0.548,-2.32 0.543,-2.29 0.572,-2.27 0.582,-2.27 0.614,-2.3 0.63,-2.28 0.63,-2.26 0.653,-2.27 0.669,-2.23 0.696,-2.23 0.688,-2.23 0.716,-2.22 0.735,-2.2 0.759,-2.23 0.755,-2.17 0.774,-2.17 0.806,-2.18 0.814,-2.14 0.825,-2.14 0.837,-2.14 0.86,-2.11 0.881,-2.08 0.883,-2.09 0.9,-2.05 0.931,-2.05 0.919,-2.01 0.947,-2 0.966,-2 0.97,-1.99 0.981,-1.96 1.017,-1.95 1.002,-1.92 1.032,-1.91 1.048,-1.87 1.052,-1.87 1.068,-1.84 1.091,-1.83 1.099,-1.76 1.111,-1.79 1.115,-1.76 1.138,-1.75 1.15,-1.68 1.154,-1.69 1.177,-1.64 1.174,-1.62 1.2,-1.6 1.197,-1.61 1.224,-1.56 1.236,-1.53 1.236,-1.53 1.267,-1.47 1.26,-1.46 1.279,-1.4 1.279,-1.39 1.306,-1.39 1.303,-1.33 1.322,-1.32 1.322,-1.29 1.326,-1.29 1.341,-1.28 1.346,-1.22 1.365,-1.22 1.365,-1.18 1.388,-1.15 1.385,-1.12 1.388,-1.12 1.412,-1.05 1.404,-1.05 1.404,-1.02 1.432,-0.98 1.424,-0.95 1.435,-0.96 1.447,-0.88 1.451,-0.89 1.447,-0.86 1.471,-0.85 1.471,-0.82 1.47,-0.78 1.471,-0.8 1.494,-0.72 1.49,-0.69 1.494,-0.69 1.487,-0.64 1.513,-0.62 1.514,-0.64 1.51,-0.59 1.513,-0.54 1.514,-0.54 1.537,-0.5 1.529,-0.47 1.53,-0.47 1.537,-0.44 1.533,-0.41 1.533,-0.36 1.557,-0.38 1.552,-0.34 1.557,-0.32 1.553,-0.28 1.557,-0.25 1.552,-0.26 1.557,-0.23 1.553,-0.2 1.556,-0.17 1.553,-0.14 1.553,-0.15 1.58,-0.07 1.572,-0.1 1.573,-0.07 1.58,-0.05 1.576,-0.01 1.572,0.01 1.573,0.02 1.58,0.04 1.58,0.08 1.572,0.1 1.577,0.1 1.559,0.12 1.55,0.16 1.55,0.18 1.56,0.18 1.55,0.21 1.56,0.24 1.56,0.24 1.55,0.27 1.55,0.3 1.55,0.29 1.56,0.36 1.56,0.36 1.55,0.39 1.53,0.37 1.54,0.41 1.53,0.41 1.53,0.43 1.54,0.47 1.53,0.49 1.51,0.49 1.52,0.51 1.51,0.52 1.51,0.54 1.51,0.57 1.52,0.61 1.49,0.59 1.48,0.63 1.5,0.65 1.49,0.65 1.49,0.68 1.47,0.71 1.47,0.7 1.47,0.72 1.47,0.77 1.46,0.75 1.44,0.79 1.45,0.78 1.45,0.8 1.43,0.83 1.43,0.84 1.43,0.88 1.4,0.86 1.41,0.85 1.41,0.9 1.39,0.91 1.38,0.93 1.39,0.96 1.39,0.99 1.36,0.95 1.37,1.01 1.36,1.01 1.35,1.03 1.34,1.03 1.32,1.05 1.33,1.08 1.32,1.11 1.31,1.07 1.29,1.13 1.31,1.13 1.28,1.12 1.28,1.18 1.27,1.17 1.25,1.2 1.27,1.2 1.23,1.22 1.24,1.25 1.22,1.24 1.22,1.27 1.2,1.29 1.2,1.29 1.19,1.32 1.18,1.34 1.18,1.34 1.15,1.36 1.15,1.39 1.14,1.38 1.13,1.41 1.11,1.43 1.12,1.4 1.09,1.46 1.09,1.44 1.08,1.51 1.07,1.47 1.05,1.49 1.05,1.52 1.03,1.55 1.03,1.54 1.01,1.56 1,1.59 1,1.61 0.98,1.59 0.97,1.63 0.96,1.66 0.95,1.65 0.92,1.71 0.92,1.67 0.91,1.7 0.9,1.72 0.88,1.74 0.89,1.75 0.86,1.79 0.84,1.78 0.84,1.79 0.81,1.83 0.81,1.83 0.8,1.86 0.77,1.87 0.78,1.88 0.75,1.89 0.74,1.92 0.73,1.92 0.72,1.96 0.69,1.99 0.7,1.99 0.67,1.97 0.65,2.03 0.65,2.03 0.64,2.05 0.6,2.07 0.59,2.05 0.59,2.09 0.57,2.14 0.54,2.13 0.54,2.13 0.53,2.16 0.51,2.16 0.48,2.2 0.48,2.22 0.47,2.24 0.44,2.26 0.42,2.28 0.41,2.25 0.41,2.28 0.37,2.29 0.36,2.32 0.33,2.36 0.35,2.4 0.31,2.38 0.29,2.41 0.27,2.42 0.26,2.42 0.25,2.44 0.23,2.47 0.21,2.48 0.2,2.52 0.16,2.49 0.14,2.52 0.13,2.54 0.13,2.54 0.1,2.563 0.08,2.583 0.07,2.598 0.04,2.653 0.02,2.672 v 2.692 l -0.02,2.684 -0.04,2.704 -0.07,2.723 -0.06,2.723 -0.08,2.747 -0.1,2.766 -0.13,2.754 -0.15,2.778 -0.17,2.797 -0.19,2.816 -0.2,2.841 -0.24,2.887 -0.25,2.879 -0.27,2.898 -0.29,2.922 -0.32,2.942 -0.34,2.961 -0.35,2.953 -0.38,3 -0.4,3.024 -0.42,3.016 -0.44,3 -0.47,3.023 -0.48,3.082 -0.5,3.098 -0.53,3.082 -0.55,3.109 -0.56,3.129 -0.61,3.137 -0.63,3.128 -0.65,3.153 -0.67,3.203 -0.69,3.195 -0.72,3.179 -0.74,3.234 -0.75,3.227 -0.78,3.246 -0.8,3.265 -0.82,3.254 -0.86,3.3 -0.88,3.312 -0.91,3.285 -0.92,3.332 -0.94,3.347 -0.97,3.344 -0.99,3.362 -1.01,3.379 -1.04,3.367 -1.08,3.413 -1.09,3.406 -1.11,3.426 -1.14,3.421 -1.16,3.433 -1.19,3.421 -1.22,3.469 -1.24,3.433 -1.26,3.484 -1.28,3.476 -1.32,3.484 -1.35,3.476 -1.37,3.495 -1.38,3.484 -1.41,3.542 -1.45,3.488 -1.47,3.511 -1.49,3.535 -1.51,3.523 -1.54,3.511 -1.57,3.53 -1.6,3.547 -1.61,3.534 -1.64,3.531 -1.66,3.546 -1.71,3.539 -1.72,3.523 -1.75,3.538 -1.75,3.538 -1.79,3.523 -1.83,3.539 -1.85,3.53 -1.87,3.519 -1.89,3.539 -1.91,3.53 -1.95,3.488 -1.98,3.476 -1.99,3.5 -2.03,3.484 -2.03,3.452 -2.08,3.429 -2.1,3.426 -2.12,3.445 -2.14,3.433 -2.17,3.398 -2.18,3.386 -2.23,3.343 -2.25,3.332 -2.27,3.324 -2.29,3.343 -2.3,3.309 -2.34,3.3 -2.35,3.258 -2.4,3.242 -2.41,3.203 -2.44,3.164 -2.46,3.128 -2.47,3.121 -2.51,3.078 -2.52,3.043 -2.54,3.008 -2.56,2.965 -2.58,2.957 -2.61,2.926 -2.63,2.88 -2.64,2.844 -2.67,2.805 -2.69,2.766 -2.709,2.703 -2.734,2.634 -2.745,2.598 -2.781,2.559 -2.793,2.489 -2.796,2.462 -2.809,2.419 -2.839,2.356 -2.855,2.29 -2.875,2.22 -2.883,2.161 -2.898,2.122 -2.918,2.029 -2.945,1.959 -2.937,1.903 -2.965,1.807 -2.984,1.771 -2.981,1.65 -3.007,1.607 -3,1.526 -3.028,1.396 -3.023,1.37 -3.051,1.272 -3.043,1.19 -3.066,1.084 -3.066,1.034 -3.067,0.882 -3.086,0.815 -3.09,0.726 -3.093,0.612 -3.086,0.531 -3.082,0.37 -3.118,0.312 -3.101,0.192 -3.11,0.078 -3.117,-0.039 -3.106,-0.129 -3.105,-0.246 -3.113,-0.367 -3.106,-0.507 -3.09,-0.612 -3.09,-0.742 -3.086,-0.85 -3.09,-0.995 -3.07,-1.108 -3.058,-1.221 -3.051,-1.365 -3.043,-1.506 -3.024,-1.643 -3.027,-1.79 -3.008,-1.928 -2.999,-2.044 -2.985,-2.185 -2.964,-2.317 -2.942,-2.493 -2.941,-2.629 -2.914,-2.77 -2.906,-2.911 -2.875,-3.043 -2.859,-3.214 -2.831,-3.355 -2.797,-3.472 -2.773,-3.683 -2.75,-3.808 -2.73,-3.952 -2.311,5.77 -2.73,-4.479 -2.715,-4.615 -2.663,-4.771 -2.652,-4.939 -2.605,-5.099 -2.558,-5.286 -2.527,-5.384 -2.499,-5.552 -2.46,-5.707 -2.413,-5.864 -2.37,-6.027 -2.335,-6.153 -2.269,-6.273 -2.225,-6.433 -2.187,-6.589 -2.143,-6.718 -2.101,-6.878 -2.033,-6.995 -1.999,-7.124 -1.932,-7.245 -1.893,-7.404 -1.831,-7.522 -1.779,-7.682 -1.725,-7.775 -1.682,-7.869 -1.619,-7.986 -1.549,-8.114 -1.494,-8.232 -1.451,-8.329 -1.389,-8.423 -1.318,-8.509 -1.263,-8.602 -1.201,-8.696 -1.126,-8.782 -1.076,-8.879 -1.009,-8.961 -0.943,-9.024 -0.88,-9.094 -0.821,-9.148 -0.759,-9.184 -0.672,-9.262 -0.611,-9.296 -0.539,-9.359 -0.489,-9.387 -0.419,-9.453 -0.336,-9.449 -0.27,-9.476 -0.211,-9.476 -0.149,-9.484 -0.082,-9.519 v -9.508 l 0.059,-9.511 0.133,-9.52 0.183,-9.49 0.27,-9.48 0.337,-9.46 0.403,-9.4 0.461,-9.37 0.548,-9.34 0.606,-9.32 0.673,-9.25 0.735,-9.23 0.802,-9.18 0.856,-9.09 0.947,-9.03 1.009,-8.94 1.068,-8.89 1.134,-8.8 1.201,-8.75 1.263,-8.63 1.326,-8.58 1.381,-8.42 1.435,-8.36 1.486,-8.28 1.557,-8.18 1.611,-8.04 1.69,-7.96 1.713,-7.83 1.792,-7.71 1.846,-7.6 1.893,-7.46 1.955,-7.34 1.995,-7.25 2.057,-7.06 2.101,-6.97 2.166,-6.82 2.203,-6.72 2.252,-6.54 2.312,-6.41 2.351,-6.28 2.393,-6.17 2.433,-6.03 2.484,-5.87 2.522,-5.73 2.562,-5.61 2.605,-5.43 2.648,-5.31 2.687,-5.16 2.707,-5.01 2.757,-4.85 2.789,-4.75 2.816,-4.58 2.859,-4.46 2.879,-4.29 2.917,-4.17 2.942,-4.07 2.984,-3.87 3.004,-3.75 3.027,-3.62 3.066,-3.46 3.086,-3.36 3.11,-3.18 3.133,-3.08 3.144,-2.96 3.176,-2.82 3.192,-2.71 3.219,-2.58 3.234,-2.42 3.255,-2.32 3.25,-2.18 3.285,-2.09 3.294,-1.93 3.32,-1.86 3.317,-1.74 3.344,-1.62 3.336,-1.5 3.364,-1.41 3.36,-1.28 3.379,-1.22 3.387,-1.08 3.403,-1 3.403,-0.89 3.402,-0.83 3.403,-0.72 3.423,-0.62 3.426,-0.52 3.422,-0.47 3.426,-0.39 3.427,-0.3 3.442,-0.19 3.449,-0.14 3.446,-0.06 3.438,0.01 3.454,0.1 3.441,0.11 3.442,0.21 3.427,0.27 3.426,0.38 3.422,0.4 3.423,0.44 3.426,0.52 3.422,0.55 3.426,0.62 3.403,0.65 3.403,0.72 3.403,0.72 3.402,0.82 3.388,0.82 3.379,0.88 3.384,0.95 3.38,0.95 3.36,0.99 3.36,1.03 3.34,1.07 3.34,1.1 3.35,1.1 3.31,1.16 3.32,1.15 3.32,1.18 3.3,1.21 3.29,1.26 3.29,1.25 3.27,1.25 3.26,1.31 3.26,1.3 3.25,1.33 3.23,1.32 3.24,1.35 3.22,1.35 3.21,1.37 3.19,1.36 3.2,1.39 3.16,1.39 3.18,1.38 3.15,1.41 3.15,1.37 3.13,1.43 3.13,1.39 3.14,1.43 3.1,1.42 3.11,1.41 3.09,1.41 3.09,1.41 3.06,1.4 3.07,1.4 3.05,1.41 3.04,1.4 3.03,1.38 3.02,1.37 3.01,1.37 3,1.35 2.99,1.33 2.97,1.37 2.97,1.33 2.96,1.32 2.94,1.29 2.94,1.31 2.94,1.32 2.92,1.28 2.93,1.31 2.89,1.24 2.9,1.24 2.88,1.26 2.88,1.23 2.88,1.21 2.85,1.21 2.86,1.2 2.84,1.19 2.83,1.15 2.84,1.16 2.82,1.14 2.81,1.09 2.79,1.11 2.79,1.08 2.8,1.08 2.77,1.04 2.78,1.07 2.77,1.02 2.75,1 2.76,1 2.73,1 2.73,0.94 2.73,0.96 2.71,0.96 2.71,0.9 2.71,0.89 2.71,0.9 2.68,0.86 2.7,0.83 2.68,0.83 2.67,0.86 2.67,0.79 2.67,0.79 2.67,0.79 2.64,0.76 2.65,0.72 2.65,0.73 2.64,0.73 2.62,0.71 2.63,0.66 2.63,0.66 2.63,0.66 2.6,0.62 2.61,0.59 2.6,0.59 2.61,0.62 2.6,0.6 2.59,0.55 2.58,0.55 2.58,0.55 2.59,0.52 2.58,0.5 2.56,0.48 2.56,0.49 2.57,0.45 2.56,0.44 2.57,0.42 2.56,0.43 2.54,0.42 2.55,0.39 2.53,0.35 2.55,0.36 2.54,0.36 2.54,0.36 2.54,0.34 2.55,0.3 2.52,0.29 2.52,0.29 2.51,0.3 2.53,0.29 2.51,0.23 2.53,0.24 2.52,0.23 2.52,0.24 2.53,0.23 2.51,0.2 2.52,0.18 2.52,0.17 2.52,0.18 2.5,0.16 2.51,0.14 2.5,0.14 2.49,0.14 2.5,0.14 2.51,0.11 2.49,0.07 2.5,0.08 2.51,0.08 2.5,0.08 2.49,0.08 2.5,0.08 2.5,0.08 2.51,0.04 2.5,0.06 2.49,0.05 2.5,0.05 2.51,0.02 2.49,0.02 2.5,0.02 2.5,0.02 2.5,0.05 2.5,-0.01 2.5,-0.01 h 2.5 l 2.51,-0.02 h 2.49 l 2.5,-0.02 h 2.5 l 2.51,-0.01 2.49,-0.01 2.5,-0.03 2.5,-0.05 2.5,-0.03 2.5,-0.04 2.5,-0.04 2.5,-0.01 2.5,-0.01 2.5,-0.07 2.5,-0.03 2.5,-0.04 2.51,-0.04 2.49,-0.01 2.5,-0.04 2.5,-0.04 2.5,-0.03 2.5,-0.04 2.5,-0.01 2.5,-0.04 2.5,-0.01 h 2.5 l 2.5,-0.01 2.5,-0.01 2.5,-0.01 2.5,-0.01 2.5,0.02 2.5,-0.01 2.5,0.02 2.5,0.05 2.5,0.02 2.5,0.05 2.49,0.02 2.51,0.06 2.5,0.07 2.5,0.08 2.5,0.05 2.5,0.08 2.49,0.11 2.51,0.14 2.5,0.11 2.5,0.1 2.5,0.14 2.5,0.16 2.5,0.17 2.5,0.17 2.49,0.2 2.49,0.18 2.48,0.22 2.48,0.25 2.47,0.24 2.48,0.25 2.48,0.28 2.48,0.26 2.48,0.31 2.48,0.34 2.47,0.33 2.48,0.36 2.46,0.36 2.46,0.38 2.46,0.41 2.45,0.44 2.46,0.45 2.46,0.44 2.46,0.5 2.44,0.49 2.43,0.52 2.44,0.58 2.44,0.55 2.43,0.61 2.44,0.6 2.42,0.66 2.41,0.67 2.42,0.71 2.42,0.75 2.39,0.7 2.39,0.77 2.4,0.77 2.39,0.82 2.38,0.85 2.37,0.9 2.37,0.91 2.36,0.9 2.35,0.94 2.35,0.99 2.34,1.03 2.33,1.03 2.33,1.07 2.31,1.11 2.31,1.14 2.31,1.17 2.29,1.19 2.29,1.22 2.27,1.24 2.27,1.28 2.25,1.31 2.25,1.35 2.24,1.38 2.23,1.4 2.23,1.49 2.2,1.5 2.2,1.54 2.2,1.55 2.18,1.59 2.16,1.67 2.14,1.68 2.15,1.72 2.12,1.73 2.12,1.79 2.1,1.78 2.08,1.81 2.08,1.9 2.06,1.94 2.06,1.97 2.03,1.99 2.02,2.05 2,2.06 2,2.12 1.97,2.14 1.95,2.16 1.96,2.22 1.93,2.25 1.91,2.26 1.89,2.31 1.88,2.33 1.86,2.4 1.85,2.4 1.82,2.47 1.82,2.51 1.78,2.53 1.77,2.55 1.76,2.58 1.74,2.6 1.72,2.65 1.71,2.7 1.68,2.76 1.65,2.76 1.65,2.76 1.61,2.82 1.6,2.86 1.58,2.88 1.55,2.93 1.53,2.92 1.52,2.98 1.48,2.99 1.47,3.04 1.46,3.07 1.43,3.09 1.41,3.1 1.38,3.18 1.36,3.18 1.35,3.19 1.32,3.25 1.31,3.23 1.28,3.26 1.23,3.3 1.22,3.28 1.2,3.35 1.18,3.32 1.16,3.36 1.13,3.39 1.11,3.39 1.08,3.44 1.04,3.39 1.03,3.45 1.01,3.43 0.99,3.49 0.97,3.47 0.92,3.49 0.9,3.51 0.88,3.5 0.87,3.55 0.83,3.51 0.8,3.55 0.78,3.52 0.76,3.51 0.74,3.55 0.71,3.51 0.67,3.54 0.65,3.51 0.63,3.54 0.61,3.54 0.59,3.52 0.54,3.5 0.53,3.5 0.51,3.52 0.48,3.51 0.46,3.5 0.42,3.45 0.4,3.44 0.38,3.44 0.36,3.46 0.34,3.41 0.28,3.37 0.28,3.36 0.25,3.35 0.23,3.32 0.21,3.34 0.19,3.3 0.17,3.28 0.13,3.24 0.1,3.241 0.08,3.191 0.07,3.129 0.04,3.121 0.02,3.11 v 3.07 l -0.02,3.039 -0.04,2.996 -0.07,2.988 -0.08,2.919 -0.1,2.91 -0.13,2.875 -0.14,2.86 -0.18,2.828 -0.18,2.762 -0.22,2.72 -0.22,2.684 -0.26,2.614 -0.27,2.606 -0.3,2.539 -0.31,2.501 -0.32,2.473 -0.33,2.408 -0.36,2.364 -0.38,2.329 -0.4,2.294 -0.4,2.231 -0.42,2.197 -0.44,2.126 -0.46,2.087 -0.46,2.06 -0.48,1.993 -0.51,1.955 -0.5,1.9 -0.53,1.83 -0.55,1.759 -0.54,1.732 -0.57,1.662 -0.56,1.643 -0.59,1.595 -0.61,1.53 -0.61,1.47 -0.63,1.405 -0.63,1.373 -0.65,1.311 -0.66,1.248 -0.65,1.217 -0.67,1.183 -0.68,1.1 -0.68,1.053 -0.7,0.999 -0.69,0.936 -0.71,0.905 -0.72,0.812 -0.71,0.757 -0.72,0.725 -0.74,0.683 -0.73,0.632 -0.74,0.569 -0.73,0.512 -0.75,0.448 -0.76,0.414 -0.76,0.324 -0.75,0.273 -0.76,0.269 -0.76,0.21 -0.75,0.125 -0.76,0.09 -0.75,0.035 -0.76,0.008 -0.76,-0.055 -0.75,-0.136 -0.76,-0.141 -0.76,-0.203 -0.75,-0.253 -0.76,-0.289 -0.75,-0.374 -0.76,-0.433 -0.76,-0.433 -0.75,-0.492 -0.73,-0.511 -0.74,-0.601 -0.74,-0.659 -0.73,-0.683 -0.74,-0.722 -0.72,-0.768 -0.71,-0.792 -0.72,-0.854 -0.69,-0.906 -0.69,-0.905 -0.69,-0.959 -0.68,-1.015 -0.67,-1.037 -0.67,-1.108 -0.65,-1.116 -0.65,-1.151 -0.66,-1.206 -0.62,-1.26 -0.63,-1.287 -0.61,-1.307 -0.61,-1.369 -0.59,-1.417 -0.59,-1.416 -0.56,-1.463 -0.58,-1.498 -0.54,-1.517 -0.55,-1.541 -0.52,-1.596 -0.53,-1.654 -0.5,-1.643 -0.51,-1.673 -0.48,-1.725 -0.48,-1.72 -0.47,-1.779 -0.43,-1.763 -0.45,-1.795 -0.41,-1.841 -0.42,-1.873 -0.4,-1.892 -0.38,-1.916 -0.38,-1.915 -0.36,-1.963 -0.34,-1.954 -0.33,-2.013 -0.32,-2.005 -0.29,-2.021 -0.29,-2.06 -0.27,-2.04 -0.26,-2.095 -0.23,-2.088 -0.23,-2.141 -0.21,-2.138 -0.19,-2.154 -0.19,-2.134 -0.16,-2.177 -0.16,-2.169 -0.12,-2.185 -0.13,-2.188 -0.1,-2.181 -0.09,-2.232 -0.06,-2.219 -0.06,-2.251 -0.04,-2.24 -0.02,-2.262 v -2.252 l 0.02,-2.243 0.02,-2.274 0.04,-2.263 0.07,-2.259 0.08,-2.274 0.08,-2.28 0.11,-2.24 0.12,-2.26 0.15,-2.25 0.15,-2.25 0.16,-2.24 0.19,-2.26 0.21,-2.23 0.23,-2.23 0.23,-2.25 0.26,-2.24 0.27,-2.22 0.3,-2.22 0.29,-2.19 0.31,-2.18 0.34,-2.17 0.36,-2.2 0.36,-2.16 0.37,-2.15 0.4,-2.12 0.42,-2.1 0.42,-2.11 0.45,-2.13 0.45,-2.09 0.46,-2.05 0.49,-2.06 0.5,-2.04 0.53,-2 0.53,-2.01 0.54,-1.96 0.57,-1.96 0.56,-1.93 0.6,-1.92 0.6,-1.88 0.61,-1.88 0.63,-1.85 0.63,-1.81 0.66,-1.81 0.67,-1.76 0.67,-1.74 0.69,-1.73 0.72,-1.66 0.71,-1.63 0.73,-1.63 0.74,-1.59 0.76,-1.56 0.75,-1.56 0.78,-1.51 0.78,-1.44 0.8,-1.42 0.8,-1.39 0.81,-1.36 0.82,-1.35 0.84,-1.26 0.84,-1.26 0.86,-1.21 0.87,-1.17 0.86,-1.13 0.88,-1.1 0.88,-1.06 0.88,-1.04 0.91,-0.99 0.9,-0.94 0.93,-0.91 0.92,-0.83 0.92,-0.82 0.93,-0.78 0.95,-0.72 0.94,-0.69 0.94,-0.63 0.95,-0.6 0.97,-0.56 0.97,-0.48 0.96,-0.44 0.97,-0.38 0.97,-0.37 0.95,-0.29 0.98,-0.27 0.98,-0.17 0.99,-0.18 0.99,-0.08 0.98,-0.05 0.99,0.03 0.99,0.03 0.99,0.12 0.99,0.15 0.98,0.2 0.97,0.27 0.96,0.31 0.97,0.38 0.96,0.4 0.97,0.46 0.97,0.52 0.97,0.61 0.94,0.6 0.95,0.69 0.94,0.74 0.94,0.78 0.95,0.86 0.92,0.89 0.94,0.96 0.91,1.01 0.91,1.05 0.9,1.11 0.91,1.19 0.88,1.19 0.88,1.28 0.86,1.35 0.86,1.39 0.84,1.43 0.84,1.5 0.83,1.53 0.81,1.61 0.8,1.61 0.8,1.71 0.78,1.74 0.77,1.78 0.76,1.87 0.74,1.89 0.73,1.95 0.71,1.99 0.7,2.01 0.69,2.11 0.67,2.15 0.65,2.2 0.64,2.23 0.62,2.28 0.61,2.3 0.59,2.39 0.56,2.43 0.56,2.48 0.54,2.48 0.53,2.53 0.5,2.58 0.48,2.63 0.46,2.65 0.45,2.7 0.42,2.72 0.4,2.77 0.37,2.83 0.36,2.83 0.34,2.87 0.31,2.91 0.3,2.96 0.27,2.95 0.25,3.01 0.23,3.02 0.21,3.04 0.19,3.07 0.17,3.11 0.15,3.13 0.12,3.19 0.11,3.17 0.08,3.196 0.06,3.218 0.05,3.234 0.02,3.258 v 3.277 l -0.04,3.289 -0.06,3.308 -0.09,3.3 -0.1,3.32 -0.13,3.344 -0.14,3.363 -0.18,3.355 -0.21,3.359 -0.23,3.363 -0.25,3.37 -0.27,3.398 -0.3,3.391 -0.31,3.382 -0.34,3.394 -0.37,3.386 -0.41,3.375 -0.41,3.359 -0.45,3.386 -0.46,3.379 -0.48,3.367 -0.53,3.351 -0.54,3.343 -0.57,3.332 -0.59,3.324 -0.61,3.312 -0.63,3.34 -0.65,3.3 -0.68,3.258 -0.7,3.273 -0.74,3.226 -0.76,3.23 -0.78,3.211 -0.8,3.211 -0.81,3.14 -0.84,3.129 -0.86,3.125 -0.88,3.109 -0.91,3.079 -0.92,3.062 -0.95,3.031 -0.99,2.985 -1,2.969 -1.04,2.933 -1.04,2.93 -1.08,2.86 -1.09,2.848 -1.11,2.809 -1.11,2.817 -1.14,2.773 -1.15,2.735 -1.18,2.665 -1.2,2.66 -1.22,2.653 -1.23,2.587 -1.27,2.543 -1.28,2.505 -1.3,2.473 -1.3,2.435 -1.33,2.407 -1.34,2.391 -1.37,2.298 -1.38,2.286 -1.41,2.283 -1.41,2.188 -1.43,2.185 -1.45,2.146 -1.47,2.106 -1.47,2.052 -1.49,2.033 -1.51,1.978 -1.51,1.943 -1.53,1.872 -1.56,1.865 -1.55,1.838 -1.58,1.771 -1.6,1.736 -1.59,1.705 -1.62,1.662 -1.62,1.631 -1.64,1.572 -1.64,1.537 -1.66,1.502 -1.66,1.447 -1.68,1.405 -1.68,1.373 -1.7,1.334 -1.7,1.307 -1.72,1.241 -1.73,1.213 -1.74,1.17 -1.74,1.147 -1.75,1.116 -1.77,1.077 -1.76,1.018 -1.76,0.96 -1.79,0.948 -1.78,0.924 -1.79,0.89 -1.81,0.858 -1.8,0.761 -1.81,0.769 -1.82,0.733 -1.83,0.667 -1.83,0.671 -1.83,0.644 -1.83,0.581 -1.84,0.57 -1.86,0.515 -1.84,0.456 -1.85,0.457 -1.85,0.429 -1.85,0.402 -1.87,0.358 -1.86,0.332 -1.88,0.3 -1.87,0.27 -1.87,0.214 -1.86,0.18 -1.88,0.187 -1.87,0.156 -1.87,0.125 -1.86,0.097 -1.87,0.067 -1.88,0.043 -1.86,0.003 -1.87,-0.015 -1.87,-0.055 -1.88,-0.078 -1.86,-0.109 -1.87,-0.137 -1.87,-0.14 -1.87,-0.16 -1.87,-0.199 -1.87,-0.23 -1.87,-0.281 -1.87,-0.281 -1.87,-0.312 -1.87,-0.343 -1.87,-0.344 -1.87,-0.37 -1.85,-0.398 -1.84,-0.39 -1.85,-0.418 -1.86,-0.452 -1.84,-0.48 -1.85,-0.507 -1.83,-0.531 -1.82,-0.534 -1.83,-0.558 -1.83,-0.558 -1.83,-0.589 -1.83,-0.617 -1.81,-0.667 -1.8,-0.667 -1.8,-0.663 -1.81,-0.698 -1.79,-0.691 -1.78,-0.714 -1.79,-0.772 -1.78,-0.777 -1.77,-0.768 -1.77,-0.796 -1.76,-0.796 -1.77,-0.827 -1.74,-0.874 -1.75,-0.874 -1.74,-0.874 -1.72,-0.893 -1.72,-0.897 -1.72,-0.898 -1.71,-0.944 -1.7,-0.948 -1.7,-0.944 -1.7,-0.971 -1.68,-0.968 -1.68,-1.026 -1.68,-1.026 -1.66,-1.014 -1.66,-1.042 -1.64,-1.034 -1.64,-1.1 -1.64,-1.092 -1.62,-1.116 -1.61,-1.108 -1.62,-1.12 -1.59,-1.131 -1.6,-1.166 -1.58,-1.159 -1.57,-1.182 -1.58,-1.186 -1.55,-1.21 -1.56,-1.197 -1.53,-1.202 -1.54,-1.225 -1.53,-1.252 -1.51,-1.28 -1.52,-1.272 -1.49,-1.299 -1.48,-1.295 -1.48,-1.291 -1.47,-1.342 -1.45,-1.311 -1.45,-1.338 -1.45,-1.393 -1.43,-1.358 -1.42,-1.389 -1.41,-1.404 -1.41,-1.412 -1.39,-1.397 -1.38,-1.455 -1.36,-1.42 -1.37,-1.448 -1.35,-1.47 -1.34,-1.471 -1.33,-1.459 -1.32,-1.518 -1.3,-1.506 -1.31,-1.513 -1.27,-1.53 -1.29,-1.533 -1.26,-1.576 -1.26,-1.549 -1.24,-1.572 -1.24,-1.603 -1.22,-1.592 -1.19,-1.615 -1.2,-1.608 -1.18,-1.63 -1.17,-1.666 -1.15,-1.654 -1.16,-1.651 -1.14,-1.677 -1.13,-1.705 -1.11,-1.689 -1.1,-1.748 -1.09,-1.74 -1.07,-1.736 -1.08,-1.763 -1.05,-1.783 -1.02,-1.779 -1.03,-1.807 -1.01,-1.821 -1.01,-1.834 -0.99,-1.81 -0.96,-1.838 -0.97,-1.865 -0.95,-1.892 -0.92,-1.88 -0.93,-1.908 -0.9,-1.865 -0.88,-1.923 -0.88,-1.951 -0.86,-1.939 -0.84,-1.962 -0.84,-1.954 -0.82,-2.014 -0.8,-2.028 -0.8,-2.005 -0.77,-2.021 -0.77,-2.009 -0.74,-2.045 -0.74,-2.095 -0.72,-2.079 -0.71,-2.115 -0.7,-2.13 -0.67,-2.126 -0.65,-2.118 -0.65,-2.142 -0.63,-2.138 -0.61,-2.185 -0.59,-2.208 -0.59,-2.231 -0.56,-2.228 -0.55,-2.251 -0.52,-2.263 -0.53,-2.27 -0.51,-2.263 -0.48,-2.274 -0.46,-2.302 -0.45,-2.349 -0.43,-2.348 -0.42,-2.368 -0.4,-2.396 -0.38,-2.376 -0.36,-2.407 -0.36,-2.403 -0.33,-2.423 -0.32,-2.446 -0.29,-2.458 -0.28,-2.485 -0.24,-2.473 -0.26,-2.509 -0.23,-2.496 -0.21,-2.517 -0.19,-2.532 -0.17,-2.563 -0.14,-2.543 -0.13,-2.571 -0.12,-2.63 -0.11,-2.645 -0.08,-2.672 -0.06,-2.688"
           style="fill:none;stroke:#0072bd;stroke-width:20.0052;stroke-linecap:butt;stroke-linejoin:round;stroke-miterlimit:10;stroke-dasharray:none;stroke-opacity:1"
           id="path20" />
      </g>
      <g
         id="g22"
         transform="scale(0.998725,-1.00127)">
        <path
           d="M 498.178,-402.159 H 2178.78"
           style="fill:none;stroke:#000000;stroke-width:10.0056;stroke-linecap:square;stroke-linejoin:round;stroke-miterlimit:10;stroke-dasharray:none;stroke-opacity:1"
           id="path24" />
      </g>
      <g
         id="g26"
         transform="scale(0.998725,-1.00127)">
        <path
           d="M 498.178,-1572.58 H 2178.78"
           style="fill:none;stroke:#000000;stroke-width:10.0056;stroke-linecap:square;stroke-linejoin:round;stroke-miterlimit:10;stroke-dasharray:none;stroke-opacity:1"
           id="path28" />
      </g>
      <g
         id="g30"
         transform="scale(0.998725,-1.00127)">
        <path
           d="m 498.178,-402.159 v -16.787"
           style="fill:none;stroke:#000000;stroke-width:10.0056;stroke-linecap:square;stroke-linejoin:round;stroke-miterlimit:10;stroke-dasharray:none;stroke-opacity:1"
           id="path32" />
      </g>
      <g
         id="g34"
         transform="scale(0.998725,-1.00127)">
        <path
           d="m 1338.48,-402.159 v -16.787"
           style="fill:none;stroke:#000000;stroke-width:10.0056;stroke-linecap:square;stroke-linejoin:round;stroke-miterlimit:10;stroke-dasharray:none;stroke-opacity:1"
           id="path36" />
      </g>
      <g
         id="g38"
         transform="scale(0.998725,-1.00127)">
        <path
           d="m 2178.78,-402.159 v -16.787"
           style="fill:none;stroke:#000000;stroke-width:10.0056;stroke-linecap:square;stroke-linejoin:round;stroke-miterlimit:10;stroke-dasharray:none;stroke-opacity:1"
           id="path40" />
      </g>
      <g
         id="g42"
         transform="scale(0.998725,-1.00127)">
        <path
           d="m 498.178,-1572.58 v 16.79"
           style="fill:none;stroke:#000000;stroke-width:10.0056;stroke-linecap:square;stroke-linejoin:round;stroke-miterlimit:10;stroke-dasharray:none;stroke-opacity:1"
           id="path44" />
      </g>
      <g
         id="g46"
         transform="scale(0.998725,-1.00127)">
        <path
           d="m 1338.48,-1572.58 v 16.79"
           style="fill:none;stroke:#000000;stroke-width:10.0056;stroke-linecap:square;stroke-linejoin:round;stroke-miterlimit:10;stroke-dasharray:none;stroke-opacity:1"
           id="path48" />
      </g>
      <g
         id="g50"
         transform="scale(0.998725,-1.00127)">
        <path
           d="m 2178.78,-1572.58 v 16.79"
           style="fill:none;stroke:#000000;stroke-width:10.0056;stroke-linecap:square;stroke-linejoin:round;stroke-miterlimit:10;stroke-dasharray:none;stroke-opacity:1"
           id="path52" />
      </g>
      <g
         id="g54"
         transform="scale(10)">
        <text
           xml:space="preserve"
           transform="matrix(0.997454,0,0,-1,43.4598,21.4352)"
           style="font-variant:normal;font-weight:normal;font-size:15.0245px;font-family:'Times New Roman';-inkscape-font-specification:Times-Roman;writing-mode:lr-tb;fill:#000000;fill-opacity:1;fill-rule:nonzero;stroke:none"
           id="text58"><tspan
             x="0 5.0031586 86.540672 170.67757"
             y="0"
             sodipodi:role="line"
             id="tspan56">-202</tspan></text>
      </g>
      <path
         d="m 1305.65,52.4023 c 1.75,-1.3789 4.25,-2.0703 7.49,-2.0703 3.12,0 5.87,1.5039 8.24,4.5078 2.38,3.0079 4,6.293 4.88,9.8633 l 6.83,26.6641 c 1.07,4.8203 1.6,8.1094 1.6,9.8628 0,2.504 -0.69,4.696 -2.06,6.575 -1.38,1.875 -3.32,2.812 -5.81,2.812 -3.19,0 -6.17,-1 -8.95,-3.004 -2.78,-2.004 -5.12,-4.523 -7.02,-7.554 -1.9,-3.0356 -3.23,-6.1215 -3.98,-9.2543 -0.25,-0.625 -0.66,-0.9375 -1.22,-0.9375 h -1.87 c -0.75,0 -1.13,0.4375 -1.13,1.3164 v 0.4687 c 1,3.6915 2.67,7.3243 5.01,10.8947 2.34,3.566 5.2,6.445 8.57,8.637 3.38,2.191 6.99,3.285 10.87,3.285 3.68,0 6.99,-0.969 9.92,-2.906 2.94,-1.946 5.03,-4.606 6.28,-7.989 1.69,3.071 3.86,5.653 6.51,7.754 2.65,2.094 5.57,3.141 8.76,3.141 2.12,0 4.31,-0.375 6.56,-1.129 2.24,-0.75 4.07,-1.906 5.48,-3.473 1.4,-1.562 2.1,-3.535 2.1,-5.914 0,-2.504 -0.81,-4.6796 -2.43,-6.5272 -1.63,-1.8477 -3.72,-2.7695 -6.28,-2.7695 -1.56,0 -2.89,0.5156 -3.98,1.5507 -1.09,1.0313 -1.64,2.3321 -1.64,3.895 0,2.128 0.72,3.976 2.16,5.539 1.43,1.566 3.15,2.507 5.15,2.82 -1.75,1.437 -4.22,2.156 -7.4,2.156 -3.25,0 -6.06,-1.5 -8.43,-4.508 -2.38,-3.004 -4.03,-6.3199 -4.97,-9.9527 l -6.64,-26.5743 c -1.07,-4.0039 -1.6,-7.3242 -1.6,-9.9531 0,-2.5039 0.72,-4.6797 2.15,-6.5234 1.44,-1.8477 3.38,-2.7735 5.81,-2.7735 4.69,0 8.87,2.0664 12.55,6.1993 3.69,4.1328 6.09,8.6718 7.22,13.6171 0.19,0.625 0.59,0.9375 1.21,0.9375 h 1.79 c 0.43,0 0.76,-0.1406 0.98,-0.4218 0.22,-0.2813 0.33,-0.6094 0.33,-0.9844 0,-0.0664 -0.03,-0.1914 -0.1,-0.3789 -1.43,-6.0117 -4.41,-11.332 -8.94,-15.961 -4.53,-4.6328 -9.63,-6.9492 -15.32,-6.9492 -3.68,0 -7.01,0.9844 -9.97,2.9571 -2.97,1.9726 -5.04,4.6484 -6.23,8.0312 -1.56,-2.9414 -3.72,-5.5078 -6.46,-7.6992 -2.75,-2.1914 -5.69,-3.2891 -8.81,-3.2891 -2.18,0 -4.4,0.375 -6.65,1.125 -2.25,0.7539 -4.09,1.9102 -5.53,3.4727 -1.43,1.5664 -2.14,3.5703 -2.14,6.0117 0,2.3164 0.82,4.4492 2.48,6.3867 1.65,1.9375 3.69,2.9102 6.13,2.9102 1.62,0 2.99,-0.5039 4.12,-1.5039 1.12,-1 1.69,-2.3164 1.69,-3.9414 0,-2.1289 -0.69,-3.9766 -2.07,-5.543 -1.37,-1.5625 -3.12,-2.5313 -5.24,-2.9063"
         style="fill:#000000;fill-opacity:1;fill-rule:nonzero;stroke:none"
         id="path60" />
      <g
         id="g62"
         transform="scale(0.998725,-1.00127)">
        <path
           d="M 498.178,-402.159 V -1572.58"
           style="fill:none;stroke:#000000;stroke-width:10.0056;stroke-linecap:square;stroke-linejoin:round;stroke-miterlimit:10;stroke-dasharray:none;stroke-opacity:1"
           id="path64" />
      </g>
      <g
         id="g66"
         transform="scale(0.998725,-1.00127)">
        <path
           d="M 2178.78,-402.159 V -1572.58"
           style="fill:none;stroke:#000000;stroke-width:10.0056;stroke-linecap:square;stroke-linejoin:round;stroke-miterlimit:10;stroke-dasharray:none;stroke-opacity:1"
           id="path68" />
      </g>
      <g
         id="g70"
         transform="scale(0.998725,-1.00127)">
        <path
           d="m 498.178,-402.159 h 16.787"
           style="fill:none;stroke:#000000;stroke-width:10.0056;stroke-linecap:square;stroke-linejoin:round;stroke-miterlimit:10;stroke-dasharray:none;stroke-opacity:1"
           id="path72" />
      </g>
      <g
         id="g74"
         transform="scale(0.998725,-1.00127)">
        <path
           d="m 498.178,-987.367 h 16.787"
           style="fill:none;stroke:#000000;stroke-width:10.0056;stroke-linecap:square;stroke-linejoin:round;stroke-miterlimit:10;stroke-dasharray:none;stroke-opacity:1"
           id="path76" />
      </g>
      <g
         id="g78"
         transform="scale(0.998725,-1.00127)">
        <path
           d="m 498.178,-1572.58 h 16.787"
           style="fill:none;stroke:#000000;stroke-width:10.0056;stroke-linecap:square;stroke-linejoin:round;stroke-miterlimit:10;stroke-dasharray:none;stroke-opacity:1"
           id="path80" />
      </g>
      <g
         id="g82"
         transform="scale(0.998725,-1.00127)">
        <path
           d="m 2178.78,-402.159 h -16.79"
           style="fill:none;stroke:#000000;stroke-width:10.0056;stroke-linecap:square;stroke-linejoin:round;stroke-miterlimit:10;stroke-dasharray:none;stroke-opacity:1"
           id="path84" />
      </g>
      <g
         id="g86"
         transform="scale(0.998725,-1.00127)">
        <path
           d="m 2178.78,-987.367 h -16.79"
           style="fill:none;stroke:#000000;stroke-width:10.0056;stroke-linecap:square;stroke-linejoin:round;stroke-miterlimit:10;stroke-dasharray:none;stroke-opacity:1"
           id="path88" />
      </g>
      <g
         id="g90"
         transform="scale(0.998725,-1.00127)">
        <path
           d="m 2178.78,-1572.58 h -16.79"
           style="fill:none;stroke:#000000;stroke-width:10.0056;stroke-linecap:square;stroke-linejoin:round;stroke-miterlimit:10;stroke-dasharray:none;stroke-opacity:1"
           id="path92" />
      </g>
      <g
         id="g94"
         transform="scale(10)">
        <text
           xml:space="preserve"
           transform="matrix(0.997454,0,0,-1,32.1703,34.857)"
           style="font-variant:normal;font-weight:normal;font-size:15.0245px;font-family:'Times New Roman';-inkscape-font-specification:Times-Roman;writing-mode:lr-tb;fill:#000000;fill-opacity:1;fill-rule:nonzero;stroke:none"
           id="text102"><tspan
             x="0 5.0031586"
             y="0"
             sodipodi:role="line"
             id="tspan96">-1</tspan><tspan
             x="4.80755"
             y="-58.5961"
             id="tspan98">0</tspan><tspan
             x="4.80755"
             y="-117.1922"
             id="tspan100">1</tspan></text>
      </g>
      <path
         d="m 147.797,984.512 c -2.184,0 -4.106,0.843 -5.758,2.535 -1.656,1.691 -2.484,3.633 -2.484,5.824 0,1.371 0.359,2.719 1.082,4.039 0.718,1.313 1.734,2.328 3.043,3.047 1.312,0.723 2.683,1.083 4.117,1.083 2.125,0 4.012,-0.8 5.668,-2.395 1.656,-1.598 2.484,-3.524 2.484,-5.774 0,-2.191 -0.828,-4.133 -2.484,-5.824 -1.656,-1.692 -3.543,-2.535 -5.668,-2.535"
         style="fill:#000000;fill-opacity:1;fill-rule:nonzero;stroke:none"
         id="path104" />
      <path
         d="m 235.469,957.426 c 1.375,1.754 2.062,4.258 2.062,7.512 0,3.128 -1.5,5.882 -4.496,8.261 -2.996,2.379 -6.277,4.008 -9.836,4.887 l -26.597,6.852 c -4.809,1.066 -8.09,1.597 -9.84,1.597 -2.496,0 -4.684,-0.687 -6.559,-2.066 -1.867,-1.379 -2.805,-3.321 -2.805,-5.824 0,-3.192 1,-6.184 3,-8.965 1.997,-2.785 4.508,-5.133 7.536,-7.047 3.027,-1.906 6.105,-3.235 9.23,-3.988 0.621,-0.25 0.934,-0.657 0.934,-1.219 v -1.875 c 0,-0.754 -0.438,-1.133 -1.313,-1.133 h -0.469 c -3.683,1.004 -7.304,2.676 -10.867,5.023 -3.554,2.352 -6.426,5.215 -8.613,8.598 -2.188,3.375 -3.277,7.004 -3.277,10.887 0,3.695 0.964,7.012 2.898,9.953 1.941,2.945 4.594,5.043 7.969,6.293 -3.063,1.691 -5.641,3.867 -7.735,6.528 -2.089,2.66 -3.132,5.59 -3.132,8.78 0,2.13 0.375,4.32 1.125,6.57 0.746,2.25 1.902,4.09 3.464,5.5 1.559,1.41 3.524,2.11 5.899,2.11 2.5,0 4.668,-0.81 6.512,-2.45 1.839,-1.62 2.761,-3.72 2.761,-6.29 0,-1.56 -0.515,-2.89 -1.547,-3.99 -1.031,-1.09 -2.324,-1.64 -3.882,-1.64 -2.125,0 -3.969,0.72 -5.528,2.16 -1.562,1.44 -2.5,3.16 -2.812,5.17 -1.434,-1.76 -2.153,-4.23 -2.153,-7.42 0,-3.26 1.5,-6.07 4.497,-8.45 2.996,-2.383 6.308,-4.043 9.925,-4.98 l 26.508,-6.665 c 4,-1.066 7.309,-1.597 9.93,-1.597 2.496,0 4.668,0.719 6.508,2.156 1.843,1.441 2.765,3.383 2.765,5.824 0,4.692 -2.062,8.892 -6.179,12.582 -4.125,3.7 -8.653,6.11 -13.586,7.23 -0.621,0.19 -0.934,0.6 -0.934,1.22 v 1.79 c 0,0.43 0.141,0.76 0.418,0.98 0.281,0.22 0.609,0.33 0.984,0.33 0.063,0 0.188,-0.03 0.379,-0.09 5.992,-1.44 11.301,-4.43 15.918,-8.97 4.621,-4.54 6.93,-9.66 6.93,-15.353 0,-3.695 -0.981,-7.027 -2.949,-10.004 -1.965,-2.973 -4.633,-5.051 -8.008,-6.242 2.934,-1.566 5.492,-3.727 7.68,-6.481 2.187,-2.753 3.277,-5.699 3.277,-8.828 0,-2.191 -0.371,-4.41 -1.121,-6.664 -0.75,-2.254 -1.906,-4.101 -3.465,-5.539 -1.562,-1.441 -3.559,-2.16 -5.992,-2.16 -2.313,0 -4.438,0.832 -6.371,2.488 -1.938,1.661 -2.903,3.711 -2.903,6.149 0,1.629 0.5,3.004 1.5,4.137 0.996,1.125 2.309,1.687 3.93,1.687 2.121,0 3.965,-0.687 5.527,-2.066 1.559,-1.379 2.528,-3.133 2.903,-5.258"
         style="fill:#000000;fill-opacity:1;fill-rule:nonzero;stroke:none"
         id="path106" />
    </g>
  </g>
</svg>
