<?xml version="1.0" encoding="UTF-8" standalone="no"?>
<!-- Created with Inkscape (http://www.inkscape.org/) -->

<svg
   version="1.1"
   id="svg2"
   width="320"
   height="226.66667"
   viewBox="0 0 320 226.66667"
   sodipodi:docname="Step_05.eps"
   xmlns:inkscape="http://www.inkscape.org/namespaces/inkscape"
   xmlns:sodipodi="http://sodipodi.sourceforge.net/DTD/sodipodi-0.dtd"
   xmlns="http://www.w3.org/2000/svg"
   xmlns:svg="http://www.w3.org/2000/svg">
  <defs
     id="defs6" />
  <sodipodi:namedview
     id="namedview4"
     pagecolor="#ffffff"
     bordercolor="#000000"
     borderopacity="0.25"
     inkscape:showpageshadow="2"
     inkscape:pageopacity="0.0"
     inkscape:pagecheckerboard="0"
     inkscape:deskcolor="#d1d1d1" />
  <g
     id="g8"
     inkscape:groupmode="layer"
     inkscape:label="ink_ext_XXXXXX"
     transform="matrix(1.3333333,0,0,-1.3333333,0,226.66667)">
    <g
       id="g10"
       transform="scale(0.1)">
      <path
         d="M 0,0.015625 H 2403.79 V 1700.7856 H 0 Z"
         style="fill:#ffffff;fill-opacity:1;fill-rule:nonzero;stroke:none"
         id="path12" />
      <path
         d="M 0,0.015625 H 2403.79 V 1700.7856 H 0 Z"
         style="fill:#ffffff;fill-opacity:1;fill-rule:nonzero;stroke:none"
         id="path14" />
      <path
         d="M 371.66,288.484 H 2176 v 1286.1 H 371.66 Z"
         style="fill:#ffffff;fill-opacity:1;fill-rule:nonzero;stroke:none"
         id="path16" />
      <g
         id="g18"
         transform="scale(0.998725,-1.00127)">
        <path
           d="m 372.134,-288.117 h 3.012 3.008 3.011 3.016 3.004 3.015 3.012 3.008 3.011 3.016 3.008 3.011 3.012 3.008 3.015 3.012 3.008 3.011 3.012 3.008 3.015 3.012 3.008 3.011 3.016 3.004 3.015 3.012 3.008 3.011 3.016 3.008 3.011 3.012 3.008 3.011 3.016 3.008 3.011 3.012 3.008 3.015 3.012 3.008 3.011 3.012 3.008 3.015 3.012 3.008 3.011 3.016 3.004 3.015 3.012 3.008 3.011 3.016 3.008 3.011 3.012 3.008 3.015 3.012 3.008 3.011 3.012 3.008 3.015 3.012 3.008 3.011 3.016 3.004 3.015 3.012 3.008 3.011 3.016 3.008 3.011 3.012 3.008 3.011 3.016 3.008 3.011 3.012 3.008 3.015 3.012 3.008 3.011 3.012 3.008 3.015 3.012 3.008 3.011 3.016 3.004 3.015 3.012 3.008 3.011 3.016 3.008 3.011 3.012 3.008 3.011 3.016 3.008 3.011 3.012 3.008 3.015 3.012 3.008 3.011 3.016 3.004 3.015 3.012 3.008 3.011 3.016 3.004 3.015 3.012 3.007 3.012 3.016 3.007 3.012 3.012 3.007 3.016 3.012 3.007 3.012 3.012 3.007 3.016 3.012 3.007 3.012 3.016 3.003 3.016 3.012 3.007 3.012 3.016 3.007 3.012 3.012 3.007 3.012 3.016 3.007 3.012 3.012 3.007 3.016 3.012 3.007 3.012 3.012 3.007 3.016 3.012 3.007 3.012 3.016 3.003 3.016 3.012 3.007 3.012 3.016 3.007 3.012 3.012 3.007 3.012 3.016 3.007 3.012 3.012 3.007 3.016 3.012 3.007 3.012 3.016 3.003 3.016 3.012 3.007 l 3.012,-0.125 3.016,-0.32 3.003,-0.511 3.016,-0.741 3.012,-1.015 3.007,-1.267 3.012,-1.514 3.016,-1.744 3.009,-1.966 3.01,-2.119 3.01,-2.274 3.01,-2.423 3.01,-2.528 3.02,-2.641 3,-2.75 3.02,-2.844 3.01,-2.985 3.01,-3.148 3.01,-3.312 3.01,-3.508 3.01,-3.745 3.01,-3.979 3.02,-4.233 3,-4.338 3.02,-4.292 3.01,-4.256 3.01,-4.182 3.01,-4.057 3.01,-4.12 3.01,-4.37 3.01,-4.709 3.01,-5.157 3.01,-5.688 3.01,-6.281 3.02,-6.859 3.01,-7.435 3.01,-7.955 3.01,-8.372 3.01,-8.724 3.01,-8.949 3.02,-8.907 3,-8.629 3.01,-8.47 3.02,-8.403 3,-8.271 3.02,-8.224 3.01,-8.294 3.01,-8.458 3.01,-8.696 3.02,-9.031 3,-9.262 3.02,-9.379 3.01,-9.69 3.01,-10.12 3.01,-10.487 3.01,-10.869 3.01,-11.298 3.01,-11.692 3.01,-12.063 3.01,-12.238 3.02,-12.203 3.01,-12.27 3.01,-12.398 3.01,-12.496 3.01,-12.605 3.01,-12.761 3.01,-12.785 3.01,-12.694 3.01,-12.785 3.01,-13.007 3.02,-13.221 3,-13.499 3.02,-13.892 3.01,-14.138 3.01,-14.228 3.01,-14.482 3.02,-14.871 3,-15.188 3.01,-15.504 3.02,-15.687 3,-15.878 3.02,-16.218 3.01,-16.463 3.01,-16.694 3.01,-16.787 3.01,-16.722 3.01,-16.75 3.02,-16.92 3.01,-17.05 3.01,-17.06 3.01,-16.98 3.01,-17.11 3.01,-17.37 3.01,-17.63 3.01,-17.81 3.01,-17.92 3.01,-18.19 3.02,-18.61 3,-18.98 3.02,-19.16 3.01,-19.11 3.01,-19.06 3.01,-18.89 3.01,-18.48 3.01,-17.71 3.01,-16.66 3.02,-15.47 3,-14.12 3.02,-12.67 3.01,-11.22 3.01,-9.84 3.01,-8.58 3.01,-7.48 3.01,-6.61 3.01,-5.94 3.02,-5.46 3,-5.03 3.02,-4.7 3.01,-4.58 3.01,-4.46 3.01,-4.33 3.01,-4.22 3.01,-4.04 3.01,-3.77 3.02,-3.42 3,-3 3.02,-2.51 3.01,-1.95 3.01,-1.37 3.01,-0.79 3.01,-0.26 3.01,0.23 3.01,0.6 3.01,0.92 3.01,1.17 3.02,1.34 3.01,1.43 3.01,1.46 3.01,1.43 3.01,1.41 3.01,1.36 3.01,1.34 3.02,1.35 3,1.4 3.01,1.45 3.02,1.56 3,1.69 3.02,1.89 3.01,2.05 3.01,2.21 3.01,2.38 3.02,2.49 3,2.57 3.02,2.64 3.01,2.63 3,2.59 3.02,2.52 3.01,2.47 3.01,2.41 3.01,2.33 3.01,2.25 3.01,2.17 3.02,2.15 3.01,2.17 3.01,2.17 3.01,2.2 3.01,2.25 3.01,2.16 3.01,1.87 3.01,1.56 3.01,1.25 3.01,0.88 3.02,0.51 3,0.2 3.02,-0.04 3.01,-0.18 3.01,-0.22 3.01,-0.2 3.02,0.01 3,0.41 3.01,0.79 3.02,1.21 3,1.64 3.02,1.99 3.01,2.21 3.01,2.34 3.01,2.33 3.01,2.22 3.01,2.07 3.02,1.85 3.01,1.58 3,1.34 3.02,1.08 3.01,0.9 3.01,0.78 3.01,0.73 3.01,0.74 3.01,0.83 3.01,0.93 3.02,1.09 3.01,1.26 3.01,1.44 3.01,1.59 3.01,1.69 3.01,1.79 3.01,1.82 3.01,1.78 3.01,1.74 3.02,1.68 3,1.58 3.02,1.46 3.01,1.33 3.01,1.22 3.01,1.14 3.01,1.09 3.01,1.06 3.01,1.06 3.02,1.08 3,1.15 3.02,1.24 3.01,1.32 3,1.37 3.02,1.43 3.01,1.46 3.01,1.5 3.01,1.51 3.02,1.48 3,1.44 3.02,1.33 3.01,1.27 3.01,1.21 3.01,1.14 3.01,1.1 3.01,0.92 3.01,0.57 3.01,0.22 3.01,-0.11 3.02,-0.44 3.01,-0.7 3.01,-0.94 3.01,-1.11 3.01,-1.2 3.01,-1.21 3.01,-1.17 3.01,-1.09 3.01,-0.82 3.01,-0.37 3.02,0.04 3,0.4 3.02,0.76 3.01,1.04 3.01,1.22 3.01,1.27 3.02,1.27 3,1.16 3.02,0.8 3.01,0.25 3,-0.3 3.02,-0.85 3.01,-1.37 3.01,-1.81 3.01,-2.12 3.01,-2.3 3.01,-2.19 3.02,-1.76 3.01,-1.21 3.01,-0.61 3.01,0.07 3.01,0.68 3.01,1.19 3.01,1.58 3.01,1.79 3.01,1.82 3.01,1.7 3.02,1.45 3.01,1.14 3.01,0.78 3.01,0.38 3.01,-0.12 3.01,-0.67 3.01,-1.13 3.01,-1.51 3.01,-1.82 3.02,-1.82 3,-1.51 3.02,-1.1 3.01,-0.59 3.01,0.03 3.01,0.63 3.02,1.15 3,1.53 3.02,1.83 3.01,1.98 3,1.89 3.02,1.72 3.01,1.46 3.01,0.97 3.01,0.3 3.01,-0.3 3.01,-0.86 3.01,-1.41 3.02,-1.81 3.01,-2.06 3.01,-2.19 3.01,-2.19 3.01,-1.87 3.01,-1.31 3.01,-0.68 3.01,-0.01 3.01,0.63 3.01,1.17 3.01,1.56 3.02,1.82 3.01,1.92 3.01,1.8 3.01,1.57 3.01,1.25 3.01,0.88 3.01,0.31 3.02,-0.38 3,-0.95 3.02,-1.47 3.01,-1.92 3.01,-2.22 3.01,-2.35 3.01,-2.19 3.01,-1.73 3.01,-1.18 3.02,-0.54 3,0.17 3.02,0.83 3.01,1.34 3.01,1.74 3.01,1.98 3.01,2.03 3.01,1.91 3.01,1.65 3.02,1.27 3,0.85 3.02,0.42 3.01,-0.1 3.01,-0.69 3.01,-1.17 3.01,-1.57 3.01,-1.86 3.01,-1.99 3.01,-1.81 3.01,-1.37 3.01,-0.84 3.02,-0.21 3.01,0.42 3.01,0.97 3.01,1.44 3.01,1.75 3.01,1.93 3.02,1.94 3,1.8 3.01,1.56 3.02,1.2 3,0.66 3.02,-0.03 3.01,-0.67 3.01,-1.24 3.01,-1.74 3.02,-2.11 3,-2.29 3.02,-2.32 3.01,-2.06 3.01,-1.54 3.01,-0.92 3.01,-0.23 3.01,0.49 3.01,1.09 3.01,1.55 3.01,1.89 3.01,2.03 3.02,1.94 3.01,1.75 3.01,1.43 3.01,1 3.01,0.38 3.01,-0.34 3.01,-0.94 3.01,-1.51 3.01,-1.98 3.02,-2.29 3,-2.43 3.02,-2.22 3.01,-1.77 3.01,-1.18 3.01,-0.5 3.02,0.21 3,0.88 3.01,1.41 3.02,1.79 3,2.02 3.02,2.07 3.01,1.94 3.01,1.68 3.01,1.29"
           style="fill:none;stroke:#0072bd;stroke-width:20.0052;stroke-linecap:butt;stroke-linejoin:bevel;stroke-miterlimit:10;stroke-dasharray:18.0065, 18.0065;stroke-dashoffset:0;stroke-opacity:1"
           id="path20" />
      </g>
      <g
         id="g22"
         transform="scale(0.998725,-1.00127)">
        <path
           d="m 372.134,-288.117 h 3.012 3.008 3.011 3.016 3.004 3.015 3.012 3.008 3.011 3.016 3.008 3.011 3.012 3.008 3.015 3.012 3.008 3.011 3.012 3.008 3.015 3.012 3.008 3.011 3.016 3.004 3.015 3.012 3.008 3.011 3.016 3.008 3.011 3.012 3.008 3.011 3.016 3.008 3.011 3.012 3.008 3.015 3.012 3.008 3.011 3.012 3.008 3.015 3.012 3.008 3.011 3.016 3.004 3.015 3.012 3.008 3.011 3.016 3.008 3.011 3.012 3.008 3.015 3.012 3.008 3.011 3.012 3.008 3.015 3.012 3.008 3.011 3.016 3.004 3.015 3.012 3.008 3.011 3.016 3.008 3.011 3.012 3.008 3.011 3.016 3.008 3.011 3.012 3.008 3.015 3.012 3.008 3.011 3.012 3.008 3.015 3.012 3.008 3.011 3.016 3.004 3.015 3.012 3.008 3.011 3.016 3.008 3.011 3.012 3.008 3.011 3.016 3.008 3.011 3.012 3.008 3.015 3.012 3.008 3.011 3.016 3.004 3.015 3.012 3.008 3.011 3.016 3.004 3.015 3.012 3.007 3.012 3.016 3.007 3.012 3.012 3.007 3.016 3.012 3.007 3.012 3.012 3.007 3.016 3.012 3.007 3.012 3.016 3.003 3.016 3.012 3.007 3.012 3.016 3.007 3.012 3.012 3.007 3.012 3.016 3.007 3.012 3.012 3.007 3.016 3.012 3.007 3.012 3.012 3.007 3.016 3.012 3.007 3.012 3.016 3.003 3.016 3.012 3.007 3.012 3.016 3.007 3.012 3.012 3.007 3.012 3.016 3.007 3.012 3.012 3.007 3.016 3.012 3.007 3.012 3.016 3.003 3.016 3.012 3.007 3.012 3.016 3.003 3.016 l 3.012,-0.024 3.007,-0.074 3.012,-0.144 3.016,-0.25 3.009,-0.39 3.01,-0.597 3.01,-0.807 3.01,-1.05 3.01,-1.334 3.02,-1.607 3,-1.896 3.02,-2.205 3.01,-2.461 3.01,-2.7 3.01,-2.949 3.01,-3.16 3.01,-3.332 3.01,-3.499 3.02,-3.664 3,-3.96 3.02,-4.412 3.01,-4.869 3.01,-5.348 3.01,-5.876 3.01,-6.23 3.01,-6.386 3.01,-6.457 3.01,-6.418 3.01,-6.296 3.01,-6.114 3.02,-5.945 3.01,-5.774 3.01,-5.657 3.01,-5.657 3.01,-5.707 3.01,-5.883 3.02,-6.336 3,-7.011 3.01,-7.58 3.02,-8.064 3,-8.583 3.02,-9.043 3.01,-9.371 3.01,-9.612 3.01,-9.781 3.02,-9.843 3,-10.011 3.02,-10.307 3.01,-10.389 3.01,-10.365 3.01,-10.397 3.01,-10.401 3.01,-10.389 3.01,-10.385 3.01,-10.413 3.01,-10.643 3.02,-11.072 3.01,-11.403 3.01,-11.669 3.01,-11.977 3.01,-12.254 3.01,-12.495 3.01,-12.871 3.01,-13.35 3.01,-13.658 3.01,-13.83 3.02,-14.01 3,-14.122 3.02,-14.131 3.01,-14.271 3.01,-14.575 3.01,-14.711 3.02,-14.708 3,-14.79 3.01,-14.868 3.02,-15.07 3,-15.27 3.02,-15.324 3.01,-15.461 3.01,-15.632 3.01,-15.91 3.01,-16.374 3.01,-16.728 3.02,-16.953 3.01,-17.21 3.01,-17.58 3.01,-18.04 3.01,-18.3 3.01,-18.44 3.01,-18.55 3.01,-18.75 3.01,-18.92 3.01,-17.93 3.02,-16.67 3,-15.5 3.02,-14.3 3.01,-13.11 3.01,-11.98 3.01,-10.98 3.01,-10.16 3.01,-9.7 3.01,-9.54 3.02,-9.53 3,-9.62 3.02,-9.82 3.01,-9.99 3.01,-10.07 3.01,-10 3.01,-9.75 3.01,-9.26 3.01,-8.6 3.02,-7.75 3,-6.93 3.02,-6.04 3.01,-5 3.01,-4.05 3.01,-3.18 3.01,-2.4 3.01,-1.74 3.01,-1.26 3.02,-0.95 3,-0.74 3.02,-0.69 3.01,-0.73 3.01,-0.81 3.01,-0.91 3.01,-1.01 3.01,-1.06 3.01,-1.03 3.01,-0.98 3.01,-0.81 3.02,-0.56 3.01,-0.27 3.01,0.07 3.01,0.42 3.01,0.73 3.01,1.03 3.01,1.27 3.02,1.43 3,1.54 3.01,1.6 3.02,1.6 3,1.53 3.02,1.43 3.01,1.32 3.01,1.21 3.01,1.1 3.02,1.06 3,1.01 3.02,1.02 3.01,1.08 3,1.16 3.02,1.27 3.01,1.35 3.01,1.44 3.01,1.51 3.01,1.6 3.01,1.65 3.02,1.66 3.01,1.61 3.01,1.56 3.01,1.5 3.01,1.4 3.01,1.46 3.01,1.69 3.01,1.91 3.01,2.16 3.01,2.41 3.02,2.62 3,2.79 3.02,2.84 3.01,2.8 3.01,2.67 3.01,2.44 3.02,1.98 3,1.35 3.01,0.75 3.02,0.16 3,-0.34 3.02,-0.69 3.01,-0.89 3.01,-0.93 3.01,-0.8 3.01,-0.56 3.01,-0.25 3.02,0.11 3.01,0.44 3,0.8 3.02,1.08 3.01,1.29 3.01,1.41 3.01,1.42 3.01,1.36 3.01,1.22 3.01,1.04 3.02,0.83 3.01,0.6 3.01,0.39 3.01,0.2 3.01,0.08 3.01,-0.01 3.01,-0.01 3.01,0.06 3.01,0.12 3.02,0.2 3,0.33 3.02,0.46 3.01,0.57 3.01,0.69 3.01,0.73 3.01,0.77 3.01,0.77 3.01,0.72 3.02,0.65 3,0.55 3.02,0.42 3.01,0.3 3,0.23 3.02,0.16 3.01,0.1 3.01,0.06 3.01,0.05 3.02,0.08 3,0.13 3.02,0.23 3.01,0.3 3.01,0.35 3.01,0.4 3.01,0.43 3.01,0.59 3.01,0.9 3.01,1.19 3.01,1.45 3.02,1.68 3.01,1.86 3.01,1.95 3.01,1.92 3.01,1.79 3.01,1.58 3.01,1.32 3.01,1 3.01,0.52 3.01,-0.11 3.02,-0.62 3,-1.09 3.02,-1.5 3.01,-1.76 3.01,-1.83 3.01,-1.75 3.02,-1.6 3,-1.3 3.02,-0.77 3.01,-0.04 3,0.63 3.02,1.26 3.01,1.82 3.01,2.22 3.01,2.39 3.01,2.4 3.01,2.08 3.02,1.44 3.01,0.68 3.01,-0.1 3.01,-0.88 3.01,-1.57 3.01,-2.1 3.01,-2.42 3.01,-2.47 3.01,-2.33 3.01,-1.99 3.02,-1.51 3.01,-0.97 3.01,-0.39 3.01,0.17 3.01,0.78 3.01,1.42 3.01,1.92 3.01,2.26 3.01,2.41 3.02,2.24 3,1.77 3.02,1.14 3.01,0.44 3.01,-0.31 3.01,-1.01 3.02,-1.58 3,-1.94 3.02,-2.13 3.01,-2.12 3,-1.87 3.02,-1.49 3.01,-1.02 3.01,-0.34 3.01,0.46 3.01,1.15 3.01,1.78 3.01,2.31 3.02,2.62 3.01,2.7 3.01,2.61 3.01,2.38 3.01,1.78 3.01,0.97 3.01,0.11 3.01,-0.71 3.01,-1.44 3.01,-2.04 3.01,-2.43 3.02,-2.59 3.01,-2.51 3.01,-2.21 3.01,-1.76 3.01,-1.22 3.01,-0.63 3.01,0.12 3.02,0.93 3,1.57 3.02,2.12 3.01,2.51 3.01,2.64 3.01,2.57 3.01,2.2 3.01,1.51 3.01,0.72 3.02,-0.11 3,-0.95 3.02,-1.67 3.01,-2.22 3.01,-2.55 3.01,-2.62 3.01,-2.49 3.01,-2.14 3.01,-1.65 3.02,-1.02 3,-0.4 3.02,0.2 3.01,0.85 3.01,1.51 3.01,2.04 3.01,2.37 3.01,2.51 3.01,2.46 3.01,2.08 3.01,1.39 3.01,0.65 3.02,-0.14 3.01,-0.9 3.01,-1.54 3.01,-2.02 3.01,-2.28 3.01,-2.32 3.02,-2.15 3,-1.84 3.01,-1.36 3.02,-0.81 3,-0.08 3.02,0.74 3.01,1.45 3.01,2.06 3.01,2.5 3.02,2.71 3,2.69 3.02,2.5 3.01,1.97 3.01,1.19 3.01,0.34 3.01,-0.51 3.01,-1.33 3.01,-2.01 3.01,-2.48 3.01,-2.72 3.01,-2.67 3.02,-2.39 3.01,-1.97 3.01,-1.42 3.01,-0.76 3.01,0.06 3.01,0.91 3.01,1.61 3.01,2.21 3.01,2.62 3.02,2.77 3,2.7 3.02,2.28 3.01,1.56 3.01,0.76 3.01,-0.12 3.02,-0.96 3,-1.7 3.01,-2.27 3.02,-2.58 3,-2.63 3.02,-2.5 3.01,-2.16 3.01,-1.65 3.01,-1.02"
           style="fill:none;stroke:#d95319;stroke-width:20.0052;stroke-linecap:butt;stroke-linejoin:round;stroke-miterlimit:10;stroke-dasharray:none;stroke-opacity:1"
           id="path24" />
      </g>
      <g
         id="g26"
         transform="scale(0.998725,-1.00127)">
        <path
           d="M 372.134,-288.117 H 2178.78"
           style="fill:none;stroke:#000000;stroke-width:10.0056;stroke-linecap:square;stroke-linejoin:round;stroke-miterlimit:10;stroke-dasharray:none;stroke-opacity:1"
           id="path28" />
      </g>
      <g
         id="g30"
         transform="scale(0.998725,-1.00127)">
        <path
           d="M 372.134,-1572.58 H 2178.78"
           style="fill:none;stroke:#000000;stroke-width:10.0056;stroke-linecap:square;stroke-linejoin:round;stroke-miterlimit:10;stroke-dasharray:none;stroke-opacity:1"
           id="path32" />
      </g>
      <g
         id="g34"
         transform="scale(0.998725,-1.00127)">
        <path
           d="m 372.134,-288.117 v -18.067"
           style="fill:none;stroke:#000000;stroke-width:10.0056;stroke-linecap:square;stroke-linejoin:round;stroke-miterlimit:10;stroke-dasharray:none;stroke-opacity:1"
           id="path36" />
      </g>
      <g
         id="g38"
         transform="scale(0.998725,-1.00127)">
        <path
           d="m 974.347,-288.117 v -18.067"
           style="fill:none;stroke:#000000;stroke-width:10.0056;stroke-linecap:square;stroke-linejoin:round;stroke-miterlimit:10;stroke-dasharray:none;stroke-opacity:1"
           id="path40" />
      </g>
      <g
         id="g42"
         transform="scale(0.998725,-1.00127)">
        <path
           d="m 1576.57,-288.117 v -18.067"
           style="fill:none;stroke:#000000;stroke-width:10.0056;stroke-linecap:square;stroke-linejoin:round;stroke-miterlimit:10;stroke-dasharray:none;stroke-opacity:1"
           id="path44" />
      </g>
      <g
         id="g46"
         transform="scale(0.998725,-1.00127)">
        <path
           d="m 2178.78,-288.117 v -18.067"
           style="fill:none;stroke:#000000;stroke-width:10.0056;stroke-linecap:square;stroke-linejoin:round;stroke-miterlimit:10;stroke-dasharray:none;stroke-opacity:1"
           id="path48" />
      </g>
      <g
         id="g50"
         transform="scale(0.998725,-1.00127)">
        <path
           d="m 372.134,-1572.58 v 18.07"
           style="fill:none;stroke:#000000;stroke-width:10.0056;stroke-linecap:square;stroke-linejoin:round;stroke-miterlimit:10;stroke-dasharray:none;stroke-opacity:1"
           id="path52" />
      </g>
      <g
         id="g54"
         transform="scale(0.998725,-1.00127)">
        <path
           d="m 974.347,-1572.58 v 18.07"
           style="fill:none;stroke:#000000;stroke-width:10.0056;stroke-linecap:square;stroke-linejoin:round;stroke-miterlimit:10;stroke-dasharray:none;stroke-opacity:1"
           id="path56" />
      </g>
      <g
         id="g58"
         transform="scale(0.998725,-1.00127)">
        <path
           d="m 1576.57,-1572.58 v 18.07"
           style="fill:none;stroke:#000000;stroke-width:10.0056;stroke-linecap:square;stroke-linejoin:round;stroke-miterlimit:10;stroke-dasharray:none;stroke-opacity:1"
           id="path60" />
      </g>
      <g
         id="g62"
         transform="scale(0.998725,-1.00127)">
        <path
           d="m 2178.78,-1572.58 v 18.07"
           style="fill:none;stroke:#000000;stroke-width:10.0056;stroke-linecap:square;stroke-linejoin:round;stroke-miterlimit:10;stroke-dasharray:none;stroke-opacity:1"
           id="path64" />
      </g>
      <g
         id="g66"
         transform="scale(10)">
        <text
           xml:space="preserve"
           transform="matrix(0.997454,0,0,-1,34.468,15.225)"
           style="font-variant:normal;font-weight:normal;font-size:10.0165px;font-family:'Times New Roman';-inkscape-font-specification:Times-Roman;writing-mode:lr-tb;fill:#000000;fill-opacity:1;fill-rule:nonzero;stroke:none"
           id="text72"><tspan
             x="0 60.297829 120.59566 180.89348"
             y="0"
             sodipodi:role="line"
             id="tspan68">0123</tspan><tspan
             x="76.023598 82.143684 84.928268 92.721107 97.168434 99.672554 103.00805 106.90447"
             y="13.4219"
             sodipodi:role="line"
             id="tspan70">Time [s]</tspan></text>
      </g>
      <g
         id="g74"
         transform="scale(0.998725,-1.00127)">
        <path
           d="M 372.134,-288.117 V -1572.58"
           style="fill:none;stroke:#000000;stroke-width:10.0056;stroke-linecap:square;stroke-linejoin:round;stroke-miterlimit:10;stroke-dasharray:none;stroke-opacity:1"
           id="path76" />
      </g>
      <g
         id="g78"
         transform="scale(0.998725,-1.00127)">
        <path
           d="M 2178.78,-288.117 V -1572.58"
           style="fill:none;stroke:#000000;stroke-width:10.0056;stroke-linecap:square;stroke-linejoin:round;stroke-miterlimit:10;stroke-dasharray:none;stroke-opacity:1"
           id="path80" />
      </g>
      <g
         id="g82"
         transform="scale(0.998725,-1.00127)">
        <path
           d="M 372.134,-288.117 H 390.2"
           style="fill:none;stroke:#000000;stroke-width:10.0056;stroke-linecap:square;stroke-linejoin:round;stroke-miterlimit:10;stroke-dasharray:none;stroke-opacity:1"
           id="path84" />
      </g>
      <g
         id="g86"
         transform="scale(0.998725,-1.00127)">
        <path
           d="M 372.134,-716.267 H 390.2"
           style="fill:none;stroke:#000000;stroke-width:10.0056;stroke-linecap:square;stroke-linejoin:round;stroke-miterlimit:10;stroke-dasharray:none;stroke-opacity:1"
           id="path88" />
      </g>
      <g
         id="g90"
         transform="scale(0.998725,-1.00127)">
        <path
           d="M 372.134,-1144.42 H 390.2"
           style="fill:none;stroke:#000000;stroke-width:10.0056;stroke-linecap:square;stroke-linejoin:round;stroke-miterlimit:10;stroke-dasharray:none;stroke-opacity:1"
           id="path92" />
      </g>
      <g
         id="g94"
         transform="scale(0.998725,-1.00127)">
        <path
           d="M 372.134,-1572.58 H 390.2"
           style="fill:none;stroke:#000000;stroke-width:10.0056;stroke-linecap:square;stroke-linejoin:round;stroke-miterlimit:10;stroke-dasharray:none;stroke-opacity:1"
           id="path96" />
      </g>
      <g
         id="g98"
         transform="scale(0.998725,-1.00127)">
        <path
           d="m 2178.78,-288.117 h -18.07"
           style="fill:none;stroke:#000000;stroke-width:10.0056;stroke-linecap:square;stroke-linejoin:round;stroke-miterlimit:10;stroke-dasharray:none;stroke-opacity:1"
           id="path100" />
      </g>
      <g
         id="g102"
         transform="scale(0.998725,-1.00127)">
        <path
           d="m 2178.78,-716.267 h -18.07"
           style="fill:none;stroke:#000000;stroke-width:10.0056;stroke-linecap:square;stroke-linejoin:round;stroke-miterlimit:10;stroke-dasharray:none;stroke-opacity:1"
           id="path104" />
      </g>
      <g
         id="g106"
         transform="scale(0.998725,-1.00127)">
        <path
           d="m 2178.78,-1144.42 h -18.07"
           style="fill:none;stroke:#000000;stroke-width:10.0056;stroke-linecap:square;stroke-linejoin:round;stroke-miterlimit:10;stroke-dasharray:none;stroke-opacity:1"
           id="path108" />
      </g>
      <g
         id="g110"
         transform="scale(0.998725,-1.00127)">
        <path
           d="m 2178.78,-1572.58 h -18.07"
           style="fill:none;stroke:#000000;stroke-width:10.0056;stroke-linecap:square;stroke-linejoin:round;stroke-miterlimit:10;stroke-dasharray:none;stroke-opacity:1"
           id="path112" />
      </g>
      <g
         id="g114"
         transform="scale(10)">
        <text
           xml:space="preserve"
           transform="matrix(0.997454,0,0,-1,27.7742,25.2414)"
           style="font-variant:normal;font-weight:normal;font-size:10.0165px;font-family:'Times New Roman';-inkscape-font-specification:Times-Roman;writing-mode:lr-tb;fill:#000000;fill-opacity:1;fill-rule:nonzero;stroke:none"
           id="text124"><tspan
             x="0"
             y="0"
             id="tspan116">0</tspan><tspan
             x="-12.6204 -7.6121502 -5.1080251 -0.099775001"
             y="-42.8703"
             sodipodi:role="line"
             id="tspan118">0.05</tspan><tspan
             x="-7.21171 -2.20346 0.30066499"
             y="-85.740601"
             sodipodi:role="line"
             id="tspan120">0.1</tspan><tspan
             x="-12.6204 -7.6121502 -5.1080251 -0.099775001"
             y="-128.6109"
             sodipodi:role="line"
             id="tspan122">0.15</tspan></text>
        <text
           xml:space="preserve"
           transform="matrix(0,1,0.99745649,0,9.59102,68.2121)"
           style="font-variant:normal;font-weight:normal;font-size:10.0165px;font-family:'Times New Roman';-inkscape-font-specification:Times-Roman;writing-mode:lr-tb;fill:#000000;fill-opacity:1;fill-rule:nonzero;stroke:none"
           id="text128"><tspan
             x="0 5.5691781 10.577432 14.473853 17.258442 20.043032 22.82762 27.835873 32.844128 35.348255 38.68375 46.476593"
             y="0"
             sodipodi:role="line"
             id="tspan126">Position [m]</tspan></text>
        <text
           xml:space="preserve"
           transform="matrix(0.997454,0,0,-1,147.464,42.0691)"
           style="font-variant:normal;font-weight:normal;font-size:9.0147px;font-family:'Times New Roman';-inkscape-font-specification:Times-Roman;writing-mode:lr-tb;fill:#000000;fill-opacity:1;fill-rule:nonzero;stroke:none"
           id="text132"><tspan
             x="0"
             y="0"
             id="tspan130">X</tspan></text>
        <text
           xml:space="preserve"
           transform="matrix(0.997454,0,0,-1,154.058,37.8621)"
           style="font-variant:normal;font-weight:normal;font-size:7.21176px;font-family:'Times New Roman';-inkscape-font-specification:Times-Roman;writing-mode:lr-tb;fill:#000000;fill-opacity:1;fill-rule:nonzero;stroke:none"
           id="text136"><tspan
             x="0"
             y="0"
             id="tspan134">m</tspan></text>
      </g>
      <g
         id="g138"
         transform="scale(0.998725,-1.00127)">
        <path
           d="m 1152.32,-435.172 h 299.2"
           style="fill:none;stroke:#0072bd;stroke-width:20.0052;stroke-linecap:butt;stroke-linejoin:bevel;stroke-miterlimit:10;stroke-dasharray:18.0065, 18.0065;stroke-dashoffset:0;stroke-opacity:1"
           id="path140" />
      </g>
      <g
         id="g142"
         transform="scale(10)">
        <text
           xml:space="preserve"
           transform="matrix(0.997454,0,0,-1,197.817,42.0691)"
           style="font-variant:normal;font-weight:normal;font-size:9.0147px;font-family:'Times New Roman';-inkscape-font-specification:Times-Roman;writing-mode:lr-tb;fill:#000000;fill-opacity:1;fill-rule:nonzero;stroke:none"
           id="text146"><tspan
             x="0"
             y="0"
             id="tspan144">X</tspan></text>
        <text
           xml:space="preserve"
           transform="matrix(0.997454,0,0,-1,204.411,37.8621)"
           style="font-variant:normal;font-weight:normal;font-size:7.21176px;font-family:'Times New Roman';-inkscape-font-specification:Times-Roman;writing-mode:lr-tb;fill:#000000;fill-opacity:1;fill-rule:nonzero;stroke:none"
           id="text150"><tspan
             x="0"
             y="0"
             id="tspan148">s</tspan></text>
      </g>
      <g
         id="g152"
         transform="scale(0.998725,-1.00127)">
        <path
           d="m 1659.45,-435.172 h 299.2"
           style="fill:none;stroke:#d95319;stroke-width:20.0052;stroke-linecap:butt;stroke-linejoin:round;stroke-miterlimit:10;stroke-dasharray:none;stroke-opacity:1"
           id="path154" />
      </g>
    </g>
  </g>
</svg>
