<svg width="879" height="1014" xmlns="http://www.w3.org/2000/svg" xmlns:xlink="http://www.w3.org/1999/xlink" xml:space="preserve" overflow="hidden"><g transform="translate(-2371 -1347)"><path d="M2723.5 1408.25C2723.5 1438.61 2699.5 1462.5 2669.5 1462.5 2639.5 1462.5 2615.5 1438.61 2615.5 1408.25 2615.5 1378.89 2639.5 1354.5 2669.5 1354.5 2699.5 1354.5 2723.5 1378.89 2723.5 1408.25" stroke="#000000" stroke-width="3.4375" stroke-miterlimit="8" fill="none" fill-rule="evenodd"/><text font-family="Times New Roman,Times New Roman_MSFontService,sans-serif" font-weight="400" font-size="64" transform="matrix(1 0 0 1 2650.71 1429)">+</text><path d="M2534.5 1624.5C2534.5 1594.68 2558.68 1570.5 2588.5 1570.5 2618.32 1570.5 2642.5 1594.68 2642.5 1624.5 2642.5 1654.32 2618.32 1678.5 2588.5 1678.5 2558.68 1678.5 2534.5 1654.32 2534.5 1624.5Z" stroke="#000000" stroke-width="3.4375" stroke-miterlimit="8" fill="none" fill-rule="evenodd"/><text font-family="Times New Roman,Times New Roman_MSFontService,sans-serif" font-weight="400" font-size="64" transform="matrix(1 0 0 1 2568.19 1645)">├Ч</text><path d="M2607.5 1572.5C2617.15 1547.5 2629.33 1516 2640.5 1487.5" stroke="#000000" stroke-width="3.4375" stroke-miterlimit="8" fill="none" fill-rule="evenodd"/><path d="M2630 1483.62 2651 1460 2650 1491 2630 1483.62Z" fill-rule="evenodd"/><path d="M2630.5 1484.12 2651.5 1460.5 2650.5 1491.5 2630.5 1484.12Z" stroke="#000000" stroke-width="3.4375" stroke-miterlimit="8" fill="none" fill-rule="evenodd"/><path d="M2534.5 1840.5C2534.5 1810.68 2558.68 1786.5 2588.5 1786.5 2618.32 1786.5 2642.5 1810.68 2642.5 1840.5 2642.5 1870.32 2618.32 1894.5 2588.5 1894.5 2558.68 1894.5 2534.5 1870.32 2534.5 1840.5Z" stroke="#000000" stroke-width="3.4375" stroke-miterlimit="8" fill="none" fill-rule="evenodd"/><text font-family="Times New Roman,Times New Roman_MSFontService,sans-serif" font-weight="400" font-size="64" transform="matrix(1 0 0 1 2567.16 1863)">├Ч</text><path d="M2588.5 1785.5C2588.5 1762.5 2588.5 1734.5 2588.5 1708.5" stroke="#000000" stroke-width="3.4375" stroke-miterlimit="8" fill="none" fill-rule="evenodd"/><path d="M2577 1708 2588.26 1678 2599 1708 2577 1708Z" fill-rule="evenodd"/><path d="M2577.5 1708.5 2588.76 1678.5 2599.5 1708.5 2577.5 1708.5Z" stroke="#000000" stroke-width="3.4375" stroke-miterlimit="8" fill="none" fill-rule="evenodd"/><path d="M2696.5 1624.5C2696.5 1594.68 2720.68 1570.5 2750.5 1570.5 2780.32 1570.5 2804.5 1594.68 2804.5 1624.5 2804.5 1654.32 2780.32 1678.5 2750.5 1678.5 2720.68 1678.5 2696.5 1654.32 2696.5 1624.5Z" stroke="#000000" stroke-width="3.4375" stroke-miterlimit="8" fill="none" fill-rule="evenodd"/><text font-family="Times New Roman,Times New Roman_MSFontService,sans-serif" font-weight="400" font-size="64" transform="matrix(1 0 0 1 2730.87 1645)">├Ч</text><path d="M2731.5 1572.5C2721.65 1547.5 2709.84 1516 2699.5 1487.5" stroke="#000000" stroke-width="3.4375" stroke-miterlimit="8" fill="none" fill-rule="evenodd"/><path d="M2688.98 1491 2688 1460 2708 1483.62 2688.98 1491Z" fill-rule="evenodd"/><path d="M2689.48 1491.5 2688.5 1460.5 2708.5 1484.12 2689.48 1491.5Z" stroke="#000000" stroke-width="3.4375" stroke-miterlimit="8" fill="none" fill-rule="evenodd"/><path d="M2858.5 1840.5C2858.5 1810.68 2882.68 1786.5 2912.5 1786.5 2942.32 1786.5 2966.5 1810.68 2966.5 1840.5 2966.5 1870.32 2942.32 1894.5 2912.5 1894.5 2882.68 1894.5 2858.5 1870.32 2858.5 1840.5Z" stroke="#000000" stroke-width="3.4375" stroke-miterlimit="8" fill="none" fill-rule="evenodd"/><text font-family="Times New Roman,Times New Roman_MSFontService,sans-serif" font-weight="400" font-size="64" transform="matrix(1 0 0 1 2894.29 1863)">+</text><path d="M2880.5 1795.5C2857.79 1766.14 2827.67 1726.34 2801.5 1692.5" stroke="#000000" stroke-width="3.4375" stroke-miterlimit="8" fill="none" fill-rule="evenodd"/><path d="M2792.19 1698 2782 1668 2809 1685.5 2792.19 1698Z" fill-rule="evenodd"/><path d="M2792.69 1698.5 2782.5 1668.5 2809.5 1686 2792.69 1698.5Z" stroke="#000000" stroke-width="3.4375" stroke-miterlimit="8" fill="none" fill-rule="evenodd"/><path d="M2924.5 2056.25C2924.5 2086.61 2900.61 2110.5 2870.25 2110.5 2840.89 2110.5 2816.5 2086.61 2816.5 2056.25 2816.5 2026.89 2840.89 2002.5 2870.25 2002.5 2900.61 2002.5 2924.5 2026.89 2924.5 2056.25" stroke="#000000" stroke-width="3.4375" stroke-miterlimit="8" fill="none" fill-rule="evenodd"/><text font-family="Times New Roman,Times New Roman_MSFontService,sans-serif" font-weight="400" font-size="64" transform="matrix(1 0 0 1 2851.3 2083)">├Ч</text><path d="M2880.5 2002.5C2885.5 1979 2891 1950 2896.5 1923.5" stroke="#000000" stroke-width="3.4375" stroke-miterlimit="8" fill="none" fill-rule="evenodd"/><path d="M2886 1920.06 2902.1 1893 2906 1924 2886 1920.06Z" fill-rule="evenodd"/><path d="M2886.5 1920.56 2902.6 1893.5 2906.5 1924.5 2886.5 1920.56Z" stroke="#000000" stroke-width="3.4375" stroke-miterlimit="8" fill="none" fill-rule="evenodd"/><path d="M3086.5 2056.25C3086.5 2086.61 3062.61 2110.5 3032.75 2110.5 3002.89 2110.5 2978.5 2086.61 2978.5 2056.25 2978.5 2026.89 3002.89 2002.5 3032.75 2002.5 3062.61 2002.5 3086.5 2026.89 3086.5 2056.25" stroke="#000000" stroke-width="3.4375" stroke-miterlimit="8" fill="none" fill-rule="evenodd"/><text font-family="Times New Roman,Times New Roman_MSFontService,sans-serif" font-weight="400" font-size="64" transform="matrix(1 0 0 1 3016.49 2082)">├Ч</text><path d="M3006.5 2007.5C2990.8 1980.65 2971.18 1945.84 2954.5 1915.5" stroke="#000000" stroke-width="3.4375" stroke-miterlimit="8" fill="none" fill-rule="evenodd"/><path d="M2944 1919 2938 1888 2962 1908.67 2944 1919Z" fill-rule="evenodd"/><path d="M2944.5 1919.5 2938.5 1888.5 2962.5 1909.17 2944.5 1919.5Z" stroke="#000000" stroke-width="3.4375" stroke-miterlimit="8" fill="none" fill-rule="evenodd"/><rect x="2453.5" y="2002.5" width="108" height="108" stroke="#000000" stroke-width="3.4375" stroke-miterlimit="8" fill="none"/><path d="M2527.5 2001.5C2536.85 1976.5 2548.17 1946.5 2558.5 1919.5" stroke="#000000" stroke-width="3.4375" stroke-miterlimit="8" fill="none" fill-rule="evenodd"/><path d="M2549 1915.5 2569 1891 2568.02 1923 2549 1915.5Z" fill-rule="evenodd"/><path d="M2549.5 1916 2569.5 1891.5 2568.52 1923.5 2549.5 1916Z" stroke="#000000" stroke-width="3.4375" stroke-miterlimit="8" fill="none" fill-rule="evenodd"/><rect x="2615.5" y="2002.5" width="108" height="108" stroke="#000000" stroke-width="3.4375" stroke-miterlimit="8" fill="none"/><path d="M2649.5 2001.5C2640.15 1976.5 2628.83 1946.5 2618.5 1919.5" stroke="#000000" stroke-width="3.4375" stroke-miterlimit="8" fill="none" fill-rule="evenodd"/><path d="M2608 1923 2607 1891 2628 1915.5 2608 1923Z" fill-rule="evenodd"/><path d="M2608.5 1923.5 2607.5 1891.5 2628.5 1916 2608.5 1923.5Z" stroke="#000000" stroke-width="3.4375" stroke-miterlimit="8" fill="none" fill-rule="evenodd"/><rect x="3140.5" y="2217.5" width="108" height="109" stroke="#000000" stroke-width="3.4375" stroke-miterlimit="8" fill="none"/><path d="M3189.6 2268.62C3190.44 2268.62 3191.18 2268.72 3191.81 2268.91 3192.45 2269.1 3193.01 2269.39 3193.49 2269.78 3193.98 2270.17 3194.41 2270.68 3194.79 2271.3 3195.17 2271.92 3195.53 2272.76 3195.88 2273.83 3196.24 2274.9 3196.57 2276.22 3196.88 2277.8 3197.19 2279.38 3197.47 2281.02 3197.71 2282.73L3198.11 2282.73C3200.71 2279.08 3202.67 2276.41 3204.01 2274.72 3205.35 2273.03 3206.48 2271.78 3207.39 2270.95 3208.31 2270.13 3209.2 2269.55 3210.05 2269.21 3210.9 2268.87 3212.03 2268.7 3213.43 2268.7 3214.7 2268.7 3215.74 2268.87 3216.55 2269.19L3214.93 2276.53 3212.1 2276.53C3211.93 2275.39 3211.46 2274.82 3210.68 2274.82 3210.43 2274.82 3210.18 2274.86 3209.91 2274.95 3209.64 2275.03 3209.31 2275.2 3208.91 2275.47 3208.52 2275.74 3207.95 2276.27 3207.19 2277.05 3206.44 2277.84 3205.58 2278.8 3204.64 2279.93 3203.69 2281.07 3202.72 2282.25 3201.72 2283.5L3198.96 2286.94C3199.45 2289.54 3199.91 2291.78 3200.34 2293.67 3200.78 2295.56 3201.16 2297.13 3201.5 2298.39 3201.84 2299.65 3202.13 2300.64 3202.39 2301.37 3202.65 2302.1 3202.92 2302.65 3203.22 2303.01 3203.52 2303.38 3203.82 2303.63 3204.13 2303.78 3204.44 2303.93 3204.8 2304 3205.21 2304 3205.94 2304 3206.64 2303.72 3207.33 2303.15 3208.02 2302.59 3209.02 2301.3 3210.31 2299.3L3212.95 2301.05C3211.06 2303.85 3209.35 2305.83 3207.82 2306.98 3206.29 2308.13 3204.48 2308.7 3202.37 2308.7 3201.21 2308.7 3200.22 2308.5 3199.41 2308.08 3198.6 2307.66 3197.9 2306.99 3197.3 2306.07 3196.71 2305.15 3196.18 2303.72 3195.72 2301.77 3194.89 2298.32 3194.37 2295.67 3194.18 2293.83L3193.78 2293.83C3190.91 2297.86 3188.79 2300.75 3187.39 2302.5 3186 2304.26 3184.85 2305.56 3183.95 2306.39 3183.04 2307.23 3182.17 2307.82 3181.32 2308.16 3180.46 2308.5 3179.34 2308.66 3177.93 2308.66 3176.66 2308.66 3175.62 2308.5 3174.81 2308.18L3176.43 2300.84 3179.27 2300.84C3179.43 2301.98 3179.9 2302.54 3180.69 2302.54 3181.07 2302.54 3181.46 2302.44 3181.88 2302.24 3182.3 2302.04 3182.9 2301.55 3183.69 2300.78 3184.47 2300.01 3185.55 2298.8 3186.93 2297.15 3188.31 2295.51 3190.31 2293.03 3192.93 2289.74 3192.52 2287.6 3192.1 2285.55 3191.67 2283.58 3191.24 2281.61 3190.79 2279.77 3190.33 2278.07 3189.87 2276.36 3189.49 2275.25 3189.2 2274.72 3188.9 2274.2 3188.58 2273.83 3188.25 2273.63 3187.91 2273.43 3187.48 2273.32 3186.97 2273.32 3186.4 2273.32 3185.89 2273.45 3185.43 2273.71 3184.97 2273.97 3184.47 2274.41 3183.93 2275.05 3183.39 2275.68 3182.67 2276.67 3181.78 2278.03L3179.15 2276.28C3180.85 2273.72 3182.48 2271.8 3184.05 2270.53 3185.62 2269.26 3187.47 2268.62 3189.6 2268.62Z" fill-rule="evenodd"/><text fill="#000000" fill-opacity="0" font-family="Arial,Arial_MSFontService,sans-serif" font-size="40.0815" x="3174.81" y="2303.69">ЁЭСе</text><path d="M3154.5 2217.5C3133 2189.65 3106.5 2155.34 3083.5 2125.5" stroke="#000000" stroke-width="3.4375" stroke-miterlimit="8" fill="none" fill-rule="evenodd"/><path d="M3074.19 2130 3064 2100 3091 2117 3074.19 2130Z" fill-rule="evenodd"/><path d="M3074.69 2130.5 3064.5 2100.5 3091.5 2117.5 3074.69 2130.5Z" stroke="#000000" stroke-width="3.4375" stroke-miterlimit="8" fill="none" fill-rule="evenodd"/><rect x="2372.5" y="1786.5" width="108" height="108" stroke="#000000" stroke-width="3.4375" stroke-miterlimit="8" fill="none"/><text font-family="Times New Roman,Times New Roman_MSFontService,sans-serif" font-weight="400" font-size="64" transform="matrix(1 0 0 1 2416.9 1875)">2</text><path d="M2466.5 1785.5C2487.85 1757.5 2514.66 1723 2537.5 1693.5" stroke="#000000" stroke-width="3.4375" stroke-miterlimit="8" fill="none" fill-rule="evenodd"/><path d="M2530 1685.79 2556 1668 2545.89 1699 2530 1685.79Z" fill-rule="evenodd"/><path d="M2530.5 1686.29 2556.5 1668.5 2546.39 1699.5 2530.5 1686.29Z" stroke="#000000" stroke-width="3.4375" stroke-miterlimit="8" fill="none" fill-rule="evenodd"/><rect x="2654.5" y="2217.5" width="108" height="109" stroke="#000000" stroke-width="3.4375" stroke-miterlimit="8" fill="none"/><text font-family="Times New Roman,Times New Roman_MSFontService,sans-serif" font-weight="400" font-size="64" transform="matrix(1 0 0 1 2698.95 2307)">2</text><path d="M2748.5 2217.5C2770 2189.65 2797 2155.34 2819.5 2125.5" stroke="#000000" stroke-width="3.4375" stroke-miterlimit="8" fill="none" fill-rule="evenodd"/><path d="M2812 2117 2838 2100 2828.19 2130 2812 2117Z" fill-rule="evenodd"/><path d="M2812.5 2117.5 2838.5 2100.5 2828.69 2130.5 2812.5 2117.5Z" stroke="#000000" stroke-width="3.4375" stroke-miterlimit="8" fill="none" fill-rule="evenodd"/><rect x="2696.5" y="1786.5" width="108" height="108" stroke="#000000" stroke-width="3.4375" stroke-miterlimit="8" fill="none"/><text font-family="Times New Roman,Times New Roman_MSFontService,sans-serif" font-weight="400" font-size="64" transform="matrix(1 0 0 1 2732.34 1875)">-</text><text font-family="Times New Roman,Times New Roman_MSFontService,sans-serif" font-weight="400" font-size="64" transform="matrix(1 0 0 1 2753.54 1875)">3</text><path d="M2750.5 1785.5C2750.5 1762.5 2750.5 1734.5 2750.5 1708.5" stroke="#000000" stroke-width="3.4375" stroke-miterlimit="8" fill="none" fill-rule="evenodd"/><path d="M2740 1708 2750.5 1678 2761 1708 2740 1708Z" fill-rule="evenodd"/><path d="M2740.5 1708.5 2751 1678.5 2761.5 1708.5 2740.5 1708.5Z" stroke="#000000" stroke-width="3.4375" stroke-miterlimit="8" fill="none" fill-rule="evenodd"/><rect x="2816.5" y="2217.5" width="108" height="109" stroke="#000000" stroke-width="3.4375" stroke-miterlimit="8" fill="none"/><path d="M2864.51 2268.04C2865.61 2268.04 2866.56 2268.19 2867.34 2268.48 2867.88 2268.7 2868.42 2269.06 2868.96 2269.56 2869.5 2270.06 2869.98 2270.75 2870.4 2271.64 2870.82 2272.54 2871.19 2273.54 2871.5 2274.64 2871.81 2275.75 2872.15 2277.35 2872.53 2279.43 2873.18 2282.91 2873.81 2286.58 2874.41 2290.43 2875.02 2294.28 2875.54 2297.85 2875.97 2301.15 2878.6 2297.37 2880.82 2293.66 2882.64 2290.04 2884.47 2286.42 2885.78 2283.28 2886.57 2280.6 2887.37 2277.93 2887.77 2275.75 2887.77 2274.08 2887.77 2272.81 2887.5 2271.94 2886.96 2271.48 2886.42 2271.02 2885.5 2270.75 2884.2 2270.67L2884.61 2268.69 2895.27 2268.69 2896.36 2270.71C2894.31 2276.33 2891.52 2282.34 2888.01 2288.75 2884.55 2295.02 2880.59 2301.26 2876.14 2307.47 2871.87 2313.39 2868.31 2317.67 2865.48 2320.32 2863.51 2322.13 2861.6 2323.43 2859.76 2324.21 2858.3 2324.8 2856.75 2325.1 2855.1 2325.1 2854.54 2325.1 2853.88 2325.05 2853.14 2324.96 2852.39 2324.86 2851.82 2324.74 2851.42 2324.57L2853.16 2316.71 2856.36 2316.71C2856.36 2318.44 2856.95 2319.3 2858.14 2319.3 2859.71 2319.3 2861.53 2318.33 2863.61 2316.37 2865.69 2314.41 2868.14 2311.46 2870.95 2307.51 2870.17 2302.78 2869.1 2297.08 2867.75 2290.41 2866.32 2283.28 2865.37 2278.86 2864.91 2277.16 2864.34 2275.1 2863.75 2273.79 2863.13 2273.23 2862.75 2272.87 2862.28 2272.7 2861.71 2272.7 2860.84 2272.7 2860.03 2273.05 2859.28 2273.75 2858.52 2274.45 2857.59 2275.67 2856.48 2277.4L2853.85 2275.66C2855.71 2272.87 2857.45 2270.91 2859.07 2269.76 2860.7 2268.61 2862.51 2268.04 2864.51 2268.04Z" fill-rule="evenodd"/><text fill="#000000" fill-opacity="0" font-family="Arial,Arial_MSFontService,sans-serif" font-size="57.0625" x="2851.42" y="2317.97">ЁЭСж</text><path d="M2870.5 2217.5C2870.5 2194 2870.5 2166.5 2870.5 2140.5" stroke="#000000" stroke-width="3.4375" stroke-miterlimit="8" fill="none" fill-rule="evenodd"/><path d="M2859 2140 2869.74 2110 2881 2140 2859 2140Z" fill-rule="evenodd"/><path d="M2859.5 2140.5 2870.24 2110.5 2881.5 2140.5 2859.5 2140.5Z" stroke="#000000" stroke-width="3.4375" stroke-miterlimit="8" fill="none" fill-rule="evenodd"/><rect x="2978.5" y="2217.5" width="108" height="109" stroke="#000000" stroke-width="3.4375" stroke-miterlimit="8" fill="none"/><text font-family="Times New Roman,Times New Roman_MSFontService,sans-serif" font-weight="400" font-size="64" transform="matrix(1 0 0 1 3022.86 2307)">7</text><path d="M3032.5 2217.5C3032.5 2194 3032.5 2166.5 3032.5 2140.5" stroke="#000000" stroke-width="3.4375" stroke-miterlimit="8" fill="none" fill-rule="evenodd"/><path d="M3021 2140 3032.26 2110 3043 2140 3021 2140Z" fill-rule="evenodd"/><path d="M3021.5 2140.5 3032.76 2110.5 3043.5 2140.5 3021.5 2140.5Z" stroke="#000000" stroke-width="3.4375" stroke-miterlimit="8" fill="none" fill-rule="evenodd"/><path d="M2657.1 2054.84C2657.94 2054.84 2658.68 2054.94 2659.31 2055.13 2659.95 2055.32 2660.51 2055.61 2660.99 2056 2661.48 2056.39 2661.91 2056.9 2662.29 2057.52 2662.67 2058.14 2663.03 2058.99 2663.38 2060.05 2663.73 2061.12 2664.07 2062.44 2664.38 2064.02 2664.69 2065.6 2664.96 2067.25 2665.21 2068.95L2665.61 2068.95C2668.21 2065.3 2670.17 2062.63 2671.51 2060.94 2672.85 2059.26 2673.97 2058 2674.89 2057.18 2675.81 2056.35 2676.7 2055.77 2677.55 2055.43 2678.4 2055.09 2679.53 2054.93 2680.93 2054.93 2682.2 2054.93 2683.24 2055.09 2684.05 2055.41L2682.43 2062.75 2679.59 2062.75C2679.43 2061.61 2678.96 2061.05 2678.18 2061.05 2677.93 2061.05 2677.68 2061.09 2677.41 2061.17 2677.14 2061.25 2676.8 2061.42 2676.41 2061.69 2676.02 2061.96 2675.45 2062.49 2674.69 2063.27 2673.93 2064.06 2673.08 2065.02 2672.14 2066.15 2671.19 2067.29 2670.22 2068.48 2669.22 2069.72L2666.46 2073.16C2666.95 2075.76 2667.41 2078 2667.84 2079.89 2668.27 2081.78 2668.66 2083.36 2669 2084.61 2669.33 2085.87 2669.63 2086.86 2669.89 2087.59 2670.14 2088.32 2670.42 2088.87 2670.72 2089.23 2671.02 2089.6 2671.32 2089.85 2671.63 2090 2671.94 2090.15 2672.3 2090.23 2672.7 2090.23 2673.43 2090.23 2674.14 2089.94 2674.83 2089.37 2675.52 2088.81 2676.51 2087.52 2677.81 2085.52L2680.45 2087.27C2678.55 2090.08 2676.85 2092.06 2675.32 2093.2 2673.79 2094.35 2671.98 2094.93 2669.87 2094.93 2668.71 2094.93 2667.72 2094.72 2666.91 2094.3 2666.1 2093.88 2665.4 2093.21 2664.8 2092.29 2664.21 2091.37 2663.68 2089.94 2663.22 2088 2662.38 2084.54 2661.87 2081.89 2661.68 2080.05L2661.28 2080.05C2658.41 2084.08 2656.28 2086.97 2654.89 2088.73 2653.5 2090.48 2652.35 2091.78 2651.45 2092.62 2650.54 2093.45 2649.66 2094.04 2648.81 2094.38 2647.96 2094.72 2646.83 2094.89 2645.43 2094.89 2644.16 2094.89 2643.12 2094.72 2642.31 2094.4L2643.93 2087.06 2646.77 2087.06C2646.93 2088.2 2647.4 2088.77 2648.19 2088.77 2648.56 2088.77 2648.96 2088.67 2649.38 2088.46 2649.8 2088.26 2650.4 2087.77 2651.18 2087 2651.97 2086.23 2653.05 2085.02 2654.43 2083.38 2655.8 2081.73 2657.8 2079.26 2660.42 2075.96 2660.02 2073.83 2659.6 2071.77 2659.17 2069.8 2658.74 2067.83 2658.29 2065.99 2657.83 2064.29 2657.37 2062.59 2656.99 2061.47 2656.7 2060.94 2656.4 2060.42 2656.08 2060.05 2655.74 2059.85 2655.41 2059.65 2654.98 2059.55 2654.47 2059.55 2653.9 2059.55 2653.39 2059.67 2652.93 2059.93 2652.47 2060.19 2651.97 2060.63 2651.43 2061.27 2650.89 2061.9 2650.17 2062.9 2649.28 2064.25L2646.65 2062.5C2648.35 2059.94 2649.98 2058.02 2651.55 2056.75 2653.12 2055.48 2654.97 2054.84 2657.1 2054.84Z" fill-rule="evenodd"/><text fill="#000000" fill-opacity="0" font-family="Arial,Arial_MSFontService,sans-serif" font-size="40.0815" x="2642.31" y="2089.92">ЁЭСе</text><path d="M2503.35 2049.24C2504.19 2049.24 2504.92 2049.33 2505.56 2049.52 2506.19 2049.71 2506.75 2050 2507.24 2050.39 2507.72 2050.78 2508.16 2051.29 2508.54 2051.91 2508.91 2052.53 2509.28 2053.38 2509.63 2054.44 2509.98 2055.51 2510.31 2056.83 2510.62 2058.41 2510.93 2060 2511.21 2061.64 2511.45 2063.34L2511.86 2063.34C2514.45 2059.69 2516.42 2057.02 2517.76 2055.33 2519.09 2053.65 2520.22 2052.39 2521.14 2051.57 2522.06 2050.74 2522.94 2050.16 2523.79 2049.82 2524.65 2049.49 2525.77 2049.32 2527.18 2049.32 2528.45 2049.32 2529.49 2049.48 2530.3 2049.8L2528.68 2057.14 2525.84 2057.14C2525.68 2056 2525.21 2055.44 2524.42 2055.44 2524.18 2055.44 2523.92 2055.48 2523.65 2055.56 2523.38 2055.64 2523.05 2055.81 2522.66 2056.08 2522.27 2056.35 2521.69 2056.88 2520.94 2057.67 2520.18 2058.45 2519.33 2059.41 2518.38 2060.54 2517.44 2061.68 2516.47 2062.87 2515.47 2064.11L2512.71 2067.55C2513.2 2070.15 2513.66 2072.39 2514.09 2074.28 2514.52 2076.17 2514.91 2077.75 2515.24 2079 2515.58 2080.26 2515.88 2081.25 2516.13 2081.98 2516.39 2082.71 2516.67 2083.26 2516.97 2083.62 2517.26 2083.99 2517.57 2084.24 2517.88 2084.39 2518.19 2084.54 2518.55 2084.62 2518.95 2084.62 2519.68 2084.62 2520.39 2084.33 2521.08 2083.76 2521.77 2083.2 2522.76 2081.91 2524.06 2079.91L2526.69 2081.66C2524.8 2084.47 2523.09 2086.45 2521.56 2087.59 2520.04 2088.74 2518.22 2089.32 2516.11 2089.32 2514.95 2089.32 2513.97 2089.11 2513.16 2088.69 2512.34 2088.27 2511.64 2087.6 2511.05 2086.68 2510.45 2085.76 2509.93 2084.33 2509.47 2082.39 2508.63 2078.93 2508.12 2076.28 2507.93 2074.44L2507.52 2074.44C2504.66 2078.47 2502.53 2081.36 2501.14 2083.12 2499.75 2084.87 2498.6 2086.17 2497.69 2087.01 2496.79 2087.84 2495.91 2088.43 2495.06 2088.77 2494.21 2089.11 2493.08 2089.28 2491.68 2089.28 2490.41 2089.28 2489.37 2089.11 2488.56 2088.79L2490.18 2081.45 2493.01 2081.45C2493.18 2082.59 2493.65 2083.16 2494.43 2083.16 2494.81 2083.16 2495.21 2083.06 2495.63 2082.85 2496.05 2082.65 2496.65 2082.16 2497.43 2081.39 2498.21 2080.62 2499.3 2079.41 2500.67 2077.77 2502.05 2076.12 2504.05 2073.65 2506.67 2070.35 2506.27 2068.22 2505.85 2066.16 2505.41 2064.19 2504.98 2062.22 2504.54 2060.38 2504.08 2058.68 2503.62 2056.98 2503.24 2055.86 2502.94 2055.33 2502.65 2054.81 2502.33 2054.44 2501.99 2054.24 2501.65 2054.04 2501.23 2053.94 2500.71 2053.94 2500.15 2053.94 2499.63 2054.06 2499.17 2054.32 2498.71 2054.58 2498.21 2055.02 2497.67 2055.66 2497.13 2056.29 2496.42 2057.29 2495.53 2058.64L2492.89 2056.9C2494.59 2054.33 2496.23 2052.41 2497.8 2051.14 2499.36 2049.87 2501.21 2049.24 2503.35 2049.24Z" fill-rule="evenodd"/><text fill="#000000" fill-opacity="0" font-family="Arial,Arial_MSFontService,sans-serif" font-size="40.0815" x="2488.56" y="2084.31">ЁЭСе</text></g></svg>