<svg width="686" height="727" xmlns="http://www.w3.org/2000/svg" xmlns:xlink="http://www.w3.org/1999/xlink" xml:space="preserve" overflow="hidden"><g transform="translate(-3496 -1580)"><path d="M3901.5 1643.21C3901.5 1678.07 3873.94 1705.5 3839.5 1705.5 3805.06 1705.5 3777.5 1678.07 3777.5 1643.21 3777.5 1609.5 3805.06 1581.5 3839.5 1581.5 3873.94 1581.5 3901.5 1609.5 3901.5 1643.21" stroke="#000000" stroke-width="3.4375" stroke-miterlimit="8" fill="none" fill-rule="evenodd"/><text font-family="Times New Roman,Times New Roman_MSFontService,sans-serif" font-weight="400" font-size="64" transform="matrix(1 0 0 1 3820.71 1664)">+</text><path d="M3808.5 1943.5C3808.5 1977.94 3780.85 2005.5 3745.71 2005.5 3711.73 2005.5 3683.5 1977.94 3683.5 1943.5 3683.5 1909.06 3711.73 1881.5 3745.71 1881.5 3780.85 1881.5 3808.5 1909.06 3808.5 1943.5" stroke="#000000" stroke-width="3.4375" stroke-miterlimit="8" fill="none" fill-rule="evenodd"/><text font-family="Times New Roman,Times New Roman_MSFontService,sans-serif" font-weight="400" font-size="64" transform="matrix(1 0 0 1 3725.19 1967)">├Ч</text><path d="M3764.5 1883.5C3777.56 1842.11 3795.17 1785.21 3810.5 1737.5" stroke="#000000" stroke-width="3.4375" stroke-miterlimit="8" fill="none" fill-rule="evenodd"/><path d="M3799 1732.14 3820.85 1703 3822 1739 3799 1732.14Z" fill-rule="evenodd"/><path d="M3799.5 1732.64 3821.35 1703.5 3822.5 1739.5 3799.5 1732.64Z" stroke="#000000" stroke-width="3.4375" stroke-miterlimit="8" fill="none" fill-rule="evenodd"/><text font-family="Times New Roman,Times New Roman_MSFontService,sans-serif" font-weight="400" font-size="64" transform="matrix(1 0 0 1 3737.33 1818)">2</text><path d="M3870.5 1943.5C3870.5 1909.26 3898.26 1881.5 3932.5 1881.5 3966.74 1881.5 3994.5 1909.26 3994.5 1943.5 3994.5 1977.74 3966.74 2005.5 3932.5 2005.5 3898.26 2005.5 3870.5 1977.74 3870.5 1943.5Z" stroke="#000000" stroke-width="3.4375" stroke-miterlimit="8" fill="none" fill-rule="evenodd"/><text font-family="Times New Roman,Times New Roman_MSFontService,sans-serif" font-weight="400" font-size="64" transform="matrix(1 0 0 1 3914.21 1962)">+</text><path d="M3914.5 1883.5C3901.15 1842.11 3883.17 1785.21 3867.5 1737.5" stroke="#000000" stroke-width="3.4375" stroke-miterlimit="8" fill="none" fill-rule="evenodd"/><path d="M3856 1739 3856.56 1703 3878 1732.14 3856 1739Z" fill-rule="evenodd"/><path d="M3856.5 1739.5 3857.06 1703.5 3878.5 1732.64 3856.5 1739.5Z" stroke="#000000" stroke-width="3.4375" stroke-miterlimit="8" fill="none" fill-rule="evenodd"/><text font-family="Times New Roman,Times New Roman_MSFontService,sans-serif" font-weight="400" font-size="64" transform="matrix(1 0 0 1 3907.49 1817)">-</text><text font-family="Times New Roman,Times New Roman_MSFontService,sans-serif" font-weight="400" font-size="64" transform="matrix(1 0 0 1 3928.69 1817)">3</text><rect x="3497.5" y="2181.5" width="125" height="124" stroke="#000000" stroke-width="3.4375" stroke-miterlimit="8" fill="none"/><path d="M3554.41 2236.91C3555.25 2236.91 3555.98 2237.01 3556.62 2237.19 3557.25 2237.38 3557.81 2237.67 3558.3 2238.07 3558.79 2238.46 3559.22 2238.96 3559.6 2239.59 3559.97 2240.21 3560.34 2241.05 3560.69 2242.12 3561.04 2243.19 3561.37 2244.51 3561.68 2246.09 3561.99 2247.67 3562.27 2249.31 3562.51 2251.01L3562.92 2251.01C3565.51 2247.37 3567.48 2244.7 3568.82 2243.01 3570.15 2241.32 3571.28 2240.07 3572.2 2239.24 3573.12 2238.42 3574 2237.84 3574.85 2237.5 3575.71 2237.16 3576.83 2236.99 3578.24 2236.99 3579.51 2236.99 3580.55 2237.15 3581.36 2237.48L3579.74 2244.81 3576.9 2244.81C3576.74 2243.68 3576.27 2243.11 3575.48 2243.11 3575.24 2243.11 3574.98 2243.15 3574.71 2243.23 3574.44 2243.31 3574.11 2243.49 3573.72 2243.76 3573.33 2244.03 3572.75 2244.56 3572 2245.34 3571.24 2246.12 3570.39 2247.08 3569.44 2248.22 3568.5 2249.35 3567.53 2250.54 3566.53 2251.78L3563.77 2255.23C3564.26 2257.82 3564.72 2260.07 3565.15 2261.96 3565.58 2263.85 3565.97 2265.42 3566.3 2266.68 3566.64 2267.93 3566.94 2268.93 3567.19 2269.66 3567.45 2270.39 3567.73 2270.93 3568.03 2271.3 3568.32 2271.66 3568.63 2271.92 3568.94 2272.07 3569.25 2272.22 3569.61 2272.29 3570.01 2272.29 3570.74 2272.29 3571.45 2272.01 3572.14 2271.44 3572.83 2270.87 3573.82 2269.59 3575.12 2267.59L3577.75 2269.33C3575.86 2272.14 3574.15 2274.12 3572.63 2275.27 3571.1 2276.42 3569.28 2276.99 3567.17 2276.99 3566.01 2276.99 3565.03 2276.78 3564.22 2276.36 3563.41 2275.95 3562.7 2275.28 3562.11 2274.36 3561.51 2273.44 3560.99 2272.01 3560.53 2270.06 3559.69 2266.6 3559.18 2263.96 3558.99 2262.12L3558.58 2262.12C3555.72 2266.14 3553.59 2269.04 3552.2 2270.79 3550.81 2272.55 3549.66 2273.84 3548.75 2274.68 3547.85 2275.52 3546.97 2276.11 3546.12 2276.45 3545.27 2276.78 3544.14 2276.95 3542.74 2276.95 3541.47 2276.95 3540.43 2276.79 3539.62 2276.47L3541.24 2269.13 3544.07 2269.13C3544.24 2270.27 3544.71 2270.83 3545.49 2270.83 3545.87 2270.83 3546.27 2270.73 3546.69 2270.53 3547.11 2270.33 3547.71 2269.84 3548.49 2269.07 3549.27 2268.3 3550.36 2267.09 3551.73 2265.44 3553.11 2263.79 3555.11 2261.32 3557.73 2258.03 3557.33 2255.89 3556.91 2253.84 3556.48 2251.87 3556.04 2249.89 3555.6 2248.06 3555.14 2246.35 3554.68 2244.65 3554.3 2243.54 3554 2243.01 3553.71 2242.48 3553.39 2242.12 3553.05 2241.92 3552.71 2241.71 3552.29 2241.61 3551.77 2241.61 3551.21 2241.61 3550.69 2241.74 3550.23 2242 3549.77 2242.25 3549.27 2242.7 3548.73 2243.33 3548.19 2243.97 3547.48 2244.96 3546.59 2246.31L3543.95 2244.57C3545.65 2242 3547.29 2240.09 3548.86 2238.82 3550.42 2237.55 3552.27 2236.91 3554.41 2236.91Z" fill-rule="evenodd"/><text fill="#000000" fill-opacity="0" font-family="Arial,Arial_MSFontService,sans-serif" font-size="40.0815" x="3539.62" y="2271.98">ЁЭСе</text><path d="M3597.5 2180.5C3626.15 2136.54 3664.55 2076.03 3695.5 2027.5" stroke="#000000" stroke-width="3.4375" stroke-miterlimit="8" fill="none" fill-rule="evenodd"/><path d="M3685 2019.58 3714 1997 3705.3 2032 3685 2019.58Z" fill-rule="evenodd"/><path d="M3685.5 2020.08 3714.5 1997.5 3705.8 2032.5 3685.5 2020.08Z" stroke="#000000" stroke-width="3.4375" stroke-miterlimit="8" fill="none" fill-rule="evenodd"/><rect x="3683.5" y="2181.5" width="125" height="124" stroke="#000000" stroke-width="3.4375" stroke-miterlimit="8" fill="none"/><path d="M3745.5 2180.5C3745.5 2140.34 3745.5 2086.4 3745.5 2040.5" stroke="#000000" stroke-width="3.4375" stroke-miterlimit="8" fill="none" fill-rule="evenodd"/><path d="M3733 2040 3745 2005 3757 2040 3733 2040Z" fill-rule="evenodd"/><path d="M3733.5 2040.5 3745.5 2005.5 3757.5 2040.5 3733.5 2040.5Z" stroke="#000000" stroke-width="3.4375" stroke-miterlimit="8" fill="none" fill-rule="evenodd"/><rect x="4056.5" y="2181.5" width="124" height="124" stroke="#000000" stroke-width="3.4375" stroke-miterlimit="8" fill="none"/><path d="M4081.5 2180.5C4053.42 2136.54 4014.45 2076.03 3983.5 2027.5" stroke="#000000" stroke-width="3.4375" stroke-miterlimit="8" fill="none" fill-rule="evenodd"/><path d="M3972.4 2032 3964 1997 3992 2019.58 3972.4 2032Z" fill-rule="evenodd"/><path d="M3972.9 2032.5 3964.5 1997.5 3992.5 2020.08 3972.9 2032.5Z" stroke="#000000" stroke-width="3.4375" stroke-miterlimit="8" fill="none" fill-rule="evenodd"/><text font-family="Times New Roman,Times New Roman_MSFontService,sans-serif" font-weight="400" font-size="64" transform="matrix(1 0 0 1 4055.3 2125)">7</text><rect x="3870.5" y="2181.5" width="124" height="124" stroke="#000000" stroke-width="3.4375" stroke-miterlimit="8" fill="none"/><path d="M3925.34 2232.83C3926.45 2232.83 3927.4 2232.98 3928.18 2233.27 3928.72 2233.49 3929.26 2233.85 3929.8 2234.35 3930.34 2234.85 3930.82 2235.54 3931.24 2236.43 3931.66 2237.33 3932.02 2238.32 3932.34 2239.43 3932.65 2240.54 3932.99 2242.13 3933.37 2244.21 3934.02 2247.7 3934.65 2251.37 3935.25 2255.22 3935.86 2259.07 3936.38 2262.64 3936.81 2265.94 3939.43 2262.16 3941.66 2258.45 3943.48 2254.83 3945.3 2251.21 3946.61 2248.06 3947.41 2245.39 3948.21 2242.72 3948.61 2240.54 3948.61 2238.87 3948.61 2237.6 3948.34 2236.73 3947.8 2236.27 3947.26 2235.81 3946.34 2235.54 3945.04 2235.46L3945.45 2233.48 3956.1 2233.48 3957.2 2235.5C3955.15 2241.12 3952.36 2247.13 3948.85 2253.54 3945.39 2259.8 3941.43 2266.05 3936.98 2272.26 3932.71 2278.18 3929.15 2282.46 3926.32 2285.11 3924.34 2286.92 3922.44 2288.21 3920.6 2289 3919.14 2289.59 3917.59 2289.89 3915.94 2289.89 3915.38 2289.89 3914.72 2289.84 3913.98 2289.75 3913.23 2289.65 3912.66 2289.52 3912.25 2289.36L3914 2281.5 3917.2 2281.5C3917.2 2283.23 3917.79 2284.09 3918.98 2284.09 3920.55 2284.09 3922.37 2283.11 3924.45 2281.16 3926.53 2279.2 3928.98 2276.24 3931.79 2272.3 3931.01 2267.57 3929.94 2261.87 3928.59 2255.2 3927.16 2248.06 3926.21 2243.65 3925.75 2241.95 3925.18 2239.89 3924.59 2238.58 3923.97 2238.01 3923.59 2237.66 3923.12 2237.49 3922.55 2237.49 3921.68 2237.49 3920.87 2237.84 3920.12 2238.54 3919.36 2239.24 3918.43 2240.46 3917.32 2242.19L3914.69 2240.45C3916.55 2237.66 3918.29 2235.7 3919.91 2234.55 3921.54 2233.4 3923.35 2232.83 3925.34 2232.83Z" fill-rule="evenodd"/><text fill="#000000" fill-opacity="0" font-family="Arial,Arial_MSFontService,sans-serif" font-size="57.0625" x="3912.25" y="2282.76">ЁЭСж</text><path d="M3932.5 2180.5C3932.5 2140.34 3932.5 2086.4 3932.5 2040.5" stroke="#000000" stroke-width="3.4375" stroke-miterlimit="8" fill="none" fill-rule="evenodd"/><path d="M3920 2040 3932 2005 3944 2040 3920 2040Z" fill-rule="evenodd"/><path d="M3920.5 2040.5 3932.5 2005.5 3944.5 2040.5 3920.5 2040.5Z" stroke="#000000" stroke-width="3.4375" stroke-miterlimit="8" fill="none" fill-rule="evenodd"/><text font-family="Times New Roman,Times New Roman_MSFontService,sans-serif" font-weight="400" font-size="64" transform="matrix(1 0 0 1 3890.3 2122)">2</text><path d="M3744.33 2234.62C3745.17 2234.62 3745.9 2234.71 3746.54 2234.9 3747.17 2235.09 3747.74 2235.38 3748.22 2235.77 3748.71 2236.17 3749.14 2236.67 3749.52 2237.29 3749.9 2237.92 3750.26 2238.76 3750.61 2239.83 3750.96 2240.89 3751.29 2242.22 3751.61 2243.8 3751.92 2245.38 3752.19 2247.02 3752.44 2248.72L3752.84 2248.72C3755.44 2245.08 3757.4 2242.41 3758.74 2240.72 3760.08 2239.03 3761.2 2237.77 3762.12 2236.95 3763.04 2236.13 3763.93 2235.54 3764.78 2235.21 3765.63 2234.87 3766.76 2234.7 3768.16 2234.7 3769.43 2234.7 3770.47 2234.86 3771.28 2235.19L3769.66 2242.52 3766.82 2242.52C3766.66 2241.39 3766.19 2240.82 3765.41 2240.82 3765.16 2240.82 3764.91 2240.86 3764.64 2240.94 3764.36 2241.02 3764.03 2241.2 3763.64 2241.47 3763.25 2241.74 3762.68 2242.27 3761.92 2243.05 3761.16 2243.83 3760.31 2244.79 3759.37 2245.93 3758.42 2247.06 3757.45 2248.25 3756.45 2249.49L3753.69 2252.94C3754.18 2255.53 3754.64 2257.77 3755.07 2259.67 3755.5 2261.56 3755.89 2263.13 3756.23 2264.39 3756.56 2265.64 3756.86 2266.64 3757.12 2267.37 3757.37 2268.1 3757.65 2268.64 3757.95 2269.01 3758.25 2269.37 3758.55 2269.63 3758.86 2269.78 3759.17 2269.93 3759.53 2270 3759.93 2270 3760.66 2270 3761.37 2269.72 3762.06 2269.15 3762.75 2268.58 3763.74 2267.3 3765.04 2265.3L3767.67 2267.04C3765.78 2269.85 3764.07 2271.83 3762.55 2272.98 3761.02 2274.13 3759.2 2274.7 3757.1 2274.7 3755.94 2274.7 3754.95 2274.49 3754.14 2274.07 3753.33 2273.65 3752.63 2272.99 3752.03 2272.07 3751.44 2271.15 3750.91 2269.72 3750.45 2267.77 3749.61 2264.31 3749.1 2261.66 3748.91 2259.83L3748.51 2259.83C3745.64 2263.85 3743.51 2266.74 3742.12 2268.5 3740.73 2270.26 3739.58 2271.55 3738.68 2272.39 3737.77 2273.23 3736.89 2273.82 3736.04 2274.15 3735.19 2274.49 3734.06 2274.66 3732.66 2274.66 3731.39 2274.66 3730.35 2274.5 3729.54 2274.17L3731.16 2266.84 3734 2266.84C3734.16 2267.97 3734.63 2268.54 3735.41 2268.54 3735.79 2268.54 3736.19 2268.44 3736.61 2268.24 3737.03 2268.03 3737.63 2267.55 3738.41 2266.78 3739.2 2266.01 3740.28 2264.8 3741.66 2263.15 3743.03 2261.5 3745.03 2259.03 3747.65 2255.73 3747.25 2253.6 3746.83 2251.55 3746.4 2249.57 3745.97 2247.6 3745.52 2245.76 3745.06 2244.06 3744.6 2242.36 3744.22 2241.25 3743.93 2240.72 3743.63 2240.19 3743.31 2239.83 3742.97 2239.62 3742.64 2239.42 3742.21 2239.32 3741.7 2239.32 3741.13 2239.32 3740.62 2239.45 3740.16 2239.71 3739.7 2239.96 3739.2 2240.41 3738.66 2241.04 3738.12 2241.68 3737.4 2242.67 3736.51 2244.02L3733.87 2242.28C3735.58 2239.71 3737.21 2237.79 3738.78 2236.52 3740.35 2235.25 3742.2 2234.62 3744.33 2234.62Z" fill-rule="evenodd"/><text fill="#000000" fill-opacity="0" font-family="Arial,Arial_MSFontService,sans-serif" font-size="40.0815" x="3729.54" y="2269.69">ЁЭСе</text><path d="M4110.58 2229.58C4111.42 2229.58 4112.15 2229.67 4112.79 2229.86 4113.42 2230.05 4113.98 2230.34 4114.47 2230.73 4114.96 2231.12 4115.39 2231.63 4115.77 2232.25 4116.15 2232.87 4116.51 2233.72 4116.86 2234.79 4117.21 2235.85 4117.54 2237.18 4117.85 2238.76 4118.17 2240.34 4118.44 2241.98 4118.69 2243.68L4119.09 2243.68C4121.69 2240.03 4123.65 2237.37 4124.99 2235.68 4126.33 2233.99 4127.45 2232.73 4128.37 2231.91 4129.29 2231.08 4130.18 2230.5 4131.03 2230.17 4131.88 2229.83 4133.01 2229.66 4134.41 2229.66 4135.68 2229.66 4136.72 2229.82 4137.53 2230.15L4135.91 2237.48 4133.07 2237.48C4132.91 2236.35 4132.44 2235.78 4131.65 2235.78 4131.41 2235.78 4131.15 2235.82 4130.88 2235.9 4130.61 2235.98 4130.28 2236.16 4129.89 2236.43 4129.5 2236.7 4128.93 2237.22 4128.17 2238.01 4127.41 2238.79 4126.56 2239.75 4125.62 2240.89 4124.67 2242.02 4123.7 2243.21 4122.7 2244.45L4119.94 2247.9C4120.43 2250.49 4120.89 2252.73 4121.32 2254.62 4121.75 2256.52 4122.14 2258.09 4122.48 2259.35 4122.81 2260.6 4123.11 2261.59 4123.37 2262.32 4123.62 2263.05 4123.9 2263.6 4124.2 2263.97 4124.5 2264.33 4124.8 2264.59 4125.11 2264.74 4125.42 2264.88 4125.78 2264.96 4126.18 2264.96 4126.91 2264.96 4127.62 2264.67 4128.31 2264.11 4129 2263.54 4129.99 2262.26 4131.29 2260.26L4133.92 2262C4132.03 2264.81 4130.32 2266.79 4128.8 2267.94 4127.27 2269.09 4125.45 2269.66 4123.35 2269.66 4122.19 2269.66 4121.2 2269.45 4120.39 2269.03 4119.58 2268.61 4118.88 2267.94 4118.28 2267.03 4117.69 2266.11 4117.16 2264.67 4116.7 2262.73 4115.86 2259.27 4115.35 2256.62 4115.16 2254.79L4114.75 2254.79C4111.89 2258.81 4109.76 2261.7 4108.37 2263.46 4106.98 2265.21 4105.83 2266.51 4104.93 2267.35 4104.02 2268.19 4103.14 2268.77 4102.29 2269.11 4101.44 2269.45 4100.31 2269.62 4098.91 2269.62 4097.64 2269.62 4096.6 2269.46 4095.79 2269.13L4097.41 2261.8 4100.25 2261.8C4100.41 2262.93 4100.88 2263.5 4101.66 2263.5 4102.04 2263.5 4102.44 2263.4 4102.86 2263.2 4103.28 2262.99 4103.88 2262.51 4104.66 2261.74 4105.45 2260.97 4106.53 2259.76 4107.91 2258.11 4109.28 2256.46 4111.28 2253.99 4113.9 2250.69 4113.5 2248.56 4113.08 2246.5 4112.65 2244.53 4112.22 2242.56 4111.77 2240.72 4111.31 2239.02 4110.85 2237.32 4110.47 2236.2 4110.18 2235.68 4109.88 2235.15 4109.56 2234.79 4109.22 2234.58 4108.89 2234.38 4108.46 2234.28 4107.95 2234.28 4107.38 2234.28 4106.87 2234.41 4106.41 2234.66 4105.95 2234.92 4105.45 2235.37 4104.91 2236 4104.37 2236.64 4103.65 2237.63 4102.76 2238.98L4100.12 2237.24C4101.83 2234.67 4103.46 2232.75 4105.03 2231.48 4106.6 2230.21 4108.45 2229.58 4110.58 2229.58Z" fill-rule="evenodd"/><text fill="#000000" fill-opacity="0" font-family="Arial,Arial_MSFontService,sans-serif" font-size="40.0815" x="4095.79" y="2264.65">ЁЭСе</text></g></svg>