<svg width="1921" height="1921" xmlns="http://www.w3.org/2000/svg" xmlns:xlink="http://www.w3.org/1999/xlink" overflow="hidden"><defs><clipPath id="clip0"><rect x="2157" y="280" width="1921" height="1921"/></clipPath><clipPath id="clip1"><rect x="3381" y="-25768" width="26322" height="26321"/></clipPath><clipPath id="clip2"><rect x="3360" y="-25711" width="26321" height="26322"/></clipPath><clipPath id="clip3"><rect x="3397" y="-25710" width="26321" height="26321"/></clipPath><clipPath id="clip4"><rect x="3407" y="-25711" width="26322" height="26322"/></clipPath><clipPath id="clip5"><rect x="3101" y="-25318" width="26322" height="26322"/></clipPath><clipPath id="clip6"><rect x="3080" y="-25261" width="26321" height="26322"/></clipPath><clipPath id="clip7"><rect x="3117" y="-25260" width="26321" height="26321"/></clipPath><clipPath id="clip8"><rect x="3129" y="-25260" width="26322" height="26321"/></clipPath><clipPath id="clip9"><rect x="2682" y="-24872" width="26321" height="26322"/></clipPath><clipPath id="clip10"><rect x="2660" y="-24814" width="26322" height="26321"/></clipPath><clipPath id="clip11"><rect x="2697" y="-24814" width="26322" height="26322"/></clipPath><clipPath id="clip12"><rect x="2709" y="-24814" width="26321" height="26321"/></clipPath><clipPath id="clip13"><rect x="2408" y="-24421" width="26322" height="26321"/></clipPath><clipPath id="clip14"><rect x="2380" y="-24364" width="26322" height="26321"/></clipPath><clipPath id="clip15"><rect x="2417" y="-24364" width="26322" height="26322"/></clipPath><clipPath id="clip16"><rect x="2433" y="-24364" width="26321" height="26321"/></clipPath><clipPath id="clip17"><rect x="2685" y="-24410" width="26321" height="26322"/></clipPath><clipPath id="clip18"><rect x="2660" y="-24364" width="26322" height="26321"/></clipPath><clipPath id="clip19"><rect x="2697" y="-24364" width="26322" height="26322"/></clipPath><clipPath id="clip20"><rect x="2713" y="-24364" width="26321" height="26321"/></clipPath><clipPath id="clip21"><rect x="3101" y="-24872" width="26322" height="26322"/></clipPath><clipPath id="clip22"><rect x="3080" y="-24814" width="26321" height="26321"/></clipPath><clipPath id="clip23"><rect x="3117" y="-24814" width="26321" height="26322"/></clipPath><clipPath id="clip24"><rect x="3128" y="-24814" width="26322" height="26321"/></clipPath><clipPath id="clip25"><rect x="2965" y="-24421" width="26321" height="26322"/></clipPath><clipPath id="clip26"><rect x="2940" y="-24364" width="26321" height="26321"/></clipPath><clipPath id="clip27"><rect x="2977" y="-24364" width="26322" height="26322"/></clipPath><clipPath id="clip28"><rect x="2993" y="-24364" width="26321" height="26321"/></clipPath><clipPath id="clip29"><rect x="3245" y="-24421" width="26321" height="26322"/></clipPath><clipPath id="clip30"><rect x="3220" y="-24364" width="26321" height="26321"/></clipPath><clipPath id="clip31"><rect x="3257" y="-24364" width="26321" height="26322"/></clipPath><clipPath id="clip32"><rect x="3273" y="-24364" width="26321" height="26321"/></clipPath><clipPath id="clip33"><rect x="3521" y="-25318" width="26322" height="26322"/></clipPath><clipPath id="clip34"><rect x="3500" y="-25261" width="26321" height="26322"/></clipPath><clipPath id="clip35"><rect x="3537" y="-25260" width="26321" height="26321"/></clipPath><clipPath id="clip36"><rect x="3549" y="-25260" width="26322" height="26321"/></clipPath><clipPath id="clip37"><rect x="3521" y="-24872" width="26322" height="26322"/></clipPath><clipPath id="clip38"><rect x="3500" y="-24814" width="26321" height="26321"/></clipPath><clipPath id="clip39"><rect x="3537" y="-24814" width="26321" height="26322"/></clipPath><clipPath id="clip40"><rect x="3548" y="-24814" width="26322" height="26321"/></clipPath><clipPath id="clip41"><rect x="3525" y="-24421" width="26322" height="26322"/></clipPath><clipPath id="clip42"><rect x="3500" y="-24364" width="26321" height="26321"/></clipPath><clipPath id="clip43"><rect x="3537" y="-24364" width="26321" height="26322"/></clipPath><clipPath id="clip44"><rect x="3553" y="-24364" width="26321" height="26321"/></clipPath><clipPath id="clip45"><rect x="3803" y="-24421" width="26322" height="26322"/></clipPath><clipPath id="clip46"><rect x="3780" y="-24364" width="26321" height="26321"/></clipPath><clipPath id="clip47"><rect x="3817" y="-24364" width="26321" height="26322"/></clipPath><clipPath id="clip48"><rect x="3833" y="-24364" width="26321" height="26321"/></clipPath><clipPath id="clip49"><rect x="3804" y="-24871" width="26322" height="26322"/></clipPath><clipPath id="clip50"><rect x="3780" y="-24814" width="26321" height="26321"/></clipPath><clipPath id="clip51"><rect x="3817" y="-24814" width="26321" height="26322"/></clipPath><clipPath id="clip52"><rect x="3833" y="-24814" width="26321" height="26321"/></clipPath></defs><g clip-path="url(#clip0)" transform="translate(-2157 -280)"><path d="M3344.22 654.711C3294.5 733.345 3220.29 850.676 3170.31 929.669" stroke="#2E3436" stroke-width="3.7827" stroke-miterlimit="10" fill="none"/><path d="M3426.56 665.325C3450.31 740.441 3483.46 845.253 3507.19 920.323" stroke="#2E3436" stroke-width="3.7827" stroke-miterlimit="10" fill="none"/><path d="M3048.56 1093.08C2970.49 1174.69 2843.51 1307.37 2765.44 1388.96" stroke="#2E3436" stroke-width="3.7827" stroke-miterlimit="10" fill="none"/><path d="M3116.96 1120.09C3116.96 1192.35 3116.96 1290.07 3116.96 1362.25" stroke="#2E3436" stroke-width="3.7827" stroke-miterlimit="10" fill="none"/><path d="M2644.42 1551.21C2594.7 1629.84 2520.48 1747.17 2470.52 1826.17" stroke="#2E3436" stroke-width="3.7827" stroke-miterlimit="10" fill="none"/><path d="M2697.07 1566.19C2697.07 1639.53 2697.07 1739.32 2697.07 1812.59" stroke="#2E3436" stroke-width="3.7827" stroke-miterlimit="10" fill="none"/><path d="M3087.27 1561.82C3063.52 1636.94 3030.37 1741.75 3006.63 1816.82" stroke="#2E3436" stroke-width="3.7827" stroke-miterlimit="10" fill="none"/><path d="M3146.64 1561.82C3170.39 1636.94 3203.53 1741.75 3227.28 1816.82" stroke="#2E3436" stroke-width="3.7827" stroke-miterlimit="10" fill="none"/><path d="M3536.83 1120.09C3536.83 1192.35 3536.83 1290.07 3536.83 1362.25" stroke="#2E3436" stroke-width="3.7827" stroke-miterlimit="10" fill="none"/><path d="M3590.14 1105.17C3639.95 1183.25 3713.9 1299.17 3763.65 1377.14" stroke="#2E3436" stroke-width="3.7827" stroke-miterlimit="10" fill="none"/><path d="M3536.83 1566.19C3536.83 1639.53 3536.83 1739.32 3536.83 1812.59" stroke="#2E3436" stroke-width="3.7827" stroke-miterlimit="10" fill="none"/><path d="M3589.49 1551.21C3639.21 1629.84 3713.44 1747.17 3763.39 1826.17" stroke="#2E3436" stroke-width="3.7827" stroke-miterlimit="10" fill="none"/><path d="M3498.02 567.686C3498.02 623.55 3452.74 668.846 3396.88 668.846 3341.02 668.846 3295.72 623.55 3295.72 567.686 3295.72 511.823 3341.02 466.527 3396.88 466.527 3452.74 466.527 3498.02 511.823 3498.02 567.686" fill="#EE7621"/><path d="M3498.02 567.686C3498.02 623.55 3452.74 668.846 3396.88 668.846 3341.02 668.846 3295.72 623.55 3295.72 567.686 3295.72 511.823 3341.02 466.527 3396.88 466.527 3452.74 466.527 3498.02 511.823 3498.02 567.686" stroke="#2E3436" stroke-width="3.7827" stroke-miterlimit="10" fill="none"/><g clip-path="url(#clip1)"><path d="M10.3799 12.9749 0 2.54202 2.54202 0 12.9219 10.4329 23.3548 0 25.8968 2.54202 15.464 12.9749 25.8968 23.3548 23.3548 25.8968 12.9219 15.464 2.54202 25.8968 0 23.3548 10.3799 12.9749Z" transform="matrix(1 0 0 -1 3381.86 552.884)"/></g><g clip-path="url(#clip2)"><path d="M15.9406 35.4294 15.464 35.4294 0 0 31.5634 0 15.9406 35.4294M24.0433 4.02487 6.9376 4.02487C5.66659 4.02487 5.18996 4.2367 5.18996 4.81925 5.18996 5.18996 5.4018 5.98434 5.77251 6.77872L14.3518 26.5853 24.0433 4.02487Z" transform="matrix(1 0 0 -1 3360.32 610.047)"/></g><g clip-path="url(#clip3)"><path d="M2.91273 24.8906C1.32397 24.8906 0 23.5667 0 21.872 0 20.3362 1.32397 19.0122 2.85977 19.0122 4.5015 19.0122 5.87842 20.2832 5.87842 21.872 5.87842 23.5137 4.5015 24.8906 2.91273 24.8906M2.91273 5.87842C1.32397 5.87842 0 4.55446 0 2.85977 0 1.32397 1.32397 0 2.85977 0 4.5015 0 5.87842 1.27101 5.87842 2.85977 5.87842 4.5015 4.5015 5.87842 2.91273 5.87842Z" transform="matrix(1 0 0 -1 3397.39 610.63)"/></g><g clip-path="url(#clip4)"><path d="M24.361 12.2335 18.9592 12.2335 18.9592 35.8001 16.6291 35.8001 0 12.2335 0 8.84412 14.8814 8.84412 14.8814 0 18.9592 0 18.9592 8.84412 24.361 8.84412 24.361 12.2335M14.8285 12.2335 2.11835 12.2335 14.8285 30.3983 14.8285 12.2335Z" transform="matrix(1 0 0 -1 3407.93 610.047)"/></g><path d="M3218.1 1017.83C3218.1 1073.69 3172.82 1118.97 3116.96 1118.97 3061.09 1118.97 3015.8 1073.69 3015.8 1017.83 3015.8 961.967 3061.09 916.671 3116.96 916.671 3172.82 916.671 3218.1 961.967 3218.1 1017.83" fill="#EE7621"/><path d="M3218.1 1017.83C3218.1 1073.69 3172.82 1118.97 3116.96 1118.97 3061.09 1118.97 3015.8 1073.69 3015.8 1017.83 3015.8 961.967 3061.09 916.671 3116.96 916.671 3172.82 916.671 3218.1 961.967 3218.1 1017.83" stroke="#2E3436" stroke-width="3.7827" stroke-miterlimit="10" fill="none"/><g clip-path="url(#clip5)"><path d="M10.3799 12.9749 0 2.54202 2.54202 0 12.9219 10.4329 23.3548 0 25.8968 2.54202 15.464 12.9749 25.8968 23.3548 23.3548 25.8968 12.9219 15.464 2.54202 25.8968 0 23.3548 10.3799 12.9749Z" transform="matrix(1 0 0 -1 3101.94 1003.03)"/></g><g clip-path="url(#clip6)"><path d="M15.9406 35.4294 15.464 35.4294 0 0 31.5634 0 15.9406 35.4294M24.0433 4.02487 6.9376 4.02487C5.66659 4.02487 5.18996 4.2367 5.18996 4.81925 5.18996 5.18996 5.4018 5.98434 5.77251 6.77872L14.3518 26.5853 24.0433 4.02487Z" transform="matrix(1 0 0 -1 3080.41 1060.19)"/></g><g clip-path="url(#clip7)"><path d="M2.91273 24.8906C1.32397 24.8906 0 23.5667 0 21.872 0 20.3362 1.32397 19.0122 2.85977 19.0122 4.5015 19.0122 5.87842 20.2832 5.87842 21.872 5.87842 23.5137 4.5015 24.8906 2.91273 24.8906M2.91273 5.87842C1.32397 5.87842 0 4.55446 0 2.85977 0 1.32397 1.32397 0 2.85977 0 4.5015 0 5.87842 1.27101 5.87842 2.85977 5.87842 4.5015 4.5015 5.87842 2.91273 5.87842Z" transform="matrix(1 0 0 -1 3117.48 1060.77)"/></g><g clip-path="url(#clip8)"><path d="M5.82547 18.2178C8.95003 18.2178 10.1681 18.1119 11.3861 17.6353 14.7225 16.4172 16.735 13.4515 16.735 9.79737 16.735 5.29588 13.7693 1.90652 9.85033 1.90652 8.36749 1.90652 7.30831 2.27723 5.34884 3.54824 3.81303 4.5015 2.91273 4.87221 2.01243 4.87221 0.794382 4.87221 0 4.13078 0 3.01865 0 1.16509 2.27723 0 5.98434 0 10.0092 0 14.193 1.37693 16.735 3.54824 19.224 5.71955 20.548 8.79116 20.548 12.3394 20.548 15.0933 19.7007 17.5294 18.2178 19.1711 17.1057 20.3362 16.0995 20.9717 13.8222 21.9779 17.4234 24.467 18.7474 26.4264 18.7474 29.2862 18.7474 33.6288 15.411 36.5416 10.4858 36.5416 7.8379 36.5416 5.50771 35.6413 3.6012 33.9466 2.01243 32.4637 1.21805 31.1398 0.105918 27.9622L0.900299 27.7504C3.01865 31.6694 5.4018 33.364 8.7382 33.364 12.2335 33.364 14.5637 31.0868 14.5637 27.6974 14.5637 25.7909 13.7693 23.9374 12.4453 22.5604 10.8566 20.9717 9.3737 20.1773 5.77251 18.9063L5.82547 18.2178Z" transform="matrix(1 0 0 -1 3129.66 1060.93)"/></g><path d="M2798.23 1464.18C2798.23 1520.05 2752.94 1565.34 2697.07 1565.34 2641.2 1565.34 2595.93 1520.05 2595.93 1464.18 2595.93 1408.32 2641.2 1363.04 2697.07 1363.04 2752.94 1363.04 2798.23 1408.32 2798.23 1464.18" fill="#EE7621"/><path d="M2798.23 1464.18C2798.23 1520.05 2752.94 1565.34 2697.07 1565.34 2641.2 1565.34 2595.93 1520.05 2595.93 1464.18 2595.93 1408.32 2641.2 1363.04 2697.07 1363.04 2752.94 1363.04 2798.23 1408.32 2798.23 1464.18" stroke="#2E3436" stroke-width="3.7827" stroke-miterlimit="10" fill="none"/><g clip-path="url(#clip9)"><path d="M10.3799 12.9749 0 2.54202 2.54202 0 12.9219 10.4329 23.3548 0 25.8968 2.54202 15.464 12.9749 25.8968 23.3548 23.3548 25.8968 12.9219 15.464 2.54202 25.8968 0 23.3548 10.3799 12.9749Z" transform="matrix(1 0 0 -1 2682.07 1449.38)"/></g><g clip-path="url(#clip10)"><path d="M15.9406 35.4294 15.464 35.4294 0 0 31.5634 0 15.9406 35.4294M24.0433 4.02487 6.9376 4.02487C5.66659 4.02487 5.18996 4.2367 5.18996 4.81925 5.18996 5.18996 5.4018 5.98434 5.77251 6.77872L14.3518 26.5853 24.0433 4.02487Z" transform="matrix(1 0 0 -1 2660.52 1506.55)"/></g><g clip-path="url(#clip11)"><path d="M2.91273 24.8906C1.32397 24.8906 0 23.5667 0 21.872 0 20.3362 1.32397 19.0122 2.85977 19.0122 4.5015 19.0122 5.87842 20.2832 5.87842 21.872 5.87842 23.5137 4.5015 24.8906 2.91273 24.8906M2.91273 5.87842C1.32397 5.87842 0 4.55446 0 2.85977 0 1.32397 1.32397 0 2.85977 0 4.5015 0 5.87842 1.27101 5.87842 2.85977 5.87842 4.5015 4.5015 5.87842 2.91273 5.87842Z" transform="matrix(1 0 0 -1 2697.59 1507.13)"/></g><g clip-path="url(#clip12)"><path d="M23.5667 7.25535 22.8782 7.52015C20.9187 4.44854 20.3362 4.07783 17.8471 4.02487L5.18996 4.02487 14.087 13.3456C18.8004 18.2708 20.8658 22.2956 20.8658 26.4264 20.8658 31.7223 16.5761 35.8001 11.0684 35.8001 8.15565 35.8001 5.4018 34.635 3.44232 32.5167 1.74764 30.7161 0.953258 29.0214 0.0529588 25.2613L1.16509 24.9965C3.28344 30.1865 5.137 31.8812 8.84412 31.8812 13.3456 31.8812 16.3113 28.8625 16.3113 24.414 16.3113 20.2303 13.8752 15.358 9.42666 10.6447L0 0.635505 0 0 20.6539 0 23.5667 7.25535Z" transform="matrix(1 0 0 -1 2709.08 1506.55)"/></g><path d="M2518.31 1914.33C2518.31 1970.19 2473.03 2015.49 2417.16 2015.49 2361.29 2015.49 2316 1970.19 2316 1914.33 2316 1858.46 2361.29 1813.18 2417.16 1813.18 2473.03 1813.18 2518.31 1858.46 2518.31 1914.33" fill="#EE7621"/><path d="M2518.31 1914.33C2518.31 1970.19 2473.03 2015.49 2417.16 2015.49 2361.29 2015.49 2316 1970.19 2316 1914.33 2316 1858.46 2361.29 1813.18 2417.16 1813.18 2473.03 1813.18 2518.31 1858.46 2518.31 1914.33" stroke="#2E3436" stroke-width="3.7827" stroke-miterlimit="10" fill="none"/><g clip-path="url(#clip13)"><path d="M15.3051 23.8315 8.79116 23.8315 8.79116 29.9747C8.79116 33.0992 9.79737 34.688 11.8098 34.688 12.9749 34.688 13.6634 34.1584 14.6166 32.6226 15.464 31.2457 16.0995 30.7161 16.9998 30.7161 18.2708 30.7161 19.224 31.6694 19.224 32.8874 19.224 34.7939 16.8939 36.1708 13.7163 36.1708 10.3799 36.1708 7.62606 34.741 6.24914 32.3578 4.87221 29.9747 4.44854 28.0682 4.39558 23.8315L0.0529588 23.8315 0.0529588 22.1368 4.39558 22.1368 4.39558 5.50771C4.28966 1.5358 3.76007 0.953258 0 0.794382L0 0 13.7693 0 13.7693 0.794382C9.42666 0.953258 8.84412 1.5358 8.84412 5.50771L8.84412 22.1368 15.3051 22.1368 15.3051 23.8315Z" transform="matrix(1 0 0 -1 2408.75 1899.95)"/></g><g clip-path="url(#clip14)"><path d="M15.9406 35.4294 15.464 35.4294 0 0 31.5634 0 15.9406 35.4294M24.0433 4.02487 6.9376 4.02487C5.66659 4.02487 5.18996 4.2367 5.18996 4.81925 5.18996 5.18996 5.4018 5.98434 5.77251 6.77872L14.3518 26.5853 24.0433 4.02487Z" transform="matrix(1 0 0 -1 2380.59 1956.69)"/></g><g clip-path="url(#clip15)"><path d="M2.91273 24.8906C1.32397 24.8906 0 23.5667 0 21.872 0 20.3362 1.32397 19.0122 2.85977 19.0122 4.5015 19.0122 5.87842 20.2832 5.87842 21.872 5.87842 23.5137 4.5015 24.8906 2.91273 24.8906M2.91273 5.87842C1.32397 5.87842 0 4.55446 0 2.85977 0 1.32397 1.32397 0 2.85977 0 4.5015 0 5.87842 1.27101 5.87842 2.85977 5.87842 4.5015 4.5015 5.87842 2.91273 5.87842Z" transform="matrix(1 0 0 -1 2417.67 1957.27)"/></g><g clip-path="url(#clip16)"><path d="M0.370711 0 14.9873 0 14.9873 0.794382C10.9095 0.794382 10.0092 1.37693 9.95625 3.91895L9.95625 35.6942 9.53258 35.8001 0 30.9809 0 30.2395C2.06539 31.0338 3.3364 31.4046 3.81303 31.4046 4.92517 31.4046 5.4018 30.6102 5.4018 28.9155L5.4018 4.92517C5.29588 1.58876 4.39558 0.84734 0.370711 0.794382L0.370711 0Z" transform="matrix(1 0 0 -1 2433.45 1956.69)"/></g><path d="M2798.23 1914.33C2798.23 1970.19 2752.94 2015.49 2697.07 2015.49 2641.2 2015.49 2595.93 1970.19 2595.93 1914.33 2595.93 1858.46 2641.2 1813.18 2697.07 1813.18 2752.94 1813.18 2798.23 1858.46 2798.23 1914.33" fill="#EE7621"/><path d="M2798.23 1914.33C2798.23 1970.19 2752.94 2015.49 2697.07 2015.49 2641.2 2015.49 2595.93 1970.19 2595.93 1914.33 2595.93 1858.46 2641.2 1813.18 2697.07 1813.18 2752.94 1813.18 2798.23 1858.46 2798.23 1914.33" stroke="#2E3436" stroke-width="3.7827" stroke-miterlimit="10" fill="none"/><g clip-path="url(#clip17)"><path d="M23.4078 32.093 23.4078 34.1584 19.33 34.1584C18.2178 34.1584 17.4764 34.3173 16.4172 34.688L15.2521 35.1117C13.8752 35.6413 12.3924 35.9061 11.0154 35.9061 6.09026 35.9061 2.17131 32.146 2.17131 27.2738 2.17131 23.9374 3.54824 21.9249 7.09648 20.1773L5.71955 18.9063C4.60741 17.8471 3.97191 17.2646 3.81303 17.0527 2.7009 15.8876 2.38315 15.3051 2.38315 14.4048 2.38315 13.2397 2.96569 12.6571 5.18996 11.598 1.37693 8.84412 0 7.09648 0 5.137 0 2.33019 4.07783 0 9.16187 0 13.1338 0 17.2646 1.37693 20.0184 3.6012 22.0309 5.24292 22.9312 6.9376 22.9312 8.95003 22.9312 12.2335 20.4421 14.4048 16.5231 14.6166L9.69146 14.9344C6.83168 15.0403 5.56067 15.5169 5.56067 16.3643 5.56067 17.4234 7.30831 19.277 8.7382 19.7007 10.6447 19.5418 11.6509 19.4359 11.7568 19.4359 13.7163 19.4359 15.8347 20.2303 17.4764 21.6601 19.224 23.143 20.0184 24.9965 20.0184 27.6445 20.0184 29.1803 19.7536 30.3983 19.0122 32.093L23.4078 32.093M6.30209 11.4391C8.10269 11.0684 12.2335 10.7506 14.9344 10.7506 19.7007 10.7506 21.4483 10.0622 21.4483 8.15565 21.4483 5.08404 17.4234 3.01865 11.4391 3.01865 6.72577 3.01865 3.70711 4.55446 3.70711 6.88464 3.70711 8.10269 4.18374 8.89708 6.30209 11.4391M6.56689 29.4451C6.56689 32.5696 8.04974 34.4232 10.4858 34.4232 12.1276 34.4232 13.5045 33.5229 14.3518 31.9341 15.358 30.0806 15.9406 27.6974 15.9406 25.5791 15.9406 22.6134 14.4577 20.7598 12.0216 20.7598 8.7382 20.7598 6.56689 24.2022 6.56689 29.2862L6.56689 29.4451Z" transform="matrix(1 0 0 -1 2685.31 1911.49)"/></g><g clip-path="url(#clip18)"><path d="M15.9406 35.4294 15.464 35.4294 0 0 31.5634 0 15.9406 35.4294M24.0433 4.02487 6.9376 4.02487C5.66659 4.02487 5.18996 4.2367 5.18996 4.81925 5.18996 5.18996 5.4018 5.98434 5.77251 6.77872L14.3518 26.5853 24.0433 4.02487Z" transform="matrix(1 0 0 -1 2660.52 1956.69)"/></g><g clip-path="url(#clip19)"><path d="M2.91273 24.8906C1.32397 24.8906 0 23.5667 0 21.872 0 20.3362 1.32397 19.0122 2.85977 19.0122 4.5015 19.0122 5.87842 20.2832 5.87842 21.872 5.87842 23.5137 4.5015 24.8906 2.91273 24.8906M2.91273 5.87842C1.32397 5.87842 0 4.55446 0 2.85977 0 1.32397 1.32397 0 2.85977 0 4.5015 0 5.87842 1.27101 5.87842 2.85977 5.87842 4.5015 4.5015 5.87842 2.91273 5.87842Z" transform="matrix(1 0 0 -1 2697.59 1957.27)"/></g><g clip-path="url(#clip20)"><path d="M0.370711 0 14.9873 0 14.9873 0.794382C10.9095 0.794382 10.0092 1.37693 9.95625 3.91895L9.95625 35.6942 9.53258 35.8001 0 30.9809 0 30.2395C2.06539 31.0338 3.3364 31.4046 3.81303 31.4046 4.92517 31.4046 5.4018 30.6102 5.4018 28.9155L5.4018 4.92517C5.29588 1.58876 4.39558 0.84734 0.370711 0.794382L0.370711 0Z" transform="matrix(1 0 0 -1 2713.37 1956.69)"/></g><path d="M3218.1 1464.18C3218.1 1520.05 3172.82 1565.34 3116.96 1565.34 3061.09 1565.34 3015.8 1520.05 3015.8 1464.18 3015.8 1408.32 3061.09 1363.04 3116.96 1363.04 3172.82 1363.04 3218.1 1408.32 3218.1 1464.18" fill="#EE7621"/><path d="M3218.1 1464.18C3218.1 1520.05 3172.82 1565.34 3116.96 1565.34 3061.09 1565.34 3015.8 1520.05 3015.8 1464.18 3015.8 1408.32 3061.09 1363.04 3116.96 1363.04 3172.82 1363.04 3218.1 1408.32 3218.1 1464.18" stroke="#2E3436" stroke-width="3.7827" stroke-miterlimit="10" fill="none"/><g clip-path="url(#clip21)"><path d="M10.3799 12.9749 0 2.54202 2.54202 0 12.9219 10.4329 23.3548 0 25.8968 2.54202 15.464 12.9749 25.8968 23.3548 23.3548 25.8968 12.9219 15.464 2.54202 25.8968 0 23.3548 10.3799 12.9749Z" transform="matrix(1 0 0 -1 3101.94 1449.38)"/></g><g clip-path="url(#clip22)"><path d="M15.9406 35.4294 15.464 35.4294 0 0 31.5634 0 15.9406 35.4294M24.0433 4.02487 6.9376 4.02487C5.66659 4.02487 5.18996 4.2367 5.18996 4.81925 5.18996 5.18996 5.4018 5.98434 5.77251 6.77872L14.3518 26.5853 24.0433 4.02487Z" transform="matrix(1 0 0 -1 3080.41 1506.55)"/></g><g clip-path="url(#clip23)"><path d="M2.91273 24.8906C1.32397 24.8906 0 23.5667 0 21.872 0 20.3362 1.32397 19.0122 2.85977 19.0122 4.5015 19.0122 5.87842 20.2832 5.87842 21.872 5.87842 23.5137 4.5015 24.8906 2.91273 24.8906M2.91273 5.87842C1.32397 5.87842 0 4.55446 0 2.85977 0 1.32397 1.32397 0 2.85977 0 4.5015 0 5.87842 1.27101 5.87842 2.85977 5.87842 4.5015 4.5015 5.87842 2.91273 5.87842Z" transform="matrix(1 0 0 -1 3117.48 1507.13)"/></g><g clip-path="url(#clip24)"><path d="M23.5667 7.25535 22.8782 7.52015C20.9187 4.44854 20.3362 4.07783 17.8471 4.02487L5.18996 4.02487 14.087 13.3456C18.8004 18.2708 20.8658 22.2956 20.8658 26.4264 20.8658 31.7223 16.5761 35.8001 11.0684 35.8001 8.15565 35.8001 5.4018 34.635 3.44232 32.5167 1.74764 30.7161 0.953258 29.0214 0.0529588 25.2613L1.16509 24.9965C3.28344 30.1865 5.137 31.8812 8.84412 31.8812 13.3456 31.8812 16.3113 28.8625 16.3113 24.414 16.3113 20.2303 13.8752 15.358 9.42666 10.6447L0 0.635505 0 0 20.6539 0 23.5667 7.25535Z" transform="matrix(1 0 0 -1 3128.97 1506.55)"/></g><path d="M3078.15 1914.33C3078.15 1970.19 3032.86 2015.49 2976.99 2015.49 2921.13 2015.49 2875.85 1970.19 2875.85 1914.33 2875.85 1858.46 2921.13 1813.18 2976.99 1813.18 3032.86 1813.18 3078.15 1858.46 3078.15 1914.33" fill="#EE7621"/><path d="M3078.15 1914.33C3078.15 1970.19 3032.86 2015.49 2976.99 2015.49 2921.13 2015.49 2875.85 1970.19 2875.85 1914.33 2875.85 1858.46 2921.13 1813.18 2976.99 1813.18 3032.86 1813.18 3078.15 1858.46 3078.15 1914.33" stroke="#2E3436" stroke-width="3.7827" stroke-miterlimit="10" fill="none"/><g clip-path="url(#clip25)"><path d="M24.5729 3.6012C23.8844 3.54824 23.5667 3.54824 23.3548 3.54824 21.5013 3.54824 21.0246 4.13078 21.0246 6.56689L21.0246 36.5945 20.7598 36.7004C18.2708 35.8531 16.4702 35.2705 12.9749 34.3703L12.9749 33.5229C13.3986 33.5759 13.6634 33.5759 14.14 33.5759 16.0995 33.5759 16.5761 33.0463 16.5761 30.875L16.5761 22.6134C14.5637 24.3081 13.1338 24.8906 11.0154 24.8906 4.92517 24.8906 0 18.9063 0 11.3861 0 4.60741 3.91895 0 9.79737 0 12.7631 0 14.7755 1.05918 16.5761 3.54824L16.5761 0.158876 16.7879 0 24.5729 2.75386 24.5729 3.6012M16.5761 5.93138C16.5761 5.56067 16.2054 4.92517 15.6758 4.34262 14.7755 3.28344 13.3986 2.75386 11.8628 2.75386 7.41423 2.75386 4.55446 6.99056 4.55446 13.5574 4.55446 19.4888 7.14944 23.4078 11.1743 23.4078 14.0341 23.4078 16.5761 20.9187 16.5761 18.1119L16.5761 5.93138Z" transform="matrix(1 0 0 -1 2965.18 1900.48)"/></g><g clip-path="url(#clip26)"><path d="M15.9406 35.4294 15.464 35.4294 0 0 31.5634 0 15.9406 35.4294M24.0433 4.02487 6.9376 4.02487C5.66659 4.02487 5.18996 4.2367 5.18996 4.81925 5.18996 5.18996 5.4018 5.98434 5.77251 6.77872L14.3518 26.5853 24.0433 4.02487Z" transform="matrix(1 0 0 -1 2940.44 1956.69)"/></g><g clip-path="url(#clip27)"><path d="M2.91273 24.8906C1.32397 24.8906 0 23.5667 0 21.872 0 20.3362 1.32397 19.0122 2.85977 19.0122 4.5015 19.0122 5.87842 20.2832 5.87842 21.872 5.87842 23.5137 4.5015 24.8906 2.91273 24.8906M2.91273 5.87842C1.32397 5.87842 0 4.55446 0 2.85977 0 1.32397 1.32397 0 2.85977 0 4.5015 0 5.87842 1.27101 5.87842 2.85977 5.87842 4.5015 4.5015 5.87842 2.91273 5.87842Z" transform="matrix(1 0 0 -1 2977.51 1957.27)"/></g><g clip-path="url(#clip28)"><path d="M0.370711 0 14.9873 0 14.9873 0.794382C10.9095 0.794382 10.0092 1.37693 9.95625 3.91895L9.95625 35.6942 9.53258 35.8001 0 30.9809 0 30.2395C2.06539 31.0338 3.3364 31.4046 3.81303 31.4046 4.92517 31.4046 5.4018 30.6102 5.4018 28.9155L5.4018 4.92517C5.29588 1.58876 4.39558 0.84734 0.370711 0.794382L0.370711 0Z" transform="matrix(1 0 0 -1 2993.3 1956.69)"/></g><path d="M3358.06 1914.33C3358.06 1970.19 3312.78 2015.49 3256.92 2015.49 3201.05 2015.49 3155.76 1970.19 3155.76 1914.33 3155.76 1858.46 3201.05 1813.18 3256.92 1813.18 3312.78 1813.18 3358.06 1858.46 3358.06 1914.33" fill="#EE7621"/><path d="M3358.06 1914.33C3358.06 1970.19 3312.78 2015.49 3256.92 2015.49 3201.05 2015.49 3155.76 1970.19 3155.76 1914.33 3155.76 1858.46 3201.05 1813.18 3256.92 1813.18 3312.78 1813.18 3358.06 1858.46 3358.06 1914.33" stroke="#2E3436" stroke-width="3.7827" stroke-miterlimit="10" fill="none"/><g clip-path="url(#clip29)"><path d="M20.2832 9.21483C17.7412 5.18996 15.464 3.65416 12.0746 3.65416 9.05595 3.65416 6.77872 5.18996 5.24292 8.20861 4.28966 10.221 3.91895 11.9157 3.81303 15.1992L20.1243 15.1992C19.7007 18.6415 19.1711 20.1773 17.8471 21.872 16.2583 23.7785 13.8222 24.8906 11.0684 24.8906 8.42045 24.8906 5.93138 23.9374 3.91895 22.1368 1.42989 19.9655 0 16.2054 0 11.8628 0 4.55446 3.81303 0 9.90329 0 14.9344 0 18.9063 3.12457 21.1306 8.84412L20.2832 9.21483M3.91895 16.8939C4.5015 21.0246 6.30209 22.9841 9.53258 22.9841 12.7631 22.9841 14.0341 21.5013 14.7225 16.8939L3.91895 16.8939Z" transform="matrix(1 0 0 -1 3245 1900.48)"/></g><g clip-path="url(#clip30)"><path d="M15.9406 35.4294 15.464 35.4294 0 0 31.5634 0 15.9406 35.4294M24.0433 4.02487 6.9376 4.02487C5.66659 4.02487 5.18996 4.2367 5.18996 4.81925 5.18996 5.18996 5.4018 5.98434 5.77251 6.77872L14.3518 26.5853 24.0433 4.02487Z" transform="matrix(1 0 0 -1 3220.35 1956.69)"/></g><g clip-path="url(#clip31)"><path d="M2.91273 24.8906C1.32397 24.8906 0 23.5667 0 21.872 0 20.3362 1.32397 19.0122 2.85977 19.0122 4.5015 19.0122 5.87842 20.2832 5.87842 21.872 5.87842 23.5137 4.5015 24.8906 2.91273 24.8906M2.91273 5.87842C1.32397 5.87842 0 4.55446 0 2.85977 0 1.32397 1.32397 0 2.85977 0 4.5015 0 5.87842 1.27101 5.87842 2.85977 5.87842 4.5015 4.5015 5.87842 2.91273 5.87842Z" transform="matrix(1 0 0 -1 3257.42 1957.27)"/></g><g clip-path="url(#clip32)"><path d="M0.370711 0 14.9873 0 14.9873 0.794382C10.9095 0.794382 10.0092 1.37693 9.95625 3.91895L9.95625 35.6942 9.53258 35.8001 0 30.9809 0 30.2395C2.06539 31.0338 3.3364 31.4046 3.81303 31.4046 4.92517 31.4046 5.4018 30.6102 5.4018 28.9155L5.4018 4.92517C5.29588 1.58876 4.39558 0.84734 0.370711 0.794382L0.370711 0Z" transform="matrix(1 0 0 -1 3273.21 1956.69)"/></g><path d="M3637.99 1017.83C3637.99 1073.69 3592.71 1118.97 3536.83 1118.97 3480.96 1118.97 3435.68 1073.69 3435.68 1017.83 3435.68 961.967 3480.96 916.671 3536.83 916.671 3592.71 916.671 3637.99 961.967 3637.99 1017.83" fill="#EE7621"/><path d="M3637.99 1017.83C3637.99 1073.69 3592.71 1118.97 3536.83 1118.97 3480.96 1118.97 3435.68 1073.69 3435.68 1017.83 3435.68 961.967 3480.96 916.671 3536.83 916.671 3592.71 916.671 3637.99 961.967 3637.99 1017.83" stroke="#2E3436" stroke-width="3.7827" stroke-miterlimit="10" fill="none"/><g clip-path="url(#clip33)"><path d="M10.3799 12.9749 0 2.54202 2.54202 0 12.9219 10.4329 23.3548 0 25.8968 2.54202 15.464 12.9749 25.8968 23.3548 23.3548 25.8968 12.9219 15.464 2.54202 25.8968 0 23.3548 10.3799 12.9749Z" transform="matrix(1 0 0 -1 3521.82 1003.03)"/></g><g clip-path="url(#clip34)"><path d="M15.9406 35.4294 15.464 35.4294 0 0 31.5634 0 15.9406 35.4294M24.0433 4.02487 6.9376 4.02487C5.66659 4.02487 5.18996 4.2367 5.18996 4.81925 5.18996 5.18996 5.4018 5.98434 5.77251 6.77872L14.3518 26.5853 24.0433 4.02487Z" transform="matrix(1 0 0 -1 3500.28 1060.19)"/></g><g clip-path="url(#clip35)"><path d="M2.91273 24.8906C1.32397 24.8906 0 23.5667 0 21.872 0 20.3362 1.32397 19.0122 2.85977 19.0122 4.5015 19.0122 5.87842 20.2832 5.87842 21.872 5.87842 23.5137 4.5015 24.8906 2.91273 24.8906M2.91273 5.87842C1.32397 5.87842 0 4.55446 0 2.85977 0 1.32397 1.32397 0 2.85977 0 4.5015 0 5.87842 1.27101 5.87842 2.85977 5.87842 4.5015 4.5015 5.87842 2.91273 5.87842Z" transform="matrix(1 0 0 -1 3537.35 1060.77)"/></g><g clip-path="url(#clip36)"><path d="M5.82547 18.2178C8.95003 18.2178 10.1681 18.1119 11.3861 17.6353 14.7225 16.4172 16.735 13.4515 16.735 9.79737 16.735 5.29588 13.7693 1.90652 9.85033 1.90652 8.36749 1.90652 7.30831 2.27723 5.34884 3.54824 3.81303 4.5015 2.91273 4.87221 2.01243 4.87221 0.794382 4.87221 0 4.13078 0 3.01865 0 1.16509 2.27723 0 5.98434 0 10.0092 0 14.193 1.37693 16.735 3.54824 19.224 5.71955 20.548 8.79116 20.548 12.3394 20.548 15.0933 19.7007 17.5294 18.2178 19.1711 17.1057 20.3362 16.0995 20.9717 13.8222 21.9779 17.4234 24.467 18.7474 26.4264 18.7474 29.2862 18.7474 33.6288 15.411 36.5416 10.4858 36.5416 7.8379 36.5416 5.50771 35.6413 3.6012 33.9466 2.01243 32.4637 1.21805 31.1398 0.105918 27.9622L0.900299 27.7504C3.01865 31.6694 5.4018 33.364 8.7382 33.364 12.2335 33.364 14.5637 31.0868 14.5637 27.6974 14.5637 25.7909 13.7693 23.9374 12.4453 22.5604 10.8566 20.9717 9.3737 20.1773 5.77251 18.9063L5.82547 18.2178Z" transform="matrix(1 0 0 -1 3549.53 1060.93)"/></g><path d="M3637.99 1464.18C3637.99 1520.05 3592.71 1565.34 3536.83 1565.34 3480.96 1565.34 3435.68 1520.05 3435.68 1464.18 3435.68 1408.32 3480.96 1363.04 3536.83 1363.04 3592.71 1363.04 3637.99 1408.32 3637.99 1464.18" fill="#EE7621"/><path d="M3637.99 1464.18C3637.99 1520.05 3592.71 1565.34 3536.83 1565.34 3480.96 1565.34 3435.68 1520.05 3435.68 1464.18 3435.68 1408.32 3480.96 1363.04 3536.83 1363.04 3592.71 1363.04 3637.99 1408.32 3637.99 1464.18" stroke="#2E3436" stroke-width="3.7827" stroke-miterlimit="10" fill="none"/><g clip-path="url(#clip37)"><path d="M10.3799 12.9749 0 2.54202 2.54202 0 12.9219 10.4329 23.3548 0 25.8968 2.54202 15.464 12.9749 25.8968 23.3548 23.3548 25.8968 12.9219 15.464 2.54202 25.8968 0 23.3548 10.3799 12.9749Z" transform="matrix(1 0 0 -1 3521.82 1449.38)"/></g><g clip-path="url(#clip38)"><path d="M15.9406 35.4294 15.464 35.4294 0 0 31.5634 0 15.9406 35.4294M24.0433 4.02487 6.9376 4.02487C5.66659 4.02487 5.18996 4.2367 5.18996 4.81925 5.18996 5.18996 5.4018 5.98434 5.77251 6.77872L14.3518 26.5853 24.0433 4.02487Z" transform="matrix(1 0 0 -1 3500.28 1506.55)"/></g><g clip-path="url(#clip39)"><path d="M2.91273 24.8906C1.32397 24.8906 0 23.5667 0 21.872 0 20.3362 1.32397 19.0122 2.85977 19.0122 4.5015 19.0122 5.87842 20.2832 5.87842 21.872 5.87842 23.5137 4.5015 24.8906 2.91273 24.8906M2.91273 5.87842C1.32397 5.87842 0 4.55446 0 2.85977 0 1.32397 1.32397 0 2.85977 0 4.5015 0 5.87842 1.27101 5.87842 2.85977 5.87842 4.5015 4.5015 5.87842 2.91273 5.87842Z" transform="matrix(1 0 0 -1 3537.35 1507.13)"/></g><g clip-path="url(#clip40)"><path d="M23.5667 7.25535 22.8782 7.52015C20.9187 4.44854 20.3362 4.07783 17.8471 4.02487L5.18996 4.02487 14.087 13.3456C18.8004 18.2708 20.8658 22.2956 20.8658 26.4264 20.8658 31.7223 16.5761 35.8001 11.0684 35.8001 8.15565 35.8001 5.4018 34.635 3.44232 32.5167 1.74764 30.7161 0.953258 29.0214 0.0529588 25.2613L1.16509 24.9965C3.28344 30.1865 5.137 31.8812 8.84412 31.8812 13.3456 31.8812 16.3113 28.8625 16.3113 24.414 16.3113 20.2303 13.8752 15.358 9.42666 10.6447L0 0.635505 0 0 20.6539 0 23.5667 7.25535Z" transform="matrix(1 0 0 -1 3548.84 1506.55)"/></g><path d="M3637.99 1914.33C3637.99 1970.19 3592.71 2015.49 3536.83 2015.49 3480.96 2015.49 3435.68 1970.19 3435.68 1914.33 3435.68 1858.46 3480.96 1813.18 3536.83 1813.18 3592.71 1813.18 3637.99 1858.46 3637.99 1914.33" fill="#EE7621"/><path d="M3637.99 1914.33C3637.99 1970.19 3592.71 2015.49 3536.83 2015.49 3480.96 2015.49 3435.68 1970.19 3435.68 1914.33 3435.68 1858.46 3480.96 1813.18 3536.83 1813.18 3592.71 1813.18 3637.99 1858.46 3637.99 1914.33" stroke="#2E3436" stroke-width="3.7827" stroke-miterlimit="10" fill="none"/><g clip-path="url(#clip41)"><path d="M21.4483 4.02487C20.548 3.28344 19.9125 3.01865 19.1181 3.01865 17.9001 3.01865 17.5294 3.76007 17.5294 6.09026L17.5294 16.4172C17.5294 19.1711 17.2646 20.7069 16.4702 21.9779 15.3051 23.8844 13.0279 24.8906 9.90329 24.8906 4.92517 24.8906 1.00622 22.2956 1.00622 18.9592 1.00622 17.7412 2.01243 16.682 3.28344 16.682 4.55446 16.682 5.66659 17.7412 5.66659 18.9063 5.66659 19.1181 5.61363 19.3829 5.56067 19.7536 5.45475 20.2303 5.4018 20.6539 5.4018 21.0246 5.4018 22.4545 7.09648 23.6196 9.21483 23.6196 11.8098 23.6196 13.2397 22.0838 13.2397 19.224L13.2397 15.9936C5.137 12.7631 4.18374 12.2864 1.90652 10.274 0.741423 9.21483 0 7.41423 0 5.66659 0 2.33019 2.33019 0 5.56067 0 7.89086 0 10.0622 1.11213 13.2927 3.86599 13.5574 1.05918 14.5107 0 16.682 0 18.4826 0 19.5947 0.635505 21.4483 2.64794L21.4483 4.02487M13.2397 7.04352C13.2397 5.45475 12.9749 4.87221 11.8628 4.2367 10.5388 3.49528 9.10891 3.07161 7.99678 3.07161 6.14322 3.07161 4.66037 4.87221 4.66037 7.14944L4.66037 7.36127C4.71333 10.5388 7.04352 12.5512 13.2397 14.7225L13.2397 7.04352Z" transform="matrix(1 0 0 -1 3525.56 1900.48)"/></g><g clip-path="url(#clip42)"><path d="M15.9406 35.4294 15.464 35.4294 0 0 31.5634 0 15.9406 35.4294M24.0433 4.02487 6.9376 4.02487C5.66659 4.02487 5.18996 4.2367 5.18996 4.81925 5.18996 5.18996 5.4018 5.98434 5.77251 6.77872L14.3518 26.5853 24.0433 4.02487Z" transform="matrix(1 0 0 -1 3500.28 1956.69)"/></g><g clip-path="url(#clip43)"><path d="M2.91273 24.8906C1.32397 24.8906 0 23.5667 0 21.872 0 20.3362 1.32397 19.0122 2.85977 19.0122 4.5015 19.0122 5.87842 20.2832 5.87842 21.872 5.87842 23.5137 4.5015 24.8906 2.91273 24.8906M2.91273 5.87842C1.32397 5.87842 0 4.55446 0 2.85977 0 1.32397 1.32397 0 2.85977 0 4.5015 0 5.87842 1.27101 5.87842 2.85977 5.87842 4.5015 4.5015 5.87842 2.91273 5.87842Z" transform="matrix(1 0 0 -1 3537.35 1957.27)"/></g><g clip-path="url(#clip44)"><path d="M0.370711 0 14.9873 0 14.9873 0.794382C10.9095 0.794382 10.0092 1.37693 9.95625 3.91895L9.95625 35.6942 9.53258 35.8001 0 30.9809 0 30.2395C2.06539 31.0338 3.3364 31.4046 3.81303 31.4046 4.92517 31.4046 5.4018 30.6102 5.4018 28.9155L5.4018 4.92517C5.29588 1.58876 4.39558 0.84734 0.370711 0.794382L0.370711 0Z" transform="matrix(1 0 0 -1 3553.13 1956.69)"/></g><path d="M3917.91 1914.33C3917.91 1970.19 3872.62 2015.49 3816.75 2015.49 3760.89 2015.49 3715.61 1970.19 3715.61 1914.33 3715.61 1858.46 3760.89 1813.18 3816.75 1813.18 3872.62 1813.18 3917.91 1858.46 3917.91 1914.33" fill="#EE7621"/><path d="M3917.91 1914.33C3917.91 1970.19 3872.62 2015.49 3816.75 2015.49 3760.89 2015.49 3715.61 1970.19 3715.61 1914.33 3715.61 1858.46 3760.89 1813.18 3816.75 1813.18 3872.62 1813.18 3917.91 1858.46 3917.91 1914.33" stroke="#2E3436" stroke-width="3.7827" stroke-miterlimit="10" fill="none"/><g clip-path="url(#clip45)"><path d="M7.94382 36.5945 7.67902 36.7004C5.50771 35.959 4.07783 35.4824 1.5358 34.7939L0 34.3703 0 33.5229C0.317753 33.5759 0.476629 33.5759 0.900299 33.5759 3.01865 33.5759 3.49528 33.0992 3.49528 30.875L3.49528 3.38936C3.49528 1.74764 7.94382 0 12.2335 0 19.224 0 24.6258 5.82547 24.6258 13.3986 24.6258 19.9655 20.601 24.8906 15.3051 24.8906 12.0746 24.8906 9.00299 23.0371 7.94382 20.3891L7.94382 36.5945M7.94382 17.5823C7.94382 19.6477 10.4329 21.5542 13.1867 21.5542 14.6696 21.5542 15.9936 21.0246 17.1057 20.0184 18.8004 18.3767 19.9655 14.7755 19.9655 10.9625 19.9655 5.08404 17.4234 1.69468 13.0808 1.69468 10.327 1.69468 7.94382 2.85977 7.94382 4.2367L7.94382 17.5823Z" transform="matrix(1 0 0 -1 3803.67 1900.48)"/></g><g clip-path="url(#clip46)"><path d="M15.9406 35.4294 15.464 35.4294 0 0 31.5634 0 15.9406 35.4294M24.0433 4.02487 6.9376 4.02487C5.66659 4.02487 5.18996 4.2367 5.18996 4.81925 5.18996 5.18996 5.4018 5.98434 5.77251 6.77872L14.3518 26.5853 24.0433 4.02487Z" transform="matrix(1 0 0 -1 3780.2 1956.69)"/></g><g clip-path="url(#clip47)"><path d="M2.91273 24.8906C1.32397 24.8906 0 23.5667 0 21.872 0 20.3362 1.32397 19.0122 2.85977 19.0122 4.5015 19.0122 5.87842 20.2832 5.87842 21.872 5.87842 23.5137 4.5015 24.8906 2.91273 24.8906M2.91273 5.87842C1.32397 5.87842 0 4.55446 0 2.85977 0 1.32397 1.32397 0 2.85977 0 4.5015 0 5.87842 1.27101 5.87842 2.85977 5.87842 4.5015 4.5015 5.87842 2.91273 5.87842Z" transform="matrix(1 0 0 -1 3817.27 1957.27)"/></g><g clip-path="url(#clip48)"><path d="M0.370711 0 14.9873 0 14.9873 0.794382C10.9095 0.794382 10.0092 1.37693 9.95625 3.91895L9.95625 35.6942 9.53258 35.8001 0 30.9809 0 30.2395C2.06539 31.0338 3.3364 31.4046 3.81303 31.4046 4.92517 31.4046 5.4018 30.6102 5.4018 28.9155L5.4018 4.92517C5.29588 1.58876 4.39558 0.84734 0.370711 0.794382L0.370711 0Z" transform="matrix(1 0 0 -1 3833.05 1956.69)"/></g><path d="M3917.91 1464.18C3917.91 1520.05 3872.62 1565.34 3816.75 1565.34 3760.89 1565.34 3715.61 1520.05 3715.61 1464.18 3715.61 1408.32 3760.89 1363.04 3816.75 1363.04 3872.62 1363.04 3917.91 1408.32 3917.91 1464.18" fill="#FFFFF0"/><path d="M3917.91 1464.18C3917.91 1520.05 3872.62 1565.34 3816.75 1565.34 3760.89 1565.34 3715.61 1520.05 3715.61 1464.18 3715.61 1408.32 3760.89 1363.04 3816.75 1363.04 3872.62 1363.04 3917.91 1408.32 3917.91 1464.18" stroke="#2E3436" stroke-width="3.7827" stroke-miterlimit="10" fill="none"/><g clip-path="url(#clip49)"><path d="M19.7536 8.79116C17.2116 5.08404 15.3051 3.81303 12.2864 3.81303 7.41423 3.81303 4.07783 8.04974 4.07783 14.14 4.07783 19.6477 6.99056 23.3548 11.2802 23.3548 13.1867 23.3548 13.8752 22.8252 14.4048 20.8128L14.7225 19.6477C15.1462 18.1119 16.0995 17.2116 17.2646 17.2116 18.6415 17.2116 19.7536 18.2178 19.7536 19.4359 19.7536 22.4016 16.0465 24.8906 11.598 24.8906 9.00299 24.8906 6.30209 23.8315 4.13078 21.9249 1.48285 19.5947 0 15.9936 0 11.7568 0 4.92517 4.18374 0 10.0622 0 12.4453 0 14.5637 0.84734 16.4702 2.48906 17.9001 3.70711 18.9063 5.18996 20.495 8.31453L19.7536 8.79116Z" transform="matrix(1 0 0 -1 3804.83 1450.33)"/></g><g clip-path="url(#clip50)"><path d="M15.9406 35.4294 15.464 35.4294 0 0 31.5634 0 15.9406 35.4294M24.0433 4.02487 6.9376 4.02487C5.66659 4.02487 5.18996 4.2367 5.18996 4.81925 5.18996 5.18996 5.4018 5.98434 5.77251 6.77872L14.3518 26.5853 24.0433 4.02487Z" transform="matrix(1 0 0 -1 3780.2 1506.55)"/></g><g clip-path="url(#clip51)"><path d="M2.91273 24.8906C1.32397 24.8906 0 23.5667 0 21.872 0 20.3362 1.32397 19.0122 2.85977 19.0122 4.5015 19.0122 5.87842 20.2832 5.87842 21.872 5.87842 23.5137 4.5015 24.8906 2.91273 24.8906M2.91273 5.87842C1.32397 5.87842 0 4.55446 0 2.85977 0 1.32397 1.32397 0 2.85977 0 4.5015 0 5.87842 1.27101 5.87842 2.85977 5.87842 4.5015 4.5015 5.87842 2.91273 5.87842Z" transform="matrix(1 0 0 -1 3817.27 1507.13)"/></g><g clip-path="url(#clip52)"><path d="M0.370711 0 14.9873 0 14.9873 0.794382C10.9095 0.794382 10.0092 1.37693 9.95625 3.91895L9.95625 35.6942 9.53258 35.8001 0 30.9809 0 30.2395C2.06539 31.0338 3.3364 31.4046 3.81303 31.4046 4.92517 31.4046 5.4018 30.6102 5.4018 28.9155L5.4018 4.92517C5.29588 1.58876 4.39558 0.84734 0.370711 0.794382L0.370711 0Z" transform="matrix(1 0 0 -1 3833.05 1506.55)"/></g><path d="M2275.62 1875.98C2302.84 1777.55 2444.26 1565.31 2511.56 1468.65 2578.87 1371.99 2621.97 1308.14 2679.45 1296.02 2736.92 1283.91 2831.96 1327.32 2856.41 1395.96 2880.86 1464.61 2829.69 1616.29 2826.16 1707.9 2822.63 1799.51 2852.63 1887.08 2835.23 1945.63 2817.84 2004.18 2802.97 2040.27 2721.8 2059.2 2640.63 2078.13 2422.58 2089.74 2348.22 2059.2 2273.85 2028.66 2248.39 1974.4 2275.62 1875.98Z" stroke="#FF0000" stroke-width="13.75" stroke-miterlimit="8" stroke-dasharray="110 41.25 13.75 41.25 13.75 41.25" fill="none" fill-rule="evenodd"/><path d="M3666.38 2058.34C3574.13 2070.7 3499.53 2078.52 3454.66 2053.8 3409.8 2029.09 3406.52 2006.89 3397.2 1910.05 3387.87 1813.2 3397.2 1634.64 3398.71 1472.73 3400.22 1310.82 3364.68 1037.69 3406.27 938.57 3447.86 839.455 3580.18 830.124 3648.23 878.042 3716.28 925.96 3752.57 1122.68 3814.58 1226.08 3876.58 1329.48 4016.71 1428.09 4020.24 1498.46 4023.77 1568.82 3859.19 1606.15 3835.75 1648.26 3812.31 1690.38 3852.13 1722.91 3879.6 1751.16 3907.08 1779.41 3979.16 1779.66 4000.58 1817.74 4022.01 1855.82 4064.1 1939.81 4008.14 1979.65 3952.19 2019.5 3758.62 2045.98 3666.38 2058.34Z" stroke="#0070C0" stroke-width="13.75" stroke-miterlimit="8" stroke-dasharray="55 41.25" fill="none" fill-rule="evenodd"/></g></svg>