<svg width="2068" height="2068" xmlns="http://www.w3.org/2000/svg" xmlns:xlink="http://www.w3.org/1999/xlink" overflow="hidden"><defs><clipPath id="clip0"><rect x="132" y="167" width="2068" height="2068"/></clipPath><clipPath id="clip1"><rect x="1399" y="-27933" width="28364" height="28364"/></clipPath><clipPath id="clip2"><rect x="1376" y="-27872" width="28364" height="28364"/></clipPath><clipPath id="clip3"><rect x="1416" y="-27871" width="28364" height="28364"/></clipPath><clipPath id="clip4"><rect x="1429" y="-27871" width="28363" height="28364"/></clipPath><clipPath id="clip5"><rect x="1232" y="-27554" width="28364" height="28364"/></clipPath><clipPath id="clip6"><rect x="1209" y="-27493" width="28364" height="28364"/></clipPath><clipPath id="clip7"><rect x="1249" y="-27492" width="28364" height="28364"/></clipPath><clipPath id="clip8"><rect x="1260" y="-27493" width="28364" height="28364"/></clipPath><clipPath id="clip9"><rect x="902" y="-27179" width="28364" height="28364"/></clipPath><clipPath id="clip10"><rect x="879" y="-27118" width="28364" height="28364"/></clipPath><clipPath id="clip11"><rect x="919" y="-27117" width="28364" height="28364"/></clipPath><clipPath id="clip12"><rect x="932" y="-27117" width="28364" height="28364"/></clipPath><clipPath id="clip13"><rect x="572" y="-26800" width="28364" height="28364"/></clipPath><clipPath id="clip14"><rect x="549" y="-26738" width="28364" height="28363"/></clipPath><clipPath id="clip15"><rect x="589" y="-26738" width="28364" height="28364"/></clipPath><clipPath id="clip16"><rect x="601" y="-26738" width="28364" height="28363"/></clipPath><clipPath id="clip17"><rect x="409" y="-26424" width="28364" height="28364"/></clipPath><clipPath id="clip18"><rect x="382" y="-26363" width="28363" height="28363"/></clipPath><clipPath id="clip19"><rect x="421" y="-26363" width="28364" height="28364"/></clipPath><clipPath id="clip20"><rect x="438" y="-26363" width="28364" height="28363"/></clipPath><clipPath id="clip21"><rect x="737" y="-26424" width="28364" height="28364"/></clipPath><clipPath id="clip22"><rect x="712" y="-26363" width="28364" height="28363"/></clipPath><clipPath id="clip23"><rect x="752" y="-26363" width="28364" height="28364"/></clipPath><clipPath id="clip24"><rect x="769" y="-26363" width="28364" height="28363"/></clipPath><clipPath id="clip25"><rect x="905" y="-26799" width="28364" height="28364"/></clipPath><clipPath id="clip26"><rect x="879" y="-26738" width="28364" height="28363"/></clipPath><clipPath id="clip27"><rect x="919" y="-26738" width="28364" height="28364"/></clipPath><clipPath id="clip28"><rect x="936" y="-26738" width="28364" height="28363"/></clipPath><clipPath id="clip29"><rect x="1232" y="-27179" width="28364" height="28364"/></clipPath><clipPath id="clip30"><rect x="1209" y="-27118" width="28364" height="28364"/></clipPath><clipPath id="clip31"><rect x="1249" y="-27117" width="28364" height="28364"/></clipPath><clipPath id="clip32"><rect x="1261" y="-27118" width="28364" height="28364"/></clipPath><clipPath id="clip33"><rect x="1236" y="-26799" width="28364" height="28364"/></clipPath><clipPath id="clip34"><rect x="1209" y="-26738" width="28364" height="28363"/></clipPath><clipPath id="clip35"><rect x="1249" y="-26738" width="28364" height="28364"/></clipPath><clipPath id="clip36"><rect x="1266" y="-26738" width="28364" height="28363"/></clipPath><clipPath id="clip37"><rect x="1566" y="-26799" width="28364" height="28364"/></clipPath><clipPath id="clip38"><rect x="1539" y="-26738" width="28364" height="28363"/></clipPath><clipPath id="clip39"><rect x="1579" y="-26738" width="28364" height="28364"/></clipPath><clipPath id="clip40"><rect x="1596" y="-26738" width="28364" height="28363"/></clipPath><clipPath id="clip41"><rect x="1562" y="-27554" width="28364" height="28364"/></clipPath><clipPath id="clip42"><rect x="1539" y="-27493" width="28364" height="28364"/></clipPath><clipPath id="clip43"><rect x="1579" y="-27492" width="28364" height="28364"/></clipPath><clipPath id="clip44"><rect x="1591" y="-27493" width="28364" height="28364"/></clipPath><clipPath id="clip45"><rect x="1570" y="-27179" width="28363" height="28364"/></clipPath><clipPath id="clip46"><rect x="1539" y="-27118" width="28364" height="28364"/></clipPath><clipPath id="clip47"><rect x="1579" y="-27117" width="28364" height="28364"/></clipPath><clipPath id="clip48"><rect x="1596" y="-27118" width="28364" height="28364"/></clipPath><clipPath id="clip49"><rect x="1896" y="-27166" width="28364" height="28364"/></clipPath><clipPath id="clip50"><rect x="1869" y="-27118" width="28364" height="28364"/></clipPath><clipPath id="clip51"><rect x="1909" y="-27117" width="28364" height="28364"/></clipPath><clipPath id="clip52"><rect x="1926" y="-27118" width="28364" height="28364"/></clipPath></defs><g clip-path="url(#clip0)" transform="translate(-132 -167)"><path d="M1372.1 547.645C1347.52 602.162 1317.01 669.89 1292.49 724.312" stroke="#2E3436" stroke-width="4.07624" stroke-miterlimit="10" fill="none"/><path d="M1458.84 547.645C1482.62 601.738 1512.11 668.821 1535.93 723.026" stroke="#2E3436" stroke-width="4.07624" stroke-miterlimit="10" fill="none"/><path d="M1177.23 908.871C1121.86 970.408 1045.54 1055.19 990.199 1116.67" stroke="#2E3436" stroke-width="4.07624" stroke-miterlimit="10" fill="none"/><path d="M1248.88 935.381C1248.88 984.06 1248.88 1041.61 1248.88 1090.26" stroke="#2E3436" stroke-width="4.07624" stroke-miterlimit="10" fill="none"/><path d="M847.054 1284.77C791.675 1346.99 715.38 1432.72 660.035 1494.89" stroke="#2E3436" stroke-width="4.07624" stroke-miterlimit="10" fill="none"/><path d="M918.697 1311.57C918.697 1361.21 918.697 1420 918.697 1469.45" stroke="#2E3436" stroke-width="4.07624" stroke-miterlimit="10" fill="none"/><path d="M544.618 1679.76C520.239 1733.26 490.022 1799.61 465.593 1853.21" stroke="#2E3436" stroke-width="4.07624" stroke-miterlimit="10" fill="none"/><path d="M632.227 1681.69C655.812 1734.74 684.805 1800.02 708.327 1852.92" stroke="#2E3436" stroke-width="4.07624" stroke-miterlimit="10" fill="none"/><path d="M1248.88 1311.57C1248.88 1361.21 1248.88 1420 1248.88 1469.45" stroke="#2E3436" stroke-width="4.07624" stroke-miterlimit="10" fill="none"/><path d="M1320.53 1284.77C1375.9 1346.99 1452.2 1432.72 1507.54 1494.89" stroke="#2E3436" stroke-width="4.07624" stroke-miterlimit="10" fill="none"/><path d="M1579.06 935.381C1579.06 984.06 1579.06 1041.61 1579.06 1090.26" stroke="#2E3436" stroke-width="4.07624" stroke-miterlimit="10" fill="none"/><path d="M1650.69 908.871C1706.08 970.408 1782.38 1055.19 1837.72 1116.67" stroke="#2E3436" stroke-width="4.07624" stroke-miterlimit="10" fill="none"/><path d="M1525 446.109C1525 506.298 1476.2 555.106 1416 555.106 1355.79 555.106 1307 506.298 1307 446.109 1307 385.904 1355.79 337.096 1416 337.096 1476.2 337.096 1525 385.904 1525 446.109" fill="#EE7621"/><path d="M1525 446.109C1525 506.298 1476.2 555.106 1416 555.106 1355.79 555.106 1307 506.298 1307 446.109 1307 385.904 1355.79 337.096 1416 337.096 1476.2 337.096 1525 385.904 1525 446.109" stroke="#2E3436" stroke-width="4.07624" stroke-miterlimit="10" fill="none"/><g clip-path="url(#clip1)"><path d="M11.1854 13.9817 0 2.73928 2.73928 0 13.9247 11.2425 25.1671 0 27.9064 2.73928 16.6639 13.9817 27.9064 25.1671 25.1671 27.9064 13.9247 16.6639 2.73928 27.9064 0 25.1671 11.1854 13.9817Z" transform="matrix(1 0 0 -1 1399.83 430.15)"/></g><g clip-path="url(#clip2)"><path d="M17.1776 38.1787 16.6639 38.1787 0 0 34.0127 0 17.1776 38.1787M25.909 4.33719 7.47594 4.33719C6.10631 4.33719 5.59269 4.56546 5.59269 5.19321 5.59269 5.59269 5.82096 6.44872 6.22044 7.30474L15.4655 28.6483 25.909 4.33719Z" transform="matrix(1 0 0 -1 1376.6 491.753)"/></g><g clip-path="url(#clip3)"><path d="M3.13876 26.8221C1.42671 26.8221 0 25.3954 0 23.5692 0 21.9142 1.42671 20.4875 3.08169 20.4875 4.8508 20.4875 6.33458 21.8572 6.33458 23.5692 6.33458 25.3383 4.8508 26.8221 3.13876 26.8221M3.13876 6.33458C1.42671 6.33458 0 4.90787 0 3.08169 0 1.42671 1.42671 0 3.08169 0 4.8508 0 6.33458 1.36964 6.33458 3.08169 6.33458 4.8508 4.8508 6.33458 3.13876 6.33458Z" transform="matrix(1 0 0 -1 1416.55 492.381)"/></g><g clip-path="url(#clip4)"><path d="M8.50317 34.0698 19.6886 34.0698C20.6587 34.0698 20.8299 34.1268 21.0011 34.5834L23.1697 39.6625 22.6561 40.0619C21.8001 38.9206 21.2865 38.5782 20.031 38.5782L8.10369 38.5782 1.88325 25.053C1.82618 24.9388 1.82618 24.8818 1.82618 24.7676 1.82618 24.4252 2.05446 24.3111 2.511 24.3111 4.33719 24.3111 6.56285 23.9116 8.95972 23.1697 15.5226 21.0582 18.4901 17.577 18.4901 11.8702 18.4901 6.39165 15.066 2.11153 10.5576 2.11153 9.41627 2.11153 8.50317 2.511 6.79112 3.76651 4.96494 5.13615 3.70944 5.64976 2.39687 5.64976 0.798956 5.64976 0 4.96494 0 3.53823 0 1.36964 2.62514 0 6.96233 0 11.699 0 15.8079 1.54084 18.7184 4.45133 21.2865 7.0194 22.4849 10.2723 22.4849 14.6095 22.4849 18.7184 21.4006 21.3435 18.6043 24.197 16.0933 26.708 12.8404 28.0205 6.10631 29.219L8.50317 34.0698Z" transform="matrix(1 0 0 -1 1429.05 492.552)"/></g><path d="M1357.87 825.198C1357.87 885.399 1309.08 934.195 1248.88 934.195 1188.67 934.195 1139.88 885.399 1139.88 825.198 1139.88 764.993 1188.67 716.198 1248.88 716.198 1309.08 716.198 1357.87 764.993 1357.87 825.198" fill="#EE7621"/><path d="M1357.87 825.198C1357.87 885.399 1309.08 934.195 1248.88 934.195 1188.67 934.195 1139.88 885.399 1139.88 825.198 1139.88 764.993 1188.67 716.198 1248.88 716.198 1309.08 716.198 1357.87 764.993 1357.87 825.198" stroke="#2E3436" stroke-width="4.07624" stroke-miterlimit="10" fill="none"/><g clip-path="url(#clip5)"><path d="M11.1854 13.9817 0 2.73928 2.73928 0 13.9247 11.2425 25.1671 0 27.9064 2.73928 16.6639 13.9817 27.9064 25.1671 25.1671 27.9064 13.9247 16.6639 2.73928 27.9064 0 25.1671 11.1854 13.9817Z" transform="matrix(1 0 0 -1 1232.7 809.253)"/></g><g clip-path="url(#clip6)"><path d="M17.1776 38.1787 16.6639 38.1787 0 0 34.0127 0 17.1776 38.1787M25.909 4.33719 7.47594 4.33719C6.10631 4.33719 5.59269 4.56546 5.59269 5.19321 5.59269 5.59269 5.82096 6.44872 6.22044 7.30474L15.4655 28.6483 25.909 4.33719Z" transform="matrix(1 0 0 -1 1209.48 870.84)"/></g><g clip-path="url(#clip7)"><path d="M3.13876 26.8221C1.42671 26.8221 0 25.3954 0 23.5692 0 21.9142 1.42671 20.4875 3.08169 20.4875 4.8508 20.4875 6.33458 21.8572 6.33458 23.5692 6.33458 25.3383 4.8508 26.8221 3.13876 26.8221M3.13876 6.33458C1.42671 6.33458 0 4.90787 0 3.08169 0 1.42671 1.42671 0 3.08169 0 4.8508 0 6.33458 1.36964 6.33458 3.08169 6.33458 4.8508 4.8508 6.33458 3.13876 6.33458Z" transform="matrix(1 0 0 -1 1249.43 871.468)"/></g><g clip-path="url(#clip8)"><path d="M26.2514 13.1828 20.4304 13.1828 20.4304 38.5782 17.9194 38.5782 0 13.1828 0 9.5304 16.0362 9.5304 16.0362 0 20.4304 0 20.4304 9.5304 26.2514 9.5304 26.2514 13.1828M15.9791 13.1828 2.28273 13.1828 15.9791 32.7572 15.9791 13.1828Z" transform="matrix(1 0 0 -1 1260.79 870.84)"/></g><path d="M1027.7 1200.21C1027.7 1260.41 978.902 1309.2 918.697 1309.2 858.496 1309.2 809.701 1260.41 809.701 1200.21 809.701 1140 858.496 1091.2 918.697 1091.2 978.902 1091.2 1027.7 1140 1027.7 1200.21" fill="#EE7621"/><path d="M1027.7 1200.21C1027.7 1260.41 978.902 1309.2 918.697 1309.2 858.496 1309.2 809.701 1260.41 809.701 1200.21 809.701 1140 858.496 1091.2 918.697 1091.2 978.902 1091.2 1027.7 1140 1027.7 1200.21" stroke="#2E3436" stroke-width="4.07624" stroke-miterlimit="10" fill="none"/><g clip-path="url(#clip9)"><path d="M11.1854 13.9817 0 2.73928 2.73928 0 13.9247 11.2425 25.1671 0 27.9064 2.73928 16.6639 13.9817 27.9064 25.1671 25.1671 27.9064 13.9247 16.6639 2.73928 27.9064 0 25.1671 11.1854 13.9817Z" transform="matrix(1 0 0 -1 902.533 1184.26)"/></g><g clip-path="url(#clip10)"><path d="M17.1776 38.1787 16.6639 38.1787 0 0 34.0127 0 17.1776 38.1787M25.909 4.33719 7.47594 4.33719C6.10631 4.33719 5.59269 4.56546 5.59269 5.19321 5.59269 5.59269 5.82096 6.44872 6.22044 7.30474L15.4655 28.6483 25.909 4.33719Z" transform="matrix(1 0 0 -1 879.304 1245.86)"/></g><g clip-path="url(#clip11)"><path d="M3.13876 26.8221C1.42671 26.8221 0 25.3954 0 23.5692 0 21.9142 1.42671 20.4875 3.08169 20.4875 4.8508 20.4875 6.33458 21.8572 6.33458 23.5692 6.33458 25.3383 4.8508 26.8221 3.13876 26.8221M3.13876 6.33458C1.42671 6.33458 0 4.90787 0 3.08169 0 1.42671 1.42671 0 3.08169 0 4.8508 0 6.33458 1.36964 6.33458 3.08169 6.33458 4.8508 4.8508 6.33458 3.13876 6.33458Z" transform="matrix(1 0 0 -1 919.252 1246.49)"/></g><g clip-path="url(#clip12)"><path d="M6.27751 19.6315C9.64454 19.6315 10.9571 19.5174 12.2697 19.0037 15.865 17.6912 18.0336 14.4953 18.0336 10.5576 18.0336 5.70683 14.8378 2.05446 10.6147 2.05446 9.01679 2.05446 7.87542 2.45394 5.7639 3.82357 4.10892 4.8508 3.13876 5.25028 2.16859 5.25028 0.856024 5.25028 0 4.45133 0 3.25289 0 1.2555 2.45394 0 6.44872 0 10.7859 0 15.2943 1.48378 18.0336 3.82357 20.7158 6.16337 22.1425 9.47333 22.1425 13.2969 22.1425 16.2645 21.2294 18.8896 19.6315 20.6587 18.4331 21.9142 17.3488 22.599 14.8948 23.6833 18.7755 26.3655 20.2022 28.4771 20.2022 31.5588 20.2022 36.2384 16.6069 39.3771 11.2995 39.3771 8.44611 39.3771 5.9351 38.407 3.88064 36.5808 2.16859 34.9829 1.31257 33.5561 0.114137 30.132L0.970161 29.9038C3.25289 34.1268 5.82096 35.953 9.41627 35.953 13.1828 35.953 15.6938 33.4991 15.6938 29.8467 15.6938 27.7923 14.8378 25.7949 13.411 24.3111 11.699 22.599 10.1011 21.743 6.22044 20.3734L6.27751 19.6315Z" transform="matrix(1 0 0 -1 932.378 1246.66)"/></g><path d="M697.534 1579.29C697.534 1639.5 648.725 1688.3 588.52 1688.3 528.332 1688.3 479.524 1639.5 479.524 1579.29 479.524 1519.1 528.332 1470.29 588.52 1470.29 648.725 1470.29 697.534 1519.1 697.534 1579.29" fill="#EE7621"/><path d="M697.534 1579.29C697.534 1639.5 648.725 1688.3 588.52 1688.3 528.332 1688.3 479.524 1639.5 479.524 1579.29 479.524 1519.1 528.332 1470.29 588.52 1470.29 648.725 1470.29 697.534 1519.1 697.534 1579.29" stroke="#2E3436" stroke-width="4.07624" stroke-miterlimit="10" fill="none"/><g clip-path="url(#clip13)"><path d="M11.1854 13.9817 0 2.73928 2.73928 0 13.9247 11.2425 25.1671 0 27.9064 2.73928 16.6639 13.9817 27.9064 25.1671 25.1671 27.9064 13.9247 16.6639 2.73928 27.9064 0 25.1671 11.1854 13.9817Z" transform="matrix(1 0 0 -1 572.354 1563.35)"/></g><g clip-path="url(#clip14)"><path d="M17.1776 38.1787 16.6639 38.1787 0 0 34.0127 0 17.1776 38.1787M25.909 4.33719 7.47594 4.33719C6.10631 4.33719 5.59269 4.56546 5.59269 5.19321 5.59269 5.59269 5.82096 6.44872 6.22044 7.30474L15.4655 28.6483 25.909 4.33719Z" transform="matrix(1 0 0 -1 549.141 1624.95)"/></g><g clip-path="url(#clip15)"><path d="M3.13876 26.8221C1.42671 26.8221 0 25.3954 0 23.5692 0 21.9142 1.42671 20.4875 3.08169 20.4875 4.8508 20.4875 6.33458 21.8572 6.33458 23.5692 6.33458 25.3383 4.8508 26.8221 3.13876 26.8221M3.13876 6.33458C1.42671 6.33458 0 4.90787 0 3.08169 0 1.42671 1.42671 0 3.08169 0 4.8508 0 6.33458 1.36964 6.33458 3.08169 6.33458 4.8508 4.8508 6.33458 3.13876 6.33458Z" transform="matrix(1 0 0 -1 589.089 1625.58)"/></g><g clip-path="url(#clip16)"><path d="M25.3954 7.81835 24.6535 8.10369C22.542 4.79374 21.9142 4.39426 19.232 4.33719L5.59269 4.33719 15.1802 14.3812C20.2592 19.6886 22.4849 24.0257 22.4849 28.4771 22.4849 34.1839 17.8624 38.5782 11.9273 38.5782 8.78852 38.5782 5.82096 37.3227 3.70944 35.0399 1.88325 33.0996 1.02723 31.2734 0.0570683 27.2216L1.2555 26.9362C3.53823 32.5289 5.53562 34.3551 9.5304 34.3551 14.3812 34.3551 17.577 31.1022 17.577 26.3085 17.577 21.8001 14.9519 16.5498 10.1582 11.4707L0 0.684819 0 0 22.2566 0 25.3954 7.81835Z" transform="matrix(1 0 0 -1 601.473 1624.95)"/></g><path d="M530.396 1954.31C530.396 2014.52 481.604 2063.31 421.399 2063.31 361.194 2063.31 312.399 2014.52 312.399 1954.31 312.399 1894.11 361.194 1845.32 421.399 1845.32 481.604 1845.32 530.396 1894.11 530.396 1954.31" fill="#EE7621"/><path d="M530.396 1954.31C530.396 2014.52 481.604 2063.31 421.399 2063.31 361.194 2063.31 312.399 2014.52 312.399 1954.31 312.399 1894.11 361.194 1845.32 421.399 1845.32 481.604 1845.32 530.396 1894.11 530.396 1954.31" stroke="#2E3436" stroke-width="4.07624" stroke-miterlimit="10" fill="none"/><g clip-path="url(#clip17)"><path d="M23.1127 4.33719C22.1425 3.53823 21.4577 3.25289 20.6016 3.25289 19.2891 3.25289 18.8896 4.05185 18.8896 6.56285L18.8896 17.6912C18.8896 20.6587 18.6043 22.3137 17.7482 23.6833 16.4927 25.7378 14.0388 26.8221 10.6718 26.8221 5.30735 26.8221 1.0843 24.0257 1.0843 20.4304 1.0843 19.1179 2.16859 17.9765 3.53823 17.9765 4.90787 17.9765 6.10631 19.1179 6.10631 20.3734 6.10631 20.6016 6.04924 20.887 5.99217 21.2865 5.87803 21.8001 5.82096 22.2566 5.82096 22.6561 5.82096 24.197 7.64715 25.4525 9.92988 25.4525 12.7262 25.4525 14.2671 23.7975 14.2671 20.7158L14.2671 17.2346C5.53562 13.7535 4.50839 13.2398 2.05446 11.0712 0.798956 9.92988 0 7.98956 0 6.10631 0 2.511 2.511 0 5.99217 0 8.50317 0 10.843 1.19843 14.3241 4.16598 14.6095 1.14137 15.6367 0 17.9765 0 19.9168 0 21.1153 0.684819 23.1127 2.85341L23.1127 4.33719M14.2671 7.59008C14.2671 5.87803 13.9817 5.25028 12.7833 4.56546 11.3566 3.76651 9.81574 3.30996 8.61731 3.30996 6.61992 3.30996 5.02201 5.25028 5.02201 7.70422L5.02201 7.93249C5.07908 11.3566 7.59008 13.5252 14.2671 15.865L14.2671 7.59008Z" transform="matrix(1 0 0 -1 409.239 1939.4)"/></g><g clip-path="url(#clip18)"><path d="M17.1776 38.1787 16.6639 38.1787 0 0 34.0127 0 17.1776 38.1787M25.909 4.33719 7.47594 4.33719C6.10631 4.33719 5.59269 4.56546 5.59269 5.19321 5.59269 5.59269 5.82096 6.44872 6.22044 7.30474L15.4655 28.6483 25.909 4.33719Z" transform="matrix(1 0 0 -1 382.004 1999.96)"/></g><g clip-path="url(#clip19)"><path d="M3.13876 26.8221C1.42671 26.8221 0 25.3954 0 23.5692 0 21.9142 1.42671 20.4875 3.08169 20.4875 4.8508 20.4875 6.33458 21.8572 6.33458 23.5692 6.33458 25.3383 4.8508 26.8221 3.13876 26.8221M3.13876 6.33458C1.42671 6.33458 0 4.90787 0 3.08169 0 1.42671 1.42671 0 3.08169 0 4.8508 0 6.33458 1.36964 6.33458 3.08169 6.33458 4.8508 4.8508 6.33458 3.13876 6.33458Z" transform="matrix(1 0 0 -1 421.951 2000.58)"/></g><g clip-path="url(#clip20)"><path d="M0.399478 0 16.1503 0 16.1503 0.856024C11.7561 0.856024 10.7859 1.48378 10.7288 4.22305L10.7288 38.464 10.2723 38.5782 0 33.3849 0 32.586C2.22566 33.442 3.5953 33.8415 4.10892 33.8415 5.30735 33.8415 5.82096 32.9855 5.82096 31.1593L5.82096 5.30735C5.70683 1.71205 4.73667 0.913092 0.399478 0.856024L0.399478 0Z" transform="matrix(1 0 0 -1 438.958 1999.96)"/></g><path d="M860.577 1954.31C860.577 2014.52 811.781 2063.31 751.576 2063.31 691.375 2063.31 642.58 2014.52 642.58 1954.31 642.58 1894.11 691.375 1845.32 751.576 1845.32 811.781 1845.32 860.577 1894.11 860.577 1954.31" fill="#EE7621"/><path d="M860.577 1954.31C860.577 2014.52 811.781 2063.31 751.576 2063.31 691.375 2063.31 642.58 2014.52 642.58 1954.31 642.58 1894.11 691.375 1845.32 751.576 1845.32 811.781 1845.32 860.577 1894.11 860.577 1954.31" stroke="#2E3436" stroke-width="4.07624" stroke-miterlimit="10" fill="none"/><g clip-path="url(#clip21)"><path d="M8.56024 39.4342 8.2749 39.5483C5.9351 38.7494 4.39426 38.2357 1.65498 37.4939L0 37.0373 0 36.1242C0.34241 36.1813 0.513614 36.1813 0.970161 36.1813 3.25289 36.1813 3.76651 35.6677 3.76651 33.2708L3.76651 3.65237C3.76651 1.88325 8.56024 0 13.1828 0 20.7158 0 26.5368 6.27751 26.5368 14.4383 26.5368 21.5147 22.1996 26.8221 16.4927 26.8221 13.0116 26.8221 9.70161 24.8247 8.56024 21.9713L8.56024 39.4342M8.56024 18.9467C8.56024 21.1723 11.2424 23.2268 14.21 23.2268 15.8079 23.2268 17.2346 22.6561 18.4331 21.5718 20.2592 19.8027 21.5147 15.922 21.5147 11.8131 21.5147 5.47855 18.7755 1.82618 14.0959 1.82618 11.1283 1.82618 8.56024 3.08169 8.56024 4.56546L8.56024 18.9467Z" transform="matrix(1 0 0 -1 737.478 1939.4)"/></g><g clip-path="url(#clip22)"><path d="M17.1776 38.1787 16.6639 38.1787 0 0 34.0127 0 17.1776 38.1787M25.909 4.33719 7.47594 4.33719C6.10631 4.33719 5.59269 4.56546 5.59269 5.19321 5.59269 5.59269 5.82096 6.44872 6.22044 7.30474L15.4655 28.6483 25.909 4.33719Z" transform="matrix(1 0 0 -1 712.183 1999.96)"/></g><g clip-path="url(#clip23)"><path d="M3.13876 26.8221C1.42671 26.8221 0 25.3954 0 23.5692 0 21.9142 1.42671 20.4875 3.08169 20.4875 4.8508 20.4875 6.33458 21.8572 6.33458 23.5692 6.33458 25.3383 4.8508 26.8221 3.13876 26.8221M3.13876 6.33458C1.42671 6.33458 0 4.90787 0 3.08169 0 1.42671 1.42671 0 3.08169 0 4.8508 0 6.33458 1.36964 6.33458 3.08169 6.33458 4.8508 4.8508 6.33458 3.13876 6.33458Z" transform="matrix(1 0 0 -1 752.131 2000.58)"/></g><g clip-path="url(#clip24)"><path d="M0.399478 0 16.1503 0 16.1503 0.856024C11.7561 0.856024 10.7859 1.48378 10.7288 4.22305L10.7288 38.464 10.2723 38.5782 0 33.3849 0 32.586C2.22566 33.442 3.5953 33.8415 4.10892 33.8415 5.30735 33.8415 5.82096 32.9855 5.82096 31.1593L5.82096 5.30735C5.70683 1.71205 4.73667 0.913092 0.399478 0.856024L0.399478 0Z" transform="matrix(1 0 0 -1 769.137 1999.96)"/></g><path d="M1027.7 1579.29C1027.7 1639.5 978.902 1688.3 918.697 1688.3 858.496 1688.3 809.701 1639.5 809.701 1579.29 809.701 1519.1 858.496 1470.29 918.697 1470.29 978.902 1470.29 1027.7 1519.1 1027.7 1579.29" fill="#FFFFF0"/><path d="M1027.7 1579.29C1027.7 1639.5 978.902 1688.3 918.697 1688.3 858.496 1688.3 809.701 1639.5 809.701 1579.29 809.701 1519.1 858.496 1470.29 918.697 1470.29 978.902 1470.29 1027.7 1519.1 1027.7 1579.29" stroke="#2E3436" stroke-width="4.07624" stroke-miterlimit="10" fill="none"/><g clip-path="url(#clip25)"><path d="M21.2865 9.47333C18.5472 5.47855 16.4927 4.10892 13.2398 4.10892 7.98956 4.10892 4.39426 8.67438 4.39426 15.2372 4.39426 21.1723 7.53301 25.1671 12.1555 25.1671 14.21 25.1671 14.9519 24.5964 15.5226 22.4278L15.865 21.1723C16.3215 19.5174 17.3488 18.5472 18.6043 18.5472 20.088 18.5472 21.2865 19.6315 21.2865 20.9441 21.2865 24.1399 17.2917 26.8221 12.498 26.8221 9.70161 26.8221 6.79113 25.6807 4.45133 23.6263 1.59791 21.1153 0 17.2346 0 12.6692 0 5.30735 4.50839 0 10.843 0 13.411 0 15.6938 0.913092 17.7482 2.68221 19.2891 3.99478 20.3734 5.59269 22.0854 8.95972L21.2865 9.47333Z" transform="matrix(1 0 0 -1 905.855 1564.37)"/></g><g clip-path="url(#clip26)"><path d="M17.1776 38.1787 16.6639 38.1787 0 0 34.0127 0 17.1776 38.1787M25.909 4.33719 7.47594 4.33719C6.10631 4.33719 5.59269 4.56546 5.59269 5.19321 5.59269 5.59269 5.82096 6.44872 6.22044 7.30474L15.4655 28.6483 25.909 4.33719Z" transform="matrix(1 0 0 -1 879.304 1624.95)"/></g><g clip-path="url(#clip27)"><path d="M3.13876 26.8221C1.42671 26.8221 0 25.3954 0 23.5692 0 21.9142 1.42671 20.4875 3.08169 20.4875 4.8508 20.4875 6.33458 21.8572 6.33458 23.5692 6.33458 25.3383 4.8508 26.8221 3.13876 26.8221M3.13876 6.33458C1.42671 6.33458 0 4.90787 0 3.08169 0 1.42671 1.42671 0 3.08169 0 4.8508 0 6.33458 1.36964 6.33458 3.08169 6.33458 4.8508 4.8508 6.33458 3.13876 6.33458Z" transform="matrix(1 0 0 -1 919.252 1625.58)"/></g><g clip-path="url(#clip28)"><path d="M0.399478 0 16.1503 0 16.1503 0.856024C11.7561 0.856024 10.7859 1.48378 10.7288 4.22305L10.7288 38.464 10.2723 38.5782 0 33.3849 0 32.586C2.22566 33.442 3.5953 33.8415 4.10892 33.8415 5.30735 33.8415 5.82096 32.9855 5.82096 31.1593L5.82096 5.30735C5.70683 1.71205 4.73667 0.913092 0.399478 0.856024L0.399478 0Z" transform="matrix(1 0 0 -1 936.258 1624.95)"/></g><path d="M1357.87 1200.21C1357.87 1260.41 1309.08 1309.2 1248.88 1309.2 1188.67 1309.2 1139.88 1260.41 1139.88 1200.21 1139.88 1140 1188.67 1091.2 1248.88 1091.2 1309.08 1091.2 1357.87 1140 1357.87 1200.21" fill="#FFFFF0"/><path d="M1357.87 1200.21C1357.87 1260.41 1309.08 1309.2 1248.88 1309.2 1188.67 1309.2 1139.88 1260.41 1139.88 1200.21 1139.88 1140 1188.67 1091.2 1248.88 1091.2 1309.08 1091.2 1357.87 1140 1357.87 1200.21" stroke="#2E3436" stroke-width="4.07624" stroke-miterlimit="10" fill="none"/><g clip-path="url(#clip29)"><path d="M11.1854 13.9817 0 2.73928 2.73928 0 13.9247 11.2425 25.1671 0 27.9064 2.73928 16.6639 13.9817 27.9064 25.1671 25.1671 27.9064 13.9247 16.6639 2.73928 27.9064 0 25.1671 11.1854 13.9817Z" transform="matrix(1 0 0 -1 1232.7 1184.26)"/></g><g clip-path="url(#clip30)"><path d="M17.1776 38.1787 16.6639 38.1787 0 0 34.0127 0 17.1776 38.1787M25.909 4.33719 7.47594 4.33719C6.10631 4.33719 5.59269 4.56546 5.59269 5.19321 5.59269 5.59269 5.82096 6.44872 6.22044 7.30474L15.4655 28.6483 25.909 4.33719Z" transform="matrix(1 0 0 -1 1209.48 1245.86)"/></g><g clip-path="url(#clip31)"><path d="M3.13876 26.8221C1.42671 26.8221 0 25.3954 0 23.5692 0 21.9142 1.42671 20.4875 3.08169 20.4875 4.8508 20.4875 6.33458 21.8572 6.33458 23.5692 6.33458 25.3383 4.8508 26.8221 3.13876 26.8221M3.13876 6.33458C1.42671 6.33458 0 4.90787 0 3.08169 0 1.42671 1.42671 0 3.08169 0 4.8508 0 6.33458 1.36964 6.33458 3.08169 6.33458 4.8508 4.8508 6.33458 3.13876 6.33458Z" transform="matrix(1 0 0 -1 1249.43 1246.49)"/></g><g clip-path="url(#clip32)"><path d="M25.3954 7.81835 24.6535 8.10369C22.542 4.79374 21.9142 4.39426 19.232 4.33719L5.59269 4.33719 15.1802 14.3812C20.2592 19.6886 22.4849 24.0257 22.4849 28.4771 22.4849 34.1839 17.8624 38.5782 11.9273 38.5782 8.78852 38.5782 5.82096 37.3227 3.70944 35.0399 1.88325 33.0996 1.02723 31.2734 0.0570683 27.2216L1.2555 26.9362C3.53823 32.5289 5.53562 34.3551 9.5304 34.3551 14.3812 34.3551 17.577 31.1022 17.577 26.3085 17.577 21.8001 14.9519 16.5498 10.1582 11.4707L0 0.684819 0 0 22.2566 0 25.3954 7.81835Z" transform="matrix(1 0 0 -1 1261.81 1245.86)"/></g><path d="M1357.87 1579.29C1357.87 1639.5 1309.08 1688.3 1248.88 1688.3 1188.67 1688.3 1139.88 1639.5 1139.88 1579.29 1139.88 1519.1 1188.67 1470.29 1248.88 1470.29 1309.08 1470.29 1357.87 1519.1 1357.87 1579.29" fill="#FFFFF0"/><path d="M1357.87 1579.29C1357.87 1639.5 1309.08 1688.3 1248.88 1688.3 1188.67 1688.3 1139.88 1639.5 1139.88 1579.29 1139.88 1519.1 1188.67 1470.29 1248.88 1470.29 1309.08 1470.29 1357.87 1519.1 1357.87 1579.29" stroke="#2E3436" stroke-width="4.07624" stroke-miterlimit="10" fill="none"/><g clip-path="url(#clip33)"><path d="M26.4797 3.88064C25.7378 3.82357 25.3954 3.82357 25.1671 3.82357 23.1697 3.82357 22.6561 4.45133 22.6561 7.07647L22.6561 39.4342 22.3708 39.5483C19.6886 38.6352 17.7482 38.0075 13.9817 37.0373L13.9817 36.1242C14.4383 36.1813 14.7236 36.1813 15.2372 36.1813 17.3488 36.1813 17.8624 35.6106 17.8624 33.2708L17.8624 24.3682C15.6938 26.1943 14.1529 26.8221 11.8702 26.8221 5.30735 26.8221 0 20.3734 0 12.2697 0 4.96494 4.22305 0 10.5576 0 13.7535 0 15.922 1.14137 17.8624 3.82357L17.8624 0.171205 18.0906 0 26.4797 2.96755 26.4797 3.88064M17.8624 6.39165C17.8624 5.99217 17.4629 5.30735 16.8922 4.6796 15.922 3.53823 14.4383 2.96755 12.7833 2.96755 7.98956 2.96755 4.90787 7.53301 4.90787 14.6095 4.90787 21.0011 7.70422 25.2242 12.0414 25.2242 15.1231 25.2242 17.8624 22.542 17.8624 19.5174L17.8624 6.39165Z" transform="matrix(1 0 0 -1 1236.15 1564.37)"/></g><g clip-path="url(#clip34)"><path d="M17.1776 38.1787 16.6639 38.1787 0 0 34.0127 0 17.1776 38.1787M25.909 4.33719 7.47594 4.33719C6.10631 4.33719 5.59269 4.56546 5.59269 5.19321 5.59269 5.59269 5.82096 6.44872 6.22044 7.30474L15.4655 28.6483 25.909 4.33719Z" transform="matrix(1 0 0 -1 1209.48 1624.95)"/></g><g clip-path="url(#clip35)"><path d="M3.13876 26.8221C1.42671 26.8221 0 25.3954 0 23.5692 0 21.9142 1.42671 20.4875 3.08169 20.4875 4.8508 20.4875 6.33458 21.8572 6.33458 23.5692 6.33458 25.3383 4.8508 26.8221 3.13876 26.8221M3.13876 6.33458C1.42671 6.33458 0 4.90787 0 3.08169 0 1.42671 1.42671 0 3.08169 0 4.8508 0 6.33458 1.36964 6.33458 3.08169 6.33458 4.8508 4.8508 6.33458 3.13876 6.33458Z" transform="matrix(1 0 0 -1 1249.43 1625.58)"/></g><g clip-path="url(#clip36)"><path d="M0.399478 0 16.1503 0 16.1503 0.856024C11.7561 0.856024 10.7859 1.48378 10.7288 4.22305L10.7288 38.464 10.2723 38.5782 0 33.3849 0 32.586C2.22566 33.442 3.5953 33.8415 4.10892 33.8415 5.30735 33.8415 5.82096 32.9855 5.82096 31.1593L5.82096 5.30735C5.70683 1.71205 4.73667 0.913092 0.399478 0.856024L0.399478 0Z" transform="matrix(1 0 0 -1 1266.44 1624.95)"/></g><path d="M1688.06 1579.29C1688.06 1639.5 1639.24 1688.3 1579.06 1688.3 1518.85 1688.3 1470.04 1639.5 1470.04 1579.29 1470.04 1519.1 1518.85 1470.29 1579.06 1470.29 1639.24 1470.29 1688.06 1519.1 1688.06 1579.29" fill="#FFFFF0"/><path d="M1688.06 1579.29C1688.06 1639.5 1639.24 1688.3 1579.06 1688.3 1518.85 1688.3 1470.04 1639.5 1470.04 1579.29 1470.04 1519.1 1518.85 1470.29 1579.06 1470.29 1639.24 1470.29 1688.06 1519.1 1688.06 1579.29" stroke="#2E3436" stroke-width="4.07624" stroke-miterlimit="10" fill="none"/><g clip-path="url(#clip37)"><path d="M21.8572 9.92988C19.1179 5.59269 16.6639 3.93771 13.0116 3.93771 9.75868 3.93771 7.30474 5.59269 5.64976 8.84558 4.62253 11.0142 4.22305 12.8404 4.10892 16.3786L21.6859 16.3786C21.2294 20.088 20.6587 21.743 19.232 23.5692 17.52 25.6237 14.8948 26.8221 11.9273 26.8221 9.07386 26.8221 6.39165 25.7949 4.22305 23.8545 1.54084 21.5147 0 17.4629 0 12.7833 0 4.90787 4.10892 0 10.6718 0 16.0933 0 20.3734 3.36703 22.7702 9.5304L21.8572 9.92988M4.22305 18.2048C4.8508 22.6561 6.79113 24.7676 10.2723 24.7676 13.7535 24.7676 15.1231 23.1697 15.865 18.2048L4.22305 18.2048Z" transform="matrix(1 0 0 -1 1566.21 1564.37)"/></g><g clip-path="url(#clip38)"><path d="M17.1776 38.1787 16.6639 38.1787 0 0 34.0127 0 17.1776 38.1787M25.909 4.33719 7.47594 4.33719C6.10631 4.33719 5.59269 4.56546 5.59269 5.19321 5.59269 5.59269 5.82096 6.44872 6.22044 7.30474L15.4655 28.6483 25.909 4.33719Z" transform="matrix(1 0 0 -1 1539.66 1624.95)"/></g><g clip-path="url(#clip39)"><path d="M3.13876 26.8221C1.42671 26.8221 0 25.3954 0 23.5692 0 21.9142 1.42671 20.4875 3.08169 20.4875 4.8508 20.4875 6.33458 21.8572 6.33458 23.5692 6.33458 25.3383 4.8508 26.8221 3.13876 26.8221M3.13876 6.33458C1.42671 6.33458 0 4.90787 0 3.08169 0 1.42671 1.42671 0 3.08169 0 4.8508 0 6.33458 1.36964 6.33458 3.08169 6.33458 4.8508 4.8508 6.33458 3.13876 6.33458Z" transform="matrix(1 0 0 -1 1579.61 1625.58)"/></g><g clip-path="url(#clip40)"><path d="M0.399478 0 16.1503 0 16.1503 0.856024C11.7561 0.856024 10.7859 1.48378 10.7288 4.22305L10.7288 38.464 10.2723 38.5782 0 33.3849 0 32.586C2.22566 33.442 3.5953 33.8415 4.10892 33.8415 5.30735 33.8415 5.82096 32.9855 5.82096 31.1593L5.82096 5.30735C5.70683 1.71205 4.73667 0.913092 0.399478 0.856024L0.399478 0Z" transform="matrix(1 0 0 -1 1596.62 1624.95)"/></g><path d="M1688.06 825.198C1688.06 885.399 1639.24 934.195 1579.06 934.195 1518.85 934.195 1470.04 885.399 1470.04 825.198 1470.04 764.993 1518.85 716.198 1579.06 716.198 1639.24 716.198 1688.06 764.993 1688.06 825.198" fill="#FFFFF0"/><path d="M1688.06 825.198C1688.06 885.399 1639.24 934.195 1579.06 934.195 1518.85 934.195 1470.04 885.399 1470.04 825.198 1470.04 764.993 1518.85 716.198 1579.06 716.198 1639.24 716.198 1688.06 764.993 1688.06 825.198" stroke="#2E3436" stroke-width="4.07624" stroke-miterlimit="10" fill="none"/><g clip-path="url(#clip41)"><path d="M11.1854 13.9817 0 2.73928 2.73928 0 13.9247 11.2425 25.1671 0 27.9064 2.73928 16.6639 13.9817 27.9064 25.1671 25.1671 27.9064 13.9247 16.6639 2.73928 27.9064 0 25.1671 11.1854 13.9817Z" transform="matrix(1 0 0 -1 1562.88 809.253)"/></g><g clip-path="url(#clip42)"><path d="M17.1776 38.1787 16.6639 38.1787 0 0 34.0127 0 17.1776 38.1787M25.909 4.33719 7.47594 4.33719C6.10631 4.33719 5.59269 4.56546 5.59269 5.19321 5.59269 5.59269 5.82096 6.44872 6.22044 7.30474L15.4655 28.6483 25.909 4.33719Z" transform="matrix(1 0 0 -1 1539.66 870.84)"/></g><g clip-path="url(#clip43)"><path d="M3.13876 26.8221C1.42671 26.8221 0 25.3954 0 23.5692 0 21.9142 1.42671 20.4875 3.08169 20.4875 4.8508 20.4875 6.33458 21.8572 6.33458 23.5692 6.33458 25.3383 4.8508 26.8221 3.13876 26.8221M3.13876 6.33458C1.42671 6.33458 0 4.90787 0 3.08169 0 1.42671 1.42671 0 3.08169 0 4.8508 0 6.33458 1.36964 6.33458 3.08169 6.33458 4.8508 4.8508 6.33458 3.13876 6.33458Z" transform="matrix(1 0 0 -1 1579.61 871.468)"/></g><g clip-path="url(#clip44)"><path d="M25.3954 7.81835 24.6535 8.10369C22.542 4.79374 21.9142 4.39426 19.232 4.33719L5.59269 4.33719 15.1802 14.3812C20.2592 19.6886 22.4849 24.0257 22.4849 28.4771 22.4849 34.1839 17.8624 38.5782 11.9273 38.5782 8.78852 38.5782 5.82096 37.3227 3.70944 35.0399 1.88325 33.0996 1.02723 31.2734 0.0570683 27.2216L1.2555 26.9362C3.53823 32.5289 5.53562 34.3551 9.5304 34.3551 14.3812 34.3551 17.577 31.1022 17.577 26.3085 17.577 21.8001 14.9519 16.5498 10.1582 11.4707L0 0.684819 0 0 22.2566 0 25.3954 7.81835Z" transform="matrix(1 0 0 -1 1591.99 870.84)"/></g><path d="M1688.06 1200.21C1688.06 1260.41 1639.24 1309.2 1579.06 1309.2 1518.85 1309.2 1470.04 1260.41 1470.04 1200.21 1470.04 1140 1518.85 1091.2 1579.06 1091.2 1639.24 1091.2 1688.06 1140 1688.06 1200.21" fill="#FFFFF0"/><path d="M1688.06 1200.21C1688.06 1260.41 1639.24 1309.2 1579.06 1309.2 1518.85 1309.2 1470.04 1260.41 1470.04 1200.21 1470.04 1140 1518.85 1091.2 1579.06 1091.2 1639.24 1091.2 1688.06 1140 1688.06 1200.21" stroke="#2E3436" stroke-width="4.07624" stroke-miterlimit="10" fill="none"/><g clip-path="url(#clip45)"><path d="M16.4927 25.6807 9.47333 25.6807 9.47333 32.3006C9.47333 35.6677 10.5576 37.3797 12.7262 37.3797 13.9817 37.3797 14.7236 36.809 15.7508 35.1541 16.6639 33.6703 17.3488 33.0996 18.3189 33.0996 19.6886 33.0996 20.7158 34.1268 20.7158 35.4394 20.7158 37.4939 18.2048 38.9776 14.7807 38.9776 11.1854 38.9776 8.21783 37.4368 6.73406 34.8687 5.25028 32.3006 4.79374 30.2462 4.73667 25.6807L0.0570683 25.6807 0.0570683 23.8545 4.73667 23.8545 4.73667 5.9351C4.62253 1.65498 4.05185 1.02723 0 0.856024L0 0 14.8378 0 14.8378 0.856024C10.1582 1.02723 9.5304 1.65498 9.5304 5.9351L9.5304 23.8545 16.4927 23.8545 16.4927 25.6807Z" transform="matrix(1 0 0 -1 1570.01 1184.72)"/></g><g clip-path="url(#clip46)"><path d="M17.1776 38.1787 16.6639 38.1787 0 0 34.0127 0 17.1776 38.1787M25.909 4.33719 7.47594 4.33719C6.10631 4.33719 5.59269 4.56546 5.59269 5.19321 5.59269 5.59269 5.82096 6.44872 6.22044 7.30474L15.4655 28.6483 25.909 4.33719Z" transform="matrix(1 0 0 -1 1539.66 1245.86)"/></g><g clip-path="url(#clip47)"><path d="M3.13876 26.8221C1.42671 26.8221 0 25.3954 0 23.5692 0 21.9142 1.42671 20.4875 3.08169 20.4875 4.8508 20.4875 6.33458 21.8572 6.33458 23.5692 6.33458 25.3383 4.8508 26.8221 3.13876 26.8221M3.13876 6.33458C1.42671 6.33458 0 4.90787 0 3.08169 0 1.42671 1.42671 0 3.08169 0 4.8508 0 6.33458 1.36964 6.33458 3.08169 6.33458 4.8508 4.8508 6.33458 3.13876 6.33458Z" transform="matrix(1 0 0 -1 1579.61 1246.49)"/></g><g clip-path="url(#clip48)"><path d="M0.399478 0 16.1503 0 16.1503 0.856024C11.7561 0.856024 10.7859 1.48378 10.7288 4.22305L10.7288 38.464 10.2723 38.5782 0 33.3849 0 32.586C2.22566 33.442 3.5953 33.8415 4.10892 33.8415 5.30735 33.8415 5.82096 32.9855 5.82096 31.1593L5.82096 5.30735C5.70683 1.71205 4.73667 0.913092 0.399478 0.856024L0.399478 0Z" transform="matrix(1 0 0 -1 1596.62 1245.86)"/></g><path d="M2018.23 1200.21C2018.23 1260.41 1969.42 1309.2 1909.22 1309.2 1849.03 1309.2 1800.22 1260.41 1800.22 1200.21 1800.22 1140 1849.03 1091.2 1909.22 1091.2 1969.42 1091.2 2018.23 1140 2018.23 1200.21" fill="#FFFFF0"/><path d="M2018.23 1200.21C2018.23 1260.41 1969.42 1309.2 1909.22 1309.2 1849.03 1309.2 1800.22 1260.41 1800.22 1200.21 1800.22 1140 1849.03 1091.2 1909.22 1091.2 1969.42 1091.2 2018.23 1140 2018.23 1200.21" stroke="#2E3436" stroke-width="4.07624" stroke-miterlimit="10" fill="none"/><g clip-path="url(#clip49)"><path d="M25.2242 34.5834 25.2242 36.809 20.8299 36.809C19.6315 36.809 18.8325 36.9802 17.6912 37.3797L16.4357 37.8363C14.9519 38.407 13.354 38.6923 11.8702 38.6923 6.56285 38.6923 2.3398 34.6404 2.3398 29.3902 2.3398 25.7949 3.82357 23.6263 7.64715 21.743L6.16337 20.3734C4.96494 19.232 4.28012 18.6043 4.10892 18.376 2.91048 17.1205 2.56807 16.4927 2.56807 15.5226 2.56807 14.2671 3.19582 13.6393 5.59269 12.498 1.48378 9.5304 0 7.64715 0 5.53562 0 2.511 4.39426 0 9.87281 0 14.1529 0 18.6043 1.48378 21.5718 3.88064 23.7404 5.64976 24.7106 7.47594 24.7106 9.64454 24.7106 13.1828 22.0284 15.5226 17.8053 15.7508L10.4435 16.0933C7.36181 16.2074 5.99217 16.721 5.99217 17.6341 5.99217 18.7755 7.87542 20.7729 9.41627 21.2294 11.4707 21.0582 12.555 20.9441 12.6692 20.9441 14.7807 20.9441 17.0634 21.8001 18.8325 23.3409 20.7158 24.9388 21.5718 26.9362 21.5718 29.7896 21.5718 31.4446 21.2865 32.7572 20.4875 34.5834L25.2242 34.5834M6.79112 12.3267C8.73145 11.9273 13.1828 11.5849 16.0933 11.5849 21.2294 11.5849 23.1127 10.843 23.1127 8.78852 23.1127 5.47855 18.7755 3.25289 12.3267 3.25289 7.24767 3.25289 3.99478 4.90787 3.99478 7.41888 3.99478 8.73145 4.50839 9.58747 6.79112 12.3267M7.07647 31.73C7.07647 35.097 8.67438 37.0944 11.2995 37.0944 13.0686 37.0944 14.5524 36.1242 15.4655 34.4122 16.5498 32.4148 17.1776 29.8467 17.1776 27.564 17.1776 24.3682 15.5796 22.3708 12.9545 22.3708 9.41627 22.3708 7.07647 26.0802 7.07647 31.5588L7.07647 31.73Z" transform="matrix(1 0 0 -1 1896.56 1197.16)"/></g><g clip-path="url(#clip50)"><path d="M17.1776 38.1787 16.6639 38.1787 0 0 34.0127 0 17.1776 38.1787M25.909 4.33719 7.47594 4.33719C6.10631 4.33719 5.59269 4.56546 5.59269 5.19321 5.59269 5.59269 5.82096 6.44872 6.22044 7.30474L15.4655 28.6483 25.909 4.33719Z" transform="matrix(1 0 0 -1 1869.84 1245.86)"/></g><g clip-path="url(#clip51)"><path d="M3.13876 26.8221C1.42671 26.8221 0 25.3954 0 23.5692 0 21.9142 1.42671 20.4875 3.08169 20.4875 4.8508 20.4875 6.33458 21.8572 6.33458 23.5692 6.33458 25.3383 4.8508 26.8221 3.13876 26.8221M3.13876 6.33458C1.42671 6.33458 0 4.90787 0 3.08169 0 1.42671 1.42671 0 3.08169 0 4.8508 0 6.33458 1.36964 6.33458 3.08169 6.33458 4.8508 4.8508 6.33458 3.13876 6.33458Z" transform="matrix(1 0 0 -1 1909.79 1246.49)"/></g><g clip-path="url(#clip52)"><path d="M0.399478 0 16.1503 0 16.1503 0.856024C11.7561 0.856024 10.7859 1.48378 10.7288 4.22305L10.7288 38.464 10.2723 38.5782 0 33.3849 0 32.586C2.22566 33.442 3.5953 33.8415 4.10892 33.8415 5.30735 33.8415 5.82096 32.9855 5.82096 31.1593L5.82096 5.30735C5.70683 1.71205 4.73667 0.913092 0.399478 0.856024L0.399478 0Z" transform="matrix(1 0 0 -1 1926.8 1245.86)"/></g><path d="M940.187 1041.45C884.89 1023.03 827.572 1024.04 755.356 1085.35 683.14 1146.66 586.685 1274.07 506.894 1409.31 427.104 1544.54 293.53 1778.17 276.613 1896.76 259.695 2015.34 302.115 2091.53 405.389 2120.8 508.662 2150.07 817.471 2123.83 896.252 2072.36 975.033 2020.89 855.599 1875.31 878.072 1811.98 900.544 1748.65 994.98 1762.53 1031.09 1692.39 1067.2 1622.25 1085.38 1473.9 1094.72 1391.14 1104.06 1308.38 1112.65 1254.9 1087.14 1195.86 1061.64 1136.82 995.485 1059.87 940.187 1041.45Z" stroke="#4472C4" stroke-width="13.75" stroke-miterlimit="8" stroke-dasharray="55 41.25" fill="none" fill-rule="evenodd"/><path d="M1559.54 672.075C1613.24 670.813 1694.68 685.196 1750.15 735.66 1805.62 786.124 1836.38 903.958 1892.36 974.86 1948.33 1045.76 2070.36 1098.24 2086 1161.07 2101.63 1223.9 2054.48 1319.53 1986.15 1351.83 1917.82 1384.12 1766.29 1365.7 1676.02 1354.85 1585.76 1344 1485.41 1341.99 1444.56 1286.73 1403.72 1231.47 1433.72 1113.89 1430.95 1023.31 1428.17 932.722 1405.23 802.02 1427.92 743.229 1450.61 684.438 1505.83 673.336 1559.54 672.075Z" stroke="#FF0000" stroke-width="13.75" stroke-miterlimit="8" stroke-dasharray="110 41.25 13.75 41.25 13.75 41.25" fill="none" fill-rule="evenodd"/></g></svg>