<svg width="1757" height="1757" xmlns="http://www.w3.org/2000/svg" xmlns:xlink="http://www.w3.org/1999/xlink" overflow="hidden"><defs><clipPath id="clip0"><rect x="2401" y="606" width="1757" height="1757"/></clipPath><clipPath id="clip1"><rect x="3185" y="-15580" width="16393" height="16393"/></clipPath><clipPath id="clip2"><rect x="3171" y="-15545" width="16394" height="16394"/></clipPath><clipPath id="clip3"><rect x="3195" y="-15545" width="16393" height="16394"/></clipPath><clipPath id="clip4"><rect x="3202" y="-15545" width="16394" height="16394"/></clipPath><clipPath id="clip5"><rect x="3015" y="-15315" width="16394" height="16394"/></clipPath><clipPath id="clip6"><rect x="3002" y="-15279" width="16394" height="16394"/></clipPath><clipPath id="clip7"><rect x="3025" y="-15279" width="16394" height="16394"/></clipPath><clipPath id="clip8"><rect x="3032" y="-15278" width="16394" height="16393"/></clipPath><clipPath id="clip9"><rect x="2761" y="-15050" width="16393" height="16393"/></clipPath><clipPath id="clip10"><rect x="2747" y="-15015" width="16394" height="16394"/></clipPath><clipPath id="clip11"><rect x="2770" y="-15015" width="16394" height="16394"/></clipPath><clipPath id="clip12"><rect x="2780" y="-15015" width="16394" height="16394"/></clipPath><clipPath id="clip13"><rect x="2595" y="-14787" width="16394" height="16394"/></clipPath><clipPath id="clip14"><rect x="2578" y="-14751" width="16393" height="16394"/></clipPath><clipPath id="clip15"><rect x="2601" y="-14751" width="16394" height="16394"/></clipPath><clipPath id="clip16"><rect x="2611" y="-14751" width="16393" height="16394"/></clipPath><clipPath id="clip17"><rect x="2763" y="-14779" width="16394" height="16393"/></clipPath><clipPath id="clip18"><rect x="2747" y="-14751" width="16394" height="16394"/></clipPath><clipPath id="clip19"><rect x="2770" y="-14751" width="16394" height="16394"/></clipPath><clipPath id="clip20"><rect x="2780" y="-14751" width="16394" height="16394"/></clipPath><clipPath id="clip21"><rect x="3015" y="-15051" width="16394" height="16394"/></clipPath><clipPath id="clip22"><rect x="3002" y="-15015" width="16394" height="16394"/></clipPath><clipPath id="clip23"><rect x="3025" y="-15015" width="16394" height="16394"/></clipPath><clipPath id="clip24"><rect x="3032" y="-15015" width="16394" height="16394"/></clipPath><clipPath id="clip25"><rect x="2932" y="-14787" width="16394" height="16394"/></clipPath><clipPath id="clip26"><rect x="2917" y="-14751" width="16394" height="16394"/></clipPath><clipPath id="clip27"><rect x="2940" y="-14751" width="16394" height="16394"/></clipPath><clipPath id="clip28"><rect x="2950" y="-14751" width="16394" height="16394"/></clipPath><clipPath id="clip29"><rect x="3105" y="-14787" width="16394" height="16394"/></clipPath><clipPath id="clip30"><rect x="3087" y="-14751" width="16393" height="16394"/></clipPath><clipPath id="clip31"><rect x="3110" y="-14751" width="16393" height="16394"/></clipPath><clipPath id="clip32"><rect x="3120" y="-14751" width="16393" height="16394"/></clipPath><clipPath id="clip33"><rect x="3354" y="-15315" width="16394" height="16394"/></clipPath><clipPath id="clip34"><rect x="3341" y="-15279" width="16394" height="16394"/></clipPath><clipPath id="clip35"><rect x="3364" y="-15279" width="16394" height="16394"/></clipPath><clipPath id="clip36"><rect x="3371" y="-15278" width="16394" height="16393"/></clipPath><clipPath id="clip37"><rect x="3354" y="-15051" width="16394" height="16394"/></clipPath><clipPath id="clip38"><rect x="3341" y="-15015" width="16394" height="16394"/></clipPath><clipPath id="clip39"><rect x="3364" y="-15015" width="16394" height="16394"/></clipPath><clipPath id="clip40"><rect x="3371" y="-15015" width="16394" height="16394"/></clipPath><clipPath id="clip41"><rect x="3271" y="-14787" width="16394" height="16394"/></clipPath><clipPath id="clip42"><rect x="3256" y="-14751" width="16394" height="16394"/></clipPath><clipPath id="clip43"><rect x="3279" y="-14751" width="16394" height="16394"/></clipPath><clipPath id="clip44"><rect x="3289" y="-14751" width="16394" height="16394"/></clipPath><clipPath id="clip45"><rect x="3444" y="-14787" width="16394" height="16394"/></clipPath><clipPath id="clip46"><rect x="3426" y="-14751" width="16394" height="16394"/></clipPath><clipPath id="clip47"><rect x="3449" y="-14751" width="16394" height="16394"/></clipPath><clipPath id="clip48"><rect x="3459" y="-14751" width="16394" height="16394"/></clipPath><clipPath id="clip49"><rect x="3609" y="-15051" width="16394" height="16394"/></clipPath><clipPath id="clip50"><rect x="3595" y="-15015" width="16394" height="16394"/></clipPath><clipPath id="clip51"><rect x="3619" y="-15015" width="16393" height="16394"/></clipPath><clipPath id="clip52"><rect x="3625" y="-15015" width="16394" height="16394"/></clipPath><clipPath id="clip53"><rect x="3609" y="-14787" width="16394" height="16394"/></clipPath><clipPath id="clip54"><rect x="3595" y="-14751" width="16394" height="16394"/></clipPath><clipPath id="clip55"><rect x="3619" y="-14751" width="16393" height="16394"/></clipPath><clipPath id="clip56"><rect x="3626" y="-14751" width="16394" height="16394"/></clipPath><clipPath id="clip57"><rect x="3439" y="-14521" width="16394" height="16394"/></clipPath><clipPath id="clip58"><rect x="3426" y="-14485" width="16394" height="16394"/></clipPath><clipPath id="clip59"><rect x="3449" y="-14485" width="16394" height="16394"/></clipPath><clipPath id="clip60"><rect x="3456" y="-14485" width="16394" height="16394"/></clipPath><clipPath id="clip61"><rect x="3357" y="-14256" width="16394" height="16394"/></clipPath><clipPath id="clip62"><rect x="3341" y="-14221" width="16394" height="16394"/></clipPath><clipPath id="clip63"><rect x="3364" y="-14221" width="16394" height="16394"/></clipPath><clipPath id="clip64"><rect x="3374" y="-14221" width="16394" height="16394"/></clipPath><clipPath id="clip65"><rect x="3525" y="-14256" width="16394" height="16394"/></clipPath><clipPath id="clip66"><rect x="3511" y="-14221" width="16393" height="16394"/></clipPath><clipPath id="clip67"><rect x="3534" y="-14221" width="16394" height="16394"/></clipPath><clipPath id="clip68"><rect x="3544" y="-14221" width="16393" height="16394"/></clipPath><clipPath id="clip69"><rect x="3611" y="-14520" width="16394" height="16394"/></clipPath><clipPath id="clip70"><rect x="3595" y="-14485" width="16394" height="16394"/></clipPath><clipPath id="clip71"><rect x="3619" y="-14485" width="16393" height="16394"/></clipPath><clipPath id="clip72"><rect x="3628" y="-14485" width="16394" height="16394"/></clipPath><clipPath id="clip73"><rect x="3779" y="-14787" width="16393" height="16394"/></clipPath><clipPath id="clip74"><rect x="3765" y="-14751" width="16394" height="16394"/></clipPath><clipPath id="clip75"><rect x="3788" y="-14751" width="16394" height="16394"/></clipPath><clipPath id="clip76"><rect x="3795" y="-14751" width="16394" height="16394"/></clipPath><clipPath id="clip77"><rect x="3781" y="-14520" width="16393" height="16394"/></clipPath><clipPath id="clip78"><rect x="3765" y="-14485" width="16394" height="16394"/></clipPath><clipPath id="clip79"><rect x="3788" y="-14485" width="16394" height="16394"/></clipPath><clipPath id="clip80"><rect x="3798" y="-14485" width="16394" height="16394"/></clipPath><clipPath id="clip81"><rect x="3950" y="-14520" width="16394" height="16394"/></clipPath><clipPath id="clip82"><rect x="3935" y="-14485" width="16394" height="16394"/></clipPath><clipPath id="clip83"><rect x="3958" y="-14485" width="16394" height="16394"/></clipPath><clipPath id="clip84"><rect x="3968" y="-14485" width="16393" height="16394"/></clipPath></defs><g clip-path="url(#clip0)" transform="translate(-2401 -606)"><path d="M3161.18 875.754C3131.43 921.599 3088.23 988.231 3058.51 1034.04" stroke="#2E3436" stroke-width="2.35592" stroke-miterlimit="10" fill="none"/><path d="M3228.2 875.754C3257.94 921.599 3301.15 988.231 3330.87 1034.04" stroke="#2E3436" stroke-width="2.35592" stroke-miterlimit="10" fill="none"/><path d="M2981.89 1134.28C2935.11 1181.92 2860.87 1257.54 2814 1305.28" stroke="#2E3436" stroke-width="2.35592" stroke-miterlimit="10" fill="none"/><path d="M3025.06 1151.73C3025.06 1193.04 3025.06 1247.27 3025.06 1288.49" stroke="#2E3436" stroke-width="2.35592" stroke-miterlimit="10" fill="none"/><path d="M2736.71 1405.99C2707.11 1451.19 2664.43 1516.43 2634.85 1561.6" stroke="#2E3436" stroke-width="2.35592" stroke-miterlimit="10" fill="none"/><path d="M2770.62 1415.59C2770.62 1456.89 2770.62 1511.14 2770.62 1552.34" stroke="#2E3436" stroke-width="2.35592" stroke-miterlimit="10" fill="none"/><path d="M3006.03 1412.33C2992.15 1454.71 2973.43 1511.93 2959.51 1554.47" stroke="#2E3436" stroke-width="2.35592" stroke-miterlimit="10" fill="none"/><path d="M3044.09 1412.33C3057.97 1454.71 3076.68 1511.93 3090.61 1554.47" stroke="#2E3436" stroke-width="2.35592" stroke-miterlimit="10" fill="none"/><path d="M3364.32 1151.73C3364.32 1193.04 3364.32 1247.27 3364.32 1288.49" stroke="#2E3436" stroke-width="2.35592" stroke-miterlimit="10" fill="none"/><path d="M3407.47 1134.28C3454.26 1181.92 3528.51 1257.54 3575.38 1305.28" stroke="#2E3436" stroke-width="2.35592" stroke-miterlimit="10" fill="none"/><path d="M3345.27 1412.33C3331.41 1454.71 3312.69 1511.93 3298.76 1554.47" stroke="#2E3436" stroke-width="2.35592" stroke-miterlimit="10" fill="none"/><path d="M3383.35 1412.33C3397.21 1454.71 3415.94 1511.93 3429.86 1554.47" stroke="#2E3436" stroke-width="2.35592" stroke-miterlimit="10" fill="none"/><path d="M3618.76 1415.59C3618.76 1456.89 3618.76 1511.14 3618.76 1552.34" stroke="#2E3436" stroke-width="2.35592" stroke-miterlimit="10" fill="none"/><path d="M3652.67 1405.99C3682.25 1451.19 3724.95 1516.43 3754.52 1561.6" stroke="#2E3436" stroke-width="2.35592" stroke-miterlimit="10" fill="none"/><path d="M3585.24 1669.7C3555.51 1715.54 3512.29 1782.18 3482.57 1827.98" stroke="#2E3436" stroke-width="2.35592" stroke-miterlimit="10" fill="none"/><path d="M3618.76 1679.35C3618.76 1721.01 3618.76 1775.94 3618.76 1817.71" stroke="#2E3436" stroke-width="2.35592" stroke-miterlimit="10" fill="none"/><path d="M3430.09 1942.42C3416.23 1984.8 3397.5 2042 3383.58 2084.55" stroke="#2E3436" stroke-width="2.35592" stroke-miterlimit="10" fill="none"/><path d="M3468.16 1942.42C3482.03 1984.8 3500.75 2042 3514.67 2084.55" stroke="#2E3436" stroke-width="2.35592" stroke-miterlimit="10" fill="none"/><path d="M3788.38 1679.35C3788.38 1721.01 3788.38 1775.94 3788.38 1817.71" stroke="#2E3436" stroke-width="2.35592" stroke-miterlimit="10" fill="none"/><path d="M3821.89 1669.7C3851.62 1715.54 3894.85 1782.18 3924.57 1827.98" stroke="#2E3436" stroke-width="2.35592" stroke-miterlimit="10" fill="none"/><path d="M3257.68 821.729C3257.68 856.53 3229.48 884.744 3194.68 884.744 3159.9 884.744 3131.69 856.53 3131.69 821.729 3131.69 786.946 3159.9 758.732 3194.68 758.732 3229.48 758.732 3257.68 786.946 3257.68 821.729" fill="#EE7621"/><path d="M3257.68 821.729C3257.68 856.53 3229.48 884.744 3194.68 884.744 3159.9 884.744 3131.69 856.53 3131.69 821.729 3131.69 786.946 3159.9 758.732 3194.68 758.732 3229.48 758.732 3257.68 786.946 3257.68 821.729" stroke="#2E3436" stroke-width="2.35592" stroke-miterlimit="10" fill="none"/><g clip-path="url(#clip1)"><path d="M7.22338 9.43327 0 9.43327 0 7.25636 7.22338 7.25636 7.22338 0 9.40029 0 9.40029 7.25636 16.6237 7.25636 16.6237 9.43327 9.40029 9.43327 9.40029 16.6896 7.22338 16.6896 7.22338 9.43327Z" transform="matrix(1 0 0 -1 3185.08 812.787)"/></g><g clip-path="url(#clip2)"><path d="M9.92802 22.0659 9.63117 22.0659 0 0 19.6581 0 9.92802 22.0659M14.9745 2.50674 4.32083 2.50674C3.52923 2.50674 3.23238 2.63868 3.23238 3.00149 3.23238 3.23238 3.36431 3.72713 3.5952 4.22188L8.93852 16.5577 14.9745 2.50674Z" transform="matrix(1 0 0 -1 3171.92 848.126)"/></g><g clip-path="url(#clip3)"><path d="M1.81409 15.5022C0.824587 15.5022 0 14.6776 0 13.6222 0 12.6656 0.824587 11.8411 1.78111 11.8411 2.80359 11.8411 3.66116 12.6327 3.66116 13.6222 3.66116 14.6447 2.80359 15.5022 1.81409 15.5022M1.81409 3.66116C0.824587 3.66116 0 2.83658 0 1.78111 0 0.824586 0.824587 0 1.78111 0 2.80359 0 3.66116 0.791603 3.66116 1.78111 3.66116 2.80359 2.80359 3.66116 1.81409 3.66116Z" transform="matrix(1 0 0 -1 3195 848.489)"/></g><g clip-path="url(#clip4)"><path d="M4.91454 19.6911 11.3793 19.6911C11.94 19.6911 12.039 19.7241 12.1379 19.988L13.3913 22.9235 13.0944 23.1544C12.5997 22.4947 12.3028 22.2968 11.5772 22.2968L4.68365 22.2968 1.08845 14.4797C1.05547 14.4138 1.05547 14.3808 1.05547 14.3148 1.05547 14.1169 1.1874 14.051 1.45127 14.051 2.50674 14.051 3.7931 13.8201 5.1784 13.3913 8.9715 12.1709 10.6866 10.1589 10.6866 6.86056 10.6866 3.69415 8.70763 1.22039 6.10194 1.22039 5.44227 1.22039 4.91454 1.45127 3.92503 2.17691 2.86956 2.96851 2.14392 3.26536 1.38531 3.26536 0.461768 3.26536 0 2.86956 0 2.04497 0 0.791603 1.51724 0 4.02398 0 6.76161 0 9.13642 0.890553 10.8186 2.57271 12.3028 4.05697 12.9955 5.93702 12.9955 8.44376 12.9955 10.8186 12.3688 12.3358 10.7526 13.985 9.30133 15.4363 7.42128 16.1949 3.52923 16.8875L4.91454 19.6911Z" transform="matrix(1 0 0 -1 3202.23 848.587)"/></g><path d="M3088.06 1087.96C3088.06 1122.75 3059.85 1150.96 3025.06 1150.96 2990.26 1150.96 2962.06 1122.75 2962.06 1087.96 2962.06 1053.16 2990.26 1024.96 3025.06 1024.96 3059.85 1024.96 3088.06 1053.16 3088.06 1087.96" fill="#FFFFF0"/><path d="M3088.06 1087.96C3088.06 1122.75 3059.85 1150.96 3025.06 1150.96 2990.26 1150.96 2962.06 1122.75 2962.06 1087.96 2962.06 1053.16 2990.26 1024.96 3025.06 1024.96 3059.85 1024.96 3088.06 1053.16 3088.06 1087.96" stroke="#2E3436" stroke-width="2.35592" stroke-miterlimit="10" fill="none"/><g clip-path="url(#clip5)"><path d="M6.46476 8.08095 0 1.58321 1.58321 0 8.04796 6.49774 14.5457 0 16.1289 1.58321 9.63117 8.08095 16.1289 14.5457 14.5457 16.1289 8.04796 9.63117 1.58321 16.1289 0 14.5457 6.46476 8.08095Z" transform="matrix(1 0 0 -1 3015.71 1078.74)"/></g><g clip-path="url(#clip6)"><path d="M9.92802 22.0659 9.63117 22.0659 0 0 19.6581 0 9.92802 22.0659M14.9745 2.50674 4.32083 2.50674C3.52923 2.50674 3.23238 2.63868 3.23238 3.00149 3.23238 3.23238 3.36431 3.72713 3.5952 4.22188L8.93852 16.5577 14.9745 2.50674Z" transform="matrix(1 0 0 -1 3002.29 1114.34)"/></g><g clip-path="url(#clip7)"><path d="M1.81409 15.5022C0.824587 15.5022 0 14.6776 0 13.6222 0 12.6656 0.824587 11.8411 1.78111 11.8411 2.80359 11.8411 3.66116 12.6327 3.66116 13.6222 3.66116 14.6447 2.80359 15.5022 1.81409 15.5022M1.81409 3.66116C0.824587 3.66116 0 2.83658 0 1.78111 0 0.824586 0.824587 0 1.78111 0 2.80359 0 3.66116 0.791603 3.66116 1.78111 3.66116 2.80359 2.80359 3.66116 1.81409 3.66116Z" transform="matrix(1 0 0 -1 3025.38 1114.71)"/></g><g clip-path="url(#clip8)"><path d="M3.62818 11.3463C5.5742 11.3463 6.33282 11.2803 7.09144 10.9835 9.1694 10.2249 10.4228 8.3778 10.4228 6.10194 10.4228 3.29835 8.5757 1.1874 6.13492 1.1874 5.21139 1.1874 4.55172 1.41829 3.33133 2.20989 2.37481 2.80359 1.81409 3.03448 1.25337 3.03448 0.494752 3.03448 0 2.57271 0 1.88006 0 0.725636 1.41829 0 3.72713 0 6.23387 0 8.83957 0.85757 10.4228 2.20989 11.973 3.56221 12.7976 5.47525 12.7976 7.68515 12.7976 9.40029 12.2698 10.9175 11.3463 11.94 10.6537 12.6656 10.027 13.0614 8.60868 13.6881 10.8516 15.2384 11.6761 16.4587 11.6761 18.2399 11.6761 20.9445 9.59819 22.7586 6.53072 22.7586 4.88155 22.7586 3.43028 22.1979 2.24288 21.1424 1.25337 20.2189 0.758619 19.3943 0.0659669 17.4153L0.560719 17.2833C1.88006 19.7241 3.36431 20.7796 5.44227 20.7796 7.61918 20.7796 9.07045 19.3613 9.07045 17.2503 9.07045 16.0629 8.5757 14.9085 7.75111 14.051 6.76161 13.0614 5.83807 12.5667 3.5952 11.7751L3.62818 11.3463Z" transform="matrix(1 0 0 -1 3032.97 1114.81)"/></g><path d="M2833.62 1351.82C2833.62 1386.62 2805.41 1414.82 2770.62 1414.82 2735.82 1414.82 2707.62 1386.62 2707.62 1351.82 2707.62 1317.02 2735.82 1288.82 2770.62 1288.82 2805.41 1288.82 2833.62 1317.02 2833.62 1351.82" fill="#FFFFF0"/><path d="M2833.62 1351.82C2833.62 1386.62 2805.41 1414.82 2770.62 1414.82 2735.82 1414.82 2707.62 1386.62 2707.62 1351.82 2707.62 1317.02 2735.82 1288.82 2770.62 1288.82 2805.41 1288.82 2833.62 1317.02 2833.62 1351.82" stroke="#2E3436" stroke-width="2.35592" stroke-miterlimit="10" fill="none"/><g clip-path="url(#clip9)"><path d="M7.22338 9.43327 0 9.43327 0 7.25636 7.22338 7.25636 7.22338 0 9.40029 0 9.40029 7.25636 16.6237 7.25636 16.6237 9.43327 9.40029 9.43327 9.40029 16.6896 7.22338 16.6896 7.22338 9.43327Z" transform="matrix(1 0 0 -1 2761.01 1342.86)"/></g><g clip-path="url(#clip10)"><path d="M9.92802 22.0659 9.63117 22.0659 0 0 19.6581 0 9.92802 22.0659M14.9745 2.50674 4.32083 2.50674C3.52923 2.50674 3.23238 2.63868 3.23238 3.00149 3.23238 3.23238 3.36431 3.72713 3.5952 4.22188L8.93852 16.5577 14.9745 2.50674Z" transform="matrix(1 0 0 -1 2747.86 1378.2)"/></g><g clip-path="url(#clip11)"><path d="M1.81409 15.5022C0.824587 15.5022 0 14.6776 0 13.6222 0 12.6656 0.824587 11.8411 1.78111 11.8411 2.80359 11.8411 3.66116 12.6327 3.66116 13.6222 3.66116 14.6447 2.80359 15.5022 1.81409 15.5022M1.81409 3.66116C0.824587 3.66116 0 2.83658 0 1.78111 0 0.824586 0.824587 0 1.78111 0 2.80359 0 3.66116 0.791603 3.66116 1.78111 3.66116 2.80359 2.80359 3.66116 1.81409 3.66116Z" transform="matrix(1 0 0 -1 2770.94 1378.56)"/></g><g clip-path="url(#clip12)"><path d="M0.230884 0 9.33432 0 9.33432 0.494752C6.79459 0.494752 6.23387 0.85757 6.20089 2.44078L6.20089 22.2309 5.93702 22.2968 0 19.2953 0 18.8336C1.28635 19.3283 2.07796 19.5592 2.37481 19.5592 3.06746 19.5592 3.36431 19.0644 3.36431 18.009L3.36431 3.06746C3.29835 0.989504 2.73763 0.527735 0.230884 0.494752L0.230884 0Z" transform="matrix(1 0 0 -1 2780.77 1378.2)"/></g><path d="M2664 1615.69C2664 1650.47 2635.79 1678.69 2601 1678.69 2566.2 1678.69 2537.99 1650.47 2537.99 1615.69 2537.99 1580.89 2566.2 1552.68 2601 1552.68 2635.79 1552.68 2664 1580.89 2664 1615.69" fill="#FFFFF0"/><path d="M2664 1615.69C2664 1650.47 2635.79 1678.69 2601 1678.69 2566.2 1678.69 2537.99 1650.47 2537.99 1615.69 2537.99 1580.89 2566.2 1552.68 2601 1552.68 2635.79 1552.68 2664 1580.89 2664 1615.69" stroke="#2E3436" stroke-width="2.35592" stroke-miterlimit="10" fill="none"/><g clip-path="url(#clip13)"><path d="M9.53222 14.8426 5.47525 14.8426 5.47525 18.6686C5.47525 20.6147 6.10194 21.6042 7.35531 21.6042 8.08095 21.6042 8.50973 21.2743 9.10343 20.3178 9.63117 19.4602 10.027 19.1304 10.5877 19.1304 11.3793 19.1304 11.973 19.7241 11.973 20.4827 11.973 21.6701 10.5217 22.5277 8.54272 22.5277 6.46476 22.5277 4.74962 21.6371 3.89205 20.1529 3.03448 18.6686 2.77061 17.4812 2.73763 14.8426L0.0329835 14.8426 0.0329835 13.7871 2.73763 13.7871 2.73763 3.43028C2.67166 0.95652 2.34183 0.593702 0 0.494752L0 0 8.5757 0 8.5757 0.494752C5.87106 0.593702 5.50824 0.95652 5.50824 3.43028L5.50824 13.7871 9.53222 13.7871 9.53222 14.8426Z" transform="matrix(1 0 0 -1 2595.76 1606.73)"/></g><g clip-path="url(#clip14)"><path d="M9.92802 22.0659 9.63117 22.0659 0 0 19.6581 0 9.92802 22.0659M14.9745 2.50674 4.32083 2.50674C3.52923 2.50674 3.23238 2.63868 3.23238 3.00149 3.23238 3.23238 3.36431 3.72713 3.5952 4.22188L8.93852 16.5577 14.9745 2.50674Z" transform="matrix(1 0 0 -1 2578.22 1642.07)"/></g><g clip-path="url(#clip15)"><path d="M1.81409 15.5022C0.824587 15.5022 0 14.6776 0 13.6222 0 12.6656 0.824587 11.8411 1.78111 11.8411 2.80359 11.8411 3.66116 12.6327 3.66116 13.6222 3.66116 14.6447 2.80359 15.5022 1.81409 15.5022M1.81409 3.66116C0.824587 3.66116 0 2.83658 0 1.78111 0 0.824586 0.824587 0 1.78111 0 2.80359 0 3.66116 0.791603 3.66116 1.78111 3.66116 2.80359 2.80359 3.66116 1.81409 3.66116Z" transform="matrix(1 0 0 -1 2601.31 1642.43)"/></g><g clip-path="url(#clip16)"><path d="M0.230884 0 9.33432 0 9.33432 0.494752C6.79459 0.494752 6.23387 0.85757 6.20089 2.44078L6.20089 22.2309 5.93702 22.2968 0 19.2953 0 18.8336C1.28635 19.3283 2.07796 19.5592 2.37481 19.5592 3.06746 19.5592 3.36431 19.0644 3.36431 18.009L3.36431 3.06746C3.29835 0.989504 2.73763 0.527735 0.230884 0.494752L0.230884 0Z" transform="matrix(1 0 0 -1 2611.14 1642.07)"/></g><path d="M2833.62 1615.69C2833.62 1650.47 2805.41 1678.69 2770.62 1678.69 2735.82 1678.69 2707.62 1650.47 2707.62 1615.69 2707.62 1580.89 2735.82 1552.68 2770.62 1552.68 2805.41 1552.68 2833.62 1580.89 2833.62 1615.69" fill="#FFFFF0"/><path d="M2833.62 1615.69C2833.62 1650.47 2805.41 1678.69 2770.62 1678.69 2735.82 1678.69 2707.62 1650.47 2707.62 1615.69 2707.62 1580.89 2735.82 1552.68 2770.62 1552.68 2805.41 1552.68 2833.62 1580.89 2833.62 1615.69" stroke="#2E3436" stroke-width="2.35592" stroke-miterlimit="10" fill="none"/><g clip-path="url(#clip17)"><path d="M14.5787 19.988 14.5787 21.2743 12.039 21.2743C11.3463 21.2743 10.8845 21.3733 10.2249 21.6042L9.49924 21.868C8.64167 22.1979 7.71813 22.3628 6.86056 22.3628 3.7931 22.3628 1.35232 20.021 1.35232 16.9865 1.35232 14.9085 2.20989 13.6552 4.41978 12.5667L3.56221 11.7751C2.86956 11.1154 2.47376 10.7526 2.37481 10.6207 1.68216 9.89504 1.48426 9.53222 1.48426 8.9715 1.48426 8.24586 1.84707 7.88305 3.23238 7.22338 0.85757 5.50824 0 4.41978 0 3.1994 0 1.45127 2.53973 0 5.70614 0 8.1799 0 10.7526 0.85757 12.4677 2.24288 13.7211 3.26536 14.2818 4.32083 14.2818 5.5742 14.2818 7.61918 12.7316 8.9715 10.2908 9.10343L6.03597 9.30133C4.25487 9.3673 3.46326 9.66415 3.46326 10.1919 3.46326 10.8516 4.55172 12.006 5.44227 12.2698 6.62968 12.1709 7.25636 12.1049 7.32233 12.1049 8.54272 12.1049 9.86205 12.5997 10.8845 13.4902 11.973 14.4138 12.4677 15.5682 12.4677 17.2174 12.4677 18.1739 12.3028 18.9325 11.8411 19.988L14.5787 19.988M3.92503 7.12443C5.04647 6.89354 7.61918 6.69564 9.30133 6.69564 12.2698 6.69564 13.3583 6.26686 13.3583 5.07945 13.3583 3.16641 10.8516 1.88006 7.12443 1.88006 4.1889 1.88006 2.30884 2.83658 2.30884 4.28785 2.30884 5.04647 2.60569 5.54122 3.92503 7.12443M4.08995 18.3388C4.08995 20.2848 5.01349 21.4392 6.53072 21.4392 7.55321 21.4392 8.41078 20.8785 8.93852 19.889 9.5652 18.7346 9.92802 17.2503 9.92802 15.931 9.92802 14.0839 9.00448 12.9295 7.48725 12.9295 5.44227 12.9295 4.08995 15.0734 4.08995 18.2399L4.08995 18.3388Z" transform="matrix(1 0 0 -1 2763.3 1613.92)"/></g><g clip-path="url(#clip18)"><path d="M9.92802 22.0659 9.63117 22.0659 0 0 19.6581 0 9.92802 22.0659M14.9745 2.50674 4.32083 2.50674C3.52923 2.50674 3.23238 2.63868 3.23238 3.00149 3.23238 3.23238 3.36431 3.72713 3.5952 4.22188L8.93852 16.5577 14.9745 2.50674Z" transform="matrix(1 0 0 -1 2747.86 1642.07)"/></g><g clip-path="url(#clip19)"><path d="M1.81409 15.5022C0.824587 15.5022 0 14.6776 0 13.6222 0 12.6656 0.824587 11.8411 1.78111 11.8411 2.80359 11.8411 3.66116 12.6327 3.66116 13.6222 3.66116 14.6447 2.80359 15.5022 1.81409 15.5022M1.81409 3.66116C0.824587 3.66116 0 2.83658 0 1.78111 0 0.824586 0.824587 0 1.78111 0 2.80359 0 3.66116 0.791603 3.66116 1.78111 3.66116 2.80359 2.80359 3.66116 1.81409 3.66116Z" transform="matrix(1 0 0 -1 2770.94 1642.43)"/></g><g clip-path="url(#clip20)"><path d="M0.230884 0 9.33432 0 9.33432 0.494752C6.79459 0.494752 6.23387 0.85757 6.20089 2.44078L6.20089 22.2309 5.93702 22.2968 0 19.2953 0 18.8336C1.28635 19.3283 2.07796 19.5592 2.37481 19.5592 3.06746 19.5592 3.36431 19.0644 3.36431 18.009L3.36431 3.06746C3.29835 0.989504 2.73763 0.527735 0.230884 0.494752L0.230884 0Z" transform="matrix(1 0 0 -1 2780.77 1642.07)"/></g><path d="M3088.06 1351.82C3088.06 1386.62 3059.85 1414.82 3025.06 1414.82 2990.26 1414.82 2962.06 1386.62 2962.06 1351.82 2962.06 1317.02 2990.26 1288.82 3025.06 1288.82 3059.85 1288.82 3088.06 1317.02 3088.06 1351.82" fill="#FFFFF0"/><path d="M3088.06 1351.82C3088.06 1386.62 3059.85 1414.82 3025.06 1414.82 2990.26 1414.82 2962.06 1386.62 2962.06 1351.82 2962.06 1317.02 2990.26 1288.82 3025.06 1288.82 3059.85 1288.82 3088.06 1317.02 3088.06 1351.82" stroke="#2E3436" stroke-width="2.35592" stroke-miterlimit="10" fill="none"/><g clip-path="url(#clip21)"><path d="M6.46476 8.08095 0 1.58321 1.58321 0 8.04796 6.49774 14.5457 0 16.1289 1.58321 9.63117 8.08095 16.1289 14.5457 14.5457 16.1289 8.04796 9.63117 1.58321 16.1289 0 14.5457 6.46476 8.08095Z" transform="matrix(1 0 0 -1 3015.71 1342.6)"/></g><g clip-path="url(#clip22)"><path d="M9.92802 22.0659 9.63117 22.0659 0 0 19.6581 0 9.92802 22.0659M14.9745 2.50674 4.32083 2.50674C3.52923 2.50674 3.23238 2.63868 3.23238 3.00149 3.23238 3.23238 3.36431 3.72713 3.5952 4.22188L8.93852 16.5577 14.9745 2.50674Z" transform="matrix(1 0 0 -1 3002.29 1378.2)"/></g><g clip-path="url(#clip23)"><path d="M1.81409 15.5022C0.824587 15.5022 0 14.6776 0 13.6222 0 12.6656 0.824587 11.8411 1.78111 11.8411 2.80359 11.8411 3.66116 12.6327 3.66116 13.6222 3.66116 14.6447 2.80359 15.5022 1.81409 15.5022M1.81409 3.66116C0.824587 3.66116 0 2.83658 0 1.78111 0 0.824586 0.824587 0 1.78111 0 2.80359 0 3.66116 0.791603 3.66116 1.78111 3.66116 2.80359 2.80359 3.66116 1.81409 3.66116Z" transform="matrix(1 0 0 -1 3025.38 1378.56)"/></g><g clip-path="url(#clip24)"><path d="M14.6776 4.51873 14.2489 4.68365C13.0285 2.77061 12.6656 2.53973 11.1154 2.50674L3.23238 2.50674 8.7736 8.31183C11.7091 11.3793 12.9955 13.886 12.9955 16.4587 12.9955 19.7571 10.3238 22.2968 6.89354 22.2968 5.07945 22.2968 3.36431 21.5712 2.14392 20.2518 1.08845 19.1304 0.593702 18.0749 0.0329835 15.7331L0.725636 15.5682C2.04497 18.8006 3.1994 19.856 5.50824 19.856 8.31183 19.856 10.1589 17.976 10.1589 15.2054 10.1589 12.5997 8.64167 9.5652 5.87106 6.62967L0 0.395801 0 0 12.8635 0 14.6776 4.51873Z" transform="matrix(1 0 0 -1 3032.54 1378.2)"/></g><path d="M3003.24 1615.69C3003.24 1650.47 2975.04 1678.69 2940.24 1678.69 2905.46 1678.69 2877.25 1650.47 2877.25 1615.69 2877.25 1580.89 2905.46 1552.68 2940.24 1552.68 2975.04 1552.68 3003.24 1580.89 3003.24 1615.69" fill="#FFFFF0"/><path d="M3003.24 1615.69C3003.24 1650.47 2975.04 1678.69 2940.24 1678.69 2905.46 1678.69 2877.25 1650.47 2877.25 1615.69 2877.25 1580.89 2905.46 1552.68 2940.24 1552.68 2975.04 1552.68 3003.24 1580.89 3003.24 1615.69" stroke="#2E3436" stroke-width="2.35592" stroke-miterlimit="10" fill="none"/><g clip-path="url(#clip25)"><path d="M15.7661 0.494752C13.985 0.791603 13.8201 1.02249 13.7871 3.36431L13.7871 9.92802C13.7871 13.3913 12.4348 15.1724 9.73012 15.1724 7.7841 15.1724 6.39879 14.3808 4.88155 12.4018L4.88155 22.4288 4.71663 22.5277C3.56221 22.1319 2.73763 21.868 0.923537 21.3403L0.0329835 21.0764 0.0329835 20.5487C0.164917 20.5817 0.230884 20.5817 0.428785 20.5817 1.84707 20.5817 2.11094 20.3178 2.11094 18.8995L2.11094 3.36431C2.04497 0.989504 1.88006 0.725636 0 0.494752L0 0 7.12443 0 7.12443 0.494752C5.21139 0.659669 4.94752 1.02249 4.88155 3.36431L4.88155 11.3133C6.26686 12.8306 7.25636 13.3913 8.5757 13.3913 10.1919 13.3913 11.0165 12.2039 11.0165 9.89504L11.0165 3.36431C10.9505 1.02249 10.6537 0.659669 8.7736 0.494752L8.7736 0 15.7661 0 15.7661 0.494752Z" transform="matrix(1 0 0 -1 2932.3 1606.73)"/></g><g clip-path="url(#clip26)"><path d="M9.92802 22.0659 9.63117 22.0659 0 0 19.6581 0 9.92802 22.0659M14.9745 2.50674 4.32083 2.50674C3.52923 2.50674 3.23238 2.63868 3.23238 3.00149 3.23238 3.23238 3.36431 3.72713 3.5952 4.22188L8.93852 16.5577 14.9745 2.50674Z" transform="matrix(1 0 0 -1 2917.48 1642.07)"/></g><g clip-path="url(#clip27)"><path d="M1.81409 15.5022C0.824587 15.5022 0 14.6776 0 13.6222 0 12.6656 0.824587 11.8411 1.78111 11.8411 2.80359 11.8411 3.66116 12.6327 3.66116 13.6222 3.66116 14.6447 2.80359 15.5022 1.81409 15.5022M1.81409 3.66116C0.824587 3.66116 0 2.83658 0 1.78111 0 0.824586 0.824587 0 1.78111 0 2.80359 0 3.66116 0.791603 3.66116 1.78111 3.66116 2.80359 2.80359 3.66116 1.81409 3.66116Z" transform="matrix(1 0 0 -1 2940.57 1642.43)"/></g><g clip-path="url(#clip28)"><path d="M0.230884 0 9.33432 0 9.33432 0.494752C6.79459 0.494752 6.23387 0.85757 6.20089 2.44078L6.20089 22.2309 5.93702 22.2968 0 19.2953 0 18.8336C1.28635 19.3283 2.07796 19.5592 2.37481 19.5592 3.06746 19.5592 3.36431 19.0644 3.36431 18.009L3.36431 3.06746C3.29835 0.989504 2.73763 0.527735 0.230884 0.494752L0.230884 0Z" transform="matrix(1 0 0 -1 2950.39 1642.07)"/></g><path d="M3172.88 1615.69C3172.88 1650.47 3144.66 1678.69 3109.88 1678.69 3075.08 1678.69 3046.88 1650.47 3046.88 1615.69 3046.88 1580.89 3075.08 1552.68 3109.88 1552.68 3144.66 1552.68 3172.88 1580.89 3172.88 1615.69" fill="#FFFFF0"/><path d="M3172.88 1615.69C3172.88 1650.47 3144.66 1678.69 3109.88 1678.69 3075.08 1678.69 3046.88 1650.47 3046.88 1615.69 3046.88 1580.89 3075.08 1552.68 3109.88 1552.68 3144.66 1552.68 3172.88 1580.89 3172.88 1615.69" stroke="#2E3436" stroke-width="2.35592" stroke-miterlimit="10" fill="none"/><g clip-path="url(#clip29)"><path d="M0 0 7.81708 0 7.81708 0.494752C5.64017 0.659669 5.40929 0.95652 5.3763 3.36431L5.3763 15.0734 5.24437 15.1724 0.131934 13.3583 0.131934 12.8635 0.395801 12.8965C0.791603 12.9625 1.1874 12.9955 1.51724 12.9955 2.30884 12.9955 2.60569 12.4677 2.60569 11.0165L2.60569 3.36431C2.53973 0.923537 2.24288 0.593702 0 0.494752L0 0M3.69415 22.5277C2.80359 22.5277 2.04497 21.7691 2.04497 20.8455 2.04497 19.889 2.77061 19.1634 3.69415 19.1634 4.68365 19.1634 5.40929 19.889 5.40929 20.8455 5.40929 21.8021 4.65067 22.5277 3.69415 22.5277Z" transform="matrix(1 0 0 -1 3105.68 1606.73)"/></g><g clip-path="url(#clip30)"><path d="M9.92802 22.0659 9.63117 22.0659 0 0 19.6581 0 9.92802 22.0659M14.9745 2.50674 4.32083 2.50674C3.52923 2.50674 3.23238 2.63868 3.23238 3.00149 3.23238 3.23238 3.36431 3.72713 3.5952 4.22188L8.93852 16.5577 14.9745 2.50674Z" transform="matrix(1 0 0 -1 3087.11 1642.07)"/></g><g clip-path="url(#clip31)"><path d="M1.81409 15.5022C0.824587 15.5022 0 14.6776 0 13.6222 0 12.6656 0.824587 11.8411 1.78111 11.8411 2.80359 11.8411 3.66116 12.6327 3.66116 13.6222 3.66116 14.6447 2.80359 15.5022 1.81409 15.5022M1.81409 3.66116C0.824587 3.66116 0 2.83658 0 1.78111 0 0.824586 0.824587 0 1.78111 0 2.80359 0 3.66116 0.791603 3.66116 1.78111 3.66116 2.80359 2.80359 3.66116 1.81409 3.66116Z" transform="matrix(1 0 0 -1 3110.2 1642.43)"/></g><g clip-path="url(#clip32)"><path d="M0.230884 0 9.33432 0 9.33432 0.494752C6.79459 0.494752 6.23387 0.85757 6.20089 2.44078L6.20089 22.2309 5.93702 22.2968 0 19.2953 0 18.8336C1.28635 19.3283 2.07796 19.5592 2.37481 19.5592 3.06746 19.5592 3.36431 19.0644 3.36431 18.009L3.36431 3.06746C3.29835 0.989504 2.73763 0.527735 0.230884 0.494752L0.230884 0Z" transform="matrix(1 0 0 -1 3120.03 1642.07)"/></g><path d="M3427.31 1087.96C3427.31 1122.75 3399.1 1150.96 3364.32 1150.96 3329.52 1150.96 3301.32 1122.75 3301.32 1087.96 3301.32 1053.16 3329.52 1024.96 3364.32 1024.96 3399.1 1024.96 3427.31 1053.16 3427.31 1087.96" fill="#EE7621"/><path d="M3427.31 1087.96C3427.31 1122.75 3399.1 1150.96 3364.32 1150.96 3329.52 1150.96 3301.32 1122.75 3301.32 1087.96 3301.32 1053.16 3329.52 1024.96 3364.32 1024.96 3399.1 1024.96 3427.31 1053.16 3427.31 1087.96" stroke="#2E3436" stroke-width="2.35592" stroke-miterlimit="10" fill="none"/><g clip-path="url(#clip33)"><path d="M6.46476 8.08095 0 1.58321 1.58321 0 8.04796 6.49774 14.5457 0 16.1289 1.58321 9.63117 8.08095 16.1289 14.5457 14.5457 16.1289 8.04796 9.63117 1.58321 16.1289 0 14.5457 6.46476 8.08095Z" transform="matrix(1 0 0 -1 3354.97 1078.74)"/></g><g clip-path="url(#clip34)"><path d="M9.92802 22.0659 9.63117 22.0659 0 0 19.6581 0 9.92802 22.0659M14.9745 2.50674 4.32083 2.50674C3.52923 2.50674 3.23238 2.63868 3.23238 3.00149 3.23238 3.23238 3.36431 3.72713 3.5952 4.22188L8.93852 16.5577 14.9745 2.50674Z" transform="matrix(1 0 0 -1 3341.55 1114.34)"/></g><g clip-path="url(#clip35)"><path d="M1.81409 15.5022C0.824587 15.5022 0 14.6776 0 13.6222 0 12.6656 0.824587 11.8411 1.78111 11.8411 2.80359 11.8411 3.66116 12.6327 3.66116 13.6222 3.66116 14.6447 2.80359 15.5022 1.81409 15.5022M1.81409 3.66116C0.824587 3.66116 0 2.83658 0 1.78111 0 0.824586 0.824587 0 1.78111 0 2.80359 0 3.66116 0.791603 3.66116 1.78111 3.66116 2.80359 2.80359 3.66116 1.81409 3.66116Z" transform="matrix(1 0 0 -1 3364.64 1114.71)"/></g><g clip-path="url(#clip36)"><path d="M4.91454 19.6911 11.3793 19.6911C11.94 19.6911 12.039 19.7241 12.1379 19.988L13.3913 22.9235 13.0944 23.1544C12.5997 22.4947 12.3028 22.2968 11.5772 22.2968L4.68365 22.2968 1.08845 14.4797C1.05547 14.4138 1.05547 14.3808 1.05547 14.3148 1.05547 14.1169 1.1874 14.051 1.45127 14.051 2.50674 14.051 3.7931 13.8201 5.1784 13.3913 8.9715 12.1709 10.6866 10.1589 10.6866 6.86056 10.6866 3.69415 8.70763 1.22039 6.10194 1.22039 5.44227 1.22039 4.91454 1.45127 3.92503 2.17691 2.86956 2.96851 2.14392 3.26536 1.38531 3.26536 0.461768 3.26536 0 2.86956 0 2.04497 0 0.791603 1.51724 0 4.02398 0 6.76161 0 9.13642 0.890553 10.8186 2.57271 12.3028 4.05697 12.9955 5.93702 12.9955 8.44376 12.9955 10.8186 12.3688 12.3358 10.7526 13.985 9.30133 15.4363 7.42128 16.1949 3.52923 16.8875L4.91454 19.6911Z" transform="matrix(1 0 0 -1 3371.86 1114.81)"/></g><path d="M3427.31 1351.82C3427.31 1386.62 3399.1 1414.82 3364.32 1414.82 3329.52 1414.82 3301.32 1386.62 3301.32 1351.82 3301.32 1317.02 3329.52 1288.82 3364.32 1288.82 3399.1 1288.82 3427.31 1317.02 3427.31 1351.82" fill="#FFFFF0"/><path d="M3427.31 1351.82C3427.31 1386.62 3399.1 1414.82 3364.32 1414.82 3329.52 1414.82 3301.32 1386.62 3301.32 1351.82 3301.32 1317.02 3329.52 1288.82 3364.32 1288.82 3399.1 1288.82 3427.31 1317.02 3427.31 1351.82" stroke="#2E3436" stroke-width="2.35592" stroke-miterlimit="10" fill="none"/><g clip-path="url(#clip37)"><path d="M6.46476 8.08095 0 1.58321 1.58321 0 8.04796 6.49774 14.5457 0 16.1289 1.58321 9.63117 8.08095 16.1289 14.5457 14.5457 16.1289 8.04796 9.63117 1.58321 16.1289 0 14.5457 6.46476 8.08095Z" transform="matrix(1 0 0 -1 3354.97 1342.6)"/></g><g clip-path="url(#clip38)"><path d="M9.92802 22.0659 9.63117 22.0659 0 0 19.6581 0 9.92802 22.0659M14.9745 2.50674 4.32083 2.50674C3.52923 2.50674 3.23238 2.63868 3.23238 3.00149 3.23238 3.23238 3.36431 3.72713 3.5952 4.22188L8.93852 16.5577 14.9745 2.50674Z" transform="matrix(1 0 0 -1 3341.55 1378.2)"/></g><g clip-path="url(#clip39)"><path d="M1.81409 15.5022C0.824587 15.5022 0 14.6776 0 13.6222 0 12.6656 0.824587 11.8411 1.78111 11.8411 2.80359 11.8411 3.66116 12.6327 3.66116 13.6222 3.66116 14.6447 2.80359 15.5022 1.81409 15.5022M1.81409 3.66116C0.824587 3.66116 0 2.83658 0 1.78111 0 0.824586 0.824587 0 1.78111 0 2.80359 0 3.66116 0.791603 3.66116 1.78111 3.66116 2.80359 2.80359 3.66116 1.81409 3.66116Z" transform="matrix(1 0 0 -1 3364.64 1378.56)"/></g><g clip-path="url(#clip40)"><path d="M14.6776 4.51873 14.2489 4.68365C13.0285 2.77061 12.6656 2.53973 11.1154 2.50674L3.23238 2.50674 8.7736 8.31183C11.7091 11.3793 12.9955 13.886 12.9955 16.4587 12.9955 19.7571 10.3238 22.2968 6.89354 22.2968 5.07945 22.2968 3.36431 21.5712 2.14392 20.2518 1.08845 19.1304 0.593702 18.0749 0.0329835 15.7331L0.725636 15.5682C2.04497 18.8006 3.1994 19.856 5.50824 19.856 8.31183 19.856 10.1589 17.976 10.1589 15.2054 10.1589 12.5997 8.64167 9.5652 5.87106 6.62967L0 0.395801 0 0 12.8635 0 14.6776 4.51873Z" transform="matrix(1 0 0 -1 3371.8 1378.2)"/></g><path d="M3342.5 1615.69C3342.5 1650.47 3314.3 1678.69 3279.5 1678.69 3244.7 1678.69 3216.5 1650.47 3216.5 1615.69 3216.5 1580.89 3244.7 1552.68 3279.5 1552.68 3314.3 1552.68 3342.5 1580.89 3342.5 1615.69" fill="#FFFFF0"/><path d="M3342.5 1615.69C3342.5 1650.47 3314.3 1678.69 3279.5 1678.69 3244.7 1678.69 3216.5 1650.47 3216.5 1615.69 3216.5 1580.89 3244.7 1552.68 3279.5 1552.68 3314.3 1552.68 3342.5 1580.89 3342.5 1615.69" stroke="#2E3436" stroke-width="2.35592" stroke-miterlimit="10" fill="none"/><g clip-path="url(#clip41)"><path d="M15.7661 0.494752C13.985 0.791603 13.8201 1.02249 13.7871 3.36431L13.7871 9.92802C13.7871 13.3913 12.4348 15.1724 9.73012 15.1724 7.7841 15.1724 6.39879 14.3808 4.88155 12.4018L4.88155 22.4288 4.71663 22.5277C3.56221 22.1319 2.73763 21.868 0.923537 21.3403L0.0329835 21.0764 0.0329835 20.5487C0.164917 20.5817 0.230884 20.5817 0.428785 20.5817 1.84707 20.5817 2.11094 20.3178 2.11094 18.8995L2.11094 3.36431C2.04497 0.989504 1.88006 0.725636 0 0.494752L0 0 7.12443 0 7.12443 0.494752C5.21139 0.659669 4.94752 1.02249 4.88155 3.36431L4.88155 11.3133C6.26686 12.8306 7.25636 13.3913 8.5757 13.3913 10.1919 13.3913 11.0165 12.2039 11.0165 9.89504L11.0165 3.36431C10.9505 1.02249 10.6537 0.659669 8.7736 0.494752L8.7736 0 15.7661 0 15.7661 0.494752Z" transform="matrix(1 0 0 -1 3271.55 1606.73)"/></g><g clip-path="url(#clip42)"><path d="M9.92802 22.0659 9.63117 22.0659 0 0 19.6581 0 9.92802 22.0659M14.9745 2.50674 4.32083 2.50674C3.52923 2.50674 3.23238 2.63868 3.23238 3.00149 3.23238 3.23238 3.36431 3.72713 3.5952 4.22188L8.93852 16.5577 14.9745 2.50674Z" transform="matrix(1 0 0 -1 3256.73 1642.07)"/></g><g clip-path="url(#clip43)"><path d="M1.81409 15.5022C0.824587 15.5022 0 14.6776 0 13.6222 0 12.6656 0.824587 11.8411 1.78111 11.8411 2.80359 11.8411 3.66116 12.6327 3.66116 13.6222 3.66116 14.6447 2.80359 15.5022 1.81409 15.5022M1.81409 3.66116C0.824587 3.66116 0 2.83658 0 1.78111 0 0.824586 0.824587 0 1.78111 0 2.80359 0 3.66116 0.791603 3.66116 1.78111 3.66116 2.80359 2.80359 3.66116 1.81409 3.66116Z" transform="matrix(1 0 0 -1 3279.82 1642.43)"/></g><g clip-path="url(#clip44)"><path d="M0.230884 0 9.33432 0 9.33432 0.494752C6.79459 0.494752 6.23387 0.85757 6.20089 2.44078L6.20089 22.2309 5.93702 22.2968 0 19.2953 0 18.8336C1.28635 19.3283 2.07796 19.5592 2.37481 19.5592 3.06746 19.5592 3.36431 19.0644 3.36431 18.009L3.36431 3.06746C3.29835 0.989504 2.73763 0.527735 0.230884 0.494752L0.230884 0Z" transform="matrix(1 0 0 -1 3289.65 1642.07)"/></g><path d="M3512.12 1615.69C3512.12 1650.47 3483.92 1678.69 3449.12 1678.69 3414.34 1678.69 3386.12 1650.47 3386.12 1615.69 3386.12 1580.89 3414.34 1552.68 3449.12 1552.68 3483.92 1552.68 3512.12 1580.89 3512.12 1615.69" fill="#FFFFF0"/><path d="M3512.12 1615.69C3512.12 1650.47 3483.92 1678.69 3449.12 1678.69 3414.34 1678.69 3386.12 1650.47 3386.12 1615.69 3386.12 1580.89 3414.34 1552.68 3449.12 1552.68 3483.92 1552.68 3512.12 1580.89 3512.12 1615.69" stroke="#2E3436" stroke-width="2.35592" stroke-miterlimit="10" fill="none"/><g clip-path="url(#clip45)"><path d="M0 0 7.81708 0 7.81708 0.494752C5.64017 0.659669 5.40929 0.95652 5.3763 3.36431L5.3763 15.0734 5.24437 15.1724 0.131934 13.3583 0.131934 12.8635 0.395801 12.8965C0.791603 12.9625 1.1874 12.9955 1.51724 12.9955 2.30884 12.9955 2.60569 12.4677 2.60569 11.0165L2.60569 3.36431C2.53973 0.923537 2.24288 0.593702 0 0.494752L0 0M3.69415 22.5277C2.80359 22.5277 2.04497 21.7691 2.04497 20.8455 2.04497 19.889 2.77061 19.1634 3.69415 19.1634 4.68365 19.1634 5.40929 19.889 5.40929 20.8455 5.40929 21.8021 4.65067 22.5277 3.69415 22.5277Z" transform="matrix(1 0 0 -1 3444.94 1606.73)"/></g><g clip-path="url(#clip46)"><path d="M9.92802 22.0659 9.63117 22.0659 0 0 19.6581 0 9.92802 22.0659M14.9745 2.50674 4.32083 2.50674C3.52923 2.50674 3.23238 2.63868 3.23238 3.00149 3.23238 3.23238 3.36431 3.72713 3.5952 4.22188L8.93852 16.5577 14.9745 2.50674Z" transform="matrix(1 0 0 -1 3426.35 1642.07)"/></g><g clip-path="url(#clip47)"><path d="M1.81409 15.5022C0.824587 15.5022 0 14.6776 0 13.6222 0 12.6656 0.824587 11.8411 1.78111 11.8411 2.80359 11.8411 3.66116 12.6327 3.66116 13.6222 3.66116 14.6447 2.80359 15.5022 1.81409 15.5022M1.81409 3.66116C0.824587 3.66116 0 2.83658 0 1.78111 0 0.824586 0.824587 0 1.78111 0 2.80359 0 3.66116 0.791603 3.66116 1.78111 3.66116 2.80359 2.80359 3.66116 1.81409 3.66116Z" transform="matrix(1 0 0 -1 3449.44 1642.43)"/></g><g clip-path="url(#clip48)"><path d="M0.230884 0 9.33432 0 9.33432 0.494752C6.79459 0.494752 6.23387 0.85757 6.20089 2.44078L6.20089 22.2309 5.93702 22.2968 0 19.2953 0 18.8336C1.28635 19.3283 2.07796 19.5592 2.37481 19.5592 3.06746 19.5592 3.36431 19.0644 3.36431 18.009L3.36431 3.06746C3.29835 0.989504 2.73763 0.527735 0.230884 0.494752L0.230884 0Z" transform="matrix(1 0 0 -1 3459.27 1642.07)"/></g><path d="M3681.75 1351.82C3681.75 1386.62 3653.54 1414.82 3618.76 1414.82 3583.96 1414.82 3555.76 1386.62 3555.76 1351.82 3555.76 1317.02 3583.96 1288.82 3618.76 1288.82 3653.54 1288.82 3681.75 1317.02 3681.75 1351.82" fill="#EE7621"/><path d="M3681.75 1351.82C3681.75 1386.62 3653.54 1414.82 3618.76 1414.82 3583.96 1414.82 3555.76 1386.62 3555.76 1351.82 3555.76 1317.02 3583.96 1288.82 3618.76 1288.82 3653.54 1288.82 3681.75 1317.02 3681.75 1351.82" stroke="#2E3436" stroke-width="2.35592" stroke-miterlimit="10" fill="none"/><g clip-path="url(#clip49)"><path d="M6.46476 8.08095 0 1.58321 1.58321 0 8.04796 6.49774 14.5457 0 16.1289 1.58321 9.63117 8.08095 16.1289 14.5457 14.5457 16.1289 8.04796 9.63117 1.58321 16.1289 0 14.5457 6.46476 8.08095Z" transform="matrix(1 0 0 -1 3609.4 1342.6)"/></g><g clip-path="url(#clip50)"><path d="M9.92802 22.0659 9.63117 22.0659 0 0 19.6581 0 9.92802 22.0659M14.9745 2.50674 4.32083 2.50674C3.52923 2.50674 3.23238 2.63868 3.23238 3.00149 3.23238 3.23238 3.36431 3.72713 3.5952 4.22188L8.93852 16.5577 14.9745 2.50674Z" transform="matrix(1 0 0 -1 3595.99 1378.2)"/></g><g clip-path="url(#clip51)"><path d="M1.81409 15.5022C0.824587 15.5022 0 14.6776 0 13.6222 0 12.6656 0.824587 11.8411 1.78111 11.8411 2.80359 11.8411 3.66116 12.6327 3.66116 13.6222 3.66116 14.6447 2.80359 15.5022 1.81409 15.5022M1.81409 3.66116C0.824587 3.66116 0 2.83658 0 1.78111 0 0.824586 0.824587 0 1.78111 0 2.80359 0 3.66116 0.791603 3.66116 1.78111 3.66116 2.80359 2.80359 3.66116 1.81409 3.66116Z" transform="matrix(1 0 0 -1 3619.08 1378.56)"/></g><g clip-path="url(#clip52)"><path d="M15.1724 7.61918 11.8081 7.61918 11.8081 22.2968 10.3568 22.2968 0 7.61918 0 5.50824 9.26835 5.50824 9.26835 0 11.8081 0 11.8081 5.50824 15.1724 5.50824 15.1724 7.61918M9.23537 7.61918 1.31934 7.61918 9.23537 18.9325 9.23537 7.61918Z" transform="matrix(1 0 0 -1 3625.64 1378.2)"/></g><path d="M3681.75 1615.69C3681.75 1650.47 3653.54 1678.69 3618.76 1678.69 3583.96 1678.69 3555.76 1650.47 3555.76 1615.69 3555.76 1580.89 3583.96 1552.68 3618.76 1552.68 3653.54 1552.68 3681.75 1580.89 3681.75 1615.69" fill="#EE7621"/><path d="M3681.75 1615.69C3681.75 1650.47 3653.54 1678.69 3618.76 1678.69 3583.96 1678.69 3555.76 1650.47 3555.76 1615.69 3555.76 1580.89 3583.96 1552.68 3618.76 1552.68 3653.54 1552.68 3681.75 1580.89 3681.75 1615.69" stroke="#2E3436" stroke-width="2.35592" stroke-miterlimit="10" fill="none"/><g clip-path="url(#clip53)"><path d="M6.46476 8.08095 0 1.58321 1.58321 0 8.04796 6.49774 14.5457 0 16.1289 1.58321 9.63117 8.08095 16.1289 14.5457 14.5457 16.1289 8.04796 9.63117 1.58321 16.1289 0 14.5457 6.46476 8.08095Z" transform="matrix(1 0 0 -1 3609.4 1606.47)"/></g><g clip-path="url(#clip54)"><path d="M9.92802 22.0659 9.63117 22.0659 0 0 19.6581 0 9.92802 22.0659M14.9745 2.50674 4.32083 2.50674C3.52923 2.50674 3.23238 2.63868 3.23238 3.00149 3.23238 3.23238 3.36431 3.72713 3.5952 4.22188L8.93852 16.5577 14.9745 2.50674Z" transform="matrix(1 0 0 -1 3595.99 1642.07)"/></g><g clip-path="url(#clip55)"><path d="M1.81409 15.5022C0.824587 15.5022 0 14.6776 0 13.6222 0 12.6656 0.824587 11.8411 1.78111 11.8411 2.80359 11.8411 3.66116 12.6327 3.66116 13.6222 3.66116 14.6447 2.80359 15.5022 1.81409 15.5022M1.81409 3.66116C0.824587 3.66116 0 2.83658 0 1.78111 0 0.824586 0.824587 0 1.78111 0 2.80359 0 3.66116 0.791603 3.66116 1.78111 3.66116 2.80359 2.80359 3.66116 1.81409 3.66116Z" transform="matrix(1 0 0 -1 3619.08 1642.43)"/></g><g clip-path="url(#clip56)"><path d="M3.62818 11.3463C5.5742 11.3463 6.33282 11.2803 7.09144 10.9835 9.1694 10.2249 10.4228 8.3778 10.4228 6.10194 10.4228 3.29835 8.5757 1.1874 6.13492 1.1874 5.21139 1.1874 4.55172 1.41829 3.33133 2.20989 2.37481 2.80359 1.81409 3.03448 1.25337 3.03448 0.494752 3.03448 0 2.57271 0 1.88006 0 0.725636 1.41829 0 3.72713 0 6.23387 0 8.83957 0.85757 10.4228 2.20989 11.973 3.56221 12.7976 5.47525 12.7976 7.68515 12.7976 9.40029 12.2698 10.9175 11.3463 11.94 10.6537 12.6656 10.027 13.0614 8.60868 13.6881 10.8516 15.2384 11.6761 16.4587 11.6761 18.2399 11.6761 20.9445 9.59819 22.7586 6.53072 22.7586 4.88155 22.7586 3.43028 22.1979 2.24288 21.1424 1.25337 20.2189 0.758619 19.3943 0.0659669 17.4153L0.560719 17.2833C1.88006 19.7241 3.36431 20.7796 5.44227 20.7796 7.61918 20.7796 9.07045 19.3613 9.07045 17.2503 9.07045 16.0629 8.5757 14.9085 7.75111 14.051 6.76161 13.0614 5.83807 12.5667 3.5952 11.7751L3.62818 11.3463Z" transform="matrix(1 0 0 -1 3626.66 1642.53)"/></g><path d="M3512.12 1881.91C3512.12 1916.69 3483.92 1944.9 3449.12 1944.9 3414.34 1944.9 3386.12 1916.69 3386.12 1881.91 3386.12 1847.11 3414.34 1818.91 3449.12 1818.91 3483.92 1818.91 3512.12 1847.11 3512.12 1881.91" fill="#EE7621"/><path d="M3512.12 1881.91C3512.12 1916.69 3483.92 1944.9 3449.12 1944.9 3414.34 1944.9 3386.12 1916.69 3386.12 1881.91 3386.12 1847.11 3414.34 1818.91 3449.12 1818.91 3483.92 1818.91 3512.12 1847.11 3512.12 1881.91" stroke="#2E3436" stroke-width="2.35592" stroke-miterlimit="10" fill="none"/><g clip-path="url(#clip57)"><path d="M6.46476 8.08095 0 1.58321 1.58321 0 8.04796 6.49774 14.5457 0 16.1289 1.58321 9.63117 8.08095 16.1289 14.5457 14.5457 16.1289 8.04796 9.63117 1.58321 16.1289 0 14.5457 6.46476 8.08095Z" transform="matrix(1 0 0 -1 3439.78 1872.69)"/></g><g clip-path="url(#clip58)"><path d="M9.92802 22.0659 9.63117 22.0659 0 0 19.6581 0 9.92802 22.0659M14.9745 2.50674 4.32083 2.50674C3.52923 2.50674 3.23238 2.63868 3.23238 3.00149 3.23238 3.23238 3.36431 3.72713 3.5952 4.22188L8.93852 16.5577 14.9745 2.50674Z" transform="matrix(1 0 0 -1 3426.35 1908.29)"/></g><g clip-path="url(#clip59)"><path d="M1.81409 15.5022C0.824587 15.5022 0 14.6776 0 13.6222 0 12.6656 0.824587 11.8411 1.78111 11.8411 2.80359 11.8411 3.66116 12.6327 3.66116 13.6222 3.66116 14.6447 2.80359 15.5022 1.81409 15.5022M1.81409 3.66116C0.824587 3.66116 0 2.83658 0 1.78111 0 0.824586 0.824587 0 1.78111 0 2.80359 0 3.66116 0.791603 3.66116 1.78111 3.66116 2.80359 2.80359 3.66116 1.81409 3.66116Z" transform="matrix(1 0 0 -1 3449.44 1908.65)"/></g><g clip-path="url(#clip60)"><path d="M14.6776 4.51873 14.2489 4.68365C13.0285 2.77061 12.6656 2.53973 11.1154 2.50674L3.23238 2.50674 8.7736 8.31183C11.7091 11.3793 12.9955 13.886 12.9955 16.4587 12.9955 19.7571 10.3238 22.2968 6.89354 22.2968 5.07945 22.2968 3.36431 21.5712 2.14392 20.2518 1.08845 19.1304 0.593702 18.0749 0.0329835 15.7331L0.725636 15.5682C2.04497 18.8006 3.1994 19.856 5.50824 19.856 8.31183 19.856 10.1589 17.976 10.1589 15.2054 10.1589 12.5997 8.64167 9.5652 5.87106 6.62967L0 0.395801 0 0 12.8635 0 14.6776 4.51873Z" transform="matrix(1 0 0 -1 3456.6 1908.29)"/></g><path d="M3427.31 2145.76C3427.31 2180.57 3399.1 2208.76 3364.32 2208.76 3329.52 2208.76 3301.32 2180.57 3301.32 2145.76 3301.32 2110.98 3329.52 2082.76 3364.32 2082.76 3399.1 2082.76 3427.31 2110.98 3427.31 2145.76" fill="#EE7621"/><path d="M3427.31 2145.76C3427.31 2180.57 3399.1 2208.76 3364.32 2208.76 3329.52 2208.76 3301.32 2180.57 3301.32 2145.76 3301.32 2110.98 3329.52 2082.76 3364.32 2082.76 3399.1 2082.76 3427.31 2110.98 3427.31 2145.76" stroke="#2E3436" stroke-width="2.35592" stroke-miterlimit="10" fill="none"/><g clip-path="url(#clip61)"><path d="M13.3583 2.50674C12.7976 2.04497 12.4018 1.88006 11.907 1.88006 11.1484 1.88006 10.9175 2.34183 10.9175 3.7931L10.9175 10.2249C10.9175 11.94 10.7526 12.8965 10.2579 13.6881 9.53222 14.8755 8.11393 15.5022 6.16791 15.5022 3.06746 15.5022 0.626686 13.886 0.626686 11.8081 0.626686 11.0495 1.25337 10.3898 2.04497 10.3898 2.83658 10.3898 3.52923 11.0495 3.52923 11.7751 3.52923 11.907 3.49625 12.0719 3.46326 12.3028 3.3973 12.5997 3.36431 12.8635 3.36431 13.0944 3.36431 13.985 4.41978 14.7106 5.73912 14.7106 7.35531 14.7106 8.24586 13.7541 8.24586 11.973L8.24586 9.961C3.1994 7.94901 2.60569 7.65216 1.1874 6.39879 0.461768 5.73912 0 4.61768 0 3.52923 0 1.45127 1.45127 0 3.46326 0 4.91454 0 6.26686 0.692653 8.27885 2.40779 8.44376 0.659669 9.03747 0 10.3898 0 11.5112 0 12.2039 0.395802 13.3583 1.64917L13.3583 2.50674M8.24586 4.3868C8.24586 3.3973 8.08095 3.03448 7.38829 2.63868 6.56371 2.17691 5.67315 1.91304 4.9805 1.91304 3.82608 1.91304 2.90254 3.03448 2.90254 4.45277L2.90254 4.5847C2.93553 6.56371 4.3868 7.81708 8.24586 9.1694L8.24586 4.3868Z" transform="matrix(1 0 0 -1 3357.29 2137.14)"/></g><g clip-path="url(#clip62)"><path d="M9.92802 22.0659 9.63117 22.0659 0 0 19.6581 0 9.92802 22.0659M14.9745 2.50674 4.32083 2.50674C3.52923 2.50674 3.23238 2.63868 3.23238 3.00149 3.23238 3.23238 3.36431 3.72713 3.5952 4.22188L8.93852 16.5577 14.9745 2.50674Z" transform="matrix(1 0 0 -1 3341.55 2172.15)"/></g><g clip-path="url(#clip63)"><path d="M1.81409 15.5022C0.824587 15.5022 0 14.6776 0 13.6222 0 12.6656 0.824587 11.8411 1.78111 11.8411 2.80359 11.8411 3.66116 12.6327 3.66116 13.6222 3.66116 14.6447 2.80359 15.5022 1.81409 15.5022M1.81409 3.66116C0.824587 3.66116 0 2.83658 0 1.78111 0 0.824586 0.824587 0 1.78111 0 2.80359 0 3.66116 0.791603 3.66116 1.78111 3.66116 2.80359 2.80359 3.66116 1.81409 3.66116Z" transform="matrix(1 0 0 -1 3364.64 2172.51)"/></g><g clip-path="url(#clip64)"><path d="M0.230884 0 9.33432 0 9.33432 0.494752C6.79459 0.494752 6.23387 0.85757 6.20089 2.44078L6.20089 22.2309 5.93702 22.2968 0 19.2953 0 18.8336C1.28635 19.3283 2.07796 19.5592 2.37481 19.5592 3.06746 19.5592 3.36431 19.0644 3.36431 18.009L3.36431 3.06746C3.29835 0.989504 2.73763 0.527735 0.230884 0.494752L0.230884 0Z" transform="matrix(1 0 0 -1 3374.47 2172.15)"/></g><path d="M3596.94 2145.76C3596.94 2180.57 3568.74 2208.76 3533.94 2208.76 3499.15 2208.76 3470.94 2180.57 3470.94 2145.76 3470.94 2110.98 3499.15 2082.76 3533.94 2082.76 3568.74 2082.76 3596.94 2110.98 3596.94 2145.76" fill="#EE7621"/><path d="M3596.94 2145.76C3596.94 2180.57 3568.74 2208.76 3533.94 2208.76 3499.15 2208.76 3470.94 2180.57 3470.94 2145.76 3470.94 2110.98 3499.15 2082.76 3533.94 2082.76 3568.74 2082.76 3596.94 2110.98 3596.94 2145.76" stroke="#2E3436" stroke-width="2.35592" stroke-miterlimit="10" fill="none"/><g clip-path="url(#clip65)"><path d="M4.94752 22.7916 4.7826 22.8575C3.43028 22.3958 2.53973 22.0989 0.95652 21.6701L0 21.4063 0 20.8785C0.197901 20.9115 0.296851 20.9115 0.560719 20.9115 1.88006 20.9115 2.17691 20.6147 2.17691 19.2294L2.17691 2.11094C2.17691 1.08845 4.94752 0 7.61918 0 11.973 0 15.3373 3.62818 15.3373 8.34482 15.3373 12.4348 12.8306 15.5022 9.53222 15.5022 7.52023 15.5022 5.60719 14.3478 4.94752 12.6986L4.94752 22.7916M4.94752 10.9505C4.94752 12.2369 6.49774 13.4243 8.21288 13.4243 9.13642 13.4243 9.961 13.0944 10.6537 12.4677 11.7091 11.4453 12.4348 9.20238 12.4348 6.82758 12.4348 3.16641 10.8516 1.05547 8.14691 1.05547 6.43177 1.05547 4.94752 1.78111 4.94752 2.63868L4.94752 10.9505Z" transform="matrix(1 0 0 -1 3525.79 2137.14)"/></g><g clip-path="url(#clip66)"><path d="M9.92802 22.0659 9.63117 22.0659 0 0 19.6581 0 9.92802 22.0659M14.9745 2.50674 4.32083 2.50674C3.52923 2.50674 3.23238 2.63868 3.23238 3.00149 3.23238 3.23238 3.36431 3.72713 3.5952 4.22188L8.93852 16.5577 14.9745 2.50674Z" transform="matrix(1 0 0 -1 3511.17 2172.15)"/></g><g clip-path="url(#clip67)"><path d="M1.81409 15.5022C0.824587 15.5022 0 14.6776 0 13.6222 0 12.6656 0.824587 11.8411 1.78111 11.8411 2.80359 11.8411 3.66116 12.6327 3.66116 13.6222 3.66116 14.6447 2.80359 15.5022 1.81409 15.5022M1.81409 3.66116C0.824587 3.66116 0 2.83658 0 1.78111 0 0.824586 0.824587 0 1.78111 0 2.80359 0 3.66116 0.791603 3.66116 1.78111 3.66116 2.80359 2.80359 3.66116 1.81409 3.66116Z" transform="matrix(1 0 0 -1 3534.26 2172.51)"/></g><g clip-path="url(#clip68)"><path d="M0.230884 0 9.33432 0 9.33432 0.494752C6.79459 0.494752 6.23387 0.85757 6.20089 2.44078L6.20089 22.2309 5.93702 22.2968 0 19.2953 0 18.8336C1.28635 19.3283 2.07796 19.5592 2.37481 19.5592 3.06746 19.5592 3.36431 19.0644 3.36431 18.009L3.36431 3.06746C3.29835 0.989504 2.73763 0.527735 0.230884 0.494752L0.230884 0Z" transform="matrix(1 0 0 -1 3544.09 2172.15)"/></g><path d="M3681.75 1881.91C3681.75 1916.69 3653.54 1944.9 3618.76 1944.9 3583.96 1944.9 3555.76 1916.69 3555.76 1881.91 3555.76 1847.11 3583.96 1818.91 3618.76 1818.91 3653.54 1818.91 3681.75 1847.11 3681.75 1881.91" fill="#FFFFF0"/><path d="M3681.75 1881.91C3681.75 1916.69 3653.54 1944.9 3618.76 1944.9 3583.96 1944.9 3555.76 1916.69 3555.76 1881.91 3555.76 1847.11 3583.96 1818.91 3618.76 1818.91 3653.54 1818.91 3681.75 1847.11 3681.75 1881.91" stroke="#2E3436" stroke-width="2.35592" stroke-miterlimit="10" fill="none"/><g clip-path="url(#clip69)"><path d="M12.3028 5.47525C10.7196 3.16641 9.53222 2.37481 7.65216 2.37481 4.61768 2.37481 2.53973 5.01349 2.53973 8.80658 2.53973 12.2369 4.35382 14.5457 7.02548 14.5457 8.21288 14.5457 8.64167 14.2159 8.9715 12.9625L9.1694 12.2369C9.43327 11.2803 10.027 10.7196 10.7526 10.7196 11.6102 10.7196 12.3028 11.3463 12.3028 12.1049 12.3028 13.952 9.99399 15.5022 7.22338 15.5022 5.60719 15.5022 3.92503 14.8426 2.57271 13.6552 0.923537 12.2039 0 9.961 0 7.32233 0 3.06746 2.60569 0 6.26686 0 7.75111 0 9.07045 0.527735 10.2579 1.55022 11.1484 2.30884 11.7751 3.23238 12.7646 5.1784L12.3028 5.47525Z" transform="matrix(1 0 0 -1 3611.34 1873.28)"/></g><g clip-path="url(#clip70)"><path d="M9.92802 22.0659 9.63117 22.0659 0 0 19.6581 0 9.92802 22.0659M14.9745 2.50674 4.32083 2.50674C3.52923 2.50674 3.23238 2.63868 3.23238 3.00149 3.23238 3.23238 3.36431 3.72713 3.5952 4.22188L8.93852 16.5577 14.9745 2.50674Z" transform="matrix(1 0 0 -1 3595.99 1908.29)"/></g><g clip-path="url(#clip71)"><path d="M1.81409 15.5022C0.824587 15.5022 0 14.6776 0 13.6222 0 12.6656 0.824587 11.8411 1.78111 11.8411 2.80359 11.8411 3.66116 12.6327 3.66116 13.6222 3.66116 14.6447 2.80359 15.5022 1.81409 15.5022M1.81409 3.66116C0.824587 3.66116 0 2.83658 0 1.78111 0 0.824586 0.824587 0 1.78111 0 2.80359 0 3.66116 0.791603 3.66116 1.78111 3.66116 2.80359 2.80359 3.66116 1.81409 3.66116Z" transform="matrix(1 0 0 -1 3619.08 1908.65)"/></g><g clip-path="url(#clip72)"><path d="M0.230884 0 9.33432 0 9.33432 0.494752C6.79459 0.494752 6.23387 0.85757 6.20089 2.44078L6.20089 22.2309 5.93702 22.2968 0 19.2953 0 18.8336C1.28635 19.3283 2.07796 19.5592 2.37481 19.5592 3.06746 19.5592 3.36431 19.0644 3.36431 18.009L3.36431 3.06746C3.29835 0.989504 2.73763 0.527735 0.230884 0.494752L0.230884 0Z" transform="matrix(1 0 0 -1 3628.91 1908.29)"/></g><path d="M3851.38 1615.69C3851.38 1650.47 3823.18 1678.69 3788.38 1678.69 3753.59 1678.69 3725.38 1650.47 3725.38 1615.69 3725.38 1580.89 3753.59 1552.68 3788.38 1552.68 3823.18 1552.68 3851.38 1580.89 3851.38 1615.69" fill="#FFFFF0"/><path d="M3851.38 1615.69C3851.38 1650.47 3823.18 1678.69 3788.38 1678.69 3753.59 1678.69 3725.38 1650.47 3725.38 1615.69 3725.38 1580.89 3753.59 1552.68 3788.38 1552.68 3823.18 1552.68 3851.38 1580.89 3851.38 1615.69" stroke="#2E3436" stroke-width="2.35592" stroke-miterlimit="10" fill="none"/><g clip-path="url(#clip73)"><path d="M6.46476 8.08095 0 1.58321 1.58321 0 8.04796 6.49774 14.5457 0 16.1289 1.58321 9.63117 8.08095 16.1289 14.5457 14.5457 16.1289 8.04796 9.63117 1.58321 16.1289 0 14.5457 6.46476 8.08095Z" transform="matrix(1 0 0 -1 3779.02 1606.47)"/></g><g clip-path="url(#clip74)"><path d="M9.92802 22.0659 9.63117 22.0659 0 0 19.6581 0 9.92802 22.0659M14.9745 2.50674 4.32083 2.50674C3.52923 2.50674 3.23238 2.63868 3.23238 3.00149 3.23238 3.23238 3.36431 3.72713 3.5952 4.22188L8.93852 16.5577 14.9745 2.50674Z" transform="matrix(1 0 0 -1 3765.61 1642.07)"/></g><g clip-path="url(#clip75)"><path d="M1.81409 15.5022C0.824587 15.5022 0 14.6776 0 13.6222 0 12.6656 0.824587 11.8411 1.78111 11.8411 2.80359 11.8411 3.66116 12.6327 3.66116 13.6222 3.66116 14.6447 2.80359 15.5022 1.81409 15.5022M1.81409 3.66116C0.824587 3.66116 0 2.83658 0 1.78111 0 0.824586 0.824587 0 1.78111 0 2.80359 0 3.66116 0.791603 3.66116 1.78111 3.66116 2.80359 2.80359 3.66116 1.81409 3.66116Z" transform="matrix(1 0 0 -1 3788.7 1642.43)"/></g><g clip-path="url(#clip76)"><path d="M14.6776 4.51873 14.2489 4.68365C13.0285 2.77061 12.6656 2.53973 11.1154 2.50674L3.23238 2.50674 8.7736 8.31183C11.7091 11.3793 12.9955 13.886 12.9955 16.4587 12.9955 19.7571 10.3238 22.2968 6.89354 22.2968 5.07945 22.2968 3.36431 21.5712 2.14392 20.2518 1.08845 19.1304 0.593702 18.0749 0.0329835 15.7331L0.725636 15.5682C2.04497 18.8006 3.1994 19.856 5.50824 19.856 8.31183 19.856 10.1589 17.976 10.1589 15.2054 10.1589 12.5997 8.64167 9.5652 5.87106 6.62967L0 0.395801 0 0 12.8635 0 14.6776 4.51873Z" transform="matrix(1 0 0 -1 3795.86 1642.07)"/></g><path d="M3851.38 1881.91C3851.38 1916.69 3823.18 1944.9 3788.38 1944.9 3753.59 1944.9 3725.38 1916.69 3725.38 1881.91 3725.38 1847.11 3753.59 1818.91 3788.38 1818.91 3823.18 1818.91 3851.38 1847.11 3851.38 1881.91" fill="#FFFFF0"/><path d="M3851.38 1881.91C3851.38 1916.69 3823.18 1944.9 3788.38 1944.9 3753.59 1944.9 3725.38 1916.69 3725.38 1881.91 3725.38 1847.11 3753.59 1818.91 3788.38 1818.91 3823.18 1818.91 3851.38 1847.11 3851.38 1881.91" stroke="#2E3436" stroke-width="2.35592" stroke-miterlimit="10" fill="none"/><g clip-path="url(#clip77)"><path d="M15.3043 2.24288C14.8755 2.20989 14.6776 2.20989 14.5457 2.20989 13.3913 2.20989 13.0944 2.57271 13.0944 4.08995L13.0944 22.7916 12.9295 22.8575C11.3793 22.3298 10.2579 21.967 8.08095 21.4063L8.08095 20.8785C8.34481 20.9115 8.50973 20.9115 8.80658 20.9115 10.027 20.9115 10.3238 20.5817 10.3238 19.2294L10.3238 14.0839C9.07045 15.1394 8.1799 15.5022 6.86056 15.5022 3.06746 15.5022 0 11.7751 0 7.09144 0 2.86956 2.44078 0 6.10194 0 7.94901 0 9.20238 0.659669 10.3238 2.20989L10.3238 0.0989504 10.4558 0 15.3043 1.71514 15.3043 2.24288M10.3238 3.69415C10.3238 3.46326 10.0929 3.06746 9.7631 2.70464 9.20238 2.04497 8.34481 1.71514 7.38829 1.71514 4.61768 1.71514 2.83658 4.35382 2.83658 8.44376 2.83658 12.1379 4.45277 14.5787 6.95951 14.5787 8.74062 14.5787 10.3238 13.0285 10.3238 11.2803L10.3238 3.69415Z" transform="matrix(1 0 0 -1 3781.02 1873.28)"/></g><g clip-path="url(#clip78)"><path d="M9.92802 22.0659 9.63117 22.0659 0 0 19.6581 0 9.92802 22.0659M14.9745 2.50674 4.32083 2.50674C3.52923 2.50674 3.23238 2.63868 3.23238 3.00149 3.23238 3.23238 3.36431 3.72713 3.5952 4.22188L8.93852 16.5577 14.9745 2.50674Z" transform="matrix(1 0 0 -1 3765.61 1908.29)"/></g><g clip-path="url(#clip79)"><path d="M1.81409 15.5022C0.824587 15.5022 0 14.6776 0 13.6222 0 12.6656 0.824587 11.8411 1.78111 11.8411 2.80359 11.8411 3.66116 12.6327 3.66116 13.6222 3.66116 14.6447 2.80359 15.5022 1.81409 15.5022M1.81409 3.66116C0.824587 3.66116 0 2.83658 0 1.78111 0 0.824586 0.824587 0 1.78111 0 2.80359 0 3.66116 0.791603 3.66116 1.78111 3.66116 2.80359 2.80359 3.66116 1.81409 3.66116Z" transform="matrix(1 0 0 -1 3788.7 1908.65)"/></g><g clip-path="url(#clip80)"><path d="M0.230884 0 9.33432 0 9.33432 0.494752C6.79459 0.494752 6.23387 0.85757 6.20089 2.44078L6.20089 22.2309 5.93702 22.2968 0 19.2953 0 18.8336C1.28635 19.3283 2.07796 19.5592 2.37481 19.5592 3.06746 19.5592 3.36431 19.0644 3.36431 18.009L3.36431 3.06746C3.29835 0.989504 2.73763 0.527735 0.230884 0.494752L0.230884 0Z" transform="matrix(1 0 0 -1 3798.53 1908.29)"/></g><path d="M4021.01 1881.91C4021.01 1916.69 3992.8 1944.9 3958 1944.9 3923.21 1944.9 3895 1916.69 3895 1881.91 3895 1847.11 3923.21 1818.91 3958 1818.91 3992.8 1818.91 4021.01 1847.11 4021.01 1881.91" fill="#FFFFF0"/><path d="M4021.01 1881.91C4021.01 1916.69 3992.8 1944.9 3958 1944.9 3923.21 1944.9 3895 1916.69 3895 1881.91 3895 1847.11 3923.21 1818.91 3958 1818.91 3992.8 1818.91 4021.01 1847.11 4021.01 1881.91" stroke="#2E3436" stroke-width="2.35592" stroke-miterlimit="10" fill="none"/><g clip-path="url(#clip81)"><path d="M12.6327 5.73912C11.0495 3.23238 9.63117 2.27586 7.52023 2.27586 5.64017 2.27586 4.22188 3.23238 3.26536 5.11244 2.67166 6.36581 2.44078 7.42128 2.37481 9.46625L12.5337 9.46625C12.2698 11.6102 11.94 12.5667 11.1154 13.6222 10.1259 14.8096 8.60868 15.5022 6.89354 15.5022 5.24437 15.5022 3.69415 14.9085 2.44078 13.7871 0.890553 12.4348 0 10.0929 0 7.38829 0 2.83658 2.37481 0 6.16791 0 9.30133 0 11.7751 1.94602 13.1604 5.50824L12.6327 5.73912M2.44078 10.5217C2.80359 13.0944 3.92503 14.3148 5.93702 14.3148 7.94901 14.3148 8.74062 13.3913 9.1694 10.5217L2.44078 10.5217Z" transform="matrix(1 0 0 -1 3950.58 1873.28)"/></g><g clip-path="url(#clip82)"><path d="M9.92802 22.0659 9.63117 22.0659 0 0 19.6581 0 9.92802 22.0659M14.9745 2.50674 4.32083 2.50674C3.52923 2.50674 3.23238 2.63868 3.23238 3.00149 3.23238 3.23238 3.36431 3.72713 3.5952 4.22188L8.93852 16.5577 14.9745 2.50674Z" transform="matrix(1 0 0 -1 3935.23 1908.29)"/></g><g clip-path="url(#clip83)"><path d="M1.81409 15.5022C0.824587 15.5022 0 14.6776 0 13.6222 0 12.6656 0.824587 11.8411 1.78111 11.8411 2.80359 11.8411 3.66116 12.6327 3.66116 13.6222 3.66116 14.6447 2.80359 15.5022 1.81409 15.5022M1.81409 3.66116C0.824587 3.66116 0 2.83658 0 1.78111 0 0.824586 0.824587 0 1.78111 0 2.80359 0 3.66116 0.791603 3.66116 1.78111 3.66116 2.80359 2.80359 3.66116 1.81409 3.66116Z" transform="matrix(1 0 0 -1 3958.32 1908.65)"/></g><g clip-path="url(#clip84)"><path d="M0.230884 0 9.33432 0 9.33432 0.494752C6.79459 0.494752 6.23387 0.85757 6.20089 2.44078L6.20089 22.2309 5.93702 22.2968 0 19.2953 0 18.8336C1.28635 19.3283 2.07796 19.5592 2.37481 19.5592 3.06746 19.5592 3.36431 19.0644 3.36431 18.009L3.36431 3.06746C3.29835 0.989504 2.73763 0.527735 0.230884 0.494752L0.230884 0Z" transform="matrix(1 0 0 -1 3968.15 1908.29)"/></g><path d="M3466.71 2231.38C3520.19 2232.64 3582.76 2238.45 3613.54 2216.24 3644.32 2194.04 3654.66 2129.96 3651.39 2098.17 3648.11 2066.38 3594.62 2046.44 3593.86 2025.5 3593.11 2004.56 3586.04 1980.09 3646.84 1972.52 3707.65 1964.95 3887.53 1986.65 3958.67 1980.09 4029.82 1973.53 4061.1 1960.91 4073.72 1933.16 4086.33 1905.41 4060.34 1859.49 4034.36 1813.57 4008.37 1767.65 3947.82 1712.4 3917.8 1657.65 3887.78 1602.9 3879.96 1531.5 3854.22 1485.08 3828.49 1438.65 3790.65 1413.93 3763.4 1379.11 3736.15 1344.29 3716.73 1298.12 3690.74 1276.17 3664.76 1254.22 3634.23 1241.61 3607.49 1247.41 3580.74 1253.21 3541.64 1276.93 3530.29 1310.99 3518.93 1345.05 3538.36 1408.12 3539.37 1451.77 3540.38 1495.42 3539.12 1530.99 3536.34 1572.88 3533.57 1614.76 3544.67 1665.47 3522.72 1703.06 3500.77 1740.66 3436.44 1765.13 3404.65 1798.43 3372.86 1831.74 3352.17 1855.2 3331.99 1902.89 3311.8 1950.57 3290.11 2033.58 3283.55 2084.54 3276.99 2135.51 3261.85 2183.95 3292.63 2208.67 3323.41 2233.4 3413.23 2230.12 3466.71 2231.38Z" stroke="#2F528F" stroke-width="13.75" stroke-miterlimit="8" stroke-dasharray="55 41.25" fill="none" fill-rule="evenodd"/><path d="M2521.84 1654.15C2499.14 1628.17 2497.88 1578.74 2508.22 1546.71 2518.56 1514.67 2558.91 1492.73 2583.88 1461.96 2608.85 1431.19 2637.35 1397.9 2658.03 1362.08 2678.71 1326.26 2667.1 1292.97 2707.96 1247.07 2748.81 1201.16 2859.02 1130.03 2903.16 1086.65 2947.29 1043.27 2936.95 1002.41 2972.76 986.772 3008.57 971.134 3095.08 966.342 3118.03 992.825 3140.98 1019.31 3115.76 1110.36 3110.46 1145.67 3105.16 1180.98 3087.01 1177.96 3086.25 1204.69 3085.49 1231.43 3099.11 1269.51 3105.92 1306.09 3112.73 1342.66 3118.53 1389.32 3127.1 1424.13 3135.68 1458.93 3147.53 1487.18 3157.37 1514.93 3167.2 1542.67 3185.11 1559.82 3186.12 1590.59 3187.13 1621.37 3191.67 1683.16 3163.42 1699.55 3135.17 1715.95 3065.32 1690.22 3016.64 1688.96 2967.97 1687.7 2933.42 1689.72 2871.38 1691.99 2809.34 1694.26 2702.41 1709.39 2644.41 1702.58 2586.4 1695.77 2544.54 1680.13 2521.84 1654.15Z" stroke="#FF0000" stroke-width="13.75" stroke-miterlimit="8" stroke-dasharray="110 41.25 13.75 41.25 13.75 41.25" fill="none" fill-rule="evenodd"/></g></svg>