<svg width="1757" height="1751" xmlns="http://www.w3.org/2000/svg" xmlns:xlink="http://www.w3.org/1999/xlink" overflow="hidden"><defs><clipPath id="clip0"><rect x="95" y="508" width="1757" height="1751"/></clipPath><clipPath id="clip1"><rect x="1260" y="-16634" width="17379" height="17338"/></clipPath><clipPath id="clip2"><rect x="1246" y="-16596" width="17379" height="17337"/></clipPath><clipPath id="clip3"><rect x="1270" y="-16595" width="17379" height="17337"/></clipPath><clipPath id="clip4"><rect x="1278" y="-16595" width="17379" height="17337"/></clipPath><clipPath id="clip5"><rect x="1140" y="-16411" width="17379" height="17337"/></clipPath><clipPath id="clip6"><rect x="1126" y="-16374" width="17379" height="17338"/></clipPath><clipPath id="clip7"><rect x="1150" y="-16373" width="17379" height="17337"/></clipPath><clipPath id="clip8"><rect x="1157" y="-16374" width="17379" height="17338"/></clipPath><clipPath id="clip9"><rect x="902" y="-16186" width="17379" height="17337"/></clipPath><clipPath id="clip10"><rect x="888" y="-16149" width="17380" height="17337"/></clipPath><clipPath id="clip11"><rect x="913" y="-16149" width="17379" height="17338"/></clipPath><clipPath id="clip12"><rect x="920" y="-16149" width="17379" height="17337"/></clipPath><clipPath id="clip13"><rect x="785" y="-15962" width="17379" height="17337"/></clipPath><clipPath id="clip14"><rect x="771" y="-15924" width="17379" height="17337"/></clipPath><clipPath id="clip15"><rect x="796" y="-15924" width="17379" height="17337"/></clipPath><clipPath id="clip16"><rect x="803" y="-15924" width="17379" height="17337"/></clipPath><clipPath id="clip17"><rect x="668" y="-15737" width="17379" height="17337"/></clipPath><clipPath id="clip18"><rect x="654" y="-15700" width="17379" height="17338"/></clipPath><clipPath id="clip19"><rect x="678" y="-15699" width="17379" height="17337"/></clipPath><clipPath id="clip20"><rect x="686" y="-15699" width="17379" height="17337"/></clipPath><clipPath id="clip21"><rect x="431" y="-15515" width="17379" height="17337"/></clipPath><clipPath id="clip22"><rect x="416" y="-15477" width="17380" height="17337"/></clipPath><clipPath id="clip23"><rect x="441" y="-15477" width="17379" height="17337"/></clipPath><clipPath id="clip24"><rect x="448" y="-15477" width="17380" height="17337"/></clipPath><clipPath id="clip25"><rect x="313" y="-15290" width="17379" height="17337"/></clipPath><clipPath id="clip26"><rect x="297" y="-15253" width="17379" height="17338"/></clipPath><clipPath id="clip27"><rect x="321" y="-15252" width="17379" height="17337"/></clipPath><clipPath id="clip28"><rect x="331" y="-15253" width="17380" height="17338"/></clipPath><clipPath id="clip29"><rect x="549" y="-15290" width="17379" height="17337"/></clipPath><clipPath id="clip30"><rect x="534" y="-15253" width="17379" height="17338"/></clipPath><clipPath id="clip31"><rect x="558" y="-15252" width="17379" height="17337"/></clipPath><clipPath id="clip32"><rect x="569" y="-15253" width="17379" height="17338"/></clipPath><clipPath id="clip33"><rect x="670" y="-15514" width="17379" height="17337"/></clipPath><clipPath id="clip34"><rect x="654" y="-15477" width="17379" height="17337"/></clipPath><clipPath id="clip35"><rect x="678" y="-15477" width="17379" height="17337"/></clipPath><clipPath id="clip36"><rect x="689" y="-15477" width="17379" height="17337"/></clipPath><clipPath id="clip37"><rect x="903" y="-15737" width="17379" height="17337"/></clipPath><clipPath id="clip38"><rect x="888" y="-15700" width="17380" height="17338"/></clipPath><clipPath id="clip39"><rect x="913" y="-15699" width="17379" height="17337"/></clipPath><clipPath id="clip40"><rect x="921" y="-15700" width="17379" height="17338"/></clipPath><clipPath id="clip41"><rect x="905" y="-15514" width="17379" height="17337"/></clipPath><clipPath id="clip42"><rect x="888" y="-15477" width="17380" height="17337"/></clipPath><clipPath id="clip43"><rect x="913" y="-15477" width="17379" height="17337"/></clipPath><clipPath id="clip44"><rect x="923" y="-15477" width="17379" height="17337"/></clipPath><clipPath id="clip45"><rect x="1142" y="-15514" width="17379" height="17337"/></clipPath><clipPath id="clip46"><rect x="1126" y="-15477" width="17379" height="17337"/></clipPath><clipPath id="clip47"><rect x="1150" y="-15477" width="17379" height="17337"/></clipPath><clipPath id="clip48"><rect x="1161" y="-15477" width="17379" height="17337"/></clipPath><clipPath id="clip49"><rect x="1027" y="-15962" width="17379" height="17338"/></clipPath><clipPath id="clip50"><rect x="1008" y="-15924" width="17379" height="17337"/></clipPath><clipPath id="clip51"><rect x="1033" y="-15924" width="17379" height="17337"/></clipPath><clipPath id="clip52"><rect x="1043" y="-15924" width="17379" height="17337"/></clipPath><clipPath id="clip53"><rect x="1142" y="-16179" width="17379" height="17337"/></clipPath><clipPath id="clip54"><rect x="1126" y="-16149" width="17379" height="17337"/></clipPath><clipPath id="clip55"><rect x="1150" y="-16149" width="17379" height="17338"/></clipPath><clipPath id="clip56"><rect x="1161" y="-16149" width="17379" height="17337"/></clipPath><clipPath id="clip57"><rect x="1377" y="-16411" width="17379" height="17337"/></clipPath><clipPath id="clip58"><rect x="1363" y="-16374" width="17379" height="17338"/></clipPath><clipPath id="clip59"><rect x="1387" y="-16373" width="17380" height="17337"/></clipPath><clipPath id="clip60"><rect x="1395" y="-16374" width="17379" height="17338"/></clipPath><clipPath id="clip61"><rect x="1379" y="-16186" width="17379" height="17337"/></clipPath><clipPath id="clip62"><rect x="1363" y="-16149" width="17379" height="17337"/></clipPath><clipPath id="clip63"><rect x="1387" y="-16149" width="17380" height="17338"/></clipPath><clipPath id="clip64"><rect x="1398" y="-16149" width="17379" height="17337"/></clipPath><clipPath id="clip65"><rect x="1620" y="-16186" width="17379" height="17337"/></clipPath><clipPath id="clip66"><rect x="1600" y="-16149" width="17379" height="17337"/></clipPath><clipPath id="clip67"><rect x="1625" y="-16149" width="17379" height="17338"/></clipPath><clipPath id="clip68"><rect x="1635" y="-16149" width="17379" height="17337"/></clipPath></defs><g clip-path="url(#clip0)" transform="translate(-95 -508)"><path d="M1142.39 264.493C1124.92 296.17 1103.24 335.454 1085.74 367.188" stroke="#2E3436" stroke-width="2.49653" stroke-miterlimit="10" fill="none" transform="matrix(1.0004 0 0 1 95.8841 508)"/><path d="M1205.33 265.637C1222.29 297.052 1243.17 335.691 1260.09 367.022" stroke="#2E3436" stroke-width="2.49653" stroke-miterlimit="10" fill="none" transform="matrix(1.0004 0 0 1 95.8841 508)"/><path d="M1006.05 474.073C965.175 511.942 906.707 566.106 865.612 604.169" stroke="#2E3436" stroke-width="2.49653" stroke-miterlimit="10" fill="none" transform="matrix(1.0004 0 0 1 95.8841 508)"/><path d="M1054.04 494.343C1054.04 522.695 1054.04 555.904 1054.04 584.297" stroke="#2E3436" stroke-width="2.49653" stroke-miterlimit="10" fill="none" transform="matrix(1.0004 0 0 1 95.8841 508)"/><path d="M786.044 712.032C768.805 744.316 747.377 784.43 730.167 816.672" stroke="#2E3436" stroke-width="2.49653" stroke-miterlimit="10" fill="none" transform="matrix(1.0004 0 0 1 95.8841 508)"/><path d="M848.359 712.032C865.972 744.316 887.856 784.43 905.437 816.672" stroke="#2E3436" stroke-width="2.49653" stroke-miterlimit="10" fill="none" transform="matrix(1.0004 0 0 1 95.8841 508)"/><path d="M668.706 936.714C651.467 969.009 630.039 1009.13 612.829 1041.35" stroke="#2E3436" stroke-width="2.49653" stroke-miterlimit="10" fill="none" transform="matrix(1.0004 0 0 1 95.8841 508)"/><path d="M730.375 936.714C747.61 969.009 769.042 1009.13 786.252 1041.35" stroke="#2E3436" stroke-width="2.49653" stroke-miterlimit="10" fill="none" transform="matrix(1.0004 0 0 1 95.8841 508)"/><path d="M533.067 1148.68C492.084 1186.22 434.026 1239.38 393.304 1276.68" stroke="#2E3436" stroke-width="2.49653" stroke-miterlimit="10" fill="none" transform="matrix(1.0004 0 0 1 95.8841 508)"/><path d="M582.2 1168.86C582.2 1196.34 582.2 1228.28 582.2 1255.76" stroke="#2E3436" stroke-width="2.49653" stroke-miterlimit="10" fill="none" transform="matrix(1.0004 0 0 1 95.8841 508)"/><path d="M313.542 1383.59C295.933 1415.89 274.049 1456.01 256.465 1488.23" stroke="#2E3436" stroke-width="2.49653" stroke-miterlimit="10" fill="none" transform="matrix(1.0004 0 0 1 95.8841 508)"/><path d="M375.861 1383.59C393.11 1415.89 414.528 1456.01 431.752 1488.23" stroke="#2E3436" stroke-width="2.49653" stroke-miterlimit="10" fill="none" transform="matrix(1.0004 0 0 1 95.8841 508)"/><path d="M816.88 1168.86C816.88 1196.34 816.88 1228.28 816.88 1255.76" stroke="#2E3436" stroke-width="2.49653" stroke-miterlimit="10" fill="none" transform="matrix(1.0004 0 0 1 95.8841 508)"/><path d="M866.011 1148.68C906.997 1186.22 965.052 1239.38 1005.77 1276.68" stroke="#2E3436" stroke-width="2.49653" stroke-miterlimit="10" fill="none" transform="matrix(1.0004 0 0 1 95.8841 508)"/><path d="M1291.21 494.343C1291.21 522.695 1291.21 555.904 1291.21 584.297" stroke="#2E3436" stroke-width="2.49653" stroke-miterlimit="10" fill="none" transform="matrix(1.0004 0 0 1 95.8841 508)"/><path d="M1339.21 474.073C1380.09 511.942 1438.56 566.106 1479.66 604.169" stroke="#2E3436" stroke-width="2.49653" stroke-miterlimit="10" fill="none" transform="matrix(1.0004 0 0 1 95.8841 508)"/><path d="M1240.63 204.934C1240.63 241.807 1210.75 271.691 1173.88 271.691 1137.01 271.691 1107.12 241.807 1107.12 204.934 1107.12 168.057 1137.01 138.177 1173.88 138.177 1210.75 138.177 1240.63 168.057 1240.63 204.934" fill="#EE7621" transform="matrix(1.0004 0 0 1 95.8841 508)"/><path d="M1240.63 204.934C1240.63 241.807 1210.75 271.691 1173.88 271.691 1137.01 271.691 1107.12 241.807 1107.12 204.934 1107.12 168.057 1137.01 138.177 1173.88 138.177 1210.75 138.177 1240.63 168.057 1240.63 204.934" stroke="#2E3436" stroke-width="2.49653" stroke-miterlimit="10" fill="none" transform="matrix(1.0004 0 0 1 95.8841 508)"/><g clip-path="url(#clip1)"><path d="M6.85059 8.56324 0 1.6777 1.6777 0 8.52829 6.88554 15.4138 0 17.0915 1.6777 10.206 8.56324 17.0915 15.4138 15.4138 17.0915 8.52829 10.206 1.6777 17.0915 0 15.4138 6.85059 8.56324Z" transform="matrix(1.0004 0 0 -1 1260.33 703.168)"/></g><g clip-path="url(#clip2)"><path d="M10.5206 23.3829 10.206 23.3829 0 0 20.8314 0 10.5206 23.3829M15.8682 2.65635 4.57871 2.65635C3.73986 2.65635 3.4253 2.79616 3.4253 3.18063 3.4253 3.4253 3.5651 3.94958 3.80977 4.47386L9.47199 17.5459 15.8682 2.65635Z" transform="matrix(1.0004 0 0 -1 1246.1 740.888)"/></g><g clip-path="url(#clip3)"><path d="M1.92236 16.4274C0.8738 16.4274 0 15.5536 0 14.4352 0 13.4216 0.8738 12.5478 1.88741 12.5478 2.97092 12.5478 3.87967 13.3866 3.87967 14.4352 3.87967 15.5187 2.97092 16.4274 1.92236 16.4274M1.92236 3.87967C0.8738 3.87967 0 3.00587 0 1.88741 0 0.8738 0.8738 0 1.88741 0 2.97092 0 3.87967 0.838848 3.87967 1.88741 3.87967 2.97092 2.97092 3.87967 1.92236 3.87967Z" transform="matrix(1.0004 0 0 -1 1270.57 741.272)"/></g><g clip-path="url(#clip4)"><path d="M5.20785 20.8663 12.0584 20.8663C12.6526 20.8663 12.7575 20.9013 12.8623 21.1809L14.1905 24.2916 13.8759 24.5363C13.3517 23.8373 13.0371 23.6276 12.2682 23.6276L4.96318 23.6276 1.15342 15.3439C1.11846 15.274 1.11846 15.2391 1.11846 15.1692 1.11846 14.9595 1.25827 14.8896 1.53789 14.8896 2.65635 14.8896 4.01948 14.6449 5.48746 14.1905 9.50694 12.8973 11.3244 10.7652 11.3244 7.27002 11.3244 3.91462 9.22733 1.29322 6.46612 1.29322 5.76708 1.29322 5.20785 1.53789 4.15929 2.30683 3.04082 3.14568 2.27188 3.46025 1.46798 3.46025 0.489328 3.46025 0 3.04082 0 2.16702 0 0.838848 1.60779 0 4.26414 0 7.16516 0 9.6817 0.943704 11.4643 2.72626 13.0371 4.2991 13.7711 6.29136 13.7711 8.94771 13.7711 11.4643 13.107 13.072 11.3944 14.8196 9.85646 16.3575 7.8642 17.1614 3.73986 17.8954L5.20785 20.8663Z" transform="matrix(1.0004 0 0 -1 1278.23 741.377)"/></g><path d="M1120.81 427.117C1120.81 463.994 1090.92 493.888 1054.04 493.888 1017.18 493.888 987.282 463.994 987.282 427.117 987.282 390.258 1017.18 360.36 1054.04 360.36 1090.92 360.36 1120.81 390.258 1120.81 427.117" fill="#EE7621" transform="matrix(1.0004 0 0 1 95.8841 508)"/><path d="M1120.81 427.117C1120.81 463.994 1090.92 493.888 1054.04 493.888 1017.18 493.888 987.282 463.994 987.282 427.117 987.282 390.258 1017.18 360.36 1054.04 360.36 1090.92 360.36 1120.81 390.258 1120.81 427.117" stroke="#2E3436" stroke-width="2.49653" stroke-miterlimit="10" fill="none" transform="matrix(1.0004 0 0 1 95.8841 508)"/><g clip-path="url(#clip5)"><path d="M7.65449 9.99627 0 9.99627 0 7.68944 7.65449 7.68944 7.65449 0 9.96132 0 9.96132 7.68944 17.6158 7.68944 17.6158 9.99627 9.96132 9.99627 9.96132 17.6857 7.65449 17.6857 7.65449 9.99627Z" transform="matrix(1.0004 0 0 -1 1140.16 925.632)"/></g><g clip-path="url(#clip6)"><path d="M10.5206 23.3829 10.206 23.3829 0 0 20.8314 0 10.5206 23.3829M15.8682 2.65635 4.57871 2.65635C3.73986 2.65635 3.4253 2.79616 3.4253 3.18063 3.4253 3.4253 3.5651 3.94958 3.80977 4.47386L9.47199 17.5459 15.8682 2.65635Z" transform="matrix(1.0004 0 0 -1 1126.21 963.086)"/></g><g clip-path="url(#clip7)"><path d="M1.92236 16.4274C0.8738 16.4274 0 15.5536 0 14.4352 0 13.4216 0.8738 12.5478 1.88741 12.5478 2.97092 12.5478 3.87967 13.3866 3.87967 14.4352 3.87967 15.5187 2.97092 16.4274 1.92236 16.4274M1.92236 3.87967C0.8738 3.87967 0 3.00587 0 1.88741 0 0.8738 0.8738 0 1.88741 0 2.97092 0 3.87967 0.838848 3.87967 1.88741 3.87967 2.97092 2.97092 3.87967 1.92236 3.87967Z" transform="matrix(1.0004 0 0 -1 1150.69 963.47)"/></g><g clip-path="url(#clip8)"><path d="M16.0779 8.07391 12.5128 8.07391 12.5128 23.6276 10.9749 23.6276 0 8.07391 0 5.83698 9.82151 5.83698 9.82151 0 12.5128 0 12.5128 5.83698 16.0779 5.83698 16.0779 8.07391M9.78656 8.07391 1.39808 8.07391 9.78656 20.0624 9.78656 8.07391Z" transform="matrix(1.0004 0 0 -1 1157.65 963.086)"/></g><path d="M883.637 651.813C883.637 688.687 853.74 718.57 816.88 718.57 780.003 718.57 750.12 688.687 750.12 651.813 750.12 614.936 780.003 585.056 816.88 585.056 853.74 585.056 883.637 614.936 883.637 651.813" fill="#EE7621" transform="matrix(1.0004 0 0 1 95.8841 508)"/><path d="M883.637 651.813C883.637 688.687 853.74 718.57 816.88 718.57 780.003 718.57 750.12 688.687 750.12 651.813 750.12 614.936 780.003 585.056 816.88 585.056 853.74 585.056 883.637 614.936 883.637 651.813" stroke="#2E3436" stroke-width="2.49653" stroke-miterlimit="10" fill="none" transform="matrix(1.0004 0 0 1 95.8841 508)"/><g clip-path="url(#clip9)"><path d="M7.65449 9.99627 0 9.99627 0 7.68944 7.65449 7.68944 7.65449 0 9.96132 0 9.96132 7.68944 17.6158 7.68944 17.6158 9.99627 9.96132 9.99627 9.96132 17.6857 7.65449 17.6857 7.65449 9.99627Z" transform="matrix(1.0004 0 0 -1 902.895 1150.33)"/></g><g clip-path="url(#clip10)"><path d="M10.5206 23.3829 10.206 23.3829 0 0 20.8314 0 10.5206 23.3829M15.8682 2.65635 4.57871 2.65635C3.73986 2.65635 3.4253 2.79616 3.4253 3.18063 3.4253 3.4253 3.5651 3.94958 3.80977 4.47386L9.47199 17.5459 15.8682 2.65635Z" transform="matrix(1.0004 0 0 -1 888.945 1187.77)"/></g><g clip-path="url(#clip11)"><path d="M1.92236 16.4274C0.8738 16.4274 0 15.5536 0 14.4352 0 13.4216 0.8738 12.5478 1.88741 12.5478 2.97092 12.5478 3.87967 13.3866 3.87967 14.4352 3.87967 15.5187 2.97092 16.4274 1.92236 16.4274M1.92236 3.87967C0.8738 3.87967 0 3.00587 0 1.88741 0 0.8738 0.8738 0 1.88741 0 2.97092 0 3.87967 0.838848 3.87967 1.88741 3.87967 2.97092 2.97092 3.87967 1.92236 3.87967Z" transform="matrix(1.0004 0 0 -1 913.421 1188.15)"/></g><g clip-path="url(#clip12)"><path d="M16.0779 8.07391 12.5128 8.07391 12.5128 23.6276 10.9749 23.6276 0 8.07391 0 5.83698 9.82151 5.83698 9.82151 0 12.5128 0 12.5128 5.83698 16.0779 5.83698 16.0779 8.07391M9.78656 8.07391 1.39808 8.07391 9.78656 20.0624 9.78656 8.07391Z" transform="matrix(1.0004 0 0 -1 920.379 1187.77)"/></g><path d="M766.295 876.492C766.295 913.369 736.416 943.263 699.539 943.263 662.665 943.263 632.782 913.369 632.782 876.492 632.782 839.633 662.665 809.735 699.539 809.735 736.416 809.735 766.295 839.633 766.295 876.492" fill="#EE7621" transform="matrix(1.0004 0 0 1 95.8841 508)"/><path d="M766.295 876.492C766.295 913.369 736.416 943.263 699.539 943.263 662.665 943.263 632.782 913.369 632.782 876.492 632.782 839.633 662.665 809.735 699.539 809.735 736.416 809.735 766.295 839.633 766.295 876.492" stroke="#2E3436" stroke-width="2.49653" stroke-miterlimit="10" fill="none" transform="matrix(1.0004 0 0 1 95.8841 508)"/><g clip-path="url(#clip13)"><path d="M6.85059 8.56324 0 1.6777 1.6777 0 8.52829 6.88554 15.4138 0 17.0915 1.6777 10.206 8.56324 17.0915 15.4138 15.4138 17.0915 8.52829 10.206 1.6777 17.0915 0 15.4138 6.85059 8.56324Z" transform="matrix(1.0004 0 0 -1 785.789 1374.73)"/></g><g clip-path="url(#clip14)"><path d="M10.5206 23.3829 10.206 23.3829 0 0 20.8314 0 10.5206 23.3829M15.8682 2.65635 4.57871 2.65635C3.73986 2.65635 3.4253 2.79616 3.4253 3.18063 3.4253 3.4253 3.5651 3.94958 3.80977 4.47386L9.47199 17.5459 15.8682 2.65635Z" transform="matrix(1.0004 0 0 -1 771.573 1412.46)"/></g><g clip-path="url(#clip15)"><path d="M1.92236 16.4274C0.8738 16.4274 0 15.5536 0 14.4352 0 13.4216 0.8738 12.5478 1.88741 12.5478 2.97092 12.5478 3.87967 13.3866 3.87967 14.4352 3.87967 15.5187 2.97092 16.4274 1.92236 16.4274M1.92236 3.87967C0.8738 3.87967 0 3.00587 0 1.88741 0 0.8738 0.8738 0 1.88741 0 2.97092 0 3.87967 0.838848 3.87967 1.88741 3.87967 2.97092 2.97092 3.87967 1.92236 3.87967Z" transform="matrix(1.0004 0 0 -1 796.049 1412.85)"/></g><g clip-path="url(#clip16)"><path d="M16.0779 8.07391 12.5128 8.07391 12.5128 23.6276 10.9749 23.6276 0 8.07391 0 5.83698 9.82151 5.83698 9.82151 0 12.5128 0 12.5128 5.83698 16.0779 5.83698 16.0779 8.07391M9.78656 8.07391 1.39808 8.07391 9.78656 20.0624 9.78656 8.07391Z" transform="matrix(1.0004 0 0 -1 803.007 1412.46)"/></g><path d="M648.957 1101.19C648.957 1138.06 619.074 1167.95 582.2 1167.95 545.327 1167.95 515.444 1138.06 515.444 1101.19 515.444 1064.31 545.327 1034.43 582.2 1034.43 619.074 1034.43 648.957 1064.31 648.957 1101.19" fill="#EE7621" transform="matrix(1.0004 0 0 1 95.8841 508)"/><path d="M648.957 1101.19C648.957 1138.06 619.074 1167.95 582.2 1167.95 545.327 1167.95 515.444 1138.06 515.444 1101.19 515.444 1064.31 545.327 1034.43 582.2 1034.43 619.074 1034.43 648.957 1064.31 648.957 1101.19" stroke="#2E3436" stroke-width="2.49653" stroke-miterlimit="10" fill="none" transform="matrix(1.0004 0 0 1 95.8841 508)"/><g clip-path="url(#clip17)"><path d="M6.85059 8.56324 0 1.6777 1.6777 0 8.52829 6.88554 15.4138 0 17.0915 1.6777 10.206 8.56324 17.0915 15.4138 15.4138 17.0915 8.52829 10.206 1.6777 17.0915 0 15.4138 6.85059 8.56324Z" transform="matrix(1.0004 0 0 -1 668.403 1599.42)"/></g><g clip-path="url(#clip18)"><path d="M10.5206 23.3829 10.206 23.3829 0 0 20.8314 0 10.5206 23.3829M15.8682 2.65635 4.57871 2.65635C3.73986 2.65635 3.4253 2.79616 3.4253 3.18063 3.4253 3.4253 3.5651 3.94958 3.80977 4.47386L9.47199 17.5459 15.8682 2.65635Z" transform="matrix(1.0004 0 0 -1 654.187 1637.14)"/></g><g clip-path="url(#clip19)"><path d="M1.92236 16.4274C0.8738 16.4274 0 15.5536 0 14.4352 0 13.4216 0.8738 12.5478 1.88741 12.5478 2.97092 12.5478 3.87967 13.3866 3.87967 14.4352 3.87967 15.5187 2.97092 16.4274 1.92236 16.4274M1.92236 3.87967C0.8738 3.87967 0 3.00587 0 1.88741 0 0.8738 0.8738 0 1.88741 0 2.97092 0 3.87967 0.838848 3.87967 1.88741 3.87967 2.97092 2.97092 3.87967 1.92236 3.87967Z" transform="matrix(1.0004 0 0 -1 678.663 1637.53)"/></g><g clip-path="url(#clip20)"><path d="M3.84472 12.0235C5.90689 12.0235 6.71078 11.9536 7.51468 11.639 9.71666 10.8351 11.0448 8.87781 11.0448 6.46612 11.0448 3.4952 9.08752 1.25827 6.50107 1.25827 5.52242 1.25827 4.82338 1.50294 3.53015 2.34178 2.51654 2.97092 1.92236 3.21558 1.32818 3.21558 0.52428 3.21558 0 2.72626 0 1.99226 0 0.768944 1.50294 0 3.94958 0 6.60593 0 9.36714 0.908752 11.0448 2.34178 12.6876 3.77482 13.5614 5.80203 13.5614 8.14382 13.5614 9.96132 13.0021 11.5691 12.0235 12.6526 11.2895 13.4216 10.6254 13.841 9.12247 14.5051 11.4992 16.1478 12.373 17.441 12.373 19.3285 12.373 22.1945 10.171 24.1169 6.9205 24.1169 5.1729 24.1169 3.63501 23.5227 2.37674 22.4042 1.32818 21.4256 0.803896 20.5518 0.069904 18.4547L0.594184 18.3148C1.99226 20.9013 3.5651 22.0198 5.76708 22.0198 8.07391 22.0198 9.6118 20.5168 9.6118 18.2799 9.6118 17.0216 9.08752 15.7983 8.21372 14.8896 7.16516 13.841 6.1865 13.3167 3.80977 12.4779L3.84472 12.0235Z" transform="matrix(1.0004 0 0 -1 686.705 1637.63)"/></g><path d="M411.796 1323.37C411.796 1360.24 381.902 1390.13 345.025 1390.13 308.165 1390.13 278.268 1360.24 278.268 1323.37 278.268 1286.51 308.165 1256.61 345.025 1256.61 381.902 1256.61 411.796 1286.51 411.796 1323.37" fill="#EE7621" transform="matrix(1.0004 0 0 1 95.8841 508)"/><path d="M411.796 1323.37C411.796 1360.24 381.902 1390.13 345.025 1390.13 308.165 1390.13 278.268 1360.24 278.268 1323.37 278.268 1286.51 308.165 1256.61 345.025 1256.61 381.902 1256.61 411.796 1286.51 411.796 1323.37" stroke="#2E3436" stroke-width="2.49653" stroke-miterlimit="10" fill="none" transform="matrix(1.0004 0 0 1 95.8841 508)"/><g clip-path="url(#clip21)"><path d="M6.85059 8.56324 0 1.6777 1.6777 0 8.52829 6.88554 15.4138 0 17.0915 1.6777 10.206 8.56324 17.0915 15.4138 15.4138 17.0915 8.52829 10.206 1.6777 17.0915 0 15.4138 6.85059 8.56324Z" transform="matrix(1.0004 0 0 -1 431.147 1821.61)"/></g><g clip-path="url(#clip22)"><path d="M10.5206 23.3829 10.206 23.3829 0 0 20.8314 0 10.5206 23.3829M15.8682 2.65635 4.57871 2.65635C3.73986 2.65635 3.4253 2.79616 3.4253 3.18063 3.4253 3.4253 3.5651 3.94958 3.80977 4.47386L9.47199 17.5459 15.8682 2.65635Z" transform="matrix(1.0004 0 0 -1 416.917 1859.34)"/></g><g clip-path="url(#clip23)"><path d="M1.92236 16.4274C0.8738 16.4274 0 15.5536 0 14.4352 0 13.4216 0.8738 12.5478 1.88741 12.5478 2.97092 12.5478 3.87967 13.3866 3.87967 14.4352 3.87967 15.5187 2.97092 16.4274 1.92236 16.4274M1.92236 3.87967C0.8738 3.87967 0 3.00587 0 1.88741 0 0.8738 0.8738 0 1.88741 0 2.97092 0 3.87967 0.838848 3.87967 1.88741 3.87967 2.97092 2.97092 3.87967 1.92236 3.87967Z" transform="matrix(1.0004 0 0 -1 441.394 1859.72)"/></g><g clip-path="url(#clip24)"><path d="M15.5536 4.78842 15.0993 4.96318C13.806 2.93597 13.4216 2.6913 11.7788 2.65635L3.4253 2.65635 9.29723 8.8079C12.408 12.0584 13.7711 14.7148 13.7711 17.441 13.7711 20.9362 10.94 23.6276 7.30497 23.6276 5.38261 23.6276 3.5651 22.8586 2.27188 21.4605 1.15342 20.2722 0.629136 19.1537 0.034952 16.6721L0.768944 16.4973C2.16702 19.9226 3.39034 21.0411 5.83698 21.0411 8.8079 21.0411 10.7652 19.0488 10.7652 16.1129 10.7652 13.3517 9.15742 10.1361 6.22146 7.02535L0 0.419424 0 0 13.6313 0 15.5536 4.78842Z" transform="matrix(1.0004 0 0 -1 448.981 1859.34)"/></g><path d="M291.962 1548.07C291.962 1584.94 262.064 1614.82 225.205 1614.82 188.331 1614.82 158.434 1584.94 158.434 1548.07 158.434 1511.19 188.331 1481.31 225.205 1481.31 262.064 1481.31 291.962 1511.19 291.962 1548.07" fill="#EE7621" transform="matrix(1.0004 0 0 1 95.8841 508)"/><path d="M291.962 1548.07C291.962 1584.94 262.064 1614.82 225.205 1614.82 188.331 1614.82 158.434 1584.94 158.434 1548.07 158.434 1511.19 188.331 1481.31 225.205 1481.31 262.064 1481.31 291.962 1511.19 291.962 1548.07" stroke="#2E3436" stroke-width="2.49653" stroke-miterlimit="10" fill="none" transform="matrix(1.0004 0 0 1 95.8841 508)"/><g clip-path="url(#clip25)"><path d="M14.1556 2.65635C13.5614 2.16702 13.142 1.99226 12.6177 1.99226 11.8138 1.99226 11.5691 2.48159 11.5691 4.01948L11.5691 10.8351C11.5691 12.6526 11.3944 13.6662 10.8701 14.5051 10.1011 15.7634 8.59819 16.4274 6.53602 16.4274 3.25054 16.4274 0.664088 14.7148 0.664088 12.5128 0.664088 11.7089 1.32818 11.0099 2.16702 11.0099 3.00587 11.0099 3.73986 11.7089 3.73986 12.4779 3.73986 12.6177 3.70491 12.7924 3.66996 13.0371 3.60006 13.3517 3.5651 13.6313 3.5651 13.8759 3.5651 14.8196 4.68357 15.5886 6.08165 15.5886 7.7943 15.5886 8.738 14.575 8.738 12.6876L8.738 10.5555C3.39034 8.42343 2.76121 8.10886 1.25827 6.78069 0.489328 6.08165 0 4.89328 0 3.73986 0 1.53789 1.53789 0 3.66996 0 5.20785 0 6.64088 0.733992 8.77295 2.5515 8.94771 0.69904 9.57685 0 11.0099 0 12.1982 0 12.9322 0.419424 14.1556 1.7476L14.1556 2.65635M8.738 4.64862C8.738 3.60006 8.56324 3.21558 7.82925 2.79616 6.95545 2.30683 6.01174 2.02722 5.27775 2.02722 4.05443 2.02722 3.07578 3.21558 3.07578 4.71852L3.07578 4.85833C3.11073 6.95545 4.64862 8.28362 8.738 9.71666L8.738 4.64862Z" transform="matrix(1.0004 0 0 -1 313.726 2046.93)"/></g><g clip-path="url(#clip26)"><path d="M10.5206 23.3829 10.206 23.3829 0 0 20.8314 0 10.5206 23.3829M15.8682 2.65635 4.57871 2.65635C3.73986 2.65635 3.4253 2.79616 3.4253 3.18063 3.4253 3.4253 3.5651 3.94958 3.80977 4.47386L9.47199 17.5459 15.8682 2.65635Z" transform="matrix(1.0004 0 0 -1 297.034 2084.02)"/></g><g clip-path="url(#clip27)"><path d="M1.92236 16.4274C0.8738 16.4274 0 15.5536 0 14.4352 0 13.4216 0.8738 12.5478 1.88741 12.5478 2.97092 12.5478 3.87967 13.3866 3.87967 14.4352 3.87967 15.5187 2.97092 16.4274 1.92236 16.4274M1.92236 3.87967C0.8738 3.87967 0 3.00587 0 1.88741 0 0.8738 0.8738 0 1.88741 0 2.97092 0 3.87967 0.838848 3.87967 1.88741 3.87967 2.97092 2.97092 3.87967 1.92236 3.87967Z" transform="matrix(1.0004 0 0 -1 321.51 2084.41)"/></g><g clip-path="url(#clip28)"><path d="M0.244664 0 9.89142 0 9.89142 0.52428C7.20011 0.52428 6.60593 0.908752 6.57098 2.58645L6.57098 23.5576 6.29136 23.6276 0 20.4469 0 19.9576C1.36313 20.4819 2.20198 20.7265 2.51654 20.7265 3.25054 20.7265 3.5651 20.2023 3.5651 19.0838L3.5651 3.25054C3.4952 1.04856 2.90102 0.559232 0.244664 0.52428L0.244664 0Z" transform="matrix(1.0004 0 0 -1 331.93 2084.02)"/></g><path d="M529.123 1548.07C529.123 1584.94 499.24 1614.82 462.366 1614.82 425.504 1614.82 395.606 1584.94 395.606 1548.07 395.606 1511.19 425.504 1481.31 462.366 1481.31 499.24 1481.31 529.123 1511.19 529.123 1548.07" fill="#EE7621" transform="matrix(1.0004 0 0 1 95.8841 508)"/><path d="M529.123 1548.07C529.123 1584.94 499.24 1614.82 462.366 1614.82 425.504 1614.82 395.606 1584.94 395.606 1548.07 395.606 1511.19 425.504 1481.31 462.366 1481.31 499.24 1481.31 529.123 1511.19 529.123 1548.07" stroke="#2E3436" stroke-width="2.49653" stroke-miterlimit="10" fill="none" transform="matrix(1.0004 0 0 1 95.8841 508)"/><g clip-path="url(#clip29)"><path d="M5.2428 24.1518 5.06804 24.2217C3.63501 23.7324 2.6913 23.4178 1.01361 22.9635L0 22.6838 0 22.1246C0.209712 22.1596 0.314568 22.1596 0.594184 22.1596 1.99226 22.1596 2.30683 21.845 2.30683 20.377L2.30683 2.23693C2.30683 1.15342 5.2428 0 8.07391 0 12.6876 0 16.2527 3.84472 16.2527 8.84286 16.2527 13.1769 13.5963 16.4274 10.1011 16.4274 7.96906 16.4274 5.94184 15.2041 5.2428 13.4565L5.2428 24.1518M5.2428 11.6041C5.2428 12.9672 6.88554 14.2255 8.70305 14.2255 9.6817 14.2255 10.5555 13.8759 11.2895 13.2119 12.408 12.1283 13.1769 9.75161 13.1769 7.23506 13.1769 3.35539 11.4992 1.11846 8.63314 1.11846 6.81564 1.11846 5.2428 1.88741 5.2428 2.79616L5.2428 11.6041Z" transform="matrix(1.0004 0 0 -1 549.807 2046.93)"/></g><g clip-path="url(#clip30)"><path d="M10.5206 23.3829 10.206 23.3829 0 0 20.8314 0 10.5206 23.3829M15.8682 2.65635 4.57871 2.65635C3.73986 2.65635 3.4253 2.79616 3.4253 3.18063 3.4253 3.4253 3.5651 3.94958 3.80977 4.47386L9.47199 17.5459 15.8682 2.65635Z" transform="matrix(1.0004 0 0 -1 534.303 2084.02)"/></g><g clip-path="url(#clip31)"><path d="M1.92236 16.4274C0.8738 16.4274 0 15.5536 0 14.4352 0 13.4216 0.8738 12.5478 1.88741 12.5478 2.97092 12.5478 3.87967 13.3866 3.87967 14.4352 3.87967 15.5187 2.97092 16.4274 1.92236 16.4274M1.92236 3.87967C0.8738 3.87967 0 3.00587 0 1.88741 0 0.8738 0.8738 0 1.88741 0 2.97092 0 3.87967 0.838848 3.87967 1.88741 3.87967 2.97092 2.97092 3.87967 1.92236 3.87967Z" transform="matrix(1.0004 0 0 -1 558.78 2084.41)"/></g><g clip-path="url(#clip32)"><path d="M0.244664 0 9.89142 0 9.89142 0.52428C7.20011 0.52428 6.60593 0.908752 6.57098 2.58645L6.57098 23.5576 6.29136 23.6276 0 20.4469 0 19.9576C1.36313 20.4819 2.20198 20.7265 2.51654 20.7265 3.25054 20.7265 3.5651 20.2023 3.5651 19.0838L3.5651 3.25054C3.4952 1.04856 2.90102 0.559232 0.244664 0.52428L0.244664 0Z" transform="matrix(1.0004 0 0 -1 569.199 2084.02)"/></g><path d="M648.957 1323.37C648.957 1360.24 619.074 1390.13 582.2 1390.13 545.327 1390.13 515.444 1360.24 515.444 1323.37 515.444 1286.51 545.327 1256.61 582.2 1256.61 619.074 1256.61 648.957 1286.51 648.957 1323.37" fill="#FFFFF0" transform="matrix(1.0004 0 0 1 95.8841 508)"/><path d="M648.957 1323.37C648.957 1360.24 619.074 1390.13 582.2 1390.13 545.327 1390.13 515.444 1360.24 515.444 1323.37 515.444 1286.51 545.327 1256.61 582.2 1256.61 619.074 1256.61 648.957 1286.51 648.957 1323.37" stroke="#2E3436" stroke-width="2.49653" stroke-miterlimit="10" fill="none" transform="matrix(1.0004 0 0 1 95.8841 508)"/><g clip-path="url(#clip33)"><path d="M13.0371 5.80203C11.3594 3.35539 10.1011 2.51654 8.10886 2.51654 4.89328 2.51654 2.6913 5.3127 2.6913 9.33218 2.6913 12.9672 4.61366 15.4138 7.44478 15.4138 8.70305 15.4138 9.15742 15.0643 9.50694 13.7361L9.71666 12.9672C9.99627 11.9536 10.6254 11.3594 11.3944 11.3594 12.3031 11.3594 13.0371 12.0235 13.0371 12.8274 13.0371 14.7847 10.5905 16.4274 7.65449 16.4274 5.94184 16.4274 4.15929 15.7284 2.72626 14.4701 0.978656 12.9322 0 10.5555 0 7.75934 0 3.25054 2.76121 0 6.64088 0 8.21372 0 9.6118 0.559232 10.8701 1.64274 11.8138 2.44664 12.4779 3.4253 13.5264 5.48746L13.0371 5.80203Z" transform="matrix(1.0004 0 0 -1 670.459 1822.24)"/></g><g clip-path="url(#clip34)"><path d="M10.5206 23.3829 10.206 23.3829 0 0 20.8314 0 10.5206 23.3829M15.8682 2.65635 4.57871 2.65635C3.73986 2.65635 3.4253 2.79616 3.4253 3.18063 3.4253 3.4253 3.5651 3.94958 3.80977 4.47386L9.47199 17.5459 15.8682 2.65635Z" transform="matrix(1.0004 0 0 -1 654.187 1859.34)"/></g><g clip-path="url(#clip35)"><path d="M1.92236 16.4274C0.8738 16.4274 0 15.5536 0 14.4352 0 13.4216 0.8738 12.5478 1.88741 12.5478 2.97092 12.5478 3.87967 13.3866 3.87967 14.4352 3.87967 15.5187 2.97092 16.4274 1.92236 16.4274M1.92236 3.87967C0.8738 3.87967 0 3.00587 0 1.88741 0 0.8738 0.8738 0 1.88741 0 2.97092 0 3.87967 0.838848 3.87967 1.88741 3.87967 2.97092 2.97092 3.87967 1.92236 3.87967Z" transform="matrix(1.0004 0 0 -1 678.663 1859.72)"/></g><g clip-path="url(#clip36)"><path d="M0.244664 0 9.89142 0 9.89142 0.52428C7.20011 0.52428 6.60593 0.908752 6.57098 2.58645L6.57098 23.5576 6.29136 23.6276 0 20.4469 0 19.9576C1.36313 20.4819 2.20198 20.7265 2.51654 20.7265 3.25054 20.7265 3.5651 20.2023 3.5651 19.0838L3.5651 3.25054C3.4952 1.04856 2.90102 0.559232 0.244664 0.52428L0.244664 0Z" transform="matrix(1.0004 0 0 -1 689.083 1859.34)"/></g><path d="M883.637 1101.19C883.637 1138.06 853.74 1167.95 816.88 1167.95 780.003 1167.95 750.12 1138.06 750.12 1101.19 750.12 1064.31 780.003 1034.43 816.88 1034.43 853.74 1034.43 883.637 1064.31 883.637 1101.19" fill="#FFFFF0" transform="matrix(1.0004 0 0 1 95.8841 508)"/><path d="M883.637 1101.19C883.637 1138.06 853.74 1167.95 816.88 1167.95 780.003 1167.95 750.12 1138.06 750.12 1101.19 750.12 1064.31 780.003 1034.43 816.88 1034.43 853.74 1034.43 883.637 1064.31 883.637 1101.19" stroke="#2E3436" stroke-width="2.49653" stroke-miterlimit="10" fill="none" transform="matrix(1.0004 0 0 1 95.8841 508)"/><g clip-path="url(#clip37)"><path d="M6.85059 8.56324 0 1.6777 1.6777 0 8.52829 6.88554 15.4138 0 17.0915 1.6777 10.206 8.56324 17.0915 15.4138 15.4138 17.0915 8.52829 10.206 1.6777 17.0915 0 15.4138 6.85059 8.56324Z" transform="matrix(1.0004 0 0 -1 903.175 1599.42)"/></g><g clip-path="url(#clip38)"><path d="M10.5206 23.3829 10.206 23.3829 0 0 20.8314 0 10.5206 23.3829M15.8682 2.65635 4.57871 2.65635C3.73986 2.65635 3.4253 2.79616 3.4253 3.18063 3.4253 3.4253 3.5651 3.94958 3.80977 4.47386L9.47199 17.5459 15.8682 2.65635Z" transform="matrix(1.0004 0 0 -1 888.945 1637.14)"/></g><g clip-path="url(#clip39)"><path d="M1.92236 16.4274C0.8738 16.4274 0 15.5536 0 14.4352 0 13.4216 0.8738 12.5478 1.88741 12.5478 2.97092 12.5478 3.87967 13.3866 3.87967 14.4352 3.87967 15.5187 2.97092 16.4274 1.92236 16.4274M1.92236 3.87967C0.8738 3.87967 0 3.00587 0 1.88741 0 0.8738 0.8738 0 1.88741 0 2.97092 0 3.87967 0.838848 3.87967 1.88741 3.87967 2.97092 2.97092 3.87967 1.92236 3.87967Z" transform="matrix(1.0004 0 0 -1 913.421 1637.53)"/></g><g clip-path="url(#clip40)"><path d="M15.5536 4.78842 15.0993 4.96318C13.806 2.93597 13.4216 2.6913 11.7788 2.65635L3.4253 2.65635 9.29723 8.8079C12.408 12.0584 13.7711 14.7148 13.7711 17.441 13.7711 20.9362 10.94 23.6276 7.30497 23.6276 5.38261 23.6276 3.5651 22.8586 2.27188 21.4605 1.15342 20.2722 0.629136 19.1537 0.034952 16.6721L0.768944 16.4973C2.16702 19.9226 3.39034 21.0411 5.83698 21.0411 8.8079 21.0411 10.7652 19.0488 10.7652 16.1129 10.7652 13.3517 9.15742 10.1361 6.22146 7.02535L0 0.419424 0 0 13.6313 0 15.5536 4.78842Z" transform="matrix(1.0004 0 0 -1 921.009 1637.14)"/></g><path d="M883.637 1323.37C883.637 1360.24 853.74 1390.13 816.88 1390.13 780.003 1390.13 750.12 1360.24 750.12 1323.37 750.12 1286.51 780.003 1256.61 816.88 1256.61 853.74 1256.61 883.637 1286.51 883.637 1323.37" fill="#FFFFF0" transform="matrix(1.0004 0 0 1 95.8841 508)"/><path d="M883.637 1323.37C883.637 1360.24 853.74 1390.13 816.88 1390.13 780.003 1390.13 750.12 1360.24 750.12 1323.37 750.12 1286.51 780.003 1256.61 816.88 1256.61 853.74 1256.61 883.637 1286.51 883.637 1323.37" stroke="#2E3436" stroke-width="2.49653" stroke-miterlimit="10" fill="none" transform="matrix(1.0004 0 0 1 95.8841 508)"/><g clip-path="url(#clip41)"><path d="M16.2177 2.37674C15.7634 2.34178 15.5536 2.34178 15.4138 2.34178 14.1905 2.34178 13.8759 2.72626 13.8759 4.33405L13.8759 24.1518 13.7012 24.2217C12.0584 23.6625 10.8701 23.278 8.56324 22.6838L8.56324 22.1246C8.84286 22.1596 9.01762 22.1596 9.33218 22.1596 10.6254 22.1596 10.94 21.81 10.94 20.377L10.94 14.9245C9.6118 16.043 8.6681 16.4274 7.27002 16.4274 3.25054 16.4274 0 12.4779 0 7.51468 0 3.04082 2.58645 0 6.46612 0 8.42343 0 9.75161 0.69904 10.94 2.34178L10.94 0.104856 11.0798 0 16.2177 1.8175 16.2177 2.37674M10.94 3.91462C10.94 3.66996 10.6953 3.25054 10.3458 2.86606 9.75161 2.16702 8.84286 1.8175 7.82925 1.8175 4.89328 1.8175 3.00587 4.61366 3.00587 8.94771 3.00587 12.8623 4.71852 15.4488 7.37487 15.4488 9.26228 15.4488 10.94 13.806 10.94 11.9536L10.94 3.91462Z" transform="matrix(1.0004 0 0 -1 905.287 1822.24)"/></g><g clip-path="url(#clip42)"><path d="M10.5206 23.3829 10.206 23.3829 0 0 20.8314 0 10.5206 23.3829M15.8682 2.65635 4.57871 2.65635C3.73986 2.65635 3.4253 2.79616 3.4253 3.18063 3.4253 3.4253 3.5651 3.94958 3.80977 4.47386L9.47199 17.5459 15.8682 2.65635Z" transform="matrix(1.0004 0 0 -1 888.945 1859.34)"/></g><g clip-path="url(#clip43)"><path d="M1.92236 16.4274C0.8738 16.4274 0 15.5536 0 14.4352 0 13.4216 0.8738 12.5478 1.88741 12.5478 2.97092 12.5478 3.87967 13.3866 3.87967 14.4352 3.87967 15.5187 2.97092 16.4274 1.92236 16.4274M1.92236 3.87967C0.8738 3.87967 0 3.00587 0 1.88741 0 0.8738 0.8738 0 1.88741 0 2.97092 0 3.87967 0.838848 3.87967 1.88741 3.87967 2.97092 2.97092 3.87967 1.92236 3.87967Z" transform="matrix(1.0004 0 0 -1 913.421 1859.72)"/></g><g clip-path="url(#clip44)"><path d="M0.244664 0 9.89142 0 9.89142 0.52428C7.20011 0.52428 6.60593 0.908752 6.57098 2.58645L6.57098 23.5576 6.29136 23.6276 0 20.4469 0 19.9576C1.36313 20.4819 2.20198 20.7265 2.51654 20.7265 3.25054 20.7265 3.5651 20.2023 3.5651 19.0838L3.5651 3.25054C3.4952 1.04856 2.90102 0.559232 0.244664 0.52428L0.244664 0Z" transform="matrix(1.0004 0 0 -1 923.841 1859.34)"/></g><path d="M1120.81 1323.37C1120.81 1360.24 1090.92 1390.13 1054.04 1390.13 1017.18 1390.13 987.282 1360.24 987.282 1323.37 987.282 1286.51 1017.18 1256.61 1054.04 1256.61 1090.92 1256.61 1120.81 1286.51 1120.81 1323.37" fill="#FFFFF0" transform="matrix(1.0004 0 0 1 95.8841 508)"/><path d="M1120.81 1323.37C1120.81 1360.24 1090.92 1390.13 1054.04 1390.13 1017.18 1390.13 987.282 1360.24 987.282 1323.37 987.282 1286.51 1017.18 1256.61 1054.04 1256.61 1090.92 1256.61 1120.81 1286.51 1120.81 1323.37" stroke="#2E3436" stroke-width="2.49653" stroke-miterlimit="10" fill="none" transform="matrix(1.0004 0 0 1 95.8841 508)"/><g clip-path="url(#clip45)"><path d="M13.3866 6.08165C11.7089 3.4253 10.206 2.41169 7.96906 2.41169 5.97679 2.41169 4.47386 3.4253 3.46025 5.41756 2.83111 6.74574 2.58645 7.8642 2.51654 10.0312L13.2818 10.0312C13.0021 12.3031 12.6526 13.3167 11.7788 14.4352 10.7303 15.6934 9.12247 16.4274 7.30497 16.4274 5.55737 16.4274 3.91462 15.7983 2.58645 14.6099 0.943704 13.1769 0 10.6953 0 7.82925 0 3.00587 2.51654 0 6.53602 0 9.85646 0 12.4779 2.06217 13.9458 5.83698L13.3866 6.08165M2.58645 11.1497C2.97092 13.8759 4.15929 15.1692 6.29136 15.1692 8.42343 15.1692 9.26228 14.1905 9.71666 11.1497L2.58645 11.1497Z" transform="matrix(1.0004 0 0 -1 1142.49 1822.24)"/></g><g clip-path="url(#clip46)"><path d="M10.5206 23.3829 10.206 23.3829 0 0 20.8314 0 10.5206 23.3829M15.8682 2.65635 4.57871 2.65635C3.73986 2.65635 3.4253 2.79616 3.4253 3.18063 3.4253 3.4253 3.5651 3.94958 3.80977 4.47386L9.47199 17.5459 15.8682 2.65635Z" transform="matrix(1.0004 0 0 -1 1126.21 1859.34)"/></g><g clip-path="url(#clip47)"><path d="M1.92236 16.4274C0.8738 16.4274 0 15.5536 0 14.4352 0 13.4216 0.8738 12.5478 1.88741 12.5478 2.97092 12.5478 3.87967 13.3866 3.87967 14.4352 3.87967 15.5187 2.97092 16.4274 1.92236 16.4274M1.92236 3.87967C0.8738 3.87967 0 3.00587 0 1.88741 0 0.8738 0.8738 0 1.88741 0 2.97092 0 3.87967 0.838848 3.87967 1.88741 3.87967 2.97092 2.97092 3.87967 1.92236 3.87967Z" transform="matrix(1.0004 0 0 -1 1150.69 1859.72)"/></g><g clip-path="url(#clip48)"><path d="M0.244664 0 9.89142 0 9.89142 0.52428C7.20011 0.52428 6.60593 0.908752 6.57098 2.58645L6.57098 23.5576 6.29136 23.6276 0 20.4469 0 19.9576C1.36313 20.4819 2.20198 20.7265 2.51654 20.7265 3.25054 20.7265 3.5651 20.2023 3.5651 19.0838L3.5651 3.25054C3.4952 1.04856 2.90102 0.559232 0.244664 0.52428L0.244664 0Z" transform="matrix(1.0004 0 0 -1 1161.11 1859.34)"/></g><path d="M1003.47 876.492C1003.47 913.369 973.574 943.263 936.714 943.263 899.841 943.263 869.958 913.369 869.958 876.492 869.958 839.633 899.841 809.735 936.714 809.735 973.574 809.735 1003.47 839.633 1003.47 876.492" fill="#FFFFF0" transform="matrix(1.0004 0 0 1 95.8841 508)"/><path d="M1003.47 876.492C1003.47 913.369 973.574 943.263 936.714 943.263 899.841 943.263 869.958 913.369 869.958 876.492 869.958 839.633 899.841 809.735 936.714 809.735 973.574 809.735 1003.47 839.633 1003.47 876.492" stroke="#2E3436" stroke-width="2.49653" stroke-miterlimit="10" fill="none" transform="matrix(1.0004 0 0 1 95.8841 508)"/><g clip-path="url(#clip49)"><path d="M10.1011 15.7284 5.80203 15.7284 5.80203 19.7828C5.80203 21.845 6.46612 22.8936 7.7943 22.8936 8.56324 22.8936 9.01762 22.544 9.64675 21.5304 10.206 20.6217 10.6254 20.2722 11.2196 20.2722 12.0584 20.2722 12.6876 20.9013 12.6876 21.7052 12.6876 22.9635 11.1497 23.8722 9.05257 23.8722 6.85059 23.8722 5.03309 22.9285 4.12434 21.3557 3.21558 19.7828 2.93597 18.5246 2.90102 15.7284L0.034952 15.7284 0.034952 14.6099 2.90102 14.6099 2.90102 3.63501C2.83111 1.01361 2.48159 0.629136 0 0.52428L0 0 9.08752 0 9.08752 0.52428C6.22146 0.629136 5.83698 1.01361 5.83698 3.63501L5.83698 14.6099 10.1011 14.6099 10.1011 15.7284Z" transform="matrix(1.0004 0 0 -1 1027.42 1375.01)"/></g><g clip-path="url(#clip50)"><path d="M10.5206 23.3829 10.206 23.3829 0 0 20.8314 0 10.5206 23.3829M15.8682 2.65635 4.57871 2.65635C3.73986 2.65635 3.4253 2.79616 3.4253 3.18063 3.4253 3.4253 3.5651 3.94958 3.80977 4.47386L9.47199 17.5459 15.8682 2.65635Z" transform="matrix(1.0004 0 0 -1 1008.83 1412.46)"/></g><g clip-path="url(#clip51)"><path d="M1.92236 16.4274C0.8738 16.4274 0 15.5536 0 14.4352 0 13.4216 0.8738 12.5478 1.88741 12.5478 2.97092 12.5478 3.87967 13.3866 3.87967 14.4352 3.87967 15.5187 2.97092 16.4274 1.92236 16.4274M1.92236 3.87967C0.8738 3.87967 0 3.00587 0 1.88741 0 0.8738 0.8738 0 1.88741 0 2.97092 0 3.87967 0.838848 3.87967 1.88741 3.87967 2.97092 2.97092 3.87967 1.92236 3.87967Z" transform="matrix(1.0004 0 0 -1 1033.3 1412.85)"/></g><g clip-path="url(#clip52)"><path d="M0.244664 0 9.89142 0 9.89142 0.52428C7.20011 0.52428 6.60593 0.908752 6.57098 2.58645L6.57098 23.5576 6.29136 23.6276 0 20.4469 0 19.9576C1.36313 20.4819 2.20198 20.7265 2.51654 20.7265 3.25054 20.7265 3.5651 20.2023 3.5651 19.0838L3.5651 3.25054C3.4952 1.04856 2.90102 0.559232 0.244664 0.52428L0.244664 0Z" transform="matrix(1.0004 0 0 -1 1043.72 1412.46)"/></g><path d="M1120.81 651.813C1120.81 688.687 1090.92 718.57 1054.04 718.57 1017.18 718.57 987.282 688.687 987.282 651.813 987.282 614.936 1017.18 585.056 1054.04 585.056 1090.92 585.056 1120.81 614.936 1120.81 651.813" fill="#FFFFF0" transform="matrix(1.0004 0 0 1 95.8841 508)"/><path d="M1120.81 651.813C1120.81 688.687 1090.92 718.57 1054.04 718.57 1017.18 718.57 987.282 688.687 987.282 651.813 987.282 614.936 1017.18 585.056 1054.04 585.056 1090.92 585.056 1120.81 614.936 1120.81 651.813" stroke="#2E3436" stroke-width="2.49653" stroke-miterlimit="10" fill="none" transform="matrix(1.0004 0 0 1 95.8841 508)"/><g clip-path="url(#clip53)"><path d="M15.4488 21.1809 15.4488 22.544 12.7575 22.544C12.0235 22.544 11.5342 22.6489 10.8351 22.8936L10.0662 23.1732C9.15742 23.5227 8.17877 23.6975 7.27002 23.6975 4.01948 23.6975 1.43303 21.2159 1.43303 18.0003 1.43303 15.7983 2.34178 14.4701 4.68357 13.3167L3.77482 12.4779C3.04082 11.7788 2.6214 11.3944 2.51654 11.2545 1.78255 10.4856 1.57284 10.1011 1.57284 9.50694 1.57284 8.738 1.95731 8.35353 3.4253 7.65449 0.908752 5.83698 0 4.68357 0 3.39034 0 1.53789 2.6913 0 6.0467 0 8.6681 0 11.3944 0.908752 13.2119 2.37674 14.54 3.46025 15.1342 4.57871 15.1342 5.90689 15.1342 8.07391 13.4915 9.50694 10.905 9.64675L6.39622 9.85646C4.50881 9.92637 3.66996 10.2409 3.66996 10.8002 3.66996 11.4992 4.82338 12.7225 5.76708 13.0021 7.02535 12.8973 7.68944 12.8274 7.75934 12.8274 9.05257 12.8274 10.4506 13.3517 11.5342 14.2954 12.6876 15.274 13.2119 16.4973 13.2119 18.2449 13.2119 19.2586 13.0371 20.0624 12.5478 21.1809L15.4488 21.1809M4.15929 7.54963C5.34766 7.30497 8.07391 7.09526 9.85646 7.09526 13.0021 7.09526 14.1556 6.64088 14.1556 5.38261 14.1556 3.35539 11.4992 1.99226 7.54963 1.99226 4.4389 1.99226 2.44664 3.00587 2.44664 4.54376 2.44664 5.34766 2.76121 5.87194 4.15929 7.54963M4.33405 19.4333C4.33405 21.4955 5.3127 22.7188 6.9205 22.7188 8.00401 22.7188 8.91276 22.1246 9.47199 21.0761 10.1361 19.8527 10.5206 18.2799 10.5206 16.8818 10.5206 14.9245 9.5419 13.7012 7.9341 13.7012 5.76708 13.7012 4.33405 15.9731 4.33405 19.3285L4.33405 19.4333Z" transform="matrix(1.0004 0 0 -1 1142.59 1157.95)"/></g><g clip-path="url(#clip54)"><path d="M10.5206 23.3829 10.206 23.3829 0 0 20.8314 0 10.5206 23.3829M15.8682 2.65635 4.57871 2.65635C3.73986 2.65635 3.4253 2.79616 3.4253 3.18063 3.4253 3.4253 3.5651 3.94958 3.80977 4.47386L9.47199 17.5459 15.8682 2.65635Z" transform="matrix(1.0004 0 0 -1 1126.21 1187.77)"/></g><g clip-path="url(#clip55)"><path d="M1.92236 16.4274C0.8738 16.4274 0 15.5536 0 14.4352 0 13.4216 0.8738 12.5478 1.88741 12.5478 2.97092 12.5478 3.87967 13.3866 3.87967 14.4352 3.87967 15.5187 2.97092 16.4274 1.92236 16.4274M1.92236 3.87967C0.8738 3.87967 0 3.00587 0 1.88741 0 0.8738 0.8738 0 1.88741 0 2.97092 0 3.87967 0.838848 3.87967 1.88741 3.87967 2.97092 2.97092 3.87967 1.92236 3.87967Z" transform="matrix(1.0004 0 0 -1 1150.69 1188.15)"/></g><g clip-path="url(#clip56)"><path d="M0.244664 0 9.89142 0 9.89142 0.52428C7.20011 0.52428 6.60593 0.908752 6.57098 2.58645L6.57098 23.5576 6.29136 23.6276 0 20.4469 0 19.9576C1.36313 20.4819 2.20198 20.7265 2.51654 20.7265 3.25054 20.7265 3.5651 20.2023 3.5651 19.0838L3.5651 3.25054C3.4952 1.04856 2.90102 0.559232 0.244664 0.52428L0.244664 0Z" transform="matrix(1.0004 0 0 -1 1161.11 1187.77)"/></g><path d="M1357.97 427.117C1357.97 463.994 1328.09 493.888 1291.21 493.888 1254.35 493.888 1224.46 463.994 1224.46 427.117 1224.46 390.258 1254.35 360.36 1291.21 360.36 1328.09 360.36 1357.97 390.258 1357.97 427.117" fill="#FFFFF0" transform="matrix(1.0004 0 0 1 95.8841 508)"/><path d="M1357.97 427.117C1357.97 463.994 1328.09 493.888 1291.21 493.888 1254.35 493.888 1224.46 463.994 1224.46 427.117 1224.46 390.258 1254.35 360.36 1291.21 360.36 1328.09 360.36 1357.97 390.258 1357.97 427.117" stroke="#2E3436" stroke-width="2.49653" stroke-miterlimit="10" fill="none" transform="matrix(1.0004 0 0 1 95.8841 508)"/><g clip-path="url(#clip57)"><path d="M6.85059 8.56324 0 1.6777 1.6777 0 8.52829 6.88554 15.4138 0 17.0915 1.6777 10.206 8.56324 17.0915 15.4138 15.4138 17.0915 8.52829 10.206 1.6777 17.0915 0 15.4138 6.85059 8.56324Z" transform="matrix(1.0004 0 0 -1 1377.71 925.353)"/></g><g clip-path="url(#clip58)"><path d="M10.5206 23.3829 10.206 23.3829 0 0 20.8314 0 10.5206 23.3829M15.8682 2.65635 4.57871 2.65635C3.73986 2.65635 3.4253 2.79616 3.4253 3.18063 3.4253 3.4253 3.5651 3.94958 3.80977 4.47386L9.47199 17.5459 15.8682 2.65635Z" transform="matrix(1.0004 0 0 -1 1363.48 963.086)"/></g><g clip-path="url(#clip59)"><path d="M1.92236 16.4274C0.8738 16.4274 0 15.5536 0 14.4352 0 13.4216 0.8738 12.5478 1.88741 12.5478 2.97092 12.5478 3.87967 13.3866 3.87967 14.4352 3.87967 15.5187 2.97092 16.4274 1.92236 16.4274M1.92236 3.87967C0.8738 3.87967 0 3.00587 0 1.88741 0 0.8738 0.8738 0 1.88741 0 2.97092 0 3.87967 0.838848 3.87967 1.88741 3.87967 2.97092 2.97092 3.87967 1.92236 3.87967Z" transform="matrix(1.0004 0 0 -1 1387.96 963.47)"/></g><g clip-path="url(#clip60)"><path d="M15.5536 4.78842 15.0993 4.96318C13.806 2.93597 13.4216 2.6913 11.7788 2.65635L3.4253 2.65635 9.29723 8.8079C12.408 12.0584 13.7711 14.7148 13.7711 17.441 13.7711 20.9362 10.94 23.6276 7.30497 23.6276 5.38261 23.6276 3.5651 22.8586 2.27188 21.4605 1.15342 20.2722 0.629136 19.1537 0.034952 16.6721L0.768944 16.4973C2.16702 19.9226 3.39034 21.0411 5.83698 21.0411 8.8079 21.0411 10.7652 19.0488 10.7652 16.1129 10.7652 13.3517 9.15742 10.1361 6.22146 7.02535L0 0.419424 0 0 13.6313 0 15.5536 4.78842Z" transform="matrix(1.0004 0 0 -1 1395.55 963.086)"/></g><path d="M1357.97 651.813C1357.97 688.687 1328.09 718.57 1291.21 718.57 1254.35 718.57 1224.46 688.687 1224.46 651.813 1224.46 614.936 1254.35 585.056 1291.21 585.056 1328.09 585.056 1357.97 614.936 1357.97 651.813" fill="#FFFFF0" transform="matrix(1.0004 0 0 1 95.8841 508)"/><path d="M1357.97 651.813C1357.97 688.687 1328.09 718.57 1291.21 718.57 1254.35 718.57 1224.46 688.687 1224.46 651.813 1224.46 614.936 1254.35 585.056 1291.21 585.056 1328.09 585.056 1357.97 614.936 1357.97 651.813" stroke="#2E3436" stroke-width="2.49653" stroke-miterlimit="10" fill="none" transform="matrix(1.0004 0 0 1 95.8841 508)"/><g clip-path="url(#clip61)"><path d="M16.7071 0.52428C14.8196 0.838848 14.6449 1.08351 14.6099 3.5651L14.6099 10.5206C14.6099 14.1905 13.1769 16.0779 10.3108 16.0779 8.24867 16.0779 6.78069 15.2391 5.1729 13.142L5.1729 23.7674 4.99814 23.8722C3.77482 23.4528 2.90102 23.1732 0.978656 22.6139L0.034952 22.3343 0.034952 21.7751C0.17476 21.81 0.244664 21.81 0.454376 21.81 1.95731 21.81 2.23693 21.5304 2.23693 20.0275L2.23693 3.5651C2.16702 1.04856 1.99226 0.768944 0 0.52428L0 0 7.54963 0 7.54963 0.52428C5.52242 0.69904 5.2428 1.08351 5.1729 3.5651L5.1729 11.9885C6.64088 13.5963 7.68944 14.1905 9.08752 14.1905 10.8002 14.1905 11.674 12.9322 11.674 10.4856L11.674 3.5651C11.6041 1.08351 11.2895 0.69904 9.29723 0.52428L9.29723 0 16.7071 0 16.7071 0.52428Z" transform="matrix(1.0004 0 0 -1 1379.2 1150.33)"/></g><g clip-path="url(#clip62)"><path d="M10.5206 23.3829 10.206 23.3829 0 0 20.8314 0 10.5206 23.3829M15.8682 2.65635 4.57871 2.65635C3.73986 2.65635 3.4253 2.79616 3.4253 3.18063 3.4253 3.4253 3.5651 3.94958 3.80977 4.47386L9.47199 17.5459 15.8682 2.65635Z" transform="matrix(1.0004 0 0 -1 1363.48 1187.77)"/></g><g clip-path="url(#clip63)"><path d="M1.92236 16.4274C0.8738 16.4274 0 15.5536 0 14.4352 0 13.4216 0.8738 12.5478 1.88741 12.5478 2.97092 12.5478 3.87967 13.3866 3.87967 14.4352 3.87967 15.5187 2.97092 16.4274 1.92236 16.4274M1.92236 3.87967C0.8738 3.87967 0 3.00587 0 1.88741 0 0.8738 0.8738 0 1.88741 0 2.97092 0 3.87967 0.838848 3.87967 1.88741 3.87967 2.97092 2.97092 3.87967 1.92236 3.87967Z" transform="matrix(1.0004 0 0 -1 1387.96 1188.15)"/></g><g clip-path="url(#clip64)"><path d="M0.244664 0 9.89142 0 9.89142 0.52428C7.20011 0.52428 6.60593 0.908752 6.57098 2.58645L6.57098 23.5576 6.29136 23.6276 0 20.4469 0 19.9576C1.36313 20.4819 2.20198 20.7265 2.51654 20.7265 3.25054 20.7265 3.5651 20.2023 3.5651 19.0838L3.5651 3.25054C3.4952 1.04856 2.90102 0.559232 0.244664 0.52428L0.244664 0Z" transform="matrix(1.0004 0 0 -1 1398.38 1187.77)"/></g><path d="M1595.15 651.813C1595.15 688.687 1565.26 718.57 1528.39 718.57 1491.51 718.57 1461.63 688.687 1461.63 651.813 1461.63 614.936 1491.51 585.056 1528.39 585.056 1565.26 585.056 1595.15 614.936 1595.15 651.813" fill="#FFFFF0" transform="matrix(1.0004 0 0 1 95.8841 508)"/><path d="M1595.15 651.813C1595.15 688.687 1565.26 718.57 1528.39 718.57 1491.51 718.57 1461.63 688.687 1461.63 651.813 1461.63 614.936 1491.51 585.056 1528.39 585.056 1565.26 585.056 1595.15 614.936 1595.15 651.813" stroke="#2E3436" stroke-width="2.49653" stroke-miterlimit="10" fill="none" transform="matrix(1.0004 0 0 1 95.8841 508)"/><g clip-path="url(#clip65)"><path d="M0 0 8.28362 0 8.28362 0.52428C5.97679 0.69904 5.73213 1.01361 5.69718 3.5651L5.69718 15.9731 5.55737 16.0779 0.139808 14.1556 0.139808 13.6313 0.419424 13.6662C0.838848 13.7361 1.25827 13.7711 1.60779 13.7711 2.44664 13.7711 2.76121 13.2119 2.76121 11.674L2.76121 3.5651C2.6913 0.978656 2.37674 0.629136 0 0.52428L0 0M3.91462 23.8722C2.97092 23.8722 2.16702 23.0683 2.16702 22.0897 2.16702 21.0761 2.93597 20.3071 3.91462 20.3071 4.96318 20.3071 5.73213 21.0761 5.73213 22.0897 5.73213 23.1033 4.92823 23.8722 3.91462 23.8722Z" transform="matrix(1.0004 0 0 -1 1620.45 1150.33)"/></g><g clip-path="url(#clip66)"><path d="M10.5206 23.3829 10.206 23.3829 0 0 20.8314 0 10.5206 23.3829M15.8682 2.65635 4.57871 2.65635C3.73986 2.65635 3.4253 2.79616 3.4253 3.18063 3.4253 3.4253 3.5651 3.94958 3.80977 4.47386L9.47199 17.5459 15.8682 2.65635Z" transform="matrix(1.0004 0 0 -1 1600.74 1187.77)"/></g><g clip-path="url(#clip67)"><path d="M1.92236 16.4274C0.8738 16.4274 0 15.5536 0 14.4352 0 13.4216 0.8738 12.5478 1.88741 12.5478 2.97092 12.5478 3.87967 13.3866 3.87967 14.4352 3.87967 15.5187 2.97092 16.4274 1.92236 16.4274M1.92236 3.87967C0.8738 3.87967 0 3.00587 0 1.88741 0 0.8738 0.8738 0 1.88741 0 2.97092 0 3.87967 0.838848 3.87967 1.88741 3.87967 2.97092 2.97092 3.87967 1.92236 3.87967Z" transform="matrix(1.0004 0 0 -1 1625.21 1188.15)"/></g><g clip-path="url(#clip68)"><path d="M0.244664 0 9.89142 0 9.89142 0.52428C7.20011 0.52428 6.60593 0.908752 6.57098 2.58645L6.57098 23.5576 6.29136 23.6276 0 20.4469 0 19.9576C1.36313 20.4819 2.20198 20.7265 2.51654 20.7265 3.25054 20.7265 3.5651 20.2023 3.5651 19.0838L3.5651 3.25054C3.4952 1.04856 2.90102 0.559232 0.244664 0.52428L0.244664 0Z" transform="matrix(1.0004 0 0 -1 1635.63 1187.77)"/></g><path d="M339.104 1756.3C356.503 1730.3 409.707 1698.76 449.547 1674.53 489.387 1650.3 549.4 1641.97 578.145 1610.93 606.891 1579.88 600.335 1538.49 622.02 1488.27 643.706 1438.04 675.225 1342.64 708.257 1309.58 741.289 1276.52 790.964 1284.59 820.213 1289.89 849.463 1295.19 866.609 1313.11 883.756 1341.38 900.902 1369.65 906.45 1428.96 923.092 1459.5 939.734 1490.03 958.645 1491.55 983.609 1524.61 1008.57 1557.67 1031.77 1622.03 1072.87 1657.87 1113.97 1693.71 1197.69 1708.35 1230.21 1739.64 1262.74 1770.94 1272.32 1814.6 1268.04 1845.64 1263.75 1876.69 1247.61 1913.03 1204.49 1925.9 1161.38 1938.77 1009.33 1922.87 1009.33 1922.87 939.481 1921.36 841.142 1914.55 785.416 1916.82 729.69 1919.09 692.119 1919.34 674.973 1936.5 657.826 1953.67 678.755 1992.78 682.537 2019.79 686.319 2046.79 706.744 2077.84 697.666 2098.53 688.589 2119.23 660.095 2135.13 628.072 2143.96 596.049 2152.8 565.538 2151.79 505.525 2151.53 445.512 2151.28 316.662 2161.38 267.997 2142.45 219.331 2123.52 210.506 2070.01 213.531 2037.96 216.557 2005.91 264.214 1984.71 286.152 1950.13 308.089 1915.56 334.313 1861.04 345.156 1830.5 355.998 1799.96 321.705 1782.3 339.104 1756.3Z" stroke="#2F528F" stroke-width="13.75" stroke-miterlimit="8" stroke-dasharray="55 41.25" fill="none" fill-rule="evenodd"/><path d="M1198.91 640.561C1235.26 596.658 1238.55 603.722 1267.07 608.768 1295.6 613.815 1338.26 629.711 1370.07 670.838 1401.88 711.966 1421.32 801.791 1457.92 855.535 1494.53 909.279 1542.24 946.622 1589.7 993.3 1637.16 1039.98 1724.5 1093.22 1742.68 1135.61 1760.85 1178 1737.88 1231.99 1698.75 1247.64 1659.62 1263.28 1569.25 1227.7 1507.9 1229.47 1446.56 1231.24 1386.23 1254.95 1330.69 1258.23 1275.15 1261.51 1212.54 1243.09 1174.68 1249.15 1136.81 1255.21 1111.06 1274.38 1103.49 1294.57 1095.92 1314.75 1128.48 1344.27 1129.24 1370.26 1130 1396.25 1126.71 1434.1 1108.03 1450.5 1089.35 1466.9 1042.4 1472.96 1017.15 1468.67 991.909 1464.38 968.179 1448.73 956.566 1424.76 944.954 1400.79 957.071 1352.85 947.478 1324.84 937.886 1296.84 919.205 1277.41 899.009 1256.72 878.813 1236.03 839.18 1224.68 826.305 1200.71 813.43 1176.73 806.362 1136.36 821.761 1112.9 837.16 1089.43 892.193 1072.53 918.7 1059.91 945.207 1047.3 962.625 1045.28 980.801 1037.2 998.977 1029.13 1017.15 1025.34 1027.76 1011.47 1038.36 997.589 1040.88 977.152 1044.42 953.939 1047.95 930.725 1023.21 923.913 1048.96 872.188 1074.71 820.463 1162.56 684.464 1198.91 640.561Z" stroke="#FF0000" stroke-width="13.75" stroke-miterlimit="8" stroke-dasharray="110 41.25 13.75 41.25 13.75 41.25" fill="none" fill-rule="evenodd"/></g></svg>