<?xml version="1.0" encoding="UTF-8" standalone="no"?>
<!DOCTYPE svg PUBLIC "-//W3C//DTD SVG 1.1//EN" "http://www.w3.org/Graphics/SVG/1.1/DTD/svg11.dtd">
<svg xmlns="http://www.w3.org/2000/svg" xmlns:xlink="http://www.w3.org/1999/xlink" version="1.1" width="497pt" height="495pt" viewBox="0 0 497 495">
<g enable-background="new">
<g>
<path stroke-width=".977115" stroke-linecap="butt" stroke-miterlimit="10" stroke-linejoin="miter" fill="none" stroke="#2e3436" d="M 282.148 111.363 C 264.457 141.344 233.117 194.457 215.461 224.379 "/>
<path stroke-width=".977115" stroke-linecap="butt" stroke-miterlimit="10" stroke-linejoin="miter" fill="none" stroke="#2e3436" d="M 308.352 111.363 C 326.043 141.344 357.383 194.457 375.039 224.379 "/>
<path stroke-width=".977115" stroke-linecap="butt" stroke-miterlimit="10" stroke-linejoin="miter" fill="none" stroke="#2e3436" d="M 189.516 270.438 C 171.832 300.594 140.25 354.449 122.543 384.641 "/>
<path stroke-width=".977115" stroke-linecap="butt" stroke-miterlimit="10" stroke-linejoin="miter" fill="none" stroke="#2e3436" d="M 215.332 270.438 C 233.016 300.594 264.598 354.449 282.305 384.641 "/>
<path d="M 321.379 88.18 C 321.379 102.609 309.68 114.309 295.25 114.309 C 280.82 114.309 269.121 102.609 269.121 88.18 C 269.121 73.75 280.82 62.051 295.25 62.051 C 309.68 62.051 321.379 73.75 321.379 88.18 " fill="#fffff0"/>
<path stroke-width=".977115" stroke-linecap="butt" stroke-miterlimit="10" stroke-linejoin="miter" fill="none" stroke="#2e3436" d="M 321.379 88.18 C 321.379 102.609 309.68 114.309 295.25 114.309 C 280.82 114.309 269.121 102.609 269.121 88.18 C 269.121 73.75 280.82 62.051 295.25 62.051 C 309.68 62.051 321.379 73.75 321.379 88.18 "/>
<symbol id="font_0_1">
<path d="M .19600001 .24500002 L 0 .048 L .048 0 L .244 .19700001 L .44100005 0 L .48900003 .048 L .292 .24500002 L .48900003 .44100005 L .44100005 .48900003 L .244 .29200004 L .048 .48900003 L 0 .44100005 L .19600001 .24500002 Z "/>
</symbol>
<use xlink:href="#font_0_1" transform="matrix(13.679855,0,0,-13.679855,291.3714,84.35885)"/>
<symbol id="font_1_1">
<path d="M .30100004 .669 L .29200004 .669 L 0 0 L .596 0 L .30100004 .669 M .45400004 .076000008 L .131 .076000008 C .10700001 .076000008 .098000008 .080000009 .098000008 .091000009 C .098000008 .098000008 .102 .113000009 .109 .128 L .27100004 .50200006 L .45400004 .076000008 Z "/>
</symbol>
<use xlink:href="#font_1_1" transform="matrix(13.679855,0,0,-13.679855,285.80879,99.12454)"/>
<symbol id="font_0_2">
<path d="M .055000009 .47000004 C .025000006 .47000004 0 .44500003 0 .41300003 C 0 .38400004 .025000006 .35900004 .054000006 .35900004 C .08500001 .35900004 .111 .38300003 .111 .41300003 C .111 .44400005 .08500001 .47000004 .055000009 .47000004 M .055000009 .111 C .025000006 .111 0 .086 0 .054 C 0 .025000003 .025000006 0 .054000006 0 C .08500001 0 .111 .024 .111 .054 C .111 .085 .08500001 .111 .055000009 .111 Z "/>
</symbol>
<symbol id="font_0_3">
<path d="M .44500003 .13700001 L .432 .142 C .395 .08400001 .38400004 .07700001 .337 .076000008 L .098000008 .076000008 L .266 .252 C .35500003 .34500004 .39400003 .42100004 .39400003 .499 C .39400003 .59900006 .31300003 .67600008 .209 .67600008 C .15400002 .67600008 .102 .65400007 .065000008 .614 C .033 .58000007 .018 .54800006 .0010000002 .47700004 L .022 .47200004 C .062000008 .57000008 .097 .60200008 .16700001 .60200008 C .252 .60200008 .30800004 .545 .30800004 .46100004 C .30800004 .38200004 .26200003 .29000003 .178 .201 L 0 .012 L 0 0 L .39000003 0 L .44500003 .13700001 Z "/>
</symbol>
<use xlink:href="#font_0_2" transform="matrix(13.679855,0,0,-13.679855,295.38468,99.275028)"/>
<use xlink:href="#font_0_3" transform="matrix(13.679855,0,0,-13.679855,298.3532,99.12454)"/>
<path d="M 228.551 247.449 C 228.551 261.879 216.855 273.578 202.426 273.578 C 187.992 273.578 176.297 261.879 176.297 247.449 C 176.297 233.02 187.992 221.32 202.426 221.32 C 216.855 221.32 228.551 233.02 228.551 247.449 " fill="#fffff0"/>
<path stroke-width=".977115" stroke-linecap="butt" stroke-miterlimit="10" stroke-linejoin="miter" fill="none" stroke="#2e3436" d="M 228.551 247.449 C 228.551 261.879 216.855 273.578 202.426 273.578 C 187.992 273.578 176.297 261.879 176.297 247.449 C 176.297 233.02 187.992 221.32 202.426 221.32 C 216.855 221.32 228.551 233.02 228.551 247.449 "/>
<symbol id="font_0_4">
<path d="M .21900001 .286 L 0 .286 L 0 .22000002 L .21900001 .22000002 L .21900001 0 L .28500004 0 L .28500004 .22000002 L .50400009 .22000002 L .50400009 .286 L .28500004 .286 L .28500004 .50600007 L .21900001 .50600007 L .21900001 .286 Z "/>
</symbol>
<use xlink:href="#font_0_4" transform="matrix(13.679855,0,0,-13.679855,198.43775,243.73781)"/>
<use xlink:href="#font_1_1" transform="matrix(13.679855,0,0,-13.679855,192.98067,258.39408)"/>
<symbol id="font_0_5">
<path d="M .0069999995 0 L .28300003 0 L .28300003 .015000001 C .206 .015000001 .18900001 .026 .18800003 .074 L .18800003 .674 L .18 .67600008 L 0 .58500006 L 0 .57100006 C .038999998 .586 .063 .59300008 .072000008 .59300008 C .093 .59300008 .102000009 .578 .102000009 .546 L .102000009 .093 C .1 .030000002 .083 .016 .0069999995 .015000001 L .0069999995 0 Z "/>
</symbol>
<use xlink:href="#font_0_2" transform="matrix(13.679855,0,0,-13.679855,202.55655,258.54457)"/>
<use xlink:href="#font_0_5" transform="matrix(13.679855,0,0,-13.679855,206.63315,258.39408)"/>
<path d="M 135.727 407.695 C 135.727 422.129 124.027 433.824 109.598 433.824 C 95.168 433.824 83.469 422.129 83.469 407.695 C 83.469 393.266 95.168 381.566 109.598 381.566 C 124.027 381.566 135.727 393.266 135.727 407.695 " fill="#fffff0"/>
<path stroke-width=".977115" stroke-linecap="butt" stroke-miterlimit="10" stroke-linejoin="miter" fill="none" stroke="#2e3436" d="M 135.727 407.695 C 135.727 422.129 124.027 433.824 109.598 433.824 C 95.168 433.824 83.469 422.129 83.469 407.695 C 83.469 393.266 95.168 381.566 109.598 381.566 C 124.027 381.566 135.727 393.266 135.727 407.695 "/>
<symbol id="font_0_6">
<path d="M .40500004 .076 C .388 .062000004 .37600003 .057000005 .36100004 .057000005 C .33800004 .057000005 .33100004 .071 .33100004 .115 L .33100004 .31 C .33100004 .36200003 .326 .391 .31100003 .41500003 C .289 .451 .24600002 .47 .187 .47 C .09300001 .47 .019000002 .421 .019000002 .358 C .019000002 .335 .038000004 .315 .062000008 .315 C .086 .315 .10700001 .335 .10700001 .357 C .10700001 .361 .106000009 .366 .105000007 .373 C .103 .382 .10200001 .39000003 .10200001 .397 C .10200001 .42400003 .134 .446 .17400001 .446 C .22300002 .446 .25 .417 .25 .363 L .25 .30200003 C .097 .24100001 .079 .23200003 .036000007 .19400002 C .014000002 .17400001 0 .14000002 0 .107 C 0 .044000005 .044 0 .105000007 0 C .149 0 .19000001 .021000002 .25100003 .073 C .256 .020000002 .27400003 0 .31500004 0 C .349 0 .37 .012000001 .40500004 .050000006 L .40500004 .076 M .25 .133 C .25 .103 .245 .092 .224 .08 C .19900002 .066 .172 .058000003 .15100001 .058000003 C .11600001 .058000003 .088 .092 .088 .135 L .088 .13900002 C .089 .19900002 .133 .23700002 .25 .278 L .25 .133 Z "/>
</symbol>
<use xlink:href="#font_0_6" transform="matrix(13.679855,0,0,-13.679855,106.685848,404.12074)"/>
<use xlink:href="#font_1_1" transform="matrix(13.679855,0,0,-13.679855,100.15645,418.64018)"/>
<use xlink:href="#font_0_2" transform="matrix(13.679855,0,0,-13.679855,109.73235,418.79066)"/>
<use xlink:href="#font_0_5" transform="matrix(13.679855,0,0,-13.679855,113.80895,418.64018)"/>
<path d="M 321.379 407.695 C 321.379 422.129 309.68 433.824 295.25 433.824 C 280.82 433.824 269.121 422.129 269.121 407.695 C 269.121 393.266 280.82 381.566 295.25 381.566 C 309.68 381.566 321.379 393.266 321.379 407.695 " fill="#fffff0"/>
<path stroke-width=".977115" stroke-linecap="butt" stroke-miterlimit="10" stroke-linejoin="miter" fill="none" stroke="#2e3436" d="M 321.379 407.695 C 321.379 422.129 309.68 433.824 295.25 433.824 C 280.82 433.824 269.121 422.129 269.121 407.695 C 269.121 393.266 280.82 381.566 295.25 381.566 C 309.68 381.566 321.379 393.266 321.379 407.695 "/>
<symbol id="font_0_7">
<path d="M .15 .69100007 L .145 .693 C .10400001 .679 .07700001 .67 .029000001 .657 L 0 .64900007 L 0 .633 C .0060000007 .634 .009 .634 .017 .634 C .057000005 .634 .06600001 .625 .06600001 .583 L .06600001 .064 C .06600001 .033000005 .15 0 .231 0 C .36300005 0 .46500004 .11 .46500004 .25300003 C .46500004 .377 .38900004 .47 .28900004 .47 C .228 .47 .17 .435 .15 .38500003 L .15 .69100007 M .15 .33200003 C .15 .37100003 .197 .407 .249 .407 C .277 .407 .30200003 .397 .323 .37800003 C .35500003 .347 .37700004 .279 .37700004 .20700002 C .37700004 .096 .32900004 .032 .247 .032 C .19500001 .032 .15 .054000006 .15 .08 L .15 .33200003 Z "/>
</symbol>
<use xlink:href="#font_0_7" transform="matrix(13.679855,0,0,-13.679855,291.86918,404.12074)"/>
<use xlink:href="#font_1_1" transform="matrix(13.679855,0,0,-13.679855,285.80879,418.64018)"/>
<use xlink:href="#font_0_2" transform="matrix(13.679855,0,0,-13.679855,295.38468,418.79066)"/>
<use xlink:href="#font_0_5" transform="matrix(13.679855,0,0,-13.679855,299.46128,418.64018)"/>
<path d="M 414.203 247.449 C 414.203 261.879 402.508 273.578 388.074 273.578 C 373.645 273.578 361.945 261.879 361.945 247.449 C 361.945 233.02 373.645 221.32 388.074 221.32 C 402.508 221.32 414.203 233.02 414.203 247.449 " fill="#fffff0"/>
<path stroke-width=".977115" stroke-linecap="butt" stroke-miterlimit="10" stroke-linejoin="miter" fill="none" stroke="#2e3436" d="M 414.203 247.449 C 414.203 261.879 402.508 273.578 388.074 273.578 C 373.645 273.578 361.945 261.879 361.945 247.449 C 361.945 233.02 373.645 221.32 388.074 221.32 C 402.508 221.32 414.203 233.02 414.203 247.449 "/>
<symbol id="font_0_8">
<path d="M .37300004 .16600001 C .32500003 .096 .289 .072000008 .232 .072000008 C .14 .072000008 .07700001 .15200001 .07700001 .267 C .07700001 .37100003 .132 .441 .213 .441 C .24900002 .441 .262 .43100003 .272 .393 L .278 .37100003 C .286 .342 .30400003 .32500003 .326 .32500003 C .352 .32500003 .37300004 .344 .37300004 .367 C .37300004 .423 .303 .47 .21900001 .47 C .17 .47 .11900001 .45000003 .07800001 .414 C .028000003 .37 0 .30200003 0 .22200002 C 0 .093 .079 0 .19 0 C .23500002 0 .275 .016 .31100003 .047000003 C .338 .07 .35700003 .098000008 .38700003 .157 L .37300004 .16600001 Z "/>
</symbol>
<use xlink:href="#font_0_8" transform="matrix(13.679855,0,0,-13.679855,384.99827,243.8746)"/>
<use xlink:href="#font_1_1" transform="matrix(13.679855,0,0,-13.679855,378.633,258.39408)"/>
<use xlink:href="#font_0_2" transform="matrix(13.679855,0,0,-13.679855,388.2089,258.54457)"/>
<use xlink:href="#font_0_5" transform="matrix(13.679855,0,0,-13.679855,392.2855,258.39408)"/>
</g>
</g>
</svg>
