<svg width="1642" height="1634" xmlns="http://www.w3.org/2000/svg" xmlns:xlink="http://www.w3.org/1999/xlink" overflow="hidden"><defs><clipPath id="clip0"><rect x="230" y="599" width="1642" height="1634"/></clipPath><clipPath id="clip1"><rect x="1192" y="-21476" width="22452" height="22354"/></clipPath><clipPath id="clip2"><rect x="1174" y="-21427" width="22452" height="22354"/></clipPath><clipPath id="clip3"><rect x="1205" y="-21427" width="22452" height="22354"/></clipPath><clipPath id="clip4"><rect x="1215" y="-21427" width="22452" height="22354"/></clipPath><clipPath id="clip5"><rect x="886" y="-20950" width="22452" height="22354"/></clipPath><clipPath id="clip6"><rect x="867" y="-20901" width="22452" height="22353"/></clipPath><clipPath id="clip7"><rect x="899" y="-20901" width="22452" height="22354"/></clipPath><clipPath id="clip8"><rect x="908" y="-20901" width="22452" height="22353"/></clipPath><clipPath id="clip9"><rect x="582" y="-20420" width="22452" height="22354"/></clipPath><clipPath id="clip10"><rect x="561" y="-20372" width="22452" height="22353"/></clipPath><clipPath id="clip11"><rect x="592" y="-20372" width="22452" height="22354"/></clipPath><clipPath id="clip12"><rect x="603" y="-20372" width="22452" height="22354"/></clipPath><clipPath id="clip13"><rect x="1194" y="-20420" width="22452" height="22354"/></clipPath><clipPath id="clip14"><rect x="1174" y="-20372" width="22452" height="22353"/></clipPath><clipPath id="clip15"><rect x="1205" y="-20372" width="22452" height="22354"/></clipPath><clipPath id="clip16"><rect x="1219" y="-20372" width="22452" height="22353"/></clipPath><clipPath id="clip17"><rect x="1501" y="-20949" width="22452" height="22354"/></clipPath><clipPath id="clip18"><rect x="1480" y="-20901" width="22452" height="22353"/></clipPath><clipPath id="clip19"><rect x="1512" y="-20901" width="22452" height="22354"/></clipPath><clipPath id="clip20"><rect x="1525" y="-20901" width="22452" height="22353"/></clipPath></defs><g clip-path="url(#clip0)" transform="translate(-230 -599)"><path d="M931.373 367.61C872.975 466.578 769.521 641.904 711.239 740.677" stroke="#2E3436" stroke-width="3.22547" stroke-miterlimit="10" fill="none" transform="matrix(1.00035 0 0 1 230.413 599)"/><path d="M1017.87 367.61C1076.27 466.578 1179.72 641.904 1238.01 740.677" stroke="#2E3436" stroke-width="3.22547" stroke-miterlimit="10" fill="none" transform="matrix(1.00035 0 0 1 230.413 599)"/><path d="M625.594 892.718C567.219 992.264 462.967 1170.04 404.516 1269.7" stroke="#2E3436" stroke-width="3.22547" stroke-miterlimit="10" fill="none" transform="matrix(1.00035 0 0 1 230.413 599)"/><path d="M710.813 892.718C769.188 992.264 873.441 1170.04 931.891 1269.7" stroke="#2E3436" stroke-width="3.22547" stroke-miterlimit="10" fill="none" transform="matrix(1.00035 0 0 1 230.413 599)"/><path d="M1060.88 291.083C1060.88 338.713 1022.26 377.335 974.623 377.335 926.99 377.335 888.371 338.713 888.371 291.083 888.371 243.449 926.99 204.831 974.623 204.831 1022.26 204.831 1060.88 243.449 1060.88 291.083" fill="#FFFFF0" transform="matrix(1.00035 0 0 1 230.413 599)"/><path d="M1060.88 291.083C1060.88 338.713 1022.26 377.335 974.623 377.335 926.99 377.335 888.371 338.713 888.371 291.083 888.371 243.449 926.99 204.831 974.623 204.831 1022.26 204.831 1060.88 243.449 1060.88 291.083" stroke="#2E3436" stroke-width="3.22547" stroke-miterlimit="10" fill="none" transform="matrix(1.00035 0 0 1 230.413 599)"/><g clip-path="url(#clip1)"><path d="M8.85084 11.0635 0 2.16755 2.16755 0 11.0184 8.896 19.9144 0 22.0819 2.16755 13.1859 11.0635 22.0819 19.9144 19.9144 22.0819 11.0184 13.1859 2.16755 22.0819 0 19.9144 8.85084 11.0635Z" transform="matrix(1.00035 0 0 -1 1192.57 877.47)"/></g><g clip-path="url(#clip2)"><path d="M13.5924 30.2103 13.1859 30.2103 0 0 26.9138 0 13.5924 30.2103M20.5014 3.43196 5.91561 3.43196C4.83184 3.43196 4.42542 3.61259 4.42542 4.10932 4.42542 4.42542 4.60605 5.10278 4.92215 5.78014L12.2376 22.669 20.5014 3.43196Z" transform="matrix(1.00035 0 0 -1 1174.2 926.211)"/></g><g clip-path="url(#clip3)"><path d="M2.48365 21.2239C1.12893 21.2239 0 20.095 0 18.65 0 17.3404 1.12893 16.2115 2.4385 16.2115 3.83837 16.2115 5.01246 17.2953 5.01246 18.65 5.01246 20.0499 3.83837 21.2239 2.48365 21.2239M2.48365 5.01246C1.12893 5.01246 0 3.88353 0 2.4385 0 1.12893 1.12893 0 2.4385 0 3.83837 0 5.01246 1.08378 5.01246 2.4385 5.01246 3.83837 3.83837 5.01246 2.48365 5.01246Z" transform="matrix(1.00035 0 0 -1 1205.82 926.708)"/></g><g clip-path="url(#clip4)"><path d="M6.72844 26.9589 15.5793 26.9589C16.347 26.9589 16.4824 27.0041 16.6179 27.3653L18.3339 31.3843 17.9275 31.7004C17.2501 30.7973 16.8437 30.5264 15.8502 30.5264L6.41234 30.5264 1.49019 19.8241C1.44503 19.7338 1.44503 19.6886 1.44503 19.5983 1.44503 19.3273 1.62566 19.237 1.98692 19.237 3.43196 19.237 5.19309 18.9209 7.0897 18.3339 12.2828 16.6631 14.631 13.9085 14.631 9.39273 14.631 5.05762 11.9215 1.67082 8.35411 1.67082 7.45096 1.67082 6.72844 1.98692 5.37372 2.98038 3.92869 4.06416 2.93523 4.47058 1.89661 4.47058 0.632203 4.47058 0 3.92869 0 2.79975 0 1.08378 2.07724 0 5.50919 0 9.25725 0 12.5086 1.21925 14.8116 3.52227 16.8437 5.55435 17.792 8.12832 17.792 11.5603 17.792 14.8116 16.934 16.8888 14.7213 19.1467 12.7344 21.1336 10.1604 22.1723 4.83184 23.1206L6.72844 26.9589Z" transform="matrix(1.00035 0 0 -1 1215.71 926.843)"/></g><path d="M754.449 816.832C754.449 864.465 715.84 903.084 668.21 903.084 620.563 903.084 581.958 864.465 581.958 816.832 581.958 769.201 620.563 730.579 668.21 730.579 715.84 730.579 754.449 769.201 754.449 816.832" fill="#FFFFF0" transform="matrix(1.00035 0 0 1 230.413 599)"/><path d="M754.449 816.832C754.449 864.465 715.84 903.084 668.21 903.084 620.563 903.084 581.958 864.465 581.958 816.832 581.958 769.201 620.563 730.579 668.21 730.579 715.84 730.579 754.449 769.201 754.449 816.832" stroke="#2E3436" stroke-width="3.22547" stroke-miterlimit="10" fill="none" transform="matrix(1.00035 0 0 1 230.413 599)"/><g clip-path="url(#clip5)"><path d="M8.85084 11.0635 0 2.16755 2.16755 0 11.0184 8.896 19.9144 0 22.0819 2.16755 13.1859 11.0635 22.0819 19.9144 19.9144 22.0819 11.0184 13.1859 2.16755 22.0819 0 19.9144 8.85084 11.0635Z" transform="matrix(1.00035 0 0 -1 886.048 1403.22)"/></g><g clip-path="url(#clip6)"><path d="M13.5924 30.2103 13.1859 30.2103 0 0 26.9138 0 13.5924 30.2103M20.5014 3.43196 5.91561 3.43196C4.83184 3.43196 4.42542 3.61259 4.42542 4.10932 4.42542 4.42542 4.60605 5.10278 4.92215 5.78014L12.2376 22.669 20.5014 3.43196Z" transform="matrix(1.00035 0 0 -1 867.666 1451.96)"/></g><g clip-path="url(#clip7)"><path d="M2.48365 21.2239C1.12893 21.2239 0 20.095 0 18.65 0 17.3404 1.12893 16.2115 2.4385 16.2115 3.83837 16.2115 5.01246 17.2953 5.01246 18.65 5.01246 20.0499 3.83837 21.2239 2.48365 21.2239M2.48365 5.01246C1.12893 5.01246 0 3.88353 0 2.4385 0 1.12893 1.12893 0 2.4385 0 3.83837 0 5.01246 1.08378 5.01246 2.4385 5.01246 3.83837 3.83837 5.01246 2.48365 5.01246Z" transform="matrix(1.00035 0 0 -1 899.287 1452.46)"/></g><g clip-path="url(#clip8)"><path d="M20.7724 10.4313 16.1663 10.4313 16.1663 30.5264 14.1794 30.5264 0 10.4313 0 7.54128 12.6892 7.54128 12.6892 0 16.1663 0 16.1663 7.54128 20.7724 7.54128 20.7724 10.4313M12.6441 10.4313 1.80629 10.4313 12.6441 25.9203 12.6441 10.4313Z" transform="matrix(1.00035 0 0 -1 908.277 1451.96)"/></g><path d="M448.036 1345.81C448.036 1393.45 409.414 1432.06 361.784 1432.06 314.15 1432.06 275.532 1393.45 275.532 1345.81 275.532 1298.17 314.15 1259.55 361.784 1259.55 409.414 1259.55 448.036 1298.17 448.036 1345.81" fill="#FFFFF0" transform="matrix(1.00035 0 0 1 230.413 599)"/><path d="M448.036 1345.81C448.036 1393.45 409.414 1432.06 361.784 1432.06 314.15 1432.06 275.532 1393.45 275.532 1345.81 275.532 1298.17 314.15 1259.55 361.784 1259.55 409.414 1259.55 448.036 1298.17 448.036 1345.81" stroke="#2E3436" stroke-width="3.22547" stroke-miterlimit="10" fill="none" transform="matrix(1.00035 0 0 1 230.413 599)"/><g clip-path="url(#clip9)"><path d="M18.2887 3.43196C17.521 2.79975 16.9792 2.57397 16.3018 2.57397 15.2632 2.57397 14.9471 3.20617 14.9471 5.19309L14.9471 13.9988C14.9471 16.347 14.7213 17.6565 14.0439 18.7403 13.0505 20.366 11.1087 21.2239 8.44442 21.2239 4.19963 21.2239 0.857989 19.0112 0.857989 16.1663 0.857989 15.1277 1.71598 14.2246 2.79975 14.2246 3.88353 14.2246 4.83184 15.1277 4.83184 16.1212 4.83184 16.3018 4.78668 16.5276 4.74152 16.8437 4.65121 17.2501 4.60605 17.6114 4.60605 17.9275 4.60605 19.1467 6.05108 20.1402 7.85738 20.1402 10.0701 20.1402 11.2893 18.8306 11.2893 16.3921L11.2893 13.6375C4.38026 10.8829 3.56743 10.4765 1.62566 8.76052 0.632203 7.85738 0 6.32203 0 4.83183 0 1.98692 1.98692 0 4.74152 0 6.72844 0 8.57989 0.948304 11.3345 3.29649 11.5603 0.903147 12.3731 0 14.2246 0 15.7599 0 16.7082 0.541888 18.2887 2.25787L18.2887 3.43196M11.2893 6.00593C11.2893 4.65121 11.0635 4.15447 10.1152 3.61259 8.98631 2.98038 7.76706 2.61913 6.81876 2.61913 5.23825 2.61913 3.97385 4.15447 3.97385 6.09624L3.97385 6.27687C4.019 8.98631 6.00593 10.7023 11.2893 12.5537L11.2893 6.00593Z" transform="matrix(1.00035 0 0 -1 582.707 1933.01)"/></g><g clip-path="url(#clip10)"><path d="M13.5924 30.2103 13.1859 30.2103 0 0 26.9138 0 13.5924 30.2103M20.5014 3.43196 5.91561 3.43196C4.83184 3.43196 4.42542 3.61259 4.42542 4.10932 4.42542 4.42542 4.60605 5.10278 4.92215 5.78014L12.2376 22.669 20.5014 3.43196Z" transform="matrix(1.00035 0 0 -1 561.146 1980.94)"/></g><g clip-path="url(#clip11)"><path d="M2.48365 21.2239C1.12893 21.2239 0 20.095 0 18.65 0 17.3404 1.12893 16.2115 2.4385 16.2115 3.83837 16.2115 5.01246 17.2953 5.01246 18.65 5.01246 20.0499 3.83837 21.2239 2.48365 21.2239M2.48365 5.01246C1.12893 5.01246 0 3.88353 0 2.4385 0 1.12893 1.12893 0 2.4385 0 3.83837 0 5.01246 1.08378 5.01246 2.4385 5.01246 3.83837 3.83837 5.01246 2.48365 5.01246Z" transform="matrix(1.00035 0 0 -1 592.767 1981.43)"/></g><g clip-path="url(#clip12)"><path d="M4.96731 15.5341C7.63159 15.5341 8.67021 15.4438 9.70883 15.0374 12.5537 13.9988 14.2697 11.47 14.2697 8.35411 14.2697 4.51573 11.7409 1.62566 8.39927 1.62566 7.13486 1.62566 6.23171 1.94177 4.56089 3.02554 3.25133 3.83837 2.48365 4.15447 1.71598 4.15447 0.67736 4.15447 0 3.52227 0 2.57397 0 0.993461 1.94177 0 5.10278 0 8.53474 0 12.1022 1.17409 14.2697 3.02554 16.3921 4.87699 17.521 7.49612 17.521 10.5217 17.521 12.8698 16.7985 14.9471 15.5341 16.347 14.5858 17.3404 13.7278 17.8823 11.7861 18.7403 14.8568 20.8627 15.9857 22.5335 15.9857 24.972 15.9857 28.6749 13.1408 31.1586 8.94115 31.1586 6.68329 31.1586 4.69636 30.3909 3.0707 28.9459 1.71598 27.6814 1.03862 26.5525 0.0903147 23.8431L0.767675 23.6624C2.57397 27.0041 4.60605 28.4491 7.45096 28.4491 10.4313 28.4491 12.4183 26.5074 12.4183 23.6173 12.4183 21.9916 11.7409 20.4111 10.612 19.237 9.25725 17.8823 7.99285 17.2049 4.92215 16.1212L4.96731 15.5341Z" transform="matrix(1.00035 0 0 -1 603.157 1981.57)"/></g><path d="M1060.88 1345.81C1060.88 1393.45 1022.26 1432.06 974.623 1432.06 926.99 1432.06 888.371 1393.45 888.371 1345.81 888.371 1298.17 926.99 1259.55 974.623 1259.55 1022.26 1259.55 1060.88 1298.17 1060.88 1345.81" fill="#FFFFF0" transform="matrix(1.00035 0 0 1 230.413 599)"/><path d="M1060.88 1345.81C1060.88 1393.45 1022.26 1432.06 974.623 1432.06 926.99 1432.06 888.371 1393.45 888.371 1345.81 888.371 1298.17 926.99 1259.55 974.623 1259.55 1022.26 1259.55 1060.88 1298.17 1060.88 1345.81" stroke="#2E3436" stroke-width="3.22547" stroke-miterlimit="10" fill="none" transform="matrix(1.00035 0 0 1 230.413 599)"/><g clip-path="url(#clip13)"><path d="M6.7736 31.2037 6.54781 31.294C4.69636 30.6618 3.47711 30.2554 1.30956 29.6684L0 29.3071 0 28.5846C0.270944 28.6297 0.406416 28.6297 0.767675 28.6297 2.57397 28.6297 2.98038 28.2233 2.98038 26.3267L2.98038 2.89007C2.98038 1.49019 6.7736 0 10.4313 0 16.3921 0 20.9982 4.96731 20.9982 11.4248 20.9982 17.0243 17.5662 21.2239 13.0505 21.2239 10.2959 21.2239 7.67675 19.6434 6.7736 17.3856L6.7736 31.2037M6.7736 14.9922C6.7736 16.7534 8.89599 18.379 11.2442 18.379 12.5086 18.379 13.6375 17.9275 14.5858 17.0695 16.0309 15.6696 17.0243 12.5989 17.0243 9.34757 17.0243 4.3351 14.8568 1.44503 11.1539 1.44503 8.80568 1.44503 6.7736 2.4385 6.7736 3.61259L6.7736 14.9922Z" transform="matrix(1.00035 0 0 -1 1194.21 1933.01)"/></g><g clip-path="url(#clip14)"><path d="M13.5924 30.2103 13.1859 30.2103 0 0 26.9138 0 13.5924 30.2103M20.5014 3.43196 5.91561 3.43196C4.83184 3.43196 4.42542 3.61259 4.42542 4.10932 4.42542 4.42542 4.60605 5.10278 4.92215 5.78014L12.2376 22.669 20.5014 3.43196Z" transform="matrix(1.00035 0 0 -1 1174.2 1980.94)"/></g><g clip-path="url(#clip15)"><path d="M2.48365 21.2239C1.12893 21.2239 0 20.095 0 18.65 0 17.3404 1.12893 16.2115 2.4385 16.2115 3.83837 16.2115 5.01246 17.2953 5.01246 18.65 5.01246 20.0499 3.83837 21.2239 2.48365 21.2239M2.48365 5.01246C1.12893 5.01246 0 3.88353 0 2.4385 0 1.12893 1.12893 0 2.4385 0 3.83837 0 5.01246 1.08378 5.01246 2.4385 5.01246 3.83837 3.83837 5.01246 2.48365 5.01246Z" transform="matrix(1.00035 0 0 -1 1205.82 1981.43)"/></g><g clip-path="url(#clip16)"><path d="M0.316101 0 12.7795 0 12.7795 0.67736C9.30241 0.67736 8.53474 1.17409 8.48958 3.34164L8.48958 30.436 8.12832 30.5264 0 26.417 0 25.7848C1.76114 26.4622 2.84491 26.7783 3.25133 26.7783 4.19963 26.7783 4.60605 26.1009 4.60605 24.6559L4.60605 4.19963C4.51573 1.35472 3.74806 0.722517 0.316101 0.67736L0.316101 0Z" transform="matrix(1.00035 0 0 -1 1219.28 1980.94)"/></g><path d="M1367.29 816.832C1367.29 864.465 1328.68 903.084 1281.04 903.084 1233.41 903.084 1194.78 864.465 1194.78 816.832 1194.78 769.201 1233.41 730.579 1281.04 730.579 1328.68 730.579 1367.29 769.201 1367.29 816.832" fill="#FFFFF0" transform="matrix(1.00035 0 0 1 230.413 599)"/><path d="M1367.29 816.832C1367.29 864.465 1328.68 903.084 1281.04 903.084 1233.41 903.084 1194.78 864.465 1194.78 816.832 1194.78 769.201 1233.41 730.579 1281.04 730.579 1328.68 730.579 1367.29 769.201 1367.29 816.832" stroke="#2E3436" stroke-width="3.22547" stroke-miterlimit="10" fill="none" transform="matrix(1.00035 0 0 1 230.413 599)"/><g clip-path="url(#clip17)"><path d="M16.8437 7.49612C14.6761 4.3351 13.0505 3.25133 10.4765 3.25133 6.32203 3.25133 3.47711 6.86391 3.47711 12.057 3.47711 16.7534 5.96077 19.9144 9.61851 19.9144 11.2442 19.9144 11.8312 19.4628 12.2828 17.7468L12.5537 16.7534C12.915 15.4438 13.7278 14.6761 14.7213 14.6761 15.8954 14.6761 16.8437 15.5341 16.8437 16.5727 16.8437 19.1016 13.6827 21.2239 9.88946 21.2239 7.67675 21.2239 5.37372 20.3208 3.52227 18.6951 1.26441 16.7082 0 13.6375 0 10.0249 0 4.19963 3.56743 0 8.57989 0 10.612 0 12.4183 0.722517 14.0439 2.12239 15.2632 3.16101 16.1212 4.42542 17.4759 7.0897L16.8437 7.49612Z" transform="matrix(1.00035 0 0 -1 1501.74 1404.03)"/></g><g clip-path="url(#clip18)"><path d="M13.5924 30.2103 13.1859 30.2103 0 0 26.9138 0 13.5924 30.2103M20.5014 3.43196 5.91561 3.43196C4.83184 3.43196 4.42542 3.61259 4.42542 4.10932 4.42542 4.42542 4.60605 5.10278 4.92215 5.78014L12.2376 22.669 20.5014 3.43196Z" transform="matrix(1.00035 0 0 -1 1480.72 1451.96)"/></g><g clip-path="url(#clip19)"><path d="M2.48365 21.2239C1.12893 21.2239 0 20.095 0 18.65 0 17.3404 1.12893 16.2115 2.4385 16.2115 3.83837 16.2115 5.01246 17.2953 5.01246 18.65 5.01246 20.0499 3.83837 21.2239 2.48365 21.2239M2.48365 5.01246C1.12893 5.01246 0 3.88353 0 2.4385 0 1.12893 1.12893 0 2.4385 0 3.83837 0 5.01246 1.08378 5.01246 2.4385 5.01246 3.83837 3.83837 5.01246 2.48365 5.01246Z" transform="matrix(1.00035 0 0 -1 1512.34 1452.46)"/></g><g clip-path="url(#clip20)"><path d="M0.316101 0 12.7795 0 12.7795 0.67736C9.30241 0.67736 8.53474 1.17409 8.48958 3.34164L8.48958 30.436 8.12832 30.5264 0 26.417 0 25.7848C1.76114 26.4622 2.84491 26.7783 3.25133 26.7783 4.19963 26.7783 4.60605 26.1009 4.60605 24.6559L4.60605 4.19963C4.51573 1.35472 3.74806 0.722517 0.316101 0.67736L0.316101 0Z" transform="matrix(1.00035 0 0 -1 1525.8 1451.96)"/></g><path d="M473 1944C473 1881.59 524.487 1831 588 1831 651.513 1831 703 1881.59 703 1944 703 2006.41 651.513 2057 588 2057 524.487 2057 473 2006.41 473 1944Z" stroke="#2F528F" stroke-width="10.3125" stroke-miterlimit="8" stroke-dasharray="30.9375 10.3125" fill="none" fill-rule="evenodd"/><path d="M1400 1416C1400 1356.35 1450.14 1308 1512 1308 1573.86 1308 1624 1356.35 1624 1416 1624 1475.65 1573.86 1524 1512 1524 1450.14 1524 1400 1475.65 1400 1416Z" stroke="#FF0000" stroke-width="10.3125" stroke-miterlimit="8" stroke-dasharray="41.25 30.9375 10.3125 30.9375" fill="none" fill-rule="evenodd"/></g></svg>