<?xml version="1.0" encoding="UTF-8" standalone="no"?>
<!DOCTYPE svg PUBLIC "-//W3C//DTD SVG 1.1//EN" "http://www.w3.org/Graphics/SVG/1.1/DTD/svg11.dtd">
<svg xmlns="http://www.w3.org/2000/svg" xmlns:xlink="http://www.w3.org/1999/xlink" version="1.1" width="497pt" height="496pt" viewBox="0 0 497 496">
<g enable-background="new">
<g>
<path stroke-width=".975853" stroke-linecap="butt" stroke-miterlimit="10" stroke-linejoin="miter" fill="none" stroke="#2e3436" d="M 237.336 141.793 C 214.668 191.027 162.289 304.797 139.719 353.824 "/>
<path stroke-width=".975853" stroke-linecap="butt" stroke-miterlimit="10" stroke-linejoin="miter" fill="none" stroke="#2e3436" d="M 258.973 141.793 C 281.824 191.027 334.633 304.797 357.387 353.824 "/>
<path d="M 274.203 117.414 C 274.203 131.824 262.523 143.508 248.109 143.508 C 233.699 143.508 222.016 131.824 222.016 117.414 C 222.016 103 233.699 91.316 248.109 91.316 C 262.523 91.316 274.203 103 274.203 117.414 " fill="#fffff0"/>
<path stroke-width=".975853" stroke-linecap="butt" stroke-miterlimit="10" stroke-linejoin="miter" fill="none" stroke="#2e3436" d="M 274.203 117.414 C 274.203 131.824 262.523 143.508 248.109 143.508 C 233.699 143.508 222.016 131.824 222.016 117.414 C 222.016 103 233.699 91.316 248.109 91.316 C 262.523 91.316 274.203 103 274.203 117.414 "/>
<symbol id="font_0_1">
<path d="M .21900001 .286 L 0 .286 L 0 .22000002 L .21900001 .22000002 L .21900001 0 L .28500004 0 L .28500004 .22000002 L .50400009 .22000002 L .50400009 .286 L .28500004 .286 L .28500004 .50600007 L .21900001 .50600007 L .21900001 .286 Z "/>
</symbol>
<use xlink:href="#font_0_1" transform="matrix(13.662181,0,0,-13.662181,244.12862,113.70597)"/>
<symbol id="font_1_1">
<path d="M .30100004 .669 L .29200004 .669 L 0 0 L .596 0 L .30100004 .669 M .45400004 .076000008 L .131 .076000008 C .10700001 .076000008 .098000008 .080000009 .098000008 .091000009 C .098000008 .098000008 .102 .113000009 .109 .128 L .27100004 .50200006 L .45400004 .076000008 Z "/>
</symbol>
<use xlink:href="#font_1_1" transform="matrix(13.662181,0,0,-13.662181,238.67946,128.34268)"/>
<symbol id="font_0_2">
<path d="M .055000009 .47000004 C .025000006 .47000004 0 .44500003 0 .41300003 C 0 .38400004 .025000006 .35900004 .054000006 .35900004 C .08500001 .35900004 .111 .38300003 .111 .41300003 C .111 .44400005 .08500001 .47000004 .055000009 .47000004 M .055000009 .111 C .025000006 .111 0 .086 0 .054 C 0 .025000003 .025000006 0 .054000006 0 C .08500001 0 .111 .024 .111 .054 C .111 .085 .08500001 .111 .055000009 .111 Z "/>
</symbol>
<symbol id="font_0_3">
<path d="M .0069999995 0 L .28300003 0 L .28300003 .015000001 C .206 .015000001 .18900001 .026 .18800003 .074 L .18800003 .674 L .18 .67600008 L 0 .58500006 L 0 .57100006 C .038999998 .586 .063 .59300008 .072000008 .59300008 C .093 .59300008 .102000009 .578 .102000009 .546 L .102000009 .093 C .1 .030000002 .083 .016 .0069999995 .015000001 L .0069999995 0 Z "/>
</symbol>
<use xlink:href="#font_0_2" transform="matrix(13.662181,0,0,-13.662181,248.243,128.49297)"/>
<use xlink:href="#font_0_3" transform="matrix(13.662181,0,0,-13.662181,252.3143,128.34268)"/>
<path d="M 155.152 377.965 C 155.152 392.379 143.469 404.059 129.055 404.059 C 114.645 404.059 102.961 392.379 102.961 377.965 C 102.961 363.555 114.645 351.871 129.055 351.871 C 143.469 351.871 155.152 363.555 155.152 377.965 " fill="#fffff0"/>
<path stroke-width=".975853" stroke-linecap="butt" stroke-miterlimit="10" stroke-linejoin="miter" fill="none" stroke="#2e3436" d="M 155.152 377.965 C 155.152 392.379 143.469 404.059 129.055 404.059 C 114.645 404.059 102.961 392.379 102.961 377.965 C 102.961 363.555 114.645 351.871 129.055 351.871 C 143.469 351.871 155.152 363.555 155.152 377.965 "/>
<symbol id="font_0_4">
<path d="M .40500004 .076 C .388 .062000004 .37600003 .057000005 .36100004 .057000005 C .33800004 .057000005 .33100004 .071 .33100004 .115 L .33100004 .31 C .33100004 .36200003 .326 .391 .31100003 .41500003 C .289 .451 .24600002 .47 .187 .47 C .09300001 .47 .019000002 .421 .019000002 .358 C .019000002 .335 .038000004 .315 .062000008 .315 C .086 .315 .10700001 .335 .10700001 .357 C .10700001 .361 .106000009 .366 .105000007 .373 C .103 .382 .10200001 .39000003 .10200001 .397 C .10200001 .42400003 .134 .446 .17400001 .446 C .22300002 .446 .25 .417 .25 .363 L .25 .30200003 C .097 .24100001 .079 .23200003 .036000007 .19400002 C .014000002 .17400001 0 .14000002 0 .107 C 0 .044000005 .044 0 .105000007 0 C .149 0 .19000001 .021000002 .25100003 .073 C .256 .020000002 .27400003 0 .31500004 0 C .349 0 .37 .012000001 .40500004 .050000006 L .40500004 .076 M .25 .133 C .25 .103 .245 .092 .224 .08 C .19900002 .066 .172 .058000003 .15100001 .058000003 C .11600001 .058000003 .088 .092 .088 .135 L .088 .13900002 C .089 .19900002 .133 .23700002 .25 .278 L .25 .133 Z "/>
</symbol>
<use xlink:href="#font_0_4" transform="matrix(13.662181,0,0,-13.662181,126.146129,374.39338)"/>
<use xlink:href="#font_1_1" transform="matrix(13.662181,0,0,-13.662181,119.62477,388.89347)"/>
<use xlink:href="#font_0_2" transform="matrix(13.662181,0,0,-13.662181,129.18831,389.04377)"/>
<use xlink:href="#font_0_3" transform="matrix(13.662181,0,0,-13.662181,133.25962,388.89347)"/>
<path d="M 394.234 377.965 C 394.234 392.379 382.551 404.059 368.141 404.059 C 353.727 404.059 342.043 392.379 342.043 377.965 C 342.043 363.555 353.727 351.871 368.141 351.871 C 382.551 351.871 394.234 363.555 394.234 377.965 " fill="#fffff0"/>
<path stroke-width=".975853" stroke-linecap="butt" stroke-miterlimit="10" stroke-linejoin="miter" fill="none" stroke="#2e3436" d="M 394.234 377.965 C 394.234 392.379 382.551 404.059 368.141 404.059 C 353.727 404.059 342.043 392.379 342.043 377.965 C 342.043 363.555 353.727 351.871 368.141 351.871 C 382.551 351.871 394.234 363.555 394.234 377.965 "/>
<symbol id="font_0_5">
<path d="M .15 .69100007 L .145 .693 C .10400001 .679 .07700001 .67 .029000001 .657 L 0 .64900007 L 0 .633 C .0060000007 .634 .009 .634 .017 .634 C .057000005 .634 .06600001 .625 .06600001 .583 L .06600001 .064 C .06600001 .033000005 .15 0 .231 0 C .36300005 0 .46500004 .11 .46500004 .25300003 C .46500004 .377 .38900004 .47 .28900004 .47 C .228 .47 .17 .435 .15 .38500003 L .15 .69100007 M .15 .33200003 C .15 .37100003 .197 .407 .249 .407 C .277 .407 .30200003 .397 .323 .37800003 C .35500003 .347 .37700004 .279 .37700004 .20700002 C .37700004 .096 .32900004 .032 .247 .032 C .19500001 .032 .15 .054000006 .15 .08 L .15 .33200003 Z "/>
</symbol>
<use xlink:href="#font_0_5" transform="matrix(13.662181,0,0,-13.662181,364.76365,374.39338)"/>
<use xlink:href="#font_1_1" transform="matrix(13.662181,0,0,-13.662181,358.7107,388.89347)"/>
<use xlink:href="#font_0_2" transform="matrix(13.662181,0,0,-13.662181,368.27424,389.04377)"/>
<use xlink:href="#font_0_3" transform="matrix(13.662181,0,0,-13.662181,372.34559,388.89347)"/>
</g>
</g>
</svg>
