<svg width="5218" height="4047" xmlns="http://www.w3.org/2000/svg" xmlns:xlink="http://www.w3.org/1999/xlink" xml:space="preserve" overflow="hidden"><g transform="translate(596 0)"><g><g><g><g><path d="M3676.6 482.774C3612.55 584.086 3516.93 735.254 3452.54 837.028" stroke="#2E3436" stroke-width="4.8736" stroke-miterlimit="10" fill="none"/><path d="M3782.69 496.449C3813.29 593.228 3856 728.267 3886.57 824.987" stroke="#2E3436" stroke-width="4.8736" stroke-miterlimit="10" fill="none"/><path d="M3295.68 1047.57C3195.09 1152.71 3031.49 1323.65 2930.91 1428.77" stroke="#2E3436" stroke-width="4.8736" stroke-miterlimit="10" fill="none"/><path d="M3383.8 1082.36C3383.8 1175.46 3383.8 1301.37 3383.8 1394.36" stroke="#2E3436" stroke-width="4.8736" stroke-miterlimit="10" fill="none"/><path d="M2774.99 1637.82C2710.93 1739.12 2615.3 1890.29 2550.94 1992.07" stroke="#2E3436" stroke-width="4.8736" stroke-miterlimit="10" fill="none"/><path d="M2842.82 1657.12C2842.82 1751.61 2842.82 1880.18 2842.82 1974.58" stroke="#2E3436" stroke-width="4.8736" stroke-miterlimit="10" fill="none"/><path d="M3345.55 1651.49C3314.95 1748.27 3272.24 1883.31 3241.66 1980.03" stroke="#2E3436" stroke-width="4.8736" stroke-miterlimit="10" fill="none"/><path d="M3422.04 1651.49C3452.64 1748.27 3495.34 1883.31 3525.94 1980.03" stroke="#2E3436" stroke-width="4.8736" stroke-miterlimit="10" fill="none"/><path d="M3924.76 1082.36C3924.76 1175.46 3924.76 1301.37 3924.76 1394.36" stroke="#2E3436" stroke-width="4.8736" stroke-miterlimit="10" fill="none"/><path d="M3993.45 1063.14C4057.62 1163.74 4152.9 1313.09 4216.99 1413.55" stroke="#2E3436" stroke-width="4.8736" stroke-miterlimit="10" fill="none"/><path d="M3924.76 1657.12C3924.76 1751.61 3924.76 1880.18 3924.76 1974.58" stroke="#2E3436" stroke-width="4.8736" stroke-miterlimit="10" fill="none"/><path d="M3992.61 1637.82C4056.67 1739.12 4152.3 1890.29 4216.66 1992.07" stroke="#2E3436" stroke-width="4.8736" stroke-miterlimit="10" fill="none"/><path d="M3874.76 370.652C3874.76 442.627 3816.42 500.986 3744.45 500.986 3672.48 500.986 3614.12 442.627 3614.12 370.652 3614.12 298.679 3672.48 240.32 3744.45 240.32 3816.42 240.32 3874.76 298.679 3874.76 370.652" fill="#EE7621"/><path d="M3874.76 370.652C3874.76 442.627 3816.42 500.986 3744.45 500.986 3672.48 500.986 3614.12 442.627 3614.12 370.652 3614.12 298.679 3672.48 240.32 3744.45 240.32 3816.42 240.32 3874.76 298.679 3874.76 370.652" stroke="#2E3436" stroke-width="4.8736" stroke-miterlimit="10" fill="none"/><g><path d="M13.3734 16.7168 0 3.27512 3.27512 0 16.6485 13.4417 30.0901 0 33.3652 3.27512 19.9237 16.7168 33.3652 30.0901 30.0901 33.3652 16.6485 19.9237 3.27512 33.3652 0 30.0901 13.3734 16.7168Z" transform="matrix(1 0 0 -1 3725.1 351.581)"/></g><g><path d="M20.5377 45.6469 19.9237 45.6469 0 0 40.666 0 20.5377 45.6469M30.9772 5.18561 8.93834 5.18561C7.30079 5.18561 6.6867 5.45853 6.6867 6.20908 6.6867 6.6867 6.95963 7.71017 7.43725 8.73364L18.4907 34.2523 30.9772 5.18561Z" transform="matrix(1 0 0 -1 3697.35 425.23)"/></g><g><path d="M3.75274 32.0688C1.70579 32.0688 0 30.3631 0 28.1797 0 26.201 1.70579 24.4952 3.6845 24.4952 5.79969 24.4952 7.57371 26.1327 7.57371 28.1797 7.57371 30.2949 5.79969 32.0688 3.75274 32.0688M3.75274 7.57371C1.70579 7.57371 0 5.86793 0 3.6845 0 1.70579 1.70579 0 3.6845 0 5.79969 0 7.57371 1.63756 7.57371 3.6845 7.57371 5.79969 5.79969 7.57371 3.75274 7.57371Z" transform="matrix(1 0 0 -1 3745.11 425.981)"/></g><g><path d="M31.3865 15.7615 24.4269 15.7615 24.4269 46.1245 21.4248 46.1245 0 15.7615 0 11.3947 19.1731 11.3947 19.1731 0 24.4269 0 24.4269 11.3947 31.3865 11.3947 31.3865 15.7615M19.1049 15.7615 2.72926 15.7615 19.1049 39.1649 19.1049 15.7615Z" transform="matrix(1 0 0 -1 3758.69 425.23)"/></g><path d="M3514.11 950.614C3514.11 1022.58 3455.77 1080.92 3383.8 1080.92 3311.82 1080.92 3253.47 1022.58 3253.47 950.614 3253.47 878.64 3311.82 820.281 3383.8 820.281 3455.77 820.281 3514.11 878.64 3514.11 950.614" fill="#EE7621"/><path d="M3514.11 950.614C3514.11 1022.58 3455.77 1080.92 3383.8 1080.92 3311.82 1080.92 3253.47 1022.58 3253.47 950.614 3253.47 878.64 3311.82 820.281 3383.8 820.281 3455.77 820.281 3514.11 878.64 3514.11 950.614" stroke="#2E3436" stroke-width="4.8736" stroke-miterlimit="10" fill="none"/><g><path d="M13.3734 16.7168 0 3.27512 3.27512 0 16.6485 13.4417 30.0901 0 33.3652 3.27512 19.9237 16.7168 33.3652 30.0901 30.0901 33.3652 16.6485 19.9237 3.27512 33.3652 0 30.0901 13.3734 16.7168Z" transform="matrix(1 0 0 -1 3364.45 931.546)"/></g><g><path d="M20.5377 45.6469 19.9237 45.6469 0 0 40.666 0 20.5377 45.6469M30.9772 5.18561 8.93834 5.18561C7.30079 5.18561 6.6867 5.45853 6.6867 6.20908 6.6867 6.6867 6.95963 7.71017 7.43725 8.73364L18.4907 34.2523 30.9772 5.18561Z" transform="matrix(1 0 0 -1 3336.71 1005.19)"/></g><g><path d="M3.75274 32.0688C1.70579 32.0688 0 30.3631 0 28.1797 0 26.201 1.70579 24.4952 3.6845 24.4952 5.79969 24.4952 7.57371 26.1327 7.57371 28.1797 7.57371 30.2949 5.79969 32.0688 3.75274 32.0688M3.75274 7.57371C1.70579 7.57371 0 5.86793 0 3.6845 0 1.70579 1.70579 0 3.6845 0 5.79969 0 7.57371 1.63756 7.57371 3.6845 7.57371 5.79969 5.79969 7.57371 3.75274 7.57371Z" transform="matrix(1 0 0 -1 3384.47 1005.94)"/></g><g><path d="M7.50549 23.4717C11.5311 23.4717 13.1005 23.3352 14.6698 22.7212 18.9683 21.1518 21.5612 17.3308 21.5612 12.6228 21.5612 6.82317 17.7402 2.45634 12.6911 2.45634 10.7806 2.45634 9.41596 2.93396 6.8914 4.57152 4.91268 5.79969 3.75274 6.27731 2.5928 6.27731 1.02347 6.27731 0 5.32206 0 3.8892 0 1.50109 2.93396 0 7.71017 0 12.8958 0 18.2861 1.77402 21.5612 4.57152 24.768 7.36902 26.4739 11.3265 26.4739 15.898 26.4739 19.4461 25.3822 22.5847 23.4717 24.6999 22.0388 26.201 20.7425 27.0198 17.8084 28.3161 22.4482 31.5231 24.154 34.0475 24.154 37.7321 24.154 43.3271 19.8554 47.0799 13.5098 47.0799 10.0983 47.0799 7.09609 45.9199 4.63976 43.7365 2.5928 41.826 1.56933 40.1203 0.136464 36.0263L1.15994 35.7534C3.8892 40.8026 6.95963 42.9859 11.2582 42.9859 15.7615 42.9859 18.7637 40.052 18.7637 35.6851 18.7637 33.2288 17.7402 30.8407 16.0344 29.0666 13.9876 27.0198 12.077 25.9963 7.43725 24.3587L7.50549 23.4717Z" transform="matrix(1 0 0 -1 3400.17 1006.14)"/></g><path d="M2973.16 1525.69C2973.16 1597.67 2914.8 1656.02 2842.82 1656.02 2770.84 1656.02 2712.51 1597.67 2712.51 1525.69 2712.51 1453.72 2770.84 1395.38 2842.82 1395.38 2914.8 1395.38 2973.16 1453.72 2973.16 1525.69" fill="#EE7621"/><path d="M2973.16 1525.69C2973.16 1597.67 2914.8 1656.02 2842.82 1656.02 2770.84 1656.02 2712.51 1597.67 2712.51 1525.69 2712.51 1453.72 2770.84 1395.38 2842.82 1395.38 2914.8 1395.38 2973.16 1453.72 2973.16 1525.69" stroke="#2E3436" stroke-width="4.8736" stroke-miterlimit="10" fill="none"/><g><path d="M13.3734 16.7168 0 3.27512 3.27512 0 16.6485 13.4417 30.0901 0 33.3652 3.27512 19.9237 16.7168 33.3652 30.0901 30.0901 33.3652 16.6485 19.9237 3.27512 33.3652 0 30.0901 13.3734 16.7168Z" transform="matrix(1 0 0 -1 2823.5 1506.62)"/></g><g><path d="M20.5377 45.6469 19.9237 45.6469 0 0 40.666 0 20.5377 45.6469M30.9772 5.18561 8.93834 5.18561C7.30079 5.18561 6.6867 5.45853 6.6867 6.20908 6.6867 6.6867 6.95963 7.71017 7.43725 8.73364L18.4907 34.2523 30.9772 5.18561Z" transform="matrix(1 0 0 -1 2795.73 1580.28)"/></g><g><path d="M3.75274 32.0688C1.70579 32.0688 0 30.3631 0 28.1797 0 26.201 1.70579 24.4952 3.6845 24.4952 5.79969 24.4952 7.57371 26.1327 7.57371 28.1797 7.57371 30.2949 5.79969 32.0688 3.75274 32.0688M3.75274 7.57371C1.70579 7.57371 0 5.86793 0 3.6845 0 1.70579 1.70579 0 3.6845 0 5.79969 0 7.57371 1.63756 7.57371 3.6845 7.57371 5.79969 5.79969 7.57371 3.75274 7.57371Z" transform="matrix(1 0 0 -1 2843.49 1581.02)"/></g><g><path d="M30.3631 9.34773 29.4761 9.6889C26.9515 5.73146 26.201 5.25384 22.9941 5.18561L6.6867 5.18561 18.1496 17.1944C24.2223 23.5399 26.8833 28.7255 26.8833 34.0475 26.8833 40.8707 21.3565 46.1245 14.2604 46.1245 10.5077 46.1245 6.95963 44.6234 4.43506 41.8942 2.25164 39.5744 1.22817 37.3909 0.0682317 32.5464L1.50109 32.2053C4.23036 38.892 6.61847 41.0755 11.3947 41.0755 17.1944 41.0755 21.0153 37.1862 21.0153 31.4548 21.0153 26.0645 17.8767 19.7871 12.1452 13.7145L0 0.818779 0 0 26.6103 0 30.3631 9.34773Z" transform="matrix(1 0 0 -1 2858.3 1580.28)"/></g><path d="M2612.51 2105.66C2612.51 2177.63 2554.17 2235.99 2482.19 2235.99 2410.21 2235.99 2351.85 2177.63 2351.85 2105.66 2351.85 2033.67 2410.21 1975.34 2482.19 1975.34 2554.17 1975.34 2612.51 2033.67 2612.51 2105.66" fill="#EE7621"/><path d="M2612.51 2105.66C2612.51 2177.63 2554.17 2235.99 2482.19 2235.99 2410.21 2235.99 2351.85 2177.63 2351.85 2105.66 2351.85 2033.67 2410.21 1975.34 2482.19 1975.34 2554.17 1975.34 2612.51 2033.67 2612.51 2105.66" stroke="#2E3436" stroke-width="4.8736" stroke-miterlimit="10" fill="none"/><g><path d="M19.719 30.7043 11.3265 30.7043 11.3265 38.6191C11.3265 42.6447 12.6228 44.6917 15.2156 44.6917 16.7168 44.6917 17.6038 44.0094 18.8319 42.0307 19.9237 40.2567 20.7425 39.5744 21.9024 39.5744 23.5399 39.5744 24.768 40.8026 24.768 42.3718 24.768 44.8282 21.766 46.6021 17.672 46.6021 13.3734 46.6021 9.82535 44.76 8.05134 41.6895 6.27731 38.6191 5.73146 36.1628 5.66323 30.7043L0.0682317 30.7043 0.0682317 28.5209 5.66323 28.5209 5.66323 7.09609C5.52676 1.97871 4.84444 1.22817 0 1.02347L0 0 17.7402 0 17.7402 1.02347C12.1452 1.22817 11.3947 1.97871 11.3947 7.09609L11.3947 28.5209 19.719 28.5209 19.719 30.7043Z" transform="matrix(1 0 0 -1 2471.35 2087.13)"/></g><g><path d="M20.5377 45.6469 19.9237 45.6469 0 0 40.666 0 20.5377 45.6469M30.9772 5.18561 8.93834 5.18561C7.30079 5.18561 6.6867 5.45853 6.6867 6.20908 6.6867 6.6867 6.95963 7.71017 7.43725 8.73364L18.4907 34.2523 30.9772 5.18561Z" transform="matrix(1 0 0 -1 2435.07 2160.23)"/></g><g><path d="M3.75274 32.0688C1.70579 32.0688 0 30.3631 0 28.1797 0 26.201 1.70579 24.4952 3.6845 24.4952 5.79969 24.4952 7.57371 26.1327 7.57371 28.1797 7.57371 30.2949 5.79969 32.0688 3.75274 32.0688M3.75274 7.57371C1.70579 7.57371 0 5.86793 0 3.6845 0 1.70579 1.70579 0 3.6845 0 5.79969 0 7.57371 1.63756 7.57371 3.6845 7.57371 5.79969 5.79969 7.57371 3.75274 7.57371Z" transform="matrix(1 0 0 -1 2482.84 2160.98)"/></g><g><path d="M0.477621 0 19.3095 0 19.3095 1.02347C14.0557 1.02347 12.8958 1.77402 12.8275 5.04914L12.8275 45.9881 12.2817 46.1245 0 39.9155 0 38.9603C2.66103 39.9837 4.29859 40.4614 4.91268 40.4614 6.34555 40.4614 6.95963 39.4379 6.95963 37.2545L6.95963 6.34555C6.82317 2.04694 5.66323 1.09171 0.477621 1.02347L0.477621 0Z" transform="matrix(1 0 0 -1 2503.18 2160.23)"/></g><path d="M2973.16 2105.66C2973.16 2177.63 2914.8 2235.99 2842.82 2235.99 2770.84 2235.99 2712.51 2177.63 2712.51 2105.66 2712.51 2033.67 2770.84 1975.34 2842.82 1975.34 2914.8 1975.34 2973.16 2033.67 2973.16 2105.66" fill="#EE7621"/><path d="M2973.16 2105.66C2973.16 2177.63 2914.8 2235.99 2842.82 2235.99 2770.84 2235.99 2712.51 2177.63 2712.51 2105.66 2712.51 2033.67 2770.84 1975.34 2842.82 1975.34 2914.8 1975.34 2973.16 2033.67 2973.16 2105.66" stroke="#2E3436" stroke-width="4.8736" stroke-miterlimit="10" fill="none"/><g><path d="M30.1584 41.3483 30.1584 44.0094 24.9046 44.0094C23.4717 44.0094 22.5164 44.2141 21.1518 44.6917L19.6507 45.2376C17.8767 45.9199 15.9663 46.2611 14.1921 46.2611 7.84664 46.2611 2.7975 41.4166 2.7975 35.1393 2.7975 30.8407 4.57152 28.2479 9.14304 25.9963L7.36902 24.3587C5.93615 22.9941 5.11737 22.2436 4.91268 21.9706 3.47982 20.4694 3.07043 19.719 3.07043 18.559 3.07043 17.0579 3.82097 16.3073 6.6867 14.9428 1.77402 11.3947 0 9.14304 0 6.61847 0 3.0022 5.25384 0 11.8041 0 16.9215 0 22.2436 1.77402 25.7915 4.63976 28.3844 6.75493 29.5444 8.93834 29.5444 11.5311 29.5444 15.7615 26.3374 18.559 21.2882 18.8319L12.4864 19.2414C8.80188 19.3778 7.16432 19.9918 7.16432 21.0836 7.16432 22.4482 9.41596 24.8363 11.2582 25.3822 13.7145 25.1775 15.0109 25.041 15.1474 25.041 17.672 25.041 20.4013 26.0645 22.5164 27.9067 24.768 29.8172 25.7915 32.2053 25.7915 35.6169 25.7915 37.5956 25.4504 39.1649 24.4952 41.3483L30.1584 41.3483M8.11956 14.738C10.4394 14.2604 15.7615 13.851 19.2414 13.851 25.3822 13.851 27.6338 12.9641 27.6338 10.5077 27.6338 6.55023 22.4482 3.8892 14.738 3.8892 8.66542 3.8892 4.77621 5.86793 4.77621 8.87011 4.77621 10.4394 5.3903 11.4629 8.11956 14.738M8.46072 37.9368C8.46072 41.9624 10.3712 44.3506 13.5098 44.3506 15.6251 44.3506 17.3991 43.1906 18.4907 41.1436 19.7871 38.7556 20.5377 35.6851 20.5377 32.9559 20.5377 29.1349 18.6272 26.7467 15.4885 26.7467 11.2582 26.7467 8.46072 31.1819 8.46072 37.7321L8.46072 37.9368Z" transform="matrix(1 0 0 -1 2827.67 2102)"/></g><g><path d="M20.5377 45.6469 19.9237 45.6469 0 0 40.666 0 20.5377 45.6469M30.9772 5.18561 8.93834 5.18561C7.30079 5.18561 6.6867 5.45853 6.6867 6.20908 6.6867 6.6867 6.95963 7.71017 7.43725 8.73364L18.4907 34.2523 30.9772 5.18561Z" transform="matrix(1 0 0 -1 2795.73 2160.23)"/></g><g><path d="M3.75274 32.0688C1.70579 32.0688 0 30.3631 0 28.1797 0 26.201 1.70579 24.4952 3.6845 24.4952 5.79969 24.4952 7.57371 26.1327 7.57371 28.1797 7.57371 30.2949 5.79969 32.0688 3.75274 32.0688M3.75274 7.57371C1.70579 7.57371 0 5.86793 0 3.6845 0 1.70579 1.70579 0 3.6845 0 5.79969 0 7.57371 1.63756 7.57371 3.6845 7.57371 5.79969 5.79969 7.57371 3.75274 7.57371Z" transform="matrix(1 0 0 -1 2843.49 2160.98)"/></g><g><path d="M0.477621 0 19.3095 0 19.3095 1.02347C14.0557 1.02347 12.8958 1.77402 12.8275 5.04914L12.8275 45.9881 12.2817 46.1245 0 39.9155 0 38.9603C2.66103 39.9837 4.29859 40.4614 4.91268 40.4614 6.34555 40.4614 6.95963 39.4379 6.95963 37.2545L6.95963 6.34555C6.82317 2.04694 5.66323 1.09171 0.477621 1.02347L0.477621 0Z" transform="matrix(1 0 0 -1 2863.82 2160.23)"/></g><path d="M3514.11 1525.69C3514.11 1597.67 3455.77 1656.02 3383.8 1656.02 3311.82 1656.02 3253.47 1597.67 3253.47 1525.69 3253.47 1453.72 3311.82 1395.38 3383.8 1395.38 3455.77 1395.38 3514.11 1453.72 3514.11 1525.69" fill="#EE7621"/><path d="M3514.11 1525.69C3514.11 1597.67 3455.77 1656.02 3383.8 1656.02 3311.82 1656.02 3253.47 1597.67 3253.47 1525.69 3253.47 1453.72 3311.82 1395.38 3383.8 1395.38 3455.77 1395.38 3514.11 1453.72 3514.11 1525.69" stroke="#2E3436" stroke-width="4.8736" stroke-miterlimit="10" fill="none"/><g><path d="M13.3734 16.7168 0 3.27512 3.27512 0 16.6485 13.4417 30.0901 0 33.3652 3.27512 19.9237 16.7168 33.3652 30.0901 30.0901 33.3652 16.6485 19.9237 3.27512 33.3652 0 30.0901 13.3734 16.7168Z" transform="matrix(1 0 0 -1 3364.45 1506.62)"/></g><g><path d="M20.5377 45.6469 19.9237 45.6469 0 0 40.666 0 20.5377 45.6469M30.9772 5.18561 8.93834 5.18561C7.30079 5.18561 6.6867 5.45853 6.6867 6.20908 6.6867 6.6867 6.95963 7.71017 7.43725 8.73364L18.4907 34.2523 30.9772 5.18561Z" transform="matrix(1 0 0 -1 3336.71 1580.28)"/></g><g><path d="M3.75274 32.0688C1.70579 32.0688 0 30.3631 0 28.1797 0 26.201 1.70579 24.4952 3.6845 24.4952 5.79969 24.4952 7.57371 26.1327 7.57371 28.1797 7.57371 30.2949 5.79969 32.0688 3.75274 32.0688M3.75274 7.57371C1.70579 7.57371 0 5.86793 0 3.6845 0 1.70579 1.70579 0 3.6845 0 5.79969 0 7.57371 1.63756 7.57371 3.6845 7.57371 5.79969 5.79969 7.57371 3.75274 7.57371Z" transform="matrix(1 0 0 -1 3384.47 1581.02)"/></g><g><path d="M30.3631 9.34773 29.4761 9.6889C26.9515 5.73146 26.201 5.25384 22.9941 5.18561L6.6867 5.18561 18.1496 17.1944C24.2223 23.5399 26.8833 28.7255 26.8833 34.0475 26.8833 40.8707 21.3565 46.1245 14.2604 46.1245 10.5077 46.1245 6.95963 44.6234 4.43506 41.8942 2.25164 39.5744 1.22817 37.3909 0.0682317 32.5464L1.50109 32.2053C4.23036 38.892 6.61847 41.0755 11.3947 41.0755 17.1944 41.0755 21.0153 37.1862 21.0153 31.4548 21.0153 26.0645 17.8767 19.7871 12.1452 13.7145L0 0.818779 0 0 26.6103 0 30.3631 9.34773Z" transform="matrix(1 0 0 -1 3399.28 1580.28)"/></g><path d="M3333.8 2105.66C3333.8 2177.63 3275.45 2235.99 3203.47 2235.99 3131.5 2235.99 3073.16 2177.63 3073.16 2105.66 3073.16 2033.67 3131.5 1975.34 3203.47 1975.34 3275.45 1975.34 3333.8 2033.67 3333.8 2105.66" fill="#EE7621"/><path d="M3333.8 2105.66C3333.8 2177.63 3275.45 2235.99 3203.47 2235.99 3131.5 2235.99 3073.16 2177.63 3073.16 2105.66 3073.16 2033.67 3131.5 1975.34 3203.47 1975.34 3275.45 1975.34 3333.8 2033.67 3333.8 2105.66" stroke="#2E3436" stroke-width="4.8736" stroke-miterlimit="10" fill="none"/><g><path d="M31.6595 4.63976C30.7725 4.57152 30.3631 4.57152 30.0901 4.57152 27.7021 4.57152 27.0879 5.32206 27.0879 8.46072L27.0879 47.148 26.7467 47.2845C23.5399 46.1928 21.2201 45.4422 16.7168 44.2824L16.7168 43.1906C17.2626 43.2589 17.6038 43.2589 18.2179 43.2589 20.7425 43.2589 21.3565 42.5766 21.3565 39.7791L21.3565 29.1349C18.7637 31.3183 16.9215 32.0688 14.1921 32.0688 6.34555 32.0688 0 24.3587 0 14.6698 0 5.93615 5.04914 0 12.6228 0 16.4439 0 19.0366 1.36464 21.3565 4.57152L21.3565 0.204694 21.6294 0 31.6595 3.54805 31.6595 4.63976M21.3565 7.64194C21.3565 7.16432 20.8789 6.34555 20.1966 5.59499 19.0366 4.23036 17.2626 3.54805 15.2839 3.54805 9.55243 3.54805 5.86793 9.00658 5.86793 17.4672 5.86793 25.1092 9.21128 30.1584 14.3969 30.1584 18.0814 30.1584 21.3565 26.9515 21.3565 23.3352L21.3565 7.64194Z" transform="matrix(1 0 0 -1 3188.25 2087.81)"/></g><g><path d="M20.5377 45.6469 19.9237 45.6469 0 0 40.666 0 20.5377 45.6469M30.9772 5.18561 8.93834 5.18561C7.30079 5.18561 6.6867 5.45853 6.6867 6.20908 6.6867 6.6867 6.95963 7.71017 7.43725 8.73364L18.4907 34.2523 30.9772 5.18561Z" transform="matrix(1 0 0 -1 3156.38 2160.23)"/></g><g><path d="M3.75274 32.0688C1.70579 32.0688 0 30.3631 0 28.1797 0 26.201 1.70579 24.4952 3.6845 24.4952 5.79969 24.4952 7.57371 26.1327 7.57371 28.1797 7.57371 30.2949 5.79969 32.0688 3.75274 32.0688M3.75274 7.57371C1.70579 7.57371 0 5.86793 0 3.6845 0 1.70579 1.70579 0 3.6845 0 5.79969 0 7.57371 1.63756 7.57371 3.6845 7.57371 5.79969 5.79969 7.57371 3.75274 7.57371Z" transform="matrix(1 0 0 -1 3204.14 2160.98)"/></g><g><path d="M0.477621 0 19.3095 0 19.3095 1.02347C14.0557 1.02347 12.8958 1.77402 12.8275 5.04914L12.8275 45.9881 12.2817 46.1245 0 39.9155 0 38.9603C2.66103 39.9837 4.29859 40.4614 4.91268 40.4614 6.34555 40.4614 6.95963 39.4379 6.95963 37.2545L6.95963 6.34555C6.82317 2.04694 5.66323 1.09171 0.477621 1.02347L0.477621 0Z" transform="matrix(1 0 0 -1 3224.48 2160.23)"/></g><path d="M3694.44 2105.66C3694.44 2177.63 3636.1 2235.99 3564.13 2235.99 3492.15 2235.99 3433.79 2177.63 3433.79 2105.66 3433.79 2033.67 3492.15 1975.34 3564.13 1975.34 3636.1 1975.34 3694.44 2033.67 3694.44 2105.66" fill="#EE7621"/><path d="M3694.44 2105.66C3694.44 2177.63 3636.1 2235.99 3564.13 2235.99 3492.15 2235.99 3433.79 2177.63 3433.79 2105.66 3433.79 2033.67 3492.15 1975.34 3564.13 1975.34 3636.1 1975.34 3694.44 2033.67 3694.44 2105.66" stroke="#2E3436" stroke-width="4.8736" stroke-miterlimit="10" fill="none"/><g><path d="M26.1327 11.8723C22.8576 6.6867 19.9237 4.70799 15.5568 4.70799 11.6676 4.70799 8.73364 6.6867 6.75493 10.5759 5.52676 13.1686 5.04914 15.3521 4.91268 19.5825L25.928 19.5825C25.3822 24.0175 24.6999 25.9963 22.9941 28.1797 20.9471 30.636 17.8084 32.0688 14.2604 32.0688 10.8488 32.0688 7.64194 30.8407 5.04914 28.5209 1.84226 25.7234 0 20.8789 0 15.2839 0 5.86793 4.91268 0 12.7593 0 19.2414 0 24.3587 4.02567 27.2245 11.3947L26.1327 11.8723M5.04914 21.766C5.79969 27.0879 8.11956 29.6125 12.2817 29.6125 16.4439 29.6125 18.0814 27.7021 18.9683 21.766L5.04914 21.766Z" transform="matrix(1 0 0 -1 3548.77 2087.81)"/></g><g><path d="M20.5377 45.6469 19.9237 45.6469 0 0 40.666 0 20.5377 45.6469M30.9772 5.18561 8.93834 5.18561C7.30079 5.18561 6.6867 5.45853 6.6867 6.20908 6.6867 6.6867 6.95963 7.71017 7.43725 8.73364L18.4907 34.2523 30.9772 5.18561Z" transform="matrix(1 0 0 -1 3517.01 2160.23)"/></g><g><path d="M3.75274 32.0688C1.70579 32.0688 0 30.3631 0 28.1797 0 26.201 1.70579 24.4952 3.6845 24.4952 5.79969 24.4952 7.57371 26.1327 7.57371 28.1797 7.57371 30.2949 5.79969 32.0688 3.75274 32.0688M3.75274 7.57371C1.70579 7.57371 0 5.86793 0 3.6845 0 1.70579 1.70579 0 3.6845 0 5.79969 0 7.57371 1.63756 7.57371 3.6845 7.57371 5.79969 5.79969 7.57371 3.75274 7.57371Z" transform="matrix(1 0 0 -1 3564.77 2160.98)"/></g><g><path d="M0.477621 0 19.3095 0 19.3095 1.02347C14.0557 1.02347 12.8958 1.77402 12.8275 5.04914L12.8275 45.9881 12.2817 46.1245 0 39.9155 0 38.9603C2.66103 39.9837 4.29859 40.4614 4.91268 40.4614 6.34555 40.4614 6.95963 39.4379 6.95963 37.2545L6.95963 6.34555C6.82317 2.04694 5.66323 1.09171 0.477621 1.02347L0.477621 0Z" transform="matrix(1 0 0 -1 3585.12 2160.23)"/></g><path d="M4055.09 950.614C4055.09 1022.58 3996.76 1080.92 3924.76 1080.92 3852.78 1080.92 3794.44 1022.58 3794.44 950.614 3794.44 878.64 3852.78 820.281 3924.76 820.281 3996.76 820.281 4055.09 878.64 4055.09 950.614" fill="#EE7621"/><path d="M4055.09 950.614C4055.09 1022.58 3996.76 1080.92 3924.76 1080.92 3852.78 1080.92 3794.44 1022.58 3794.44 950.614 3794.44 878.64 3852.78 820.281 3924.76 820.281 3996.76 820.281 4055.09 878.64 4055.09 950.614" stroke="#2E3436" stroke-width="4.8736" stroke-miterlimit="10" fill="none"/><g><path d="M13.3734 16.7168 0 3.27512 3.27512 0 16.6485 13.4417 30.0901 0 33.3652 3.27512 19.9237 16.7168 33.3652 30.0901 30.0901 33.3652 16.6485 19.9237 3.27512 33.3652 0 30.0901 13.3734 16.7168Z" transform="matrix(1 0 0 -1 3905.42 931.546)"/></g><g><path d="M20.5377 45.6469 19.9237 45.6469 0 0 40.666 0 20.5377 45.6469M30.9772 5.18561 8.93834 5.18561C7.30079 5.18561 6.6867 5.45853 6.6867 6.20908 6.6867 6.6867 6.95963 7.71017 7.43725 8.73364L18.4907 34.2523 30.9772 5.18561Z" transform="matrix(1 0 0 -1 3877.67 1005.19)"/></g><g><path d="M3.75274 32.0688C1.70579 32.0688 0 30.3631 0 28.1797 0 26.201 1.70579 24.4952 3.6845 24.4952 5.79969 24.4952 7.57371 26.1327 7.57371 28.1797 7.57371 30.2949 5.79969 32.0688 3.75274 32.0688M3.75274 7.57371C1.70579 7.57371 0 5.86793 0 3.6845 0 1.70579 1.70579 0 3.6845 0 5.79969 0 7.57371 1.63756 7.57371 3.6845 7.57371 5.79969 5.79969 7.57371 3.75274 7.57371Z" transform="matrix(1 0 0 -1 3925.43 1005.94)"/></g><g><path d="M7.50549 23.4717C11.5311 23.4717 13.1005 23.3352 14.6698 22.7212 18.9683 21.1518 21.5612 17.3308 21.5612 12.6228 21.5612 6.82317 17.7402 2.45634 12.6911 2.45634 10.7806 2.45634 9.41596 2.93396 6.8914 4.57152 4.91268 5.79969 3.75274 6.27731 2.5928 6.27731 1.02347 6.27731 0 5.32206 0 3.8892 0 1.50109 2.93396 0 7.71017 0 12.8958 0 18.2861 1.77402 21.5612 4.57152 24.768 7.36902 26.4739 11.3265 26.4739 15.898 26.4739 19.4461 25.3822 22.5847 23.4717 24.6999 22.0388 26.201 20.7425 27.0198 17.8084 28.3161 22.4482 31.5231 24.154 34.0475 24.154 37.7321 24.154 43.3271 19.8554 47.0799 13.5098 47.0799 10.0983 47.0799 7.09609 45.9199 4.63976 43.7365 2.5928 41.826 1.56933 40.1203 0.136464 36.0263L1.15994 35.7534C3.8892 40.8026 6.95963 42.9859 11.2582 42.9859 15.7615 42.9859 18.7637 40.052 18.7637 35.6851 18.7637 33.2288 17.7402 30.8407 16.0344 29.0666 13.9876 27.0198 12.077 25.9963 7.43725 24.3587L7.50549 23.4717Z" transform="matrix(1 0 0 -1 3941.12 1006.14)"/></g><path d="M4055.09 1525.69C4055.09 1597.67 3996.76 1656.02 3924.76 1656.02 3852.78 1656.02 3794.44 1597.67 3794.44 1525.69 3794.44 1453.72 3852.78 1395.38 3924.76 1395.38 3996.76 1395.38 4055.09 1453.72 4055.09 1525.69" fill="#EE7621"/><path d="M4055.09 1525.69C4055.09 1597.67 3996.76 1656.02 3924.76 1656.02 3852.78 1656.02 3794.44 1597.67 3794.44 1525.69 3794.44 1453.72 3852.78 1395.38 3924.76 1395.38 3996.76 1395.38 4055.09 1453.72 4055.09 1525.69" stroke="#2E3436" stroke-width="4.8736" stroke-miterlimit="10" fill="none"/><g><path d="M13.3734 16.7168 0 3.27512 3.27512 0 16.6485 13.4417 30.0901 0 33.3652 3.27512 19.9237 16.7168 33.3652 30.0901 30.0901 33.3652 16.6485 19.9237 3.27512 33.3652 0 30.0901 13.3734 16.7168Z" transform="matrix(1 0 0 -1 3905.42 1506.62)"/></g><g><path d="M20.5377 45.6469 19.9237 45.6469 0 0 40.666 0 20.5377 45.6469M30.9772 5.18561 8.93834 5.18561C7.30079 5.18561 6.6867 5.45853 6.6867 6.20908 6.6867 6.6867 6.95963 7.71017 7.43725 8.73364L18.4907 34.2523 30.9772 5.18561Z" transform="matrix(1 0 0 -1 3877.67 1580.28)"/></g><g><path d="M3.75274 32.0688C1.70579 32.0688 0 30.3631 0 28.1797 0 26.201 1.70579 24.4952 3.6845 24.4952 5.79969 24.4952 7.57371 26.1327 7.57371 28.1797 7.57371 30.2949 5.79969 32.0688 3.75274 32.0688M3.75274 7.57371C1.70579 7.57371 0 5.86793 0 3.6845 0 1.70579 1.70579 0 3.6845 0 5.79969 0 7.57371 1.63756 7.57371 3.6845 7.57371 5.79969 5.79969 7.57371 3.75274 7.57371Z" transform="matrix(1 0 0 -1 3925.43 1581.02)"/></g><g><path d="M30.3631 9.34773 29.4761 9.6889C26.9515 5.73146 26.201 5.25384 22.9941 5.18561L6.6867 5.18561 18.1496 17.1944C24.2223 23.5399 26.8833 28.7255 26.8833 34.0475 26.8833 40.8707 21.3565 46.1245 14.2604 46.1245 10.5077 46.1245 6.95963 44.6234 4.43506 41.8942 2.25164 39.5744 1.22817 37.3909 0.0682317 32.5464L1.50109 32.2053C4.23036 38.892 6.61847 41.0755 11.3947 41.0755 17.1944 41.0755 21.0153 37.1862 21.0153 31.4548 21.0153 26.0645 17.8767 19.7871 12.1452 13.7145L0 0.818779 0 0 26.6103 0 30.3631 9.34773Z" transform="matrix(1 0 0 -1 3940.23 1580.28)"/></g><path d="M4055.09 2105.66C4055.09 2177.63 3996.76 2235.99 3924.76 2235.99 3852.78 2235.99 3794.44 2177.63 3794.44 2105.66 3794.44 2033.67 3852.78 1975.34 3924.76 1975.34 3996.76 1975.34 4055.09 2033.67 4055.09 2105.66" fill="#EE7621"/><path d="M4055.09 2105.66C4055.09 2177.63 3996.76 2235.99 3924.76 2235.99 3852.78 2235.99 3794.44 2177.63 3794.44 2105.66 3794.44 2033.67 3852.78 1975.34 3924.76 1975.34 3996.76 1975.34 4055.09 2033.67 4055.09 2105.66" stroke="#2E3436" stroke-width="4.8736" stroke-miterlimit="10" fill="none"/><g><path d="M27.6338 5.18561C26.4739 4.23036 25.6551 3.8892 24.6316 3.8892 23.0623 3.8892 22.5847 4.84444 22.5847 7.84664L22.5847 21.1518C22.5847 24.6999 22.2436 26.6786 21.2201 28.3161 19.719 30.7725 16.785 32.0688 12.7593 32.0688 6.34555 32.0688 1.29641 28.7255 1.29641 24.4269 1.29641 22.8576 2.5928 21.4929 4.23036 21.4929 5.86793 21.4929 7.30079 22.8576 7.30079 24.3587 7.30079 24.6316 7.23255 24.9728 7.16432 25.4504 7.02785 26.0645 6.95963 26.6103 6.95963 27.0879 6.95963 28.9302 9.14304 30.4313 11.8723 30.4313 15.2156 30.4313 17.0579 28.4526 17.0579 24.768L17.0579 20.606C6.61847 16.4439 5.3903 15.8297 2.45634 13.2369 0.955243 11.8723 0 9.55243 0 7.30079 0 3.0022 3.0022 0 7.16432 0 10.1665 0 12.9641 1.43286 17.1262 4.98091 17.4672 1.36464 18.6955 0 21.4929 0 23.8128 0 25.2456 0.818779 27.6338 3.41158L27.6338 5.18561M17.0579 9.07481C17.0579 7.02785 16.7168 6.27731 15.2839 5.45853 13.5781 4.50329 11.7358 3.95744 10.303 3.95744 7.91487 3.95744 6.00438 6.27731 6.00438 9.21128L6.00438 9.4842C6.07261 13.5781 9.07481 16.1709 17.0579 18.9683L17.0579 9.07481Z" transform="matrix(1 0 0 -1 3910.24 2087.81)"/></g><g><path d="M20.5377 45.6469 19.9237 45.6469 0 0 40.666 0 20.5377 45.6469M30.9772 5.18561 8.93834 5.18561C7.30079 5.18561 6.6867 5.45853 6.6867 6.20908 6.6867 6.6867 6.95963 7.71017 7.43725 8.73364L18.4907 34.2523 30.9772 5.18561Z" transform="matrix(1 0 0 -1 3877.67 2160.23)"/></g><g><path d="M3.75274 32.0688C1.70579 32.0688 0 30.3631 0 28.1797 0 26.201 1.70579 24.4952 3.6845 24.4952 5.79969 24.4952 7.57371 26.1327 7.57371 28.1797 7.57371 30.2949 5.79969 32.0688 3.75274 32.0688M3.75274 7.57371C1.70579 7.57371 0 5.86793 0 3.6845 0 1.70579 1.70579 0 3.6845 0 5.79969 0 7.57371 1.63756 7.57371 3.6845 7.57371 5.79969 5.79969 7.57371 3.75274 7.57371Z" transform="matrix(1 0 0 -1 3925.43 2160.98)"/></g><g><path d="M0.477621 0 19.3095 0 19.3095 1.02347C14.0557 1.02347 12.8958 1.77402 12.8275 5.04914L12.8275 45.9881 12.2817 46.1245 0 39.9155 0 38.9603C2.66103 39.9837 4.29859 40.4614 4.91268 40.4614 6.34555 40.4614 6.95963 39.4379 6.95963 37.2545L6.95963 6.34555C6.82317 2.04694 5.66323 1.09171 0.477621 1.02347L0.477621 0Z" transform="matrix(1 0 0 -1 3945.76 2160.23)"/></g><path d="M4415.74 2105.66C4415.74 2177.63 4357.39 2235.99 4285.41 2235.99 4213.44 2235.99 4155.1 2177.63 4155.1 2105.66 4155.1 2033.67 4213.44 1975.34 4285.41 1975.34 4357.39 1975.34 4415.74 2033.67 4415.74 2105.66" fill="#EE7621"/><path d="M4415.74 2105.66C4415.74 2177.63 4357.39 2235.99 4285.41 2235.99 4213.44 2235.99 4155.1 2177.63 4155.1 2105.66 4155.1 2033.67 4213.44 1975.34 4285.41 1975.34 4357.39 1975.34 4415.74 2033.67 4415.74 2105.66" stroke="#2E3436" stroke-width="4.8736" stroke-miterlimit="10" fill="none"/><g><path d="M10.2347 47.148 9.89358 47.2845C7.09609 46.3293 5.25384 45.7152 1.97871 44.8282L0 44.2824 0 43.1906C0.40939 43.2589 0.614085 43.2589 1.15994 43.2589 3.8892 43.2589 4.50329 42.6447 4.50329 39.7791L4.50329 4.36682C4.50329 2.25164 10.2347 0 15.7615 0 24.768 0 31.7277 7.50549 31.7277 17.2626 31.7277 25.7234 26.5422 32.0688 19.719 32.0688 15.5568 32.0688 11.5994 29.6808 10.2347 26.2691L10.2347 47.148M10.2347 22.6529C10.2347 25.3139 13.4417 27.7702 16.9896 27.7702 18.9002 27.7702 20.606 27.0879 22.0388 25.7915 24.2223 23.6764 25.7234 19.0366 25.7234 14.124 25.7234 6.55023 22.4482 2.18341 16.8532 2.18341 13.3052 2.18341 10.2347 3.6845 10.2347 5.45853L10.2347 22.6529Z" transform="matrix(1 0 0 -1 4268.56 2087.81)"/></g><g><path d="M20.5377 45.6469 19.9237 45.6469 0 0 40.666 0 20.5377 45.6469M30.9772 5.18561 8.93834 5.18561C7.30079 5.18561 6.6867 5.45853 6.6867 6.20908 6.6867 6.6867 6.95963 7.71017 7.43725 8.73364L18.4907 34.2523 30.9772 5.18561Z" transform="matrix(1 0 0 -1 4238.32 2160.23)"/></g><g><path d="M3.75274 32.0688C1.70579 32.0688 0 30.3631 0 28.1797 0 26.201 1.70579 24.4952 3.6845 24.4952 5.79969 24.4952 7.57371 26.1327 7.57371 28.1797 7.57371 30.2949 5.79969 32.0688 3.75274 32.0688M3.75274 7.57371C1.70579 7.57371 0 5.86793 0 3.6845 0 1.70579 1.70579 0 3.6845 0 5.79969 0 7.57371 1.63756 7.57371 3.6845 7.57371 5.79969 5.79969 7.57371 3.75274 7.57371Z" transform="matrix(1 0 0 -1 4286.08 2160.98)"/></g><g><path d="M0.477621 0 19.3095 0 19.3095 1.02347C14.0557 1.02347 12.8958 1.77402 12.8275 5.04914L12.8275 45.9881 12.2817 46.1245 0 39.9155 0 38.9603C2.66103 39.9837 4.29859 40.4614 4.91268 40.4614 6.34555 40.4614 6.95963 39.4379 6.95963 37.2545L6.95963 6.34555C6.82317 2.04694 5.66323 1.09171 0.477621 1.02347L0.477621 0Z" transform="matrix(1 0 0 -1 4306.41 2160.23)"/></g><path d="M4415.74 1525.69C4415.74 1597.67 4357.39 1656.02 4285.41 1656.02 4213.44 1656.02 4155.1 1597.67 4155.1 1525.69 4155.1 1453.72 4213.44 1395.38 4285.41 1395.38 4357.39 1395.38 4415.74 1453.72 4415.74 1525.69" fill="#FFFFF0"/><path d="M4415.74 1525.69C4415.74 1597.67 4357.39 1656.02 4285.41 1656.02 4213.44 1656.02 4155.1 1597.67 4155.1 1525.69 4155.1 1453.72 4213.44 1395.38 4285.41 1395.38 4357.39 1395.38 4415.74 1453.72 4415.74 1525.69" stroke="#2E3436" stroke-width="4.8736" stroke-miterlimit="10" fill="none"/><g><path d="M25.4504 11.3265C22.1753 6.55023 19.719 4.91268 15.8297 4.91268 9.55243 4.91268 5.25384 10.3712 5.25384 18.2179 5.25384 25.3139 9.00658 30.0901 14.5333 30.0901 16.9896 30.0901 17.8767 29.4078 18.559 26.815L18.9683 25.3139C19.5142 23.3352 20.7425 22.1753 22.2436 22.1753 24.0175 22.1753 25.4504 23.4717 25.4504 25.041 25.4504 28.862 20.6742 32.0688 14.9428 32.0688 11.5994 32.0688 8.11956 30.7043 5.32206 28.2479 1.91049 25.2456 0 20.606 0 15.1474 0 6.34555 5.3903 0 12.9641 0 16.0344 0 18.7637 1.09171 21.2201 3.20688 23.0623 4.77621 24.3587 6.6867 26.4056 10.7124L25.4504 11.3265Z" transform="matrix(1 0 0 -1 4270.05 1507.84)"/></g><g><path d="M20.5377 45.6469 19.9237 45.6469 0 0 40.666 0 20.5377 45.6469M30.9772 5.18561 8.93834 5.18561C7.30079 5.18561 6.6867 5.45853 6.6867 6.20908 6.6867 6.6867 6.95963 7.71017 7.43725 8.73364L18.4907 34.2523 30.9772 5.18561Z" transform="matrix(1 0 0 -1 4238.32 1580.28)"/></g><g><path d="M3.75274 32.0688C1.70579 32.0688 0 30.3631 0 28.1797 0 26.201 1.70579 24.4952 3.6845 24.4952 5.79969 24.4952 7.57371 26.1327 7.57371 28.1797 7.57371 30.2949 5.79969 32.0688 3.75274 32.0688M3.75274 7.57371C1.70579 7.57371 0 5.86793 0 3.6845 0 1.70579 1.70579 0 3.6845 0 5.79969 0 7.57371 1.63756 7.57371 3.6845 7.57371 5.79969 5.79969 7.57371 3.75274 7.57371Z" transform="matrix(1 0 0 -1 4286.08 1581.02)"/></g><g><path d="M0.477621 0 19.3095 0 19.3095 1.02347C14.0557 1.02347 12.8958 1.77402 12.8275 5.04914L12.8275 45.9881 12.2817 46.1245 0 39.9155 0 38.9603C2.66103 39.9837 4.29859 40.4614 4.91268 40.4614 6.34555 40.4614 6.95963 39.4379 6.95963 37.2545L6.95963 6.34555C6.82317 2.04694 5.66323 1.09171 0.477621 1.02347L0.477621 0Z" transform="matrix(1 0 0 -1 4306.41 1580.28)"/></g><path d="M2299.83 2056.25C2334.9 1929.43 2517.1 1655.98 2603.81 1531.45 2690.53 1406.91 2746.06 1324.65 2820.12 1309.03 2894.16 1293.43 3016.61 1349.36 3048.11 1437.79 3079.62 1526.24 3013.69 1721.66 3009.14 1839.69 3004.59 1957.72 3043.24 2070.55 3020.83 2145.98 2998.42 2221.42 2979.26 2267.92 2874.68 2292.31 2770.1 2316.7 2489.17 2331.65 2393.37 2292.31 2297.55 2252.96 2264.75 2183.05 2299.83 2056.25Z" stroke="#FF0000" stroke-width="17.7154" stroke-miterlimit="8" stroke-dasharray="141.723 53.1461 17.7154 53.1461 17.7154 53.1461" fill="none" fill-rule="evenodd"/><path d="M4091.67 2291.2C3972.82 2307.12 3876.7 2317.2 3818.89 2285.35 3761.1 2253.51 3756.87 2224.91 3744.86 2100.14 3732.84 1975.36 3744.86 1745.31 3746.81 1536.7 3748.75 1328.1 3702.96 976.201 3756.55 848.496 3810.13 720.797 3980.61 708.775 4068.29 770.512 4155.96 832.249 4202.72 1085.7 4282.61 1218.92 4362.49 1352.14 4543.03 1479.19 4547.58 1569.85 4552.13 1660.5 4340.09 1708.6 4309.89 1762.85 4279.69 1817.12 4330.99 1859.03 4366.38 1895.43 4401.79 1931.83 4494.66 1932.15 4522.25 1981.21 4549.86 2030.27 4604.09 2138.49 4531.99 2189.81 4459.91 2241.16 4210.51 2275.27 4091.67 2291.2Z" stroke="#0070C0" stroke-width="17.7154" stroke-miterlimit="8" stroke-dasharray="70.8615 53.1461" fill="none" fill-rule="evenodd"/></g></g></g></g><g><g><g><g><path d="M888.162 455.559C858.745 520.806 822.23 601.863 792.884 666.996" stroke="#2E3436" stroke-width="4.87848" stroke-miterlimit="10" fill="none"/><path d="M991.973 455.559C1020.43 520.298 1055.73 600.584 1084.24 665.457" stroke="#2E3436" stroke-width="4.87848" stroke-miterlimit="10" fill="none"/><path d="M654.94 887.878C588.673 961.526 497.332 1062.99 431.1 1136.57" stroke="#2E3436" stroke-width="4.87848" stroke-miterlimit="10" fill="none"/><path d="M740.691 919.605C740.691 977.864 740.691 1046.74 740.691 1104.97" stroke="#2E3436" stroke-width="4.87848" stroke-miterlimit="10" fill="none"/><path d="M259.783 1337.76C193.505 1412.22 102.194 1514.82 35.9567 1589.23" stroke="#2E3436" stroke-width="4.87848" stroke-miterlimit="10" fill="none"/><path d="M345.526 1369.83C345.526 1429.24 345.526 1499.6 345.526 1558.78" stroke="#2E3436" stroke-width="4.87848" stroke-miterlimit="10" fill="none"/><path d="M-102.175 1810.48C-131.352 1874.51-167.516 1953.92-196.753 2018.07" stroke="#2E3436" stroke-width="4.87848" stroke-miterlimit="10" fill="none"/><path d="M2.67584 1812.79C30.9026 1876.28 65.6016 1954.41 93.753 2017.72" stroke="#2E3436" stroke-width="4.87848" stroke-miterlimit="10" fill="none"/><path d="M740.691 1369.83C740.691 1429.24 740.691 1499.6 740.691 1558.78" stroke="#2E3436" stroke-width="4.87848" stroke-miterlimit="10" fill="none"/><path d="M826.443 1337.76C892.71 1412.22 984.026 1514.82 1050.26 1589.23" stroke="#2E3436" stroke-width="4.87848" stroke-miterlimit="10" fill="none"/><path d="M1135.85 919.605C1135.85 977.864 1135.85 1046.74 1135.85 1104.97" stroke="#2E3436" stroke-width="4.87848" stroke-miterlimit="10" fill="none"/><path d="M1221.58 887.878C1287.87 961.526 1379.19 1062.99 1445.42 1136.57" stroke="#2E3436" stroke-width="4.87848" stroke-miterlimit="10" fill="none"/><path d="M1071.15 334.04C1071.15 406.075 1012.75 464.489 940.702 464.489 868.642 464.489 810.25 406.075 810.25 334.04 810.25 261.986 868.642 203.572 940.702 203.572 1012.75 203.572 1071.15 261.986 1071.15 334.04" fill="#EE7621"/><path d="M1071.15 334.04C1071.15 406.075 1012.75 464.489 940.702 464.489 868.642 464.489 810.25 406.075 810.25 334.04 810.25 261.986 868.642 203.572 940.702 203.572 1012.75 203.572 1071.15 261.986 1071.15 334.04" stroke="#2E3436" stroke-width="4.87848" stroke-miterlimit="10" fill="none"/><g><path d="M13.3868 16.7334 0 3.27839 3.27839 0 16.6652 13.4551 30.1202 0 33.3986 3.27839 19.9435 16.7334 33.3986 30.1202 30.1202 33.3986 16.6652 19.9435 3.27839 33.3986 0 30.1202 13.3868 16.7334Z" transform="matrix(1 0 0 -1 921.35 314.94)"/></g><g><path d="M20.5583 45.6926 19.9435 45.6926 0 0 40.7067 0 20.5583 45.6926M31.0081 5.19079 8.94727 5.19079C7.30808 5.19079 6.69338 5.46398 6.69338 6.21528 6.69338 6.69338 6.96657 7.71788 7.44467 8.74237L18.5092 34.2865 31.0081 5.19079Z" transform="matrix(1 0 0 -1 893.548 388.667)"/></g><g><path d="M3.75649 32.1009C1.7075 32.1009 0 30.3934 0 28.2078 0 26.2271 1.7075 24.5196 3.68819 24.5196 5.80548 24.5196 7.58128 26.1589 7.58128 28.2078 7.58128 30.3251 5.80548 32.1009 3.75649 32.1009M3.75649 7.58128C1.7075 7.58128 0 5.87378 0 3.68819 0 1.7075 1.7075 0 3.68819 0 5.80548 0 7.58128 1.6392 7.58128 3.68819 7.58128 5.80548 5.80548 7.58128 3.75649 7.58128Z" transform="matrix(1 0 0 -1 941.36 389.419)"/></g><g><path d="M10.1767 40.775 23.5635 40.775C24.7245 40.775 24.9294 40.8432 25.1343 41.3897L27.7297 47.4684 27.115 47.9464C26.0905 46.5805 25.4759 46.1707 23.9733 46.1707L9.69856 46.1707 2.25389 29.9836C2.18559 29.847 2.18559 29.7787 2.18559 29.6421 2.18559 29.2323 2.4588 29.0957 3.00519 29.0957 5.19079 29.0957 7.85447 28.6176 10.7231 27.7297 18.5776 25.2026 22.1291 21.0363 22.1291 14.2064 22.1291 7.64958 18.0311 2.5271 12.6354 2.5271 11.2695 2.5271 10.1767 3.00519 8.12767 4.50779 5.94208 6.14699 4.43949 6.76168 2.86859 6.76168 0.956197 6.76168 0 5.94208 0 4.23458 0 1.6392 3.14179 0 8.33257 0 14.0015 0 18.919 1.84409 22.4023 5.32739 25.4759 8.40088 26.9101 12.294 26.9101 17.4848 26.9101 22.4023 25.6124 25.5441 22.2658 28.9592 19.2606 31.9644 15.3675 33.5352 7.30808 34.9695L10.1767 40.775Z" transform="matrix(1 0 0 -1 956.32 389.623)"/></g><path d="M871.132 787.737C871.132 859.786 812.739 918.185 740.691 918.185 668.632 918.185 610.239 859.786 610.239 787.737 610.239 715.683 668.632 657.285 740.691 657.285 812.739 657.285 871.132 715.683 871.132 787.737" fill="#EE7621"/><path d="M871.132 787.737C871.132 859.786 812.739 918.185 740.691 918.185 668.632 918.185 610.239 859.786 610.239 787.737 610.239 715.683 668.632 657.285 740.691 657.285 812.739 657.285 871.132 715.683 871.132 787.737" stroke="#2E3436" stroke-width="4.87848" stroke-miterlimit="10" fill="none"/><g><path d="M13.3868 16.7334 0 3.27839 3.27839 0 16.6652 13.4551 30.1202 0 33.3986 3.27839 19.9435 16.7334 33.3986 30.1202 30.1202 33.3986 16.6652 19.9435 3.27839 33.3986 0 30.1202 13.3868 16.7334Z" transform="matrix(1 0 0 -1 721.327 768.654)"/></g><g><path d="M20.5583 45.6926 19.9435 45.6926 0 0 40.7067 0 20.5583 45.6926M31.0081 5.19079 8.94727 5.19079C7.30808 5.19079 6.69338 5.46398 6.69338 6.21528 6.69338 6.69338 6.96657 7.71788 7.44467 8.74237L18.5092 34.2865 31.0081 5.19079Z" transform="matrix(1 0 0 -1 693.537 842.362)"/></g><g><path d="M3.75649 32.1009C1.7075 32.1009 0 30.3934 0 28.2078 0 26.2271 1.7075 24.5196 3.68819 24.5196 5.80548 24.5196 7.58128 26.1589 7.58128 28.2078 7.58128 30.3251 5.80548 32.1009 3.75649 32.1009M3.75649 7.58128C1.7075 7.58128 0 5.87378 0 3.68819 0 1.7075 1.7075 0 3.68819 0 5.80548 0 7.58128 1.6392 7.58128 3.68819 7.58128 5.80548 5.80548 7.58128 3.75649 7.58128Z" transform="matrix(1 0 0 -1 741.35 843.113)"/></g><g><path d="M31.4179 15.7773 24.4513 15.7773 24.4513 46.1707 21.4461 46.1707 0 15.7773 0 11.4061 19.1923 11.4061 19.1923 0 24.4513 0 24.4513 11.4061 31.4179 11.4061 31.4179 15.7773M19.1239 15.7773 2.73199 15.7773 19.1239 39.2041 19.1239 15.7773Z" transform="matrix(1 0 0 -1 754.945 842.362)"/></g><path d="M475.981 1236.55C475.981 1308.6 417.579 1366.99 345.526 1366.99 273.476 1366.99 215.078 1308.6 215.078 1236.55 215.078 1164.49 273.476 1106.09 345.526 1106.09 417.579 1106.09 475.981 1164.49 475.981 1236.55" fill="#EE7621"/><path d="M475.981 1236.55C475.981 1308.6 417.579 1366.99 345.526 1366.99 273.476 1366.99 215.078 1308.6 215.078 1236.55 215.078 1164.49 273.476 1106.09 345.526 1106.09 417.579 1106.09 475.981 1164.49 475.981 1236.55" stroke="#2E3436" stroke-width="4.87848" stroke-miterlimit="10" fill="none"/><g><path d="M13.3868 16.7334 0 3.27839 3.27839 0 16.6652 13.4551 30.1202 0 33.3986 3.27839 19.9435 16.7334 33.3986 30.1202 30.1202 33.3986 16.6652 19.9435 3.27839 33.3986 0 30.1202 13.3868 16.7334Z" transform="matrix(1 0 0 -1 326.18 1217.47)"/></g><g><path d="M20.5583 45.6926 19.9435 45.6926 0 0 40.7067 0 20.5583 45.6926M31.0081 5.19079 8.94727 5.19079C7.30808 5.19079 6.69338 5.46398 6.69338 6.21528 6.69338 6.69338 6.96657 7.71788 7.44467 8.74237L18.5092 34.2865 31.0081 5.19079Z" transform="matrix(1 0 0 -1 298.38 1291.19)"/></g><g><path d="M3.75649 32.1009C1.7075 32.1009 0 30.3934 0 28.2078 0 26.2271 1.7075 24.5196 3.68819 24.5196 5.80548 24.5196 7.58128 26.1589 7.58128 28.2078 7.58128 30.3251 5.80548 32.1009 3.75649 32.1009M3.75649 7.58128C1.7075 7.58128 0 5.87378 0 3.68819 0 1.7075 1.7075 0 3.68819 0 5.80548 0 7.58128 1.6392 7.58128 3.68819 7.58128 5.80548 5.80548 7.58128 3.75649 7.58128Z" transform="matrix(1 0 0 -1 346.19 1291.94)"/></g><g><path d="M7.51298 23.4951C11.5427 23.4951 13.1136 23.3586 14.6845 22.7438 18.9874 21.173 21.5828 17.3481 21.5828 12.6354 21.5828 6.82998 17.758 2.4588 12.7038 2.4588 10.7914 2.4588 9.42537 2.9369 6.89828 4.57608 4.91759 5.80548 3.75649 6.28358 2.59539 6.28358 1.0245 6.28358 0 5.32739 0 3.89309 0 1.50259 2.9369 0 7.71788 0 12.9087 0 18.3043 1.7758 21.5828 4.57608 24.7928 7.37637 26.5003 11.3378 26.5003 15.9138 26.5003 19.4655 25.4075 22.6072 23.4951 24.7245 22.0609 26.2271 20.7632 27.0467 17.8262 28.3444 22.4707 31.5545 24.1782 34.0816 24.1782 37.7698 24.1782 43.3704 19.8753 47.1269 13.5233 47.1269 10.1084 47.1269 7.10318 45.9658 4.64438 43.7802 2.59539 41.8678 1.57089 40.1602 0.1366 36.0622L1.1611 35.7891C3.89309 40.8432 6.96657 43.0289 11.2695 43.0289 15.7773 43.0289 18.7825 40.092 18.7825 35.7208 18.7825 33.2621 17.758 30.8716 16.0504 29.0957 14.0015 27.0467 12.0891 26.0222 7.44467 24.3831L7.51298 23.4951Z" transform="matrix(1 0 0 -1 361.899 1292.15)"/></g><path d="M80.8358 1690.24C80.8358 1762.3 22.4208 1820.7-49.633 1820.7-121.667 1820.7-180.08 1762.3-180.08 1690.24-180.08 1618.2-121.667 1559.79-49.633 1559.79 22.4208 1559.79 80.8358 1618.2 80.8358 1690.24" fill="#EE7621"/><path d="M80.8358 1690.24C80.8358 1762.3 22.4208 1820.7-49.633 1820.7-121.667 1820.7-180.08 1762.3-180.08 1690.24-180.08 1618.2-121.667 1559.79-49.633 1559.79 22.4208 1559.79 80.8358 1618.2 80.8358 1690.24" stroke="#2E3436" stroke-width="4.87848" stroke-miterlimit="10" fill="none"/><g><path d="M13.3868 16.7334 0 3.27839 3.27839 0 16.6652 13.4551 30.1202 0 33.3986 3.27839 19.9435 16.7334 33.3986 30.1202 30.1202 33.3986 16.6652 19.9435 3.27839 33.3986 0 30.1202 13.3868 16.7334Z" transform="matrix(1 0 0 -1 -68.9807 1671.16)"/></g><g><path d="M20.5583 45.6926 19.9435 45.6926 0 0 40.7067 0 20.5583 45.6926M31.0081 5.19079 8.94727 5.19079C7.30808 5.19079 6.69338 5.46398 6.69338 6.21528 6.69338 6.69338 6.96657 7.71788 7.44467 8.74237L18.5092 34.2865 31.0081 5.19079Z" transform="matrix(1 0 0 -1 -96.7622 1744.89)"/></g><g><path d="M3.75649 32.1009C1.7075 32.1009 0 30.3934 0 28.2078 0 26.2271 1.7075 24.5196 3.68819 24.5196 5.80548 24.5196 7.58128 26.1589 7.58128 28.2078 7.58128 30.3251 5.80548 32.1009 3.75649 32.1009M3.75649 7.58128C1.7075 7.58128 0 5.87378 0 3.68819 0 1.7075 1.7075 0 3.68819 0 5.80548 0 7.58128 1.6392 7.58128 3.68819 7.58128 5.80548 5.80548 7.58128 3.75649 7.58128Z" transform="matrix(1 0 0 -1 -48.9521 1745.64)"/></g><g><path d="M30.3934 9.35707 29.5055 9.69856C26.9785 5.73719 26.2271 5.25909 23.017 5.19079L6.69338 5.19079 18.1678 17.2115C24.2464 23.5635 26.9101 28.7542 26.9101 34.0816 26.9101 40.9116 21.3779 46.1707 14.2747 46.1707 10.5182 46.1707 6.96657 44.6681 4.43949 41.9361 2.25389 39.6139 1.2294 37.4283 0.0682998 32.579L1.50259 32.2375C4.23458 38.9309 6.62508 41.1165 11.4061 41.1165 17.2115 41.1165 21.0363 37.2234 21.0363 31.4862 21.0363 26.0905 17.8946 19.8069 12.1574 13.7282L0 0.819597 0 0 26.6369 0 30.3934 9.35707Z" transform="matrix(1 0 0 -1 -34.1308 1744.89)"/></g><path d="M-119.196 2139.07C-119.196 2211.13-177.591 2269.52-249.645 2269.52-321.699 2269.52-380.097 2211.13-380.097 2139.07-380.097 2067.02-321.699 2008.63-249.645 2008.63-177.591 2008.63-119.196 2067.02-119.196 2139.07" fill="#EE7621"/><path d="M-119.196 2139.07C-119.196 2211.13-177.591 2269.52-249.645 2269.52-321.699 2269.52-380.097 2211.13-380.097 2139.07-380.097 2067.02-321.699 2008.63-249.645 2008.63-177.591 2008.63-119.196 2067.02-119.196 2139.07" stroke="#2E3436" stroke-width="4.87848" stroke-miterlimit="10" fill="none"/><g><path d="M27.6615 5.19079C26.5003 4.23458 25.6808 3.89309 24.6562 3.89309 23.0854 3.89309 22.6072 4.84929 22.6072 7.85447L22.6072 21.173C22.6072 24.7245 22.2658 26.7052 21.2412 28.3444 19.7386 30.8032 16.8018 32.1009 12.7721 32.1009 6.35188 32.1009 1.2977 28.7542 1.2977 24.4513 1.2977 22.8805 2.59539 21.5144 4.23458 21.5144 5.87378 21.5144 7.30808 22.8805 7.30808 24.3831 7.30808 24.6562 7.23978 24.9977 7.17148 25.4759 7.03488 26.0905 6.96657 26.6369 6.96657 27.115 6.96657 28.9592 9.15217 30.4618 11.8842 30.4618 15.2308 30.4618 17.075 28.4811 17.075 24.7928L17.075 20.6265C6.62508 16.4603 5.39568 15.8455 2.4588 13.2501 0.956197 11.8842 0 9.56197 0 7.30808 0 3.00519 3.00519 0 7.17148 0 10.1767 0 12.977 1.43429 17.1432 4.98588 17.4848 1.366 18.7141 0 21.5144 0 23.8366 0 25.271 0.819597 27.6615 3.41499L27.6615 5.19079M17.075 9.08387C17.075 7.03488 16.7334 6.28358 15.2992 5.46398 13.5917 4.50779 11.7476 3.96139 10.3133 3.96139 7.92278 3.96139 6.01038 6.28358 6.01038 9.22048L6.01038 9.49367C6.07869 13.5917 9.08387 16.1871 17.075 18.9874L17.075 9.08387Z" transform="matrix(1 0 0 -1 -264.198 2121.22)"/></g><g><path d="M20.5583 45.6926 19.9435 45.6926 0 0 40.7067 0 20.5583 45.6926M31.0081 5.19079 8.94727 5.19079C7.30808 5.19079 6.69338 5.46398 6.69338 6.21528 6.69338 6.69338 6.96657 7.71788 7.44467 8.74237L18.5092 34.2865 31.0081 5.19079Z" transform="matrix(1 0 0 -1 -296.793 2193.7)"/></g><g><path d="M3.75649 32.1009C1.7075 32.1009 0 30.3934 0 28.2078 0 26.2271 1.7075 24.5196 3.68819 24.5196 5.80548 24.5196 7.58128 26.1589 7.58128 28.2078 7.58128 30.3251 5.80548 32.1009 3.75649 32.1009M3.75649 7.58128C1.7075 7.58128 0 5.87378 0 3.68819 0 1.7075 1.7075 0 3.68819 0 5.80548 0 7.58128 1.6392 7.58128 3.68819 7.58128 5.80548 5.80548 7.58128 3.75649 7.58128Z" transform="matrix(1 0 0 -1 -248.984 2194.44)"/></g><g><path d="M0.478099 0 19.3288 0 19.3288 1.0245C14.0698 1.0245 12.9087 1.7758 12.8403 5.05418L12.8403 46.034 12.294 46.1707 0 39.9553 0 38.9992C2.66369 40.0237 4.30289 40.5018 4.91759 40.5018 6.35188 40.5018 6.96657 39.4773 6.96657 37.2917L6.96657 6.35188C6.82998 2.049 5.66889 1.0928 0.478099 1.0245L0.478099 0Z" transform="matrix(1 0 0 -1 -228.63 2193.7)"/></g><path d="M275.967 2139.07C275.967 2211.13 217.568 2269.52 145.514 2269.52 73.4647 2269.52 15.0665 2211.13 15.0665 2139.07 15.0665 2067.02 73.4647 2008.63 145.514 2008.63 217.568 2008.63 275.967 2067.02 275.967 2139.07" fill="#EE7621"/><path d="M275.967 2139.07C275.967 2211.13 217.568 2269.52 145.514 2269.52 73.4647 2269.52 15.0665 2211.13 15.0665 2139.07 15.0665 2067.02 73.4647 2008.63 145.514 2008.63 217.568 2008.63 275.967 2067.02 275.967 2139.07" stroke="#2E3436" stroke-width="4.87848" stroke-miterlimit="10" fill="none"/><g><path d="M10.245 47.1952 9.90347 47.3317C7.10318 46.3756 5.25909 45.7608 1.98069 44.873L0 44.3266 0 43.2337C0.409799 43.3021 0.614698 43.3021 1.1611 43.3021 3.89309 43.3021 4.50779 42.6874 4.50779 39.8188L4.50779 4.37119C4.50779 2.25389 10.245 0 15.7773 0 24.7928 0 31.7595 7.51298 31.7595 17.2799 31.7595 25.749 26.5687 32.1009 19.7386 32.1009 15.5724 32.1009 11.611 29.7104 10.245 26.2954L10.245 47.1952M10.245 22.6756C10.245 25.3392 13.455 27.798 17.0066 27.798 18.919 27.798 20.6265 27.115 22.0609 25.8173 24.2464 23.7 25.749 19.0556 25.749 14.138 25.749 6.55678 22.4707 2.18559 16.8701 2.18559 13.3184 2.18559 10.245 3.68819 10.245 5.46398L10.245 22.6756Z" transform="matrix(1 0 0 -1 128.641 2121.22)"/></g><g><path d="M20.5583 45.6926 19.9435 45.6926 0 0 40.7067 0 20.5583 45.6926M31.0081 5.19079 8.94727 5.19079C7.30808 5.19079 6.69338 5.46398 6.69338 6.21528 6.69338 6.69338 6.96657 7.71788 7.44467 8.74237L18.5092 34.2865 31.0081 5.19079Z" transform="matrix(1 0 0 -1 98.3679 2193.7)"/></g><g><path d="M3.75649 32.1009C1.7075 32.1009 0 30.3934 0 28.2078 0 26.2271 1.7075 24.5196 3.68819 24.5196 5.80548 24.5196 7.58128 26.1589 7.58128 28.2078 7.58128 30.3251 5.80548 32.1009 3.75649 32.1009M3.75649 7.58128C1.7075 7.58128 0 5.87378 0 3.68819 0 1.7075 1.7075 0 3.68819 0 5.80548 0 7.58128 1.6392 7.58128 3.68819 7.58128 5.80548 5.80548 7.58128 3.75649 7.58128Z" transform="matrix(1 0 0 -1 146.178 2194.44)"/></g><g><path d="M0.478099 0 19.3288 0 19.3288 1.0245C14.0698 1.0245 12.9087 1.7758 12.8403 5.05418L12.8403 46.034 12.294 46.1707 0 39.9553 0 38.9992C2.66369 40.0237 4.30289 40.5018 4.91759 40.5018 6.35188 40.5018 6.96657 39.4773 6.96657 37.2917L6.96657 6.35188C6.82998 2.049 5.66889 1.0928 0.478099 1.0245L0.478099 0Z" transform="matrix(1 0 0 -1 166.531 2193.7)"/></g><path d="M475.981 1690.24C475.981 1762.3 417.579 1820.7 345.526 1820.7 273.476 1820.7 215.078 1762.3 215.078 1690.24 215.078 1618.2 273.476 1559.79 345.526 1559.79 417.579 1559.79 475.981 1618.2 475.981 1690.24" fill="#FFFFF0"/><path d="M475.981 1690.24C475.981 1762.3 417.579 1820.7 345.526 1820.7 273.476 1820.7 215.078 1762.3 215.078 1690.24 215.078 1618.2 273.476 1559.79 345.526 1559.79 417.579 1559.79 475.981 1618.2 475.981 1690.24" stroke="#2E3436" stroke-width="4.87848" stroke-miterlimit="10" fill="none"/><g><path d="M25.4759 11.3378C22.1974 6.55678 19.7386 4.91759 15.8455 4.91759 9.56197 4.91759 5.25909 10.3816 5.25909 18.236 5.25909 25.3392 9.01557 30.1202 14.5478 30.1202 17.0066 30.1202 17.8946 29.4372 18.5776 26.8418L18.9874 25.3392C19.5337 23.3586 20.7632 22.1974 22.2658 22.1974 24.0415 22.1974 25.4759 23.4951 25.4759 25.0661 25.4759 28.8908 20.6949 32.1009 14.9577 32.1009 11.611 32.1009 8.12768 30.7349 5.32739 28.2762 1.91239 25.271 0 20.6265 0 15.1626 0 6.35188 5.39568 0 12.977 0 16.0504 0 18.7825 1.0928 21.2412 3.21009 23.0854 4.78099 24.3831 6.69338 26.432 10.7231L25.4759 11.3378Z" transform="matrix(1 0 0 -1 330.156 1672.38)"/></g><g><path d="M20.5583 45.6926 19.9435 45.6926 0 0 40.7067 0 20.5583 45.6926M31.0081 5.19079 8.94727 5.19079C7.30808 5.19079 6.69338 5.46398 6.69338 6.21528 6.69338 6.69338 6.96657 7.71788 7.44467 8.74237L18.5092 34.2865 31.0081 5.19079Z" transform="matrix(1 0 0 -1 298.38 1744.89)"/></g><g><path d="M3.75649 32.1009C1.7075 32.1009 0 30.3934 0 28.2078 0 26.2271 1.7075 24.5196 3.68819 24.5196 5.80548 24.5196 7.58128 26.1589 7.58128 28.2078 7.58128 30.3251 5.80548 32.1009 3.75649 32.1009M3.75649 7.58128C1.7075 7.58128 0 5.87378 0 3.68819 0 1.7075 1.7075 0 3.68819 0 5.80548 0 7.58128 1.6392 7.58128 3.68819 7.58128 5.80548 5.80548 7.58128 3.75649 7.58128Z" transform="matrix(1 0 0 -1 346.19 1745.64)"/></g><g><path d="M0.478099 0 19.3288 0 19.3288 1.0245C14.0698 1.0245 12.9087 1.7758 12.8403 5.05418L12.8403 46.034 12.294 46.1707 0 39.9553 0 38.9992C2.66369 40.0237 4.30289 40.5018 4.91759 40.5018 6.35188 40.5018 6.96657 39.4773 6.96657 37.2917L6.96657 6.35188C6.82998 2.049 5.66889 1.0928 0.478099 1.0245L0.478099 0Z" transform="matrix(1 0 0 -1 366.543 1744.89)"/></g><path d="M871.132 1236.55C871.132 1308.6 812.739 1366.99 740.691 1366.99 668.632 1366.99 610.239 1308.6 610.239 1236.55 610.239 1164.49 668.632 1106.09 740.691 1106.09 812.739 1106.09 871.132 1164.49 871.132 1236.55" fill="#FFFFF0"/><path d="M871.132 1236.55C871.132 1308.6 812.739 1366.99 740.691 1366.99 668.632 1366.99 610.239 1308.6 610.239 1236.55 610.239 1164.49 668.632 1106.09 740.691 1106.09 812.739 1106.09 871.132 1164.49 871.132 1236.55" stroke="#2E3436" stroke-width="4.87848" stroke-miterlimit="10" fill="none"/><g><path d="M13.3868 16.7334 0 3.27839 3.27839 0 16.6652 13.4551 30.1202 0 33.3986 3.27839 19.9435 16.7334 33.3986 30.1202 30.1202 33.3986 16.6652 19.9435 3.27839 33.3986 0 30.1202 13.3868 16.7334Z" transform="matrix(1 0 0 -1 721.327 1217.47)"/></g><g><path d="M20.5583 45.6926 19.9435 45.6926 0 0 40.7067 0 20.5583 45.6926M31.0081 5.19079 8.94727 5.19079C7.30808 5.19079 6.69338 5.46398 6.69338 6.21528 6.69338 6.69338 6.96657 7.71788 7.44467 8.74237L18.5092 34.2865 31.0081 5.19079Z" transform="matrix(1 0 0 -1 693.537 1291.19)"/></g><g><path d="M3.75649 32.1009C1.7075 32.1009 0 30.3934 0 28.2078 0 26.2271 1.7075 24.5196 3.68819 24.5196 5.80548 24.5196 7.58128 26.1589 7.58128 28.2078 7.58128 30.3251 5.80548 32.1009 3.75649 32.1009M3.75649 7.58128C1.7075 7.58128 0 5.87378 0 3.68819 0 1.7075 1.7075 0 3.68819 0 5.80548 0 7.58128 1.6392 7.58128 3.68819 7.58128 5.80548 5.80548 7.58128 3.75649 7.58128Z" transform="matrix(1 0 0 -1 741.35 1291.94)"/></g><g><path d="M30.3934 9.35707 29.5055 9.69856C26.9785 5.73719 26.2271 5.25909 23.017 5.19079L6.69338 5.19079 18.1678 17.2115C24.2464 23.5635 26.9101 28.7542 26.9101 34.0816 26.9101 40.9116 21.3779 46.1707 14.2747 46.1707 10.5182 46.1707 6.96657 44.6681 4.43949 41.9361 2.25389 39.6139 1.2294 37.4283 0.0682998 32.579L1.50259 32.2375C4.23458 38.9309 6.62508 41.1165 11.4061 41.1165 17.2115 41.1165 21.0363 37.2234 21.0363 31.4862 21.0363 26.0905 17.8946 19.8069 12.1574 13.7282L0 0.819597 0 0 26.6369 0 30.3934 9.35707Z" transform="matrix(1 0 0 -1 756.166 1291.19)"/></g><path d="M871.132 1690.24C871.132 1762.3 812.739 1820.7 740.691 1820.7 668.632 1820.7 610.239 1762.3 610.239 1690.24 610.239 1618.2 668.632 1559.79 740.691 1559.79 812.739 1559.79 871.132 1618.2 871.132 1690.24" fill="#FFFFF0"/><path d="M871.132 1690.24C871.132 1762.3 812.739 1820.7 740.691 1820.7 668.632 1820.7 610.239 1762.3 610.239 1690.24 610.239 1618.2 668.632 1559.79 740.691 1559.79 812.739 1559.79 871.132 1618.2 871.132 1690.24" stroke="#2E3436" stroke-width="4.87848" stroke-miterlimit="10" fill="none"/><g><path d="M31.6911 4.64438C30.8032 4.57608 30.3934 4.57608 30.1202 4.57608 27.7297 4.57608 27.115 5.32739 27.115 8.46918L27.115 47.1952 26.7736 47.3317C23.5635 46.2389 21.2412 45.4877 16.7334 44.3266L16.7334 43.2337C17.2799 43.3021 17.6213 43.3021 18.236 43.3021 20.7632 43.3021 21.3779 42.6191 21.3779 39.8188L21.3779 29.1641C18.7825 31.3496 16.9383 32.1009 14.2064 32.1009 6.35188 32.1009 0 24.3831 0 14.6845 0 5.94208 5.05418 0 12.6354 0 16.4603 0 19.0556 1.366 21.3779 4.57608L21.3779 0.2049 21.651 0 31.6911 3.55159 31.6911 4.64438M21.3779 7.64958C21.3779 7.17148 20.8997 6.35188 20.2167 5.60058 19.0556 4.23458 17.2799 3.55159 15.2992 3.55159 9.56197 3.55159 5.87378 9.01557 5.87378 17.4848 5.87378 25.1343 9.22048 30.1885 14.4112 30.1885 18.0995 30.1885 21.3779 26.9785 21.3779 23.3586L21.3779 7.64958Z" transform="matrix(1 0 0 -1 725.456 1672.38)"/></g><g><path d="M20.5583 45.6926 19.9435 45.6926 0 0 40.7067 0 20.5583 45.6926M31.0081 5.19079 8.94727 5.19079C7.30808 5.19079 6.69338 5.46398 6.69338 6.21528 6.69338 6.69338 6.96657 7.71788 7.44467 8.74237L18.5092 34.2865 31.0081 5.19079Z" transform="matrix(1 0 0 -1 693.537 1744.89)"/></g><g><path d="M3.75649 32.1009C1.7075 32.1009 0 30.3934 0 28.2078 0 26.2271 1.7075 24.5196 3.68819 24.5196 5.80548 24.5196 7.58128 26.1589 7.58128 28.2078 7.58128 30.3251 5.80548 32.1009 3.75649 32.1009M3.75649 7.58128C1.7075 7.58128 0 5.87378 0 3.68819 0 1.7075 1.7075 0 3.68819 0 5.80548 0 7.58128 1.6392 7.58128 3.68819 7.58128 5.80548 5.80548 7.58128 3.75649 7.58128Z" transform="matrix(1 0 0 -1 741.35 1745.64)"/></g><g><path d="M0.478099 0 19.3288 0 19.3288 1.0245C14.0698 1.0245 12.9087 1.7758 12.8403 5.05418L12.8403 46.034 12.294 46.1707 0 39.9553 0 38.9992C2.66369 40.0237 4.30289 40.5018 4.91759 40.5018 6.35188 40.5018 6.96657 39.4773 6.96657 37.2917L6.96657 6.35188C6.82998 2.049 5.66889 1.0928 0.478099 1.0245L0.478099 0Z" transform="matrix(1 0 0 -1 761.707 1744.89)"/></g><path d="M1266.31 1690.24C1266.31 1762.3 1207.88 1820.7 1135.85 1820.7 1063.79 1820.7 1005.38 1762.3 1005.38 1690.24 1005.38 1618.2 1063.79 1559.79 1135.85 1559.79 1207.88 1559.79 1266.31 1618.2 1266.31 1690.24" fill="#FFFFF0"/><path d="M1266.31 1690.24C1266.31 1762.3 1207.88 1820.7 1135.85 1820.7 1063.79 1820.7 1005.38 1762.3 1005.38 1690.24 1005.38 1618.2 1063.79 1559.79 1135.85 1559.79 1207.88 1559.79 1266.31 1618.2 1266.31 1690.24" stroke="#2E3436" stroke-width="4.87848" stroke-miterlimit="10" fill="none"/><g><path d="M26.1589 11.8842C22.8805 6.69338 19.9435 4.71268 15.5724 4.71268 11.6793 4.71268 8.74237 6.69338 6.76168 10.5865 5.53228 13.1819 5.05418 15.3675 4.91759 19.602L25.9539 19.602C25.4075 24.0415 24.7245 26.0222 23.017 28.2078 20.9681 30.6667 17.8262 32.1009 14.2747 32.1009 10.8597 32.1009 7.64958 30.8716 5.05418 28.5493 1.84409 25.749 0 20.8997 0 15.2992 0 5.87378 4.91759 0 12.7721 0 19.2606 0 24.3831 4.02969 27.2516 11.4061L26.1589 11.8842M5.05418 21.7877C5.80548 27.115 8.12768 29.6421 12.294 29.6421 16.4603 29.6421 18.0995 27.7297 18.9874 21.7877L5.05418 21.7877Z" transform="matrix(1 0 0 -1 1120.47 1672.38)"/></g><g><path d="M20.5583 45.6926 19.9435 45.6926 0 0 40.7067 0 20.5583 45.6926M31.0081 5.19079 8.94727 5.19079C7.30808 5.19079 6.69338 5.46398 6.69338 6.21528 6.69338 6.69338 6.96657 7.71788 7.44467 8.74237L18.5092 34.2865 31.0081 5.19079Z" transform="matrix(1 0 0 -1 1088.7 1744.89)"/></g><g><path d="M3.75649 32.1009C1.7075 32.1009 0 30.3934 0 28.2078 0 26.2271 1.7075 24.5196 3.68819 24.5196 5.80548 24.5196 7.58128 26.1589 7.58128 28.2078 7.58128 30.3251 5.80548 32.1009 3.75649 32.1009M3.75649 7.58128C1.7075 7.58128 0 5.87378 0 3.68819 0 1.7075 1.7075 0 3.68819 0 5.80548 0 7.58128 1.6392 7.58128 3.68819 7.58128 5.80548 5.80548 7.58128 3.75649 7.58128Z" transform="matrix(1 0 0 -1 1136.51 1745.64)"/></g><g><path d="M0.478099 0 19.3288 0 19.3288 1.0245C14.0698 1.0245 12.9087 1.7758 12.8403 5.05418L12.8403 46.034 12.294 46.1707 0 39.9553 0 38.9992C2.66369 40.0237 4.30289 40.5018 4.91759 40.5018 6.35188 40.5018 6.96657 39.4773 6.96657 37.2917L6.96657 6.35188C6.82998 2.049 5.66889 1.0928 0.478099 1.0245L0.478099 0Z" transform="matrix(1 0 0 -1 1156.87 1744.89)"/></g><path d="M1266.31 787.737C1266.31 859.786 1207.88 918.185 1135.85 918.185 1063.79 918.185 1005.38 859.786 1005.38 787.737 1005.38 715.683 1063.79 657.285 1135.85 657.285 1207.88 657.285 1266.31 715.683 1266.31 787.737" fill="#FFFFF0"/><path d="M1266.31 787.737C1266.31 859.786 1207.88 918.185 1135.85 918.185 1063.79 918.185 1005.38 859.786 1005.38 787.737 1005.38 715.683 1063.79 657.285 1135.85 657.285 1207.88 657.285 1266.31 715.683 1266.31 787.737" stroke="#2E3436" stroke-width="4.87848" stroke-miterlimit="10" fill="none"/><g><path d="M13.3868 16.7334 0 3.27839 3.27839 0 16.6652 13.4551 30.1202 0 33.3986 3.27839 19.9435 16.7334 33.3986 30.1202 30.1202 33.3986 16.6652 19.9435 3.27839 33.3986 0 30.1202 13.3868 16.7334Z" transform="matrix(1 0 0 -1 1116.49 768.654)"/></g><g><path d="M20.5583 45.6926 19.9435 45.6926 0 0 40.7067 0 20.5583 45.6926M31.0081 5.19079 8.94727 5.19079C7.30808 5.19079 6.69338 5.46398 6.69338 6.21528 6.69338 6.69338 6.96657 7.71788 7.44467 8.74237L18.5092 34.2865 31.0081 5.19079Z" transform="matrix(1 0 0 -1 1088.7 842.362)"/></g><g><path d="M3.75649 32.1009C1.7075 32.1009 0 30.3934 0 28.2078 0 26.2271 1.7075 24.5196 3.68819 24.5196 5.80548 24.5196 7.58128 26.1589 7.58128 28.2078 7.58128 30.3251 5.80548 32.1009 3.75649 32.1009M3.75649 7.58128C1.7075 7.58128 0 5.87378 0 3.68819 0 1.7075 1.7075 0 3.68819 0 5.80548 0 7.58128 1.6392 7.58128 3.68819 7.58128 5.80548 5.80548 7.58128 3.75649 7.58128Z" transform="matrix(1 0 0 -1 1136.51 843.113)"/></g><g><path d="M30.3934 9.35707 29.5055 9.69856C26.9785 5.73719 26.2271 5.25909 23.017 5.19079L6.69338 5.19079 18.1678 17.2115C24.2464 23.5635 26.9101 28.7542 26.9101 34.0816 26.9101 40.9116 21.3779 46.1707 14.2747 46.1707 10.5182 46.1707 6.96657 44.6681 4.43949 41.9361 2.25389 39.6139 1.2294 37.4283 0.0682998 32.579L1.50259 32.2375C4.23458 38.9309 6.62508 41.1165 11.4061 41.1165 17.2115 41.1165 21.0363 37.2234 21.0363 31.4862 21.0363 26.0905 17.8946 19.8069 12.1574 13.7282L0 0.819597 0 0 26.6369 0 30.3934 9.35707Z" transform="matrix(1 0 0 -1 1151.33 842.362)"/></g><path d="M1266.31 1236.55C1266.31 1308.6 1207.88 1366.99 1135.85 1366.99 1063.79 1366.99 1005.38 1308.6 1005.38 1236.55 1005.38 1164.49 1063.79 1106.09 1135.85 1106.09 1207.88 1106.09 1266.31 1164.49 1266.31 1236.55" fill="#FFFFF0"/><path d="M1266.31 1236.55C1266.31 1308.6 1207.88 1366.99 1135.85 1366.99 1063.79 1366.99 1005.38 1308.6 1005.38 1236.55 1005.38 1164.49 1063.79 1106.09 1135.85 1106.09 1207.88 1106.09 1266.31 1164.49 1266.31 1236.55" stroke="#2E3436" stroke-width="4.87848" stroke-miterlimit="10" fill="none"/><g><path d="M19.7386 30.7349 11.3378 30.7349 11.3378 38.6576C11.3378 42.6874 12.6354 44.7363 15.2308 44.7363 16.7334 44.7363 17.6213 44.0533 18.8507 42.0727 19.9435 40.2969 20.7632 39.6139 21.9242 39.6139 23.5635 39.6139 24.7928 40.8432 24.7928 42.4142 24.7928 44.873 21.7877 46.6487 17.6897 46.6487 13.3868 46.6487 9.83517 44.8047 8.05938 41.7312 6.28358 38.6576 5.73719 36.1989 5.66889 30.7349L0.0682998 30.7349 0.0682998 28.5493 5.66889 28.5493 5.66889 7.10318C5.53228 1.98069 4.84929 1.2294 0 1.0245L0 0 17.758 0 17.758 1.0245C12.1574 1.2294 11.4061 1.98069 11.4061 7.10318L11.4061 28.5493 19.7386 28.5493 19.7386 30.7349Z" transform="matrix(1 0 0 -1 1125.02 1218.02)"/></g><g><path d="M20.5583 45.6926 19.9435 45.6926 0 0 40.7067 0 20.5583 45.6926M31.0081 5.19079 8.94727 5.19079C7.30808 5.19079 6.69338 5.46398 6.69338 6.21528 6.69338 6.69338 6.96657 7.71788 7.44467 8.74237L18.5092 34.2865 31.0081 5.19079Z" transform="matrix(1 0 0 -1 1088.7 1291.19)"/></g><g><path d="M3.75649 32.1009C1.7075 32.1009 0 30.3934 0 28.2078 0 26.2271 1.7075 24.5196 3.68819 24.5196 5.80548 24.5196 7.58128 26.1589 7.58128 28.2078 7.58128 30.3251 5.80548 32.1009 3.75649 32.1009M3.75649 7.58128C1.7075 7.58128 0 5.87378 0 3.68819 0 1.7075 1.7075 0 3.68819 0 5.80548 0 7.58128 1.6392 7.58128 3.68819 7.58128 5.80548 5.80548 7.58128 3.75649 7.58128Z" transform="matrix(1 0 0 -1 1136.51 1291.94)"/></g><g><path d="M0.478099 0 19.3288 0 19.3288 1.0245C14.0698 1.0245 12.9087 1.7758 12.8403 5.05418L12.8403 46.034 12.294 46.1707 0 39.9553 0 38.9992C2.66369 40.0237 4.30289 40.5018 4.91759 40.5018 6.35188 40.5018 6.96657 39.4773 6.96657 37.2917L6.96657 6.35188C6.82998 2.049 5.66889 1.0928 0.478099 1.0245L0.478099 0Z" transform="matrix(1 0 0 -1 1156.87 1291.19)"/></g><path d="M1661.46 1236.55C1661.46 1308.6 1603.04 1366.99 1530.99 1366.99 1458.96 1366.99 1400.54 1308.6 1400.54 1236.55 1400.54 1164.49 1458.96 1106.09 1530.99 1106.09 1603.04 1106.09 1661.46 1164.49 1661.46 1236.55" fill="#FFFFF0"/><path d="M1661.46 1236.55C1661.46 1308.6 1603.04 1366.99 1530.99 1366.99 1458.96 1366.99 1400.54 1308.6 1400.54 1236.55 1400.54 1164.49 1458.96 1106.09 1530.99 1106.09 1603.04 1106.09 1661.46 1164.49 1661.46 1236.55" stroke="#2E3436" stroke-width="4.87848" stroke-miterlimit="10" fill="none"/><g><path d="M30.1885 41.3897 30.1885 44.0533 24.9294 44.0533C23.4951 44.0533 22.5389 44.2582 21.173 44.7363L19.6704 45.2828C17.8946 45.9658 15.9822 46.3073 14.2064 46.3073 7.85447 46.3073 2.80029 41.4579 2.80029 35.1744 2.80029 30.8716 4.57608 28.2762 9.15217 26.0222L7.37637 24.3831C5.94208 23.017 5.12248 22.2658 4.91759 21.9926 3.48329 20.49 3.07349 19.7386 3.07349 18.5776 3.07349 17.075 3.82478 16.3236 6.69338 14.9577 1.7758 11.4061 0 9.15217 0 6.62508 0 3.00519 5.25909 0 11.8159 0 16.9383 0 22.2658 1.7758 25.8173 4.64438 28.4127 6.76168 29.5739 8.94727 29.5739 11.5427 29.5739 15.7773 26.3638 18.5776 21.3095 18.8507L12.4989 19.2606C8.81068 19.3972 7.17148 20.0118 7.17148 21.1046 7.17148 22.4707 9.42537 24.8612 11.2695 25.4075 13.7282 25.2026 15.0259 25.0661 15.1626 25.0661 17.6897 25.0661 20.4216 26.0905 22.5389 27.9346 24.7928 29.847 25.8173 32.2375 25.8173 35.6524 25.8173 37.6332 25.4759 39.2041 24.5196 41.3897L30.1885 41.3897M8.12767 14.7527C10.4499 14.2747 15.7773 13.8649 19.2606 13.8649 25.4075 13.8649 27.6615 12.977 27.6615 10.5182 27.6615 6.55678 22.4707 3.89309 14.7527 3.89309 8.67407 3.89309 4.78099 5.87378 4.78099 8.87898 4.78099 10.4499 5.39568 11.4744 8.12767 14.7527M8.46918 37.9747C8.46918 42.0044 10.3816 44.3949 13.5233 44.3949 15.6406 44.3949 17.4164 43.2337 18.5092 41.1848 19.8069 38.7943 20.5583 35.7208 20.5583 32.9888 20.5583 29.1641 18.6458 26.7736 15.5041 26.7736 11.2695 26.7736 8.46918 31.213 8.46918 37.7698L8.46918 37.9747Z" transform="matrix(1 0 0 -1 1515.84 1232.9)"/></g><g><path d="M20.5583 45.6926 19.9435 45.6926 0 0 40.7067 0 20.5583 45.6926M31.0081 5.19079 8.94727 5.19079C7.30808 5.19079 6.69338 5.46398 6.69338 6.21528 6.69338 6.69338 6.96657 7.71788 7.44467 8.74237L18.5092 34.2865 31.0081 5.19079Z" transform="matrix(1 0 0 -1 1483.86 1291.19)"/></g><g><path d="M3.75649 32.1009C1.7075 32.1009 0 30.3934 0 28.2078 0 26.2271 1.7075 24.5196 3.68819 24.5196 5.80548 24.5196 7.58128 26.1589 7.58128 28.2078 7.58128 30.3251 5.80548 32.1009 3.75649 32.1009M3.75649 7.58128C1.7075 7.58128 0 5.87378 0 3.68819 0 1.7075 1.7075 0 3.68819 0 5.80548 0 7.58128 1.6392 7.58128 3.68819 7.58128 5.80548 5.80548 7.58128 3.75649 7.58128Z" transform="matrix(1 0 0 -1 1531.67 1291.94)"/></g><g><path d="M0.478099 0 19.3288 0 19.3288 1.0245C14.0698 1.0245 12.9087 1.7758 12.8403 5.05418L12.8403 46.034 12.294 46.1707 0 39.9553 0 38.9992C2.66369 40.0237 4.30289 40.5018 4.91759 40.5018 6.35188 40.5018 6.96657 39.4773 6.96657 37.2917L6.96657 6.35188C6.82998 2.049 5.66889 1.0928 0.478099 1.0245L0.478099 0Z" transform="matrix(1 0 0 -1 1552.03 1291.19)"/></g><path d="M371.245 1046.55C305.065 1024.5 236.466 1025.71 150.038 1099.09 63.609 1172.47-51.8292 1324.95-147.324 1486.81-242.817 1648.65-402.68 1928.26-422.926 2070.19-443.174 2212.11-392.405 2303.29-268.806 2338.32-145.208 2373.35 224.377 2341.95 318.663 2280.35 412.949 2218.75 270.009 2044.52 296.905 1968.73 323.8 1892.93 436.822 1909.54 480.038 1825.6 523.255 1741.66 545.013 1564.11 556.191 1465.06 567.37 1366.01 577.65 1302.01 547.12 1231.35 516.601 1160.69 437.426 1068.59 371.245 1046.55Z" stroke="#4472C4" stroke-width="16.4561" stroke-miterlimit="8" stroke-dasharray="65.8245 49.3683" fill="none" fill-rule="evenodd"/><path d="M1112.49 604.478C1176.76 602.968 1274.23 620.181 1340.62 680.577 1407 740.973 1443.82 881.998 1510.81 966.854 1577.8 1051.71 1723.85 1114.52 1742.56 1189.71 1761.27 1264.91 1704.84 1379.36 1623.06 1418.01 1541.28 1456.66 1359.93 1434.61 1251.9 1421.63 1143.87 1408.64 1023.77 1406.24 974.883 1340.1 926.005 1273.97 961.909 1133.25 958.594 1024.84 955.267 916.423 927.812 759.997 954.968 689.636 982.124 619.274 1048.21 605.987 1112.49 604.478Z" stroke="#FF0000" stroke-width="16.4561" stroke-miterlimit="8" stroke-dasharray="131.649 49.3683 16.4561 49.3683 16.4561 49.3683" fill="none" fill-rule="evenodd"/></g></g></g></g><path d="M1879.5 1049.75 2386 1049.75 2386 931.5 2622.5 1168 2386 1404.5 2386 1286.25 1879.5 1286.25Z" stroke="#042433" stroke-width="6.875" stroke-miterlimit="8" fill="#156082" fill-rule="evenodd"/></g></svg>