<svg width="4595" height="2591" xmlns="http://www.w3.org/2000/svg" xmlns:xlink="http://www.w3.org/1999/xlink" xml:space="preserve" overflow="hidden"><g transform="translate(77 0)"><path d="M1124 1457C1124 1104.64 1409.64 819 1762 819 2114.36 819 2400 1104.64 2400 1457 2400 1809.36 2114.36 2095 1762 2095 1409.64 2095 1124 1809.36 1124 1457Z" fill="#1201ED" fill-rule="evenodd" fill-opacity="0.74902"/><path d="M1584 659C1584 306.642 1869.64 21 2222 21 2574.36 21 2860 306.642 2860 659 2860 1011.36 2574.36 1297 2222 1297 1869.64 1297 1584 1011.36 1584 659Z" fill="#309913" fill-rule="evenodd" fill-opacity="0.74902"/><path d="M2044 1457C2044 1104.64 2329.64 819 2682 819 3034.36 819 3320 1104.64 3320 1457 3320 1809.36 3034.36 2095 2682 2095 2329.64 2095 2044 1809.36 2044 1457Z" fill="#FB6C1D" fill-rule="evenodd" fill-opacity="0.74902"/><text fill="#FFFFFF" font-family="Rockwell Extra Bold,Rockwell Extra Bold_MSFontService,sans-serif" font-weight="800" font-size="83" transform="matrix(1 0 0 1 1493.87 1483)">Physics</text><text fill="#FFFFFF" font-family="Calibri,Calibri_MSFontService,sans-serif" font-weight="400" font-size="83" transform="matrix(1 0 0 1 1347.87 1579)">The universe can be </text><text fill="#FFFFFF" font-family="Calibri,Calibri_MSFontService,sans-serif" font-weight="400" font-size="83" transform="matrix(1 0 0 1 1344.63 1678)">understood through </text><text fill="#FFFFFF" font-family="Calibri,Calibri_MSFontService,sans-serif" font-weight="400" font-size="83" transform="matrix(1 0 0 1 1370.46 1777)">simple rules which </text><text fill="#FFFFFF" font-family="Calibri,Calibri_MSFontService,sans-serif" font-weight="400" font-size="83" transform="matrix(1 0 0 1 1392.71 1876)">produce complex </text><text fill="#FFFFFF" font-family="Calibri,Calibri_MSFontService,sans-serif" font-weight="400" font-size="83" transform="matrix(1 0 0 1 1534.43 1975)">behavior</text><g><g><g><path d="M1854.5 1260.08C1846.46 1249.98 1832.18 1247.4 1821.11 1254.05L1795.68 1222.15 1795.68 1178.19C1795.66 1168.7 1787.98 1161.01 1778.49 1161L1579.11 1161C1569.62 1161.01 1561.94 1168.7 1561.93 1178.19L1561.93 1360.37 1544.74 1360.37 1544.74 1384.44 1812.86 1384.44 1812.86 1360.37 1795.68 1360.37 1795.68 1233.17 1815.74 1258.34C1805.89 1268.62 1806.25 1284.94 1816.53 1294.79 1826.81 1304.64 1843.13 1304.29 1852.98 1294.01 1861.92 1284.68 1862.57 1270.18 1854.5 1260.08ZM1788.79 1178.19 1788.79 1213.52 1752.39 1167.87 1778.48 1167.87C1784.18 1167.87 1788.79 1172.49 1788.79 1178.19ZM1711.45 1284.75C1721.89 1284.75 1730.36 1293.21 1730.36 1303.66 1730.36 1314.1 1721.89 1322.56 1711.45 1322.56 1701.01 1322.56 1692.54 1314.1 1692.54 1303.66 1692.55 1293.22 1701.01 1284.76 1711.45 1284.75ZM1659.89 1284.75C1670.33 1284.75 1678.79 1293.21 1678.79 1303.66 1678.79 1314.1 1670.33 1322.56 1659.89 1322.56 1649.45 1322.56 1640.98 1314.1 1640.98 1303.66 1640.99 1293.22 1649.45 1284.76 1659.89 1284.75ZM1608.32 1284.75C1618.77 1284.75 1627.23 1293.21 1627.23 1303.66 1627.23 1314.1 1618.77 1322.56 1608.32 1322.56 1597.88 1322.56 1589.42 1314.1 1589.42 1303.66 1589.43 1293.22 1597.89 1284.76 1608.32 1284.75ZM1805.98 1377.56 1551.61 1377.56 1551.61 1367.25 1805.98 1367.25ZM1788.79 1360.37 1568.79 1360.37 1568.79 1178.19C1568.79 1172.49 1573.41 1167.87 1579.11 1167.87L1604.89 1167.87 1604.89 1278.13C1590.78 1280.03 1580.88 1293.01 1582.77 1307.12 1584.67 1321.23 1597.65 1331.13 1611.76 1329.23 1625.87 1327.34 1635.77 1314.36 1633.88 1300.25 1632.33 1288.74 1623.27 1279.68 1611.76 1278.13L1611.76 1167.87 1656.45 1167.87 1656.45 1278.13C1642.34 1280.03 1632.44 1293.01 1634.34 1307.12 1636.23 1321.23 1649.21 1331.13 1663.32 1329.23 1677.44 1327.34 1687.34 1314.36 1685.44 1300.25 1683.89 1288.74 1674.84 1279.68 1663.32 1278.13L1663.32 1167.87 1708.01 1167.87 1708.01 1278.13C1693.9 1280.03 1684 1293.01 1685.9 1307.12 1687.8 1321.23 1700.78 1331.13 1714.89 1329.23 1729 1327.34 1738.9 1314.36 1737 1300.25 1735.45 1288.74 1726.4 1279.68 1714.89 1278.13L1714.89 1167.87 1743.59 1167.87 1788.79 1224.55ZM1853.13 1278.27C1851.96 1288.65 1842.6 1296.11 1832.22 1294.94 1821.85 1293.77 1814.38 1284.41 1815.55 1274.04 1816.63 1264.49 1824.69 1257.27 1834.3 1257.25 1835.02 1257.25 1835.74 1257.29 1836.46 1257.37 1846.83 1258.54 1854.3 1267.9 1853.13 1278.28 1853.13 1278.28 1853.13 1278.28 1853.13 1278.28Z" fill="#FFFFFF"/></g></g></g><text fill="#FFFFFF" font-family="Rockwell Extra Bold,Rockwell Extra Bold_MSFontService,sans-serif" font-weight="800" font-size="83" transform="matrix(1 0 0 1 2481.02 1472)">Mathematics</text><text fill="#FFFFFF" font-family="Calibri,Calibri_MSFontService,sans-serif" font-weight="400" font-size="83" transform="matrix(1 0 0 1 2418.29 1568)">The underpinning of all </text><text fill="#FFFFFF" font-family="Calibri,Calibri_MSFontService,sans-serif" font-weight="400" font-size="83" transform="matrix(1 0 0 1 2435.87 1667)">cryptographic systems </text><text fill="#FFFFFF" font-family="Calibri,Calibri_MSFontService,sans-serif" font-weight="400" font-size="83" transform="matrix(1 0 0 1 2440.73 1766)">and simulation design</text><g><g><g><path d="M2666.48 1157.69 2666.48 1391.44 2907.1 1391.44 2907.1 1157.69ZM2900.23 1271.13 2790.23 1271.13 2790.23 1164.56 2900.23 1164.56ZM2783.35 1164.56 2783.35 1271.13 2673.35 1271.13 2673.35 1164.56ZM2673.35 1278 2783.35 1278 2783.35 1384.56 2673.35 1384.56ZM2790.23 1384.56 2790.23 1278 2900.23 1278 2900.23 1384.56Z" fill="#FFFFFF"/><path d="M2724.92 1247.06 2731.79 1247.06 2731.79 1219.56 2759.29 1219.56 2759.29 1212.69 2731.79 1212.69 2731.79 1185.19 2724.92 1185.19 2724.92 1212.69 2697.42 1212.69 2697.42 1219.56 2724.92 1219.56 2724.92 1247.06Z" fill="#FFFFFF"/><path d="M2814.29 1212.69 2876.17 1212.69 2876.17 1219.56 2814.29 1219.56Z" fill="#FFFFFF"/><path d="M2754.85 1307.93 2749.99 1303.07 2728.35 1324.7 2706.72 1303.07 2701.86 1307.93 2723.49 1329.56 2701.86 1351.19 2706.72 1356.06 2728.35 1334.42 2749.99 1356.06 2754.85 1351.19 2733.22 1329.56 2754.85 1307.93Z" fill="#FFFFFF"/><path d="M2814.29 1329.56 2876.17 1329.56 2876.17 1336.44 2814.29 1336.44Z" fill="#FFFFFF"/><path d="M2852.1 1312.38C2852.1 1316.17 2849.03 1319.25 2845.23 1319.25 2841.43 1319.25 2838.35 1316.17 2838.35 1312.38 2838.35 1308.58 2841.43 1305.5 2845.23 1305.5 2849.03 1305.5 2852.1 1308.58 2852.1 1312.38Z" fill="#FFFFFF"/><path d="M2852.1 1353.63C2852.1 1357.42 2849.03 1360.5 2845.23 1360.5 2841.43 1360.5 2838.35 1357.42 2838.35 1353.63 2838.35 1349.83 2841.43 1346.75 2845.23 1346.75 2849.03 1346.75 2852.1 1349.83 2852.1 1353.63Z" fill="#FFFFFF"/></g></g></g><text fill="#FFFFFF" font-family="Rockwell Extra Bold,Rockwell Extra Bold_MSFontService,sans-serif" font-weight="800" font-size="83" transform="matrix(1 0 0 1 1911.65 450)">Engineering</text><text fill="#FFFFFF" font-family="Calibri,Calibri_MSFontService,sans-serif" font-weight="400" font-size="83" transform="matrix(1 0 0 1 1801.36 546)">Through human curiosity </text><text fill="#FFFFFF" font-family="Calibri,Calibri_MSFontService,sans-serif" font-weight="400" font-size="83" transform="matrix(1 0 0 1 1857.39 645)">and ingenuity, we can </text><text fill="#FFFFFF" font-family="Calibri,Calibri_MSFontService,sans-serif" font-weight="400" font-size="83" transform="matrix(1 0 0 1 1831.54 744)">build a better world for </text><text fill="#FFFFFF" font-family="Calibri,Calibri_MSFontService,sans-serif" font-weight="400" font-size="83" transform="matrix(1 0 0 1 2182.53 843)">all</text><g><g><g><path d="M2294.75 351.547C2300.57 354.893 2306.74 357.583 2313.15 359.569L2323.53 380.331 2347.13 380.331 2357.51 359.569C2363.93 357.833 2370.12 355.297 2375.91 352.019L2398.09 359.569 2415.08 342.581 2407.53 320.403C2410.82 314.612 2413.38 308.429 2415.13 302L2435.89 291.619 2435.89 268.025 2415.13 257.644C2413.39 251.217 2410.86 245.034 2407.58 239.241L2415.13 217.063 2398.14 200.075 2375.96 207.625C2370.17 204.347 2363.99 201.811 2357.56 200.075L2347.18 179.313 2323.58 179.313 2313.2 200.075C2306.78 201.811 2300.59 204.348 2294.8 207.625L2272.62 200.075 2256.11 216.591 2263.66 238.769C2260.38 244.562 2257.84 250.745 2256.11 257.172L2235.34 267.553 2235.34 291.147 2256.11 301.528C2257.84 307.955 2260.38 314.138 2263.66 319.931L2256.11 342.109 2272.62 359.097ZM2291.71 342.61 2275.17 348.244 2266.84 339.679 2272.53 322.975 2273.92 318.898 2271.75 315.175C2268.86 310.065 2266.63 304.609 2265.12 298.938L2263.98 294.945 2260.26 293.086 2244.69 285.315 2244.69 273.4 2260.26 265.628 2263.98 263.769 2265.12 259.777C2266.63 254.104 2268.86 248.647 2271.75 243.535L2273.92 239.816 2272.53 235.739 2266.87 219.12 2275.08 210.909 2291.7 216.572 2295.78 217.959 2299.5 215.788C2304.61 212.907 2310.07 210.687 2315.75 209.182L2319.74 208.04 2321.59 204.331 2329.37 188.75 2341.31 188.75 2349.07 204.322 2350.92 208.031 2354.92 209.173C2360.59 210.679 2366.05 212.898 2371.16 215.779L2374.88 217.95 2378.95 216.562 2395.58 210.9 2404.27 219.582 2398.6 236.202 2397.19 240.279 2399.36 243.997C2402.24 249.11 2404.46 254.568 2405.97 260.239L2407.18 264.25 2410.89 266.109 2426.46 273.881 2426.46 285.81 2410.89 293.582 2407.18 295.441 2406.04 299.428C2404.53 305.1 2402.31 310.557 2399.43 315.67L2397.25 319.393 2398.67 323.47 2404.33 340.085 2395.65 348.768 2379.02 343.105 2374.95 341.718 2371.22 343.888C2366.11 346.775 2360.65 349.003 2354.98 350.518L2350.99 351.655 2349.13 355.369 2341.36 370.941 2329.42 370.941 2321.65 355.369 2319.84 351.759 2315.98 350.57C2310.24 348.796 2304.73 346.395 2299.52 343.412L2295.8 341.241Z" fill="#FFFFFF"/><path d="M2175.8 72.6688 2152.21 72.6688 2141.83 93.4313C2135.4 95.1668 2129.22 97.7031 2123.42 100.981L2101.25 93.9031 2084.73 110.419 2091.81 132.597C2088.53 138.39 2085.99 144.573 2084.26 151L2063.5 161.381 2063.5 184.975 2084.26 195.356C2085.99 201.783 2088.53 207.966 2091.81 213.759L2084.26 235.938 2101.25 252.453 2122.95 245.375C2128.75 248.653 2134.93 251.189 2141.36 252.925L2151.74 273.688 2175.33 273.688 2185.71 252.925C2192.14 251.189 2198.32 248.653 2204.11 245.375L2226.29 252.925 2243.28 235.938 2235.73 213.759C2238.93 207.927 2241.46 201.754 2243.28 195.356L2264.04 184.975 2264.04 161.381 2243.28 151C2241.55 144.573 2239.01 138.39 2235.73 132.597L2243.28 110.419 2226.77 93.9031 2204.59 100.981C2198.75 97.7843 2192.58 95.2518 2186.18 93.4313ZM2179.58 101.264 2183.44 102.454C2189.14 104.077 2194.65 106.318 2199.86 109.135L2203.49 111.249 2207.49 109.97 2224.2 104.643 2232.5 112.939 2226.84 129.558 2225.44 133.635 2227.61 137.353C2230.5 142.464 2232.73 147.922 2234.24 153.595L2235.34 157.606 2239.06 159.465 2254.63 167.237 2254.63 179.166 2239.06 186.938 2235.44 188.745 2234.26 192.605C2232.63 198.305 2230.39 203.811 2227.57 209.026L2225.4 212.75 2226.79 216.827 2232.46 233.441 2223.77 242.124 2207.14 236.461 2203.07 235.074 2199.35 237.245C2194.24 240.132 2188.78 242.36 2183.1 243.874L2179.11 245.012 2177.26 248.725 2169.5 264.25 2157.56 264.25 2149.79 248.678 2147.93 244.964 2143.94 243.827C2138.27 242.313 2132.81 240.085 2127.69 237.197L2124.04 235.065 2120.01 236.376 2103.72 241.69 2095.09 233.342 2100.72 216.827 2102.11 212.75 2099.94 209.026C2097.05 203.912 2094.82 198.449 2093.31 192.77L2092.17 188.778 2088.45 186.924 2072.88 179.152 2072.88 167.223 2088.45 159.451 2092.17 157.592 2093.31 153.6C2094.82 147.927 2097.05 142.469 2099.94 137.358L2102.05 133.734 2100.78 129.733 2095.45 113.033 2103.83 104.648 2120.54 109.975 2124.54 111.254 2128.17 109.14C2133.28 106.251 2138.74 104.023 2144.41 102.51L2148.4 101.368 2150.26 97.6593 2158.04 82.0874 2169.97 82.0874 2177.75 97.6593Z" fill="#FFFFFF"/><path d="M2370.74 279.822C2370.74 260.276 2354.9 244.431 2335.35 244.431 2315.81 244.431 2299.96 260.276 2299.96 279.822 2299.96 299.367 2315.81 315.213 2335.35 315.213 2354.84 315.066 2370.6 299.307 2370.74 279.822ZM2309.4 279.822C2309.42 265.497 2321.03 253.89 2335.35 253.869 2349.61 254.059 2361.12 265.568 2361.31 279.822 2361.29 294.147 2349.68 305.754 2335.35 305.775 2321.09 305.597 2309.57 294.084 2309.38 279.822Z" fill="#FFFFFF"/><path d="M2128.13 173.178C2128.13 192.724 2143.97 208.569 2163.52 208.569 2183.07 208.569 2198.91 192.724 2198.91 173.178 2198.91 153.633 2183.07 137.788 2163.52 137.788 2144 137.764 2128.15 153.571 2128.13 173.093 2128.13 173.122 2128.13 173.15 2128.13 173.178ZM2189.5 173.178C2189.5 187.512 2177.88 199.131 2163.54 199.131 2149.21 199.131 2137.59 187.512 2137.59 173.178 2137.59 158.844 2149.21 147.225 2163.54 147.225 2177.87 147.246 2189.48 158.853 2189.5 173.178Z" fill="#FFFFFF"/></g></g></g><path d="M1969 1208.5C1969 1071.26 2080.26 960 2217.5 960 2354.74 960 2466 1071.26 2466 1208.5 2466 1345.74 2354.74 1457 2217.5 1457 2080.26 1457 1969 1345.74 1969 1208.5Z" fill="#FFFFFF" fill-rule="evenodd"/><text font-family="Rockwell Extra Bold,Rockwell Extra Bold_MSFontService,sans-serif" font-weight="800" font-size="73" transform="matrix(1 0 0 1 2002.21 1296)">Encrypted</text><text font-family="Rockwell Extra Bold,Rockwell Extra Bold_MSFontService,sans-serif" font-weight="800" font-size="73" transform="matrix(1 0 0 1 2076.78 1384)">Robots</text><g><g><g><path d="M2284.58 1180 2186.95 1180C2174.7 1180 2164.76 1189.93 2164.76 1202.19 2164.76 1214.44 2174.7 1224.37 2186.95 1224.37L2284.58 1224.37C2296.83 1224.37 2306.76 1214.44 2306.76 1202.19 2306.76 1189.93 2296.83 1180 2284.58 1180ZM2192.87 1211.06C2187.97 1211.06 2183.99 1207.09 2183.99 1202.19 2183.99 1197.29 2187.97 1193.31 2192.87 1193.31 2197.77 1193.31 2201.74 1197.29 2201.74 1202.19 2201.74 1207.09 2197.77 1211.06 2192.87 1211.06ZM2235.76 1211.06C2230.86 1211.06 2226.89 1207.09 2226.89 1202.19 2226.89 1197.29 2230.86 1193.31 2235.76 1193.31 2240.67 1193.31 2244.64 1197.29 2244.64 1202.19 2244.64 1207.09 2240.67 1211.06 2235.76 1211.06ZM2278.66 1211.06C2273.76 1211.06 2269.78 1207.09 2269.78 1202.19 2269.78 1197.29 2273.76 1193.31 2278.66 1193.31 2283.56 1193.31 2287.53 1197.29 2287.53 1202.19 2287.53 1207.09 2283.56 1211.06 2278.66 1211.06Z"/><path d="M2256.21 1049.83C2256.21 1052.28 2254.22 1054.27 2251.77 1054.27 2249.32 1054.27 2247.33 1052.28 2247.33 1049.83 2247.33 1047.38 2249.32 1045.4 2251.77 1045.4 2254.22 1045.4 2256.21 1047.38 2256.21 1049.83Z"/><path d="M2261.47 1020.25 2241.92 1020.25 2241.92 1006.79C2247.58 1003.52 2249.52 996.285 2246.25 990.625 2242.98 984.965 2235.74 983.026 2230.08 986.294 2224.42 989.561 2222.48 996.798 2225.75 1002.46 2226.79 1004.26 2228.28 1005.75 2230.08 1006.79L2230.08 1020.25 2210.53 1020.25C2203.36 1020.27 2197.56 1026.07 2197.54 1033.24L2197.54 1066.43C2197.56 1073.6 2203.36 1079.4 2210.53 1079.42L2261.47 1079.42C2268.64 1079.4 2274.44 1073.6 2274.46 1066.43L2274.46 1033.24C2274.44 1026.07 2268.64 1020.27 2261.47 1020.25ZM2221.21 1058.71C2216.31 1058.71 2212.33 1054.73 2212.33 1049.83 2212.33 1044.93 2216.31 1040.96 2221.21 1040.96 2226.11 1040.96 2230.08 1044.93 2230.08 1049.83 2230.08 1054.73 2226.11 1058.71 2221.21 1058.71ZM2250.79 1058.71C2245.89 1058.71 2241.92 1054.73 2241.92 1049.83 2241.92 1044.93 2245.89 1040.96 2250.79 1040.96 2255.69 1040.96 2259.67 1044.93 2259.67 1049.83 2259.67 1054.73 2255.69 1058.71 2250.79 1058.71Z"/><path d="M2226.62 1049.83C2226.62 1052.28 2224.64 1054.27 2222.18 1054.27 2219.73 1054.27 2217.75 1052.28 2217.75 1049.83 2217.75 1047.38 2219.73 1045.4 2222.18 1045.4 2224.64 1045.4 2226.62 1047.38 2226.62 1049.83Z"/><path d="M2312.92 1141.01 2312.92 1116.37C2312.92 1109.03 2306.97 1103.08 2299.63 1103.08L2283.33 1103.08 2283.33 1088.29 2188.67 1088.29 2188.67 1106.04 2166.45 1106.04C2165.65 1106.04 2165 1105.39 2165 1104.59L2165 1080.07C2175.17 1077.06 2180.98 1066.39 2177.98 1056.22 2177.17 1053.49 2175.77 1050.98 2173.88 1048.86L2165 1056.73C2166.24 1058.08 2166.95 1059.83 2166.98 1061.67 2166.96 1065.75 2163.63 1069.04 2159.55 1069.02 2155.46 1069 2152.17 1065.67 2152.19 1061.59 2152.2 1059.82 2152.84 1058.12 2154 1056.79L2145.12 1049C2138.15 1057.02 2138.99 1069.16 2147 1076.13 2148.81 1077.71 2150.9 1078.94 2153.17 1079.74L2153.17 1104.59C2153.17 1111.93 2159.11 1117.87 2166.45 1117.87L2188.67 1117.87 2188.67 1171.12 2283.33 1171.12 2283.33 1114.92 2299.63 1114.92C2300.43 1114.92 2301.08 1115.57 2301.08 1116.37L2301.08 1141.01C2290.98 1144.28 2285.44 1155.12 2288.71 1165.22 2289.52 1167.75 2290.86 1170.08 2292.62 1172.07L2301.5 1164.2C2300.27 1162.86 2299.6 1161.11 2299.6 1159.29 2299.61 1155.21 2302.92 1151.9 2307.01 1151.9 2311.09 1151.91 2314.4 1155.22 2314.4 1159.3 2314.39 1161.1 2313.74 1162.83 2312.56 1164.17L2321.44 1171.95C2328.44 1163.99 2327.65 1151.86 2319.69 1144.86 2317.72 1143.13 2315.41 1141.82 2312.92 1141.01ZM2271.5 1129.71 2263.28 1129.71C2262.99 1129.76 2262.72 1129.87 2262.48 1130.03L2253.42 1139.29 2246.53 1122.96 2233.66 1149.59 2224.64 1114.92 2217.69 1129.71 2203.46 1129.71 2203.46 1123.79 2213.93 1123.79 2226.24 1097.61 2235.35 1132.46 2246.92 1108.79 2255.44 1128.97 2258.39 1126.01C2259.69 1124.7 2261.43 1123.91 2263.28 1123.79L2271.5 1123.79Z"/></g></g></g><path d="M1207.12 812.803 1237.91 803.693 1268.87 795.026 1300.04 787.287 1315.8 783.899 1331.62 780.928 1347.55 778.428 1363.59 776.46 1379.75 775.084 1396.05 774.364 1412.48 774.36 1429.05 775.133 1445.77 776.746 1462.61 779.25 1471.31 780.907 1480.29 782.857 1489.55 785.091 1499.09 787.603 1518.75 793.352 1539.1 800.011 1559.87 807.452 1580.82 815.557 1601.69 824.209 1622.24 833.292 1642.21 842.688 1661.36 852.281 1679.4 861.945 1687.98 866.792 1696.18 871.607 1703.98 876.388 1711.36 881.123 1718.3 885.8 1724.92 890.527 1744.74 907.541 1735.78 917.973 1716.2 901.16 1716.68 901.539 1710.38 897.044 1710.53 897.149 1703.74 892.567 1703.87 892.654 1696.62 888.001 1696.74 888.076 1689.05 883.365 1689.16 883.43 1681.07 878.677 1681.17 878.735 1672.71 873.954 1672.84 874.03 1654.95 864.447 1655.11 864.532 1636.13 855.019 1636.28 855.093 1616.46 845.768 1616.61 845.835 1596.21 836.818 1596.35 836.881 1575.63 828.29 1575.78 828.351 1554.99 820.306 1555.15 820.367 1534.55 812.987 1534.73 813.049 1514.57 806.454 1514.78 806.518 1495.32 800.826 1495.51 800.876 1486.12 798.406 1486.26 798.441 1477.14 796.241 1477.29 796.276 1468.48 794.362 1468.65 794.398 1460.18 792.784 1460.45 792.83 1443.93 790.372 1444.28 790.415 1427.9 788.836 1428.24 788.86 1412 788.102 1412.32 788.11 1396.2 788.114 1396.5 788.107 1380.5 788.815 1380.78 788.797 1364.89 790.149 1365.14 790.123 1349.34 792.062 1349.57 792.03 1333.86 794.496 1334.06 794.461 1318.43 797.396 1318.6 797.361 1303.04 800.707 1303.25 800.658 1272.28 808.346 1272.48 808.294 1241.66 816.921 1241.76 816.893 1211.02 825.988ZM1212.98 832.58C1205.69 834.735 1198.04 830.579 1195.89 823.297 1193.73 816.015 1197.89 808.366 1205.17 806.211 1212.45 804.056 1220.1 808.212 1222.26 815.494 1224.41 822.776 1220.26 830.426 1212.98 832.58ZM1753.92 897.308C1762.45 904.855 1763.25 917.89 1755.71 926.422 1748.16 934.954 1735.12 935.753 1726.59 928.206 1718.06 920.659 1717.26 907.624 1724.81 899.092 1732.36 890.56 1745.39 889.761 1753.92 897.308Z" fill="#BFBFBF"/><text font-family="Calibri,Calibri_MSFontService,sans-serif" font-weight="400" font-size="83" transform="matrix(1 0 0 1 -26.7374 797)">With </text><text font-family="Calibri,Calibri_MSFontService,sans-serif" font-weight="400" font-size="83" transform="matrix(1 0 0 1 155.45 797)">a solid understanding </text><text font-family="Calibri,Calibri_MSFontService,sans-serif" font-weight="400" font-size="83" transform="matrix(1 0 0 1 -16.7228 896)">of the relevant physics, we </text><text font-family="Calibri,Calibri_MSFontService,sans-serif" font-weight="400" font-size="83" transform="matrix(1 0 0 1 42.4938 995)">can engineer a system to </text><text font-family="Calibri,Calibri_MSFontService,sans-serif" font-weight="400" font-size="83" transform="matrix(1 0 0 1 197.915 1094)">behave as we desire  </text><g><g><g><path d="M1057.02 754.375C984.879 754.375 926.396 812.858 926.396 885 926.396 957.142 984.879 1015.63 1057.02 1015.63 1129.16 1015.63 1187.65 957.142 1187.65 885 1187.65 812.858 1129.16 754.375 1057.02 754.375ZM1071.41 987.094 1079.36 931.406C1065.27 938.295 1048.78 938.295 1034.68 931.406L1042.63 987.094C986.276 979.194 946.995 927.103 954.895 870.748 955.55 866.074 956.526 861.452 957.814 856.912L1005.62 888.286C1005.55 887.193 1005.46 886.11 1005.46 885 1005.47 870.178 1011.87 856.081 1023.03 846.325L969.825 830.045C1000.11 781.888 1063.7 767.4 1111.86 797.684 1124.93 805.908 1135.99 816.968 1144.22 830.045L1091.01 846.325C1102.17 856.079 1108.58 870.177 1108.58 885 1108.58 886.11 1108.49 887.193 1108.42 888.286L1156.23 856.912C1171.77 911.656 1139.99 968.633 1085.24 984.174 1080.7 985.463 1076.08 986.439 1071.41 987.094Z" fill="#37834B"/><path d="M1057.02 847.188C1036.14 847.188 1019.21 864.117 1019.21 885 1019.21 905.883 1036.14 922.813 1057.02 922.813 1077.9 922.813 1094.83 905.883 1094.83 885 1094.81 864.126 1077.89 847.21 1057.02 847.188ZM1057.02 902.188C1047.53 902.188 1039.83 894.492 1039.83 885 1039.83 875.508 1047.53 867.813 1057.02 867.813 1066.51 867.813 1074.21 875.508 1074.21 885 1074.2 894.488 1066.51 902.176 1057.02 902.188Z" fill="#37834B"/></g></g></g><path d="M-4.90683 201.435 21.5094 174.517 48.319 147.994 75.8148 122.367 89.9762 109.989 104.417 98.0262 119.203 86.5177 134.375 75.524 149.975 65.1063 166.042 55.3262 182.617 46.2459 199.738 37.9279 217.445 30.4348 235.729 23.845 245.361 20.8328 255.426 17.9848 265.928 15.2878 276.86 12.734 299.674 8.10035 323.665 4.06653 348.487 0.647562 373.828-2.14706 399.376-4.30668 424.817-5.81987 449.837-6.67455 474.124-6.85799 497.337-6.35712 508.497-5.84356 519.255-5.15406 529.599-4.28498 539.494-3.23351 548.904-1.99627 557.795-0.568939 566.294 1.0856 586.946 7.00243 583.159 20.2206 562.794 14.386 563.374 14.5252 555.279 12.9494 555.503 12.9892 546.821 11.5954 547.015 11.6236 537.787 10.4103 537.956 10.4305 528.222 9.39605 528.373 9.41041 518.171 8.55337 518.307 8.56343 507.679 7.88225 507.803 7.88906 496.788 7.3822 496.956 7.38786 473.927 6.89097 474.128 6.89238 450.032 7.07437 450.215 7.07055 425.373 7.91915 425.547 7.91103 400.278 9.41397 400.449 9.40167 375.074 11.5467 375.248 11.5297 350.086 14.3045 350.271 14.2816 325.642 17.674 325.844 17.6431 302.069 21.6408 302.297 21.5984 279.695 26.189 279.891 26.1463 269.129 28.6602 269.276 28.6243 258.928 31.2818 259.089 31.2382 249.195 34.0378 249.375 33.9841 239.974 36.9243 240.253 36.8305 222.283 43.3069 222.631 43.1705 205.261 50.5212 205.586 50.3736 188.777 58.5401 189.075 58.3857 172.786 67.3098 173.057 67.153 157.247 76.7764 157.491 76.6211 142.121 86.8855 142.336 86.7354 127.366 97.5826 127.555 97.4408 112.945 108.813 113.108 108.682 98.818 120.52 98.9566 120.402 84.9464 132.647 85.1094 132.5 57.7688 157.983 57.9165 157.841 31.2158 184.256 31.2875 184.184 4.90683 211.065ZM9.81367 215.881C4.49466 221.301-4.21097 221.383-9.63091 216.064-15.0509 210.745-15.1327 202.039-9.81367 196.619-4.49466 191.199 4.21097 191.117 9.63091 196.436 15.0509 201.755 15.1327 210.461 9.81367 215.881ZM590.759-6.20841C601.705-3.05698 608.024 8.37145 604.873 19.3177 601.721 30.264 590.293 36.5829 579.347 33.4315 568.4 30.2801 562.081 18.8516 565.233 7.90537 568.384-3.04089 579.813-9.35984 590.759-6.20841Z" fill="#BFBFBF" transform="matrix(-0.890867 0.454264 0.454264 0.890867 3177.07 651.702)"/><text fill="#D57E2A" font-family="Rockwell Extra Bold,Rockwell Extra Bold_MSFontService,sans-serif" font-weight="800" font-size="83" transform="matrix(1 0 0 1 3568.34 665)">Cybersecurity</text><text font-family="Calibri,Calibri_MSFontService,sans-serif" font-weight="400" font-size="83" transform="matrix(1 0 0 1 3568.34 761)">Everything on the internet </text><text font-family="Calibri,Calibri_MSFontService,sans-serif" font-weight="400" font-size="83" transform="matrix(1 0 0 1 3568.34 860)">is vulnerable to attack, </text><text font-family="Calibri,Calibri_MSFontService,sans-serif" font-weight="400" font-size="83" transform="matrix(1 0 0 1 3568.34 959)">with an abundance of </text><text font-family="Calibri,Calibri_MSFontService,sans-serif" font-weight="400" font-size="83" transform="matrix(1 0 0 1 3568.34 1058)">caution we can mitigate </text><text font-family="Calibri,Calibri_MSFontService,sans-serif" font-weight="400" font-size="83" transform="matrix(1 0 0 1 3568.34 1157)">these risks</text><g><g><g><path d="M3384.49 900.675C3384.49 904.529 3381.37 907.653 3377.51 907.653 3373.66 907.653 3370.53 904.529 3370.53 900.675 3370.53 896.821 3373.66 893.697 3377.51 893.697 3381.37 893.697 3384.49 896.821 3384.49 900.675Z" fill="#D57E2A"/><path d="M3533.27 995 3398.93 761.25C3395.15 754.663 3386.75 752.384 3380.16 756.162 3378.04 757.376 3376.29 759.132 3375.07 761.25L3240.73 995C3236.94 1001.58 3239.19 1009.99 3245.77 1013.78 3247.85 1014.99 3250.22 1015.62 3252.63 1015.63L3521.37 1015.63C3528.97 1015.62 3535.12 1009.45 3535.11 1001.86 3535.11 999.452 3534.47 997.086 3533.27 995ZM3382.77 920.75 3382.77 923.363C3382.73 936.845 3371.81 947.766 3358.33 947.803L3332.17 947.803 3332.17 970.938 3321.69 970.938 3321.69 912.844 3332 912.844 3332 937.319 3358.16 937.319C3365.85 937.281 3372.08 931.055 3372.12 923.363L3372.12 916.488 3340.52 903.219 3356.75 864.547 3450.11 903.288 3412.44 933.125ZM3443.65 932.61 3430.93 927.385 3446.43 915.147 3459.19 920.406Z" fill="#D57E2A"/></g></g></g><path d="M-5.96477 374.06 22.2463 324.838 36.4826 300.453 50.8567 276.373 65.4157 252.699 80.2039 229.538 95.2665 206.994 110.649 185.175 126.398 164.185 142.56 144.132 159.184 125.123 176.318 107.265 194.011 90.6681 212.266 75.4825 221.704 68.388 231.268 61.7125 241.008 55.4378 250.934 49.5769 261.232 44.0623 272.047 38.8225 283.33 33.8609 295.039 29.1771 307.135 24.7712 319.618 20.6299 345.323 13.229 371.962 6.9464 399.153 1.81187 426.565-2.15588 453.866-4.93629 480.722-6.50717 506.805-6.84449 531.734-5.92346 543.755-4.97625 555.334-3.70546 566.479-2.10232 577.149-0.160763 587.309 2.12658 596.921 4.76892 606.187 7.8573 628.37 18.7395 622.314 31.0842 600.546 20.4056 601.4 20.7555 592.747 17.8715 593.099 17.9783 583.82 15.4274 584.132 15.5055 574.268 13.2848 574.548 13.3416 564.143 11.4484 564.395 11.4894 553.491 9.92087 553.72 9.94989 542.36 8.70319 542.57 8.72298 530.797 7.79532 531.083 7.81188 506.468 6.90246 506.811 6.90658 481.056 7.23965 481.369 7.2285 454.816 8.78161 455.112 8.75796 428.103 11.5086 428.391 11.4731 401.269 15.3989 401.559 15.3505 374.665 20.4289 374.967 20.3647 348.643 26.5734 348.967 26.4887 323.554 33.8051 323.817 33.7237 311.559 37.7904 311.748 37.7249 299.846 42.06 300.047 41.9835 288.544 46.5844 288.758 46.4945 277.698 51.3582 277.928 51.252 267.352 56.3758 267.6 56.2494 257.551 61.6306 257.801 61.4898 248.115 67.2097 248.342 67.0693 238.822 73.2026 239.033 73.0606 229.673 79.5939 229.869 79.4517 220.664 86.3716 220.929 86.1615 202.962 101.108 203.269 100.837 185.857 117.17 186.115 116.915 169.216 134.528 169.43 134.294 153.002 153.08 153.179 152.869 137.178 172.721 137.325 172.533 121.708 193.346 121.828 193.181 106.554 214.847 106.651 214.705 91.6765 237.117 91.7547 236.998 77.0361 260.05 77.0977 259.952 62.5929 283.538 62.64 283.46 48.3062 307.472 48.3402 307.415 34.1346 331.747 34.1621 331.7 5.96477 380.898ZM11.9295 384.316C8.15342 390.905-0.248776 393.185-6.83728 389.409-13.4258 385.632-15.7057 377.23-11.9295 370.642-8.15342 364.053 0.248776 361.773 6.83728 365.549 13.4258 369.326 15.7057 377.728 11.9295 384.316ZM634.661 6.51261C644.823 11.6598 648.888 24.07 643.741 34.2316 638.594 44.3933 626.184 48.4583 616.022 43.3111 605.86 38.1639 601.795 25.7537 606.942 15.5921 612.09 5.43044 624.5 1.36543 634.661 6.51261Z" fill="#BFBFBF" transform="matrix(0.125432 -0.992102 -0.992102 -0.125432 2161.21 2378.52)"/><text font-family="Calibri,Calibri_MSFontService,sans-serif" font-weight="400" font-size="83" transform="matrix(1 0 0 1 286.297 2222)">No </text><text font-family="Calibri,Calibri_MSFontService,sans-serif" font-weight="400" font-size="83" transform="matrix(1 0 0 1 402.026 2222)">one knows what the future will </text><text font-family="Calibri,Calibri_MSFontService,sans-serif" font-weight="400" font-size="83" transform="matrix(1 0 0 1 339.899 2321)">hold, but with enough insight we </text><text font-family="Calibri,Calibri_MSFontService,sans-serif" font-weight="400" font-size="83" transform="matrix(1 0 0 1 372.67 2420)">can teach a computer to predict </text><text font-family="Calibri,Calibri_MSFontService,sans-serif" font-weight="400" font-size="83" transform="matrix(1 0 0 1 462.641 2519)">the future with high accuracy </text><g><g><g><path d="M1639 2323.22 1617.69 2323.22C1612.88 2323.22 1608.75 2320.12 1607.38 2315.66L1600.84 2294.69C1599.81 2291.25 1599.12 2287.81 1599.12 2284.37L1599.12 2280.94C1599.12 2275.09 1603.94 2270.28 1609.78 2270.28L1645.53 2270.28C1651.38 2270.28 1656.19 2275.09 1656.19 2280.94L1656.19 2284.72C1656.19 2288.16 1655.84 2291.25 1654.81 2294.69L1648.62 2316C1647.94 2319.78 1643.47 2323.22 1639 2323.22Z" fill="#CF6152"/><path d="M1652.06 2360.34 1652.06 2360.34C1652.75 2356.56 1652.41 2352.44 1651.38 2348.66L1648.28 2337.66C1646.91 2333.19 1642.78 2330.09 1637.97 2330.09L1618.38 2330.09C1613.56 2330.09 1609.44 2333.19 1608.06 2337.66L1604.97 2348.66C1603.94 2352.44 1603.59 2356.56 1604.28 2360.34L1604.28 2360.34C1604.97 2365.5 1609.44 2369.28 1614.94 2369.28L1641.75 2369.28C1646.91 2369.28 1651.38 2365.5 1652.06 2360.34Z" fill="#CF6152"/><path d="M1653.78 2440.44 1648.28 2441.12C1644.16 2441.81 1640.38 2439.06 1639.69 2434.94L1630.41 2391.28C1630.41 2390.94 1630.41 2390.94 1630.41 2390.59L1629.38 2383.37C1628.69 2378.91 1631.78 2375.12 1636.25 2374.44L1636.25 2374.44 1648.62 2372.72C1653.09 2372.03 1656.88 2375.12 1657.56 2379.59L1658.59 2386.81C1658.59 2387.16 1658.59 2387.16 1658.59 2387.5L1661 2431.84C1661 2436.31 1657.91 2439.75 1653.78 2440.44Z" fill="#CF6152"/><path d="M1663.41 2510.91 1663.41 2510.91C1659.28 2511.59 1655.5 2508.84 1654.47 2505.06L1645.19 2466.22C1645.19 2465.87 1645.19 2465.87 1645.19 2465.53L1643.12 2453.84C1642.44 2449.37 1645.19 2445.59 1649.66 2444.91L1649.66 2444.91 1655.16 2443.87C1659.62 2443.19 1663.41 2445.94 1664.09 2450.41L1664.09 2450.41 1666.16 2462.09C1666.16 2462.44 1666.16 2462.44 1666.16 2462.78L1669.94 2502.66C1670.28 2506.44 1667.53 2510.22 1663.41 2510.91Z" fill="#CF6152"/><path d="M1651.03 2529.12C1651.03 2521.22 1657.56 2515.03 1665.12 2515.03 1673.03 2515.03 1679.22 2521.56 1679.22 2529.12L1651.03 2529.12Z" fill="#CF6152"/><path d="M1602.56 2440.44 1608.06 2441.12C1612.19 2441.81 1615.97 2439.06 1616.66 2434.94L1625.94 2391.28C1625.94 2390.94 1625.94 2390.94 1625.94 2390.59L1626.97 2383.37C1627.66 2378.91 1624.56 2375.12 1620.09 2374.44L1620.09 2374.44 1607.72 2372.72C1603.25 2372.03 1599.47 2375.12 1598.78 2379.59L1597.75 2386.81C1597.75 2387.16 1597.75 2387.16 1597.75 2387.5L1595.34 2431.84C1595.34 2436.31 1598.44 2439.75 1602.56 2440.44Z" fill="#CF6152"/><path d="M1592.94 2510.91 1592.94 2510.91C1597.06 2511.59 1600.84 2508.84 1601.88 2505.06L1611.16 2466.22C1611.16 2465.87 1611.16 2465.87 1611.16 2465.53L1613.22 2453.84C1613.91 2449.37 1611.16 2445.59 1606.69 2444.91L1606.69 2444.91 1601.19 2443.87C1596.72 2443.19 1592.94 2445.94 1592.25 2450.41L1592.25 2450.41 1590.19 2462.09C1590.19 2462.44 1590.19 2462.44 1590.19 2462.78L1586.41 2502.66C1586.06 2506.44 1588.81 2510.22 1592.94 2510.91Z" fill="#CF6152"/><path d="M1576.78 2529.12 1604.97 2529.12C1604.97 2521.22 1598.78 2515.03 1590.88 2515.03 1582.97 2515.03 1576.78 2521.22 1576.78 2529.12Z" fill="#CF6152"/><path d="M1647.59 2232.47C1647.59 2221.47 1638.66 2212.87 1628 2212.87 1617.34 2212.87 1608.41 2221.47 1608.41 2232.47L1612.19 2254.47C1612.88 2259.28 1617 2262.72 1622.16 2262.72L1633.84 2262.72C1638.66 2262.72 1642.78 2259.28 1643.81 2254.47L1647.59 2232.47Z" fill="#CF6152"/><path d="M1543.78 2317.03 1542.75 2316C1540 2312.56 1540.69 2307.41 1543.78 2304.66L1566.81 2287.47 1581.25 2277.84C1586.06 2275.09 1592.25 2276.47 1595.34 2281.62L1595.34 2281.62C1598.78 2286.09 1598.09 2292.62 1593.62 2296.06L1579.19 2305.69 1554.78 2320.81C1551 2322.19 1546.19 2320.81 1543.78 2317.03Z" fill="#CF6152"/><path d="M1537.94 2308.78 1532.78 2301.56C1531.75 2300.53 1531.06 2299.16 1530.03 2298.12L1509.75 2278.19C1507.69 2276.12 1504.94 2275.44 1502.53 2276.47 1503.56 2272.34 1501.84 2267.19 1497.03 2262.72 1492.22 2258.59 1481.91 2254.81 1477.09 2259.97L1499.09 2279.91C1498.06 2282.31 1498.41 2284.72 1500.12 2286.78L1517.31 2309.47C1518.34 2310.5 1519.03 2311.87 1520.06 2312.91L1526.25 2319.09C1528.66 2321.84 1532.78 2321.84 1535.53 2319.78L1537.59 2318.06C1540 2315.66 1540 2311.53 1537.94 2308.78Z" fill="#CF6152"/><path d="M1712.56 2317.37 1713.59 2316C1716.34 2312.56 1715.66 2307.41 1712.56 2304.66L1689.53 2287.47 1675.09 2277.84C1670.28 2275.09 1664.09 2276.47 1661 2281.62L1661 2281.62C1657.56 2286.09 1658.25 2292.62 1662.72 2296.06L1677.16 2306.03 1701.56 2321.16C1705.69 2322.53 1710.5 2321.16 1712.56 2317.37Z" fill="#CF6152"/><path d="M1779.59 2260.31C1774.78 2254.81 1764.12 2258.59 1759.66 2263.06 1754.84 2267.53 1753.12 2272.69 1754.16 2276.81 1751.75 2275.78 1748.66 2276.47 1746.94 2278.53L1726.66 2298.47C1725.62 2299.5 1724.59 2300.53 1723.91 2301.91L1718.75 2309.12C1716.34 2311.87 1716.69 2316 1719.44 2318.41L1721.5 2320.12C1724.25 2322.19 1728.38 2322.19 1730.78 2319.44L1736.97 2313.25C1738 2312.22 1739.03 2311.19 1739.72 2309.81L1756.91 2287.12C1758.62 2285.06 1758.97 2282.31 1757.94 2280.25L1779.59 2260.31Z" fill="#CF6152"/></g></g></g><text fill="#37834B" font-family="Rockwell Extra Bold,Rockwell Extra Bold_MSFontService,sans-serif" font-weight="800" font-size="83" transform="matrix(1 0 0 1 188.143 700)">Control Theory</text><text fill="#CF6152" font-family="Rockwell Extra Bold,Rockwell Extra Bold_MSFontService,sans-serif" font-weight="800" font-size="83" transform="matrix(1 0 0 1 665.853 2126)">System Modeling</text></g></svg>