<svg width="2785" height="2123" xmlns="http://www.w3.org/2000/svg" xmlns:xlink="http://www.w3.org/1999/xlink" xml:space="preserve" overflow="hidden"><g transform="translate(-69 -10)"><path d="M71.5 718.896C71.5 639.148 136.148 574.5 215.896 574.5L2682.1 574.5C2761.85 574.5 2826.5 639.148 2826.5 718.896L2826.5 1986.1C2826.5 2065.85 2761.85 2130.5 2682.1 2130.5L215.896 2130.5C136.148 2130.5 71.5 2065.85 71.5 1986.1Z" stroke="#FFC000" stroke-width="4.58333" stroke-miterlimit="8" fill="#FBE5D6" fill-rule="evenodd" fill-opacity="0.521569"/><path d="M0 0 5.35396 0 5.35396 230.496 564.146 230.496" stroke="#C00000" stroke-width="20.625" stroke-miterlimit="8" fill="none" fill-rule="evenodd" transform="matrix(-1.83697e-16 -1 -1 1.83697e-16 1895 1005.65)"/><path d="M1442.91 435.5 1442.91 1009.02 1240.06 1008.92 1240.07 988.295 1432.6 988.387 1422.29 998.699 1422.29 435.5ZM1250.1 1029.64 1188.5 998.148 1250.65 967.763Z" fill="#C00000"/><g><g><g><path d="M2720.45 821.125 2720.45 996.438 2633.83 909.813 2720.45 821.125ZM2529.67 805.656 2706.53 805.656 2619.39 895.891 2529.67 805.656ZM2524.52 1085.13 2505.95 1066.56 2524.52 1026.34 2543.08 1066.56 2524.52 1085.13ZM2538.95 1100.08 2552.36 1086.67 2576.08 1137.2 2538.95 1100.08ZM2472.95 1136.69 2496.67 1086.16 2510.08 1099.56 2472.95 1136.69ZM2524.52 1114 2556.48 1145.97 2492.55 1145.97 2524.52 1114ZM2767.38 1043.88 2741.08 1017.06 2741.08 815.969 2746.23 810.813C2755 802.047 2755 788.641 2746.23 779.875 2737.47 771.109 2724.06 771.109 2715.3 779.875L2710.14 785.031 2509.05 785.031 2487.91 764.406C2471.92 793.281 2462.64 827.313 2462.64 862.891 2462.64 915.484 2482.23 962.922 2514.2 999.531L2446.66 1144.94C2444.59 1149.58 2444.59 1155.25 2447.69 1159.89 2450.78 1164.53 2455.42 1167.11 2460.58 1167.11L2588.97 1167.11C2594.13 1167.11 2599.28 1164.53 2601.86 1159.89 2604.44 1155.25 2604.95 1150.09 2602.89 1144.94L2549.27 1030.47C2583.3 1054.19 2624.55 1068.63 2668.89 1068.63 2704.47 1069.14 2737.98 1059.34 2767.38 1043.88Z"/></g></g></g><rect x="2007.5" y="903.5" width="198" height="198" stroke="#172C51" stroke-width="4.58333" stroke-miterlimit="8" fill="#329FD6"/><g><g><g><path d="M86.4584 119.658 86.4584 128.823 79.5417 128.823 79.5417 119.658C75.5646 118.275 72.625 114.471 72.625 109.802 72.625 104.096 77.2938 99.4271 83 99.4271 88.7063 99.4271 93.375 104.096 93.375 109.802 93.375 114.298 90.4354 118.102 86.4584 119.658ZM57.0625 56.1979C57.0625 41.8458 68.6479 30.2604 83 30.2604 97.3521 30.2604 108.938 41.8458 108.938 56.1979L108.938 75.3917 83 73.4896 57.0625 75.3917 57.0625 56.1979ZM119.313 76.0833 119.313 56.1979C119.313 36.1396 103.058 19.8854 83 19.8854 62.9417 19.8854 46.6875 36.1396 46.6875 56.1979L46.6875 76.0833 34.5833 76.9479 34.5833 142.656 83 146.115 131.417 142.656 131.417 76.9479 119.313 76.0833Z" fill="#FAD85C" transform="matrix(1.10843 0 0 1 2014 917)"/></g></g></g><g><g><g><path d="M158.552 332.448 332.448 332.448 332.448 158.552 158.552 158.552ZM168.781 168.781 322.219 168.781 322.219 322.219 168.781 322.219Z" transform="matrix(1 0 0 1 1860 757)"/><path d="M429.625 148.323 429.625 138.094 383.594 138.094 383.594 132.979C383.577 118.862 372.138 107.423 358.021 107.406L352.906 107.406 352.906 61.375 342.677 61.375 342.677 107.406 311.99 107.406 311.99 61.375 301.76 61.375 301.76 107.406 271.073 107.406 271.073 61.375 260.844 61.375 260.844 107.406 230.156 107.406 230.156 61.375 219.927 61.375 219.927 107.406 189.24 107.406 189.24 61.375 179.01 61.375 179.01 107.406 148.323 107.406 148.323 61.375 138.094 61.375 138.094 107.406 132.979 107.406C118.862 107.423 107.423 118.862 107.406 132.979L107.406 138.094 61.375 138.094 61.375 148.323 107.406 148.323 107.406 179.01 61.375 179.01 61.375 189.24 107.406 189.24 107.406 219.927 61.375 219.927 61.375 230.156 107.406 230.156 107.406 260.844 61.375 260.844 61.375 271.073 107.406 271.073 107.406 301.76 61.375 301.76 61.375 311.99 107.406 311.99 107.406 342.677 61.375 342.677 61.375 352.906 107.406 352.906 107.406 358.021C107.423 372.138 118.862 383.577 132.979 383.594L138.094 383.594 138.094 429.625 148.323 429.625 148.323 383.594 179.01 383.594 179.01 429.625 189.24 429.625 189.24 383.594 219.927 383.594 219.927 429.625 230.156 429.625 230.156 383.594 260.844 383.594 260.844 429.625 271.073 429.625 271.073 383.594 301.76 383.594 301.76 429.625 311.99 429.625 311.99 383.594 342.677 383.594 342.677 429.625 352.906 429.625 352.906 383.594 358.021 383.594C372.138 383.577 383.577 372.138 383.594 358.021L383.594 352.906 429.625 352.906 429.625 342.677 383.594 342.677 383.594 311.99 429.625 311.99 429.625 301.76 383.594 301.76 383.594 271.073 429.625 271.073 429.625 260.844 383.594 260.844 383.594 230.156 429.625 230.156 429.625 219.927 383.594 219.927 383.594 189.24 429.625 189.24 429.625 179.01 383.594 179.01 383.594 148.323ZM373.365 358.021C373.365 366.495 366.495 373.365 358.021 373.365L132.979 373.365C124.505 373.365 117.635 366.495 117.635 358.021L117.635 132.979C117.635 124.505 124.505 117.635 132.979 117.635L358.021 117.635C366.495 117.635 373.365 124.505 373.365 132.979Z" transform="matrix(1 0 0 1 1860 757)"/></g></g></g><path d="M2.16796e-05-10.3125 120.106-10.3122 120.106 10.3128-2.16796e-05 10.3125ZM109.794-30.9373 171.669 0.000360892 109.794 30.9377Z" fill="#57DB5A" transform="matrix(-1 0 0 1 2465.17 1000.5)"/><g><g><g><path d="M502.084 203.621C501.744 198.689 498.155 194.589 493.311 193.6L435.155 181.725C431.538 180.976 427.787 182.104 425.183 184.723L413.435 196.465 335.335 118.366C334.392 134.368 325.754 148.922 312.158 157.415L382.322 227.579 370.975 238.931C368.398 241.509 367.265 245.196 367.95 248.776L379.198 307.538C380.139 312.451 384.277 316.109 389.268 316.443L447.601 320.331C447.849 320.331 448.096 320.359 448.344 320.359 454.419 320.558 459.505 315.794 459.704 309.719 459.903 303.643 455.139 298.558 449.064 298.359L399.201 295.059 390.648 250.371 436.557 204.462 480.7 213.455 484.033 263.417C484.437 269.483 489.682 274.073 495.748 273.669 501.814 273.265 506.404 268.02 506 261.954Z" transform="matrix(-1 0 0 1 630 720)"/><path d="M236.176 280.176C236.18 262.496 231.124 245.184 221.606 230.285L182.798 276.65C162.717 300.721 126.924 303.956 102.853 283.874 78.782 263.793 75.5474 228 95.6285 203.93 97.8137 201.31 100.231 198.893 102.85 196.707L104.28 195.508C71.1222 210.64 49.8432 243.728 49.83 280.176L49.83 385 236.176 385Z" transform="matrix(-1 0 0 1 630 720)"/><path d="M236.5 115.5C236.5 112.152 236.839 108.813 237.512 105.534L113.426 209.357C96.3831 223.638 94.1435 249.03 108.424 266.073 122.703 283.117 148.096 285.357 165.14 271.076 166.951 269.559 168.625 267.885 170.143 266.073L260.634 157.927C245.691 149.01 236.528 132.901 236.5 115.5ZM153.577 241.483C149.282 245.78 142.316 245.781 138.02 241.485 133.724 237.19 133.723 230.226 138.018 225.929 142.313 221.632 149.278 221.631 153.574 225.927 153.575 225.927 153.576 225.928 153.577 225.929 157.871 230.225 157.871 237.188 153.577 241.483Z" transform="matrix(-1 0 0 1 630 720)"/><path d="M236.5 407 49.5 407C37.3497 407 27.5 416.85 27.5 429L27.5 451 258.5 451 258.5 429C258.5 416.85 248.65 407 236.5 407Z" transform="matrix(-1 0 0 1 630 720)"/><path d="M286 82.5C267.775 82.5 253 97.2747 253 115.5 253 133.725 267.775 148.5 286 148.5 304.225 148.5 319 133.725 319 115.5 319 97.2747 304.225 82.5 286 82.5ZM286 123.75C281.444 123.75 277.75 120.056 277.75 115.5 277.75 110.944 281.444 107.25 286 107.25 290.556 107.25 294.25 110.944 294.25 115.5 294.25 120.056 290.556 123.75 286 123.75Z" transform="matrix(-1 0 0 1 630 720)"/></g></g></g><rect x="877.5" y="903.5" width="198" height="198" stroke="#172C51" stroke-width="4.58333" stroke-miterlimit="8" fill="#329FD6"/><g><g><g><path d="M83.5 80.0209 57.4063 81.9344 57.4063 50.4479C57.4063 36.0094 69.0615 24.3542 83.5 24.3542 97.9386 24.3542 109.594 36.0094 109.594 50.4479L109.594 60.8854 120.031 60.8854 120.031 50.4479C120.031 30.2688 103.679 13.9167 83.5 13.9167 63.3209 13.9167 46.9688 30.2688 46.9688 50.4479L46.9688 82.6302 34.7917 83.5 34.7917 149.604 83.5 153.083 132.208 149.604 132.208 83.5 83.5 80.0209ZM86.9792 126.468 86.9792 135.688 80.0209 135.688 80.0209 126.468C76.0198 125.076 73.0625 121.249 73.0625 116.552 73.0625 110.812 77.7594 106.115 83.5 106.115 89.2407 106.115 93.9375 110.812 93.9375 116.552 93.9375 121.075 90.9802 124.902 86.9792 126.468Z" stroke="#FFC000" stroke-width="1.73958" fill="#FAD85C" transform="matrix(1.1018 0 0 1 884 919)"/></g></g></g><g><g><g><path d="M158.552 332.448 332.448 332.448 332.448 158.552 158.552 158.552ZM168.781 168.781 322.219 168.781 322.219 322.219 168.781 322.219Z" transform="matrix(1.00204 0 0 1 730 757)"/><path d="M429.625 148.323 429.625 138.094 383.594 138.094 383.594 132.979C383.577 118.862 372.138 107.423 358.021 107.406L352.906 107.406 352.906 61.375 342.677 61.375 342.677 107.406 311.99 107.406 311.99 61.375 301.761 61.375 301.761 107.406 271.073 107.406 271.073 61.375 260.844 61.375 260.844 107.406 230.156 107.406 230.156 61.375 219.927 61.375 219.927 107.406 189.24 107.406 189.24 61.375 179.01 61.375 179.01 107.406 148.323 107.406 148.323 61.375 138.094 61.375 138.094 107.406 132.979 107.406C118.862 107.423 107.423 118.862 107.406 132.979L107.406 138.094 61.375 138.094 61.375 148.323 107.406 148.323 107.406 179.01 61.375 179.01 61.375 189.24 107.406 189.24 107.406 219.927 61.375 219.927 61.375 230.156 107.406 230.156 107.406 260.844 61.375 260.844 61.375 271.073 107.406 271.073 107.406 301.761 61.375 301.761 61.375 311.99 107.406 311.99 107.406 342.677 61.375 342.677 61.375 352.906 107.406 352.906 107.406 358.021C107.423 372.138 118.862 383.577 132.979 383.594L138.094 383.594 138.094 429.625 148.323 429.625 148.323 383.594 179.01 383.594 179.01 429.625 189.24 429.625 189.24 383.594 219.927 383.594 219.927 429.625 230.156 429.625 230.156 383.594 260.844 383.594 260.844 429.625 271.073 429.625 271.073 383.594 301.761 383.594 301.761 429.625 311.99 429.625 311.99 383.594 342.677 383.594 342.677 429.625 352.906 429.625 352.906 383.594 358.021 383.594C372.138 383.577 383.577 372.138 383.594 358.021L383.594 352.906 429.625 352.906 429.625 342.677 383.594 342.677 383.594 311.99 429.625 311.99 429.625 301.761 383.594 301.761 383.594 271.073 429.625 271.073 429.625 260.844 383.594 260.844 383.594 230.156 429.625 230.156 429.625 219.927 383.594 219.927 383.594 189.24 429.625 189.24 429.625 179.01 383.594 179.01 383.594 148.323ZM373.365 358.021C373.365 366.495 366.495 373.365 358.021 373.365L132.979 373.365C124.505 373.365 117.635 366.495 117.635 358.021L117.635 132.979C117.635 124.505 124.505 117.635 132.979 117.635L358.021 117.635C366.495 117.635 373.365 124.505 373.365 132.979Z" transform="matrix(1.00204 0 0 1 730 757)"/></g></g></g><path d="M2.02576e-05-10.3125 132.156-10.3122 132.156 10.3128-2.02576e-05 10.3125ZM121.844-30.9373 183.719 0.000360892 121.844 30.9377Z" fill="#57DB5A" transform="matrix(-1 0 0 1 781.219 1003.5)"/><g><g><g><path d="M1615.72 1538.03 1638.06 1560.37 1660.41 1538.03 1682.75 1560.37 1710.25 1526 1682.75 1491.62 1543.53 1491.62C1531.16 1468.94 1507.44 1453.81 1479.94 1453.81 1440.06 1453.81 1407.75 1486.12 1407.75 1526 1407.75 1565.87 1440.06 1598.19 1479.94 1598.19 1507.44 1598.19 1531.16 1583.06 1543.53 1560.37L1565.87 1560.37 1579.62 1546.62 1593.37 1560.37 1615.72 1538.03ZM1449 1546.62C1437.66 1546.62 1428.37 1537.34 1428.37 1526 1428.37 1514.66 1437.66 1505.37 1449 1505.37 1460.34 1505.37 1469.62 1514.66 1469.62 1526 1469.62 1537.34 1460.34 1546.62 1449 1546.62Z"/></g></g></g><rect x="1460.5" y="1783.5" width="198" height="198" stroke="#172C51" stroke-width="4.58333" stroke-miterlimit="8" fill="#329FD6"/><g><g><g><path d="M1471.84 1970.16 1647.16 1970.16 1647.16 1794.84 1471.84 1794.84ZM1482.16 1805.16 1636.84 1805.16 1636.84 1959.84 1482.16 1959.84Z"/><path d="M1745.13 1784.53 1745.13 1774.22 1698.72 1774.22 1698.72 1769.06C1698.7 1754.83 1687.17 1743.3 1672.94 1743.28L1667.78 1743.28 1667.78 1696.87 1657.47 1696.87 1657.47 1743.28 1626.53 1743.28 1626.53 1696.87 1616.22 1696.87 1616.22 1743.28 1585.28 1743.28 1585.28 1696.87 1574.97 1696.87 1574.97 1743.28 1544.03 1743.28 1544.03 1696.87 1533.72 1696.87 1533.72 1743.28 1502.78 1743.28 1502.78 1696.87 1492.47 1696.87 1492.47 1743.28 1461.53 1743.28 1461.53 1696.87 1451.22 1696.87 1451.22 1743.28 1446.06 1743.28C1431.83 1743.3 1420.3 1754.83 1420.28 1769.06L1420.28 1774.22 1373.88 1774.22 1373.88 1784.53 1420.28 1784.53 1420.28 1815.47 1373.88 1815.47 1373.88 1825.78 1420.28 1825.78 1420.28 1856.72 1373.88 1856.72 1373.88 1867.03 1420.28 1867.03 1420.28 1897.97 1373.88 1897.97 1373.88 1908.28 1420.28 1908.28 1420.28 1939.22 1373.88 1939.22 1373.88 1949.53 1420.28 1949.53 1420.28 1980.47 1373.88 1980.47 1373.88 1990.78 1420.28 1990.78 1420.28 1995.94C1420.3 2010.17 1431.83 2021.7 1446.06 2021.72L1451.22 2021.72 1451.22 2068.12 1461.53 2068.12 1461.53 2021.72 1492.47 2021.72 1492.47 2068.12 1502.78 2068.12 1502.78 2021.72 1533.72 2021.72 1533.72 2068.12 1544.03 2068.12 1544.03 2021.72 1574.97 2021.72 1574.97 2068.12 1585.28 2068.12 1585.28 2021.72 1616.22 2021.72 1616.22 2068.12 1626.53 2068.12 1626.53 2021.72 1657.47 2021.72 1657.47 2068.12 1667.78 2068.12 1667.78 2021.72 1672.94 2021.72C1687.17 2021.7 1698.7 2010.17 1698.72 1995.94L1698.72 1990.78 1745.13 1990.78 1745.13 1980.47 1698.72 1980.47 1698.72 1949.53 1745.13 1949.53 1745.13 1939.22 1698.72 1939.22 1698.72 1908.28 1745.13 1908.28 1745.13 1897.97 1698.72 1897.97 1698.72 1867.03 1745.13 1867.03 1745.13 1856.72 1698.72 1856.72 1698.72 1825.78 1745.13 1825.78 1745.13 1815.47 1698.72 1815.47 1698.72 1784.53ZM1688.41 1995.94C1688.41 2004.48 1681.48 2011.41 1672.94 2011.41L1446.06 2011.41C1437.52 2011.41 1430.59 2004.48 1430.59 1995.94L1430.59 1769.06C1430.59 1760.52 1437.52 1753.59 1446.06 1753.59L1672.94 1753.59C1681.48 1753.59 1688.41 1760.52 1688.41 1769.06Z"/></g></g></g><g><g><g><path d="M1604.19 1928.91 1583.56 1928.91 1583.56 1913.44 1604.19 1913.44 1604.19 1928.91ZM1569.81 1928.91 1549.19 1928.91 1549.19 1913.44 1569.81 1913.44 1569.81 1928.91ZM1535.44 1928.91 1514.81 1928.91 1514.81 1913.44 1535.44 1913.44 1535.44 1928.91ZM1571.53 1894.53 1571.53 1870.47 1525.13 1894.53 1519.97 1824.06 1506.22 1824.06 1501.06 1894.53 1501.06 1940.94 1617.94 1940.94 1617.94 1894.53 1617.94 1870.47 1571.53 1894.53Z" fill="#FAD85C"/></g></g></g><path d="M6.875-2.0409e-05 6.87526 87.1959-6.87474 87.196-6.875 2.0409e-05ZM20.6252 80.3209 0.000360892 121.571-20.6248 80.321Z" fill="#B22DDB" transform="matrix(1 0 0 -1 1559 1695.57)"/><path d="M0-6.875 13.75-6.875 13.75 6.875 0 6.875ZM27.5-6.875 41.25-6.875 41.25 6.875 27.5 6.875ZM55-6.875 68.75-6.875 68.75 6.875 55 6.875ZM82.5-6.875 96.25-6.875 96.25 6.875 82.5 6.875ZM110-6.875 123.75-6.875 123.75 6.875 110 6.875ZM137.5-6.875 151.25-6.875 151.25 6.875 137.5 6.875ZM165-6.875 178.75-6.875 178.75 6.875 165 6.875ZM192.5-6.875 206.25-6.875 206.25 6.875 192.5 6.875ZM220-6.875 233.75-6.875 233.75 6.875 220 6.875ZM247.5-6.875 261.25-6.875 261.25 6.875 247.5 6.875ZM275-6.875 288.75-6.875 288.75 6.875 275 6.875ZM302.5-6.875 316.25-6.875 316.25 6.875 302.5 6.875ZM330-6.875 343.75-6.875 343.75 6.875 330 6.875ZM357.5-6.875 371.25-6.875 371.25 6.875 357.5 6.875ZM385-6.875 398.75-6.875 398.75 6.875 385 6.875ZM412.5-6.875 426.25-6.875 426.25 6.875 412.5 6.875ZM440-6.875 453.75-6.875 453.75 6.875 440 6.875ZM467.5-6.875 481.25-6.875 481.25 6.875 467.5 6.875ZM495-6.875 508.75-6.875 508.75 6.875 495 6.875ZM522.5-6.875 536.25-6.875 536.25 6.875 522.5 6.875ZM551.94 4.92903 551.979 18.679 538.229 18.7176 538.191 4.96769ZM552.018 32.4289 552.056 46.1789 538.307 46.2175 538.268 32.4676ZM552.095 59.9288 552.134 73.6787 538.384 73.7174 538.345 59.9675ZM552.172 87.4287 552.211 101.179 538.461 101.217 538.423 87.4674ZM565.654 106.305 546.977 148.473 524.449 108.23Z" fill="#B22DDB" transform="matrix(1 0 0 -1 1559 1352.47)"/><path d="M0 0 0.000360892 117.675" stroke="#B22DDB" stroke-width="13.75" stroke-miterlimit="8" stroke-dasharray="13.75 13.75" fill="none" fill-rule="evenodd" transform="matrix(1 0 0 -1 1559 1470.68)"/><path d="M1558.22 1359.29 1544.47 1359.29 1544.47 1345.54 1558.22 1345.54ZM1530.72 1359.29 1516.97 1359.29 1516.97 1345.54 1530.72 1345.54ZM1503.22 1359.29 1489.47 1359.29 1489.47 1345.54 1503.22 1345.54ZM1475.72 1359.29 1461.97 1359.29 1461.97 1345.54 1475.72 1345.54ZM1448.22 1359.29 1434.47 1359.29 1434.47 1345.54 1448.22 1345.54ZM1420.72 1359.29 1406.97 1359.29 1406.97 1345.54 1420.72 1345.54ZM1393.22 1359.29 1379.47 1359.29 1379.47 1345.54 1393.22 1345.54ZM1365.72 1359.29 1351.97 1359.29 1351.97 1345.54 1365.72 1345.54ZM1338.22 1359.29 1324.47 1359.29 1324.47 1345.54 1338.22 1345.54ZM1310.72 1359.29 1296.97 1359.29 1296.97 1345.54 1310.72 1345.54ZM1283.22 1359.29 1269.47 1359.29 1269.47 1345.54 1283.22 1345.54ZM1255.72 1359.29 1241.97 1359.29 1241.97 1345.54 1255.72 1345.54ZM1228.22 1359.29 1214.47 1359.29 1214.47 1345.54 1228.22 1345.54ZM1200.72 1359.29 1186.97 1359.29 1186.97 1345.54 1200.72 1345.54ZM1173.22 1359.29 1159.47 1359.29 1159.47 1345.54 1173.22 1345.54ZM1145.72 1359.29 1131.97 1359.29 1131.97 1345.54 1145.72 1345.54ZM1118.22 1359.29 1104.47 1359.29 1104.47 1345.54 1118.22 1345.54ZM1090.72 1359.29 1076.97 1359.29 1076.97 1345.54 1090.72 1345.54ZM1063.22 1359.29 1049.47 1359.29 1049.47 1345.54 1063.22 1345.54ZM1035.72 1359.29 1021.97 1359.29 1021.97 1345.54 1035.72 1345.54ZM1008.22 1359.29 994.472 1359.29 994.472 1345.54 1008.22 1345.54ZM980.722 1359.29 969.772 1359.29 969.756 1342.76 983.506 1342.74 983.515 1352.41 976.64 1345.54 980.722 1345.54ZM969.743 1329.01 969.73 1315.26 983.48 1315.24 983.493 1328.99ZM969.717 1301.51 969.704 1287.76 983.454 1287.74 983.467 1301.49ZM969.691 1274.01 969.678 1260.26 983.428 1260.24 983.441 1273.99ZM969.665 1246.51 969.659 1239.38 983.409 1239.36 983.415 1246.49ZM956.018 1246.57 976 1205 997.263 1245.92Z" fill="#B22DDB"/><rect x="2367" y="1204" width="276" height="111" fill="#FFD966"/><text font-family="Calibri,Calibri_MSFontService,sans-serif" font-weight="400" font-size="64" transform="matrix(1 0 0 1 2404.36 1281)">Sensors</text><rect x="1359" y="1189" width="384" height="111" fill="#FFD966"/><text font-family="Calibri,Calibri_MSFontService,sans-serif" font-weight="400" font-size="64" transform="matrix(1 0 0 1 1430.46 1265)">Key Read</text><path d="M525 1558.13 652.246 1558.12 652.246 1571.88 525 1571.88ZM645.371 1544.38 686.621 1565 645.371 1585.62Z" fill="#C00000"/><rect x="257" y="1520" width="185" height="90.0001" stroke="#C00000" stroke-width="10.3125" stroke-miterlimit="8" fill="none"/><text font-family="Calibri,Calibri_MSFontService,sans-serif" font-weight="400" font-size="110" transform="matrix(1 0 0 1 717.678 1592)">Ciphertext</text><path d="M525 1745.13 652.246 1745.12 652.246 1758.88 525 1758.88ZM645.371 1731.38 686.621 1752 645.371 1772.62Z" fill="#57DB5A"/><rect x="257" y="1707" width="185" height="91.0001" stroke="#57DB5A" stroke-width="10.3125" stroke-miterlimit="8" fill="none"/><text font-family="Calibri,Calibri_MSFontService,sans-serif" font-weight="400" font-size="110" transform="matrix(1 0 0 1 717.678 1780)">Plaintext</text><path d="M525 1928.13 652.246 1928.12 652.246 1941.87 525 1941.88ZM645.371 1914.37 686.621 1935 645.371 1955.62Z" fill="#B22DDB"/><rect x="257" y="1890" width="185" height="90.0001" stroke="#B22DDB" stroke-width="10.3125" stroke-miterlimit="8" fill="none"/><text font-family="Calibri,Calibri_MSFontService,sans-serif" font-weight="400" font-size="110" transform="matrix(1 0 0 1 717.678 1962)">Key Signal</text><rect x="302" y="1204" width="328" height="111" fill="#FFD966"/><text font-family="Calibri,Calibri_MSFontService,sans-serif" font-weight="400" font-size="64" transform="matrix(1 0 0 1 338.865 1281)">Actuators</text><rect x="747" y="668" width="455" height="111" fill="#FFD966"/><text font-family="Calibri,Calibri_MSFontService,sans-serif" font-weight="400" font-size="64" transform="matrix(1 0 0 1 779.963 744)">Decrypt Circuit</text><rect x="1895" y="669" width="451" height="112" fill="#FFD966"/><text font-family="Calibri,Calibri_MSFontService,sans-serif" font-weight="400" font-size="64" transform="matrix(1 0 0 1 1929.13 746)">Encrypt Circuit</text><rect x="1787" y="1816" width="458" height="111" fill="#FFD966"/><text font-family="Calibri,Calibri_MSFontService,sans-serif" font-weight="400" font-size="64" transform="matrix(1 0 0 1 1823.68 1892)">KeyGen Circuit</text><rect x="1736" y="1471" width="370" height="111" fill="#FFD966"/><text font-family="Calibri,Calibri_MSFontService,sans-serif" font-weight="400" font-size="64" transform="matrix(1 0 0 1 1785.25 1548)">Active Key</text><rect x="1285" y="260" width="532" height="111" fill="#FFD966"/><text font-family="Calibri,Calibri_MSFontService,sans-serif" font-weight="400" font-size="64" transform="matrix(1 0 0 1 1336.21 337)">Cloud Controller</text><text font-family="Calibri,Calibri_MSFontService,sans-serif" font-weight="400" font-size="147" text-decoration="underline" transform="matrix(1 0 0 1 162.875 708)">Plant</text><path d="M1298.72 440.282C1307.81 440.777 1334.33 441 1334.33 441L1820.16 441C1879.95 440.764 1928.24 392.146 1928 332.409 1927.77 273.357 1880.16 225.406 1821.06 224.682L1812.07 224.682C1811.98 181.162 1790.9 140.354 1755.43 115.082 1719.5 89.9668 1673.68 83.619 1632.26 98.0182 1591.6 18.5864 1494.17-12.8721 1414.66 27.7542 1360.86 55.2448 1326.89 110.411 1326.59 170.782L1326.59 172.578C1319.54 171.425 1312.4 170.845 1305.26 170.842 1230.64 170.756 1170.09 231.111 1170 305.649 1169.98 325.479 1174.33 345.069 1182.74 363.027 1204.58 407.827 1248.92 437.365 1298.72 440.282ZM1211.5 235.482C1233.93 206.379 1268.49 189.17 1305.25 188.802 1311.42 188.807 1317.59 189.309 1323.68 190.301L1344.56 193.714 1344.56 170.778C1345.05 91.4685 1409.81 27.5718 1489.19 28.0596 1542.83 28.389 1591.82 58.5227 1616.26 106.219L1623.4 120.111 1638.17 114.98C1698.83 93.3142 1765.59 124.877 1787.28 185.479 1791.78 198.06 1794.08 211.321 1794.09 224.682L1794.09 242.644 1821.06 242.644C1870.92 243.377 1910.74 284.351 1910.01 334.163 1909.29 383.291 1869.34 422.805 1820.16 423.039L1315.72 423.039 1299.69 422.346C1235.25 419.57 1185.25 365.127 1188.03 300.743 1189.05 277.117 1197.23 254.358 1211.49 235.482Z" fill-rule="evenodd"/></g></svg>