<svg width="2784" height="2339" xmlns="http://www.w3.org/2000/svg" xmlns:xlink="http://www.w3.org/1999/xlink" xml:space="preserve" overflow="hidden"><g transform="translate(-131 -31)"><path d="M133.5 955.897C133.5 876.149 198.148 811.5 277.896 811.5L2744.1 811.5C2823.85 811.5 2888.5 876.149 2888.5 955.897L2888.5 2223.1C2888.5 2302.85 2823.85 2367.5 2744.1 2367.5L277.896 2367.5C198.148 2367.5 133.5 2302.85 133.5 2223.1Z" stroke="#FFC000" stroke-width="4.58333" stroke-miterlimit="8" fill="#FBE5D6" fill-rule="evenodd" fill-opacity="0.521569"/><g><g><g><path d="M179.804 646.531C188.894 647.026 215.413 647.25 215.413 647.25L701.226 647.25C761.02 647.013 809.301 598.348 809.064 538.554 808.83 479.445 761.231 431.448 702.125 430.723L693.135 430.723C693.052 387.161 671.965 346.315 636.501 321.018 600.571 295.879 554.753 289.525 513.337 303.938 472.672 224.429 375.251 192.941 295.743 233.606 241.942 261.123 207.975 316.342 207.676 376.771L207.676 378.569C200.623 377.415 193.489 376.834 186.342 376.832 111.732 376.745 51.1777 437.159 51.0909 511.769 51.0679 531.617 55.4185 551.226 63.8332 569.201 85.6716 614.044 130.012 643.611 179.804 646.531ZM92.5846 441.534C115.014 412.402 149.573 395.177 186.337 394.809 192.51 394.814 198.672 395.316 204.766 396.309L225.649 399.725 225.649 376.768C226.137 297.382 290.888 233.423 370.275 233.912 423.908 234.242 472.897 264.404 497.34 312.146L504.479 326.052 519.242 320.916C579.903 299.229 646.658 330.822 668.347 391.483 672.849 404.075 675.152 417.349 675.155 430.723L675.155 448.702 702.124 448.702C751.984 449.436 791.81 490.45 791.076 540.31 790.352 589.486 750.406 629.037 701.226 629.271L196.802 629.271 180.78 628.578C116.335 625.799 66.3443 571.303 69.1229 506.858 70.1425 483.209 78.3235 460.428 92.5819 441.534Z" transform="matrix(1 0 0 1 1181 30.9999)"/></g></g></g><path d="M0 0 5.35396 0 5.35396 230.496 564.146 230.496" stroke="#C00000" stroke-width="20.625" stroke-miterlimit="8" fill="none" fill-rule="evenodd" transform="matrix(-1.83697e-16 -1 -1 1.83697e-16 1957 1242.65)"/><path d="M1504.91 672.5 1504.91 1246.02 1302.06 1245.92 1302.07 1225.29 1494.6 1225.39 1484.29 1235.7 1484.29 672.5ZM1312.1 1266.64 1250.5 1235.15 1312.65 1204.76Z" fill="#C00000"/><g><g><g><path d="M2781.45 1058.12 2781.45 1233.44 2694.83 1146.81 2781.45 1058.12ZM2590.67 1042.66 2767.53 1042.66 2680.39 1132.89 2590.67 1042.66ZM2585.52 1322.12 2566.95 1303.56 2585.52 1263.34 2604.08 1303.56 2585.52 1322.12ZM2599.95 1337.08 2613.36 1323.67 2637.08 1374.2 2599.95 1337.08ZM2533.95 1373.69 2557.67 1323.16 2571.08 1336.56 2533.95 1373.69ZM2585.52 1351 2617.48 1382.97 2553.55 1382.97 2585.52 1351ZM2828.38 1280.88 2802.08 1254.06 2802.08 1052.97 2807.23 1047.81C2816 1039.05 2816 1025.64 2807.23 1016.87 2798.47 1008.11 2785.06 1008.11 2776.3 1016.87L2771.14 1022.03 2570.05 1022.03 2548.91 1001.41C2532.92 1030.28 2523.64 1064.31 2523.64 1099.89 2523.64 1152.48 2543.23 1199.92 2575.2 1236.53L2507.66 1381.94C2505.59 1386.58 2505.59 1392.25 2508.69 1396.89 2511.78 1401.53 2516.42 1404.11 2521.58 1404.11L2649.97 1404.11C2655.12 1404.11 2660.28 1401.53 2662.86 1396.89 2665.44 1392.25 2665.95 1387.09 2663.89 1381.94L2610.27 1267.47C2644.3 1291.19 2685.55 1305.62 2729.89 1305.62 2765.47 1306.14 2798.98 1296.34 2828.38 1280.88Z"/></g></g></g><rect x="2068.5" y="1140.5" width="198" height="198" stroke="#172C51" stroke-width="4.58333" stroke-miterlimit="8" fill="#329FD6"/><g><g><g><path d="M86.4584 119.658 86.4584 128.823 79.5417 128.823 79.5417 119.658C75.5646 118.275 72.625 114.471 72.625 109.802 72.625 104.096 77.2938 99.4271 83 99.4271 88.7063 99.4271 93.375 104.096 93.375 109.802 93.375 114.298 90.4354 118.102 86.4584 119.658ZM57.0625 56.1979C57.0625 41.8458 68.6479 30.2604 83 30.2604 97.3521 30.2604 108.938 41.8458 108.938 56.1979L108.938 75.3917 83 73.4896 57.0625 75.3917 57.0625 56.1979ZM119.313 76.0833 119.313 56.1979C119.313 36.1396 103.058 19.8854 83 19.8854 62.9417 19.8854 46.6875 36.1396 46.6875 56.1979L46.6875 76.0833 34.5833 76.9479 34.5833 142.656 83 146.115 131.417 142.656 131.417 76.9479 119.313 76.0833Z" fill="#FAD85C" transform="matrix(1.10241 0 0 1 2076 1154)"/></g></g></g><g><g><g><path d="M158.552 332.448 332.448 332.448 332.448 158.552 158.552 158.552ZM168.781 168.781 322.219 168.781 322.219 322.219 168.781 322.219Z" transform="matrix(1.00204 0 0 1 1921 994)"/><path d="M429.625 148.323 429.625 138.094 383.594 138.094 383.594 132.979C383.577 118.862 372.138 107.423 358.021 107.406L352.906 107.406 352.906 61.375 342.677 61.375 342.677 107.406 311.99 107.406 311.99 61.375 301.76 61.375 301.76 107.406 271.073 107.406 271.073 61.375 260.844 61.375 260.844 107.406 230.156 107.406 230.156 61.375 219.927 61.375 219.927 107.406 189.24 107.406 189.24 61.375 179.01 61.375 179.01 107.406 148.323 107.406 148.323 61.375 138.094 61.375 138.094 107.406 132.979 107.406C118.862 107.423 107.423 118.862 107.406 132.979L107.406 138.094 61.375 138.094 61.375 148.323 107.406 148.323 107.406 179.01 61.375 179.01 61.375 189.24 107.406 189.24 107.406 219.927 61.375 219.927 61.375 230.156 107.406 230.156 107.406 260.844 61.375 260.844 61.375 271.073 107.406 271.073 107.406 301.76 61.375 301.76 61.375 311.99 107.406 311.99 107.406 342.677 61.375 342.677 61.375 352.906 107.406 352.906 107.406 358.021C107.423 372.138 118.862 383.577 132.979 383.594L138.094 383.594 138.094 429.625 148.323 429.625 148.323 383.594 179.01 383.594 179.01 429.625 189.24 429.625 189.24 383.594 219.927 383.594 219.927 429.625 230.156 429.625 230.156 383.594 260.844 383.594 260.844 429.625 271.073 429.625 271.073 383.594 301.76 383.594 301.76 429.625 311.99 429.625 311.99 383.594 342.677 383.594 342.677 429.625 352.906 429.625 352.906 383.594 358.021 383.594C372.138 383.577 383.577 372.138 383.594 358.021L383.594 352.906 429.625 352.906 429.625 342.677 383.594 342.677 383.594 311.99 429.625 311.99 429.625 301.76 383.594 301.76 383.594 271.073 429.625 271.073 429.625 260.844 383.594 260.844 383.594 230.156 429.625 230.156 429.625 219.927 383.594 219.927 383.594 189.24 429.625 189.24 429.625 179.01 383.594 179.01 383.594 148.323ZM373.365 358.021C373.365 366.495 366.495 373.365 358.021 373.365L132.979 373.365C124.505 373.365 117.635 366.495 117.635 358.021L117.635 132.979C117.635 124.505 124.505 117.635 132.979 117.635L358.021 117.635C366.495 117.635 373.365 124.505 373.365 132.979Z" transform="matrix(1.00204 0 0 1 1921 994)"/></g></g></g><path d="M2.16796e-05-10.3125 120.106-10.3122 120.106 10.3128-2.16796e-05 10.3125ZM109.794-30.9373 171.669 0.000360892 109.794 30.9377Z" fill="#57DB5A" transform="matrix(-1 0 0 1 2527.17 1237.5)"/><g><g><g><path d="M502.084 203.621C501.744 198.689 498.155 194.589 493.311 193.6L435.155 181.725C431.538 180.976 427.787 182.104 425.183 184.723L413.435 196.465 335.335 118.366C334.392 134.368 325.754 148.922 312.158 157.415L382.322 227.579 370.975 238.931C368.398 241.509 367.265 245.196 367.95 248.776L379.198 307.538C380.139 312.451 384.277 316.109 389.268 316.443L447.601 320.331C447.849 320.331 448.096 320.359 448.344 320.359 454.419 320.558 459.505 315.794 459.704 309.719 459.903 303.643 455.139 298.558 449.064 298.359L399.201 295.059 390.648 250.371 436.557 204.462 480.7 213.455 484.033 263.417C484.437 269.483 489.682 274.073 495.748 273.669 501.814 273.265 506.404 268.02 506 261.954Z" transform="matrix(-1 0 0 1 692 957)"/><path d="M236.176 280.176C236.18 262.496 231.124 245.184 221.606 230.285L182.798 276.65C162.717 300.721 126.924 303.956 102.853 283.874 78.782 263.793 75.5474 228 95.6285 203.93 97.8137 201.31 100.231 198.893 102.85 196.707L104.28 195.508C71.1222 210.64 49.8432 243.728 49.83 280.176L49.83 385 236.176 385Z" transform="matrix(-1 0 0 1 692 957)"/><path d="M236.5 115.5C236.5 112.152 236.839 108.813 237.512 105.534L113.426 209.357C96.3831 223.638 94.1435 249.03 108.424 266.073 122.703 283.117 148.096 285.357 165.14 271.076 166.951 269.559 168.625 267.885 170.143 266.073L260.634 157.927C245.691 149.01 236.528 132.901 236.5 115.5ZM153.577 241.483C149.282 245.78 142.316 245.781 138.02 241.485 133.724 237.19 133.723 230.226 138.018 225.929 142.313 221.632 149.278 221.631 153.574 225.927 153.575 225.927 153.576 225.928 153.577 225.929 157.871 230.225 157.871 237.188 153.577 241.483Z" transform="matrix(-1 0 0 1 692 957)"/><path d="M236.5 407 49.5 407C37.3497 407 27.5 416.85 27.5 429L27.5 451 258.5 451 258.5 429C258.5 416.85 248.65 407 236.5 407Z" transform="matrix(-1 0 0 1 692 957)"/><path d="M286 82.5C267.775 82.5 253 97.2747 253 115.5 253 133.725 267.775 148.5 286 148.5 304.225 148.5 319 133.725 319 115.5 319 97.2747 304.225 82.5 286 82.5ZM286 123.75C281.444 123.75 277.75 120.056 277.75 115.5 277.75 110.944 281.444 107.25 286 107.25 290.556 107.25 294.25 110.944 294.25 115.5 294.25 120.056 290.556 123.75 286 123.75Z" transform="matrix(-1 0 0 1 692 957)"/></g></g></g><rect x="939.5" y="1140.5" width="198" height="198" stroke="#172C51" stroke-width="4.58333" stroke-miterlimit="8" fill="#329FD6"/><g><g><g><path d="M83.5 80.0209 57.4063 81.9344 57.4063 50.4479C57.4063 36.0094 69.0615 24.3542 83.5 24.3542 97.9386 24.3542 109.594 36.0094 109.594 50.4479L109.594 60.8854 120.031 60.8854 120.031 50.4479C120.031 30.2688 103.679 13.9167 83.5 13.9167 63.3209 13.9167 46.9688 30.2688 46.9688 50.4479L46.9688 82.6302 34.7917 83.5 34.7917 149.604 83.5 153.083 132.208 149.604 132.208 83.5 83.5 80.0209ZM86.9792 126.468 86.9792 135.688 80.0209 135.688 80.0209 126.468C76.0198 125.076 73.0625 121.249 73.0625 116.552 73.0625 110.812 77.7594 106.115 83.5 106.115 89.2407 106.115 93.9375 110.812 93.9375 116.552 93.9375 121.075 90.9802 124.902 86.9792 126.468Z" stroke="#FFC000" stroke-width="1.73958" fill="#FAD85C" transform="matrix(1.1018 0 0 1 946 1156)"/></g></g></g><g><g><g><path d="M158.552 332.448 332.448 332.448 332.448 158.552 158.552 158.552ZM168.781 168.781 322.219 168.781 322.219 322.219 168.781 322.219Z" transform="matrix(1.00204 0 0 1 792 994)"/><path d="M429.625 148.323 429.625 138.094 383.594 138.094 383.594 132.979C383.577 118.862 372.138 107.423 358.021 107.406L352.906 107.406 352.906 61.375 342.677 61.375 342.677 107.406 311.99 107.406 311.99 61.375 301.76 61.375 301.76 107.406 271.073 107.406 271.073 61.375 260.844 61.375 260.844 107.406 230.156 107.406 230.156 61.375 219.927 61.375 219.927 107.406 189.24 107.406 189.24 61.375 179.01 61.375 179.01 107.406 148.323 107.406 148.323 61.375 138.094 61.375 138.094 107.406 132.979 107.406C118.862 107.423 107.423 118.862 107.406 132.979L107.406 138.094 61.375 138.094 61.375 148.323 107.406 148.323 107.406 179.01 61.375 179.01 61.375 189.24 107.406 189.24 107.406 219.927 61.375 219.927 61.375 230.156 107.406 230.156 107.406 260.844 61.375 260.844 61.375 271.073 107.406 271.073 107.406 301.76 61.375 301.76 61.375 311.99 107.406 311.99 107.406 342.677 61.375 342.677 61.375 352.906 107.406 352.906 107.406 358.021C107.423 372.138 118.862 383.577 132.979 383.594L138.094 383.594 138.094 429.625 148.323 429.625 148.323 383.594 179.01 383.594 179.01 429.625 189.24 429.625 189.24 383.594 219.927 383.594 219.927 429.625 230.156 429.625 230.156 383.594 260.844 383.594 260.844 429.625 271.073 429.625 271.073 383.594 301.76 383.594 301.76 429.625 311.99 429.625 311.99 383.594 342.677 383.594 342.677 429.625 352.906 429.625 352.906 383.594 358.021 383.594C372.138 383.577 383.577 372.138 383.594 358.021L383.594 352.906 429.625 352.906 429.625 342.677 383.594 342.677 383.594 311.99 429.625 311.99 429.625 301.76 383.594 301.76 383.594 271.073 429.625 271.073 429.625 260.844 383.594 260.844 383.594 230.156 429.625 230.156 429.625 219.927 383.594 219.927 383.594 189.24 429.625 189.24 429.625 179.01 383.594 179.01 383.594 148.323ZM373.365 358.021C373.365 366.495 366.495 373.365 358.021 373.365L132.979 373.365C124.505 373.365 117.635 366.495 117.635 358.021L117.635 132.979C117.635 124.505 124.505 117.635 132.979 117.635L358.021 117.635C366.495 117.635 373.365 124.505 373.365 132.979Z" transform="matrix(1.00204 0 0 1 792 994)"/></g></g></g><path d="M2.02576e-05-10.3125 132.156-10.3122 132.156 10.3128-2.02576e-05 10.3125ZM121.844-30.9373 183.719 0.000360892 121.844 30.9377Z" fill="#57DB5A" transform="matrix(-1 0 0 1 843.219 1240.5)"/><g><g><g><path d="M1676.72 1775.03 1699.06 1797.38 1721.41 1775.03 1743.75 1797.38 1771.25 1763 1743.75 1728.63 1604.53 1728.63C1592.16 1705.94 1568.44 1690.81 1540.94 1690.81 1501.06 1690.81 1468.75 1723.13 1468.75 1763 1468.75 1802.88 1501.06 1835.19 1540.94 1835.19 1568.44 1835.19 1592.16 1820.06 1604.53 1797.38L1626.88 1797.38 1640.63 1783.63 1654.38 1797.38 1676.72 1775.03ZM1510 1783.63C1498.66 1783.63 1489.38 1774.34 1489.38 1763 1489.38 1751.66 1498.66 1742.38 1510 1742.38 1521.34 1742.38 1530.63 1751.66 1530.63 1763 1530.63 1774.34 1521.34 1783.63 1510 1783.63Z"/></g></g></g><rect x="1522.5" y="2020.5" width="198" height="198" stroke="#172C51" stroke-width="4.58333" stroke-miterlimit="8" fill="#329FD6"/><g><g><g><path d="M1533.84 2207.16 1709.16 2207.16 1709.16 2031.84 1533.84 2031.84ZM1544.16 2042.16 1698.84 2042.16 1698.84 2196.84 1544.16 2196.84Z"/><path d="M1807.12 2021.53 1807.12 2011.22 1760.72 2011.22 1760.72 2006.06C1760.7 1991.83 1749.17 1980.3 1734.94 1980.28L1729.78 1980.28 1729.78 1933.88 1719.47 1933.88 1719.47 1980.28 1688.53 1980.28 1688.53 1933.88 1678.22 1933.88 1678.22 1980.28 1647.28 1980.28 1647.28 1933.88 1636.97 1933.88 1636.97 1980.28 1606.03 1980.28 1606.03 1933.88 1595.72 1933.88 1595.72 1980.28 1564.78 1980.28 1564.78 1933.88 1554.47 1933.88 1554.47 1980.28 1523.53 1980.28 1523.53 1933.88 1513.22 1933.88 1513.22 1980.28 1508.06 1980.28C1493.83 1980.3 1482.3 1991.83 1482.28 2006.06L1482.28 2011.22 1435.88 2011.22 1435.88 2021.53 1482.28 2021.53 1482.28 2052.47 1435.88 2052.47 1435.88 2062.78 1482.28 2062.78 1482.28 2093.72 1435.88 2093.72 1435.88 2104.03 1482.28 2104.03 1482.28 2134.97 1435.88 2134.97 1435.88 2145.28 1482.28 2145.28 1482.28 2176.22 1435.88 2176.22 1435.88 2186.53 1482.28 2186.53 1482.28 2217.47 1435.88 2217.47 1435.88 2227.78 1482.28 2227.78 1482.28 2232.94C1482.3 2247.17 1493.83 2258.7 1508.06 2258.72L1513.22 2258.72 1513.22 2305.12 1523.53 2305.12 1523.53 2258.72 1554.47 2258.72 1554.47 2305.12 1564.78 2305.12 1564.78 2258.72 1595.72 2258.72 1595.72 2305.12 1606.03 2305.12 1606.03 2258.72 1636.97 2258.72 1636.97 2305.12 1647.28 2305.12 1647.28 2258.72 1678.22 2258.72 1678.22 2305.12 1688.53 2305.12 1688.53 2258.72 1719.47 2258.72 1719.47 2305.12 1729.78 2305.12 1729.78 2258.72 1734.94 2258.72C1749.17 2258.7 1760.7 2247.17 1760.72 2232.94L1760.72 2227.78 1807.12 2227.78 1807.12 2217.47 1760.72 2217.47 1760.72 2186.53 1807.12 2186.53 1807.12 2176.22 1760.72 2176.22 1760.72 2145.28 1807.12 2145.28 1807.12 2134.97 1760.72 2134.97 1760.72 2104.03 1807.12 2104.03 1807.12 2093.72 1760.72 2093.72 1760.72 2062.78 1807.12 2062.78 1807.12 2052.47 1760.72 2052.47 1760.72 2021.53ZM1750.41 2232.94C1750.41 2241.48 1743.48 2248.41 1734.94 2248.41L1508.06 2248.41C1499.52 2248.41 1492.59 2241.48 1492.59 2232.94L1492.59 2006.06C1492.59 1997.52 1499.52 1990.59 1508.06 1990.59L1734.94 1990.59C1743.48 1990.59 1750.41 1997.52 1750.41 2006.06Z"/></g></g></g><g><g><g><path d="M1666.19 2165.91 1645.56 2165.91 1645.56 2150.44 1666.19 2150.44 1666.19 2165.91ZM1631.81 2165.91 1611.19 2165.91 1611.19 2150.44 1631.81 2150.44 1631.81 2165.91ZM1597.44 2165.91 1576.81 2165.91 1576.81 2150.44 1597.44 2150.44 1597.44 2165.91ZM1633.53 2131.53 1633.53 2107.47 1587.12 2131.53 1581.97 2061.06 1568.22 2061.06 1563.06 2131.53 1563.06 2177.94 1679.94 2177.94 1679.94 2131.53 1679.94 2107.47 1633.53 2131.53Z" fill="#FAD85C"/></g></g></g><path d="M6.875-2.0409e-05 6.87526 87.1959-6.87474 87.196-6.875 2.0409e-05ZM20.6252 80.3209 0.000360892 121.571-20.6248 80.321Z" fill="#B22DDB" transform="matrix(1 0 0 -1 1620 1932.57)"/><path d="M0-6.875 13.75-6.875 13.75 6.875 0 6.875ZM27.5-6.875 41.25-6.875 41.25 6.875 27.5 6.875ZM55-6.875 68.75-6.875 68.75 6.875 55 6.875ZM82.5-6.875 96.25-6.875 96.25 6.875 82.5 6.875ZM110-6.875 123.75-6.875 123.75 6.875 110 6.875ZM137.5-6.875 151.25-6.875 151.25 6.875 137.5 6.875ZM165-6.875 178.75-6.875 178.75 6.875 165 6.875ZM192.5-6.875 206.25-6.875 206.25 6.875 192.5 6.875ZM220-6.875 233.75-6.875 233.75 6.875 220 6.875ZM247.5-6.875 261.25-6.875 261.25 6.875 247.5 6.875ZM275-6.875 288.75-6.875 288.75 6.875 275 6.875ZM302.5-6.875 316.25-6.875 316.25 6.875 302.5 6.875ZM330-6.875 343.75-6.875 343.75 6.875 330 6.875ZM357.5-6.875 371.25-6.875 371.25 6.875 357.5 6.875ZM385-6.875 398.75-6.875 398.75 6.875 385 6.875ZM412.5-6.875 426.25-6.875 426.25 6.875 412.5 6.875ZM440-6.875 453.75-6.875 453.75 6.875 440 6.875ZM467.5-6.875 481.25-6.875 481.25 6.875 467.5 6.875ZM495-6.875 508.75-6.875 508.75 6.875 495 6.875ZM522.5-6.875 536.25-6.875 536.25 6.875 522.5 6.875ZM551.94 4.92903 551.979 18.679 538.229 18.7176 538.191 4.96769ZM552.018 32.4289 552.056 46.1789 538.307 46.2175 538.268 32.4676ZM552.095 59.9288 552.134 73.6787 538.384 73.7174 538.345 59.9675ZM552.172 87.4287 552.211 101.179 538.461 101.217 538.423 87.4674ZM565.654 106.305 546.977 148.473 524.449 108.23Z" fill="#B22DDB" transform="matrix(1 0 0 -1 1620 1589.47)"/><path d="M0 0 0.000360892 117.675" stroke="#B22DDB" stroke-width="13.75" stroke-miterlimit="8" stroke-dasharray="13.75 13.75" fill="none" fill-rule="evenodd" transform="matrix(1 0 0 -1 1620 1707.67)"/><path d="M1620.22 1596.29 1606.47 1596.29 1606.47 1582.54 1620.22 1582.54ZM1592.72 1596.29 1578.97 1596.29 1578.97 1582.54 1592.72 1582.54ZM1565.22 1596.29 1551.47 1596.29 1551.47 1582.54 1565.22 1582.54ZM1537.72 1596.29 1523.97 1596.29 1523.97 1582.54 1537.72 1582.54ZM1510.22 1596.29 1496.47 1596.29 1496.47 1582.54 1510.22 1582.54ZM1482.72 1596.29 1468.97 1596.29 1468.97 1582.54 1482.72 1582.54ZM1455.22 1596.29 1441.47 1596.29 1441.47 1582.54 1455.22 1582.54ZM1427.72 1596.29 1413.97 1596.29 1413.97 1582.54 1427.72 1582.54ZM1400.22 1596.29 1386.47 1596.29 1386.47 1582.54 1400.22 1582.54ZM1372.72 1596.29 1358.97 1596.29 1358.97 1582.54 1372.72 1582.54ZM1345.22 1596.29 1331.47 1596.29 1331.47 1582.54 1345.22 1582.54ZM1317.72 1596.29 1303.97 1596.29 1303.97 1582.54 1317.72 1582.54ZM1290.22 1596.29 1276.47 1596.29 1276.47 1582.54 1290.22 1582.54ZM1262.72 1596.29 1248.97 1596.29 1248.97 1582.54 1262.72 1582.54ZM1235.22 1596.29 1221.47 1596.29 1221.47 1582.54 1235.22 1582.54ZM1207.72 1596.29 1193.97 1596.29 1193.97 1582.54 1207.72 1582.54ZM1180.22 1596.29 1166.47 1596.29 1166.47 1582.54 1180.22 1582.54ZM1152.72 1596.29 1138.97 1596.29 1138.97 1582.54 1152.72 1582.54ZM1125.22 1596.29 1111.47 1596.29 1111.47 1582.54 1125.22 1582.54ZM1097.72 1596.29 1083.97 1596.29 1083.97 1582.54 1097.72 1582.54ZM1070.22 1596.29 1056.47 1596.29 1056.47 1582.54 1070.22 1582.54ZM1042.72 1596.29 1031.77 1596.29 1031.76 1579.76 1045.51 1579.74 1045.52 1589.41 1038.64 1582.54 1042.72 1582.54ZM1031.74 1566.01 1031.73 1552.26 1045.48 1552.24 1045.49 1565.99ZM1031.72 1538.51 1031.7 1524.76 1045.45 1524.74 1045.47 1538.49ZM1031.69 1511.01 1031.68 1497.26 1045.43 1497.24 1045.44 1510.99ZM1031.67 1483.51 1031.66 1476.38 1045.41 1476.36 1045.42 1483.49ZM1018.02 1483.57 1038 1442 1059.26 1482.92Z" fill="#B22DDB"/><rect x="2429" y="1441" width="276" height="111" fill="#FFD966"/><text font-family="Calibri,Calibri_MSFontService,sans-serif" font-weight="400" font-size="64" transform="matrix(1 0 0 1 2466.79 1518)">Sensors</text><rect x="1421" y="1426" width="383" height="111" fill="#FFD966"/><text font-family="Calibri,Calibri_MSFontService,sans-serif" font-weight="400" font-size="64" transform="matrix(1 0 0 1 1493.68 1502)">Key Read</text><path d="M587 1795.13 714.247 1795.12 714.247 1808.87 587 1808.88ZM707.372 1781.37 748.622 1802 707.372 1822.62Z" fill="#C00000"/><rect x="319" y="1757" width="184" height="90.0001" stroke="#C00000" stroke-width="10.3125" stroke-miterlimit="8" fill="none"/><text font-family="Calibri,Calibri_MSFontService,sans-serif" font-weight="400" font-size="110" transform="matrix(1 0 0 1 779.553 1829)">Ciphertext</text><path d="M587 1982.13 714.247 1982.12 714.247 1995.87 587 1995.88ZM707.372 1968.37 748.622 1989 707.372 2009.62Z" fill="#57DB5A"/><rect x="319" y="1944" width="184" height="91.0001" stroke="#57DB5A" stroke-width="10.3125" stroke-miterlimit="8" fill="none"/><text font-family="Calibri,Calibri_MSFontService,sans-serif" font-weight="400" font-size="110" transform="matrix(1 0 0 1 779.553 2017)">Plaintext</text><path d="M587 2165.13 714.247 2165.12 714.247 2178.88 587 2178.88ZM707.372 2151.38 748.622 2172 707.372 2192.62Z" fill="#B22DDB"/><rect x="319" y="2127" width="184" height="89.9998" stroke="#B22DDB" stroke-width="10.3125" stroke-miterlimit="8" fill="none"/><text font-family="Calibri,Calibri_MSFontService,sans-serif" font-weight="400" font-size="110" transform="matrix(1 0 0 1 779.553 2199)">Key Signal</text><rect x="364" y="1441" width="328" height="111" fill="#FFD966"/><text font-family="Calibri,Calibri_MSFontService,sans-serif" font-weight="400" font-size="64" transform="matrix(1 0 0 1 401.897 1518)">Actuators</text><rect x="809" y="905" width="455" height="111" fill="#FFD966"/><text font-family="Calibri,Calibri_MSFontService,sans-serif" font-weight="400" font-size="64" transform="matrix(1 0 0 1 842.285 981)">Decrypt Circuit</text><rect x="1956" y="906" width="452" height="112" fill="#FFD966"/><text font-family="Calibri,Calibri_MSFontService,sans-serif" font-weight="400" font-size="64" transform="matrix(1 0 0 1 1991.46 983)">Encrypt Circuit</text><rect x="1849" y="2053" width="458" height="111" fill="#FFD966"/><text font-family="Calibri,Calibri_MSFontService,sans-serif" font-weight="400" font-size="64" transform="matrix(1 0 0 1 1886.82 2129)">KeyGen Circuit</text><rect x="1798" y="1708" width="369" height="111" fill="#FFD966"/><text font-family="Calibri,Calibri_MSFontService,sans-serif" font-weight="400" font-size="64" transform="matrix(1 0 0 1 1848.23 1785)">Active Key</text><rect x="1347" y="497" width="532" height="111" fill="#FFD966"/><text font-family="Calibri,Calibri_MSFontService,sans-serif" font-weight="400" font-size="64" transform="matrix(1 0 0 1 1398.9 574)">Cloud Controller</text><text font-family="Calibri,Calibri_MSFontService,sans-serif" font-weight="400" font-size="147" text-decoration="underline" transform="matrix(1 0 0 1 224.75 945)">Plant</text></g></svg>