<svg width="2785" height="1557" xmlns="http://www.w3.org/2000/svg" xmlns:xlink="http://www.w3.org/1999/xlink" xml:space="preserve" overflow="hidden"><g transform="translate(-848 -666)"><path d="M850.5 809.278C850.5 731.529 913.528 668.5 991.278 668.5L3464.72 668.5C3542.47 668.5 3605.5 731.529 3605.5 809.278L3605.5 2044.72C3605.5 2122.47 3542.47 2185.5 3464.72 2185.5L991.278 2185.5C913.528 2185.5 850.5 2122.47 850.5 2044.72Z" stroke="#FFC000" stroke-width="4.58333" stroke-miterlimit="8" fill="#FBE5D6" fill-rule="evenodd" fill-opacity="0.521569"/><path d="M2684.29 1095.86 2582.58 1095.86 2582.58 909.5 2592.89 919.813 2532.44 919.813 2532.44 899.188 2603.21 899.188 2603.21 1085.54 2592.89 1075.23 2684.29 1075.23ZM2542.75 940.438 2501.5 909.5 2542.75 878.563Z" fill="#C00000"/><path d="M0-10.3125 123.182-10.3125 123.182 175.427 112.87 165.114 194.803 165.114 194.803 185.739 102.557 185.739 102.557 0 112.87 10.3125 0 10.3125ZM184.49 144.489 225.74 175.427 184.49 206.364Z" fill="#C00000" transform="matrix(-1 1.22465e-16 1.22465e-16 1 2157.24 909.5)"/><g><g><g><path d="M3499.45 915.125 3499.45 1090.44 3412.83 1003.81 3499.45 915.125ZM3308.67 899.656 3485.53 899.656 3398.39 989.891 3308.67 899.656ZM3303.52 1179.12 3284.95 1160.56 3303.52 1120.34 3322.08 1160.56 3303.52 1179.12ZM3317.95 1194.08 3331.36 1180.67 3355.08 1231.2 3317.95 1194.08ZM3251.95 1230.69 3275.67 1180.16 3289.08 1193.56 3251.95 1230.69ZM3303.52 1208 3335.48 1239.97 3271.55 1239.97 3303.52 1208ZM3546.38 1137.88 3520.08 1111.06 3520.08 909.969 3525.23 904.812C3534 896.047 3534 882.641 3525.23 873.875 3516.47 865.109 3503.06 865.109 3494.3 873.875L3489.14 879.031 3288.05 879.031 3266.91 858.406C3250.92 887.281 3241.64 921.312 3241.64 956.891 3241.64 1009.48 3261.23 1056.92 3293.2 1093.53L3225.66 1238.94C3223.59 1243.58 3223.59 1249.25 3226.69 1253.89 3229.78 1258.53 3234.42 1261.11 3239.58 1261.11L3367.97 1261.11C3373.12 1261.11 3378.28 1258.53 3380.86 1253.89 3383.44 1249.25 3383.95 1244.09 3381.89 1238.94L3328.27 1124.47C3362.3 1148.19 3403.55 1162.62 3447.89 1162.62 3483.47 1163.14 3516.98 1153.34 3546.38 1137.88Z"/></g></g></g><rect x="2786.5" y="997.5" width="198" height="198" stroke="#172C51" stroke-width="4.58333" stroke-miterlimit="8" fill="#329FD6"/><g><g><g><path d="M86.4584 119.658 86.4584 128.823 79.5417 128.823 79.5417 119.658C75.5646 118.275 72.625 114.471 72.625 109.802 72.625 104.096 77.2938 99.4271 83 99.4271 88.7063 99.4271 93.375 104.096 93.375 109.802 93.375 114.298 90.4354 118.102 86.4584 119.658ZM57.0625 56.1979C57.0625 41.8458 68.6479 30.2604 83 30.2604 97.3521 30.2604 108.938 41.8458 108.938 56.1979L108.938 75.3917 83 73.4896 57.0625 75.3917 57.0625 56.1979ZM119.313 76.0833 119.313 56.1979C119.313 36.1396 103.058 19.8854 83 19.8854 62.9417 19.8854 46.6875 36.1396 46.6875 56.1979L46.6875 76.0833 34.5833 76.9479 34.5833 142.656 83 146.115 131.417 142.656 131.417 76.9479 119.313 76.0833Z" fill="#FAD85C" transform="matrix(1.10843 0 0 1 2793 1011)"/></g></g></g><g><g><g><path d="M2797.88 1183.12 2972.12 1183.12 2972.12 1008.88 2797.88 1008.88ZM2808.12 1019.13 2961.88 1019.13 2961.88 1172.88 2808.12 1172.88Z"/><path d="M3069.5 998.625 3069.5 988.375 3023.38 988.375 3023.38 983.25C3023.36 969.105 3011.9 957.642 2997.75 957.625L2992.62 957.625 2992.62 911.5 2982.38 911.5 2982.38 957.625 2951.62 957.625 2951.62 911.5 2941.38 911.5 2941.38 957.625 2910.62 957.625 2910.62 911.5 2900.38 911.5 2900.38 957.625 2869.62 957.625 2869.62 911.5 2859.38 911.5 2859.38 957.625 2828.62 957.625 2828.62 911.5 2818.38 911.5 2818.38 957.625 2787.62 957.625 2787.62 911.5 2777.38 911.5 2777.38 957.625 2772.25 957.625C2758.1 957.642 2746.64 969.105 2746.62 983.25L2746.62 988.375 2700.5 988.375 2700.5 998.625 2746.62 998.625 2746.62 1029.38 2700.5 1029.38 2700.5 1039.63 2746.62 1039.63 2746.62 1070.38 2700.5 1070.38 2700.5 1080.63 2746.62 1080.63 2746.62 1111.38 2700.5 1111.38 2700.5 1121.62 2746.62 1121.62 2746.62 1152.38 2700.5 1152.38 2700.5 1162.62 2746.62 1162.62 2746.62 1193.38 2700.5 1193.38 2700.5 1203.62 2746.62 1203.62 2746.62 1208.75C2746.64 1222.9 2758.1 1234.36 2772.25 1234.38L2777.38 1234.38 2777.38 1280.5 2787.62 1280.5 2787.62 1234.38 2818.38 1234.38 2818.38 1280.5 2828.62 1280.5 2828.62 1234.38 2859.38 1234.38 2859.38 1280.5 2869.62 1280.5 2869.62 1234.38 2900.38 1234.38 2900.38 1280.5 2910.62 1280.5 2910.62 1234.38 2941.38 1234.38 2941.38 1280.5 2951.62 1280.5 2951.62 1234.38 2982.38 1234.38 2982.38 1280.5 2992.62 1280.5 2992.62 1234.38 2997.75 1234.38C3011.9 1234.36 3023.36 1222.9 3023.38 1208.75L3023.38 1203.62 3069.5 1203.62 3069.5 1193.38 3023.38 1193.38 3023.38 1162.62 3069.5 1162.62 3069.5 1152.38 3023.38 1152.38 3023.38 1121.62 3069.5 1121.62 3069.5 1111.38 3023.38 1111.38 3023.38 1080.63 3069.5 1080.63 3069.5 1070.38 3023.38 1070.38 3023.38 1039.63 3069.5 1039.63 3069.5 1029.38 3023.38 1029.38 3023.38 998.625ZM3013.12 1208.75C3013.12 1217.24 3006.24 1224.12 2997.75 1224.12L2772.25 1224.12C2763.76 1224.12 2756.88 1217.24 2756.88 1208.75L2756.88 983.25C2756.88 974.758 2763.76 967.875 2772.25 967.875L2997.75 967.875C3006.24 967.875 3013.12 974.758 3013.12 983.25Z"/></g></g></g><path d="M2.16796e-05-10.3125 120.106-10.3122 120.106 10.3128-2.16796e-05 10.3125ZM109.794-30.9373 171.669 0.000360892 109.794 30.9377Z" fill="#57DB5A" transform="matrix(-1 0 0 1 3244.17 1094.5)"/><g><g><g><path d="M502.084 203.621C501.744 198.689 498.155 194.589 493.311 193.6L435.155 181.725C431.538 180.976 427.787 182.104 425.183 184.723L413.435 196.465 335.335 118.366C334.392 134.368 325.754 148.922 312.158 157.415L382.322 227.579 370.975 238.931C368.398 241.509 367.265 245.196 367.95 248.776L379.198 307.538C380.139 312.451 384.277 316.109 389.268 316.443L447.601 320.331C447.849 320.331 448.096 320.359 448.344 320.359 454.419 320.558 459.505 315.794 459.704 309.719 459.903 303.643 455.139 298.558 449.064 298.359L399.201 295.059 390.648 250.371 436.557 204.462 480.7 213.455 484.033 263.417C484.437 269.483 489.682 274.073 495.748 273.669 501.814 273.265 506.404 268.02 506 261.954Z" transform="matrix(-1 0 0 1 1409 814)"/><path d="M236.176 280.176C236.18 262.496 231.124 245.184 221.606 230.285L182.798 276.65C162.717 300.721 126.924 303.956 102.853 283.874 78.782 263.793 75.5474 228 95.6285 203.93 97.8137 201.31 100.231 198.893 102.85 196.707L104.28 195.508C71.1222 210.64 49.8432 243.728 49.83 280.176L49.83 385 236.176 385Z" transform="matrix(-1 0 0 1 1409 814)"/><path d="M236.5 115.5C236.5 112.152 236.839 108.813 237.512 105.534L113.426 209.357C96.3831 223.638 94.1435 249.03 108.424 266.073 122.703 283.117 148.096 285.357 165.14 271.076 166.951 269.559 168.625 267.885 170.143 266.073L260.634 157.927C245.691 149.01 236.528 132.901 236.5 115.5ZM153.577 241.483C149.282 245.78 142.316 245.781 138.02 241.485 133.724 237.19 133.723 230.226 138.018 225.929 142.313 221.632 149.278 221.631 153.574 225.927 153.575 225.927 153.576 225.928 153.577 225.929 157.871 230.225 157.871 237.188 153.577 241.483Z" transform="matrix(-1 0 0 1 1409 814)"/><path d="M236.5 407 49.5 407C37.3497 407 27.5 416.85 27.5 429L27.5 451 258.5 451 258.5 429C258.5 416.85 248.65 407 236.5 407Z" transform="matrix(-1 0 0 1 1409 814)"/><path d="M286 82.5C267.775 82.5 253 97.2747 253 115.5 253 133.725 267.775 148.5 286 148.5 304.225 148.5 319 133.725 319 115.5 319 97.2747 304.225 82.5 286 82.5ZM286 123.75C281.444 123.75 277.75 120.056 277.75 115.5 277.75 110.944 281.444 107.25 286 107.25 290.556 107.25 294.25 110.944 294.25 115.5 294.25 120.056 290.556 123.75 286 123.75Z" transform="matrix(-1 0 0 1 1409 814)"/></g></g></g><rect x="1657.5" y="997.5" width="198" height="198" stroke="#172C51" stroke-width="4.58333" stroke-miterlimit="8" fill="#329FD6"/><g><g><g><path d="M83 79.5417 57.0625 81.4438 57.0625 50.1458C57.0625 35.7938 68.6479 24.2083 83 24.2083 97.3521 24.2083 108.938 35.7938 108.938 50.1458L108.938 60.5208 119.313 60.5208 119.313 50.1458C119.313 30.0875 103.058 13.8333 83 13.8333 62.9417 13.8333 46.6875 30.0875 46.6875 50.1458L46.6875 82.1354 34.5833 83 34.5833 148.708 83 152.167 131.417 148.708 131.417 83 83 79.5417ZM86.4584 125.71 86.4584 134.875 79.5417 134.875 79.5417 125.71C75.5646 124.327 72.625 120.523 72.625 115.854 72.625 110.148 77.2938 105.479 83 105.479 88.7063 105.479 93.375 110.148 93.375 115.854 93.375 120.35 90.4354 124.154 86.4584 125.71Z" stroke="#FFC000" stroke-width="1.72917" fill="#FAD85C" transform="matrix(1.10843 0 0 1 1664 1013)"/></g></g></g><g><g><g><path d="M1668.88 1183.12 1843.12 1183.12 1843.12 1008.88 1668.88 1008.88ZM1679.13 1019.13 1832.88 1019.13 1832.88 1172.88 1679.13 1172.88Z"/><path d="M1940.5 998.625 1940.5 988.375 1894.38 988.375 1894.38 983.25C1894.36 969.105 1882.9 957.642 1868.75 957.625L1863.62 957.625 1863.62 911.5 1853.38 911.5 1853.38 957.625 1822.62 957.625 1822.62 911.5 1812.38 911.5 1812.38 957.625 1781.62 957.625 1781.62 911.5 1771.38 911.5 1771.38 957.625 1740.63 957.625 1740.63 911.5 1730.38 911.5 1730.38 957.625 1699.63 957.625 1699.63 911.5 1689.38 911.5 1689.38 957.625 1658.63 957.625 1658.63 911.5 1648.38 911.5 1648.38 957.625 1643.25 957.625C1629.1 957.642 1617.64 969.105 1617.63 983.25L1617.63 988.375 1571.5 988.375 1571.5 998.625 1617.63 998.625 1617.63 1029.38 1571.5 1029.38 1571.5 1039.63 1617.63 1039.63 1617.63 1070.38 1571.5 1070.38 1571.5 1080.63 1617.63 1080.63 1617.63 1111.38 1571.5 1111.38 1571.5 1121.62 1617.63 1121.62 1617.63 1152.38 1571.5 1152.38 1571.5 1162.62 1617.63 1162.62 1617.63 1193.38 1571.5 1193.38 1571.5 1203.62 1617.63 1203.62 1617.63 1208.75C1617.64 1222.9 1629.1 1234.36 1643.25 1234.38L1648.38 1234.38 1648.38 1280.5 1658.63 1280.5 1658.63 1234.38 1689.38 1234.38 1689.38 1280.5 1699.63 1280.5 1699.63 1234.38 1730.38 1234.38 1730.38 1280.5 1740.63 1280.5 1740.63 1234.38 1771.38 1234.38 1771.38 1280.5 1781.62 1280.5 1781.62 1234.38 1812.38 1234.38 1812.38 1280.5 1822.62 1280.5 1822.62 1234.38 1853.38 1234.38 1853.38 1280.5 1863.62 1280.5 1863.62 1234.38 1868.75 1234.38C1882.9 1234.36 1894.36 1222.9 1894.38 1208.75L1894.38 1203.62 1940.5 1203.62 1940.5 1193.38 1894.38 1193.38 1894.38 1162.62 1940.5 1162.62 1940.5 1152.38 1894.38 1152.38 1894.38 1121.62 1940.5 1121.62 1940.5 1111.38 1894.38 1111.38 1894.38 1080.63 1940.5 1080.63 1940.5 1070.38 1894.38 1070.38 1894.38 1039.63 1940.5 1039.63 1940.5 1029.38 1894.38 1029.38 1894.38 998.625ZM1884.12 1208.75C1884.12 1217.24 1877.24 1224.12 1868.75 1224.12L1643.25 1224.12C1634.76 1224.12 1627.88 1217.24 1627.88 1208.75L1627.88 983.25C1627.88 974.758 1634.76 967.875 1643.25 967.875L1868.75 967.875C1877.24 967.875 1884.12 974.758 1884.12 983.25Z"/></g></g></g><path d="M2.02576e-05-10.3125 132.156-10.3122 132.156 10.3128-2.02576e-05 10.3125ZM121.844-30.9373 183.719 0.000360892 121.844 30.9377Z" fill="#57DB5A" transform="matrix(-1 0 0 1 1560.22 1097.5)"/><g><g><g><path d="M2394.72 1632.03 2417.06 1654.38 2439.41 1632.03 2461.75 1654.38 2489.25 1620 2461.75 1585.63 2322.53 1585.63C2310.16 1562.94 2286.44 1547.81 2258.94 1547.81 2219.06 1547.81 2186.75 1580.13 2186.75 1620 2186.75 1659.88 2219.06 1692.19 2258.94 1692.19 2286.44 1692.19 2310.16 1677.06 2322.53 1654.38L2344.87 1654.38 2358.62 1640.63 2372.37 1654.38 2394.72 1632.03ZM2228 1640.63C2216.66 1640.63 2207.37 1631.34 2207.37 1620 2207.37 1608.66 2216.66 1599.38 2228 1599.38 2239.34 1599.38 2248.62 1608.66 2248.62 1620 2248.62 1631.34 2239.34 1640.63 2228 1640.63Z"/></g></g></g><rect x="2239.5" y="1877.5" width="198" height="198" stroke="#172C51" stroke-width="4.58333" stroke-miterlimit="8" fill="#329FD6"/><g><g><g><path d="M2250.84 2063.16 2426.16 2063.16 2426.16 1887.84 2250.84 1887.84ZM2261.16 1898.16 2415.84 1898.16 2415.84 2052.84 2261.16 2052.84Z"/><path d="M2524.12 1877.53 2524.12 1867.22 2477.72 1867.22 2477.72 1862.06C2477.7 1847.83 2466.17 1836.3 2451.94 1836.28L2446.78 1836.28 2446.78 1789.88 2436.47 1789.88 2436.47 1836.28 2405.53 1836.28 2405.53 1789.88 2395.22 1789.88 2395.22 1836.28 2364.28 1836.28 2364.28 1789.88 2353.97 1789.88 2353.97 1836.28 2323.03 1836.28 2323.03 1789.88 2312.72 1789.88 2312.72 1836.28 2281.78 1836.28 2281.78 1789.88 2271.47 1789.88 2271.47 1836.28 2240.53 1836.28 2240.53 1789.88 2230.22 1789.88 2230.22 1836.28 2225.06 1836.28C2210.83 1836.3 2199.3 1847.83 2199.28 1862.06L2199.28 1867.22 2152.88 1867.22 2152.88 1877.53 2199.28 1877.53 2199.28 1908.47 2152.88 1908.47 2152.88 1918.78 2199.28 1918.78 2199.28 1949.72 2152.88 1949.72 2152.88 1960.03 2199.28 1960.03 2199.28 1990.97 2152.88 1990.97 2152.88 2001.28 2199.28 2001.28 2199.28 2032.22 2152.88 2032.22 2152.88 2042.53 2199.28 2042.53 2199.28 2073.47 2152.88 2073.47 2152.88 2083.78 2199.28 2083.78 2199.28 2088.94C2199.3 2103.17 2210.83 2114.7 2225.06 2114.72L2230.22 2114.72 2230.22 2161.12 2240.53 2161.12 2240.53 2114.72 2271.47 2114.72 2271.47 2161.12 2281.78 2161.12 2281.78 2114.72 2312.72 2114.72 2312.72 2161.12 2323.03 2161.12 2323.03 2114.72 2353.97 2114.72 2353.97 2161.12 2364.28 2161.12 2364.28 2114.72 2395.22 2114.72 2395.22 2161.12 2405.53 2161.12 2405.53 2114.72 2436.47 2114.72 2436.47 2161.12 2446.78 2161.12 2446.78 2114.72 2451.94 2114.72C2466.17 2114.7 2477.7 2103.17 2477.72 2088.94L2477.72 2083.78 2524.12 2083.78 2524.12 2073.47 2477.72 2073.47 2477.72 2042.53 2524.12 2042.53 2524.12 2032.22 2477.72 2032.22 2477.72 2001.28 2524.12 2001.28 2524.12 1990.97 2477.72 1990.97 2477.72 1960.03 2524.12 1960.03 2524.12 1949.72 2477.72 1949.72 2477.72 1918.78 2524.12 1918.78 2524.12 1908.47 2477.72 1908.47 2477.72 1877.53ZM2467.41 2088.94C2467.41 2097.48 2460.48 2104.41 2451.94 2104.41L2225.06 2104.41C2216.52 2104.41 2209.59 2097.48 2209.59 2088.94L2209.59 1862.06C2209.59 1853.52 2216.52 1846.59 2225.06 1846.59L2451.94 1846.59C2460.48 1846.59 2467.41 1853.52 2467.41 1862.06Z"/></g></g></g><g><g><g><path d="M2383.19 2021.91 2362.56 2021.91 2362.56 2006.44 2383.19 2006.44 2383.19 2021.91ZM2348.81 2021.91 2328.19 2021.91 2328.19 2006.44 2348.81 2006.44 2348.81 2021.91ZM2314.44 2021.91 2293.81 2021.91 2293.81 2006.44 2314.44 2006.44 2314.44 2021.91ZM2350.53 1987.53 2350.53 1963.47 2304.12 1987.53 2298.97 1917.06 2285.22 1917.06 2280.06 1987.53 2280.06 2033.94 2396.94 2033.94 2396.94 1987.53 2396.94 1963.47 2350.53 1987.53Z" fill="#FAD85C"/></g></g></g><path d="M6.875-2.0409e-05 6.87526 87.1959-6.87474 87.196-6.875 2.0409e-05ZM20.6252 80.3209 0.000360892 121.571-20.6248 80.321Z" fill="#B22DDB" transform="matrix(1 0 0 -1 2338 1789.57)"/><path d="M0-6.875 13.75-6.875 13.75 6.875 0 6.875ZM27.5-6.875 41.25-6.875 41.25 6.875 27.5 6.875ZM55-6.875 68.75-6.875 68.75 6.875 55 6.875ZM82.5-6.875 96.25-6.875 96.25 6.875 82.5 6.875ZM110-6.875 123.75-6.875 123.75 6.875 110 6.875ZM137.5-6.875 151.25-6.875 151.25 6.875 137.5 6.875ZM165-6.875 178.75-6.875 178.75 6.875 165 6.875ZM192.5-6.875 206.25-6.875 206.25 6.875 192.5 6.875ZM220-6.875 233.75-6.875 233.75 6.875 220 6.875ZM247.5-6.875 261.25-6.875 261.25 6.875 247.5 6.875ZM275-6.875 288.75-6.875 288.75 6.875 275 6.875ZM302.5-6.875 316.25-6.875 316.25 6.875 302.5 6.875ZM330-6.875 343.75-6.875 343.75 6.875 330 6.875ZM357.5-6.875 371.25-6.875 371.25 6.875 357.5 6.875ZM385-6.875 398.75-6.875 398.75 6.875 385 6.875ZM412.5-6.875 426.25-6.875 426.25 6.875 412.5 6.875ZM440-6.875 453.75-6.875 453.75 6.875 440 6.875ZM467.5-6.875 481.25-6.875 481.25 6.875 467.5 6.875ZM495-6.875 508.75-6.875 508.75 6.875 495 6.875ZM522.5-6.875 536.25-6.875 536.25 6.875 522.5 6.875ZM551.94 4.92903 551.979 18.679 538.229 18.7176 538.191 4.96769ZM552.018 32.4289 552.056 46.1789 538.307 46.2175 538.268 32.4676ZM552.095 59.9288 552.134 73.6787 538.384 73.7174 538.345 59.9675ZM552.172 87.4287 552.211 101.179 538.461 101.217 538.423 87.4674ZM565.654 106.305 546.977 148.473 524.449 108.23Z" fill="#B22DDB" transform="matrix(1 0 0 -1 2338 1446.47)"/><path d="M0 0 0.000360892 117.675" stroke="#B22DDB" stroke-width="13.75" stroke-miterlimit="8" stroke-dasharray="13.75 13.75" fill="none" fill-rule="evenodd" transform="matrix(1 0 0 -1 2338 1563.68)"/><path d="M2338.22 1453.29 2324.47 1453.29 2324.47 1439.54 2338.22 1439.54ZM2310.72 1453.29 2296.97 1453.29 2296.97 1439.54 2310.72 1439.54ZM2283.22 1453.29 2269.47 1453.29 2269.47 1439.54 2283.22 1439.54ZM2255.72 1453.29 2241.97 1453.29 2241.97 1439.54 2255.72 1439.54ZM2228.22 1453.29 2214.47 1453.29 2214.47 1439.54 2228.22 1439.54ZM2200.72 1453.29 2186.97 1453.29 2186.97 1439.54 2200.72 1439.54ZM2173.22 1453.29 2159.47 1453.29 2159.47 1439.54 2173.22 1439.54ZM2145.72 1453.29 2131.97 1453.29 2131.97 1439.54 2145.72 1439.54ZM2118.22 1453.29 2104.47 1453.29 2104.47 1439.54 2118.22 1439.54ZM2090.72 1453.29 2076.97 1453.29 2076.97 1439.54 2090.72 1439.54ZM2063.22 1453.29 2049.47 1453.29 2049.47 1439.54 2063.22 1439.54ZM2035.72 1453.29 2021.97 1453.29 2021.97 1439.54 2035.72 1439.54ZM2008.22 1453.29 1994.47 1453.29 1994.47 1439.54 2008.22 1439.54ZM1980.72 1453.29 1966.97 1453.29 1966.97 1439.54 1980.72 1439.54ZM1953.22 1453.29 1939.47 1453.29 1939.47 1439.54 1953.22 1439.54ZM1925.72 1453.29 1911.97 1453.29 1911.97 1439.54 1925.72 1439.54ZM1898.22 1453.29 1884.47 1453.29 1884.47 1439.54 1898.22 1439.54ZM1870.72 1453.29 1856.97 1453.29 1856.97 1439.54 1870.72 1439.54ZM1843.22 1453.29 1829.47 1453.29 1829.47 1439.54 1843.22 1439.54ZM1815.72 1453.29 1801.97 1453.29 1801.97 1439.54 1815.72 1439.54ZM1788.22 1453.29 1774.47 1453.29 1774.47 1439.54 1788.22 1439.54ZM1760.72 1453.29 1749.77 1453.29 1749.76 1436.76 1763.51 1436.74 1763.52 1446.41 1756.64 1439.54 1760.72 1439.54ZM1749.74 1423.01 1749.73 1409.26 1763.48 1409.24 1763.49 1422.99ZM1749.72 1395.51 1749.7 1381.76 1763.45 1381.74 1763.47 1395.49ZM1749.69 1368.01 1749.68 1354.26 1763.43 1354.24 1763.44 1367.99ZM1749.67 1340.51 1749.66 1333.38 1763.41 1333.36 1763.42 1340.49ZM1736.02 1340.57 1756 1299 1777.26 1339.92Z" fill="#B22DDB"/><rect x="3146" y="1298" width="277" height="111" fill="#FFD966"/><text font-family="Calibri,Calibri_MSFontService,sans-serif" font-weight="400" font-size="64" transform="matrix(1 0 0 1 3183.53 1374)">Sensors</text><path d="M1304 1652.13 1431.25 1652.12 1431.25 1665.87 1304 1665.88ZM1424.37 1638.37 1465.62 1659 1424.37 1679.62Z" fill="#C00000"/><rect x="1036" y="1613" width="185" height="91.0001" stroke="#C00000" stroke-width="10.3125" stroke-miterlimit="8" fill="none"/><text font-family="Calibri,Calibri_MSFontService,sans-serif" font-weight="400" font-size="110" transform="matrix(1 0 0 1 1496.84 1686)">Ciphertext</text><path d="M1304 1839.13 1431.25 1839.12 1431.25 1852.87 1304 1852.88ZM1424.37 1825.37 1465.62 1846 1424.37 1866.62Z" fill="#57DB5A"/><rect x="1036" y="1801" width="185" height="90.0001" stroke="#57DB5A" stroke-width="10.3125" stroke-miterlimit="8" fill="none"/><text font-family="Calibri,Calibri_MSFontService,sans-serif" font-weight="400" font-size="110" transform="matrix(1 0 0 1 1496.84 1873)">Plaintext</text><path d="M1304 2022.13 1431.25 2022.13 1431.25 2035.88 1304 2035.88ZM1424.37 2008.38 1465.62 2029 1424.37 2049.62Z" fill="#B22DDB"/><rect x="1036" y="1983" width="185" height="90.9996" stroke="#B22DDB" stroke-width="10.3125" stroke-miterlimit="8" fill="none"/><text font-family="Calibri,Calibri_MSFontService,sans-serif" font-weight="400" font-size="110" transform="matrix(1 0 0 1 1496.84 2056)">Key Signal</text><rect x="1081" y="1298" width="328" height="111" fill="#FFD966"/><text font-family="Calibri,Calibri_MSFontService,sans-serif" font-weight="400" font-size="64" transform="matrix(1 0 0 1 1118.03 1374)">Actuators</text><rect x="1526" y="761" width="455" height="111" fill="#FFD966"/><text font-family="Calibri,Calibri_MSFontService,sans-serif" font-weight="400" font-size="64" transform="matrix(1 0 0 1 1559.13 838)">Decrypt Circuit</text><rect x="2674" y="763" width="452" height="111" fill="#FFD966"/><text font-family="Calibri,Calibri_MSFontService,sans-serif" font-weight="400" font-size="64" transform="matrix(1 0 0 1 2708.3 839)">Encrypt Circuit</text><rect x="2566" y="1909" width="458" height="111" fill="#FFD966"/><text font-family="Calibri,Calibri_MSFontService,sans-serif" font-weight="400" font-size="64" transform="matrix(1 0 0 1 2602.85 1986)">KeyGen Circuit</text><rect x="2515" y="1565" width="370" height="111" fill="#FFD966"/><text font-family="Calibri,Calibri_MSFontService,sans-serif" font-weight="400" font-size="64" transform="matrix(1 0 0 1 2564.42 1641)">Active Key</text><path d="M2154 911C2154 817.664 2231.68 742 2327.5 742 2423.32 742 2501 817.664 2501 911 2501 1004.34 2423.32 1080 2327.5 1080 2231.68 1080 2154 1004.34 2154 911Z" fill="#AEAEAE" fill-rule="evenodd"/><path d="M2157 908.5C2157 815.992 2234.01 741 2329 741 2423.99 741 2501 815.992 2501 908.5 2501 1001.01 2423.99 1076 2329 1076 2234.01 1076 2157 1001.01 2157 908.5Z" stroke="#000000" stroke-width="10.3125" stroke-miterlimit="8" fill="none" fill-rule="evenodd"/><path d="M2433.04 887.638C2432.03 887.638 2430.69 887.638 2429.68 887.638 2429.68 887.638 2429.68 887.638 2429.68 887.638 2429.68 871.095 2421.63 855.903 2408.53 846.45 2395.1 836.997 2377.97 834.634 2362.53 840.035 2349.77 815.053 2321.56 802.224 2294.7 808.638 2267.84 815.053 2248.36 839.36 2248.36 867.381 2248.36 867.381 2248.36 867.719 2248.36 868.057 2229.89 865.018 2211.43 872.783 2200.01 887.638 2188.93 902.83 2186.91 922.748 2194.64 939.629 2202.7 956.509 2219.48 967.65 2237.95 968.663L2237.95 969 2432.71 969C2454.87 969 2473 950.77 2473 928.488 2473 906.206 2455.2 887.638 2433.04 887.638Z" stroke="#000000" stroke-width="10.3125" stroke-miterlimit="8" fill="#FFFFFF" fill-rule="evenodd"/><rect x="2070" y="1108" width="533" height="111" fill="#FFD966"/><text font-family="Calibri,Calibri_MSFontService,sans-serif" font-weight="400" font-size="64" transform="matrix(1 0 0 1 2121.95 1184)">Cloud Controller</text></g></svg>